<svg width="28" height="28" viewBox="0 0 28 28" fill="none" xmlns="http://www.w3.org/2000/svg">
<path d="M5.396 8.875C4.98178 8.875 4.646 9.21079 4.646 9.625C4.646 10.0392 4.98178 10.375 5.396 10.375V8.875ZM12.6876 10.375C13.1018 10.375 13.4376 10.0392 13.4376 9.625C13.4376 9.21079 13.1018 8.875 12.6876 8.875V10.375ZM5.396 10.375H12.6876V8.875H5.396V10.375Z" fill="#001824"/>
<path d="M6.85449 13.25C6.44028 13.25 6.10449 13.5858 6.10449 14C6.10449 14.4142 6.44028 14.75 6.85449 14.75V13.25ZM9.77115 14.75C10.1854 14.75 10.5211 14.4142 10.5211 14C10.5211 13.5858 10.1854 13.25 9.77115 13.25V14.75ZM6.85449 14.75H9.77115V13.25H6.85449V14.75Z" fill="#001824"/>
<circle cx="15.6043" cy="13.9999" r="5.08331" stroke="#001824" stroke-width="1.5"/>
</svg>
