<svg width="31" height="32" viewBox="0 0 31 32" fill="none" xmlns="http://www.w3.org/2000/svg">
<g clip-path="url(#clip0_1382_879)">
<path d="M3.69871 17.1694L15.4006 5.46749C16.8342 4.03392 18.7786 3.22854 20.8059 3.22854C22.8333 3.22854 24.7777 4.03392 26.2112 5.46749C27.6448 6.90107 28.4502 8.84541 28.4502 10.8728C28.4502 12.9002 27.6448 14.8445 26.2112 16.2781L14.5093 27.98C13.5536 28.9357 12.2574 29.4727 10.9058 29.4727C9.55419 29.4727 8.25796 28.9357 7.30225 27.98C6.34653 27.0243 5.80961 25.7281 5.80961 24.3765C5.80961 23.0249 6.34653 21.7287 7.30225 20.773L19.0169 9.07102C19.4948 8.59317 20.1429 8.32471 20.8187 8.32471C21.4945 8.32471 22.1426 8.59317 22.6204 9.07102C23.0983 9.54888 23.3668 10.197 23.3668 10.8728C23.3668 11.5486 23.0983 12.1967 22.6204 12.6746L11.8098 23.4724" stroke="#767474" stroke-width="2" stroke-linecap="round" stroke-linejoin="round"/>
</g>
<defs>
<clipPath id="clip0_1382_879">
<rect width="30.56" height="30.56" fill="white" transform="translate(30.999 31.2402) rotate(-180)"/>
</clipPath>
</defs>
</svg>
