<svg width="32" height="31" viewBox="0 0 32 31" fill="none" xmlns="http://www.w3.org/2000/svg">
<path d="M4.05809 16.5317L15.76 4.8298C17.1936 3.39622 19.1379 2.59085 21.1653 2.59085C23.1927 2.59085 25.137 3.39622 26.5706 4.8298C28.0042 6.26337 28.8096 8.20771 28.8096 10.2351C28.8096 12.2625 28.0042 14.2068 26.5706 15.6404L14.8687 27.3423C13.913 28.298 12.6167 28.835 11.2652 28.835C9.91357 28.835 8.61734 28.298 7.66162 27.3423C6.7059 26.3866 6.16899 25.0904 6.16899 23.7388C6.16899 22.3872 6.7059 21.091 7.66162 20.1353L19.3763 8.43333C19.8541 7.95547 20.5023 7.68701 21.1781 7.68701C21.8538 7.68701 22.502 7.95547 22.9798 8.43333C23.4577 8.91119 23.7261 9.5593 23.7261 10.2351C23.7261 10.9109 23.4577 11.559 22.9798 12.0369L12.1692 22.8347" stroke="#252525" stroke-width="2" stroke-linecap="round" stroke-linejoin="round"/>
</svg>
