<svg width="23" height="22" viewBox="0 0 23 22" fill="none" xmlns="http://www.w3.org/2000/svg">
<path d="M0.658386 17.1471L14.2312 3.57434C14.5281 3.29094 14.9228 3.13281 15.3333 3.13281C15.7438 3.13281 16.1385 3.29094 16.4354 3.57434L18.451 5.58992C18.7428 5.88244 18.9067 6.27879 18.9067 6.69201C18.9067 7.10524 18.7428 7.50159 18.451 7.79411L4.87894 21.3669C4.58641 21.6588 4.19007 21.8227 3.77684 21.8227C3.36362 21.8227 2.96727 21.6588 2.67474 21.3669L0.658386 19.3513C0.36615 19.059 0.201979 18.6626 0.201979 18.2492C0.201979 17.8359 0.36615 17.4395 0.658386 17.1471ZM17.3489 6.69201L15.3333 4.67644L11.4362 8.57353L13.4526 10.5899L17.3489 6.69201ZM3.77684 20.2648L12.3505 11.692L10.3341 9.67563L1.76048 18.2492L3.77684 20.2648Z" fill="white"/>
<path d="M22.0254 10.9119L20.4666 9.35303L18.9077 10.9119L20.4666 12.4707L22.0254 10.9119Z" fill="white"/>
<path d="M12.6724 1.55884L11.1135 0L9.55469 1.55884L11.1135 3.11768L12.6724 1.55884Z" fill="white"/>
<path d="M22.0254 1.55884L20.4666 0L18.9077 1.55884L20.4666 3.11768L22.0254 1.55884Z" fill="white"/>
</svg>
