<svg width="25" height="25" viewBox="0 0 25 25" fill="none" xmlns="http://www.w3.org/2000/svg">
<path d="M18.3584 8.32227C18.3584 6.73097 17.7263 5.20484 16.601 4.07962C15.4758 2.95441 13.9497 2.32227 12.3584 2.32227C10.7671 2.32227 9.24098 2.95441 8.11576 4.07962C6.99054 5.20484 6.3584 6.73097 6.3584 8.32227C6.3584 15.3223 3.3584 17.3223 3.3584 17.3223H21.3584C21.3584 17.3223 18.3584 15.3223 18.3584 8.32227Z" stroke="black" stroke-width="2" stroke-linecap="round" stroke-linejoin="round"/>
<path d="M14.0879 21.3223C13.9121 21.6253 13.6598 21.8769 13.3562 22.0518C13.0525 22.2267 12.7083 22.3187 12.3579 22.3187C12.0076 22.3187 11.6633 22.2267 11.3597 22.0518C11.0561 21.8769 10.8037 21.6253 10.6279 21.3223" stroke="black" stroke-width="2" stroke-linecap="round" stroke-linejoin="round"/>
</svg>
