<svg width="24" height="25" viewBox="0 0 24 25" fill="none" xmlns="http://www.w3.org/2000/svg">
<path d="M11.2886 12.7423L22.3541 1.40727V1.404L22.6278 1.11479C22.6554 1.08559 22.657 1.04323 22.6325 1.01255C22.6319 1.01209 22.6314 1.01164 22.6309 1.01119L22.6245 1.01774L1.00909 23.1953L1.00346 23.2042L1.00074 23.208C0.99992 23.2138 0.999609 23.2212 1.0006 23.2299C1.00174 23.24 1.00431 23.2493 1.00818 23.2577C1.01346 23.2612 1.01804 23.264 1.02187 23.2661C1.02659 23.2629 1.03252 23.2584 1.03947 23.2521L7.48734 16.6395L8.18662 15.9223L8.90262 16.6228C12.9981 20.6294 15.6869 21.9422 17.3418 22.2368C18.8825 22.5111 19.6051 21.9152 19.9254 21.6016L19.9892 21.5375C20.0214 21.5043 20.0488 21.475 20.0786 21.4432C20.0864 21.4349 20.0944 21.4263 20.1027 21.4175C20.1214 21.3975 20.1443 21.3732 20.1675 21.3496C20.1819 21.335 20.2014 21.3155 20.2244 21.294C21.1078 20.3905 21.5972 19.7474 21.8387 19.2652C22.0611 18.8209 22.0443 18.5768 21.9819 18.3837C21.8969 18.1209 21.6726 17.7916 21.1817 17.2772C20.9447 17.0289 20.6713 16.7627 20.3535 16.4539L20.3323 16.4333C20.0243 16.134 19.6813 15.8008 19.3187 15.4307M11.2886 12.7423L20.0324 14.7302M11.2886 12.7423L11.2882 12.7426M11.2886 12.7423L11.2882 12.7426M19.3187 15.4307C19.3185 15.4305 19.3182 15.4302 19.318 15.43L20.0324 14.7302M19.3187 15.4307C19.319 15.431 19.3193 15.4313 19.3196 15.4316L20.0324 14.7302M19.3187 15.4307C18.7475 14.8505 18.3846 14.7659 18.1494 14.7594C17.8403 14.7508 17.5417 14.8572 16.9745 15.0593C16.9391 15.072 16.9026 15.085 16.865 15.0983C16.2867 15.304 15.5111 15.5605 14.5736 15.473C13.8392 15.4045 13.0806 15.1349 12.2682 14.6018M20.0324 14.7302C18.6992 13.3755 17.748 13.7179 16.6907 14.0985C15.6884 14.4593 14.5908 14.8545 12.9821 13.8706L12.8752 13.9802L12.8765 13.9815L12.2682 14.6018M12.2682 14.6018C12.2682 14.6017 12.2681 14.6017 12.268 14.6016L12.1628 14.7092M12.2682 14.6018L12.1628 14.7092M12.1628 14.7092L12.1616 14.7105L10.7324 13.3114L10.7337 13.3101M12.1628 14.7092L11.4476 14.0103L10.7337 13.3101M10.7337 13.3101L11.2882 12.7426M10.7337 13.3101L11.2882 12.7426M1.02962 23.2718L1.7408 23.9653L0.975414 23.2298L0.976994 23.2282M1.02962 23.2718C1.03356 23.2722 1.03575 23.2728 1.03575 23.2728C1.03576 23.2728 1.03485 23.2725 1.0329 23.2717C1.0313 23.271 1.02904 23.27 1.02615 23.2685L1.02962 23.2718ZM1.02962 23.2718C1.02801 23.2717 1.0261 23.2716 1.02394 23.2716C1.02135 23.2716 1.01891 23.2717 1.0167 23.272M1.0167 23.272C1.01627 23.2714 1.01585 23.2708 1.01543 23.2703C1.01223 23.2721 1.01017 23.2731 1.00941 23.2734C1.0089 23.2736 1.00879 23.2737 1.00907 23.2736C1.00945 23.2734 1.01053 23.2731 1.01229 23.2727C1.01361 23.2725 1.01509 23.2722 1.0167 23.272ZM1.0167 23.272C1.0187 23.2747 1.02087 23.2773 1.02319 23.2798L0.295133 23.9653L0.929853 23.2689M0.929853 23.2689L0.946971 23.2815L0.980085 23.2362C0.97647 23.2331 0.972701 23.2298 0.968782 23.2262L0.929853 23.2689ZM0.929853 23.2689L0.139814 22.6911L0.633539 22.977L0.835931 23.0942L0.836719 23.0947L1.00521 23.1922C1.00474 23.193 1.00353 23.1956 1.00239 23.1998M1.00239 23.1998C0.995059 23.2086 0.986564 23.2183 0.976994 23.2282M1.00239 23.1998C1.00213 23.2007 1.00187 23.2018 1.00162 23.2029L0.976994 23.2282M1.00239 23.1998L0.976994 23.2282M8.32852 17.4597L8.20331 17.3376C8.24518 17.3785 8.28691 17.4192 8.32852 17.4597ZM8.20324 17.3377L7.504 18.0524C7.5044 18.0528 7.50479 18.0532 7.50518 18.0536L8.20324 17.3377ZM8.11196 9.73659L5.09476 12.7977C2.10905 9.22731 1.31602 6.92351 1.2461 5.5409C1.1771 4.17637 1.80436 3.55794 2.08829 3.278C2.09398 3.2724 2.09953 3.26693 2.10493 3.26159L2.10494 3.26159L2.1079 3.25864L2.16096 3.20578L2.16098 3.20581L2.16715 3.19955C2.18564 3.1808 2.2153 3.1505 2.24765 3.11387C3.14003 2.21135 3.77326 1.71297 4.24547 1.46794C4.67845 1.24327 4.90456 1.26509 5.07869 1.32378C5.32919 1.40822 5.65006 1.63402 6.15823 2.13829C6.40269 2.38089 6.66468 2.66053 6.96885 2.98555L6.97607 2.99326C7.27417 3.31178 7.60665 3.66705 7.97685 4.04283C8.48121 4.55745 8.60699 4.90997 8.63838 5.14817C8.67366 5.41593 8.61534 5.70469 8.4587 6.17725C8.43185 6.25823 8.4024 6.34315 8.37159 6.43198C8.09634 7.22562 7.71264 8.33192 8.11196 9.73659Z" stroke="white" stroke-width="2"/>
</svg>
