<svg width="31" height="26" viewBox="0 0 31 26" fill="none" xmlns="http://www.w3.org/2000/svg">
<path d="M1.93686 22.0237C1.93686 22.6991 2.20517 23.3469 2.68276 23.8245C3.16036 24.3021 3.80811 24.5704 4.48353 24.5704H27.4035C28.0789 24.5704 28.7267 24.3021 29.2043 23.8245C29.6819 23.3469 29.9502 22.6991 29.9502 22.0237V8.01706C29.9502 7.34164 29.6819 6.69388 29.2043 6.21629C28.7267 5.7387 28.0789 5.47039 27.4035 5.47039H22.3102L19.7635 1.65039H12.1235L9.57686 5.47039H4.48353C3.80811 5.47039 3.16036 5.7387 2.68276 6.21629C2.20517 6.69388 1.93686 7.34164 1.93686 8.01706V22.0237Z" fill="#413E3E" stroke="#413E3E" stroke-width="2" stroke-linecap="round" stroke-linejoin="round"/>
<path d="M15.9428 19.4777C13.1298 19.4777 10.8495 17.1973 10.8495 14.3843C10.8495 11.5714 13.1298 9.29102 15.9428 9.29102C18.7558 9.29102 21.0361 11.5714 21.0361 14.3843C21.0361 17.1973 18.7558 19.4777 15.9428 19.4777Z" fill="#413E3E" stroke="white" stroke-width="2" stroke-linecap="round" stroke-linejoin="round"/>
</svg>
