<svg width="32" height="31" viewBox="0 0 32 31" fill="none" xmlns="http://www.w3.org/2000/svg">
<path d="M26.3848 6.55741H22.3484L20.0182 4.01074H12.3782L10.048 6.55741H6.01151C4.61084 6.55741 3.46484 7.70341 3.46484 9.10408V24.3841C3.46484 25.0595 3.73315 25.7072 4.21075 26.1848C4.68834 26.6624 5.33609 26.9307 6.01151 26.9307H26.3848C27.7982 26.9307 28.9315 25.7975 28.9315 24.3841V9.10408C28.9315 8.42866 28.6632 7.7809 28.1856 7.30331C27.708 6.82572 27.0603 6.55741 26.3848 6.55741ZM26.3848 24.3841H6.01151V9.10408H11.1685L13.4987 6.55741H18.8976L21.2915 9.10408H26.3848V24.3841ZM7.28484 15.4707H9.95884C10.1254 14.6511 10.452 13.8723 10.9199 13.1789C11.3878 12.4856 11.9877 11.8913 12.6855 11.4301C13.3833 10.9688 14.1652 10.6497 14.9864 10.4909C15.8076 10.3321 16.6521 10.3368 17.4715 10.5047C18.4392 10.6957 19.2924 11.1287 20.0182 11.6507L18.1846 13.4971C17.6116 13.1405 16.9367 12.9241 16.1982 12.9241C14.5938 12.9241 13.1422 13.9427 12.6074 15.4707H14.9248L11.1048 19.2907L7.28484 15.4707ZM22.4502 18.0174C21.7499 21.4681 18.3883 23.6837 14.9248 22.9834C14.007 22.7783 13.1405 22.3883 12.3782 21.8374L14.2118 19.9911C14.7975 20.3476 15.4724 20.5641 16.1982 20.5641C17.8153 20.5641 19.2669 19.5454 19.8017 18.0174H17.4715L21.2915 14.1974L25.1115 18.0174H22.4502Z" fill="black"/>
</svg>
