<svg width="26" height="23" viewBox="0 0 26 23" fill="none" xmlns="http://www.w3.org/2000/svg">
<path d="M15.5948 1.00005L15.5948 1H15.585H10.404V0.999952L10.3942 1.00005C8.95825 1.01415 7.7684 1.74374 7.0918 3.00493L7.09176 3.00491L7.08753 3.01297C6.89507 3.37969 6.59095 3.99009 6.31713 4.5402C3.37526 4.77366 1 7.13806 1 10.0905V16.3156C1 19.4267 3.63738 21.8849 6.796 21.8849H19.204C22.3501 21.8849 25 19.4282 25 16.3156V10.0905C25 7.13636 22.613 4.77302 19.6802 4.54011L19.6565 4.49243L19.6565 4.49239L19.4262 4.02874L19.4259 4.02815C19.2358 3.64601 19.0489 3.27296 18.9125 3.01297L18.9125 3.01295L18.9082 3.00493C18.2294 1.73969 17.0262 1.01411 15.5948 1.00005Z" stroke="white" stroke-width="2"/>
</svg>
