<svg width="32" height="31" viewBox="0 0 32 31" fill="none" xmlns="http://www.w3.org/2000/svg">
<path d="M26.2657 6.55643H22.2292L19.899 4.00977H12.259L9.92884 6.55643H5.89237C4.4917 6.55643 3.3457 7.70243 3.3457 9.1031V24.3831C3.3457 25.0585 3.61401 25.7063 4.0916 26.1839C4.5692 26.6615 5.21695 26.9298 5.89237 26.9298H26.2657C27.6791 26.9298 28.8124 25.7965 28.8124 24.3831V9.1031C28.8124 8.42768 28.5441 7.77993 28.0665 7.30233C27.5889 6.82474 26.9411 6.55643 26.2657 6.55643ZM26.2657 24.3831H5.89237V9.1031H11.0494L13.3796 6.55643H18.7785L21.1724 9.1031H26.2657V24.3831ZM7.1657 15.4698H9.8397C10.0063 14.6501 10.3329 13.8713 10.8007 13.178C11.2686 12.4846 11.8686 11.8903 12.5664 11.4291C13.2642 10.9678 14.046 10.6487 14.8672 10.4899C15.6885 10.3312 16.533 10.3359 17.3524 10.5038C18.3201 10.6948 19.1732 11.1277 19.899 11.6498L18.0654 13.4961C17.4924 13.1396 16.8176 12.9231 16.079 12.9231C14.4746 12.9231 13.023 13.9418 12.4882 15.4698H14.8057L10.9857 19.2898L7.1657 15.4698ZM22.3311 18.0164C21.6308 21.4672 18.2692 23.6828 14.8057 22.9824C13.8878 22.7773 13.0213 22.3874 12.259 21.8364L14.0926 19.9901C14.6784 20.3466 15.3532 20.5631 16.079 20.5631C17.6962 20.5631 19.1478 19.5444 19.6826 18.0164H17.3524L21.1724 14.1964L24.9924 18.0164H22.3311Z" fill="black"/>
</svg>
