<svg width="29" height="24" viewBox="0 0 29 24" fill="none" xmlns="http://www.w3.org/2000/svg">
<path d="M0.273533 20.8733C0.273533 21.5488 0.541842 22.1965 1.01943 22.6741C1.49703 23.1517 2.14478 23.42 2.8202 23.42H25.7402C26.4156 23.42 27.0634 23.1517 27.541 22.6741C28.0186 22.1965 28.2869 21.5488 28.2869 20.8733V6.86667C28.2869 6.19125 28.0186 5.54349 27.541 5.0659C27.0634 4.58831 26.4156 4.32 25.7402 4.32H20.6469L18.1002 0.5H10.4602L7.91353 4.32H2.8202C2.14478 4.32 1.49703 4.58831 1.01943 5.0659C0.541842 5.54349 0.273533 6.19125 0.273533 6.86667V20.8733Z" fill="#0077B6"/>
<path d="M14.2802 18.3273C11.4672 18.3273 9.18687 16.0469 9.18687 13.234C9.18687 10.421 11.4672 8.14062 14.2802 8.14062C17.0932 8.14062 19.3735 10.421 19.3735 13.234C19.3735 16.0469 17.0932 18.3273 14.2802 18.3273Z" fill="#0077B6" stroke="white" stroke-width="2" stroke-linecap="round" stroke-linejoin="round"/>
</svg>
