<svg width="100" height="100" viewBox="0 0 100 100" fill="none" xmlns="http://www.w3.org/2000/svg">
<circle opacity="0.6" cx="50" cy="50" r="50" fill="black" fill-opacity="0.5"/>
<circle cx="50" cy="50" r="36" fill="white" stroke="white" stroke-width="2"/>
<path d="M48.5342 43.4906L48.5125 43.4896H48.4908C48.0517 43.4896 47.6303 43.5908 47.238 43.7869L47.2171 43.7973L47.1967 43.8088C46.6896 44.0926 46.2781 44.5406 46.048 45.0842L46.0422 45.0977L46.0369 45.1114C45.9606 45.3074 45.888 45.6126 45.8453 45.7993C45.8205 45.9079 45.7987 46.009 45.783 46.0846C45.7752 46.1222 45.7685 46.1552 45.7635 46.1807C45.7611 46.193 45.7585 46.2064 45.7562 46.219C45.7554 46.2236 45.754 46.2313 45.7525 46.2404C45.5968 47.0866 45.5212 48.3789 45.5212 49.7436C45.5212 51.0658 45.5992 52.2937 45.7242 53.1262L45.7731 53.4521L45.7957 53.4748C45.8081 53.5347 45.8222 53.6012 45.8375 53.6704C45.8676 53.8062 45.905 53.9633 45.9479 54.113C45.9863 54.2467 46.0461 54.4364 46.1335 54.6038L46.1343 54.6053C46.5856 55.4664 47.4736 56.0104 48.4397 56.0104H48.4908H48.5075L48.5241 56.0098C48.8866 55.9977 49.3175 55.8591 49.5564 55.7764C49.6985 55.7273 49.8278 55.6778 49.9251 55.6383C49.9728 55.6189 50.0189 55.5994 50.0581 55.5816C50.0718 55.5754 50.0928 55.5657 50.1163 55.5539C50.8793 55.2296 51.9237 54.6223 52.8953 53.9691C53.8776 53.3086 54.8846 52.5348 55.5037 51.8692L55.567 51.8059C55.7448 51.6282 55.9523 51.3769 56.0163 51.2921C56.3623 50.8363 56.5251 50.2883 56.5251 49.7577C56.5251 49.1749 56.3429 48.6122 55.9837 48.1477L55.9447 48.0971L55.8999 48.0524C55.9016 48.0541 55.9013 48.0538 55.8979 48.0501C55.8934 48.0453 55.8834 48.0347 55.8656 48.0153L55.7641 47.9051C55.6884 47.823 55.5898 47.7174 55.4898 47.617C54.8855 46.9728 53.8707 46.1869 52.8647 45.5079C51.8529 44.825 50.7412 44.177 49.9229 43.8548C49.7864 43.7997 49.5684 43.7202 49.3397 43.6511C49.1334 43.5888 48.8176 43.5029 48.5342 43.4906ZM50 37.5C56.7503 37.5 62.25 42.9963 62.25 49.7577C62.25 56.5029 56.7511 62 50 62C43.2489 62 37.75 56.5029 37.75 49.7577C37.75 42.9963 43.2497 37.5 50 37.5Z" stroke="#001824" stroke-width="2"/>
</svg>
