<svg width="25" height="25" viewBox="0 0 25 25" fill="none" xmlns="http://www.w3.org/2000/svg">
<g clip-path="url(#clip0_369_9844)">
<path d="M23.3584 19.3223C23.3584 19.8527 23.1477 20.3614 22.7726 20.7365C22.3975 21.1116 21.8888 21.3223 21.3584 21.3223H3.3584C2.82797 21.3223 2.31926 21.1116 1.94418 20.7365C1.56911 20.3614 1.3584 19.8527 1.3584 19.3223V8.32227C1.3584 7.79183 1.56911 7.28312 1.94418 6.90805C2.31926 6.53298 2.82797 6.32227 3.3584 6.32227H7.3584L9.3584 3.32227H15.3584L17.3584 6.32227H21.3584C21.8888 6.32227 22.3975 6.53298 22.7726 6.90805C23.1477 7.28312 23.3584 7.79183 23.3584 8.32227V19.3223Z" stroke="black" stroke-width="2" stroke-linecap="round" stroke-linejoin="round"/>
<path d="M12.3584 17.3223C14.5675 17.3223 16.3584 15.5314 16.3584 13.3223C16.3584 11.1131 14.5675 9.32227 12.3584 9.32227C10.1493 9.32227 8.3584 11.1131 8.3584 13.3223C8.3584 15.5314 10.1493 17.3223 12.3584 17.3223Z" stroke="black" stroke-width="2" stroke-linecap="round" stroke-linejoin="round"/>
</g>
<defs>
<clipPath id="clip0_369_9844">
<rect width="24" height="24" fill="white" transform="translate(0.358398 0.322266)"/>
</clipPath>
</defs>
</svg>
