<svg width="25" height="25" viewBox="0 0 25 25" fill="none" xmlns="http://www.w3.org/2000/svg">
<g clip-path="url(#clip0_369_12574)">
<path d="M23.3584 19.4697C23.3584 20.0002 23.1477 20.5089 22.7726 20.8839C22.3975 21.259 21.8888 21.4697 21.3584 21.4697H3.3584C2.82797 21.4697 2.31926 21.259 1.94418 20.8839C1.56911 20.5089 1.3584 20.0002 1.3584 19.4697V8.46973C1.3584 7.93929 1.56911 7.43059 1.94418 7.05551C2.31926 6.68044 2.82797 6.46973 3.3584 6.46973H7.3584L9.3584 3.46973H15.3584L17.3584 6.46973H21.3584C21.8888 6.46973 22.3975 6.68044 22.7726 7.05551C23.1477 7.43059 23.3584 7.93929 23.3584 8.46973V19.4697Z" stroke="black" stroke-width="2" stroke-linecap="round" stroke-linejoin="round"/>
<path d="M12.3584 17.4697C14.5675 17.4697 16.3584 15.6789 16.3584 13.4697C16.3584 11.2606 14.5675 9.46973 12.3584 9.46973C10.1493 9.46973 8.3584 11.2606 8.3584 13.4697C8.3584 15.6789 10.1493 17.4697 12.3584 17.4697Z" stroke="black" stroke-width="2" stroke-linecap="round" stroke-linejoin="round"/>
</g>
<defs>
<clipPath id="clip0_369_12574">
<rect width="24" height="24" fill="white" transform="translate(0.358398 0.469727)"/>
</clipPath>
</defs>
</svg>
