<svg width="58" height="59" viewBox="0 0 58 59" fill="none" xmlns="http://www.w3.org/2000/svg">
<circle cx="29" cy="29.3379" r="29" fill="#E91C43"/>
<path d="M41.8557 27.5994L41.8611 31.765C41.8623 32.0596 41.8052 32.3514 41.6932 32.6235C41.5812 32.8956 41.4165 33.1427 41.2085 33.3506C40.7846 33.7745 40.2196 34.0063 39.6209 34.0052L35.1364 33.9973C34.8417 33.9974 34.5498 33.9393 34.2773 33.8263C34.0048 33.7134 33.7571 33.5478 33.5484 33.339C33.1231 32.9137 32.8892 32.3478 32.8882 31.7491L32.8824 28.4699C31.6518 28.0055 30.3482 27.7672 29.0345 27.7665C27.7192 27.7609 26.4146 27.9926 25.1832 28.4503L25.189 31.7296C25.1902 32.0242 25.1331 32.316 25.0211 32.5881C24.9091 32.8602 24.7444 33.1073 24.5364 33.3152C24.1125 33.739 23.5475 33.9709 22.9488 33.9698L18.4643 33.9658C18.1692 33.9658 17.8768 33.9075 17.604 33.7942C17.3311 33.6809 17.0832 33.5148 16.8744 33.3055C16.449 32.8802 16.2152 32.3143 16.2142 31.7156L16.2068 27.5559C16.2031 26.5991 16.5889 25.6685 17.2647 24.9927C17.4072 24.8501 17.5557 24.7252 17.714 24.6139C20.7819 22.4163 24.7986 21.2103 29.019 21.2158C33.2354 21.2213 37.2525 22.4416 40.3419 24.6521C41.2842 25.3288 41.8497 26.4294 41.8557 27.5994Z" fill="#FAFFFD"/>
</svg>
