<svg width="326" height="238" viewBox="0 0 326 238" fill="none" xmlns="http://www.w3.org/2000/svg">
<path fill-rule="evenodd" clip-rule="evenodd" d="M325.365 90.2301C321.333 120.295 316.781 136.176 290.214 167.662C263.648 199.147 142.075 219.86 97.1299 219.86C52.1847 219.86 -3.205 185.202 0.290813 145.046C3.78662 104.889 22.0248 72.0686 65.6786 68.0283C110.291 63.8993 149.478 83.02 193.277 72.7651C231.142 63.8992 242.728 30.1056 268.735 19.4439C321.333 -2.11872 328.109 69.7768 325.365 90.2301Z" fill="#67CAFF"/>
<path d="M298.305 104.914C296.819 107.433 278.008 120.178 266.597 122.064C264.389 122.429 261.978 122.554 260.06 121.401C258.927 120.72 258.083 119.658 257.28 118.607C255.447 116.204 253.697 113.737 252.037 111.212C251.164 109.885 250.298 108.499 250.002 106.939C249.217 102.807 252.548 99.0951 255.839 96.4769C263.406 90.4583 272.266 86.0739 281.641 83.7086C283.301 83.2899 285.06 82.9353 286.704 83.4109C289.373 84.1828 290.968 86.8829 291.986 89.4673C293.004 92.0518 293.799 94.8786 295.834 96.7693C296.298 97.2011 299.791 102.395 298.305 104.914Z" fill="white"/>
<path fill-rule="evenodd" clip-rule="evenodd" d="M197.226 214.715C178.969 217.837 187.671 204.568 190.189 187.96C194.326 160.67 199.427 119.198 199.427 119.198C199.427 119.198 202.754 182.391 202.754 197.778C202.754 213.165 199.427 214.339 197.226 214.715Z" fill="white"/>
<path d="M177.719 199.68C178.185 204.074 178.676 208.562 180.544 212.567C179.525 203.498 178.506 194.428 177.487 185.359C177.361 184.239 177.398 182.813 178.429 182.356C179.301 192.597 180.6 202.802 182.324 212.935C182.528 214.138 180.721 214.825 179.706 214.148C178.692 213.47 178.367 212.151 178.136 210.953C176.455 202.221 175.53 193.344 175.376 184.453C173.235 184.875 171.734 186.951 171.301 189.089C170.868 191.228 171.285 193.436 171.703 195.578C173.045 202.472 174.388 209.366 175.73 216.26C176.358 219.485 176.986 222.817 176.293 226.028C173.629 213.862 171.486 201.581 169.874 189.232C149.428 201.734 123.082 204.06 100.762 195.331C95.8871 193.424 91.0459 190.898 87.8261 186.771C85.2897 183.52 83.9363 179.484 83.2272 175.422C80.709 160.996 85.8694 146.281 92.8735 133.421C95.5312 128.541 98.5579 123.459 98.3434 117.906C98.2696 115.995 97.8574 113.878 98.9737 112.324C99.1318 112.612 91.6658 59.2067 94.6608 47.3936C101.871 18.9545 125.294 15.103 140.291 15.4538C150.353 15.6891 214.134 28.3646 223.35 45.6018C235.461 68.2564 232.89 87.3032 230.739 99.8621C230.098 103.602 199.436 118.922 199.427 119C197.674 135.296 185.911 170.805 176.045 183.893C176.603 189.155 177.161 194.418 177.719 199.68Z" fill="white"/>
<path fill-rule="evenodd" clip-rule="evenodd" d="M30.4954 133.372C24.745 131.077 17.8924 131.757 12.7081 135.139C12.2062 135.466 11.4846 135.102 11.2361 134.557C10.9877 134.012 11.0806 133.379 11.2077 132.794C12.8635 125.174 19.4595 119.344 26.7949 116.665C34.1303 113.985 42.1539 113.978 49.9515 114.436C50.7252 114.481 51.5339 114.542 52.1939 114.947C52.8539 115.353 53.2979 116.22 52.969 116.921C49.9016 123.452 47.591 130.338 46.0978 137.396C45.8557 138.54 44.6698 139.3 43.5018 139.395C42.3339 139.491 41.1894 139.06 40.1295 138.561C36.8262 137.006 33.8864 134.726 30.4954 133.372Z" fill="white"/>
<path fill-rule="evenodd" clip-rule="evenodd" d="M207.243 18.3459C207.529 13.9749 207.199 9.56413 206.268 5.28409L206.248 5.19283C206.09 4.46914 205.927 3.72476 206.073 3.00049C206.395 1.39867 208.174 0.434509 209.808 0.468137C211.441 0.501765 212.954 1.28157 214.4 2.04311C221.333 5.69519 228.39 9.43945 233.849 15.0613C234.02 19.6127 232.947 24.1041 231.889 28.538L231.888 28.5381L231.789 28.9547C227.369 47.4865 223.749 66.2093 220.943 85.0533C220.674 86.8595 220.164 88.9901 218.451 89.6227C217.222 90.0764 215.794 89.4966 214.921 88.5199C214.048 87.5433 213.63 86.2465 213.339 84.9693C212.621 81.8182 212.534 78.5244 213.086 75.3399C213.424 73.3925 213.994 71.4982 214.565 69.6034C215.078 67.9023 215.59 66.2008 215.934 64.4601C216.278 62.7195 216.452 60.9502 216.62 59.1839C217.515 49.7913 218.274 40.3857 218.896 30.9712C218.984 29.6408 219.065 28.2686 218.629 27.0085C217.854 24.7674 215.596 23.3509 213.315 22.7014C212.922 22.5895 212.523 22.4943 212.123 22.3991C211.194 22.1775 210.266 21.9561 209.418 21.5242C208.206 20.9068 207.155 19.703 207.243 18.3459ZM211.479 17.9866C214.703 18.6669 217.854 19.6942 220.859 21.0449C221.464 21.3169 222.101 21.6353 222.427 22.2126C222.694 22.684 222.71 23.2518 222.718 23.7936C222.812 30.1568 222.832 36.5367 222.158 42.8648C221.755 46.6538 221.104 50.4097 220.453 54.1652V54.1654V54.1655V54.1656V54.1657V54.1659V54.166V54.1661L220.453 54.1688L220.452 54.1714L220.452 54.1741L220.451 54.1767L220.451 54.1793L220.451 54.1817L220.45 54.184C220.245 55.3669 220.04 56.5497 219.843 57.7335C218.863 63.6211 218.074 69.5405 217.477 75.4793C217.045 79.7884 216.728 84.2421 218.068 88.3602C218.756 88.2345 219.021 87.4064 219.151 86.7195L231.538 21.4293C231.838 19.8474 232.138 18.2118 231.784 16.641C231.165 13.8909 228.724 11.9787 226.371 10.4271C221.84 7.4402 217.018 4.89629 211.994 2.84343C211.577 7.87877 211.405 12.9345 211.479 17.9866ZM217.85 60.8662C220.117 49.2226 221.142 37.3372 220.9 25.4771C220.882 24.5814 220.834 23.6188 220.286 22.9099C219.885 22.3904 219.271 22.0861 218.672 21.8178C216.422 20.8099 214.056 20.0599 211.636 19.5872C210.936 19.4504 209.906 19.5986 209.937 20.3116L218.635 23.9057C219.145 24.1165 219.688 24.355 219.977 24.8257C220.259 25.2874 220.232 25.8674 220.195 26.4075L217.85 60.8662ZM209.756 1.69169C209.039 1.21634 208.003 1.70634 207.603 2.46828C207.204 3.23022 207.265 4.14237 207.355 4.99787C207.488 6.25276 207.663 7.50831 207.838 8.76403L207.838 8.76494C208.323 12.2497 208.808 15.7358 208.396 19.2132C209.054 19.439 209.788 18.9754 210.107 18.3575C210.426 17.7395 210.434 17.0137 210.436 16.3183L210.458 3.77803C210.459 3.01161 210.395 2.11518 209.756 1.69169ZM216.196 88.0773C215.801 84.9783 215.698 81.8422 215.887 78.7238C215.989 77.0564 216.174 75.3948 216.359 73.7336V73.7335V73.7333V73.7332V73.7331V73.733V73.7329V73.7328C216.603 71.5361 216.848 69.34 216.899 67.1316C215.093 72.5083 214.411 78.2599 214.909 83.91C215.039 85.3798 215.28 86.9209 216.196 88.0773ZM217.19 63.9555C217.481 63.8252 217.603 63.417 217.431 63.1485C217.136 63.294 217.011 63.7061 217.175 63.9914L217.19 63.9555ZM214.489 37.027C200.113 28.161 183.857 22.8491 167.601 18.2655C162.404 16.8002 157.164 15.3962 151.799 14.7951C135.9 13.0139 119.782 18.4994 106.562 27.5094C101.261 31.1229 96.1453 35.5678 93.8546 41.5611C92.155 46.0079 92.1667 50.9034 92.3306 55.6611C92.896 72.0699 95.0014 88.3821 97.1045 104.665C98.7487 104.369 98.9111 102.095 98.673 100.441C96.4862 85.2558 95.2601 69.9322 95.0044 54.5923C94.9327 50.2908 94.9553 45.8809 96.4438 41.8445C99.1385 34.5379 106.089 29.7593 112.908 25.9988C121.498 21.2622 130.835 17.2805 140.641 17.0692C152.52 16.8132 163.78 22.0824 174.157 27.8694C179.942 31.0957 185.808 34.6985 189.488 40.206C192.83 45.2069 194.044 51.3016 194.921 57.2521C197.704 76.1379 197.806 95.3033 197.902 114.393C197.906 115.165 197.859 116.05 197.254 116.53C196.841 116.858 196.276 116.899 195.748 116.927L176.369 117.935C185.399 120.532 195.417 119.508 203.736 115.138L225.269 103.826C227.279 102.77 229.353 101.661 230.738 99.8622C232.645 97.3869 232.918 94.057 233.008 90.9339C233.34 79.3995 232.187 67.8232 229.585 56.581C230.487 68.7423 230.612 80.9611 229.96 93.1383C229.848 95.2178 229.681 97.3996 228.551 99.1482C227.343 101.016 225.243 102.074 223.242 103.046L200.003 114.341C200.965 96.2849 200.219 78.138 197.778 60.2215C196.958 54.1955 195.91 48.0851 193.153 42.6646C186.636 29.8547 172.211 23.518 158.879 18.1486C178.811 23.9799 198.97 29.9076 216.902 40.3833C217.135 38.936 215.737 37.7964 214.489 37.027ZM288.757 92.1444C289.79 94.8074 291.243 97.646 293.913 98.6609C294.546 98.7098 294.923 97.8711 294.716 97.2716C294.542 96.771 294.135 96.4063 293.734 96.0481C293.655 95.9775 293.577 95.9071 293.5 95.836C291.801 94.2575 290.967 92.0265 290.146 89.8288L290.146 89.8287C289.983 89.3941 289.821 88.9607 289.653 88.534C288.635 85.9496 287.039 83.2495 284.371 82.4776C282.727 82.002 280.967 82.3566 279.308 82.7753C269.933 85.1406 261.073 89.525 253.506 95.5435C250.214 98.1618 246.883 101.873 247.669 106.005C247.965 107.566 248.831 108.951 249.703 110.278C251.364 112.804 253.113 115.271 254.947 117.674C255.749 118.725 256.594 119.787 257.727 120.468C259.645 121.621 262.056 121.496 264.264 121.131C275.675 119.244 285.441 112.153 294.734 105.268C295.218 104.91 295.721 104.528 295.972 103.981C296.222 103.433 296.116 102.672 295.584 102.39C294.975 102.066 294.256 102.513 293.712 102.938C285.064 109.709 275.827 116.325 265.104 118.704C263.071 119.155 260.831 119.42 259.002 118.425C257.634 117.68 256.709 116.341 255.837 115.051L250.428 107.047C249.972 106.373 249.5 105.648 249.483 104.835C249.466 104.021 250.124 103.142 250.93 103.247C258.513 104.233 266.131 104.941 273.765 105.371C274.373 105.405 275.008 105.433 275.562 105.18C276.275 104.854 276.71 104.133 277.091 103.447C280.323 97.6208 282.791 91.3718 284.414 84.9098C286.571 86.4566 287.578 89.0765 288.538 91.5764L288.54 91.5798C288.589 91.7073 288.638 91.8345 288.686 91.9612L288.757 92.1444ZM282.084 84.3984C280.639 89.8026 278.502 95.0214 275.742 99.8866C275.279 100.702 274.765 101.542 273.956 102.016C272.926 102.619 271.645 102.505 270.459 102.373L251.572 100.265C254.706 96.1245 259.361 93.4371 264.012 91.128C268.415 88.9422 272.935 86.9924 277.546 85.2898C279.006 84.7507 280.537 84.2285 282.084 84.3984ZM177.719 199.68C178.185 204.074 178.676 208.562 180.544 212.567L177.487 185.359C177.361 184.239 177.398 182.813 178.429 182.356C179.3 192.597 180.6 202.802 182.324 212.935C182.528 214.138 180.721 214.825 179.706 214.148C178.692 213.47 178.367 212.151 178.136 210.953C176.455 202.221 175.53 193.344 175.376 184.453C173.235 184.875 171.734 186.951 171.301 189.089C170.868 191.228 171.285 193.436 171.702 195.578L175.73 216.261C176.358 219.485 176.986 222.817 176.293 226.028C173.629 213.862 171.486 201.581 169.874 189.232C149.428 201.735 123.082 204.06 100.762 195.331C95.887 193.424 91.0458 190.898 87.826 186.771C85.2896 183.52 83.9362 179.484 83.2271 175.422C80.7089 160.996 85.8693 146.281 92.8734 133.421C93.0559 133.086 93.2401 132.75 93.4249 132.413C95.9314 127.841 98.543 123.077 98.3433 117.906C98.3301 117.565 98.3061 117.217 98.282 116.866V116.866V116.866V116.866V116.866V116.866V116.866V116.866V116.866V116.866C98.171 115.256 98.0568 113.6 98.9735 112.324C100.203 114.561 100.672 117.208 100.284 119.731C121.452 118.82 142.65 118.637 163.831 119.181C164.078 120.155 162.667 120.608 161.662 120.593C141.897 120.298 122.122 120.634 102.377 121.602C101.752 121.633 101.096 121.673 100.566 122.006C100.008 122.357 99.6831 122.971 99.3834 123.557C93.7798 134.522 88.1577 145.646 85.4491 157.657C84.0562 163.834 83.5228 170.595 86.3776 176.247C87.4606 178.391 88.9923 180.285 90.7025 181.972C99.8838 191.028 113.632 193.804 126.527 193.587C134.756 193.449 142.968 192.266 150.901 190.076C159.313 187.754 167.701 184.093 173.442 177.522C176.814 173.664 179.105 168.991 181.112 164.276C184.944 155.273 187.883 145.891 189.872 136.311C191.118 136.573 191.135 138.335 190.848 139.575C187.292 154.917 183.158 171.27 171.445 181.797C160.865 191.305 145.958 194.254 131.756 195.049C123.553 195.508 115.22 195.365 107.274 193.274C99.3283 191.182 91.7415 186.999 86.6971 180.513C88.1683 186.123 93.1519 190.126 98.3403 192.717C111.963 199.52 128.05 199.16 143.092 196.796C153.112 195.221 163.397 192.635 171.195 186.149C177.861 180.604 182.108 172.686 185.306 164.627C188.845 155.706 191.3 146.356 192.6 136.847C193.41 136.336 194.009 137.766 193.907 138.718C192.154 155.014 185.91 170.805 176.045 183.893L177.719 199.68ZM168.245 227.547C167.376 226.079 166.816 224.429 166.613 222.735L165.364 226.967L162.213 214.947C161.968 214.015 161.373 212.848 160.43 213.048C159.514 213.243 159.411 214.501 159.547 215.428C160.234 220.091 161.544 224.662 163.43 228.981L160.079 226.04C159.916 227.44 160.284 228.896 161.094 230.05C159.348 228.764 157.006 228.326 154.914 228.893C156.409 230.971 158.439 232.66 160.754 233.753L157.922 229.8C160.211 231.121 162.61 232.253 165.085 233.181L162.685 230.172L165.65 230.994C163.381 225.833 161.07 220.475 161.125 214.837C161.984 219.423 163.241 223.935 164.877 228.304C165.155 229.045 165.463 229.81 166.054 230.336C166.645 230.861 167.605 231.059 168.224 230.567C168.705 230.185 168.845 229.525 168.955 228.92L170.29 221.514L171.757 230.699C172.869 227.89 176.486 227.186 179.507 227.167C183.496 227.142 187.516 227.581 191.525 228.02C198.751 228.81 205.944 229.596 212.868 227.653C212.665 228.723 212.309 229.765 211.815 230.736C217.403 229.923 223.056 229.566 228.701 229.67C231.085 229.714 233.476 229.839 235.868 229.965H235.868H235.868H235.868H235.868H235.869H235.869H235.869H235.869C242.191 230.297 248.513 230.628 254.707 229.455L213.598 229.093C214.37 229.048 214.962 228.151 214.699 227.424C214.436 226.696 213.407 226.385 212.785 226.845C212.38 225.559 210.563 224.988 209.496 225.81C210.114 223.903 211.338 222.196 212.946 220.998C211.131 220.901 209.288 221.456 207.829 222.541L212.25 202.077C211.877 201.755 211.253 201.971 210.977 202.38C210.703 202.784 210.673 203.299 210.644 203.786L210.643 203.802C210.229 210.79 207.765 217.643 203.635 223.295L202.013 218.603L199.689 224.208C198.635 223.392 197.141 223.186 195.906 223.687C196.222 224.885 197.18 225.894 198.361 226.269L198.911 224.795L202.543 227.227C201.155 225.773 200.854 223.393 201.836 221.639L204.034 225.325L208.293 216.901C208.317 220.284 206.867 223.481 205.446 226.55C206.991 225.341 208.318 223.855 209.347 222.185C210.34 223.944 209.256 226.302 207.528 227.349C205.801 228.396 203.665 228.453 201.647 228.367C198.568 228.237 195.465 227.85 192.366 227.464C185.408 226.597 178.468 225.732 171.858 227.78L170.904 218.992C169.448 221.623 168.537 224.554 168.245 227.547ZM209.72 227.781C209.57 227.603 209.571 227.316 209.722 227.139L209.842 227.184C210.044 226.701 210.893 226.741 211.049 227.241C210.657 227.523 210.197 227.71 209.72 227.781ZM232.179 134.401C227.391 131.981 221.694 132.634 216.379 133.362C214.877 133.568 213.346 133.784 211.986 134.453C210.626 135.122 209.441 136.333 209.206 137.83C196.227 136.209 183.789 130.496 174.102 121.706C172 119.798 169.855 117.081 170.8 114.405C171.097 113.563 171.676 112.853 172.277 112.194C176.793 107.243 183.019 104.265 189.081 101.406C182.211 102.009 175.62 105.35 171.073 110.535C170.031 111.723 169.07 113.051 168.711 114.59C167.825 118.391 170.777 121.956 173.731 124.506C183.158 132.641 195.014 137.925 207.367 139.494C208.107 139.588 208.146 140.629 208.078 141.373C207.777 144.68 209.58 147.909 212.079 150.096C214.578 152.284 217.708 153.598 220.814 154.774C230.433 158.418 240.416 161.101 250.565 162.772C251.235 162.882 252.156 162.83 252.298 162.165C249.956 160.616 247.137 160.025 244.38 159.448C244.231 159.417 244.083 159.386 243.934 159.355C236.946 157.883 230.051 155.967 223.305 153.622C220.538 152.659 217.764 151.608 215.351 149.946C212.938 148.285 210.889 145.937 210.118 143.11C209.737 141.715 210.254 139.631 211.69 139.807C217.537 140.522 223.545 141.228 229.255 139.778C230.547 139.449 231.894 138.954 232.682 137.879C233.469 136.803 233.368 135.002 232.179 134.401ZM217.429 138.265C215.422 137.919 213.371 137.827 211.341 137.99C212.327 136.116 214.737 135.623 216.835 135.337C221.396 134.716 226.145 134.111 230.515 135.557C230.803 135.652 231.111 135.774 231.268 136.035C231.473 136.378 231.323 136.846 231.031 137.12C230.739 137.393 230.341 137.517 229.955 137.625C225.896 138.76 221.583 138.98 217.429 138.265ZM151.007 232.8C154.367 232.707 157.746 233.449 160.756 234.943C159.952 236.099 158.334 236.261 156.927 236.315L120.13 237.711C119.793 237.669 119.729 237.148 119.968 236.907C120.207 236.665 120.58 236.634 120.92 236.617L156.84 234.866C154.765 234.675 152.74 233.958 151.007 232.8ZM80.1934 111.106C79.6691 113.614 81.7907 116.289 84.3457 116.479C80.1676 122.775 72.6417 125.883 65.4105 128.076C60.8973 129.445 55.8911 130.57 51.5886 128.638C51.0547 128.964 51.624 129.767 52.1877 130.039C56.3747 132.057 61.3387 130.932 65.7923 129.603C72.3236 127.654 79.0558 125.135 83.5 119.967C83.6811 119.757 83.8614 119.54 84.043 119.322L84.043 119.322L84.0436 119.321L84.0457 119.319L84.046 119.318C85.1898 117.943 86.3826 116.51 88.1024 116.192C93.6393 115.168 98.2508 111.7 102.808 108.273C103.841 107.496 104.872 106.721 105.91 105.977C112.219 101.455 119.217 97.8953 126.587 95.4589C127.237 95.2437 128.029 94.8443 127.971 94.1612C118.834 95 110.847 100.449 103.482 105.922L103.237 106.105C98.2315 109.826 93.0014 113.714 86.8428 114.636C88.8545 113.05 88.4298 109.384 86.1602 108.195C83.8906 107.006 80.7178 108.598 80.1934 111.106ZM81.8985 112.638C81.4878 111.422 82.1217 109.975 83.2483 109.359C83.5681 109.184 83.9258 109.067 84.2903 109.067C85.4933 109.066 86.3719 110.352 86.3798 111.555C86.3877 112.758 85.7779 113.868 85.1852 114.915C83.7988 114.703 82.3471 113.967 81.8985 112.638ZM218.628 85.8323C218.287 85.4531 218.392 84.9423 218.501 84.4132C218.577 84.0393 218.656 83.6563 218.58 83.3041C218.515 82.9987 218.337 82.7387 218.158 82.4778C218 82.2469 217.841 82.0155 217.76 81.7514C217.779 81.4023 218.245 81.2232 218.564 81.368C218.882 81.5128 219.06 81.8543 219.171 82.1858C219.576 83.3953 219.368 84.7933 218.628 85.8323ZM187.825 59.2911C188.676 57.2725 190.364 55.4825 192.516 55.0728C193.213 54.9402 193.191 53.792 192.581 53.431C191.971 53.0701 191.187 53.2835 190.547 53.5881C187.565 55.0074 185.683 58.1314 184.945 61.3502C184.207 64.569 184.451 67.9212 184.699 71.2141L186.018 88.7171C186.062 89.3122 186.117 89.937 186.449 90.4334C187.123 91.4444 188.571 91.4761 189.784 91.399L195.924 91.009C194.56 89.9396 192.728 89.4894 191.023 89.8043C190.028 89.9882 189.027 89.3314 188.5 88.4672C187.972 87.603 187.818 86.5688 187.687 85.5648C186.831 78.9959 186.517 72.3566 186.749 65.7363C186.826 63.5469 186.973 61.3096 187.825 59.2911ZM203.503 214.653C203.154 214.906 202.805 214.33 202.754 213.902C200.381 193.956 200.023 173.831 199.668 153.747L199.429 140.207C199.422 139.822 199.427 139.399 199.675 139.103C200.102 138.595 200.999 138.828 201.372 139.377C201.745 139.927 201.745 140.639 201.733 141.303C201.368 161.066 201.607 180.869 203.5 200.545C203.523 200.784 203.546 201.024 203.569 201.264C204.003 205.733 204.443 210.271 203.503 214.653ZM183.775 88.9219C183.255 88.6364 182.614 88.7981 182.045 88.9662C155.738 96.7469 129.492 104.77 103.631 113.926C103.147 114.098 102.594 114.345 102.483 114.846C102.365 115.377 102.865 115.884 103.4 115.983C103.934 116.081 104.475 115.89 104.986 115.702C130.902 106.169 157.208 97.6952 183.817 90.3107C184.388 90.1521 184.295 89.2074 183.775 88.9219Z" fill="#00160A"/>
<path fill-rule="evenodd" clip-rule="evenodd" d="M277.504 207.941C276.892 208.21 276.229 208.46 275.569 208.347C274.91 208.233 274.293 207.614 274.426 206.959C275.636 200.963 274.116 194.471 270.37 189.637C269.057 187.942 267.493 186.451 266.214 184.731C265.408 183.648 264.691 182.285 265.099 180.998C265.681 179.166 268.024 178.72 269.942 178.59C274.4 178.286 278.857 177.982 283.315 177.678C285.369 177.538 287.735 177.517 289.106 179.053C292.923 183.328 300.362 183.615 304.497 179.647C305.137 179.033 305.943 180.255 305.917 181.142C305.837 183.929 304.689 186.673 302.758 188.685C302.303 189.16 301.721 189.625 301.066 189.557C300.412 189.489 299.929 188.55 300.451 188.149C301.57 187.289 302.71 186.408 303.495 185.234C304.28 184.061 304.661 182.523 304.125 181.217C301.246 184.86 298.339 188.481 295.405 192.08C290.317 198.32 284.876 204.703 277.504 207.941ZM285.545 189.579C284.812 189.781 284.031 189.626 283.3 189.419C278.039 187.933 273.192 183.822 267.809 184.784C274.085 189.838 277.417 198.312 276.264 206.287C280.399 205.402 283.664 202.315 286.593 199.265C290.927 194.75 295.043 190.025 298.921 185.112C296.134 185.089 293.357 184.285 290.989 182.815C288.063 183.539 288.45 188.775 285.545 189.579ZM289.366 181.278C287.623 179.223 284.491 179.287 281.806 179.523C278.306 179.83 274.805 180.138 271.304 180.445C269.882 180.57 268.25 180.819 267.509 182.039C273.568 183.307 279.476 185.3 285.066 187.96C285.785 185.702 287.226 183.68 289.125 182.263C289.339 182.103 289.583 181.899 289.555 181.634C289.541 181.498 289.454 181.382 289.366 181.278V181.278Z" fill="#FFB61D"/>
<path fill-rule="evenodd" clip-rule="evenodd" d="M29.817 132.28C24.544 130.171 18.2602 130.797 13.5063 133.903C13.0461 134.204 12.3844 133.869 12.1565 133.369C11.9287 132.868 12.0139 132.286 12.1305 131.749C13.6488 124.749 19.6973 119.393 26.4237 116.932C33.1502 114.47 40.5078 114.463 47.6581 114.884C48.3676 114.926 49.1092 114.981 49.7144 115.354C50.3195 115.727 50.7267 116.523 50.4251 117.167C47.6123 123.167 45.4935 129.493 44.1243 135.977C43.9023 137.028 42.8148 137.726 41.7438 137.813C40.6728 137.901 39.6234 137.505 38.6514 137.047C35.6223 135.618 32.9266 133.524 29.817 132.28ZM30.4198 125.197C29.9498 125.579 29.2153 125.378 28.7731 124.964C28.3309 124.55 28.079 123.978 27.7314 123.482C25.867 120.823 21.5886 121.043 19.0525 123.072C16.5165 125.102 15.2893 128.308 14.1718 131.358C21.6119 128.126 30.7757 129.286 37.1762 134.269C38.0501 134.949 38.9172 135.716 39.9933 135.978C41.0694 136.24 42.425 135.769 42.6976 134.696C44.1537 128.961 45.948 123.312 48.0682 117.789C44.0001 122.845 35.4568 121.105 30.4198 125.197ZM28.8008 122.142C29.2186 122.667 29.9772 122.806 30.6376 122.687C31.2979 122.569 31.8979 122.24 32.5132 121.973C34.6315 121.052 36.9778 120.846 39.2489 120.425C41.5201 120.004 43.8626 119.292 45.4614 117.624C41.8541 117.614 38.2468 117.603 34.6395 117.592C31.0143 117.581 27.1078 117.658 24.1955 119.817C25.9684 119.881 27.696 120.754 28.8008 122.142Z" fill="#FFB61D"/>
<path fill-rule="evenodd" clip-rule="evenodd" d="M199.226 131.796C199.217 128.623 199.209 125.45 199.2 122.277C199.198 121.366 199.195 120.455 199.193 119.544C199.191 118.915 199.297 118.129 199.894 117.934C200.345 117.786 200.843 118.111 201.054 118.536C201.265 118.962 201.262 119.458 201.255 119.933C201.19 124.361 201.124 128.789 201.058 133.217C201.048 133.854 200.942 134.637 200.345 134.861C199.351 134.298 199.229 132.939 199.226 131.796H199.226Z" fill="#00160A"/>
<path fill-rule="evenodd" clip-rule="evenodd" d="M192.891 128.86C192.432 129.061 192.195 128.304 192.266 127.808C192.52 126.031 192.775 124.251 193.207 122.509C193.476 121.424 193.864 120.283 194.76 119.615C195.655 118.947 197.193 119.064 197.632 120.092C197.844 120.59 197.756 121.158 197.658 121.691C197.055 124.987 196.243 128.245 195.228 131.439C195.185 131.574 195.138 131.715 195.035 131.814C194.785 132.053 194.335 131.892 194.162 131.593C193.989 131.293 194.011 130.924 194.039 130.579C194.451 130.549 194.644 130.063 194.743 129.662C195.147 128.022 195.552 126.382 195.956 124.743C196.271 123.467 196.558 122.014 195.826 120.923C195.073 121.386 194.79 122.323 194.567 123.178C194.116 124.897 193.666 126.617 193.215 128.337C193.161 128.542 193.086 128.774 192.891 128.86L192.891 128.86Z" fill="#00160A"/>
</svg>
