<svg width="26" height="25" viewBox="0 0 26 25" fill="none" xmlns="http://www.w3.org/2000/svg">
<path d="M21.2539 22.7186C15.7961 24.0571 11.817 20.6884 11.817 17.0819C11.817 13.6182 15.1862 11.1179 18.9085 11.1179C22.6536 11.1179 26 13.6368 26 17.0819C26 18.3037 25.5634 19.5037 24.7899 20.4342C24.7585 21.5251 25.3944 23.0906 25.9686 24.2295C24.4313 23.9491 22.2441 23.3306 21.2539 22.7186ZM9.65033 17.0819C9.65033 12.5906 13.8038 8.93604 18.9085 8.93604C19.8683 8.93604 20.7935 9.06586 21.6645 9.30477C21.6418 4.03131 16.5068 0.229492 10.8333 0.229492C5.11225 0.229492 0 4.07713 0 9.34076C0 11.2062 0.66625 13.04 1.84708 14.4626C1.898 16.1284 0.925167 18.5186 0.0476667 20.2586C2.39633 19.832 5.73733 18.8862 7.25075 17.9513C8.12067 18.1651 8.95808 18.2829 9.77275 18.3473C9.70017 17.9339 9.65033 17.5128 9.65033 17.0819Z" fill="#333333"/>
</svg>
