<svg width="24" height="24" viewBox="0 0 24 24" fill="none" xmlns="http://www.w3.org/2000/svg">
<path d="M16.75 15.6C18.02 15.6 20.09 15.18 20.83 14.43C21.58 13.69 22 12.62 22 11.35V6.25C22 3.7 20.3 2 17.75 2H9.25C6.7 2 5 3.7 5 6.25V9.02002C5.13 9.01002 5.25999 9 5.39999 9H12.19C14.23 9 15.59 10.36 15.59 12.4" stroke="#001824" stroke-width="1.5" stroke-miterlimit="10" stroke-linecap="round" stroke-linejoin="round"/>
<path d="M15.59 12.4V16.47C15.59 16.83 15.55 17.17 15.46 17.48C15.09 18.95 13.87 19.87 12.19 19.87H9.47L6.45 21.88C6 22.19 5.39999 21.86 5.39999 21.32V19.87C4.37999 19.87 3.53 19.53 2.94 18.94C2.34 18.34 2 17.49 2 16.47V12.4C2 10.5 3.18 9.19002 5 9.02002C5.13 9.01002 5.25999 9 5.39999 9H12.19C14.23 9 15.59 10.36 15.59 12.4Z" stroke="#001824" stroke-width="1.5" stroke-miterlimit="10" stroke-linecap="round" stroke-linejoin="round"/>
</svg>
