<svg width="25" height="25" viewBox="0 0 25 25" fill="none" xmlns="http://www.w3.org/2000/svg">
<path d="M12.5 0.229492C5.89792 0.229492 0 4.83967 0 11.1462C0 13.3826 0.769792 15.5786 2.13229 17.2826C2.18958 19.2789 1.06667 22.1437 0.05625 24.2295C2.76667 23.7168 6.61979 22.5844 8.36667 21.4629C17.9875 23.9142 25 17.7484 25 11.1462C25 4.80586 19.0615 0.229492 12.5 0.229492ZM7.29167 12.7749C6.42812 12.7749 5.72917 12.0429 5.72917 11.1386C5.72917 10.2342 6.42812 9.50222 7.29167 9.50222C8.15521 9.50222 8.85417 10.2342 8.85417 11.1386C8.85417 12.0429 8.15521 12.7749 7.29167 12.7749ZM12.5 12.7749C11.6365 12.7749 10.9375 12.0429 10.9375 11.1386C10.9375 10.2342 11.6365 9.50222 12.5 9.50222C13.3635 9.50222 14.0625 10.2342 14.0625 11.1386C14.0625 12.0429 13.3635 12.7749 12.5 12.7749ZM17.7083 12.7749C16.8458 12.7749 16.1458 12.0429 16.1458 11.1386C16.1458 10.2342 16.8458 9.50222 17.7083 9.50222C18.5719 9.50222 19.2708 10.2342 19.2708 11.1386C19.2708 12.0429 18.5719 12.7749 17.7083 12.7749Z" fill="#333333"/>
</svg>
