<svg width="46" height="46" viewBox="0 0 46 46" fill="none" xmlns="http://www.w3.org/2000/svg">
<circle opacity="0.6" cx="23" cy="23" r="23" fill="black" fill-opacity="0.5"/>
<path d="M22.6786 12H24.3214V16.1071H22.6786V12ZM28.1723 17.6679L31.0522 14.7879L32.2137 15.9494L29.3338 18.8294L28.1723 17.6679ZM30.8929 22.6786H35V24.3214H30.8929V22.6786ZM28.1723 29.3321L29.3338 28.1715L32.2137 31.0514L31.0522 32.2129L28.1723 29.3321ZM22.6786 30.8929H24.3214V35H22.6786V30.8929ZM14.7879 31.0506L17.6679 28.1706L18.8294 29.3321L15.9503 32.2121L14.7879 31.0506ZM12 22.6786H16.1071V24.3214H12V22.6786ZM14.7888 15.9494L15.9503 14.7879L18.8302 17.6679L17.6679 18.8294L14.7888 15.9494ZM23.5 20.2143C24.1499 20.2143 24.7851 20.407 25.3254 20.768C25.8658 21.1291 26.2869 21.6422 26.5356 22.2426C26.7843 22.843 26.8494 23.5036 26.7226 24.141C26.5958 24.7784 26.2829 25.3638 25.8234 25.8234C25.3638 26.2829 24.7784 26.5958 24.141 26.7226C23.5036 26.8494 22.843 26.7843 22.2426 26.5356C21.6422 26.2869 21.1291 25.8658 20.768 25.3254C20.407 24.7851 20.2143 24.1499 20.2143 23.5C20.2154 22.6289 20.5619 21.7938 21.1778 21.1778C21.7938 20.5619 22.6289 20.2154 23.5 20.2143ZM23.5 18.5714C22.5252 18.5714 21.5723 18.8605 20.7618 19.402C19.9513 19.9436 19.3196 20.7133 18.9466 21.6139C18.5736 22.5145 18.476 23.5055 18.6661 24.4615C18.8563 25.4176 19.3257 26.2958 20.015 26.985C20.7042 27.6743 21.5824 28.1437 22.5385 28.3339C23.4945 28.524 24.4855 28.4264 25.3861 28.0534C26.2867 27.6804 27.0564 27.0487 27.598 26.2382C28.1395 25.4277 28.4286 24.4748 28.4286 23.5C28.4286 22.1929 27.9093 20.9393 26.985 20.015C26.0607 19.0907 24.8071 18.5714 23.5 18.5714Z" fill="white"/>
</svg>
