<svg width="46" height="46" viewBox="0 0 46 46" fill="none" xmlns="http://www.w3.org/2000/svg">
<circle opacity="0.6" cx="23" cy="23" r="23" fill="black" fill-opacity="0.5"/>
<path fill-rule="evenodd" clip-rule="evenodd" d="M19.8054 23.1091L17.9873 30.7697C17.9074 31.1052 18.1095 31.3026 18.2014 31.372C18.2933 31.4415 18.5369 31.5861 18.8428 31.4208L34.8336 22.736C35.1155 22.5819 35.1467 22.3159 35.1467 22.2104C35.1483 22.1066 35.1147 21.8478 34.8431 21.696L18.8812 12.9649C18.5784 12.7995 18.3308 12.9449 18.2389 13.0144C18.1455 13.0855 17.9386 13.286 18.0153 13.6231L19.811 21.4148L28.3264 21.3701C28.7937 21.3677 29.1755 21.7447 29.1787 22.2128C29.1819 22.6809 28.8033 23.0628 28.336 23.0651L19.8054 23.1091ZM16.9361 32.5128C16.3801 31.9568 16.1532 31.1644 16.3385 30.3783L18.2669 22.2559L16.3649 14.0034C16.1604 13.1135 16.4847 12.2172 17.2148 11.6644C17.9442 11.1108 18.894 11.0414 19.6936 11.4783L35.6555 20.2094C36.3897 20.6112 36.841 21.3772 36.8426 22.2128C36.8402 23.0524 36.3809 23.8232 35.6412 24.2242L19.6512 32.9082C18.8476 33.3459 17.8978 33.2732 17.1725 32.7189C17.0878 32.6534 17.0096 32.5862 16.9361 32.5128Z" fill="white"/>
</svg>
