<svg width="22" height="22" viewBox="0 0 22 22" fill="none" xmlns="http://www.w3.org/2000/svg">
<path d="M17.4167 1.84253H5.5C4.3945 1.84253 2.75 2.57495 2.75 4.59253V17.4259C2.75 19.4434 4.3945 20.1759 5.5 20.1759H18.3333C18.8396 20.1759 19.25 19.7655 19.25 19.2592C19.25 18.7529 18.8396 18.3425 18.3333 18.3425H5.511C5.0875 18.3315 4.58333 18.1638 4.58333 17.4259C4.58333 17.3333 4.59158 17.2508 4.60533 17.1756C4.708 16.6485 5.13975 16.5184 5.51008 16.5092H18.3333C18.3498 16.5092 18.3618 16.5009 18.3783 16.5C18.8597 16.5 19.25 16.1097 19.25 15.6283V3.67586C19.25 2.66478 18.4278 1.84253 17.4167 1.84253ZM17.4167 13.6759C17.4167 14.2281 16.969 14.6759 16.4167 14.6759H4.58333V4.59253C4.58333 3.8537 5.0875 3.68686 5.5 3.67586H11.9167V9.28351C11.9167 9.6552 12.3078 9.89695 12.6403 9.73073L13.7276 9.18704C13.7417 9.18 13.7583 9.18 13.7724 9.18704L14.8597 9.73073C15.1922 9.89695 15.5833 9.6552 15.5833 9.28351V3.67586H17.4167V13.6759Z" fill="#767474"/>
</svg>
