<svg width="46" height="46" viewBox="0 0 46 46" fill="none" xmlns="http://www.w3.org/2000/svg">
<circle opacity="0.6" cx="23" cy="23" r="23" fill="black" fill-opacity="0.5"/>
<path d="M28.3575 16.4145C28.6512 16.1457 29.0422 15.9971 29.4478 16C29.8534 16.003 30.2419 16.1573 30.5314 16.4303C30.8209 16.7033 30.9887 17.0737 30.9995 17.4634C31.0102 17.8531 30.863 18.2315 30.5889 18.5188L22.2681 28.5196C22.125 28.6677 21.9523 28.7866 21.7603 28.8691C21.5684 28.9515 21.3611 28.996 21.1508 28.9997C20.9406 29.0035 20.7317 28.9664 20.5367 28.8908C20.3416 28.8152 20.1645 28.7026 20.0158 28.5597L14.4978 23.2567C14.3441 23.1191 14.2209 22.9531 14.1354 22.7687C14.0499 22.5844 14.0039 22.3853 14.0002 22.1835C13.9965 21.9817 14.0352 21.7812 14.1138 21.594C14.1925 21.4069 14.3096 21.2368 14.4581 21.0941C14.6066 20.9514 14.7835 20.8388 14.9783 20.7632C15.173 20.6876 15.3816 20.6505 15.5917 20.6541C15.8017 20.6576 16.0088 20.7018 16.2006 20.784C16.3925 20.8661 16.5652 20.9846 16.7083 21.1323L21.0752 25.327L28.3179 16.4586C28.3309 16.4431 28.3448 16.4284 28.3596 16.4145H28.3575Z" fill="white"/>
</svg>
