<svg width="28" height="28" viewBox="0 0 28 28" fill="none" xmlns="http://www.w3.org/2000/svg">
<path d="M12.8333 2.33337H10.4999C4.66659 2.33337 2.33325 4.66671 2.33325 10.5V17.5C2.33325 23.3334 4.66659 25.6667 10.4999 25.6667H17.4999C23.3333 25.6667 25.6666 23.3334 25.6666 17.5V15.1667" stroke="#001824" stroke-width="2" stroke-linecap="round" stroke-linejoin="round"/>
<path d="M18.7134 3.52338L9.5201 12.7167C9.1701 13.0667 8.8201 13.7551 8.7501 14.2567L8.24844 17.7684C8.06177 19.04 8.9601 19.9267 10.2318 19.7517L13.7434 19.2501C14.2334 19.1801 14.9218 18.8301 15.2834 18.4801L24.4768 9.28672C26.0634 7.70005 26.8101 5.85672 24.4768 3.52338C22.1434 1.19005 20.3001 1.93672 18.7134 3.52338Z" stroke="#001824" stroke-width="2" stroke-miterlimit="10" stroke-linecap="round" stroke-linejoin="round"/>
<path d="M17.395 4.84167C18.1767 7.63001 20.3584 9.81167 23.1584 10.605" stroke="#001824" stroke-width="2" stroke-miterlimit="10" stroke-linecap="round" stroke-linejoin="round"/>
</svg>
