<svg width="24" height="24" viewBox="0 0 24 24" fill="none" xmlns="http://www.w3.org/2000/svg">
<path d="M12 1.99805C17.524 1.99805 22.002 6.47605 22.002 12C22.002 17.523 17.524 22 12 22C6.47599 22.0011 1.99799 17.523 1.99799 12C1.99799 6.47605 6.47599 1.99805 12 1.99805ZM12 3.49805C10.8758 3.48585 9.76035 3.69675 8.7182 4.11852C7.67606 4.54029 6.72792 5.16457 5.92865 5.95521C5.12938 6.74586 4.49486 7.68718 4.06181 8.72469C3.62876 9.7622 3.40578 10.8753 3.40578 11.9995C3.40578 13.1238 3.62876 14.2369 4.06181 15.2744C4.49486 16.3119 5.12938 17.2532 5.92865 18.0439C6.72792 18.8345 7.67606 19.4588 8.7182 19.8806C9.76035 20.3023 10.8758 20.5132 12 20.501C14.2388 20.4768 16.3776 19.5704 17.9521 17.9787C19.5266 16.387 20.4098 14.2384 20.4098 11.9995C20.4098 9.76065 19.5266 7.61212 17.9521 6.02041C16.3776 4.42871 14.2388 3.52233 12 3.49805ZM8.46199 14.783C8.88289 15.3188 9.42015 15.7518 10.0331 16.0493C10.6461 16.3468 11.3187 16.5009 12 16.5C12.6806 16.5009 13.3524 16.347 13.9648 16.0501C14.5772 15.7532 15.1141 15.3209 15.535 14.786C15.5961 14.7088 15.6717 14.6443 15.7577 14.5962C15.8437 14.5482 15.9383 14.5176 16.0362 14.5061C16.134 14.4946 16.2331 14.5026 16.3279 14.5294C16.4226 14.5562 16.5112 14.6015 16.5885 14.6625C16.6658 14.7236 16.7303 14.7993 16.7783 14.8853C16.8263 14.9713 16.857 15.0659 16.8684 15.1637C16.8799 15.2615 16.872 15.3607 16.8451 15.4554C16.8183 15.5502 16.7731 15.6388 16.712 15.716C16.1507 16.4286 15.435 17.0045 14.6187 17.4001C13.8025 17.7958 12.9071 18.0009 12 18C11.0917 18.0008 10.1952 17.795 9.3782 17.3983C8.56118 17.0016 7.84506 16.4243 7.28399 15.71C7.22042 15.633 7.17289 15.544 7.14419 15.4483C7.11549 15.3526 7.1062 15.2521 7.11686 15.1528C7.12752 15.0534 7.15793 14.9572 7.20628 14.8698C7.25464 14.7824 7.31998 14.7055 7.39846 14.6437C7.47694 14.5819 7.56698 14.5363 7.6633 14.5098C7.75961 14.4832 7.86026 14.4762 7.95933 14.4891C8.05841 14.502 8.1539 14.5345 8.24022 14.5849C8.32654 14.6352 8.40194 14.7022 8.46199 14.782V14.783ZM8.99999 8.75005C9.16705 8.74532 9.33336 8.77414 9.48909 8.83481C9.64481 8.89548 9.7868 8.98676 9.90663 9.10325C10.0265 9.21975 10.1217 9.35909 10.1868 9.51304C10.2518 9.66699 10.2853 9.83242 10.2853 9.99955C10.2853 10.1667 10.2518 10.3321 10.1868 10.4861C10.1217 10.64 10.0265 10.7793 9.90663 10.8958C9.7868 11.0123 9.64481 11.1036 9.48909 11.1643C9.33336 11.225 9.16705 11.2538 8.99999 11.249C8.67472 11.2398 8.36586 11.1042 8.13904 10.8708C7.91223 10.6375 7.78534 10.3249 7.78534 9.99955C7.78534 9.67415 7.91223 9.36158 8.13904 9.12825C8.36586 8.89493 8.67472 8.75925 8.99999 8.75005ZM15 8.75005C15.167 8.74532 15.3334 8.77414 15.4891 8.83481C15.6448 8.89548 15.7868 8.98676 15.9066 9.10325C16.0265 9.21975 16.1217 9.35909 16.1868 9.51304C16.2518 9.66699 16.2853 9.83242 16.2853 9.99955C16.2853 10.1667 16.2518 10.3321 16.1868 10.4861C16.1217 10.64 16.0265 10.7793 15.9066 10.8958C15.7868 11.0123 15.6448 11.1036 15.4891 11.1643C15.3334 11.225 15.167 11.2538 15 11.249C14.6747 11.2398 14.3659 11.1042 14.139 10.8708C13.9122 10.6375 13.7853 10.3249 13.7853 9.99955C13.7853 9.67415 13.9122 9.36158 14.139 9.12825C14.3659 8.89493 14.6747 8.75925 15 8.75005Z" fill="#252525"/>
</svg>
