<svg width="26" height="14" viewBox="0 0 26 14" fill="none" xmlns="http://www.w3.org/2000/svg">
<path d="M25.8557 6.59943L25.8611 10.765C25.8623 11.0596 25.8052 11.3514 25.6932 11.6235C25.5812 11.8956 25.4165 12.1427 25.2085 12.3506C24.7846 12.7745 24.2196 13.0063 23.6209 13.0052L19.1364 12.9973C18.8417 12.9974 18.5498 12.9393 18.2773 12.8263C18.0048 12.7134 17.7571 12.5478 17.5484 12.339C17.1231 11.9137 16.8892 11.3478 16.8882 10.7491L16.8824 7.46985C15.6518 7.00552 14.3482 6.76723 13.0345 6.76649C11.7192 6.76091 10.4146 6.99256 9.1832 7.45033L9.18901 10.7296C9.19018 11.0242 9.13312 11.316 9.02112 11.5881C8.90912 11.8602 8.74438 12.1073 8.53637 12.3152C8.11254 12.739 7.5475 12.9709 6.94878 12.9698L2.46429 12.9658C2.16921 12.9658 1.87683 12.9075 1.60397 12.7942C1.33111 12.6809 1.08316 12.5148 0.87438 12.3055C0.449047 11.8802 0.215212 11.3143 0.21415 10.7156L0.206776 6.55591C0.203123 5.59914 0.588875 4.66849 1.26465 3.99271C1.40723 3.85013 1.55571 3.72518 1.714 3.61393C4.78193 1.41626 8.79861 0.210303 13.019 0.215829C17.2354 0.221348 21.2525 1.44155 24.3419 3.65209C25.2842 4.32879 25.8497 5.42939 25.8557 6.59943V6.59943Z" fill="#FAFFFD"/>
</svg>
