<svg width="23" height="23" viewBox="0 0 23 23" fill="none" xmlns="http://www.w3.org/2000/svg">
<path d="M10.6786 0.821429C10.6786 0.367767 11.0463 0 11.5 0C11.9537 0 12.3214 0.367766 12.3214 0.821428V3.28571C12.3214 3.73938 11.9537 4.10714 11.5 4.10714C11.0463 4.10714 10.6786 3.73938 10.6786 3.28571V0.821429ZM16.753 6.24861C16.4323 5.92787 16.4323 5.40785 16.753 5.08711L18.4715 3.36868C18.7922 3.04794 19.3122 3.04794 19.633 3.36868C19.9537 3.68942 19.9537 4.20944 19.633 4.53018L17.9145 6.24861C17.5938 6.56935 17.0738 6.56935 16.753 6.24861ZM18.8929 11.5C18.8929 11.0463 19.2606 10.6786 19.7143 10.6786H22.1786C22.6322 10.6786 23 11.0463 23 11.5C23 11.9537 22.6322 12.3214 22.1786 12.3214H19.7143C19.2606 12.3214 18.8929 11.9537 18.8929 11.5ZM16.7529 17.9129C16.4323 17.5922 16.4324 17.0722 16.7532 16.7516C17.0739 16.4312 17.5936 16.4313 17.9142 16.7518L19.633 18.4707C19.9537 18.7914 19.9537 19.3114 19.633 19.6321C19.3123 19.9529 18.7922 19.9528 18.4715 19.632L16.7529 17.9129ZM10.6786 19.7143C10.6786 19.2606 11.0463 18.8929 11.5 18.8929C11.9537 18.8929 12.3214 19.2606 12.3214 19.7143V22.1786C12.3214 22.6322 11.9537 23 11.5 23C11.0463 23 10.6786 22.6322 10.6786 22.1786V19.7143ZM3.36925 19.6315C3.04823 19.3107 3.04814 18.7904 3.36905 18.4695L5.08707 16.7514C5.40783 16.4307 5.92789 16.4307 6.24865 16.7514C6.56938 17.0722 6.56942 17.5922 6.24873 17.9129L4.53096 19.6312C4.21022 19.952 3.69015 19.9522 3.36925 19.6315ZM0 11.5C0 11.0463 0.367766 10.6786 0.821428 10.6786H3.28571C3.73938 10.6786 4.10714 11.0463 4.10714 11.5C4.10714 11.9537 3.73938 12.3214 3.28571 12.3214H0.821429C0.367767 12.3214 0 11.9537 0 11.5ZM3.36938 4.53022C3.04869 4.20944 3.04873 3.68945 3.36946 3.36872C3.69022 3.04796 4.21028 3.04796 4.53104 3.36872L6.24906 5.08674C6.56997 5.40765 6.56988 5.92797 6.24885 6.24877C5.92796 6.56944 5.40789 6.56931 5.08715 6.24848L3.36938 4.53022ZM11.5 8.21429C12.1499 8.21429 12.7851 8.40699 13.3254 8.76803C13.8658 9.12907 14.2869 9.64223 14.5356 10.2426C14.7843 10.843 14.8494 11.5036 14.7226 12.141C14.5958 12.7784 14.2829 13.3638 13.8234 13.8234C13.3638 14.2829 12.7784 14.5958 12.141 14.7226C11.5036 14.8494 10.843 14.7843 10.2426 14.5356C9.64223 14.2869 9.12907 13.8658 8.76803 13.3254C8.40699 12.7851 8.21429 12.1499 8.21429 11.5C8.21537 10.6289 8.56189 9.79381 9.17785 9.17785C9.79381 8.56189 10.6289 8.21537 11.5 8.21429ZM11.5 6.57143C10.5252 6.57143 9.57233 6.86049 8.76183 7.40204C7.95133 7.9436 7.31963 8.71334 6.94659 9.61392C6.57356 10.5145 6.47596 11.5055 6.66613 12.4615C6.8563 13.4176 7.3257 14.2958 8.01497 14.985C8.70425 15.6743 9.58243 16.1437 10.5385 16.3339C11.4945 16.524 12.4855 16.4264 13.3861 16.0534C14.2867 15.6804 15.0564 15.0487 15.598 14.2382C16.1395 13.4277 16.4286 12.4748 16.4286 11.5C16.4286 10.1929 15.9093 8.93926 14.985 8.01497C14.0607 7.09069 12.8071 6.57143 11.5 6.57143Z" fill="white"/>
</svg>
