<svg width="45" height="45" viewBox="0 0 45 45" fill="none" xmlns="http://www.w3.org/2000/svg">
<path d="M37.1104 9.50456H31.2987L27.9437 5.83789H16.9437L13.5887 9.50456H7.77708C5.76041 9.50456 4.11041 11.1546 4.11041 13.1712V35.1712C4.11041 37.1879 5.76041 38.8379 7.77708 38.8379H37.1104C39.1271 38.8379 40.7771 37.1879 40.7771 35.1712V13.1712C40.7771 11.1546 39.1271 9.50456 37.1104 9.50456ZM37.1104 35.1712H7.77708V13.1712H15.2021L16.2837 11.9796L18.5571 9.50456H26.3304L28.6037 11.9796L29.6854 13.1712H37.1104V35.1712Z" fill="white"/>
<path d="M22.4437 31.5039C18.3921 31.5039 15.1104 28.2222 15.1104 24.1706H18.7771L14.1937 19.5872L9.61041 24.1706H13.2771C13.2771 29.2306 17.3837 33.3372 22.4437 33.3372C24.0204 33.3372 25.4687 32.8972 26.7704 32.2006L25.4137 30.8439C24.5154 31.2656 23.5071 31.5039 22.4437 31.5039ZM22.4437 15.0039C20.8671 15.0039 19.4187 15.4439 18.1171 16.1406L19.4737 17.4789C20.3721 17.0756 21.3804 16.8372 22.4437 16.8372C26.4954 16.8372 29.7771 20.1189 29.7771 24.1706H26.1104L30.6937 28.7539L35.2771 24.1706H31.6104C31.6104 19.1106 27.5037 15.0039 22.4437 15.0039Z" fill="white"/>
</svg>
