<svg width="46" height="46" viewBox="0 0 46 46" fill="none" xmlns="http://www.w3.org/2000/svg">
<circle opacity="0.6" cx="23" cy="23" r="23" fill="black" fill-opacity="0.5"/>
<path d="M34.1375 17.3249C34.3459 17.3249 34.5473 17.4004 34.7044 17.5373C34.8614 17.6743 34.9636 17.8636 34.9919 18.0701L35 18.1874V27.9626C35.0001 28.9173 34.6348 29.8358 33.9792 30.5298C33.3235 31.2237 32.4272 31.6404 31.4741 31.6945L31.2625 31.7002H16.6701L17.4981 32.5283C17.644 32.6745 17.7326 32.8681 17.7478 33.0741C17.763 33.2801 17.7038 33.4847 17.581 33.6507L17.497 33.7473C17.351 33.8934 17.1574 33.9822 16.9514 33.9976C16.7454 34.013 16.5407 33.954 16.3746 33.8313L16.278 33.7473L13.978 31.4472L13.9044 31.3644C13.9017 31.3606 13.899 31.3568 13.8963 31.3529L13.9769 31.4472C13.8457 31.315 13.7606 31.144 13.7343 30.9597C13.708 30.7753 13.7418 30.5873 13.8308 30.4237C13.8706 30.3521 13.9202 30.2863 13.978 30.2282L16.278 27.9281C16.4321 27.7752 16.6382 27.6861 16.8551 27.6784C17.0721 27.6708 17.2839 27.7452 17.4484 27.8869C17.6129 28.0286 17.7179 28.2271 17.7425 28.4428C17.767 28.6585 17.7093 28.8755 17.581 29.0506L17.497 29.1472L16.669 29.9752H31.2625C31.7678 29.9752 32.2545 29.7851 32.6261 29.4427C32.9976 29.1003 33.2268 28.6307 33.2681 28.1271L33.275 27.9626V18.1874C33.275 17.9586 33.3659 17.7392 33.5276 17.5775C33.6894 17.4157 33.9088 17.3249 34.1375 17.3249ZM30.6254 11.1687L30.722 11.2527L33.022 13.5528C33.0514 13.5818 33.0787 13.6129 33.1036 13.6459L33.0231 13.5528C33.1833 13.714 33.2736 13.9318 33.2745 14.159C33.2753 14.3863 33.1867 14.6048 33.0278 14.7672L33.022 14.7718L30.722 17.0719C30.5679 17.2248 30.3618 17.3139 30.1449 17.3216C29.9279 17.3292 29.7161 17.2548 29.5516 17.1131C29.3871 16.9714 29.2821 16.7729 29.2575 16.5572C29.233 16.3415 29.2906 16.1245 29.419 15.9494L29.503 15.8528L30.3287 15.0248H15.7375C15.2324 15.0248 14.7458 15.2148 14.3743 15.5569C14.0028 15.899 13.7735 16.3684 13.7319 16.8717L13.725 17.0374V26.8126C13.7249 27.0311 13.6419 27.2415 13.4927 27.4012C13.3435 27.5609 13.1393 27.658 12.9213 27.6729C12.7033 27.6878 12.4877 27.6193 12.3182 27.4814C12.1487 27.3435 12.0378 27.1464 12.008 26.9299L12 26.8126V17.0374C11.9999 16.0827 12.3652 15.1642 13.0208 14.4702C13.6765 13.7763 14.5728 13.3596 15.5259 13.3055L15.7375 13.2998H30.3298L29.5019 12.4717C29.356 12.3255 29.2674 12.1319 29.2522 11.9259C29.237 11.7199 29.2962 11.5153 29.419 11.3493L29.503 11.2527C29.649 11.1066 29.8426 11.0178 30.0486 11.0024C30.2546 10.987 30.4593 11.046 30.6254 11.1687ZM23.5 17.8999C24.72 17.8999 25.89 18.3845 26.7527 19.2472C27.6154 20.1099 28.1 21.28 28.1 22.5C28.1 23.72 27.6154 24.8901 26.7527 25.7528C25.89 26.6155 24.72 27.1001 23.5 27.1001C22.28 27.1001 21.11 26.6155 20.2473 25.7528C19.3846 24.8901 18.9 23.72 18.9 22.5C18.9 21.28 19.3846 20.1099 20.2473 19.2472C21.11 18.3845 22.28 17.8999 23.5 17.8999ZM23.5 19.6249C22.7375 19.6249 22.0062 19.9278 21.4671 20.467C20.9279 21.0062 20.625 21.7375 20.625 22.5C20.625 23.2625 20.9279 23.9938 21.4671 24.533C22.0062 25.0722 22.7375 25.3751 23.5 25.3751C24.2625 25.3751 24.9938 25.0722 25.5329 24.533C26.0721 23.9938 26.375 23.2625 26.375 22.5C26.375 21.7375 26.0721 21.0062 25.5329 20.467C24.9938 19.9278 24.2625 19.6249 23.5 19.6249Z" fill="white"/>
</svg>
