<svg width="30" height="30" viewBox="0 0 30 30" fill="none" xmlns="http://www.w3.org/2000/svg">
<path d="M7.48743 6.16118C7.663 6.33696 7.76161 6.57524 7.76161 6.82368C7.76161 7.07212 7.663 7.3104 7.48743 7.48618C6.50078 8.4728 5.71811 9.64411 5.18414 10.9332C4.65016 12.2223 4.37533 13.604 4.37533 14.9993C4.37533 16.3946 4.65016 17.7763 5.18414 19.0654C5.71811 20.3545 6.50078 21.5258 7.48743 22.5124C7.65812 22.6893 7.75251 22.9262 7.75026 23.172C7.74801 23.4178 7.6493 23.6529 7.4754 23.8266C7.30149 24.0004 7.06631 24.0989 6.8205 24.1009C6.57469 24.1029 6.33792 24.0083 6.16118 23.8374C1.27993 18.9562 1.27993 11.0424 6.16118 6.16118C6.33696 5.98562 6.57524 5.887 6.82368 5.887C7.07212 5.887 7.3104 5.98562 7.48618 6.16118H7.48743ZM23.8387 6.16118C28.7199 11.0424 28.7199 18.9562 23.8387 23.8387C23.661 24.0043 23.4259 24.0944 23.183 24.0901C22.9402 24.0859 22.7084 23.9875 22.5367 23.8157C22.3649 23.6439 22.2665 23.4122 22.2622 23.1693C22.2579 22.9265 22.3481 22.6914 22.5137 22.5137C23.5005 21.527 24.2833 20.3556 24.8174 19.0664C25.3515 17.7772 25.6264 16.3954 25.6264 14.9999C25.6264 13.6045 25.3515 12.2227 24.8174 10.9334C24.2833 9.64421 23.5005 8.47283 22.5137 7.48618C22.4216 7.40035 22.3477 7.29685 22.2965 7.18185C22.2452 7.06685 22.2177 6.94271 22.2154 6.81683C22.2132 6.69095 22.2364 6.56592 22.2835 6.44918C22.3307 6.33245 22.4009 6.2264 22.4899 6.13738C22.5789 6.04836 22.685 5.97818 22.8017 5.93103C22.9184 5.88387 23.0435 5.86072 23.1693 5.86294C23.2952 5.86516 23.4194 5.89271 23.5344 5.94395C23.6494 5.99519 23.7529 6.06907 23.8387 6.16118ZM11.0224 9.69618C11.198 9.87196 11.2966 10.1102 11.2966 10.3587C11.2966 10.6071 11.198 10.8454 11.0224 11.0212C10.4999 11.5435 10.0854 12.1637 9.80261 12.8463C9.51981 13.5289 9.37426 14.2605 9.37426 14.9993C9.37426 15.7381 9.51981 16.4697 9.80261 17.1523C10.0854 17.8349 10.4999 18.4551 11.0224 18.9774C11.188 19.1551 11.2782 19.3902 11.2739 19.6331C11.2696 19.876 11.1712 20.1077 10.9995 20.2795C10.8277 20.4512 10.596 20.5496 10.3531 20.5539C10.1102 20.5582 9.87515 20.468 9.69743 20.3024C8.29102 18.8959 7.50091 16.9883 7.50091 14.9993C7.50091 13.0103 8.29102 11.1027 9.69743 9.69618C9.87321 9.52061 10.1115 9.422 10.3599 9.422C10.6084 9.422 10.8467 9.52061 11.0224 9.69618ZM20.3037 9.69618C21.7101 11.1027 22.5002 13.0103 22.5002 14.9993C22.5002 16.9883 21.7101 18.8959 20.3037 20.3024C20.2172 20.392 20.1138 20.4635 19.9995 20.5127C19.8851 20.5618 19.7621 20.5878 19.6376 20.5889C19.5132 20.59 19.3897 20.5664 19.2745 20.5193C19.1592 20.4722 19.0545 20.4027 18.9664 20.3147C18.8784 20.2267 18.8087 20.122 18.7615 20.0069C18.7143 19.8917 18.6906 19.7682 18.6916 19.6437C18.6926 19.5193 18.7184 19.3962 18.7675 19.2818C18.8166 19.1674 18.8879 19.0639 18.9774 18.9774C19.4998 18.4551 19.9141 17.835 20.1968 17.1525C20.4795 16.4701 20.625 15.7386 20.625 14.9999C20.625 14.2612 20.4795 13.5298 20.1968 12.8473C19.9141 12.1649 19.4998 11.5448 18.9774 11.0224C18.8118 10.8447 18.7217 10.6097 18.726 10.3668C18.7303 10.1239 18.8286 9.89217 19.0004 9.7204C19.1722 9.54863 19.4039 9.45024 19.6468 9.44596C19.8897 9.44167 20.1247 9.53183 20.3024 9.69743L20.3037 9.69618ZM14.9999 13.1249C15.4972 13.1249 15.9741 13.3225 16.3258 13.6741C16.6774 14.0257 16.8749 14.5026 16.8749 14.9999C16.8749 15.4972 16.6774 15.9741 16.3258 16.3258C15.9741 16.6774 15.4972 16.8749 14.9999 16.8749C14.5027 16.8749 14.0257 16.6774 13.6741 16.3258C13.3225 15.9741 13.1249 15.4972 13.1249 14.9999C13.1249 14.5026 13.3225 14.0257 13.6741 13.6741C14.0257 13.3225 14.5027 13.1249 14.9999 13.1249Z" fill="white"/>
</svg>
