<svg width="321" height="321" viewBox="0 0 321 321" fill="none" xmlns="http://www.w3.org/2000/svg">
<rect width="321" height="321" fill="white"/>
<path fill-rule="evenodd" clip-rule="evenodd" d="M283.434 175.762C290.856 117.359 171.44 33.3026 85.4982 43.6757C-0.443901 54.0487 81.5327 121.583 46.75 195.61C22.62 246.965 42.2045 291.476 158.587 288.784C242.555 286.842 277.532 231.83 283.434 175.762Z" fill="#FF82DC"/>
<path fill-rule="evenodd" clip-rule="evenodd" d="M94.5538 54.3982C93.9353 54.6127 94.1446 72.7092 94.1958 75.8928C94.3112 83.0646 93.9271 214.214 93.9411 221.403C93.9451 223.514 94.0852 223.979 94.5538 223.813C96.1337 223.253 219.089 223.408 222.156 222.842C222.305 222.814 222.996 203.003 222.998 202.449C223.028 196.359 223.444 66.3151 223.446 60.2226C223.446 57.6408 223.09 56.1831 222.533 55.7996C221.879 55.3492 221.211 55.1443 220.548 55.0564C218.286 54.7567 97.1748 53.4891 94.5538 54.3982Z" fill="white"/>
<path fill-rule="evenodd" clip-rule="evenodd" d="M79.1794 41.4411C80.6187 41.3903 82.0574 41.3243 83.4966 41.2711C86.6614 41.154 119.787 41.0445 122.951 40.9243C124.161 40.8783 125.37 40.7977 126.58 40.7571C128.621 40.6886 130.663 40.645 132.704 40.5801C134.201 40.5324 135.697 40.463 137.193 40.4109C138.976 40.3489 140.76 40.3 142.543 40.2362C143.925 40.1867 145.306 40.1108 146.688 40.0685C148.901 40.0007 151.115 39.9557 153.328 39.892C155.054 39.8423 156.78 39.7762 158.506 39.7222C160.433 39.6618 162.359 39.6067 164.286 39.5494C166.213 39.492 168.139 39.4333 170.066 39.3776C172.107 39.3186 174.149 39.2634 176.19 39.2049C178.155 39.1487 180.12 39.0876 182.085 39.0338C184.299 38.9732 186.512 38.9186 188.726 38.8609C190.911 38.8039 193.095 38.7451 195.28 38.6892C197.58 38.6304 199.879 38.5747 202.179 38.5166C204.421 38.46 206.664 38.4221 208.905 38.3382C210.616 38.274 212.324 38.1442 214.034 38.061C214.287 38.0487 214.545 38.1705 214.801 38.1669C218.334 38.1179 221.866 38.0633 225.399 37.9987C228.043 37.9504 230.687 37.8836 233.33 37.829C236.232 37.769 239.134 37.6939 242.036 37.6644C243.542 37.6491 244.532 38.3285 244.886 39.7492C245.063 40.4571 244.971 41.2356 244.976 41.9823C244.989 43.9017 245.011 45.8215 244.987 47.7405C244.972 48.9359 244.877 50.1302 244.82 51.3251C244.81 51.5525 244.807 51.7804 244.807 52.0081C244.806 54.5133 244.826 57.0187 244.802 59.5236C244.76 63.9171 244.695 68.3104 244.633 72.7036C244.581 76.3513 244.519 79.9988 244.462 83.6464C244.404 87.3513 244.348 91.0563 244.29 94.7612C244.233 98.4088 244.183 102.057 244.115 105.704C244.074 107.86 243.989 110.016 243.951 112.172C243.925 113.673 243.962 115.175 243.943 116.676C243.895 120.381 243.839 124.086 243.771 127.791C243.731 129.919 243.644 132.046 243.607 134.173C243.58 135.703 243.623 137.234 243.596 138.763C243.56 140.862 243.47 142.961 243.435 145.06C243.408 146.675 243.452 148.292 243.424 149.908C243.391 151.835 243.297 153.761 243.263 155.688C243.236 157.246 243.274 158.805 243.254 160.364C243.207 164.155 243.146 167.946 243.084 171.737C243.032 174.983 242.977 178.229 242.911 181.475C242.864 183.832 242.782 186.188 242.747 188.545C242.719 190.362 242.764 192.179 242.735 193.996C242.706 195.865 242.605 197.734 242.575 199.604C242.547 201.391 242.591 203.18 242.563 204.968C242.535 206.666 242.43 208.362 242.403 210.06C242.375 211.876 242.415 213.694 242.393 215.51C242.348 219.273 242.285 223.035 242.224 226.797C242.171 230.101 242.172 233.406 242.035 236.707C241.903 239.88 242.635 242.824 244.213 245.533C245.821 248.293 247.543 250.987 249.252 253.687C250.941 256.356 252.423 259.135 253.208 262.198C253.769 264.385 253.851 266.656 253.222 268.87C253.006 269.627 251.696 274.849 252.811 276.206C254.243 277.948 256.053 278.73 258.283 278.781C260.456 278.83 262.519 278.302 264.602 277.819C267.135 277.233 269.677 276.81 272.227 277.735C273.496 278.195 274.639 278.846 275.39 280.02C275.504 280.199 275.781 280.499 275.176 280.503C273.708 280.51 272.24 280.601 270.772 280.659C267.837 280.773 264.902 280.891 261.966 281.002C260.269 281.065 258.572 281.12 256.874 281.174C254.977 281.235 253.079 281.293 251.181 281.346C248.967 281.407 246.754 281.467 244.54 281.518C241.782 281.581 239.023 281.639 236.265 281.69C232.876 281.753 229.486 281.813 226.097 281.861C221.589 281.926 217.08 281.971 212.572 282.038C209.498 282.083 206.425 282.151 203.351 282.206C202.825 282.215 202.298 282.203 201.772 282.208C195.429 282.264 189.085 282.323 182.741 282.379C182.186 282.384 181.631 282.375 181.077 282.38C174.59 282.437 168.102 282.495 161.615 282.551C161.032 282.556 160.448 282.547 159.865 282.552C153.435 282.609 147.005 282.667 140.575 282.723C140.021 282.728 139.466 282.72 138.911 282.724C132.424 282.781 125.937 282.839 119.45 282.895C118.924 282.9 67.8934 282.892 67.3673 282.896C66.535 282.905 62.9819 276.509 67.8293 262.198C69.444 257.431 79.1794 244.758 79.1794 244.758C79.1794 244.758 77.8538 41.4879 79.1794 41.4411Z" fill="white"/>
<path fill-rule="evenodd" clip-rule="evenodd" d="M91.7385 222.102C91.7398 222.908 91.7244 223.77 91.2659 224.433C90.8074 225.095 89.727 225.379 89.1984 224.771C89.134 178.911 89.0695 133.05 89.0051 87.1891C88.9941 79.3449 88.9833 71.4928 89.5271 63.6675C91.4436 67.3862 91.4926 71.752 91.4995 75.9355C91.5791 124.658 91.6588 173.38 91.7385 222.102Z" fill="#00160A"/>
<path fill-rule="evenodd" clip-rule="evenodd" d="M209.267 159.881C209.564 160.55 208.539 160.986 207.807 161.002C197.843 161.224 187.876 161.272 177.91 161.146C177.828 143.865 178.264 126.582 179.217 109.327C192.663 109.226 206.11 109.125 219.557 109.023C219.896 109.381 219.227 109.819 218.736 109.858C206.025 110.866 193.253 111.097 180.514 110.549C179.591 126.909 179.12 143.294 179.103 159.68C189.157 159.458 199.217 159.526 209.267 159.881Z" fill="#00160A"/>
<path fill-rule="evenodd" clip-rule="evenodd" d="M127.145 75.3508C127.269 75.5048 127.28 75.718 127.285 75.9157C127.565 86.0817 127.846 96.2476 128.126 106.414C144.109 105.76 160.097 105.241 176.089 104.856C175.875 95.7677 175.66 86.6789 175.446 77.5901C175.444 77.4794 175.441 77.3657 175.478 77.2612C175.62 76.8604 176.252 76.8739 176.531 77.1945C176.81 77.5151 176.833 77.9782 176.842 78.4031C177.035 87.7085 177.228 97.0139 177.422 106.319C160.617 106.851 143.812 107.383 127.007 107.915C126.666 97.4777 126.325 87.04 125.984 76.6023C125.971 76.2231 125.967 75.8157 126.178 75.5008C126.39 75.1859 126.907 75.0554 127.145 75.3508L127.145 75.3508Z" fill="#00160A"/>
<path fill-rule="evenodd" clip-rule="evenodd" d="M108.957 112.934C106.859 113.024 104.431 112.95 103.128 111.305C110.313 111.432 117.506 111.041 124.635 110.136C124.888 110.104 124.989 110.451 124.992 110.706C125.199 127.086 125.406 143.465 125.614 159.845C125.618 160.202 125.589 160.624 125.286 160.812C125.124 160.913 124.923 160.917 124.732 160.919C118.373 160.962 112.013 160.855 105.659 160.596C104.931 160.566 103.914 160.014 104.337 159.421C110.949 159.306 117.563 159.286 124.176 159.36C124.28 143.562 124.059 127.761 123.514 111.971C118.669 112.403 113.815 112.724 108.957 112.934Z" fill="#00160A"/>
<path fill-rule="evenodd" clip-rule="evenodd" d="M103.708 162.774C111.098 162.504 118.501 162.617 125.879 163.113C125.407 176.991 125.797 190.881 126.186 204.761C126.304 208.961 126.421 213.161 126.539 217.361C126.321 217.692 125.769 217.605 125.519 217.296C125.27 216.988 125.239 216.562 125.219 216.166C124.341 198.924 124.134 181.647 124.598 164.389C118.04 164.245 111.483 164.102 104.926 163.959C104.558 163.951 104.166 163.936 103.866 163.723C103.566 163.51 103.436 163.022 103.708 162.774L103.708 162.774Z" fill="#00160A"/>
<path fill-rule="evenodd" clip-rule="evenodd" d="M127.993 160.717C127.944 144.862 127.654 129.008 127.123 113.162C127.094 112.31 127.065 111.458 127.035 110.606C127.031 110.462 127.032 110.301 127.131 110.196C127.227 110.094 127.382 110.081 127.521 110.075C143.973 109.323 160.447 109.064 176.914 109.3C177.534 126.581 177.159 143.898 175.792 161.136C159.865 160.494 143.909 159.852 127.993 160.717ZM129.335 159.115C144.393 158.276 159.489 158.94 174.555 159.603C175.947 143.382 176.308 127.071 175.636 110.804C159.887 110.648 144.134 110.928 128.401 111.642C128.823 127.464 129.134 143.289 129.335 159.115L129.335 159.115Z" fill="#00160A"/>
<path fill-rule="evenodd" clip-rule="evenodd" d="M101.027 107.545C108.577 107.2 116.128 106.854 123.679 106.509C123.164 96.5863 122.65 86.6636 122.135 76.7408C122.123 76.5022 122.119 76.2375 122.274 76.0561C122.518 75.7723 123.018 75.8911 123.243 76.1901C123.468 76.4891 123.495 76.8877 123.513 77.2613C124.014 87.4897 124.514 97.7181 125.015 107.946C119.795 108.291 114.575 108.636 109.355 108.981C106.48 109.171 103.325 109.283 101.027 107.545Z" fill="#00160A"/>
<path fill-rule="evenodd" clip-rule="evenodd" d="M174.412 216.522C173.921 216.718 173.626 215.973 173.621 215.445C173.486 198.313 173.681 181.179 174.206 164.055C159.176 164.149 144.145 164.244 129.114 164.339C129.374 181.941 129.634 199.542 129.894 217.144C129.897 217.373 129.889 217.631 129.721 217.787C129.261 218.216 128.725 217.334 128.709 216.705C128.251 198.936 127.982 181.163 127.902 163.388C143.699 163.269 159.496 163.15 175.293 163.031C175.116 180.583 174.94 198.135 174.763 215.687C174.76 216.009 174.71 216.402 174.412 216.522Z" fill="#00160A"/>
<path fill-rule="evenodd" clip-rule="evenodd" d="M216.512 105.584C204.076 105.827 191.641 106.069 179.205 106.312C179.571 96.4161 179.499 86.5041 178.99 76.6146C178.977 76.3554 178.976 76.0618 179.161 75.88C179.662 75.3884 180.286 76.3563 180.322 77.0574C180.796 86.3083 180.9 95.5781 180.632 104.837C193.432 104.26 206.25 104.107 219.06 104.38C218.794 105.356 217.523 105.565 216.512 105.584Z" fill="#00160A"/>
<path fill-rule="evenodd" clip-rule="evenodd" d="M209.339 162.474C210.135 162.461 211.276 162.934 210.928 163.65C200.27 163.573 189.61 163.75 178.961 164.18C177.858 180.591 177.582 197.059 178.136 213.498C178.174 214.621 178.203 215.801 177.689 216.8C177.383 217.177 176.911 216.508 176.894 216.023C176.296 198.439 176.617 180.825 177.855 163.275C188.347 162.916 198.842 162.649 209.339 162.474Z" fill="#00160A"/>
<path fill-rule="evenodd" clip-rule="evenodd" d="M204.098 85.854C204.337 86.2367 204.26 86.7518 204.026 87.1375C203.792 87.5233 203.427 87.8081 203.07 88.0839C199.852 90.5687 196.633 93.0535 193.415 95.5384C193.128 95.7599 192.799 95.9938 192.44 95.9482C192.08 95.9027 191.811 95.3912 192.096 95.1675C195.506 92.4932 198.916 89.8189 202.326 87.1446C202.901 86.6934 203.478 86.2412 204.098 85.854Z" fill="#E7EAEE"/>
<path fill-rule="evenodd" clip-rule="evenodd" d="M198.052 181.469C198.156 181.765 197.921 182.064 197.704 182.29C195.457 184.636 193.211 186.982 190.964 189.327C190.69 189.613 190.373 189.918 189.978 189.927C189.583 189.935 189.212 189.425 189.485 189.139C191.866 186.656 194.246 184.173 196.626 181.689C196.827 181.479 197.041 181.261 197.319 181.176C197.597 181.091 197.956 181.195 198.052 181.469Z" fill="#E7EAEE"/>
<path fill-rule="evenodd" clip-rule="evenodd" d="M193.92 176.201C192.011 177.876 190.102 179.55 188.192 181.225C188.653 181.102 188.916 181.872 188.574 182.205C188.232 182.537 187.672 182.48 187.222 182.323C187.09 182.276 186.957 182.221 186.859 182.123C186.478 181.742 186.851 181.108 187.224 180.72C189.097 178.773 191.113 176.964 193.25 175.311C193.555 175.075 194.02 174.849 194.285 175.13C194.575 175.439 194.239 175.921 193.92 176.201Z" fill="#E7EAEE"/>
<path fill-rule="evenodd" clip-rule="evenodd" d="M107.097 190.084C106.845 189.688 107.294 189.227 107.682 188.964C109.88 187.478 111.865 185.679 113.558 183.637C113.79 183.358 114.038 183.059 114.387 182.959C114.736 182.859 115.195 183.082 115.185 183.445C115.18 183.639 115.047 183.804 114.92 183.952C112.982 186.203 110.78 188.226 108.375 189.969C107.984 190.252 107.356 190.49 107.097 190.084V190.084Z" fill="#E7EAEE"/>
<path fill-rule="evenodd" clip-rule="evenodd" d="M105.173 207.166C104.832 207.199 104.604 206.762 104.702 206.434C104.8 206.106 105.093 205.881 105.368 205.677C109.398 202.677 113.041 199.156 116.176 195.23C116.424 194.918 116.984 195.222 117.026 195.618C117.068 196.014 116.8 196.369 116.545 196.675C113.317 200.545 109.613 204.016 105.542 206.986C105.43 207.068 105.311 207.152 105.173 207.166V207.166Z" fill="#E7EAEE"/>
<path fill-rule="evenodd" clip-rule="evenodd" d="M184.733 88.0665C184.382 87.6182 184.856 87.0018 185.295 86.6377C186.418 85.7043 187.541 84.771 188.664 83.8376C189.06 83.5079 189.773 83.2369 189.983 83.7079C190.13 84.0356 189.829 84.3786 189.556 84.612C188.442 85.5655 187.328 86.519 186.214 87.4725C185.792 87.8339 185.267 88.2201 184.733 88.0665L184.733 88.0665Z" fill="#E7EAEE"/>
<path fill-rule="evenodd" clip-rule="evenodd" d="M108.614 181.97C109.485 180.927 110.414 179.932 111.395 178.992C111.643 178.755 111.971 178.503 112.293 178.618C112.421 178.664 112.527 178.768 112.575 178.895C112.698 179.221 112.443 179.556 112.206 179.811C111.419 180.658 110.631 181.505 109.843 182.352C109.626 182.586 109.389 182.831 109.077 182.902C108.765 182.973 108.373 182.772 108.374 182.453C108.374 182.269 108.497 182.111 108.614 181.97Z" fill="#E7EAEE"/>
<path fill-rule="evenodd" clip-rule="evenodd" d="M191.264 200.901C191.134 200.972 190.982 201.039 190.842 200.991C190.495 200.874 190.673 200.349 190.907 200.068C193.229 197.278 195.559 194.479 198.213 192.003C199.464 190.836 200.782 189.745 202.1 188.654C203.53 187.471 204.96 186.288 206.389 185.105C206.586 184.943 206.826 184.769 207.074 184.834C207.632 184.979 207.299 185.833 206.869 186.219C203.068 189.628 198.684 192.454 195.505 196.452C194.22 198.068 193.081 199.919 191.264 200.901Z" fill="#E7EAEE"/>
<path fill-rule="evenodd" clip-rule="evenodd" d="M108.683 65.3059C102.399 68.585 93.6881 65.798 90.4742 59.4801C95.3708 60.8562 99.5335 65.7801 104.493 64.6514C108.289 63.7876 110.528 59.6431 114.202 58.3567C118.156 56.9721 122.33 59.246 126.196 60.8619C130.061 62.4778 135.339 63.093 137.715 59.6423C139.791 56.6276 144.438 57.8734 147.774 59.3796C151.11 60.8857 155.866 61.9407 157.736 58.7942C159.42 55.9613 163.608 56.0593 166.673 57.2708C169.737 58.4823 172.704 60.4717 175.992 60.2414C181.567 59.8508 186.425 53.1931 191.515 55.4999C193.083 56.2106 194.206 57.6796 195.767 58.406C201.039 60.8592 208.227 53.9774 212.48 57.9414C214.796 60.099 218.511 58.8407 221.391 57.5296C224.272 56.2185 228.1 55.1294 230.239 57.4617C228.433 61.6645 228.248 66.3589 228.09 70.9305C226.358 120.907 224.626 170.884 222.894 220.86C221.727 220.674 221.47 219.127 221.497 217.945C222.188 187.246 222.878 156.547 223.569 125.848C224.059 104.095 224.548 82.3423 225.08 60.5907C222.871 58.9818 220.257 62.2361 217.553 62.6319C215.069 62.9955 212.975 60.8637 210.581 60.1064C205.222 58.4108 198.832 63.6873 194.153 60.5716C192.895 59.7335 191.999 58.3771 190.622 57.7534C188.377 56.7368 185.764 58.0237 183.864 59.593C181.964 61.1623 180.203 63.1164 177.811 63.7052C172.472 65.0188 167.618 58.9189 162.165 59.622C159.101 60.0171 156.77 62.451 154.114 64.0286C151.458 65.6062 147.344 65.9739 145.874 63.2572C144.234 60.2273 139.087 60.1691 137.379 63.1612C135.553 66.3599 130.759 65.974 127.439 64.3792C124.119 62.7844 120.822 60.3512 117.17 60.8352C113.974 61.2588 111.541 63.8145 108.683 65.3059Z" fill="#00160A"/>
<path fill-rule="evenodd" clip-rule="evenodd" d="M188.356 90.4808C188.393 90.3977 188.46 90.3327 188.526 90.2701C190.858 88.0524 193.19 85.8347 195.521 83.6169C195.646 83.4983 195.791 83.3716 195.963 83.3771C196.206 83.3849 196.362 83.6691 196.328 83.9097C196.294 84.1502 196.13 84.3493 195.971 84.5333C194.049 86.7599 191.932 88.8174 189.651 90.6744C189.416 90.866 189.154 91.0649 188.85 91.0671C188.547 91.0693 188.234 90.7587 188.356 90.4808Z" fill="#E7EAEE"/>
<path fill-rule="evenodd" clip-rule="evenodd" d="M151.814 119.949C148.775 123.071 145.71 126.19 143.092 129.673C140.77 132.762 138.776 136.163 135.859 138.698C135.727 138.813 135.56 138.933 135.392 138.883C135.069 138.787 135.202 138.301 135.397 138.027C140.189 131.318 145.406 124.914 151.008 118.864C151.424 118.415 151.933 117.929 152.544 117.979C152.902 118.641 152.339 119.41 151.814 119.949Z" fill="#E7EAEE"/>
<path fill-rule="evenodd" clip-rule="evenodd" d="M132.172 123.999C131.891 123.743 132.124 123.284 132.363 122.988C134.188 120.728 136.014 118.468 137.84 116.209C138.032 115.971 138.24 115.722 138.529 115.625C138.819 115.528 139.207 115.662 139.264 115.962C139.307 116.185 139.161 116.396 139.022 116.575C137.152 118.996 135.204 121.357 133.183 123.653C132.919 123.953 132.466 124.269 132.172 123.999H132.172Z" fill="#E7EAEE"/>
<path fill-rule="evenodd" clip-rule="evenodd" d="M153.895 127.813C154.137 128.195 153.727 128.648 153.368 128.925C148.577 132.619 145.672 138.301 141.035 142.186C140.836 142.353 140.58 142.527 140.336 142.436C139.854 142.255 140.184 141.529 140.559 141.176C144.899 137.09 147.991 131.77 152.592 127.981C152.977 127.664 153.628 127.392 153.895 127.813V127.813Z" fill="#E7EAEE"/>
<path fill-rule="evenodd" clip-rule="evenodd" d="M77.2192 44.2247C84.2832 104.547 76.3455 165.744 81.4664 226.263C132.355 224.528 183.293 224.255 234.197 225.444C236.24 225.492 236.936 222.761 236.969 220.717C237.954 160.562 238.939 100.406 239.924 40.2507C195.847 41.3765 151.771 42.5023 107.695 43.6281C98.5665 43.8612 89.365 44.0893 80.3724 42.5028C133.105 40.2564 185.865 38.6448 238.636 37.6686C239.765 37.6477 241.012 37.6689 241.852 38.4241C242.806 39.283 242.856 40.737 242.835 42.0209C241.798 107.075 240.762 172.13 239.725 237.184C239.625 243.424 241.439 244.251 247.173 254.036C252.906 263.82 249.904 277.697 249.904 277.697C249.904 277.697 252.906 278.484 254.607 278.76C257.945 279.301 261.26 277.934 264.6 277.404C267.94 276.874 272.054 277.628 273.403 280.729C245.409 282.076 217.375 282.305 189.35 282.534C142.069 282.92 94.7885 283.306 47.508 283.691C53.535 281.441 59.9696 280.287 66.403 280.303C62.9131 272.562 64.1615 262.903 69.5049 256.304C72.8221 252.207 77.8409 248.543 77.7314 243.273C76.3532 176.934 76.1824 110.57 77.2192 44.2247ZM188.82 263.021C172.784 262.656 156.833 266.62 140.82 265.687C134.258 265.304 127.76 264.102 121.192 263.82C115.684 263.584 110.171 263.998 104.674 264.412C92.7869 265.307 80.9001 266.201 69.0132 267.096C68.448 267.138 67.8032 267.225 67.4874 267.695C67.2438 268.058 67.2809 268.534 67.3274 268.969C67.6617 272.093 67.996 275.218 68.3303 278.342C68.4035 279.026 68.5228 279.793 69.0805 280.196C69.5021 280.5 70.0615 280.507 70.5812 280.502C75.0479 280.46 79.5146 280.417 83.9813 280.375C137.972 279.865 191.963 279.356 245.954 278.846C246.503 278.841 247.107 278.815 247.509 278.442C247.909 278.071 247.982 277.474 248.031 276.93C248.37 273.122 248.708 269.314 249.047 265.507C235.732 266.301 222.355 266.051 209.079 264.758C202.331 264.101 195.598 263.175 188.82 263.021ZM129.697 261.484C148.194 264.532 167.049 260.221 185.795 260.15C206.017 260.075 226.28 264.94 246.318 262.217C246.922 262.135 247.609 261.99 247.903 261.456C248.233 260.854 247.876 260.12 247.525 259.53C245.546 256.206 243.567 252.883 241.588 249.559C240.415 247.589 238.793 245.361 236.503 245.464C185.48 247.763 134.27 244.804 83.3428 248.673C82.7698 248.748 82.2177 248.149 82.3399 247.584C77.8566 253.154 73.0057 258.429 67.8293 263.362C88.4222 265.356 109.284 258.12 129.697 261.484ZM181.29 227.469C175.994 227.572 170.714 228.051 165.43 228.414C147.511 229.644 129.529 229.535 111.571 229.201C101.238 229.008 90.9067 228.741 80.5754 228.474C79.9626 231.8 79.3534 235.258 80.2229 238.526C81.0924 241.795 83.8971 244.811 87.2787 244.757C137.001 243.966 186.723 243.174 236.445 242.383C236.578 239.032 236.711 235.682 236.844 232.331C236.873 231.61 236.861 230.787 236.325 230.304C235.908 229.928 235.3 229.88 234.739 229.851C222.21 229.204 209.682 228.558 197.153 227.911C191.869 227.638 186.58 227.366 181.29 227.469Z" fill="#00160A"/>
</svg>
