<svg width="24" height="24" viewBox="0 0 24 24" fill="none" xmlns="http://www.w3.org/2000/svg">
<path fill-rule="evenodd" clip-rule="evenodd" d="M16.3024 2C17.9104 2 19.2974 2.537 20.3124 3.554C21.3734 4.616 21.9554 6.161 21.9534 7.905L21.9549 14.9014C21.9566 14.9283 21.957 14.9553 21.9558 14.9822L21.9534 16.05C21.9534 19.581 19.6804 21.954 16.2974 21.954H7.65143C4.27143 21.954 2.00043 19.581 2.00043 16.05V7.904C2.00043 4.373 4.27143 2 7.65143 2H16.3024ZM16.579 12.8323C15.991 12.8323 15.301 13.8053 14.69 14.6643C13.852 15.8443 12.985 17.0653 11.679 17.0653C10.796 17.0653 9.98703 16.7253 9.27403 16.4243C8.14003 15.9463 7.62603 15.7933 7.12303 16.2073C6.11612 17.037 5.12121 18.5479 4.66405 19.2914C5.3856 20.0354 6.41059 20.454 7.65143 20.454H16.2974C18.8224 20.454 20.4534 18.726 20.4534 16.05L20.4534 15.251L20.4304 15.2267C19.555 14.3248 18.0433 12.8323 16.579 12.8323ZM16.3024 3.5H7.65143C5.13043 3.5 3.50043 5.229 3.50043 7.904V16.05C3.50043 16.7186 3.60218 17.328 3.79415 17.8661C4.37284 16.9923 5.24682 15.8094 6.17003 15.0493C7.42203 14.0193 8.77003 14.5853 9.85603 15.0423C10.495 15.3113 11.099 15.5653 11.679 15.5653C12.211 15.5653 12.878 14.6253 13.468 13.7963C14.287 12.6403 15.217 11.3323 16.579 11.3323C18.0738 11.3323 19.4276 12.2509 20.4545 13.1624L20.4534 7.904C20.4554 6.541 20.0394 5.403 19.2514 4.614C18.5234 3.885 17.5044 3.5 16.3024 3.5ZM8.85743 6.1895C10.2884 6.1905 11.4524 7.3545 11.4534 8.7845V8.7855C11.4534 10.2165 10.2894 11.3805 8.85743 11.3805C7.42543 11.3805 6.26143 10.2165 6.26143 8.7855C6.26143 7.3535 7.42543 6.1895 8.85743 6.1895ZM8.85643 7.6895C8.25243 7.6895 7.76143 8.1805 7.76143 8.7855C7.76143 9.3895 8.25243 9.8805 8.85743 9.8805C9.46143 9.8805 9.95343 9.3895 9.95343 8.7865C9.95243 8.1815 9.46043 7.6905 8.85643 7.6895Z" fill="#252525"/>
</svg>
