<svg width="25" height="25" viewBox="0 0 25 25" fill="none" xmlns="http://www.w3.org/2000/svg">
<circle cx="12.8623" cy="12.1104" r="12" fill="#333333"/>
<path d="M13.8623 3.71582C13.8623 3.16354 13.4146 2.71582 12.8623 2.71582C12.31 2.71582 11.8623 3.16354 11.8623 3.71582L13.8623 3.71582ZM12.1552 21.2117C12.5457 21.6022 13.1789 21.6022 13.5694 21.2117L19.9334 14.8477C20.3239 14.4572 20.3239 13.824 19.9334 13.4335C19.5428 13.043 18.9097 13.043 18.5192 13.4335L12.8623 19.0904L7.20545 13.4335C6.81493 13.043 6.18176 13.043 5.79124 13.4335C5.40071 13.824 5.40071 14.4572 5.79124 14.8477L12.1552 21.2117ZM11.8623 3.71582L11.8623 20.5046L13.8623 20.5046L13.8623 3.71582L11.8623 3.71582Z" fill="white"/>
</svg>
