<svg width="30" height="28" viewBox="0 0 30 28" fill="none" xmlns="http://www.w3.org/2000/svg">
<path d="M3.00109 0.723851L28.1725 12.7636C28.4266 12.8852 28.6412 13.0762 28.7913 13.3146C28.9415 13.5529 29.0211 13.8289 29.0211 14.1106C29.0211 14.3923 28.9415 14.6683 28.7913 14.9066C28.6412 15.1449 28.4266 15.336 28.1725 15.4576L3.00109 27.4973C2.74294 27.6211 2.45467 27.668 2.1706 27.6325C1.88653 27.5971 1.61865 27.4807 1.39885 27.2973C1.17905 27.1139 1.01661 26.8711 0.930864 26.598C0.845119 26.3249 0.839688 26.0329 0.915218 25.7567L3.43356 16.5244C3.46438 16.4113 3.52784 16.3097 3.616 16.2324C3.70416 16.155 3.81314 16.1054 3.92934 16.0895L16.1268 14.4326C16.1777 14.4254 16.2258 14.4053 16.2666 14.3741C16.3074 14.3429 16.3395 14.3017 16.3598 14.2546L16.3813 14.1793C16.3907 14.1126 16.3773 14.0447 16.3432 13.9865C16.3092 13.9284 16.2565 13.8835 16.1937 13.8591L16.128 13.8412L3.94248 12.1854C3.8265 12.1694 3.71778 12.1196 3.62984 12.0423C3.54191 11.965 3.47864 11.8635 3.44789 11.7505L0.915218 2.46447C0.839688 2.18834 0.845119 1.89632 0.930864 1.62319C1.01661 1.35006 1.17905 1.10733 1.39885 0.923916C1.61865 0.7405 1.88653 0.624127 2.1706 0.588657C2.45467 0.553186 2.74294 0.600114 3.00109 0.723851Z" fill="#333333"/>
</svg>
