<svg width="25" height="25" viewBox="0 0 25 25" fill="none" xmlns="http://www.w3.org/2000/svg">
<g clip-path="url(#clip0_3217_3683)">
<path d="M16.2935 18.7531C15.3647 19.3178 14.3187 19.6684 13.232 19.7759L12.7812 19.8205V20.2735V23.4375V23.9375H13.2812H17.9688C18.0433 23.9375 18.1149 23.9672 18.1676 24.0199C18.2204 24.0726 18.25 24.1442 18.25 24.2188C18.25 24.2934 18.2204 24.3649 18.1676 24.4176C18.1149 24.4704 18.0433 24.5 17.9688 24.5H7.03125C6.95666 24.5 6.88512 24.4704 6.83238 24.4176C6.77963 24.3649 6.75 24.2934 6.75 24.2188C6.75 24.1442 6.77963 24.0726 6.83238 24.0199C6.88512 23.9672 6.95666 23.9375 7.03125 23.9375H11.7188H12.2188V23.4375V20.2735V19.8212L11.7687 19.776C9.96503 19.5947 8.29294 18.7499 7.07687 17.4055C5.86081 16.061 5.18748 14.3128 5.1875 12.5V10.9375C5.1875 10.8629 5.21713 10.7914 5.26988 10.7387C5.32262 10.6859 5.39416 10.6563 5.46875 10.6563C5.54334 10.6563 5.61488 10.6859 5.66762 10.7387C5.72037 10.7914 5.75 10.8629 5.75 10.9375V12.5C5.75 14.2902 6.46116 16.0071 7.72703 17.273C8.9929 18.5389 10.7098 19.25 12.5 19.25C13.7321 19.25 14.8876 18.9201 15.883 18.3421L16.2935 18.7531ZM19.8125 12.5C19.8125 13.0358 19.7546 13.5584 19.6451 14.0615L19.1637 13.58C19.2212 13.2231 19.2501 12.8619 19.25 12.5C19.25 12.5 19.25 12.4999 19.25 12.4999V10.9375C19.25 10.8629 19.2796 10.7914 19.3324 10.7387C19.3851 10.6859 19.4567 10.6563 19.5312 10.6563C19.6058 10.6563 19.6774 10.6859 19.7301 10.7387C19.7829 10.7914 19.8125 10.8629 19.8125 10.9375V12.5ZM16.6875 4.68816V11.1039L8.64177 3.05812C8.98703 2.24384 9.58252 1.55704 10.3457 1.09984C11.1967 0.590076 12.201 0.398842 13.1798 0.560184C14.1586 0.721526 15.0483 1.22497 15.6907 1.9809C16.333 2.73683 16.6862 3.69618 16.6875 4.68816Z" stroke="white"/>
<path d="M8.3124 10.7699L13.9654 16.4242C13.493 16.6007 12.9907 16.6911 12.4827 16.689C11.7494 16.686 11.0298 16.4905 10.3959 16.1221C9.76189 15.7536 9.23577 15.2252 8.87014 14.5896C8.50451 13.954 8.31218 13.2336 8.3124 12.5003V12.5001V10.7699ZM21.3218 20.1587L3.27888 2.11577L3.67803 1.71663L21.7209 19.7595L21.3218 20.1587Z" stroke="white"/>
</g>
<defs>
<clipPath id="clip0_3217_3683">
<rect width="25" height="25" fill="white"/>
</clipPath>
</defs>
</svg>
