<svg width="21" height="22" viewBox="0 0 21 22" fill="none" xmlns="http://www.w3.org/2000/svg">
<path d="M7.29825 20.6507V17.2872C7.29825 16.4286 7.99938 15.7325 8.86427 15.7325H12.0259C12.4412 15.7325 12.8395 15.8963 13.1332 16.1879C13.4269 16.4794 13.5919 16.8749 13.5919 17.2872V20.6507C13.5893 21.0076 13.7303 21.3509 13.9836 21.6042C14.2369 21.8575 14.5816 22 14.9412 22H17.0982C18.1056 22.0026 19.0726 21.6071 19.7859 20.9009C20.4991 20.1946 20.9 19.2357 20.9 18.2356V8.65354C20.9 7.8457 20.5393 7.07942 19.9151 6.56113L12.5774 0.743456C11.301 -0.276582 9.47222 -0.243648 8.23393 0.821676L1.06371 6.56113C0.410014 7.06414 0.0193075 7.8327 0 8.65354V18.2258C0 20.3102 1.70212 22 3.80179 22H5.90952C6.65635 22 7.26329 21.4018 7.2687 20.6604L7.29825 20.6507Z" fill="#0077B6"/>
</svg>
