<svg width="21" height="22" viewBox="0 0 21 22" fill="none" xmlns="http://www.w3.org/2000/svg">
<path d="M17.0982 22H14.9412C14.5816 22 14.2369 21.8575 13.9836 21.6042C13.7303 21.3509 13.5893 21.0076 13.5919 20.6507L17.0982 22ZM17.0982 22C18.1056 22.0026 19.0726 21.6071 19.7859 20.9009C20.4991 20.1946 20.9 19.2357 20.9 18.2356V8.65354C20.9 7.8457 20.5393 7.07942 19.9151 6.56113L17.0982 22ZM14.5919 20.658H14.5919V20.6507V17.2872C14.5919 16.6073 14.3198 15.9567 13.8377 15.4782C13.356 14.9999 12.7041 14.7325 12.0259 14.7325H8.86427C7.45399 14.7325 6.29825 15.8694 6.29825 17.2872V19.9282L6.27396 19.9363L6.26873 20.6531C6.26738 20.8383 6.11375 21 5.90952 21H3.80179C2.24752 21 1 19.7511 1 18.2258V8.66665C1.0152 8.15337 1.26083 7.67124 1.67355 7.35366L1.68114 7.34782L1.68863 7.34183L8.85884 1.60237L8.87267 1.5913L8.8861 1.57974C9.75968 0.828189 11.0523 0.80473 11.9531 1.52465L11.9561 1.52705L19.284 7.33693C19.6758 7.66608 19.9 8.14794 19.9 8.65354V18.2356C19.9 18.9676 19.6066 19.6711 19.0823 20.1903C18.5577 20.7097 17.8449 21.0019 17.1008 21H17.0982H14.9412C14.8458 21 14.7557 20.9621 14.6907 20.8971C14.6259 20.8323 14.5912 20.7461 14.5919 20.658Z" stroke="#252525" stroke-width="2"/>
</svg>
