<svg width="24" height="24" viewBox="0 0 24 24" fill="none" xmlns="http://www.w3.org/2000/svg">
<path d="M8.65757 22.2356V18.6682C8.65757 17.7576 9.40119 17.0194 10.3185 17.0194H13.6717C14.1122 17.0194 14.5347 17.1931 14.8462 17.5023C15.1576 17.8115 15.3326 18.2309 15.3326 18.6682V22.2356C15.3299 22.6142 15.4794 22.9782 15.7481 23.2469C16.0168 23.5156 16.3824 23.6667 16.7638 23.6667H19.0515C20.1199 23.6694 21.1455 23.25 21.902 22.501C22.6585 21.7519 23.0837 20.7348 23.0837 19.6741V9.51135C23.0836 8.65455 22.7011 7.84183 22.039 7.29212L14.2567 1.12186C12.9029 0.0399988 10.9633 0.0749293 9.64995 1.20482L2.04517 7.29212C1.35186 7.82562 0.93747 8.64075 0.916992 9.51135V19.6638C0.916992 21.8745 2.72227 23.6667 4.94919 23.6667H7.18466C7.97676 23.6667 8.62049 23.0323 8.62623 22.2459L8.65757 22.2356Z" fill="#0077B6"/>
</svg>
