<svg width="40" height="40" viewBox="0 0 40 40" fill="none" xmlns="http://www.w3.org/2000/svg">
<path d="M34.142 5.85314C26.3443 -1.94535 13.6559 -1.94535 5.85818 5.85314C0.704811 11.0065 -1.23742 18.5616 0.78929 25.5691C0.843997 25.7587 0.974871 25.9172 1.15059 26.0071C1.32632 26.0964 1.53142 26.1111 1.71739 26.0427L20.8344 19.1607L13.9521 38.2775C13.885 38.4631 13.8983 38.6682 13.988 38.844C14.0777 39.0197 14.236 39.1509 14.4257 39.206C16.2616 39.7369 18.1338 39.9957 19.9918 39.9957C25.2261 39.9957 30.3387 37.9408 34.142 34.1371C37.9195 30.36 40 25.3377 40 19.9952C40 14.6528 37.9195 9.63031 34.142 5.85314ZM22.6928 18.2169C22.7865 17.9569 22.7214 17.6654 22.5255 17.47C22.3295 17.2747 22.039 17.2092 21.7784 17.3033L6.03178 22.9715C5.03466 18.2639 6.47833 13.3143 9.89884 9.89322C15.4684 4.32402 24.5318 4.32325 30.1021 9.89322C35.6721 15.4632 35.6721 24.5269 30.1021 30.0967C26.6435 33.5553 21.7875 34.9765 17.0246 33.9616L22.6928 18.2169ZM33.1321 33.1271C28.5262 37.7322 21.8553 39.5758 15.5597 38.0307L16.5363 35.3181C17.707 35.5826 18.8831 35.7185 20.048 35.7185C24.1552 35.7185 28.1119 34.1072 31.112 31.1069C37.2387 24.9798 37.2387 15.0104 31.112 8.88334C24.9849 2.75625 15.0159 2.75625 8.88877 8.88334C5.08009 12.692 3.50226 18.2245 4.67935 23.4585L1.96464 24.4357C0.419479 18.1396 2.26312 11.4691 6.86825 6.86321C14.1102 -0.377185 25.8915 -0.376606 33.1319 6.86321C36.6394 10.3711 38.5714 15.0342 38.5714 19.995C38.5714 24.9559 36.6396 29.619 33.1321 33.1271Z" fill="#525298" fill-opacity="0.69"/>
<path d="M17.8452 22.1505C17.65 21.9552 17.3594 21.8875 17.0998 21.983L0.60064 27.8751C0.233343 28.0061 0.0394487 28.4073 0.16433 28.7771C0.210725 28.9137 1.33852 32.1691 4.58214 35.4133C7.82595 38.657 11.0812 39.7842 11.2182 39.831C11.2942 39.8567 11.3713 39.8687 11.4473 39.8687C11.7409 39.8687 12.0158 39.6865 12.12 39.3943L18.0128 22.8955C18.1056 22.6359 18.0405 22.3457 17.8452 22.1505ZM11.0263 38.2098C9.9642 37.7314 7.761 36.5721 5.59201 34.4033C3.42303 32.2339 2.26372 30.0303 1.78527 28.9688L3.76113 28.263C4.43986 30.0914 5.47312 31.7317 6.86827 33.1268C8.26361 34.5216 9.90369 35.5558 11.7317 36.2345L11.0263 38.2098ZM12.2117 34.8906C10.5842 34.283 9.12251 33.3605 7.87834 32.117C6.63436 30.873 5.71245 29.4117 5.10505 27.7834L16.1601 23.8352L12.2117 34.8906Z" fill="#525298" fill-opacity="0.69"/>
<path d="M14.9495 7.87324C13.5572 9.26549 13.5572 11.5319 14.9495 12.9242C15.6456 13.6203 16.5602 13.9684 17.4745 13.9684C18.3893 13.9684 19.3039 13.6203 20 12.9242C21.3922 11.5319 21.3922 9.26549 20 7.87324C18.6077 6.48099 16.3419 6.48177 14.9495 7.87324ZM18.9899 11.9141C18.1542 12.749 16.795 12.7498 15.9595 11.9141C15.1242 11.0784 15.1242 9.719 15.9595 8.88331C16.7945 8.04761 18.1536 8.04703 18.9899 8.88331C19.8254 9.719 19.8254 11.0784 18.9899 11.9141Z" fill="#525298" fill-opacity="0.69"/>
<path d="M24.5461 31.1423C25.4999 31.1423 26.3967 30.7706 27.0711 30.0961C27.7456 29.4216 28.1172 28.5252 28.1172 27.571C28.1172 26.6168 27.7458 25.7204 27.0711 25.046C26.3967 24.3715 25.4999 23.9998 24.5461 23.9998C23.5919 23.9998 22.6951 24.3715 22.0206 25.046C21.3462 25.7204 20.9746 26.6168 20.9746 27.571C20.9746 28.5252 21.346 29.4216 22.0206 30.0961C22.6951 30.7706 23.5919 31.1423 24.5461 31.1423ZM23.0307 26.056C23.4357 25.6514 23.9735 25.4283 24.5461 25.4283C25.1185 25.4283 25.6563 25.6516 26.0611 26.056C26.4657 26.4606 26.6886 26.9984 26.6886 27.571C26.6886 28.1438 26.4657 28.6814 26.0611 29.086C25.2509 29.8953 23.8401 29.8953 23.0307 29.086C22.6261 28.6814 22.4032 28.1436 22.4032 27.571C22.4032 26.9984 22.6261 26.4606 23.0307 26.056Z" fill="#525298" fill-opacity="0.69"/>
<path d="M26.0613 19.995C26.7578 20.6911 27.672 21.0393 28.5867 21.0393C29.5013 21.0393 30.4161 20.6911 31.1122 19.995C32.5044 18.6028 32.5044 16.3363 31.1122 14.9441C29.7195 13.5518 27.4539 13.5518 26.0613 14.9441C24.669 16.3365 24.669 18.6028 26.0613 19.995ZM27.0713 15.9542C27.907 15.1192 29.2664 15.1198 30.1021 15.9542C30.9374 16.7899 30.9374 18.1492 30.1021 18.9849C29.2664 19.8185 27.907 19.8193 27.0713 18.9849C26.236 18.1494 26.236 16.7899 27.0713 15.9542Z" fill="#525298" fill-opacity="0.69"/>
<path d="M11.763 13.0873C11.0089 13.1627 9.56479 13.8142 9.49462 15.7372C9.48031 16.1314 9.78826 16.4628 10.1824 16.4767C10.1915 16.4774 10.2002 16.4774 10.2089 16.4774C10.5915 16.4774 10.9081 16.1747 10.9224 15.7889C10.9615 14.7175 11.6889 14.5375 11.9136 14.5082C12.3017 14.4643 12.584 14.1169 12.5449 13.727C12.5055 13.3342 12.1546 13.0531 11.763 13.0873Z" fill="#525298" fill-opacity="0.69"/>
<path d="M24.7668 14.1197C24.9286 14.1197 25.0911 14.0652 25.2247 13.953C25.5275 13.6998 25.5677 13.25 25.3144 12.9472C24.6266 12.1255 25.0465 11.5053 25.194 11.3325C25.4534 11.041 25.4304 10.5938 25.1406 10.3301C24.8495 10.0638 24.3968 10.086 24.1317 10.3775C23.6218 10.9377 22.9837 12.3878 24.2185 13.8639C24.3597 14.0325 24.5626 14.1197 24.7668 14.1197Z" fill="#525298" fill-opacity="0.69"/>
<path d="M30.7497 23.9586C31.0091 23.6663 30.9861 23.2191 30.6963 22.9555C30.4052 22.6912 29.9528 22.7127 29.6874 23.0036C29.1775 23.5644 28.5393 25.0146 29.7742 26.4906C29.9155 26.6593 30.1185 26.7465 30.3224 26.7465C30.4842 26.7465 30.6468 26.692 30.7804 26.5799C31.0831 26.3266 31.1233 25.8768 30.8701 25.5741C30.1819 24.7515 30.6026 24.1308 30.7497 23.9586Z" fill="#525298" fill-opacity="0.69"/>
<path d="M8.87665 30.0453C9.14768 30.191 9.56543 30.3215 10.0425 30.3215C10.7408 30.3215 11.5656 30.041 12.2392 29.117C12.4715 28.7982 12.4013 28.3518 12.0826 28.1189C11.763 27.8873 11.3174 27.9576 11.0847 28.2758C10.4527 29.1423 9.74927 28.8848 9.54629 28.7837C9.20026 28.6002 8.77168 28.7328 8.58648 29.0781C8.39955 29.4251 8.52926 29.8583 8.87665 30.0453Z" fill="#525298" fill-opacity="0.69"/>
</svg>
