<svg width="299" height="186" viewBox="0 0 299 186" fill="none" xmlns="http://www.w3.org/2000/svg">
<g clip-path="url(#clip0_2710_2506)">
<path d="M248.245 122.158C248.245 65.1051 201.918 18.8525 144.772 18.8525C87.6264 18.8525 41.3036 65.1051 41.3036 122.158C41.3036 146.108 49.47 168.156 63.1753 185.678H226.378C240.079 168.156 248.245 146.108 248.245 122.158Z" fill="#DEE9FF"/>
<path d="M84.9653 21.9802H47.6799C47.0014 21.9802 46.4528 21.4325 46.4528 20.7551V10.315C46.4528 9.63755 47.0014 9.08984 47.6799 9.08984H84.9653C85.6438 9.08984 86.1924 9.63755 86.1924 10.315V20.7551C86.1972 21.4277 85.6438 21.9802 84.9653 21.9802Z" fill="#5589EE"/>
<path d="M52.3478 13.5098H77.8383" stroke="#FDFCFF" stroke-width="1.9364" stroke-miterlimit="10" stroke-linecap="round" stroke-linejoin="round"/>
<path d="M52.3478 16.9639H61.775" stroke="#FDFCFF" stroke-width="1.9364" stroke-miterlimit="10" stroke-linecap="round" stroke-linejoin="round"/>
<path d="M79.8642 20.5771V25.0837C79.8642 25.2183 79.7102 25.2903 79.6044 25.2086L73.7671 20.5771H79.8642Z" fill="#5589EE"/>
<path d="M52.5739 141.241H27.1123C24.6388 141.241 22.6321 139.238 22.6321 136.768V113.135C22.6321 111.261 24.1528 109.748 26.0247 109.748H52.5691C54.4459 109.748 55.9618 111.266 55.9618 113.135V137.849C55.9714 139.723 54.4507 141.241 52.5739 141.241Z" fill="#0077B6"/>
<path d="M44.4171 121.822C43.1611 120.592 41.1448 120.616 39.9176 121.87L39.1092 122.696L38.2767 121.875C37.0255 120.645 35.0091 120.659 33.7772 121.908C32.5453 123.157 32.5597 125.17 33.8109 126.4L36.9052 129.446C36.91 129.451 36.9148 129.461 36.9244 129.466C37.4201 129.951 38.0312 130.239 38.6665 130.335C39.6482 130.484 40.6828 130.177 41.4239 129.418L44.47 126.314C45.6972 125.06 45.6731 123.052 44.4171 121.822Z" fill="white"/>
<path d="M263.048 121.327H234.559C231.792 121.327 229.55 119.088 229.55 116.325V89.8815C229.55 87.7868 231.248 86.0908 233.346 86.0908H263.048C265.146 86.0908 266.845 87.7868 266.845 89.8815V117.536C266.845 119.626 265.146 121.327 263.048 121.327Z" fill="#5589EE"/>
<path d="M246.113 109.046C248.746 109.09 251.412 109.128 253.832 108.96C254.597 108.907 255.261 107.691 254.328 107.307C254.718 107.105 255.117 106.913 255.286 106.476C255.449 106.063 255.252 105.496 254.819 105.39C255.733 105.616 256.094 104.17 255.382 103.704C255.757 103.382 256.075 102.959 256.152 102.469C256.234 101.979 256.031 101.431 255.598 101.196C255.314 101.042 254.973 101.033 254.65 101.033C253.553 101.023 252.461 101.018 251.364 101.008C251.662 99.2981 251.749 97.434 250.877 95.9302C250.618 95.4785 249.91 94.9356 249.352 95.2816C248.827 95.6083 248.972 96.4202 249.001 96.9295C249.111 99.0579 247.899 101.196 246.017 102.2C246.017 102.2 246.142 106.731 246.113 109.046Z" fill="#FAFAFA"/>
<path d="M245.161 102.2H241.181V109.037H245.161V102.2Z" fill="#FAFAFA"/>
<path d="M235.93 14.1874C237.804 14.1874 239.323 12.6709 239.323 10.8002C239.323 8.92956 237.804 7.41309 235.93 7.41309C234.057 7.41309 232.538 8.92956 232.538 10.8002C232.538 12.6709 234.057 14.1874 235.93 14.1874Z" stroke="#FDFCFF" stroke-width="1.7845" stroke-miterlimit="10"/>
<path d="M4.37921 159.504C6.25292 159.504 7.77185 157.987 7.77185 156.117C7.77185 154.246 6.25292 152.729 4.37921 152.729C2.50551 152.729 0.986572 154.246 0.986572 156.117C0.986572 157.987 2.50551 159.504 4.37921 159.504Z" stroke="#FDFCFF" stroke-width="1.7845" stroke-miterlimit="10"/>
<path d="M298.567 92.6494C298.567 93.9081 297.547 94.9267 296.286 94.9267C295.025 94.9267 294.005 93.9081 294.005 92.6494C294.005 91.3906 295.025 90.3721 296.286 90.3721C297.547 90.3721 298.567 91.3906 298.567 92.6494Z" stroke="#FDFCFF" stroke-width="1.7845" stroke-miterlimit="10"/>
<path d="M13.7487 28.4043C13.7487 28.4043 12.6033 30.3213 14.1721 31.4647C15.7458 32.6082 17.1124 30.4702 18.8545 31.7914C20.6013 33.1127 19.148 34.7222 19.148 34.7222" stroke="#FDFCFF" stroke-width="1.7845" stroke-miterlimit="10"/>
<path d="M283.505 133.387C283.505 133.387 282.629 136.029 284.852 136.995C287.075 137.961 288.153 134.996 290.636 136.125C293.115 137.259 291.786 139.609 291.786 139.609" stroke="#FDFCFF" stroke-width="1.7845" stroke-miterlimit="10"/>
<path d="M19.326 88.6953C19.326 90.3192 18.0075 91.6308 16.3857 91.6308C14.7592 91.6308 13.4454 90.3144 13.4454 88.6953C13.4454 87.0714 14.764 85.7598 16.3857 85.7598C18.0123 85.7598 19.326 87.0714 19.326 88.6953Z" fill="#5589EE"/>
<path d="M270.213 42.8076C270.213 44.4315 268.895 45.7431 267.273 45.7431C265.646 45.7431 264.333 44.4267 264.333 42.8076C264.333 41.1837 265.651 39.8721 267.273 39.8721C268.899 39.8721 270.213 41.1837 270.213 42.8076Z" fill="#5589EE"/>
<path d="M264.944 158.46C264.944 159.7 263.938 160.704 262.696 160.704C261.455 160.704 260.449 159.7 260.449 158.46C260.449 157.221 261.455 156.217 262.696 156.217C263.938 156.217 264.944 157.221 264.944 158.46Z" fill="#0077B6"/>
<path d="M126.928 2.24368C126.928 3.48324 125.922 4.48737 124.681 4.48737C123.439 4.48737 122.433 3.48324 122.433 2.24368C122.433 1.00413 123.444 0 124.681 0C125.918 0 126.928 1.00413 126.928 2.24368Z" fill="#0077B6"/>
<path d="M263.36 71.6582H282.85" stroke="#FDFCFF" stroke-width="1.9364" stroke-miterlimit="10" stroke-linecap="round" stroke-linejoin="round"/>
<path d="M0 66.335H34.4028" stroke="#FDFCFF" stroke-width="1.9364" stroke-miterlimit="10"/>
<path d="M143.939 2.24414H164.627" stroke="#FDFCFF" stroke-width="1.9364" stroke-miterlimit="10" stroke-linecap="round" stroke-linejoin="round"/>
<path d="M103.059 39.1326C103.059 39.1326 101.697 48.9673 90.0613 55.1074C77.6505 61.6559 86.4714 81.3494 108.064 82.0172C131.514 82.7427 144.324 61.6511 126.774 35.2266L103.059 39.1326Z" fill="#3A1616"/>
<path d="M110.321 69.7701L110.446 52.7959H120.831L121.052 69.9671L110.321 69.7701Z" fill="#D6906E"/>
<path d="M109.127 57.7688C108.579 56.265 112.727 64.7305 117.034 64.178C120.73 63.7071 121.351 57.0674 121.351 57.0674C121.351 57.0674 119.642 59.5945 115.74 59.5993C111.394 59.6041 109.127 57.7688 109.127 57.7688Z" fill="#3A1616"/>
<path d="M102.939 43.4324C104.262 50.9994 108.666 57.3701 115.735 57.3701C122.799 57.3701 127.66 51.0763 128.531 43.4324C129.517 34.7603 122.804 29.6436 115.735 29.6436C108.666 29.6436 101.582 35.6587 102.939 43.4324Z" fill="#3A1616"/>
<path d="M104.676 47.3768C104.676 47.3768 103.757 45.9162 101.856 46.6321C99.9554 47.3527 100.817 51.9602 103.666 52.5464C103.666 52.5464 104.686 52.7674 105.489 52.0707C105.485 52.0707 104.782 48.6692 104.676 47.3768Z" fill="#D6906E"/>
<path d="M102.232 48.2611C102.232 48.2611 103.824 47.7326 104.95 50.0724" stroke="#161311" stroke-width="1.0236" stroke-miterlimit="10" stroke-linecap="round" stroke-linejoin="round"/>
<path d="M126.495 47.3768C126.495 47.3768 127.414 45.9162 129.315 46.6321C131.216 47.3527 130.354 51.9602 127.505 52.5464C127.505 52.5464 126.485 52.7674 125.682 52.0707C125.682 52.0707 126.384 48.6692 126.495 47.3768Z" fill="#D6906E"/>
<path d="M128.939 48.2611C128.939 48.2611 127.347 47.7326 126.221 50.0724" stroke="#161311" stroke-width="1.0236" stroke-miterlimit="10" stroke-linecap="round" stroke-linejoin="round"/>
<path d="M104.493 43.408C104.493 46.3579 104.797 51.9119 106.717 55.5777C108.516 59.0177 111.721 60.7665 115.624 60.7713C119.469 60.7713 122.992 58.1577 124.536 55.2029C126.866 50.7348 126.755 43.4608 126.755 43.4608C126.755 43.4608 126.755 32.915 115.744 32.915C104.152 32.915 104.493 43.408 104.493 43.408Z" fill="#D6906E"/>
<path d="M113.146 42.8992L107.106 44.4558C107.106 44.4558 107.381 42.7646 109.849 42.1497C112.323 41.5395 113.146 42.8992 113.146 42.8992Z" fill="#1A1A1A"/>
<path d="M116.986 42.8992L123.025 44.4558C123.025 44.4558 122.751 42.7646 120.282 42.1497C117.809 41.5395 116.986 42.8992 116.986 42.8992Z" fill="#1A1A1A"/>
<path d="M114.719 47.8906L114.445 50.043H116.009" stroke="#161311" stroke-width="1.0236" stroke-miterlimit="10" stroke-linecap="round" stroke-linejoin="round"/>
<path d="M119.869 51.874H111.072C111.072 51.874 111.322 55.1026 115.446 55.1122C119.248 55.117 119.869 51.874 119.869 51.874Z" fill="white"/>
<path d="M111.895 46.3584C111.895 46.3584 110.225 45.508 108.815 46.3584" stroke="#161311" stroke-width="1.0236" stroke-miterlimit="10" stroke-linecap="round" stroke-linejoin="round"/>
<path d="M121.5 46.3584C121.5 46.3584 119.83 45.508 118.42 46.3584" stroke="#161311" stroke-width="1.0236" stroke-miterlimit="10" stroke-linecap="round" stroke-linejoin="round"/>
<path d="M126.495 47.3769C126.495 47.3769 123.564 41.578 125.61 36.418C125.61 36.418 127.65 36.4468 127.578 44.4991L126.495 47.3769Z" fill="#3A1616"/>
<path d="M104.676 47.3769C104.676 47.3769 107.597 41.2128 105.562 36.418C105.562 36.418 103.521 36.4468 103.593 44.4991L104.676 47.3769Z" fill="#3A1616"/>
<path d="M128.622 40.9009C128.622 40.9009 112.742 39.964 108.141 33.5356C108.141 33.5356 109.642 29.5383 116.716 30.6433C123.795 31.7532 128.622 40.9009 128.622 40.9009Z" fill="#3A1616"/>
<path d="M114.652 31.8877C114.652 31.8877 110.157 41.2035 103.738 40.8913C103.733 40.8913 107.26 31.979 114.652 31.8877Z" fill="#3A1616"/>
<path d="M105.461 176.131C105.461 176.131 110.172 152.796 112.939 146.435C113.189 145.859 114.026 145.935 114.195 146.541C114.864 148.967 115.74 156.111 115.35 177.14L115.359 185.736H133.853L136.75 165.048C136.899 163.462 142.837 137.532 127.915 117.541H98.964C98.964 117.541 87.2606 137.643 85.6437 162.227C85.2828 167.7 85.1576 176.055 84.4117 185.736H103.406L105.461 176.131Z" fill="#263238"/>
<path d="M104.95 142.663L114.455 146.54" stroke="#0E1315" stroke-width="1.9923" stroke-miterlimit="10"/>
<path d="M91.3221 72.7588C91.3221 72.7588 85.2587 73.6188 80.8218 88.7817L92.7706 95.6184L99.8206 85.9374L91.3221 72.7588Z" fill="#0077B6"/>
<path d="M92.7658 95.6186C92.7658 95.6186 84.8303 108.038 82.9488 110.272C80.9998 112.583 78.0499 113.727 75.4898 112.127C73.1799 110.685 72.3281 107.745 73.5023 105.295L81.7409 89.2383L92.7658 95.6186Z" fill="#D6906E"/>
<path d="M73.6082 72.7783L83.1076 103.642L72.9778 108.043L66.8855 73.2396L73.6082 72.7783Z" fill="#D6906E"/>
<path d="M72.9538 74.3161L74.436 72.8892C75.5235 71.8418 76.1972 70.4389 76.332 68.9399L76.7122 64.7552C76.7122 64.7552 76.9528 62.55 72.5592 63.1025C68.1656 63.655 67.9105 63.6839 67.9587 64.9859C67.9587 64.9859 68.7623 66.7923 71.5919 67.1575L72.9538 74.3161Z" fill="#D6906E"/>
<path d="M67.3956 74.9545C67.3956 74.9545 63.0598 72.5571 62.8576 64.9708C62.8336 64.0964 63.2667 63.2701 63.9982 62.7896C65.1242 62.0497 68.3677 60.1904 70.1049 61.3819L73.1511 65.3071L72.9538 74.3155L67.3956 74.9545Z" fill="#D6906E"/>
<path d="M73.7863 63.9814L76.2069 51.7636C76.3512 51.0381 75.8844 50.3271 75.1578 50.1733C74.4311 50.0196 73.7141 50.476 73.5505 51.1967L71.4138 60.4357L70.3888 60.6327L66.8422 51.2832C66.592 50.625 65.8461 50.3079 65.2012 50.5865C64.6334 50.8267 64.335 51.4465 64.4938 52.0423L67.9779 64.9855L73.7863 63.9814Z" fill="#D6906E"/>
<path d="M73.9788 63.016C73.9788 63.016 68.0164 62.4491 67.9683 64.9858C67.9683 64.9858 67.8384 66.8836 71.6016 67.1575C71.6016 67.1575 69.2532 67.8157 69.1569 70.4341" stroke="#BF704F" stroke-width="0.9962" stroke-miterlimit="10"/>
<path d="M79.8257 92.9766L82.3473 101.173" stroke="#BF704F" stroke-width="0.9962" stroke-miterlimit="10"/>
<path d="M132.048 90.4677C132.048 90.4677 141.485 123.604 145.099 151.374L151.182 150.221C151.182 150.221 150.253 109.532 144.122 84.3564L132.048 90.4677Z" fill="#D6906E"/>
<path d="M151.129 148.832C151.129 148.832 160.282 162.323 149.295 168.386C148.574 168.785 147.659 168.622 147.125 167.992L147.053 167.911C146.461 167.214 146.528 166.2 147.168 165.552C148.728 163.971 150.826 160.699 147.481 156.428C147.481 156.428 145.725 156.875 146.018 160.353C146.095 161.247 145.349 162.001 144.454 161.919C143.843 161.862 143.343 161.425 143.194 160.829C142.616 158.537 141.663 152.849 145.34 149.793L151.129 148.832Z" fill="#D6906E"/>
<path d="M137.862 75.5215C137.862 75.5215 146.543 78.3657 148.068 92.0248L133.959 97.3674L130.783 88.7049L137.862 75.5215Z" fill="#DD4C88"/>
<path d="M129.527 72.3602L138.001 75.56L127.919 113.626H98.964L91.3221 72.759L101.361 70.4336L129.527 72.3602Z" fill="#0077B6"/>
<path d="M127.915 113.626H98.9641V117.542H127.915V113.626Z" fill="#1A1A1A"/>
<path d="M95.018 92.5294L92.7659 82.3535" stroke="#01537E" stroke-width="1.9923" stroke-miterlimit="10"/>
<path d="M132.953 94.6198L135.994 83.2812" stroke="#01537E" stroke-width="1.9923" stroke-miterlimit="10"/>
<path d="M118.386 67.9258L129.531 72.3603C129.531 72.3603 128.237 76.742 115.157 76.742C103.762 76.742 101.36 70.4337 101.36 70.4337L112.183 67.9258H118.386Z" fill="#D6906E"/>
<path d="M191.398 124.119L203.515 186.001H180.026L171.018 145.105L168.944 144.98L168.915 186.001H145.489L146.687 124.119H191.398Z" fill="#263238"/>
<path d="M164.979 144.691H178.352" stroke="#07090B" stroke-width="1.9923" stroke-miterlimit="10"/>
<path d="M202.192 80.686L224.299 75.0407C228.702 73.806 231.306 69.2802 230.156 64.86C228.972 60.3054 224.266 57.6197 219.732 58.9025L197.601 65.1771L202.192 80.686Z" fill="#E8ABA2"/>
<path d="M204.627 61.1602L183.039 63.9948L189.213 85.9944L209.834 81.7088L204.627 61.1602Z" fill="#5589EE"/>
<path d="M214.939 33.7659C215.493 30.3067 214.15 25.8866 214.15 25.8866L214.641 18.1226C214.737 17.3875 214.261 16.6957 213.544 16.5227C212.764 16.3353 211.98 16.8062 211.783 17.5797L211.133 22.5907L210.445 22.5763L209.511 14.5192C209.439 13.5391 208.534 12.8377 207.562 13.0106C206.754 13.1548 206.176 13.8658 206.2 14.6826L206.816 23.4027L206.109 23.542L203.635 14.8508C203.371 13.8418 202.312 13.2605 201.316 13.5728C200.402 13.861 199.858 14.8027 200.079 15.7396L202.634 25.6896L201.739 25.9346L198.385 18.9442C197.995 18.137 196.994 17.8391 196.225 18.3052C195.609 18.6799 195.339 19.4342 195.58 20.1116L198.982 29.4083L196.167 29.3362C194.848 29.341 193.823 30.4797 193.953 31.7865C194.045 32.7089 194.704 33.4825 195.604 33.7179L199.309 34.6115C199.309 34.6115 201.812 38.0803 205.965 39.5841C205.96 39.5889 214.516 36.4036 214.939 33.7659Z" fill="#E8ABA2"/>
<path d="M198.977 29.408C198.977 29.408 204.352 29.0909 207.543 32.1177" stroke="#D8857D" stroke-width="0.9962" stroke-miterlimit="10"/>
<path d="M229.862 63.9473L214.939 33.7656L205.517 37.7197L215.007 70.9282L229.862 63.9473Z" fill="#E8ABA2"/>
<path d="M212.182 61.041L213.645 66.1578" stroke="#D8857D" stroke-width="0.9962" stroke-miterlimit="10"/>
<path d="M163.742 62.7988L146.066 66.4502L146.687 124.118H191.398L192.798 64.8696L175.979 63.4186L163.742 62.7988Z" fill="#5589EE"/>
<path d="M192.303 85.3698V77.9229" stroke="#0077B6" stroke-width="1.9923" stroke-miterlimit="10"/>
<path d="M158.039 90.9486C155.017 90.9486 152.563 88.5032 152.563 85.4812V80.0137H163.511V85.4812C163.511 88.4984 161.061 90.9486 158.039 90.9486Z" fill="#0077B6"/>
<path d="M133.251 81.1045L120.504 104.152C118.271 108.187 119.686 113.261 123.685 115.562C127.631 117.839 132.674 116.585 135.099 112.727L148.333 91.6455L133.251 81.1045Z" fill="#E8ABA2"/>
<path d="M129.3 84.3138L147.587 96.0319L150.522 82.0365C153.617 77.0494 157.553 71.0295 152.601 67.8585C147.587 64.6491 140.917 66.1145 137.717 71.1255L129.3 84.3138Z" fill="#5589EE"/>
<path d="M146.384 95.258V79.5811" stroke="#0077B6" stroke-width="1.9923" stroke-miterlimit="10"/>
<path d="M126.774 116.624L160.238 115.706L162.544 104.91L124.714 100.135L126.774 116.624Z" fill="#E8ABA2"/>
<path d="M141.668 102.263L132.953 101.173" stroke="#D8857D" stroke-width="0.9962" stroke-miterlimit="10"/>
<path d="M160.32 105.352C160.32 105.352 164.603 99.5725 169.642 105.328L167.64 109.302L160.32 105.352Z" fill="#E8ABA2"/>
<path d="M165.359 99.2266L164.035 107.313L174.247 108.446L175.869 100.678C176.042 99.8416 175.464 99.0345 174.613 98.9288L166.98 98.0111C166.201 97.915 165.489 98.4531 165.359 99.2266Z" fill="#1A1A1A"/>
<path d="M162.476 104.66L174.56 104.958C175.96 104.992 177.077 106.135 177.077 107.533C177.077 108.523 176.509 109.426 175.618 109.854L174.974 110.166C174.974 110.166 176.206 119.299 168.949 120.385C161.687 121.471 157.621 115.744 157.621 115.744L162.476 104.66Z" fill="#E8ABA2"/>
<path d="M176.648 63.4422L176.48 45.2285H163.236L162.938 62.9666L176.648 63.4422Z" fill="#E8ABA2"/>
<path d="M162.144 50.5476C161.456 48.9765 166.745 59.2581 172.144 58.6815C176.773 58.1867 176.966 49.8125 176.966 49.8125C176.966 49.8125 175.325 52.455 170.436 52.4646C164.983 52.4694 162.144 50.5476 162.144 50.5476Z" fill="#3A1616"/>
<path d="M183.535 35.1831C182.115 43.3027 177.389 50.1346 169.81 50.1346C162.231 50.1346 157.019 43.3795 156.085 35.1831C155.027 25.8817 162.231 19.7031 169.81 19.7031C177.389 19.7031 184.988 26.8474 183.535 35.1831Z" fill="#2F1118"/>
<path d="M181.672 39.416C181.672 39.416 182.659 37.8449 184.699 38.6184C186.74 39.3919 185.816 44.3309 182.76 44.9651C182.76 44.9651 181.663 45.2053 180.806 44.4558C180.801 44.4558 181.552 40.8044 181.672 39.416Z" fill="#E8ABA2"/>
<path d="M184.295 40.3626C184.295 40.3626 182.587 39.7956 181.374 42.3036" stroke="#161311" stroke-width="1.0982" stroke-miterlimit="10" stroke-linecap="round" stroke-linejoin="round"/>
<path d="M158.261 39.416C158.261 39.416 157.274 37.8449 155.234 38.6184C153.193 39.3919 154.117 44.3309 157.173 44.9651C157.173 44.9651 158.27 45.2053 159.127 44.4558C159.132 44.4558 158.381 40.8044 158.261 39.416Z" fill="#E8ABA2"/>
<path d="M155.638 40.3626C155.638 40.3626 157.346 39.7956 158.559 42.3036" stroke="#161311" stroke-width="1.0982" stroke-miterlimit="10" stroke-linecap="round" stroke-linejoin="round"/>
<path d="M181.865 35.1592C181.865 38.3253 181.538 44.9555 179.483 48.8856C177.553 52.5802 174.358 54.5644 170.171 54.6845C166.831 54.7806 162.019 51.6529 160.364 48.482C157.866 43.6871 157.982 35.2169 157.982 35.2169C157.982 35.2169 157.982 23.9023 169.791 23.9023C182.235 23.9023 181.865 35.1592 181.865 35.1592Z" fill="#E8ABA2"/>
<path d="M165.797 38.992C165.797 39.4964 165.388 39.9048 164.882 39.9048C164.377 39.9048 163.968 39.4964 163.968 38.992C163.968 38.4875 164.377 38.0791 164.882 38.0791C165.388 38.0839 165.797 38.4923 165.797 38.992Z" fill="#1A1A1A"/>
<path d="M175.229 38.992C175.229 39.4964 174.82 39.9048 174.314 39.9048C173.809 39.9048 173.4 39.4964 173.4 38.992C173.4 38.4875 173.809 38.0791 174.314 38.0791C174.82 38.0839 175.229 38.4923 175.229 38.992Z" fill="#1A1A1A"/>
<path d="M167.356 35.2833L160.878 36.9553C160.878 36.9553 161.172 35.1392 163.824 34.481C166.47 33.8228 167.356 35.2833 167.356 35.2833Z" fill="#1A1A1A"/>
<path d="M171.47 35.2833L177.948 36.9553C177.948 36.9553 177.654 35.1392 175.002 34.481C172.356 33.8228 171.47 35.2833 171.47 35.2833Z" fill="#1A1A1A"/>
<path d="M168.746 41.3086V43.6195H170.426" stroke="#161311" stroke-width="1.0982" stroke-miterlimit="10" stroke-linecap="round" stroke-linejoin="round"/>
<path d="M174.882 45.5645H164.964C164.964 45.5645 165.238 48.1685 169.666 48.1733C173.742 48.1781 174.882 45.5645 174.882 45.5645Z" fill="white"/>
<path d="M158.261 39.4157C158.261 39.4157 162.683 32.6414 159.209 27.6592C159.209 27.6592 157.019 27.6928 157.096 36.3264L158.261 39.4157Z" fill="#2F1118"/>
<path d="M181.667 39.4157C181.667 39.4157 177.245 32.6414 180.719 27.6592C180.719 27.6592 182.909 27.6928 182.832 36.3264L181.667 39.4157Z" fill="#2F1118"/>
<path d="M158.03 27.3323C158.03 27.3323 163.742 33.7799 175.503 32.5163C186.008 31.3873 186.918 24.0316 184.415 21.1249C180.84 16.9691 172.957 18.5161 168.742 23.1524L158.03 27.3323Z" fill="#2F1118"/>
<path d="M162.938 62.9668L169.926 71.9319L176.648 63.4424L162.938 62.9668Z" fill="#E8ABA2"/>
<path d="M162.938 61.6982L158.819 63.817L163.477 73.1377L168.131 69.6304L162.938 61.6982Z" fill="#0077B6"/>
<path d="M176.682 61.6982L181.321 63.8795L176.417 73.1377L171.797 69.5295L176.682 61.6982Z" fill="#0077B6"/>
</g>
<defs>
<clipPath id="clip0_2710_2506">
<rect width="299" height="186" fill="white"/>
</clipPath>
</defs>
</svg>
