<svg width="238" height="231" viewBox="0 0 238 231" fill="none" xmlns="http://www.w3.org/2000/svg">
<path d="M102.731 230.08C152.602 230.08 193.031 227.561 193.031 224.455C193.031 221.348 152.602 218.829 102.731 218.829C52.8603 218.829 12.4318 221.348 12.4318 224.455C12.4318 227.561 52.8603 230.08 102.731 230.08Z" fill="#0077B6"/>
<path opacity="0.8" d="M102.731 230.08C152.602 230.08 193.031 227.561 193.031 224.455C193.031 221.348 152.602 218.829 102.731 218.829C52.8603 218.829 12.4318 221.348 12.4318 224.455C12.4318 227.561 52.8603 230.08 102.731 230.08Z" fill="white"/>
<path d="M170.588 10.541H79.7917C73.5231 10.541 68.4415 15.6227 68.4415 21.8913V213.578C68.4415 219.846 73.5231 224.928 79.7917 224.928H170.588C176.856 224.928 181.938 219.846 181.938 213.578V21.8913C181.938 15.6227 176.856 10.541 170.588 10.541Z" fill="#263238"/>
<path d="M176.891 34.083H73.4826V201.387H176.891V34.083Z" fill="white" stroke="#263238" stroke-width="1.33739" stroke-miterlimit="10"/>
<path d="M141.039 101.829C149.792 93.0754 149.792 78.8835 141.039 70.1302C132.286 61.3769 118.094 61.3769 109.341 70.1302C100.587 78.8835 100.587 93.0754 109.341 101.829C118.094 110.582 132.286 110.582 141.039 101.829Z" fill="#0077B6"/>
<path d="M154.617 190.865H95.7687C95.6363 190.866 95.505 190.84 95.3824 190.79C95.2598 190.74 95.1484 190.666 95.0545 190.573C94.9605 190.479 94.886 190.368 94.8351 190.246C94.7843 190.124 94.7581 189.993 94.7581 189.86C94.7573 189.727 94.7829 189.596 94.8335 189.473C94.884 189.35 94.9584 189.238 95.0524 189.144C95.1464 189.05 95.2581 188.975 95.3811 188.925C95.504 188.874 95.6358 188.849 95.7687 188.85H154.617C154.75 188.85 154.881 188.876 155.003 188.927C155.125 188.978 155.236 189.052 155.33 189.146C155.423 189.24 155.497 189.351 155.547 189.474C155.597 189.596 155.623 189.728 155.622 189.86C155.622 190.127 155.516 190.382 155.328 190.571C155.139 190.759 154.884 190.865 154.617 190.865Z" fill="#0077B6"/>
<path d="M156.533 120.994H93.8464C92.5527 120.994 91.5039 122.043 91.5039 123.337V130.726C91.5039 132.02 92.5527 133.069 93.8464 133.069H156.533C157.826 133.069 158.875 132.02 158.875 130.726V123.337C158.875 122.043 157.826 120.994 156.533 120.994Z" fill="#0077B6"/>
<path d="M156.533 143.578H93.8464C92.5527 143.578 91.5039 144.627 91.5039 145.921V153.31C91.5039 154.604 92.5527 155.653 93.8464 155.653H156.533C157.826 155.653 158.875 154.604 158.875 153.31V145.921C158.875 144.627 157.826 143.578 156.533 143.578Z" fill="#0077B6"/>
<path d="M136.35 97.161L129.755 93.3639V90.227C130.71 89.0716 131.402 87.7221 131.782 86.2722C132.009 86.3528 132.248 86.3943 132.489 86.3949C133.307 86.3949 133.827 83.8596 133.914 82.0487C134.867 80.0334 133.57 78.8534 133.57 78.8534C133.57 78.8534 134.107 78.3159 134.464 76.1604C134.82 74.0048 133.208 74.9044 131.952 72.93C130.696 70.9555 129.796 68.8058 125.672 68.8058C124.536 68.7684 123.414 69.0738 122.454 69.6822C121.493 70.2906 120.738 71.1739 120.286 72.2173C119.259 72.221 118.236 72.3405 117.237 72.5736C115.975 72.93 115.619 77.06 116.693 78.6781C117.175 79.5624 117.431 80.5513 117.441 81.558C117.155 81.2075 116.857 81.1141 116.693 81.9085C116.337 83.7019 117.774 86.2138 117.774 86.2138L118.516 86.0035C118.89 87.5529 119.611 88.9972 120.625 90.227V93.3639L114.03 97.161C113.259 97.6056 112.62 98.2451 112.175 99.0151C111.73 99.7851 111.495 100.659 111.494 101.548V103.721C115.417 106.751 120.233 108.395 125.19 108.395C130.147 108.395 134.963 106.751 138.886 103.721V101.548C138.886 100.658 138.652 99.7844 138.207 99.0142C137.762 98.244 137.121 97.6047 136.35 97.161Z" fill="#263238"/>
<path d="M100.039 152.65C99.8874 152.648 99.7429 152.588 99.6355 152.481C99.5781 152.43 99.5322 152.367 99.501 152.296C99.4697 152.226 99.4539 152.149 99.4544 152.072C99.4562 151.967 99.4865 151.864 99.5421 151.774L100.594 150.092L98.5432 150.156C98.4659 150.161 98.3885 150.149 98.316 150.122C98.2435 150.095 98.1776 150.053 98.1226 149.998C98.0273 149.891 97.9747 149.753 97.9747 149.61C97.9747 149.467 98.0273 149.328 98.1226 149.221C98.1764 149.165 98.2419 149.121 98.3146 149.093C98.3873 149.065 98.4653 149.053 98.5432 149.058L100.564 149.134L99.5245 147.457C99.468 147.366 99.4376 147.261 99.4369 147.153C99.4364 147.076 99.4522 147 99.4834 146.93C99.5147 146.859 99.5605 146.796 99.618 146.745C99.7254 146.638 99.8699 146.577 100.021 146.575C100.121 146.576 100.218 146.605 100.302 146.658C100.385 146.712 100.452 146.789 100.494 146.879L101.493 148.684L102.48 146.891C102.527 146.795 102.599 146.714 102.689 146.656C102.778 146.599 102.882 146.566 102.989 146.563C103.062 146.564 103.135 146.58 103.203 146.61C103.27 146.64 103.331 146.684 103.38 146.739C103.487 146.85 103.546 146.999 103.544 147.153C103.543 147.254 103.517 147.352 103.468 147.44L102.41 149.134L104.461 149.058C104.539 149.053 104.617 149.065 104.689 149.093C104.762 149.121 104.827 149.165 104.881 149.221C104.981 149.325 105.035 149.463 105.033 149.607C105.033 149.752 104.979 149.891 104.881 149.998C104.826 150.053 104.76 150.095 104.688 150.122C104.615 150.149 104.538 150.161 104.461 150.156L102.399 150.092L103.427 151.757C103.484 151.85 103.515 151.957 103.514 152.066C103.514 152.221 103.453 152.37 103.343 152.479C103.234 152.589 103.085 152.65 102.93 152.65C102.83 152.649 102.732 152.619 102.649 152.562C102.566 152.506 102.502 152.427 102.463 152.335L101.487 150.583L100.518 152.335C100.475 152.427 100.407 152.505 100.323 152.56C100.238 152.616 100.14 152.647 100.039 152.65Z" fill="#263238"/>
<path d="M109.514 152.65C109.363 152.648 109.218 152.588 109.111 152.481C109.053 152.43 109.007 152.367 108.976 152.296C108.945 152.226 108.929 152.149 108.93 152.072C108.931 151.967 108.962 151.864 109.017 151.774L110.069 150.092L108.024 150.156C107.946 150.16 107.868 150.148 107.795 150.12C107.722 150.093 107.655 150.052 107.598 149.998C107.52 149.918 107.469 149.817 107.449 149.707C107.43 149.597 107.445 149.484 107.491 149.383C107.537 149.281 107.612 149.196 107.707 149.138C107.803 149.08 107.913 149.052 108.024 149.058L110.04 149.134L109 147.457C108.943 147.366 108.913 147.261 108.912 147.153C108.912 147.076 108.927 147 108.959 146.93C108.99 146.859 109.036 146.796 109.093 146.745C109.201 146.638 109.345 146.577 109.496 146.575C109.596 146.576 109.693 146.605 109.777 146.658C109.861 146.712 109.927 146.789 109.969 146.879L110.968 148.684L111.956 146.891C112.002 146.795 112.075 146.714 112.164 146.656C112.254 146.599 112.357 146.566 112.464 146.563C112.538 146.563 112.611 146.579 112.678 146.609C112.746 146.639 112.806 146.683 112.855 146.739C112.909 146.793 112.952 146.858 112.981 146.929C113.01 147 113.025 147.077 113.025 147.153C113.022 147.254 112.994 147.353 112.943 147.44L111.885 149.134L113.942 149.07C114.019 149.064 114.096 149.076 114.168 149.105C114.239 149.133 114.304 149.177 114.356 149.233C114.456 149.337 114.511 149.475 114.508 149.619C114.508 149.763 114.454 149.903 114.356 150.01C114.303 150.064 114.238 150.106 114.166 150.134C114.095 150.161 114.018 150.173 113.942 150.168L111.874 150.103L112.902 151.768C112.96 151.861 112.99 151.969 112.99 152.078C112.99 152.233 112.928 152.381 112.818 152.491C112.709 152.601 112.56 152.662 112.405 152.662C112.305 152.661 112.208 152.63 112.125 152.574C112.042 152.518 111.977 152.439 111.938 152.347L110.962 150.594L109.993 152.347C109.948 152.436 109.88 152.512 109.796 152.565C109.711 152.619 109.614 152.648 109.514 152.65Z" fill="#263238"/>
<path d="M118.995 152.65C118.842 152.65 118.695 152.589 118.586 152.481C118.528 152.43 118.483 152.367 118.451 152.296C118.42 152.226 118.404 152.149 118.405 152.072C118.407 151.967 118.437 151.864 118.492 151.774L119.544 150.092L117.499 150.156C117.389 150.16 117.28 150.132 117.187 150.074C117.093 150.017 117.018 149.932 116.972 149.832C116.927 149.732 116.912 149.62 116.93 149.511C116.948 149.403 116.997 149.302 117.073 149.221C117.128 149.165 117.195 149.121 117.268 149.093C117.342 149.065 117.421 149.053 117.499 149.058L119.515 149.134L118.475 147.457C118.418 147.366 118.388 147.261 118.387 147.153C118.389 147.077 118.406 147.001 118.437 146.931C118.468 146.861 118.513 146.797 118.568 146.745C118.677 146.637 118.824 146.576 118.977 146.575C119.076 146.577 119.172 146.606 119.255 146.66C119.337 146.714 119.403 146.79 119.445 146.879L120.444 148.684L121.431 146.891C121.478 146.795 121.55 146.714 121.639 146.656C121.729 146.599 121.833 146.566 121.939 146.563C122.013 146.563 122.086 146.579 122.154 146.609C122.221 146.639 122.281 146.683 122.33 146.739C122.385 146.793 122.427 146.858 122.456 146.929C122.486 147 122.5 147.077 122.5 147.153C122.498 147.254 122.47 147.353 122.418 147.44L121.361 149.134L123.417 149.058C123.493 149.05 123.569 149.059 123.641 149.083C123.713 149.108 123.779 149.147 123.834 149.199C123.889 149.251 123.933 149.315 123.962 149.385C123.991 149.455 124.004 149.531 124.001 149.607C124.002 149.751 123.95 149.89 123.855 149.998C123.8 150.053 123.734 150.095 123.662 150.122C123.589 150.149 123.512 150.161 123.434 150.156L121.372 150.092L122.395 151.757C122.452 151.85 122.483 151.957 122.482 152.066C122.48 152.143 122.464 152.219 122.432 152.289C122.401 152.359 122.357 152.422 122.301 152.475C122.25 152.53 122.189 152.574 122.121 152.604C122.052 152.634 121.979 152.65 121.904 152.65C121.805 152.649 121.708 152.618 121.626 152.562C121.544 152.506 121.48 152.427 121.442 152.335L120.461 150.583L119.491 152.335C119.448 152.43 119.378 152.51 119.29 152.566C119.201 152.622 119.099 152.651 118.995 152.65Z" fill="#263238"/>
<path d="M128.47 152.65C128.317 152.65 128.17 152.589 128.061 152.481C127.951 152.373 127.888 152.226 127.886 152.072C127.884 151.967 127.912 151.864 127.968 151.774L129.019 150.092L126.974 150.156C126.896 150.16 126.819 150.148 126.745 150.12C126.672 150.093 126.605 150.052 126.548 149.998C126.453 149.891 126.4 149.753 126.4 149.61C126.4 149.467 126.453 149.328 126.548 149.221C126.604 149.167 126.671 149.124 126.745 149.096C126.818 149.068 126.896 149.055 126.974 149.058L128.996 149.134L127.962 147.457C127.905 147.366 127.875 147.261 127.874 147.153C127.876 147.077 127.893 147.001 127.924 146.931C127.955 146.861 128 146.797 128.055 146.745C128.164 146.637 128.311 146.576 128.464 146.575C128.564 146.576 128.661 146.605 128.745 146.658C128.828 146.712 128.895 146.789 128.937 146.879L129.93 148.684L130.918 146.891C130.964 146.795 131.036 146.714 131.126 146.656C131.216 146.599 131.319 146.566 131.426 146.563C131.5 146.563 131.573 146.579 131.64 146.609C131.708 146.639 131.768 146.683 131.817 146.739C131.871 146.793 131.914 146.858 131.943 146.929C131.972 147 131.987 147.077 131.987 147.153C131.984 147.254 131.956 147.353 131.905 147.44L130.847 149.134L132.904 149.058C132.979 149.05 133.056 149.059 133.128 149.083C133.2 149.108 133.265 149.147 133.321 149.199C133.376 149.251 133.42 149.315 133.448 149.385C133.477 149.455 133.491 149.531 133.488 149.607C133.489 149.751 133.437 149.89 133.342 149.998C133.287 150.053 133.221 150.095 133.148 150.122C133.076 150.149 132.998 150.161 132.921 150.156L130.859 150.092L131.881 151.757C131.939 151.85 131.969 151.957 131.969 152.066C131.97 152.143 131.954 152.22 131.923 152.29C131.891 152.361 131.845 152.424 131.788 152.475C131.737 152.53 131.676 152.574 131.607 152.604C131.539 152.634 131.465 152.65 131.391 152.65C131.291 152.649 131.195 152.618 131.113 152.562C131.031 152.506 130.967 152.427 130.929 152.335L129.948 150.583L128.978 152.335C128.934 152.432 128.862 152.513 128.771 152.569C128.681 152.625 128.576 152.653 128.47 152.65Z" fill="#263238"/>
<path d="M137.945 152.65C137.791 152.65 137.645 152.589 137.536 152.481C137.445 152.389 137.388 152.27 137.372 152.143C137.356 152.015 137.383 151.885 137.448 151.774L138.494 150.092L136.449 150.156C136.371 150.16 136.293 150.148 136.22 150.12C136.147 150.093 136.08 150.052 136.023 149.998C135.928 149.891 135.875 149.753 135.875 149.61C135.875 149.467 135.928 149.328 136.023 149.221C136.079 149.167 136.146 149.124 136.219 149.096C136.293 149.068 136.371 149.055 136.449 149.058L138.47 149.134L137.431 147.457C137.374 147.366 137.344 147.261 137.343 147.153C137.345 146.999 137.408 146.852 137.518 146.745C137.627 146.637 137.774 146.576 137.927 146.575C138.027 146.576 138.124 146.605 138.208 146.658C138.292 146.712 138.358 146.789 138.4 146.879L139.393 148.684L140.381 146.891C140.427 146.795 140.5 146.714 140.589 146.656C140.679 146.599 140.782 146.566 140.889 146.563C140.964 146.563 141.038 146.579 141.106 146.609C141.175 146.639 141.236 146.683 141.286 146.739C141.393 146.85 141.452 146.999 141.45 147.153C141.448 147.254 141.419 147.353 141.368 147.44L140.311 149.134L142.367 149.058C142.442 149.05 142.519 149.059 142.591 149.083C142.663 149.108 142.729 149.147 142.784 149.199C142.839 149.251 142.883 149.315 142.912 149.385C142.94 149.455 142.954 149.531 142.951 149.607C142.952 149.751 142.9 149.89 142.805 149.998C142.75 150.053 142.684 150.095 142.611 150.122C142.539 150.149 142.462 150.161 142.384 150.156L140.322 150.092L141.345 151.757C141.402 151.85 141.433 151.957 141.432 152.066C141.433 152.143 141.417 152.22 141.386 152.29C141.354 152.361 141.309 152.424 141.251 152.475C141.2 152.53 141.139 152.574 141.071 152.604C141.002 152.634 140.928 152.65 140.854 152.65C140.755 152.649 140.658 152.618 140.576 152.562C140.494 152.506 140.43 152.427 140.392 152.335L139.411 150.583L138.441 152.335C138.398 152.43 138.327 152.51 138.239 152.566C138.151 152.622 138.049 152.651 137.945 152.65Z" fill="#263238"/>
<path d="M147.42 152.65C147.269 152.648 147.125 152.588 147.017 152.481C146.96 152.43 146.914 152.367 146.883 152.296C146.851 152.226 146.836 152.149 146.836 152.072C146.838 151.967 146.868 151.864 146.924 151.774L147.969 150.092L145.925 150.156C145.85 150.162 145.774 150.152 145.703 150.127C145.632 150.101 145.567 150.062 145.512 150.01C145.457 149.959 145.413 149.896 145.384 149.827C145.354 149.757 145.34 149.682 145.341 149.607C145.34 149.535 145.354 149.465 145.381 149.398C145.408 149.332 145.448 149.272 145.498 149.221C145.552 149.165 145.618 149.121 145.691 149.093C145.763 149.065 145.841 149.053 145.919 149.058L147.94 149.134L146.9 147.457C146.844 147.366 146.814 147.261 146.813 147.153C146.815 146.999 146.878 146.852 146.988 146.745C147.097 146.637 147.244 146.576 147.397 146.575C147.496 146.576 147.594 146.605 147.678 146.658C147.761 146.712 147.828 146.789 147.87 146.879L148.863 148.684L149.856 146.891C149.903 146.796 149.974 146.715 150.062 146.658C150.151 146.6 150.253 146.568 150.359 146.563C150.433 146.563 150.508 146.579 150.576 146.609C150.644 146.639 150.706 146.683 150.756 146.739C150.863 146.85 150.922 146.999 150.919 147.153C150.919 147.254 150.893 147.352 150.844 147.44L149.786 149.134L151.837 149.058C151.914 149.053 151.992 149.065 152.065 149.093C152.138 149.121 152.203 149.165 152.257 149.221C152.357 149.325 152.411 149.463 152.409 149.607C152.409 149.752 152.355 149.891 152.257 149.998C152.202 150.053 152.136 150.095 152.064 150.122C151.991 150.149 151.914 150.161 151.837 150.156L149.774 150.092L150.797 151.757C150.854 151.85 150.885 151.957 150.884 152.066C150.882 152.22 150.819 152.367 150.709 152.475C150.603 152.584 150.458 152.647 150.306 152.65C150.207 152.649 150.11 152.618 150.028 152.562C149.946 152.506 149.882 152.427 149.845 152.335L148.863 150.583L147.893 152.335C147.851 152.426 147.785 152.504 147.701 152.56C147.618 152.615 147.521 152.647 147.42 152.65Z" fill="#263238"/>
<g style="mix-blend-mode:multiply">
<path d="M176.891 34.3047H73.4826V40.783H176.891V34.3047Z" fill="#0077B6"/>
</g>
<path d="M136.432 22.3706H113.942C113.536 22.3706 113.147 22.2093 112.86 21.9223C112.573 21.6353 112.411 21.246 112.411 20.8401C112.411 20.4342 112.573 20.0449 112.86 19.7578C113.147 19.4708 113.536 19.3096 113.942 19.3096H136.432C136.838 19.3096 137.227 19.4708 137.514 19.7578C137.801 20.0449 137.963 20.4342 137.963 20.8401C137.963 21.246 137.801 21.6353 137.514 21.9223C137.227 22.2093 136.838 22.3706 136.432 22.3706Z" fill="#0077B6" stroke="#263238" stroke-width="1.33739" stroke-linecap="round" stroke-linejoin="round"/>
<path d="M131.321 210.837C131.322 209.623 130.963 208.436 130.289 207.427C129.616 206.417 128.658 205.63 127.537 205.165C126.416 204.7 125.182 204.578 123.992 204.815C122.801 205.051 121.708 205.636 120.85 206.494C119.992 207.352 119.407 208.445 119.171 209.636C118.934 210.826 119.056 212.06 119.521 213.181C119.986 214.302 120.773 215.26 121.783 215.933C122.792 216.607 123.979 216.966 125.193 216.965C126.817 216.963 128.375 216.317 129.524 215.168C130.673 214.019 131.319 212.462 131.321 210.837Z" fill="#0077B6"/>
<path d="M128.3 207.73H122.085V213.946H128.3V207.73Z" fill="#0077B6" stroke="#263238" stroke-width="1.33739" stroke-linecap="round" stroke-linejoin="round"/>
<path d="M199.229 140.307C199.229 140.307 191.086 119.616 198.335 117.157C205.882 114.592 205.549 128.256 205.257 134.915C204.644 149.145 203.073 151.792 201.898 148.316L199.229 140.307ZM196.781 156.447C199.018 159.368 199.649 156.342 195.613 142.679C193.72 136.253 189.608 123.255 183.299 128.133C177.241 132.806 191.658 149.747 191.658 149.747L196.781 156.447ZM192.458 168.306C194.591 170.199 194.631 167.809 189.567 157.943C187.189 153.322 182.16 143.97 178.041 148.596C174.086 153.059 187.563 163.907 187.563 163.907L192.458 168.306ZM187.785 182.408C189.917 184.306 189.958 181.911 184.893 172.05C182.516 167.43 177.486 158.071 173.368 162.704C169.437 167.178 182.872 178.026 182.872 178.026L187.785 182.408ZM201.279 153.702C197.868 155.034 200.578 156.482 214.826 156.442C221.509 156.442 235.155 156.138 232.246 148.713C229.459 141.581 209.165 150.664 209.165 150.664L201.279 153.702ZM197.394 163.189C193.784 163.814 196.156 165.776 210.129 168.569C216.678 169.883 230.108 172.307 228.735 164.48C227.42 156.932 205.725 161.804 205.725 161.804L197.394 163.189ZM193.048 174.773C189.976 175.216 191.938 176.928 203.686 179.615C209.195 180.877 220.498 183.243 219.517 176.566C218.582 170.14 200.123 173.774 200.123 173.774L193.048 174.773ZM189.748 185.504C186.739 186.269 188.872 187.764 200.847 189.19C206.455 189.856 217.945 191.012 216.269 184.475C214.651 178.202 196.682 183.757 196.682 183.757L189.748 185.504ZM207.354 142.06C205.602 145.985 209.241 145.389 221.614 134.594C227.409 129.529 239.033 118.933 229.827 113.658C220.989 108.587 211.484 133.052 211.484 133.052L207.354 142.06ZM190.203 199.483C188.352 200.563 190.168 200.984 198.662 199.29C202.646 198.501 210.748 196.749 208.009 193.29C205.357 189.961 194.491 196.971 194.491 196.971L190.203 199.483Z" fill="#0077B6"/>
<path opacity="0.3" d="M199.229 140.307C199.229 140.307 191.086 119.616 198.335 117.157C205.882 114.592 205.549 128.256 205.257 134.915C204.644 149.145 203.073 151.792 201.898 148.316L199.229 140.307ZM196.781 156.447C199.018 159.368 199.649 156.342 195.613 142.679C193.72 136.253 189.608 123.255 183.299 128.133C177.241 132.806 191.658 149.747 191.658 149.747L196.781 156.447ZM192.458 168.306C194.591 170.199 194.631 167.809 189.567 157.943C187.189 153.322 182.16 143.97 178.041 148.596C174.086 153.059 187.563 163.907 187.563 163.907L192.458 168.306ZM187.785 182.408C189.917 184.306 189.958 181.911 184.893 172.05C182.516 167.43 177.486 158.071 173.368 162.704C169.437 167.178 182.872 178.026 182.872 178.026L187.785 182.408ZM201.279 153.702C197.868 155.034 200.578 156.482 214.826 156.442C221.509 156.442 235.155 156.138 232.246 148.713C229.459 141.581 209.165 150.664 209.165 150.664L201.279 153.702ZM197.394 163.189C193.784 163.814 196.156 165.776 210.129 168.569C216.678 169.883 230.108 172.307 228.735 164.48C227.42 156.932 205.725 161.804 205.725 161.804L197.394 163.189ZM193.048 174.773C189.976 175.216 191.938 176.928 203.686 179.615C209.195 180.877 220.498 183.243 219.517 176.566C218.582 170.14 200.123 173.774 200.123 173.774L193.048 174.773ZM189.748 185.504C186.739 186.269 188.872 187.764 200.847 189.19C206.455 189.856 217.945 191.012 216.269 184.475C214.651 178.202 196.682 183.757 196.682 183.757L189.748 185.504ZM207.354 142.06C205.602 145.985 209.241 145.389 221.614 134.594C227.409 129.529 239.033 118.933 229.827 113.658C220.989 108.587 211.484 133.052 211.484 133.052L207.354 142.06ZM190.203 199.483C188.352 200.563 190.168 200.984 198.662 199.29C202.646 198.501 210.748 196.749 208.009 193.29C205.357 189.961 194.491 196.971 194.491 196.971L190.203 199.483Z" fill="white"/>
<path d="M202.822 149.939L201.402 126.322L202.822 149.939ZM198.329 157.732L189.357 137.421L198.329 157.732ZM221.486 151.826L199.983 154.91L221.486 151.826ZM193.679 168.679L182.037 153.742L193.679 168.679ZM195.724 164.099L211.765 164.905L195.724 164.099ZM191.927 175.555L204.194 176.77L191.927 175.555ZM188.965 182.833L182.873 173.668L188.965 182.833ZM188.264 186.069L202.687 186.204L188.264 186.069ZM185.344 213.128C185.44 213.12 185.53 213.075 185.593 213.002C185.657 212.928 185.689 212.833 185.682 212.736C184.765 198.962 190.093 176.402 198.639 157.884C204.101 146.049 225.51 122.787 225.738 122.554C225.807 122.485 225.846 122.391 225.846 122.294C225.846 122.196 225.807 122.103 225.738 122.034C225.705 122 225.665 121.973 225.62 121.955C225.576 121.936 225.529 121.927 225.481 121.927C225.433 121.927 225.386 121.936 225.342 121.955C225.298 121.973 225.258 122 225.224 122.034C225.008 122.267 203.511 145.616 198.002 157.557C189.298 176.524 184.041 198.676 184.975 212.783C184.983 212.876 185.025 212.963 185.093 213.027C185.161 213.091 185.25 213.127 185.344 213.128ZM202.816 150.301C202.912 150.295 203.003 150.251 203.067 150.179C203.132 150.107 203.165 150.012 203.16 149.916L201.764 126.286C201.762 126.238 201.75 126.191 201.73 126.148C201.709 126.104 201.68 126.065 201.644 126.033C201.608 126.001 201.566 125.976 201.52 125.961C201.475 125.945 201.427 125.939 201.379 125.942C201.282 125.948 201.192 125.992 201.127 126.064C201.063 126.136 201.029 126.231 201.034 126.327L202.454 149.945C202.458 150.038 202.498 150.126 202.566 150.19C202.633 150.254 202.723 150.29 202.816 150.29V150.301ZM198.458 158.065C198.545 158.025 198.614 157.953 198.649 157.863C198.684 157.774 198.682 157.674 198.645 157.586L189.666 137.275C189.628 137.186 189.555 137.117 189.466 137.082C189.376 137.047 189.276 137.049 189.187 137.088C189.099 137.126 189.03 137.199 188.995 137.288C188.96 137.378 188.962 137.478 189 137.567L197.973 157.878C198.001 157.943 198.048 157.999 198.107 158.038C198.166 158.077 198.235 158.099 198.306 158.1C198.366 158.103 198.427 158.091 198.481 158.065H198.458ZM200.012 155.261L221.503 152.188C221.555 152.187 221.606 152.175 221.653 152.153C221.7 152.131 221.742 152.099 221.775 152.059C221.809 152.02 221.834 151.974 221.849 151.924C221.863 151.874 221.867 151.822 221.86 151.77C221.853 151.719 221.835 151.669 221.808 151.625C221.78 151.581 221.744 151.544 221.701 151.515C221.658 151.486 221.609 151.466 221.558 151.457C221.506 151.449 221.454 151.451 221.404 151.464L199.912 154.536C199.816 154.543 199.727 154.587 199.663 154.659C199.6 154.731 199.567 154.826 199.574 154.922C199.58 155.018 199.624 155.108 199.696 155.171C199.769 155.235 199.863 155.267 199.959 155.261H200.012ZM193.884 168.971C193.96 168.911 194.01 168.824 194.022 168.727C194.034 168.631 194.007 168.534 193.948 168.457L182.3 153.491C182.24 153.413 182.152 153.363 182.055 153.35C181.958 153.338 181.861 153.364 181.783 153.424C181.706 153.483 181.655 153.571 181.642 153.668C181.63 153.765 181.656 153.863 181.716 153.941L193.387 168.93C193.421 168.974 193.465 169.009 193.514 169.033C193.564 169.058 193.618 169.07 193.674 169.07C193.761 169.066 193.844 169.031 193.907 168.971H193.884ZM212.086 164.923C212.09 164.826 212.055 164.732 211.989 164.661C211.923 164.59 211.832 164.548 211.736 164.543L195.724 163.731C195.634 163.737 195.549 163.776 195.486 163.841C195.423 163.905 195.386 163.991 195.382 164.081C195.377 164.171 195.406 164.259 195.463 164.329C195.52 164.4 195.6 164.447 195.689 164.461L211.73 165.273C211.827 165.277 211.921 165.242 211.992 165.176C212.063 165.11 212.105 165.019 212.11 164.923H212.086ZM204.533 176.805C204.539 176.757 204.535 176.708 204.521 176.661C204.508 176.615 204.485 176.572 204.455 176.534C204.424 176.497 204.387 176.465 204.344 176.443C204.301 176.42 204.254 176.406 204.206 176.402L191.939 175.192C191.891 175.188 191.843 175.192 191.797 175.206C191.751 175.22 191.709 175.243 191.672 175.273C191.635 175.304 191.604 175.341 191.582 175.383C191.56 175.426 191.546 175.472 191.541 175.52C191.533 175.615 191.563 175.711 191.624 175.785C191.685 175.859 191.773 175.906 191.869 175.917L204.136 177.132H204.171C204.265 177.138 204.358 177.108 204.43 177.047C204.502 176.986 204.548 176.899 204.557 176.805H204.533ZM189.141 183.137C189.222 183.083 189.278 183 189.298 182.905C189.318 182.809 189.299 182.71 189.246 182.629L183.182 173.463C183.127 173.384 183.043 173.33 182.948 173.311C182.853 173.293 182.755 173.312 182.674 173.364C182.593 173.418 182.536 173.501 182.516 173.596C182.497 173.692 182.516 173.791 182.569 173.872L188.632 183.038C188.667 183.088 188.713 183.129 188.767 183.157C188.821 183.186 188.881 183.201 188.942 183.201C189.021 183.206 189.099 183.183 189.164 183.137H189.141ZM203.055 186.204C203.054 186.108 203.015 186.016 202.948 185.947C202.88 185.879 202.789 185.839 202.693 185.836L188.27 185.701C188.174 185.701 188.082 185.74 188.014 185.808C187.946 185.875 187.908 185.968 187.908 186.064C187.906 186.112 187.915 186.16 187.932 186.205C187.95 186.25 187.976 186.291 188.01 186.325C188.044 186.36 188.085 186.387 188.129 186.405C188.174 186.423 188.222 186.432 188.27 186.432L202.693 186.566C202.742 186.568 202.792 186.561 202.838 186.544C202.884 186.527 202.927 186.5 202.963 186.467C202.999 186.433 203.027 186.392 203.047 186.347C203.067 186.302 203.078 186.253 203.079 186.204H203.055ZM183.702 207.771C183.731 207.707 186.191 200.931 193.586 199.312C193.681 199.291 193.764 199.234 193.817 199.151C193.869 199.069 193.887 198.97 193.866 198.874C193.843 198.781 193.784 198.7 193.702 198.649C193.621 198.598 193.523 198.58 193.428 198.6C185.63 200.305 183.042 207.461 183.013 207.532C182.983 207.624 182.99 207.724 183.032 207.811C183.075 207.899 183.149 207.966 183.241 207.999H183.357C183.435 208.006 183.513 207.987 183.579 207.946C183.645 207.905 183.697 207.844 183.725 207.771H183.702ZM185.344 213.128C185.44 213.12 185.53 213.075 185.593 213.002C185.657 212.928 185.689 212.833 185.682 212.736C184.765 198.962 190.093 176.402 198.639 157.884C204.101 146.049 225.51 122.787 225.738 122.554C225.807 122.485 225.846 122.391 225.846 122.294C225.846 122.196 225.807 122.103 225.738 122.034C225.705 122 225.665 121.973 225.62 121.955C225.576 121.936 225.529 121.927 225.481 121.927C225.433 121.927 225.386 121.936 225.342 121.955C225.298 121.973 225.258 122 225.224 122.034C225.008 122.267 203.511 145.616 198.002 157.557C189.298 176.524 184.041 198.676 184.975 212.783C184.983 212.876 185.025 212.963 185.093 213.027C185.161 213.091 185.25 213.127 185.344 213.128ZM202.816 150.301C202.912 150.295 203.003 150.251 203.067 150.179C203.132 150.107 203.165 150.012 203.16 149.916L201.764 126.286C201.762 126.238 201.75 126.191 201.73 126.148C201.709 126.104 201.68 126.065 201.644 126.033C201.608 126.001 201.566 125.976 201.52 125.961C201.475 125.945 201.427 125.939 201.379 125.942C201.282 125.948 201.192 125.992 201.127 126.064C201.063 126.136 201.029 126.231 201.034 126.327L202.454 149.945C202.458 150.038 202.498 150.126 202.566 150.19C202.633 150.254 202.723 150.29 202.816 150.29V150.301ZM198.458 158.065C198.545 158.025 198.614 157.953 198.649 157.863C198.684 157.774 198.682 157.674 198.645 157.586L189.666 137.275C189.628 137.186 189.555 137.117 189.466 137.082C189.376 137.047 189.276 137.049 189.187 137.088C189.099 137.126 189.03 137.199 188.995 137.288C188.96 137.378 188.962 137.478 189 137.567L197.973 157.878C198.001 157.943 198.048 157.999 198.107 158.038C198.166 158.077 198.235 158.099 198.306 158.1C198.366 158.103 198.427 158.091 198.481 158.065H198.458ZM200.012 155.261L221.503 152.188C221.555 152.187 221.606 152.175 221.653 152.153C221.7 152.131 221.742 152.099 221.775 152.059C221.809 152.02 221.834 151.974 221.849 151.924C221.863 151.874 221.867 151.822 221.86 151.77C221.853 151.719 221.835 151.669 221.808 151.625C221.78 151.581 221.744 151.544 221.701 151.515C221.658 151.486 221.609 151.466 221.558 151.457C221.506 151.449 221.454 151.451 221.404 151.464L199.912 154.536C199.816 154.543 199.727 154.587 199.663 154.659C199.6 154.731 199.567 154.826 199.574 154.922C199.58 155.018 199.624 155.108 199.696 155.171C199.769 155.235 199.863 155.267 199.959 155.261H200.012ZM193.884 168.971C193.96 168.911 194.01 168.824 194.022 168.727C194.034 168.631 194.007 168.534 193.948 168.457L182.3 153.491C182.27 153.452 182.234 153.42 182.192 153.396C182.15 153.372 182.103 153.356 182.055 153.35C182.007 153.344 181.959 153.347 181.912 153.36C181.865 153.372 181.821 153.394 181.783 153.424C181.745 153.453 181.713 153.49 181.688 153.532C181.664 153.574 181.649 153.62 181.642 153.668C181.636 153.716 181.639 153.765 181.652 153.812C181.665 153.858 181.686 153.902 181.716 153.941L193.387 168.93C193.421 168.974 193.465 169.009 193.514 169.033C193.564 169.058 193.618 169.07 193.674 169.07C193.761 169.066 193.844 169.031 193.907 168.971H193.884ZM212.086 164.923C212.09 164.826 212.055 164.732 211.989 164.661C211.923 164.59 211.832 164.548 211.736 164.543L195.724 163.731C195.634 163.737 195.549 163.776 195.486 163.841C195.423 163.905 195.386 163.991 195.382 164.081C195.377 164.171 195.406 164.259 195.463 164.329C195.52 164.4 195.6 164.447 195.689 164.461L211.73 165.273C211.827 165.277 211.921 165.242 211.992 165.176C212.063 165.11 212.105 165.019 212.11 164.923H212.086ZM204.533 176.805C204.539 176.757 204.535 176.708 204.521 176.661C204.508 176.615 204.485 176.572 204.455 176.534C204.424 176.497 204.387 176.465 204.344 176.443C204.301 176.42 204.254 176.406 204.206 176.402L191.939 175.192C191.891 175.188 191.843 175.192 191.797 175.206C191.751 175.22 191.709 175.243 191.672 175.273C191.635 175.304 191.604 175.341 191.582 175.383C191.56 175.426 191.546 175.472 191.541 175.52C191.533 175.615 191.563 175.711 191.624 175.785C191.685 175.859 191.773 175.906 191.869 175.917L204.136 177.132H204.171C204.265 177.138 204.358 177.108 204.43 177.047C204.502 176.986 204.548 176.899 204.557 176.805H204.533ZM189.141 183.137C189.222 183.083 189.278 183 189.298 182.905C189.318 182.809 189.299 182.71 189.246 182.629L183.182 173.463C183.127 173.384 183.043 173.33 182.948 173.311C182.853 173.293 182.755 173.312 182.674 173.364C182.593 173.418 182.536 173.501 182.516 173.596C182.497 173.692 182.516 173.791 182.569 173.872L188.632 183.038C188.667 183.088 188.713 183.129 188.767 183.157C188.821 183.186 188.881 183.201 188.942 183.201C189.021 183.206 189.099 183.183 189.164 183.137H189.141ZM203.055 186.204C203.054 186.108 203.015 186.016 202.948 185.947C202.88 185.879 202.789 185.839 202.693 185.836L188.27 185.701C188.174 185.701 188.082 185.74 188.014 185.808C187.946 185.875 187.908 185.968 187.908 186.064C187.906 186.112 187.915 186.16 187.932 186.205C187.95 186.25 187.976 186.291 188.01 186.325C188.044 186.36 188.085 186.387 188.129 186.405C188.174 186.423 188.222 186.432 188.27 186.432L202.693 186.566C202.742 186.568 202.792 186.561 202.838 186.544C202.884 186.527 202.927 186.5 202.963 186.467C202.999 186.433 203.027 186.392 203.047 186.347C203.067 186.302 203.078 186.253 203.079 186.204H203.055ZM183.702 207.771C183.731 207.707 186.191 200.931 193.586 199.312C193.681 199.291 193.764 199.234 193.817 199.151C193.869 199.069 193.887 198.97 193.866 198.874C193.843 198.781 193.784 198.7 193.702 198.649C193.621 198.598 193.523 198.58 193.428 198.6C185.63 200.305 183.042 207.461 183.013 207.532C182.983 207.624 182.99 207.724 183.032 207.811C183.075 207.899 183.149 207.966 183.241 207.999H183.357C183.435 208.006 183.513 207.987 183.579 207.946C183.645 207.905 183.697 207.844 183.725 207.771H183.702Z" fill="#0077B6"/>
<path opacity="0.2" d="M202.822 149.939L201.402 126.322L202.822 149.939ZM198.329 157.732L189.357 137.421L198.329 157.732ZM221.486 151.826L199.983 154.91L221.486 151.826ZM193.679 168.679L182.037 153.742L193.679 168.679ZM195.724 164.099L211.765 164.905L195.724 164.099ZM191.927 175.555L204.194 176.77L191.927 175.555ZM188.965 182.833L182.873 173.668L188.965 182.833ZM188.264 186.069L202.687 186.204L188.264 186.069ZM185.344 213.128C185.44 213.12 185.53 213.075 185.593 213.002C185.657 212.928 185.689 212.833 185.682 212.736C184.765 198.962 190.093 176.402 198.639 157.884C204.101 146.049 225.51 122.787 225.738 122.554C225.807 122.485 225.846 122.391 225.846 122.294C225.846 122.196 225.807 122.103 225.738 122.034C225.705 122 225.665 121.973 225.62 121.955C225.576 121.936 225.529 121.927 225.481 121.927C225.433 121.927 225.386 121.936 225.342 121.955C225.298 121.973 225.258 122 225.224 122.034C225.008 122.267 203.511 145.616 198.002 157.557C189.298 176.524 184.041 198.676 184.975 212.783C184.983 212.876 185.025 212.963 185.093 213.027C185.161 213.091 185.25 213.127 185.344 213.128ZM202.816 150.301C202.912 150.295 203.003 150.251 203.067 150.179C203.132 150.107 203.165 150.012 203.16 149.916L201.764 126.286C201.762 126.238 201.75 126.191 201.73 126.148C201.709 126.104 201.68 126.065 201.644 126.033C201.608 126.001 201.566 125.976 201.52 125.961C201.475 125.945 201.427 125.939 201.379 125.942C201.282 125.948 201.192 125.992 201.127 126.064C201.063 126.136 201.029 126.231 201.034 126.327L202.454 149.945C202.458 150.038 202.498 150.126 202.566 150.19C202.633 150.254 202.723 150.29 202.816 150.29V150.301ZM198.458 158.065C198.545 158.025 198.614 157.953 198.649 157.863C198.684 157.774 198.682 157.674 198.645 157.586L189.666 137.275C189.628 137.186 189.555 137.117 189.466 137.082C189.376 137.047 189.276 137.049 189.187 137.088C189.099 137.126 189.03 137.199 188.995 137.288C188.96 137.378 188.962 137.478 189 137.567L197.973 157.878C198.001 157.943 198.048 157.999 198.107 158.038C198.166 158.077 198.235 158.099 198.306 158.1C198.366 158.103 198.427 158.091 198.481 158.065H198.458ZM200.012 155.261L221.503 152.188C221.555 152.187 221.606 152.175 221.653 152.153C221.7 152.131 221.742 152.099 221.775 152.059C221.809 152.02 221.834 151.974 221.849 151.924C221.863 151.874 221.867 151.822 221.86 151.77C221.853 151.719 221.835 151.669 221.808 151.625C221.78 151.581 221.744 151.544 221.701 151.515C221.658 151.486 221.609 151.466 221.558 151.457C221.506 151.449 221.454 151.451 221.404 151.464L199.912 154.536C199.816 154.543 199.727 154.587 199.663 154.659C199.6 154.731 199.567 154.826 199.574 154.922C199.58 155.018 199.624 155.108 199.696 155.171C199.769 155.235 199.863 155.267 199.959 155.261H200.012ZM193.884 168.971C193.96 168.911 194.01 168.824 194.022 168.727C194.034 168.631 194.007 168.534 193.948 168.457L182.3 153.491C182.24 153.413 182.152 153.363 182.055 153.35C181.958 153.338 181.861 153.364 181.783 153.424C181.706 153.483 181.655 153.571 181.642 153.668C181.63 153.765 181.656 153.863 181.716 153.941L193.387 168.93C193.421 168.974 193.465 169.009 193.514 169.033C193.564 169.058 193.618 169.07 193.674 169.07C193.761 169.066 193.844 169.031 193.907 168.971H193.884ZM212.086 164.923C212.09 164.826 212.055 164.732 211.989 164.661C211.923 164.59 211.832 164.548 211.736 164.543L195.724 163.731C195.634 163.737 195.549 163.776 195.486 163.841C195.423 163.905 195.386 163.991 195.382 164.081C195.377 164.171 195.406 164.259 195.463 164.329C195.52 164.4 195.6 164.447 195.689 164.461L211.73 165.273C211.827 165.277 211.921 165.242 211.992 165.176C212.063 165.11 212.105 165.019 212.11 164.923H212.086ZM204.533 176.805C204.539 176.757 204.535 176.708 204.521 176.661C204.508 176.615 204.485 176.572 204.455 176.534C204.424 176.497 204.387 176.465 204.344 176.443C204.301 176.42 204.254 176.406 204.206 176.402L191.939 175.192C191.891 175.188 191.843 175.192 191.797 175.206C191.751 175.22 191.709 175.243 191.672 175.273C191.635 175.304 191.604 175.341 191.582 175.383C191.56 175.426 191.546 175.472 191.541 175.52C191.533 175.615 191.563 175.711 191.624 175.785C191.685 175.859 191.773 175.906 191.869 175.917L204.136 177.132H204.171C204.265 177.138 204.358 177.108 204.43 177.047C204.502 176.986 204.548 176.899 204.557 176.805H204.533ZM189.141 183.137C189.222 183.083 189.278 183 189.298 182.905C189.318 182.809 189.299 182.71 189.246 182.629L183.182 173.463C183.127 173.384 183.043 173.33 182.948 173.311C182.853 173.293 182.755 173.312 182.674 173.364C182.593 173.418 182.536 173.501 182.516 173.596C182.497 173.692 182.516 173.791 182.569 173.872L188.632 183.038C188.667 183.088 188.713 183.129 188.767 183.157C188.821 183.186 188.881 183.201 188.942 183.201C189.021 183.206 189.099 183.183 189.164 183.137H189.141ZM203.055 186.204C203.054 186.108 203.015 186.016 202.948 185.947C202.88 185.879 202.789 185.839 202.693 185.836L188.27 185.701C188.174 185.701 188.082 185.74 188.014 185.808C187.946 185.875 187.908 185.968 187.908 186.064C187.906 186.112 187.915 186.16 187.932 186.205C187.95 186.25 187.976 186.291 188.01 186.325C188.044 186.36 188.085 186.387 188.129 186.405C188.174 186.423 188.222 186.432 188.27 186.432L202.693 186.566C202.742 186.568 202.792 186.561 202.838 186.544C202.884 186.527 202.927 186.5 202.963 186.467C202.999 186.433 203.027 186.392 203.047 186.347C203.067 186.302 203.078 186.253 203.079 186.204H203.055ZM183.702 207.771C183.731 207.707 186.191 200.931 193.586 199.312C193.681 199.291 193.764 199.234 193.817 199.151C193.869 199.069 193.887 198.97 193.866 198.874C193.843 198.781 193.784 198.7 193.702 198.649C193.621 198.598 193.523 198.58 193.428 198.6C185.63 200.305 183.042 207.461 183.013 207.532C182.983 207.624 182.99 207.724 183.032 207.811C183.075 207.899 183.149 207.966 183.241 207.999H183.357C183.435 208.006 183.513 207.987 183.579 207.946C183.645 207.905 183.697 207.844 183.725 207.771H183.702ZM185.344 213.128C185.44 213.12 185.53 213.075 185.593 213.002C185.657 212.928 185.689 212.833 185.682 212.736C184.765 198.962 190.093 176.402 198.639 157.884C204.101 146.049 225.51 122.787 225.738 122.554C225.807 122.485 225.846 122.391 225.846 122.294C225.846 122.196 225.807 122.103 225.738 122.034C225.705 122 225.665 121.973 225.62 121.955C225.576 121.936 225.529 121.927 225.481 121.927C225.433 121.927 225.386 121.936 225.342 121.955C225.298 121.973 225.258 122 225.224 122.034C225.008 122.267 203.511 145.616 198.002 157.557C189.298 176.524 184.041 198.676 184.975 212.783C184.983 212.876 185.025 212.963 185.093 213.027C185.161 213.091 185.25 213.127 185.344 213.128ZM202.816 150.301C202.912 150.295 203.003 150.251 203.067 150.179C203.132 150.107 203.165 150.012 203.16 149.916L201.764 126.286C201.762 126.238 201.75 126.191 201.73 126.148C201.709 126.104 201.68 126.065 201.644 126.033C201.608 126.001 201.566 125.976 201.52 125.961C201.475 125.945 201.427 125.939 201.379 125.942C201.282 125.948 201.192 125.992 201.127 126.064C201.063 126.136 201.029 126.231 201.034 126.327L202.454 149.945C202.458 150.038 202.498 150.126 202.566 150.19C202.633 150.254 202.723 150.29 202.816 150.29V150.301ZM198.458 158.065C198.545 158.025 198.614 157.953 198.649 157.863C198.684 157.774 198.682 157.674 198.645 157.586L189.666 137.275C189.628 137.186 189.555 137.117 189.466 137.082C189.376 137.047 189.276 137.049 189.187 137.088C189.099 137.126 189.03 137.199 188.995 137.288C188.96 137.378 188.962 137.478 189 137.567L197.973 157.878C198.001 157.943 198.048 157.999 198.107 158.038C198.166 158.077 198.235 158.099 198.306 158.1C198.366 158.103 198.427 158.091 198.481 158.065H198.458ZM200.012 155.261L221.503 152.188C221.555 152.187 221.606 152.175 221.653 152.153C221.7 152.131 221.742 152.099 221.775 152.059C221.809 152.02 221.834 151.974 221.849 151.924C221.863 151.874 221.867 151.822 221.86 151.77C221.853 151.719 221.835 151.669 221.808 151.625C221.78 151.581 221.744 151.544 221.701 151.515C221.658 151.486 221.609 151.466 221.558 151.457C221.506 151.449 221.454 151.451 221.404 151.464L199.912 154.536C199.816 154.543 199.727 154.587 199.663 154.659C199.6 154.731 199.567 154.826 199.574 154.922C199.58 155.018 199.624 155.108 199.696 155.171C199.769 155.235 199.863 155.267 199.959 155.261H200.012ZM193.884 168.971C193.96 168.911 194.01 168.824 194.022 168.727C194.034 168.631 194.007 168.534 193.948 168.457L182.3 153.491C182.27 153.452 182.234 153.42 182.192 153.396C182.15 153.372 182.103 153.356 182.055 153.35C182.007 153.344 181.959 153.347 181.912 153.36C181.865 153.372 181.821 153.394 181.783 153.424C181.745 153.453 181.713 153.49 181.688 153.532C181.664 153.574 181.649 153.62 181.642 153.668C181.636 153.716 181.639 153.765 181.652 153.812C181.665 153.858 181.686 153.902 181.716 153.941L193.387 168.93C193.421 168.974 193.465 169.009 193.514 169.033C193.564 169.058 193.618 169.07 193.674 169.07C193.761 169.066 193.844 169.031 193.907 168.971H193.884ZM212.086 164.923C212.09 164.826 212.055 164.732 211.989 164.661C211.923 164.59 211.832 164.548 211.736 164.543L195.724 163.731C195.634 163.737 195.549 163.776 195.486 163.841C195.423 163.905 195.386 163.991 195.382 164.081C195.377 164.171 195.406 164.259 195.463 164.329C195.52 164.4 195.6 164.447 195.689 164.461L211.73 165.273C211.827 165.277 211.921 165.242 211.992 165.176C212.063 165.11 212.105 165.019 212.11 164.923H212.086ZM204.533 176.805C204.539 176.757 204.535 176.708 204.521 176.661C204.508 176.615 204.485 176.572 204.455 176.534C204.424 176.497 204.387 176.465 204.344 176.443C204.301 176.42 204.254 176.406 204.206 176.402L191.939 175.192C191.891 175.188 191.843 175.192 191.797 175.206C191.751 175.22 191.709 175.243 191.672 175.273C191.635 175.304 191.604 175.341 191.582 175.383C191.56 175.426 191.546 175.472 191.541 175.52C191.533 175.615 191.563 175.711 191.624 175.785C191.685 175.859 191.773 175.906 191.869 175.917L204.136 177.132H204.171C204.265 177.138 204.358 177.108 204.43 177.047C204.502 176.986 204.548 176.899 204.557 176.805H204.533ZM189.141 183.137C189.222 183.083 189.278 183 189.298 182.905C189.318 182.809 189.299 182.71 189.246 182.629L183.182 173.463C183.127 173.384 183.043 173.33 182.948 173.311C182.853 173.293 182.755 173.312 182.674 173.364C182.593 173.418 182.536 173.501 182.516 173.596C182.497 173.692 182.516 173.791 182.569 173.872L188.632 183.038C188.667 183.088 188.713 183.129 188.767 183.157C188.821 183.186 188.881 183.201 188.942 183.201C189.021 183.206 189.099 183.183 189.164 183.137H189.141ZM203.055 186.204C203.054 186.108 203.015 186.016 202.948 185.947C202.88 185.879 202.789 185.839 202.693 185.836L188.27 185.701C188.174 185.701 188.082 185.74 188.014 185.808C187.946 185.875 187.908 185.968 187.908 186.064C187.906 186.112 187.915 186.16 187.932 186.205C187.95 186.25 187.976 186.291 188.01 186.325C188.044 186.36 188.085 186.387 188.129 186.405C188.174 186.423 188.222 186.432 188.27 186.432L202.693 186.566C202.742 186.568 202.792 186.561 202.838 186.544C202.884 186.527 202.927 186.5 202.963 186.467C202.999 186.433 203.027 186.392 203.047 186.347C203.067 186.302 203.078 186.253 203.079 186.204H203.055ZM183.702 207.771C183.731 207.707 186.191 200.931 193.586 199.312C193.681 199.291 193.764 199.234 193.817 199.151C193.869 199.069 193.887 198.97 193.866 198.874C193.843 198.781 193.784 198.7 193.702 198.649C193.621 198.598 193.523 198.58 193.428 198.6C185.63 200.305 183.042 207.461 183.013 207.532C182.983 207.624 182.99 207.724 183.032 207.811C183.075 207.899 183.149 207.966 183.241 207.999H183.357C183.435 208.006 183.513 207.987 183.579 207.946C183.645 207.905 183.697 207.844 183.725 207.771H183.702Z" fill="black"/>
<path d="M194.883 202.83H178.345V206.253H179.788L182.773 224.929H190.455L193.44 206.253H194.883V202.83Z" fill="#0077B6"/>
<path opacity="0.3" d="M194.883 202.83H178.345V206.253H179.788L182.773 224.929H190.455L193.44 206.253H194.883V202.83Z" fill="white"/>
<path d="M45.992 99.3172L26.7556 93.0375L25.044 88.516L21.1359 88.3934L14.0442 87.0498L14.8971 88.516L23.8231 94.9944L26.0254 96.0926L46.1439 106.602L45.992 99.3172Z" fill="white" stroke="#263238" stroke-width="1.00396" stroke-miterlimit="10"/>
<path d="M25.0439 88.5152L23.2096 87.417L19.5469 88.7606L20.1545 89.4908L25.0439 88.5152Z" fill="white" stroke="#263238" stroke-width="1.00396" stroke-linejoin="round"/>
<path d="M45.992 99.3172L26.7556 93.0375L25.044 88.516L21.1359 88.3934L14.0442 87.0498L14.8971 88.516L23.8231 94.9944L26.0254 96.0926L46.1439 106.602L45.992 99.3172Z" fill="white"/>
<path opacity="0.5" d="M45.992 99.3172L26.7556 93.0375L25.044 88.516L21.136 88.3934L14.0443 87.0498L14.8971 88.516L23.8231 94.9944L26.0254 96.0926L46.1439 106.602L45.992 99.3172Z" fill="#0077B6" stroke="#263238" stroke-width="1.00396" stroke-miterlimit="10"/>
<path d="M45.992 99.3172L26.7556 93.0375L25.044 88.516L21.1359 88.3934L14.0442 87.0498L14.8971 88.516L23.8231 94.9944L26.0254 96.0926L46.1439 106.602L45.992 99.3172Z" stroke="#263238" stroke-width="1.00396" stroke-miterlimit="10"/>
<path d="M25.0439 88.5152L23.2096 87.417L19.5469 88.7606L20.1545 89.4908L25.0439 88.5152Z" fill="white"/>
<path opacity="0.5" d="M25.044 88.5162L23.2097 87.418L19.547 88.7615L20.1545 89.4917L25.044 88.5162Z" fill="#0077B6" stroke="#263238" stroke-width="1.00396" stroke-linejoin="round"/>
<path d="M25.0439 88.5152L23.2096 87.417L19.5469 88.7606L20.1545 89.4908L25.0439 88.5152Z" stroke="#263238" stroke-width="1.00396" stroke-linejoin="round"/>
<path d="M50.0753 58.5603C50.0753 58.5603 49.7774 61.189 50.5193 62.8772C51.2612 64.5654 55.3795 70.2844 55.3795 70.2844L47.692 76.4473C47.692 76.4473 44.5024 70.0215 43.8949 68.9817C43.2874 67.9419 42.5572 63.4672 44.5375 60.2602C46.5178 57.0531 49.3685 56.1886 50.0753 58.5603Z" fill="white"/>
<g style="mix-blend-mode:multiply" opacity="0.5">
<path d="M46.1262 67.0068L49.4618 73.9233L47.686 76.4527L44.3329 70.4651L46.1262 67.0068Z" fill="#0077B6"/>
</g>
<path d="M50.0753 58.5603C50.0753 58.5603 49.7774 61.189 50.5193 62.8772C51.2612 64.5654 55.3795 70.2844 55.3795 70.2844L47.692 76.4473C47.692 76.4473 44.5024 70.0215 43.8949 68.9817C43.2874 67.9419 42.5572 63.4672 44.5375 60.2602C46.5178 57.0531 49.3685 56.1886 50.0753 58.5603Z" stroke="#263238" stroke-width="1.00396" stroke-miterlimit="10"/>
<path d="M52.4585 53.7467C51.9853 50.8259 48.6381 44.885 43.3281 45.1128C39.8815 45.2647 38.2693 45.9598 36.7738 46.8069C35.5548 47.5251 34.4186 48.3753 33.3857 49.3421C30.792 52.4557 29.8807 53.3086 30.3831 55.692C30.3419 56.6426 30.4908 57.5919 30.8212 58.4843C31.6157 60.6048 32.1589 61.9892 32.8482 62.9998C32.6379 63.9871 32.0888 66.5924 32.0596 67.1882C32.0304 67.7841 33.8121 67.3693 34.7117 67.1415C36.3824 70.8801 39.4434 73.4738 40.3956 73.7717C42.0546 74.2916 44.6775 71.5636 46.0678 69.4489C47.4581 67.3343 46.4066 64.9568 46.4125 64.0104C46.4183 63.0641 49.5377 60.9845 50.6944 60.3244C51.851 59.6643 52.9258 56.6617 52.4585 53.7467Z" fill="white"/>
<g style="mix-blend-mode:multiply" opacity="0.5">
<path d="M30.4067 55.691C30.3655 56.6417 30.5144 57.591 30.8448 58.4833C31.6393 60.6038 32.1825 61.9883 32.8718 62.9989C32.6615 63.9861 32.1124 66.5915 32.0832 67.1873C32.054 67.7831 33.8357 67.3684 34.7353 67.1406C36.406 70.8792 39.467 73.4729 40.4192 73.7708C42.0782 74.2907 44.7011 71.5627 46.0914 69.448C46.4387 68.9201 46.6642 68.3214 46.7515 67.6955C46.6756 67.421 46.623 67.2516 46.623 67.2516C46.623 67.2516 45.8402 70.26 44.2863 69.8686C42.7325 69.4772 40.3549 66.3636 39.0289 65.2888C37.7028 64.2139 38.2461 62.8003 37.9832 61.1997C37.7204 59.5991 33.7948 58.1912 33.5319 57.2741C33.2691 56.357 34.1862 52.5599 34.1862 52.5599C34.1862 52.5599 35.6758 50.5738 35.3545 51.3916C35.1274 52.1007 35.0451 52.8482 35.1123 53.5898C35.1795 54.3313 35.395 55.0518 35.7459 55.7085C35.9922 56.2267 36.3828 56.6628 36.8709 56.9643C37.3589 57.2659 37.9237 57.4201 38.4973 57.4085L39.9227 50.3459L36.9142 47.8574L33.4093 49.3178C30.7922 52.4548 29.8985 53.3076 30.4067 55.691Z" fill="#0077B6"/>
</g>
<path d="M52.4585 53.7467C51.9854 50.8259 48.6381 44.885 43.3281 45.1128C39.8815 45.2647 38.2693 45.9598 36.7738 46.8069C35.5548 47.5251 34.4186 48.3753 33.3857 49.3421C30.792 52.4557 29.8807 53.3086 30.3831 55.692C30.3419 56.6426 30.4908 57.5919 30.8212 58.4842C31.6157 60.6048 32.1589 61.9892 32.8482 62.9998C32.6379 63.9871 32.0888 66.5924 32.0596 67.1882C32.0304 67.7841 33.8121 67.3693 34.7117 67.1415C36.3824 70.8801 39.4434 73.4738 40.3956 73.7717C42.0546 74.2916 44.6775 71.5636 46.0678 69.4489C47.4581 67.3343 46.4066 64.9568 46.4125 64.0104C46.4183 63.0641 49.5377 60.9845 50.6944 60.3244C51.851 59.6643 52.9258 56.6617 52.4585 53.7467Z" stroke="#263238" stroke-miterlimit="10"/>
<path d="M33.5726 61.2354L34.1568 62.9061C34.1568 62.9061 35.4127 63.3208 36.9432 61.6501" stroke="#263238" stroke-miterlimit="10" stroke-linecap="round"/>
<path d="M37.8892 69.0395C37.8892 69.0395 39.2795 68.8993 39.8403 66.9482" stroke="#263238" stroke-miterlimit="10" stroke-linecap="round"/>
<path d="M32.5971 59.8399C32.5971 59.8399 33.0118 58.584 35.5179 58.584" stroke="#263238" stroke-miterlimit="10" stroke-linecap="round"/>
<path d="M45.443 42.7876C43.622 42.5258 41.7856 42.3853 39.946 42.367C39.946 42.367 34.4432 39.1951 29.1566 42.5773C23.8699 45.9596 26.411 51.883 26.411 53.361C26.411 54.8389 24.717 54.8447 25.7743 56.7491C26.8316 58.6535 30.4067 57.602 30.4067 57.602C30.4445 56.8837 30.6343 56.1816 30.9636 55.5422C31.2929 54.9027 31.7541 54.3405 32.3169 53.8925C34.2213 52.4146 35.7401 52.0933 36.371 52.5198C36.371 52.5198 35.9504 55.6918 36.5813 56.9594C36.5813 56.9594 38.6959 58.0167 39.3327 58.0167C39.9694 58.0167 38.9179 58.9105 41.0267 59.7049C41.4109 59.8429 41.8219 59.8899 42.2273 59.8423C42.6328 59.7947 43.0216 59.6537 43.3634 59.4304C43.673 58.1452 44.3506 56.2117 45.6124 56.6615C47.4642 57.3216 49.1524 61.878 46.6464 63.4319C49.6606 63.981 53.3116 58.6476 53.5278 53.7874C53.7439 48.9272 48.5741 43.3368 45.443 42.7876Z" fill="#263238"/>
<path d="M36.4644 50.4352C36.4644 50.4352 38.0182 49.5999 39.9226 51.3874C41.827 53.1749 45.5305 55.5641 50.4375 54.2498" stroke="white" stroke-width="0.5" stroke-linecap="round" stroke-linejoin="round"/>
<path d="M36.2482 49.0027C36.2482 49.0027 37.3172 47.332 39.1047 47.332C40.8923 47.332 45.069 49.8381 48.4046 49.8381" stroke="white" stroke-width="0.5" stroke-linecap="round" stroke-linejoin="round"/>
<path d="M35.0332 52.2229C35.0332 52.2229 33.0062 49.7227 31.1018 51.7497C29.1975 53.7768 30.4067 55.6928 30.4067 55.6928" stroke="white" stroke-width="0.5" stroke-linecap="round" stroke-linejoin="round"/>
<path d="M26.9308 53.8922C28.0924 52.8446 28.8145 51.3962 28.952 49.8381C29.1915 47.2152 32.7724 44.9487 35.0331 47.0984" stroke="white" stroke-width="0.5" stroke-linecap="round" stroke-linejoin="round"/>
<path d="M30.623 44.3539C30.623 44.3539 34.2039 40.8957 37.1831 45.3061" stroke="white" stroke-width="0.5" stroke-linecap="round" stroke-linejoin="round"/>
<path d="M59.7662 214.385C59.7662 214.385 61.9685 217.808 61.7231 220.01L61.4836 222.213C61.4836 222.213 53.4047 224.426 51.6931 224.426C49.9815 224.426 40.9212 223.568 40.9212 223.568L40.5298 222.014C40.5024 221.899 40.5153 221.778 40.5663 221.672C40.6174 221.566 40.7035 221.48 40.8102 221.43L48.8891 217.662L51.4361 214.875L59.7662 214.385Z" fill="white" stroke="#263238" stroke-width="1.00396" stroke-miterlimit="10"/>
<path d="M52.9198 222.703C55.1104 222.872 59.2697 221.535 61.6822 220.682L61.5128 222.212C61.5128 222.212 53.4047 224.426 51.6931 224.426C49.9815 224.426 40.9212 223.567 40.9212 223.567L40.6408 222.457C42.0895 222.463 50.0224 222.481 52.9198 222.703Z" fill="#0077B6" stroke="#263238" stroke-width="1.00396" stroke-miterlimit="10"/>
<path d="M48.9012 217.661L37.142 222.778C37.142 222.778 36.1373 225.296 37.142 225.799C38.1468 226.301 60.0528 225.799 60.0528 225.799C60.0528 225.799 61.5658 221.82 59.1766 219.151C56.7874 216.481 48.9012 217.661 48.9012 217.661Z" fill="white" stroke="#263238" stroke-width="1.00396" stroke-miterlimit="10"/>
<path d="M60.0529 225.799C60.0529 225.799 38.1468 226.301 37.1421 225.799C36.6572 225.553 36.6397 224.847 36.7507 224.175H60.4384C60.361 224.727 60.2319 225.271 60.0529 225.799Z" fill="#0077B6" stroke="#263238" stroke-width="1.00396" stroke-miterlimit="10"/>
<path d="M43.3399 128.747C43.3399 128.747 40.2672 142.363 39.1047 150.88C37.9422 159.397 37.2588 176.461 37.5041 178.418C37.7495 180.375 49.9818 213.164 49.9818 213.164L51.2027 216.084L59.7665 214.373C59.7665 214.373 55.8526 201.895 54.3864 195.043C52.9201 188.191 49.7131 176.934 49.7131 174.977C49.7131 173.02 57.3072 135.645 57.8504 133.192C58.3937 130.739 60.8589 126.971 60.8589 126.971L44.4615 126.638L43.3399 128.747Z" fill="#0077B6" stroke="#263238" stroke-width="1.00396" stroke-miterlimit="10"/>
<path d="M43.3397 128.748C43.3397 128.748 41.5404 141.185 42.2823 149.83C43.0242 158.476 44.619 176.883 44.619 179.623C44.619 182.362 49.0411 198.725 49.2923 203.865C49.6836 211.29 49.1345 214.964 49.1345 214.964L48.8717 217.657C48.8717 217.657 54.0298 218.393 55.1572 218.715C56.4594 219.05 57.8032 219.196 59.147 219.147C59.147 219.147 61.0222 210.893 61.0222 203.86C61.0222 196.826 59.4625 182.351 58.6856 176.486C57.9086 170.621 60.3563 147.996 61.7466 143.773C63.1369 139.549 66.1745 130.606 64.1299 126.038C62.0854 121.469 43.3397 128.748 43.3397 128.748Z" fill="#0077B6" stroke="#263238" stroke-width="1.00396" stroke-miterlimit="10"/>
<path d="M66.4026 123.746L66.2157 129.307C66.2157 129.307 62.886 129.967 58.3996 130.744C54.696 131.387 45.3962 130.575 42.2651 130.271C41.9798 130.246 41.716 130.109 41.5311 129.89C41.3462 129.671 41.2552 129.388 41.2779 129.103L41.5816 124.079L66.4026 123.746Z" fill="#263238"/>
<path d="M53.3876 68.3105C53.3876 68.3105 48.1302 73.9944 46.1499 77.5286C44.1696 81.0628 43.3868 86.4779 42.6449 90.7423C41.903 95.0067 43.9126 105.019 43.3459 109.617L41.5526 124.098C41.5526 124.098 41.167 125.079 42.458 126.154C43.749 127.229 50.0521 127.62 55.7477 127.907C57.8273 128.012 64.0369 126.674 65.0533 126.61C66.2801 126.534 66.321 124.974 66.3735 123.747C66.6189 117.982 67.6587 102.612 68.3422 95.918C69.75 82.2661 62.0449 69.0875 53.3876 68.3105Z" fill="white" stroke="#263238" stroke-width="1.00396" stroke-miterlimit="10"/>
<g style="mix-blend-mode:multiply">
<path d="M67.6993 103.682C67.9329 100.65 68.1666 97.8984 68.3711 95.9181C68.4295 95.3339 68.4645 94.7497 68.4937 94.1656L54.5264 96.5022L42.5278 92.4131C42.5291 94.8958 42.6695 97.3766 42.9484 99.8436L54.7192 103.138L67.6993 103.682Z" fill="#0077B6"/>
</g>
<g style="mix-blend-mode:multiply">
<path d="M52.8676 68.8828C52.0732 69.7649 50.4959 71.5583 48.9946 73.4626L57.8622 82.4762L60.783 81.3079L52.8676 68.8828Z" fill="#0077B6"/>
</g>
<path d="M53.3874 68.3105C53.3874 68.3105 48.1299 73.9944 46.1496 77.5286C45.5624 78.6027 45.0868 79.7341 44.7301 80.9051L55.3034 68.6902C54.6788 68.501 54.037 68.3738 53.3874 68.3105Z" fill="#263238"/>
<g style="mix-blend-mode:multiply">
<path d="M43.0533 88.4396L54.5262 92.2133L68.4584 90.6127C68.24 87.142 67.469 83.7284 66.1743 80.5008L54.9409 85.0047L44.8992 80.4541C44.0781 83.0641 43.4609 85.734 43.0533 88.4396Z" fill="#0077B6"/>
</g>
<g style="mix-blend-mode:multiply">
<path d="M62.8043 117.98C56.9853 118.957 51.0145 118.469 45.4313 116.561L42.6332 115.603L41.7628 122.612L44.9523 123.506C51.0157 125.202 57.353 125.69 63.6046 124.943L66.1807 124.634C66.3148 124.35 66.3903 124.042 66.4027 123.728C66.4728 122.168 66.5955 119.902 66.7532 117.302L62.8043 117.98Z" fill="#0077B6"/>
</g>
<g style="mix-blend-mode:multiply">
<path d="M64.3636 108.436C58.5444 109.417 52.5722 108.927 46.9907 107.011L43.4273 105.79C43.5157 107.063 43.4981 108.341 43.3747 109.61L42.96 112.981L46.5117 113.974C52.5727 115.671 58.9081 116.161 65.1581 115.417L66.9106 115.207C67.0566 112.87 67.226 110.382 67.4071 107.922L64.3636 108.436Z" fill="#0077B6"/>
</g>
<path d="M9.55865 83.7331L20.8536 92.8145L21.3404 92.209L10.0455 83.1276L9.55865 83.7331Z" fill="#263238"/>
<path d="M58.8262 74.6123C58.8262 74.6123 62.9679 77.4338 63.0614 84.0991C63.1023 87.0199 62.7985 89.7479 62.1267 94.5322C61.4549 99.3165 57.284 114.896 54.0361 116.789C50.7882 118.681 45.7469 115.106 45.7469 115.106L21.364 98.9192L15.4698 94.1583L12.549 88.6438L13.4661 86.8914L20.6571 92.4058L16.7842 88.8249L17.5436 87.8611L18.9456 88.8366L23.0347 90.3671L23.9284 96.2087L25.1902 97.0733L48.5158 105.596C48.5158 105.596 48.2237 93.0426 48.4398 90.6417C48.656 88.2408 48.9539 82.2064 51.5242 77.831" fill="white"/>
<g style="mix-blend-mode:multiply" opacity="0.5">
<path d="M48.3519 96.1106C48.3519 100.445 48.4979 105.597 48.4979 105.597L25.1958 97.1096L23.934 96.245L23.0402 90.4034L18.9511 88.8729L17.5549 87.8798L16.7955 88.8437L20.6568 92.4071L13.4658 86.8926L12.5954 88.6159L15.5162 94.1303L21.4104 98.9204L22.8942 99.9077L55.1106 110.288L48.3519 96.1106Z" fill="#0077B6"/>
</g>
<path d="M58.8262 74.6123C58.8262 74.6123 62.9679 77.4338 63.0614 84.0991C63.1023 87.0199 62.7985 89.7479 62.1267 94.5322C61.4549 99.3165 57.284 114.896 54.0361 116.789C50.7882 118.681 45.7469 115.106 45.7469 115.106L21.364 98.9192L15.4698 94.1583L12.549 88.6438L13.4661 86.8914L20.6571 92.4058L16.7842 88.8249L17.5436 87.8611L18.9456 88.8366L23.0347 90.3671L23.9284 96.2087L25.1902 97.0733L48.5158 105.596C48.5158 105.596 48.2237 93.0426 48.4398 90.6417C48.656 88.2408 48.9539 82.2064 51.5242 77.831" stroke="#263238" stroke-width="1.00396" stroke-miterlimit="10"/>
<path d="M48.5154 105.597L57.418 112.022L59.7255 107.933C59.7255 107.933 61.3202 106.677 61.5539 105.731C61.7876 104.785 61.4896 103.248 61.7291 102.302C61.9687 101.356 63.1603 100.468 63.2713 98.1777C63.3823 95.8878 63.2713 93.9776 63.2713 93.9776C63.2713 93.9776 65.1991 86.0505 64.9888 82.604C64.7785 79.1574 61.4546 73.0646 58.7908 72.9303C56.127 72.7959 52.663 73.199 49.9758 77.2647C47.2887 81.3305 47.8378 93.2006 47.4172 93.9425C46.9966 94.6844 47.5808 98.3471 47.5808 98.3471C47.3473 98.5212 47.1536 98.7431 47.0126 98.9979C46.8716 99.2528 46.7865 99.5347 46.763 99.825C46.7162 100.777 47.7443 103.12 47.7443 103.12L48.5154 105.597Z" fill="white" stroke="#263238" stroke-width="1.00396" stroke-miterlimit="10"/>
<g style="mix-blend-mode:multiply">
<path d="M47.651 90.8936C47.6694 91.9129 47.5931 92.9318 47.4232 93.937C47.0494 94.603 47.4758 97.6114 47.5693 98.2248C52.5766 99.78 57.8714 100.179 63.0554 99.3931C63.1667 98.9868 63.2333 98.5696 63.254 98.1488C63.3708 95.8648 63.254 93.9487 63.254 93.9487C63.254 93.9487 63.4234 93.2419 63.6571 92.167C58.2883 92.5083 52.8983 92.0794 47.651 90.8936Z" fill="#0077B6"/>
</g>
<g style="mix-blend-mode:multiply">
<path d="M49.6138 77.9141C48.7784 79.5906 48.3111 82.1083 48.0424 84.6611C53.3454 86.685 59.0631 87.3809 64.6968 86.6882C64.9216 85.3372 65.0213 83.9683 64.9947 82.599C64.8936 81.5167 64.6378 80.4544 64.2353 79.4446C59.3162 79.5594 54.4025 79.045 49.6138 77.9141Z" fill="#0077B6"/>
</g>
<path d="M47.7445 103.184L48.4981 105.596L57.4007 112.022L59.7082 107.933C59.7082 107.933 61.3029 106.677 61.5366 105.731C61.5783 105.566 61.6037 105.398 61.6125 105.228C56.9211 105.147 52.2598 104.46 47.7445 103.184Z" fill="#263238"/>
<path d="M54.188 218.637C54.188 218.637 54.3866 213.578 55.3563 206.183C56.326 198.787 53.9952 188.284 53.6038 186.532C53.2124 184.779 53.8024 180.889 53.411 179.522C53.0197 178.155 51.127 172.325 52.2427 165.56C53.3585 158.796 54.2639 140.915 54.2639 140.915C54.2639 140.915 51.4541 138.63 50.6304 135.657C49.8068 132.684 50.4377 131.749 50.4377 131.749" stroke="#263238" stroke-width="1.00396" stroke-miterlimit="10"/>
<path d="M55.4904 132.023L54.4097 138.005" stroke="#263238" stroke-width="1.00396" stroke-miterlimit="10"/>
</svg>
