<svg width="32" height="32" viewBox="0 0 32 32" fill="none" xmlns="http://www.w3.org/2000/svg">
<g clip-path="url(#clip0_369_8479)">
<path d="M27.024 2.18555H5.41597C3.71114 2.18555 2.3291 3.56758 2.3291 5.27242V26.8805C2.3291 28.5853 3.71114 29.9674 5.41597 29.9674H27.024C28.7289 29.9674 30.1109 28.5853 30.1109 26.8805V5.27242C30.1109 3.56758 28.7289 2.18555 27.024 2.18555Z" stroke="#252525" stroke-width="2" stroke-linecap="round" stroke-linejoin="round"/>
<path d="M10.8178 12.9894C12.0965 12.9894 13.133 11.9529 13.133 10.6743C13.133 9.39566 12.0965 8.35913 10.8178 8.35913C9.53921 8.35913 8.50269 9.39566 8.50269 10.6743C8.50269 11.9529 9.53921 12.9894 10.8178 12.9894Z" stroke="#252525" stroke-linecap="round" stroke-linejoin="round"/>
<path d="M29.9399 20.5237L22.4399 12.7964L5.93994 29.7964" stroke="#252525" stroke-width="2" stroke-linecap="round" stroke-linejoin="round"/>
</g>
<defs>
<clipPath id="clip0_369_8479">
<rect width="30.56" height="31.023" fill="white" transform="translate(0.939941 0.796387)"/>
</clipPath>
</defs>
</svg>
