<svg width="22" height="7" viewBox="0 0 22 7" fill="none" xmlns="http://www.w3.org/2000/svg">
<g clip-path="url(#clip0_3165_2063)">
<path d="M10.0567 4.0481C10.0567 4.60038 10.5554 5.0481 11.1707 5.0481C11.7859 5.0481 12.2847 4.60038 12.2847 4.0481C12.2847 3.49581 11.7859 3.0481 11.1707 3.0481C10.5554 3.0481 10.0567 3.49581 10.0567 4.0481Z" stroke="black" stroke-width="2" stroke-linecap="round" stroke-linejoin="round"/>
<path d="M17.8548 4.0481C17.8548 4.60038 18.3535 5.0481 18.9688 5.0481C19.584 5.0481 20.0828 4.60038 20.0828 4.0481C20.0828 3.49581 19.584 3.0481 18.9688 3.0481C18.3535 3.0481 17.8548 3.49581 17.8548 4.0481Z" stroke="black" stroke-width="2" stroke-linecap="round" stroke-linejoin="round"/>
<path d="M2.25884 4.0481C2.25884 4.60038 2.75759 5.0481 3.37283 5.0481C3.98807 5.0481 4.48682 4.60038 4.48682 4.0481C4.48682 3.49581 3.98807 3.0481 3.37283 3.0481C2.75759 3.0481 2.25884 3.49581 2.25884 4.0481Z" stroke="black" stroke-width="2" stroke-linecap="round" stroke-linejoin="round"/>
</g>
<defs>
<clipPath id="clip0_3165_2063">
<rect width="6" height="21.1658" fill="white" transform="translate(21.498 0.748779) rotate(90)"/>
</clipPath>
</defs>
</svg>
