<svg width="29" height="26" viewBox="0 0 29 26" fill="none" xmlns="http://www.w3.org/2000/svg">
<path d="M25.918 3.12177C25.2583 2.44911 24.475 1.9155 23.6129 1.55144C22.7507 1.18738 21.8267 1 20.8934 1C19.9602 1 19.0361 1.18738 18.174 1.55144C17.3119 1.9155 16.5286 2.44911 15.8688 3.12177L14.4997 4.51714L13.1305 3.12177C11.7979 1.76368 9.99047 1.0007 8.10587 1.0007C6.22128 1.0007 4.41387 1.76368 3.08126 3.12177C1.74865 4.47987 1 6.32185 1 8.24249C1 10.1631 1.74865 12.0051 3.08126 13.3632L4.45043 14.7586L14.4997 25L24.5489 14.7586L25.918 13.3632C26.5781 12.6909 27.1017 11.8926 27.4589 11.0139C27.8161 10.1353 28 9.19356 28 8.24249C28 7.29142 27.8161 6.34967 27.4589 5.47104C27.1017 4.59241 26.5781 3.79412 25.918 3.12177V3.12177Z" stroke="white" stroke-width="2" stroke-linecap="round" stroke-linejoin="round"/>
</svg>
