<svg width="20" height="24" viewBox="0 0 20 24" fill="none" xmlns="http://www.w3.org/2000/svg">
<path d="M17.3969 20.708C16.5868 20.646 16.6638 19.896 17.4279 19.755C18.6969 19.521 19.255 18.841 19.255 18.212C19.255 17.683 18.8589 17.19 18.1569 17.031C17.3199 16.842 17.4929 16.274 18.1879 16.219C19.32 16.129 19.876 15.455 19.876 14.809C19.876 14.244 19.451 13.701 18.6149 13.589C17.7579 13.474 18.0369 12.855 18.6459 12.667C19.167 12.507 20 12.167 20 11.157C20 10.485 19.5 9.595 17.7289 9.667C16.5008 9.717 14.0617 9.469 12.7496 8.782C13.6567 5.125 13.4387 0 11.0626 0C9.46847 0 9.16646 1.807 8.68743 3.469C6.96935 9.438 3.53118 10.531 0 11.072V21C6.68833 21 8.50042 24 13.5057 24C16.7048 24 18.3579 22.265 18.3579 21.334C18.3569 21 18.0849 20.762 17.3969 20.708Z" fill="#333333"/>
</svg>
