<svg width="27" height="36" viewBox="0 0 27 36" fill="none" xmlns="http://www.w3.org/2000/svg">
<ellipse cx="23.6093" cy="15.5572" rx="1.55112" ry="1.5" transform="rotate(-85.8116 23.6093 15.5572)" fill="#252525"/>
<path d="M24.3631 15.1129L24.0423 15.5244L24.1963 16.023C24.2825 16.3017 24.328 16.5987 24.3337 16.9063C24.3319 17.5686 24.1072 18.2083 23.6968 18.7348L23.376 19.1463L23.5301 19.6449C23.6172 19.9267 23.661 20.2184 23.661 20.5169C23.661 21.1821 23.4362 21.8249 23.0241 22.3535L22.7033 22.7651L22.8573 23.2636C22.9444 23.5455 22.9882 23.8371 22.9882 24.1357C22.9882 25.3453 22.2471 26.4561 21.061 26.9472L21.061 26.9472L21.0554 26.9495C20.9145 27.0088 20.7547 27.0415 20.5822 27.0415H6.2325V14.7121L8.99583 5.00006L8.99602 4.99936C9.31755 3.86621 10.4064 3.04153 11.6675 3.04153L11.6711 3.04152C12.0124 3.04029 12.3496 3.10706 12.6616 3.23691C12.9736 3.36675 13.2527 3.55645 13.4826 3.79272L13.4841 3.79427C13.9556 4.27669 14.1909 4.89655 14.1592 5.55127C14.1592 5.55145 14.1592 5.55163 14.1592 5.55181L13.9643 9.42753L13.9114 10.4778H14.963H22.7565H22.7574C22.9768 10.4776 23.1906 10.5344 23.3764 10.6401C24.4036 11.2251 25 12.2486 25 13.2763C25 13.9415 24.7752 14.5843 24.3631 15.1129ZM1.00082 27.0286C1.00051 27.0283 1.00024 27.028 1 27.0278V15.552C1.00024 15.5518 1.00051 15.5515 1.00082 15.5512C1.00363 15.5485 1.00805 15.5453 1.01411 15.5428C1.0196 15.5405 1.02777 15.5383 1.04 15.5383H2.1525V27.0415H1.04C1.02777 27.0415 1.0196 27.0393 1.01411 27.037C1.00805 27.0345 1.00362 27.0313 1.00082 27.0286ZM1 15.5478C0.999999 15.5478 1 15.5479 1 15.5479L1 15.5478Z" stroke="#252525" stroke-width="2"/>
</svg>
