<svg width="31" height="31" viewBox="0 0 31 31" fill="none" xmlns="http://www.w3.org/2000/svg">
<path d="M26.8943 6.05923C26.244 5.40856 25.4718 4.8924 24.6219 4.54025C23.772 4.18809 22.861 4.00684 21.9411 4.00684C21.0211 4.00684 20.1101 4.18809 19.2602 4.54025C18.4103 4.8924 17.6382 5.40856 16.9878 6.05923L15.6381 7.40896L14.2883 6.05923C12.9746 4.74554 11.1929 4.00752 9.33505 4.00752C7.47722 4.00752 5.69548 4.74554 4.38179 6.05923C3.0681 7.37292 2.33008 9.15466 2.33008 11.0125C2.33008 12.8703 3.0681 14.6521 4.38179 15.9658L5.73152 17.3155L15.6381 27.222L25.5446 17.3155L26.8943 15.9658C27.545 15.3154 28.0611 14.5432 28.4133 13.6933C28.7655 12.8434 28.9467 11.9325 28.9467 11.0125C28.9467 10.0925 28.7655 9.18157 28.4133 8.33167C28.0611 7.48178 27.545 6.70959 26.8943 6.05923V6.05923Z" stroke="black" stroke-width="2" stroke-linecap="round" stroke-linejoin="round"/>
</svg>
