<svg width="9" height="11" viewBox="0 0 9 11" fill="none" xmlns="http://www.w3.org/2000/svg">
<path d="M4.08333 10.502C3.34655 9.87358 2.66361 9.1846 2.04167 8.4423C1.10833 7.32755 5.12688e-07 5.66738 5.12688e-07 4.08538C-0.000404261 3.27744 0.23888 2.48754 0.687572 1.81565C1.13626 1.14375 1.77419 0.620065 2.52062 0.310863C3.26706 0.00166059 4.08844 -0.0791583 4.88082 0.0786343C5.6732 0.236427 6.40096 0.625738 6.972 1.1973C7.35219 1.5758 7.65354 2.02594 7.8586 2.52168C8.06367 3.01742 8.16838 3.54891 8.16667 4.08538C8.16667 5.66738 7.05834 7.32755 6.125 8.4423C5.50305 9.1846 4.82012 9.87358 4.08333 10.502ZM4.08333 2.33538C3.61921 2.33538 3.17409 2.51976 2.8459 2.84794C2.51771 3.17613 2.33333 3.62125 2.33333 4.08538C2.33333 4.54951 2.51771 4.99463 2.8459 5.32282C3.17409 5.65101 3.61921 5.83538 4.08333 5.83538C4.54746 5.83538 4.99258 5.65101 5.32077 5.32282C5.64896 4.99463 5.83333 4.54951 5.83333 4.08538C5.83333 3.62125 5.64896 3.17613 5.32077 2.84794C4.99258 2.51976 4.54746 2.33538 4.08333 2.33538Z" fill="#252525"/>
</svg>
