<svg width="300" height="300" viewBox="0 0 300 300" fill="none" xmlns="http://www.w3.org/2000/svg">
<rect width="300" height="300" fill="white"/>
<path fill-rule="evenodd" clip-rule="evenodd" d="M255.036 240.898C249.029 188.45 282.959 82.4165 230.796 54.0538C149.879 10.0571 31.9037 71.5082 39.9951 170.736C45.7163 240.898 261.83 300.209 255.036 240.898Z" fill="#CF75F9"/>
<path d="M176.389 78.5709C176.188 77.9822 175.957 77.4432 175.881 76.8832C175.725 75.7308 175.599 74.5691 175.556 73.4077C175.466 70.9976 175.437 68.1852 175.385 65.7737C175.377 65.406 175.305 65.0301 175.897 65.0093C176.49 64.9884 179.32 63.1825 179.32 64.5536C179.32 67.3994 179.717 71.7552 179.966 74.5516C180.046 75.4551 180.421 76.1914 180.441 77.2405C180.474 79.0089 177.351 78.55 176.389 78.5709Z" fill="white"/>
<path fill-rule="evenodd" clip-rule="evenodd" d="M136.929 52.8713C136.308 52.9249 135.687 53.018 135.066 53.0259C131.211 53.0748 127.356 53.1007 123.502 53.1491C123.271 53.152 122.24 53.155 122.009 53.1581C120.998 53.1716 119.987 53.1868 118.976 53.2045C118.503 53.2129 118.83 53.2272 118.358 53.2457C116.677 53.3114 114.996 53.4296 113.316 53.5156C112.373 53.5638 111.429 53.6018 110.488 53.6794C108.03 53.8822 95.974 54.5104 93.5159 54.7144C92.9358 54.7625 92.6027 54.9068 92.6508 55.621C92.759 57.23 92.8002 86.845 92.8132 88.458C92.817 88.9314 92.9484 89.0359 93.3879 88.9986C94.8696 88.8729 105.954 88.3756 107.437 88.2703C108.974 88.1612 110.51 88.0408 112.048 87.9518C114.147 87.8303 116.247 87.7383 118.346 87.6214C118.648 87.6047 118.944 87.5064 119.245 87.4679C120.545 87.3019 121.843 87.1249 123.146 86.9887C124.412 86.8563 125.682 86.7471 126.952 86.666C129.699 86.4907 132.445 86.3046 135.195 86.1895C137.663 86.0861 140.135 86.0731 142.605 86.0178C144.915 85.966 147.224 85.9071 149.534 85.8583C152.272 85.8005 155.01 85.7432 157.748 85.6982C161.425 85.6377 165.101 85.5978 168.777 85.532C170.605 85.4993 172.431 85.4314 174.258 85.3739C175.818 85.3247 177.376 85.2479 178.936 85.218C182.397 85.1515 185.859 85.1029 189.321 85.0541C193.426 84.9963 197.532 84.9716 201.636 84.8835C204.514 84.8217 211.791 84.6827 214.667 84.5558C214.807 84.5496 215.053 84.3299 215.056 84.2056C215.084 82.8394 215.073 53.4723 215.074 52.1055C215.075 51.5262 214.74 51.1992 214.218 51.1132C213.604 51.0121 212.978 50.9662 212.356 50.9464C210.235 50.8792 203.712 50.7816 201.591 50.7898C193.894 50.8196 186.198 50.8791 178.502 50.9448C177.645 50.9521 176.788 50.9591 175.931 50.9669C172.87 50.9945 169.809 51.0311 166.749 51.1203C164.857 51.1755 162.97 51.4368 161.079 51.5812C158.788 51.7562 156.496 51.9076 154.204 52.0664C153.369 52.1243 152.533 52.173 151.698 52.2282C149.272 52.3883 146.848 52.5918 144.419 52.6986C141.978 52.806 139.533 52.8177 136.929 52.8713Z" fill="white"/>
<path fill-rule="evenodd" clip-rule="evenodd" d="M88.5979 40.5688C87.5331 40.4655 86.4783 40.2581 85.4195 40.0945C85.3475 40.0834 85.2796 40.0451 85.2098 40.0195C85.2763 39.9915 85.3409 39.956 85.41 39.9381C85.4603 39.9251 85.5166 39.9367 85.5702 39.9354C87.8533 39.882 90.1369 39.8448 92.4194 39.7705C95.1633 39.6812 97.9064 39.5637 100.65 39.4513C101.7 39.4083 102.749 39.3347 103.8 39.2948C105.466 39.2316 107.133 39.1889 108.799 39.1301C110.145 39.0827 111.489 39.0209 112.834 38.9712C115.792 38.8618 118.75 38.7595 121.708 38.6471C122.839 38.6042 123.968 38.5289 125.099 38.4909C127.007 38.4268 128.915 38.3861 130.822 38.3254C132.221 38.2809 133.619 38.216 135.018 38.1674C136.685 38.1094 138.351 38.0637 140.018 38.004C141.309 37.9578 142.6 37.8868 143.892 37.8473C145.96 37.7839 148.029 37.7419 150.098 37.6824C151.711 37.636 153.323 37.5742 154.936 37.5236C156.737 37.4672 158.538 37.4158 160.338 37.3622C162.139 37.3085 163.939 37.2537 165.74 37.2017C167.648 37.1465 169.556 37.0949 171.464 37.0402C173.3 36.9877 175.137 36.9306 176.973 36.8803C179.042 36.8237 181.111 36.7727 183.179 36.7187C185.221 36.6655 187.263 36.6105 189.305 36.5583C191.454 36.5033 193.603 36.4513 195.752 36.397C197.848 36.344 199.944 36.3087 202.038 36.2302C203.637 36.1703 205.233 36.0489 206.832 35.9712C207.068 35.9597 207.31 36.0735 207.548 36.0702C210.85 36.0244 214.152 35.9733 217.453 35.9129C219.924 35.8678 222.395 35.8053 224.866 35.7543C227.578 35.6983 230.289 35.6281 233.002 35.5988C234.409 35.5862 235.334 36.2212 235.666 37.5489C235.831 38.2105 235.744 38.9381 235.749 39.636C235.762 41.4298 235.783 43.2239 235.76 45.0174C235.746 46.1346 235.657 47.2508 235.604 48.3675C235.594 48.58 235.592 48.793 235.592 49.0058C235.591 51.3471 235.609 53.6886 235.587 56.0297C235.548 60.1357 235.487 64.2416 235.429 68.3474C235.381 71.7565 235.323 75.1654 235.269 78.5743C235.215 82.0369 235.162 85.4995 235.108 88.962C235.055 92.371 235.009 95.7801 234.945 99.1888C234.907 101.204 234.827 103.219 234.791 105.234C234.767 106.637 234.802 108.04 234.784 109.443C234.739 112.906 234.687 116.369 234.623 119.831C234.586 121.82 234.504 123.807 234.47 125.796C234.445 127.225 234.485 128.656 234.46 130.085C234.426 132.047 234.342 134.008 234.309 135.97C234.284 137.48 234.325 138.991 234.299 140.501C234.268 142.302 234.18 144.102 234.149 145.903C234.123 147.359 234.159 148.816 234.14 150.273C234.096 153.816 234.039 157.359 233.982 160.902C233.932 163.935 233.881 166.969 233.82 170.003C233.776 172.206 233.699 174.408 233.666 176.611C233.641 178.308 233.682 180.007 233.655 181.705C233.628 183.452 233.534 185.198 233.506 186.946C233.479 188.616 233.521 190.288 233.494 191.959C233.468 193.546 233.37 195.131 233.345 196.718C233.318 198.415 233.356 200.114 233.336 201.811C233.294 205.328 233.234 208.844 233.178 212.36C233.128 215.447 233.129 218.537 233.001 221.621C232.878 224.587 233.561 227.338 235.036 229.87C236.539 232.45 238.149 234.967 239.746 237.491C241.324 239.985 242.709 242.582 243.443 245.445C243.967 247.489 244.044 249.611 243.456 251.68C243.255 252.388 242.029 257.269 243.072 258.537C244.41 260.165 246.102 260.895 248.186 260.943C250.217 260.989 252.145 260.495 254.092 260.044C256.458 259.496 258.835 259.101 261.218 259.965C262.403 260.396 263.472 261.003 264.173 262.101C264.28 262.268 264.54 262.549 263.973 262.552C262.601 262.559 261.23 262.644 259.858 262.698C257.115 262.805 254.372 262.915 251.628 263.018C250.042 263.078 248.456 263.129 246.87 263.18C245.096 263.236 243.322 263.291 241.548 263.34C239.48 263.398 237.411 263.453 235.342 263.501C232.764 263.56 230.186 263.614 227.608 263.662C224.441 263.72 221.273 263.777 218.105 263.822C213.892 263.882 209.679 263.925 205.466 263.987C202.593 264.029 199.72 264.093 196.847 264.144C196.356 264.153 195.864 264.142 195.372 264.146C189.443 264.199 183.515 264.253 177.586 264.306C177.068 264.31 176.549 264.302 176.031 264.307C169.968 264.359 163.905 264.414 157.842 264.466C157.297 264.471 156.752 264.463 156.206 264.468C150.197 264.52 144.188 264.575 138.179 264.627C137.66 264.632 137.142 264.624 136.623 264.628C130.561 264.681 124.498 264.735 118.435 264.788C117.944 264.792 117.452 264.785 116.96 264.789C110.897 264.842 104.835 264.896 98.7718 264.949C98.2534 264.953 97.7348 264.946 97.2163 264.95C91.1536 265.003 85.0908 265.057 79.0281 265.11C78.5632 265.114 78.0983 265.107 77.6334 265.111C71.4634 265.164 65.2935 265.217 59.1235 265.274C59.025 265.275 58.927 265.325 58.8287 265.392C58.8287 265.432 58.7483 265.432 58.7081 265.432C58.4913 265.378 58.3153 265.28 58.1382 265.278C56.932 265.265 55.7257 265.274 54.5194 265.267C54.4042 265.267 54.2892 265.211 54.1741 265.181C54.2716 265.158 54.3697 265.136 54.4664 265.11C57.0462 264.414 59.6078 263.637 62.2123 263.05C63.6887 262.718 65.2327 262.666 66.751 262.547C68.0386 262.446 69.3325 262.412 70.6243 262.385C71.1138 262.375 71.0732 262.265 70.9445 261.839C70.4028 260.048 69.7799 258.258 69.4929 256.419C69.2545 254.893 69.3843 253.296 69.4642 251.736C69.5215 250.618 69.6846 249.49 69.9479 248.402C70.251 247.149 70.6507 245.91 71.124 244.711C72.3728 241.546 74.5936 239.074 76.8893 236.633C78.2614 235.174 79.5062 233.571 80.63 231.912C81.3095 230.909 81.6751 229.685 81.67 228.41C81.662 226.4 81.6874 224.389 81.6633 222.379C81.6275 219.399 81.5647 216.419 81.5058 213.439C81.4585 211.048 81.3848 208.658 81.3495 206.267C81.2844 201.867 81.2636 197.465 81.1754 193.065C81.1285 190.724 80.9261 188.386 80.892 186.046C80.8631 184.057 81.0387 182.065 81.0093 180.076C80.9673 177.249 80.8146 174.424 80.7263 171.598C80.7162 171.275 80.8595 170.949 80.8571 170.626C80.8124 164.455 80.7316 158.285 80.7092 152.115C80.6823 144.654 80.7234 137.192 80.6964 129.731C80.6744 123.641 80.5519 117.552 80.5538 111.462C80.5558 104.783 80.6596 98.1033 80.6988 91.4238C80.7211 87.635 80.6825 83.8458 80.7094 80.0571C80.7302 77.1304 80.8138 74.2041 80.8614 71.2775C80.876 70.3839 80.8545 69.4898 80.8653 68.5961C80.9153 64.4633 80.9795 60.3306 81.0209 56.1977C81.0417 54.1246 81.0036 52.0509 81.0306 49.9779C81.0558 48.0429 81.1323 46.1085 81.1847 44.1738C81.191 43.9407 81.1883 43.7073 81.1898 43.474C81.242 43.7325 81.3113 43.9888 81.3434 44.2497C81.5632 46.0367 81.7813 47.8239 81.9863 49.6126C82.0603 50.2583 82.1042 50.9077 82.1489 51.5562C82.2606 53.1735 82.3636 54.7914 82.4724 56.4089C82.632 58.7817 92.326 60.9593 92.3474 60.7001C92.4333 60.9486 92.5248 61.1952 92.604 61.4458C93.3221 63.7166 93.7719 66.0362 94.0742 68.4026C94.5032 71.7612 94.5382 75.1258 94.5378 78.4992C94.5336 122.355 94.5373 166.21 94.5146 210.065C94.5143 210.774 94.7321 211.055 95.3726 211.241C97.4749 211.848 99.6367 212.069 101.781 211.842C105.836 211.412 113.107 209.987 116.299 207.335C118.85 205.216 120.665 202.625 121.744 199.541C122.166 198.335 122.263 197.002 122.405 195.716C122.536 194.541 122.653 193.34 122.555 192.168C122.389 190.179 122.07 188.202 121.777 186.225C121.539 184.616 121.198 183.022 120.985 181.411C120.675 179.061 120.372 176.707 120.19 174.345C120.038 172.365 119.893 170.357 120.045 168.385C120.355 164.355 120.985 160.363 122.097 156.461C123.285 152.289 124.942 148.308 127.003 144.501C128.536 141.669 130.292 138.968 132.404 136.528C134.041 134.637 135.742 132.799 137.467 130.987C138.202 130.216 139.087 129.59 139.878 128.869C142.884 126.128 145.085 122.749 147.356 119.424C149.129 116.828 147.216 114.161 149.163 111.702C151.726 108.462 154.872 105.895 158.959 104.765C160.462 104.35 162.009 104.084 163.544 103.794C166.804 103.179 170.107 103.217 173.395 103.333C176.811 103.453 180.057 104.314 182.974 106.199C185.377 107.753 187.122 109.932 188.608 112.306C190.346 115.082 191.988 117.92 193.602 120.77C195.679 124.435 197.694 128.134 199.721 131.826C200.811 133.812 201.885 135.806 202.94 137.811C205.13 141.969 213.485 158.346 215.487 162.368C215.562 162.518 215.654 162.66 215.738 162.806C215.815 162.623 215.949 162.444 215.96 162.258C216.081 160.185 216.185 158.112 216.29 156.038C216.399 153.885 216.507 151.731 216.611 149.577C216.721 147.316 216.83 145.055 216.933 142.794C217.044 140.346 217.152 137.897 217.254 135.449C217.366 132.759 217.471 130.069 217.577 127.379C217.633 125.954 217.687 124.528 217.737 123.103C217.794 121.517 217.845 119.931 217.899 118.344C217.952 116.785 218.01 115.226 218.059 113.666C218.116 111.812 218.167 109.958 218.22 108.104C218.275 106.196 218.331 104.288 218.38 102.38C218.438 100.124 218.491 97.8674 218.541 95.611C218.598 93.0331 218.656 90.4551 218.701 87.8769C218.761 84.4948 218.803 81.1124 218.866 77.7304C218.905 75.6882 219 73.6468 219.018 71.6046C219.044 68.5933 219.005 65.5814 219.031 62.5701C219.048 60.6351 219.135 58.7008 219.18 56.766C219.185 56.5716 219.116 56.3756 219.081 56.1803C218.916 56.2998 218.726 56.3963 218.59 56.5424C217.544 57.6609 216.222 58.0601 214.734 58.1175C212.445 58.2058 210.285 57.5307 208.09 57.0633C205.987 56.6156 203.873 56.1147 201.718 56.3721C200.437 56.525 199.167 56.9083 197.938 57.3236C195.956 57.9933 194.069 57.7902 192.192 56.9865C190.37 56.2069 188.566 55.3794 186.709 54.692C185.039 54.0732 183.266 54.0793 181.646 54.7859C180.855 55.1308 180.061 55.8706 179.664 56.6367C178.736 58.4285 177.335 59.262 175.411 59.5785C172.872 59.9962 170.633 59.1427 168.376 58.2161C166.543 57.4636 164.729 56.6163 162.83 56.0862C160.295 55.3787 157.965 56.1463 155.864 57.6584C154.543 58.609 153.298 59.7027 151.875 60.4658C149.968 61.4892 147.188 61.6364 145.683 59.9475C145.42 59.652 145.152 59.2977 145.056 58.9267C144.676 57.4577 143.725 57.1414 142.404 56.9888C140.502 56.7691 139.105 57.7922 137.725 58.8965C136.448 59.9187 135.257 61.0559 133.522 61.3756C132.144 61.6294 130.848 61.4489 129.627 60.9237C127.555 60.0332 125.522 59.0461 123.506 58.0342C121.702 57.129 119.775 56.6784 117.84 57.0479C116.593 57.2859 115.419 58.0614 114.292 58.7299C112.925 59.5407 111.703 60.6077 110.308 61.358C107.907 62.6489 105.755 62.6779 102.681 62.1741C99.6057 61.6702 92.1876 56.8643 91.8164 56.3721C91.7647 56.3035 90.6187 40.7647 88.5979 40.5688Z" fill="white"/>
<path fill-rule="evenodd" clip-rule="evenodd" d="M135.18 203.892C134.518 199.049 134.336 194.605 134.634 190.56C134.932 186.514 135.85 180.562 137.388 172.704C134.446 180.456 132.698 186.408 132.143 190.56C131.588 194.711 131.91 199.651 133.109 205.378L135.18 203.892Z" fill="#CF75F9"/>
<path fill-rule="evenodd" clip-rule="evenodd" d="M178.443 145.569C181.358 145.29 183.202 145.871 183.757 147.522C184.695 150.312 177.863 154.043 175.453 153.819C174.608 153.044 182.999 150.95 182.24 148.032C182.047 147.289 180.853 146.946 178.595 147.162C178.155 147.204 177.765 146.881 177.723 146.441C177.681 146.001 178.003 145.611 178.443 145.569Z" fill="#00160A"/>
<path fill-rule="evenodd" clip-rule="evenodd" d="M192.823 220.164C192.609 219.655 192.913 216.496 194.589 213.471C197.363 208.46 209.433 206.799 213.952 202.239C219.685 196.455 217.261 189.665 216.95 189.032C216.875 188.88 216.846 188.706 216.796 188.542C216.929 188.628 217.085 188.693 217.191 188.804C219.06 190.765 220.297 193.09 220.869 195.717C221.482 198.532 221.679 201.38 220.295 204.056C219.991 204.642 219.372 205.115 218.807 205.507C217.101 206.692 208.737 209.97 206.397 210.439C204.14 210.892 202.183 211.936 200.106 212.755C198.831 213.258 198.136 214.429 197.136 215.242C196.081 216.1 195.778 217.151 195.872 218.418C195.9 218.792 195.861 219.169 195.879 219.544C195.99 221.952 193.481 221.728 192.823 220.164Z" fill="#CF75F9"/>
<path fill-rule="evenodd" clip-rule="evenodd" d="M144.671 153.2C145.821 153.2 146.248 152.305 145.639 151.2C145.043 150.095 143.876 149.2 143.02 149.2C142.165 149.2 141.707 150.095 142.01 151.2C142.325 152.305 143.522 153.2 144.671 153.2Z" fill="#FFB61D"/>
<path fill-rule="evenodd" clip-rule="evenodd" d="M167.071 158.4C168.22 158.4 168.648 157.505 168.039 156.4C167.443 155.296 166.276 154.4 165.42 154.4C164.565 154.4 164.107 155.296 164.41 156.4C164.725 157.505 165.922 158.4 167.071 158.4Z" fill="#FFB61D"/>
<path fill-rule="evenodd" clip-rule="evenodd" d="M234.602 35.1987C236.009 35.1862 236.934 35.8212 237.266 37.149C237.431 37.8105 237.344 38.5381 237.349 39.236C237.362 41.0298 237.383 42.8239 237.36 44.6174C237.345 45.7346 237.257 46.8508 237.204 47.9676C237.194 48.18 237.192 48.3931 237.191 48.6058C237.191 50.9471 237.209 53.2886 237.187 55.6297C237.148 59.7358 237.087 63.8416 237.029 67.9475C236.981 71.3565 236.923 74.7654 236.869 78.1743C236.815 81.6369 236.762 85.0995 236.708 88.562C236.655 91.971 236.609 95.3801 236.545 98.7888C236.507 100.804 236.427 102.819 236.391 104.834C236.367 106.237 236.402 107.64 236.384 109.043C236.339 112.506 236.287 115.969 236.223 119.431C236.186 121.42 236.104 123.407 236.07 125.396C236.045 126.825 236.085 128.256 236.06 129.685C236.026 131.647 235.942 133.608 235.909 135.57C235.884 137.08 235.925 138.591 235.899 140.101C235.868 141.902 235.78 143.702 235.749 145.503C235.723 146.959 235.759 148.416 235.74 149.873C235.696 153.416 235.639 156.959 235.582 160.502C235.532 163.535 235.481 166.569 235.42 169.603C235.376 171.806 235.299 174.008 235.266 176.211C235.241 177.908 235.282 179.607 235.255 181.305C235.228 183.052 235.134 184.798 235.106 186.546C235.079 188.216 235.121 189.888 235.094 191.559C235.068 193.146 234.97 194.731 234.945 196.318C234.918 198.015 234.956 199.714 234.936 201.411C234.894 204.928 234.834 208.444 234.778 211.96C234.728 215.047 234.729 218.137 234.601 221.221C234.478 224.187 235.161 226.938 236.636 229.47C238.139 232.05 239.749 234.567 241.346 237.091C242.924 239.585 244.309 242.182 245.043 245.045C245.567 247.089 245.644 249.211 245.056 251.28C244.855 251.988 243.629 256.869 244.672 258.137C246.01 259.765 247.702 260.495 249.786 260.543C251.817 260.589 253.745 260.095 255.692 259.644C258.058 259.096 260.435 258.701 262.818 259.565C264.003 259.996 265.072 260.603 265.773 261.701C265.88 261.868 266.14 262.149 265.573 262.152C264.201 262.159 262.83 262.244 261.458 262.298C258.715 262.405 255.971 262.515 253.228 262.618C251.642 262.678 250.056 262.729 248.469 262.78C246.696 262.836 244.922 262.891 243.148 262.94C241.08 262.998 239.011 263.053 236.942 263.101C234.364 263.16 231.786 263.214 229.208 263.262C226.041 263.32 222.873 263.377 219.705 263.422C215.492 263.482 211.279 263.525 207.066 263.587C204.193 263.629 201.32 263.693 198.447 263.744C197.956 263.753 197.464 263.742 196.972 263.746C191.043 263.799 185.115 263.853 179.186 263.906C178.668 263.91 178.149 263.902 177.631 263.907C171.568 263.959 165.505 264.014 159.442 264.066L157.806 264.068C151.797 264.12 145.788 264.175 139.779 264.227C139.26 264.232 138.742 264.224 138.223 264.228C132.161 264.281 126.098 264.335 120.035 264.388C119.544 264.392 119.052 264.385 118.56 264.389C112.497 264.442 106.435 264.496 100.372 264.549C99.8534 264.553 99.3348 264.546 98.8163 264.55C92.7536 264.603 86.6908 264.657 80.6281 264.71C80.1632 264.714 79.6983 264.707 79.2334 264.711C73.0634 264.764 66.8934 264.817 60.7235 264.874C60.625 264.875 60.527 264.925 60.4287 264.992C60.4287 265.032 60.3483 265.032 60.3081 265.032C60.0913 264.978 59.9153 264.88 59.7382 264.878C58.532 264.865 57.3257 264.874 56.1194 264.867C56.0042 264.867 55.8892 264.811 55.7741 264.781C55.8716 264.757 55.9697 264.736 56.0665 264.71C58.6462 264.013 61.2078 263.237 63.8123 262.65C65.2887 262.318 66.8328 262.266 68.351 262.147C69.6386 262.046 70.9325 262.012 72.2243 261.985C72.7138 261.975 72.6732 261.865 72.5445 261.439C72.0028 259.648 71.38 257.858 71.0929 256.019C70.8545 254.493 70.9843 252.896 71.0642 251.336C71.1215 250.218 71.2846 249.09 71.5479 248.002C71.851 246.749 72.2507 245.51 72.724 244.311C73.9728 241.146 76.1936 238.674 78.4893 236.233C79.8614 234.774 81.1062 233.171 82.23 231.512C82.9095 230.509 83.2751 229.285 83.27 228.01C83.262 226 83.2874 223.989 83.2633 221.979C83.2275 218.999 83.1647 216.019 83.1058 213.039C83.0585 210.648 82.9848 208.258 82.9495 205.867C82.8844 201.467 82.8636 197.065 82.7754 192.665C82.7285 190.324 82.5261 187.986 82.492 185.646C82.4631 183.657 82.6387 181.665 82.6092 179.676C82.5673 176.849 82.4146 174.024 82.3263 171.198C82.3162 170.875 82.4595 170.549 82.4571 170.226C82.4124 164.055 82.3316 157.885 82.3092 151.715C82.2823 144.254 82.3234 136.792 82.2964 129.331C82.2744 123.241 82.1519 117.152 82.1538 111.062C82.1558 104.383 82.2596 97.7033 82.2988 91.0238C82.3211 87.235 82.2825 83.4459 82.3094 79.6571C82.3302 76.7304 82.4138 73.8041 82.4614 70.8775C82.476 69.984 82.4544 69.0898 82.4653 68.1962C82.5153 64.0633 82.5795 59.9306 82.6209 55.7977C82.6417 53.7246 82.6036 51.6509 82.6306 49.5779C82.6558 47.6429 82.7322 45.7085 82.7847 43.7738C82.791 43.5407 82.7883 43.3073 82.7898 43.0741C82.842 43.3325 82.9113 43.5888 82.9434 43.8498C83.1632 45.6367 83.3813 47.424 83.5863 49.2127C83.6603 49.8583 83.7042 50.5077 83.7489 51.1563C83.8606 52.7735 83.9636 54.3914 84.0724 56.0089C84.232 58.3817 84.4044 60.7538 84.5513 63.1274C84.6745 65.1193 84.7846 67.1123 84.8725 69.106C84.9947 71.8756 85.0965 74.6462 85.1959 77.4167C85.2604 79.217 85.3403 81.0177 85.3529 82.8186C85.4191 92.259 85.4682 101.699 85.518 111.14C85.5293 113.294 85.5383 115.448 85.5154 117.601C85.4772 121.198 85.4135 124.794 85.3585 128.391C85.3063 131.8 85.2602 135.209 85.1942 138.618C85.162 140.285 85.0842 141.951 85.0402 143.618C85.0216 144.324 85.0412 145.03 85.0365 145.736C84.9839 153.622 84.9054 161.508 84.887 169.394C84.8782 173.124 84.9748 176.855 85.0409 180.586C85.0724 182.36 85.1403 184.133 85.1992 185.907C85.2466 187.333 85.2965 188.758 85.3608 190.183C85.4604 192.391 85.5644 194.598 85.6833 196.805C85.7763 198.531 85.8848 200.255 86.0047 201.979C86.1549 204.138 86.3114 206.297 86.491 208.454C86.5591 209.271 86.6633 210.089 86.8262 210.891C86.8814 211.162 87.1162 211.47 87.357 211.62C88.8771 212.566 90.4538 212.058 91.7144 211.116C93.1754 210.025 93.8075 208.422 93.8708 206.639C93.9712 203.812 94.0359 200.982 94.0371 198.154C94.0487 170.48 94.0634 142.807 94.0372 115.133C94.0202 97.1148 93.9366 79.0963 93.886 61.0777C93.8853 60.8186 93.926 60.5593 93.9474 60.3001C94.0333 60.5486 94.1248 60.7953 94.204 61.0458C94.9221 63.3166 95.3719 65.6362 95.6742 68.0026C96.1032 71.3612 96.1382 74.7259 96.1378 78.0992L96.1331 143.882C96.1307 165.81 96.126 187.738 96.1146 209.665C96.1143 210.374 96.3321 210.655 96.9726 210.841C99.0749 211.448 101.237 211.669 103.381 211.442C107.436 211.012 111.107 209.587 114.299 206.935C116.85 204.816 118.665 202.225 119.744 199.141C120.166 197.935 120.263 196.602 120.405 195.316C120.536 194.141 120.653 192.94 120.555 191.768C120.389 189.779 120.07 187.802 119.777 185.825C119.539 184.216 119.198 182.622 118.985 181.011C118.675 178.661 118.372 176.307 118.19 173.945C118.038 171.965 117.893 169.957 118.045 167.985C118.355 163.955 118.985 159.963 120.097 156.061C121.285 151.889 122.942 147.908 125.003 144.101C126.536 141.269 128.292 138.568 130.404 136.128C132.041 134.237 133.742 132.399 135.467 130.587C136.202 129.816 137.087 129.19 137.878 128.469C140.884 125.728 143.085 122.349 145.356 119.024C147.129 116.428 148.816 113.761 150.763 111.302C153.326 108.062 156.472 105.495 160.559 104.365C162.062 103.95 163.609 103.684 165.144 103.394C168.404 102.779 171.707 102.817 174.995 102.933C178.411 103.053 181.657 103.914 184.574 105.799C186.977 107.353 188.722 109.532 190.208 111.906C191.946 114.682 193.588 117.52 195.202 120.37C197.279 124.035 199.294 127.734 201.321 131.426C202.411 133.412 203.485 135.406 204.54 137.411C205.859 139.914 206.615 140.892 207.68 143.618C208.383 145.419 209.627 148.794 210.478 150.459C212.175 153.78 212.469 155.97 213.708 159.052C213.962 159.684 215.297 160.456 215.604 161.159C216.174 162.468 217.333 164.365 217.417 164.511C217.494 164.328 217.549 162.044 217.56 161.858C217.681 159.785 217.785 157.712 217.89 155.638C217.999 153.485 218.107 151.331 218.211 149.177C218.321 146.916 218.43 144.655 218.533 142.394C218.644 139.946 218.752 137.497 218.854 135.049C218.966 132.359 219.071 129.669 219.177 126.979C219.233 125.554 219.287 124.128 219.337 122.703C219.394 121.117 219.445 119.531 219.499 117.945C219.552 116.385 219.61 114.826 219.658 113.266C219.716 111.412 219.767 109.558 219.82 107.704C219.875 105.796 219.931 103.888 219.98 101.98C220.038 99.7238 220.091 97.4674 220.141 95.211C220.198 92.6331 220.256 90.0551 220.301 87.477C220.361 84.0949 220.403 80.7124 220.466 77.3304C220.505 75.2882 220.6 73.2468 220.618 71.2046C220.644 68.1933 220.605 65.1815 220.631 62.1702C220.648 60.2352 220.735 58.3008 220.78 56.366C220.785 56.1716 220.716 55.9756 220.681 55.7804C220.516 55.8998 220.326 55.9964 220.19 56.1424C219.144 57.261 217.822 57.6602 216.334 57.7175C214.045 57.8058 211.885 57.1307 209.689 56.6633C207.587 56.2157 205.473 55.7147 203.318 55.9721C202.037 56.1251 200.767 56.5083 199.538 56.9236C197.556 57.5933 195.669 57.3902 193.792 56.5865C191.97 55.8069 190.166 54.9795 188.309 54.292C186.639 53.6732 184.866 53.6794 183.246 54.3859C182.455 54.7308 181.661 55.4707 181.264 56.2367C180.336 58.0285 178.935 58.862 177.011 59.1785C174.472 59.5962 172.233 58.7427 169.976 57.8161C168.143 57.0636 166.329 56.2163 164.43 55.6862C161.895 54.9787 159.565 55.7463 157.464 57.2584C156.143 58.209 154.898 59.3027 153.475 60.0658C151.568 61.0893 148.788 61.2365 147.283 59.5476C147.02 59.252 146.752 58.8978 146.656 58.5267C146.276 57.0577 145.325 56.7414 144.004 56.5888C142.102 56.3691 140.705 57.3922 139.325 58.4965C138.048 59.5187 136.857 60.6559 135.122 60.9756C133.744 61.2294 132.448 61.0489 131.227 60.5237C129.155 59.6333 127.122 58.6462 125.106 57.6342C123.302 56.729 121.375 56.2785 119.44 56.6479C118.193 56.8859 117.019 57.6614 115.892 58.3299C114.525 59.1408 113.303 60.2077 111.908 60.958C109.507 62.2489 106.929 62.303 104.281 61.7741C101.533 61.2254 99.271 59.8849 97.3675 57.8849C96.9445 57.4404 96.5992 56.9211 96.228 56.4289C96.1763 56.3603 96.1813 56.249 96.16 56.1575C96.2358 56.1963 96.3235 56.2216 96.3857 56.276C98.3907 58.0269 100.683 59.1106 103.341 59.4939C107.181 60.0477 110.738 59.4053 113.938 57.1725C114.833 56.5483 115.566 55.6965 116.44 55.0378C117.817 53.9996 119.446 54.0488 121.038 54.2414C124.027 54.603 126.621 56.1579 129.417 57.1041C131.836 57.9227 134.319 58.5489 136.878 57.5539C137.778 57.2039 138.531 56.7124 139.089 55.8884C140.066 54.4427 142.184 53.9228 143.793 54.0963C146.388 54.3761 148.635 55.666 151.097 56.2947C152.827 56.7364 154.561 57.0349 156.329 56.4304C157.284 56.104 157.95 55.451 158.463 54.639C159.293 53.3246 160.555 52.8565 162.005 52.7264C164.058 52.5422 165.905 53.1906 167.716 54.0817C169.454 54.9372 171.216 55.8132 173.154 56.0766C174.724 56.2898 176.278 55.9778 177.733 55.321C180.014 54.2913 182.266 53.1928 184.567 52.2102C186.777 51.2663 188.928 51.4521 190.996 52.7507C192.133 53.4646 193.311 54.1413 194.54 54.6735C196.012 55.3106 197.581 55.1078 199.078 54.7079C201.096 54.1685 203.056 53.3834 205.093 52.9488C206.508 52.6469 207.977 52.7622 209.13 53.9906C210.205 55.1369 211.626 55.4208 213.097 55.0022C215.391 54.3492 217.65 53.5733 219.928 52.8618C221.05 52.5111 222.175 52.1717 223.372 52.56C224.984 53.0831 225.165 53.3474 224.968 55.0236C224.857 55.9706 224.723 56.9162 224.653 57.8663C224.568 59.0213 224.55 60.181 224.482 61.3375C224.329 63.952 224.166 66.5658 224.001 69.1796C223.899 70.7976 223.776 72.4142 223.683 74.0326C223.564 76.1052 223.47 78.1793 223.358 80.2523C223.256 82.1114 223.133 83.9695 223.04 85.829C222.921 88.1966 222.824 90.5653 222.715 92.9333C222.665 94.0104 222.602 95.0868 222.556 96.164C222.445 98.7733 222.341 101.383 222.233 103.992C222.18 105.257 222.12 106.521 222.073 107.786C221.963 110.744 221.857 113.702 221.751 116.659C221.696 118.165 221.641 119.671 221.59 121.177C221.534 122.87 221.482 124.564 221.429 126.257C221.374 128.004 221.32 129.751 221.268 131.498C221.213 133.379 221.159 135.26 221.107 137.141C221.052 139.129 220.999 141.118 220.947 143.106C220.892 145.202 220.837 147.297 220.786 149.393C220.73 151.676 220.678 153.959 220.625 156.242C220.571 158.552 220.516 160.862 220.464 163.172C220.409 165.589 220.356 168.006 220.303 170.423L220.198 175.419C220.18 176.251 220.16 177.084 220.139 177.916C220.104 179.262 220.035 180.606 219.979 181.951C219.976 182.025 219.947 182.098 219.93 182.171C219.893 182.098 219.841 182.029 219.823 181.952C219.23 179.436 218.574 176.932 218.074 174.398C217.737 172.688 217.597 170.937 217.417 169.199C217.311 168.172 217.302 167.135 217.245 166.103C217.239 166.004 217.203 165.907 217.181 165.809C217.149 165.893 217.094 165.977 217.089 166.063C216.9 169.295 216.332 172.449 215.195 175.492C214.865 176.375 214.586 177.277 214.278 178.169C214.238 178.285 214.167 178.39 214.11 178.5C214.095 178.355 214.033 178.196 214.072 178.067C214.257 177.449 214.432 176.823 214.68 176.229C215.82 173.502 215.757 170.628 215.604 167.782C215.489 165.652 214.956 163.563 214.08 161.59C214.027 161.471 213.743 160.915 213.74 160.768C213.74 160.743 213.635 160.721 213.578 160.697C213.622 160.895 213.665 161.093 213.708 161.291C213.816 163.337 213.998 166.183 214.011 168.23C214.025 170.62 213.626 172.174 212.978 174.474C212.634 175.692 212.192 176.882 211.792 178.083C211.764 178.166 211.717 178.242 211.679 178.321C211.659 178.223 211.592 178.104 211.624 178.028C212.684 175.575 212.567 172.945 212.724 170.368C212.87 167.957 212.999 165.527 212.868 163.12C212.687 159.759 212.056 156.459 210.65 153.356C210.619 153.288 210.534 153.244 210.503 153.176C210.4 152.947 210.311 152.712 210.216 152.479C210.154 152.77 210.01 153.07 210.045 153.348C210.159 154.281 210.403 155.201 210.478 156.135C210.631 158.044 210.753 159.958 210.801 161.872C210.855 164.024 210.918 166.185 210.784 168.331C210.652 170.426 210.281 172.507 210.008 174.593C209.855 175.761 209.689 176.927 209.523 178.093C209.512 178.169 209.453 178.238 209.417 178.31C209.4 178.237 209.363 178.162 209.369 178.091C209.417 177.549 209.474 177.009 209.526 176.468C209.581 175.901 209.665 175.334 209.682 174.765C209.749 172.456 209.836 170.146 209.837 167.836C209.838 165.633 209.766 163.429 209.68 161.228C209.61 159.448 209.5 157.669 209.359 155.893C209.172 153.54 208.939 151.191 208.721 148.841C208.68 148.406 208.62 147.973 208.557 147.541C208.545 147.456 208.478 147.379 208.436 147.298C208.37 147.382 208.255 147.463 208.248 147.552C208.181 148.387 208.121 149.222 208.082 150.058C208.018 151.403 207.988 152.749 207.915 154.093C207.765 156.841 207.604 159.589 207.433 162.337C207.343 163.768 207.205 165.196 207.117 166.627C206.945 169.428 206.8 172.23 206.629 175.031C206.538 176.516 206.405 177.998 206.313 179.482C206.142 182.23 206.001 184.979 205.82 187.726C205.758 188.676 205.996 191.776 205.961 192.202C205.757 194.723 205.043 197.135 204.183 199.499C204.016 199.959 203.673 200.433 203.278 200.718C202.167 201.519 201.432 201.392 200.847 199.996C200.703 199.653 200.627 199.282 200.519 198.925C200.505 198.878 200.481 198.834 200.461 198.788C200.427 198.867 200.382 198.942 200.36 199.024C200.143 199.846 200.015 200.705 199.691 201.481C199.367 202.259 198.922 203.015 198.395 203.671C197.756 204.467 196.594 204.508 195.853 203.802C195.431 203.401 195.435 203.913 195.402 203.99C195.07 204.763 194.844 205.589 194.459 206.332C193.858 207.49 192.821 208.01 191.531 207.92C190.953 207.881 190.843 208.059 190.853 208.608C190.879 210.04 190.31 211.207 189.029 211.919C188.715 212.094 188.277 212.13 187.908 212.098C187.383 212.052 187.279 212.244 187.321 212.714C187.364 213.193 187.337 213.679 187.33 214.161C187.311 215.304 186.525 216.104 185.397 216.137C184.54 216.162 184.379 216.4 184.718 217.143C185.059 217.89 184.523 218.608 183.517 218.706C182.493 218.805 181.64 218.575 180.829 217.798C177.494 214.604 174.939 210.871 173.033 206.699C171.798 203.993 170.833 201.174 170.453 198.202C170.184 196.099 169.949 193.989 169.816 191.874C169.665 189.472 170.044 187.107 170.533 184.755C171.459 180.299 173.192 176.111 174.737 171.859C175.093 170.877 175.347 169.852 175.581 168.832C175.987 167.065 176.373 165.291 176.697 163.507C176.811 162.884 176.737 162.222 176.694 161.582C176.687 161.475 176.378 161.284 176.237 161.307C175.013 161.506 173.789 161.718 172.577 161.978C170.502 162.424 168.516 163.116 166.596 164.044C165.885 164.388 164.994 164.35 164.19 164.511C162.905 164.767 161.626 165.053 160.339 165.304C160.072 165.356 159.786 165.306 159.509 165.313C159.034 165.326 158.252 165.188 158.144 165.397C157.853 165.956 157.766 166.662 157.751 167.313C157.667 170.829 157.585 174.345 157.594 177.861C157.598 179.694 157.784 181.526 157.899 183.357C157.997 184.922 158.07 186.49 158.23 188.048C158.393 189.627 158.661 191.194 158.858 192.769C158.989 193.821 159.057 194.88 159.189 195.932C159.385 197.507 159.62 199.078 159.825 200.652C159.997 201.978 160.148 203.307 160.31 204.634C160.416 205.501 160.521 206.368 160.637 207.234C160.647 207.312 160.719 207.425 160.786 207.445C161.992 207.798 162.26 208.857 162.551 209.855C163.006 211.414 163.504 212.975 163.767 214.571C163.968 215.794 163.965 217.088 163.812 218.321C163.656 219.576 163.23 220.801 162.877 222.026C162.345 223.874 161.29 225.432 160.086 226.901C160.007 226.997 159.97 227.126 159.913 227.24C160.03 227.238 160.147 227.236 160.264 227.235C160.479 227.234 160.693 227.235 160.908 227.235H170.638C173.113 227.235 175.589 227.254 178.064 227.231C182.117 227.193 186.169 227.127 190.221 227.075C190.632 227.069 191.044 227.079 191.455 227.073C194.971 227.021 198.487 226.966 202.003 226.914C202.361 226.909 202.719 226.922 203.076 226.912C206.041 226.823 209.006 226.728 211.971 226.647C212.262 226.639 212.556 226.751 212.848 226.747C216.391 226.702 219.935 226.651 223.477 226.589C225.895 226.547 228.312 226.48 230.729 226.434C231.4 226.421 231.759 226.275 231.75 225.433C231.724 223.124 231.834 220.814 231.881 218.504C231.896 217.771 231.915 217.036 231.876 216.305C231.799 214.862 230.722 214.291 229.48 214.228C227.013 214.103 224.54 214.068 222.069 214.053C217.771 214.028 213.473 214.038 209.174 214.053C208.392 214.056 207.611 214.155 206.828 214.205C206.727 214.211 206.623 214.186 206.52 214.176C206.582 214.081 206.639 213.983 206.707 213.892C207.374 212.993 208.377 212.724 209.389 212.619C210.699 212.482 212.029 212.552 213.34 212.421C214.786 212.278 216.219 212.007 217.659 211.797C217.817 211.775 217.98 211.798 218.141 211.794C222.359 211.687 226.577 211.584 230.794 211.458C230.985 211.452 231.277 211.275 231.339 211.109C231.839 209.767 232.12 208.428 231.988 206.937C231.847 205.347 232.116 203.721 232.204 202.11C232.213 201.95 232.205 201.789 232.205 201.628C232.205 200.234 232.192 198.84 232.207 197.446C232.255 193.019 232.306 188.591 232.368 184.164C232.41 181.13 232.474 178.096 232.526 175.063C232.581 171.922 232.633 168.781 232.688 165.64C232.741 162.57 232.795 159.501 232.848 156.431L233.009 147.169C233.063 144.073 233.117 140.976 233.17 137.88C233.224 134.756 233.277 131.633 233.331 128.51C233.384 125.476 233.439 122.442 233.491 119.409C233.546 116.285 233.599 113.162 233.652 110.039C233.706 106.925 233.759 103.811 233.814 100.697C233.866 97.6629 233.921 94.6292 233.974 91.5956C234.028 88.4547 234.081 85.3138 234.135 82.1729L234.296 72.9914C234.35 69.8774 234.402 66.7633 234.457 63.6492C234.51 60.6423 234.565 57.6355 234.617 54.6286C234.673 51.4073 234.719 48.1859 234.78 44.9647C234.824 42.6722 234.875 40.3797 234.948 38.088C234.963 37.6066 234.885 37.4154 234.329 37.43C231.135 37.5138 227.94 37.5449 224.745 37.6081C222.721 37.6481 220.697 37.7146 218.673 37.7659C216.47 37.8217 214.267 37.8718 212.065 37.9277C210.049 37.9789 208.035 38.0361 206.019 38.0876C203.844 38.1432 201.668 38.194 199.492 38.2493C197.45 38.3011 195.408 38.3578 193.366 38.4093C191.164 38.4649 188.961 38.5123 186.758 38.5721C185.065 38.6181 183.372 38.6874 181.678 38.7292C179.154 38.7914 176.629 38.8345 174.105 38.8936C172.09 38.9407 170.075 39.0017 168.06 39.0525C165.83 39.1087 163.601 39.1581 161.371 39.2146C159.383 39.265 157.395 39.3234 155.407 39.3742C153.204 39.4304 151.001 39.4771 148.799 39.5372C147.132 39.5827 145.466 39.6531 143.799 39.6941C141.248 39.7568 138.697 39.7998 136.145 39.8585C134.077 39.9061 132.008 39.9656 129.939 40.0178C127.764 40.0728 125.588 40.1238 123.412 40.1794C121.397 40.2309 119.382 40.2884 117.367 40.3392C115.137 40.3954 112.908 40.466 110.678 40.4967C105.875 40.563 101.072 40.6608 96.2698 40.6364C94.2448 40.6261 92.2187 40.3648 90.1979 40.1688C89.1331 40.0655 88.0783 39.8581 87.0195 39.6946C86.9475 39.6834 86.8796 39.6452 86.8098 39.6195C86.8763 39.5916 86.9409 39.556 87.01 39.5381C87.0603 39.5252 87.1166 39.5367 87.1702 39.5355C89.4533 39.482 91.7369 39.4448 94.0194 39.3705C96.7633 39.2812 99.5064 39.1637 102.25 39.0514C103.3 39.0083 104.349 38.9347 105.4 38.8948C107.066 38.8316 108.733 38.789 110.399 38.7302C111.745 38.6827 113.089 38.621 114.434 38.5712C117.392 38.4619 120.35 38.3595 123.308 38.2472C124.439 38.2042 125.568 38.1289 126.699 38.0909C128.607 38.0269 130.515 37.9862 132.422 37.9254C133.821 37.8809 135.219 37.816 136.618 37.7674C138.285 37.7094 139.951 37.6637 141.618 37.6041C142.909 37.5578 144.2 37.4869 145.492 37.4473C147.56 37.3839 149.629 37.342 151.698 37.2824C153.311 37.236 154.923 37.1742 156.536 37.1237C158.337 37.0672 160.138 37.0158 161.938 36.9622C163.739 36.9086 165.539 36.8537 167.34 36.8017C169.248 36.7466 171.156 36.6949 173.063 36.6403C174.9 36.5877 176.737 36.5307 178.573 36.4804C180.642 36.4237 182.711 36.3727 184.779 36.3188C186.821 36.2655 188.863 36.2105 190.905 36.1583C193.054 36.1033 195.203 36.0513 197.352 35.997C199.448 35.9441 201.544 35.9087 203.638 35.8302C205.237 35.7703 206.833 35.6489 208.432 35.5712C208.668 35.5597 208.91 35.6735 209.148 35.6702C212.45 35.6244 215.752 35.5733 219.053 35.513C221.524 35.4678 223.995 35.4054 226.466 35.3543C229.178 35.2983 231.889 35.2281 234.602 35.1987ZM182.555 245.744C180.883 245.787 179.213 245.943 177.542 246.054C175.978 246.157 174.414 246.257 172.852 246.377C170.907 246.527 168.964 246.696 167.021 246.857C165.104 247.017 163.189 247.191 161.271 247.337C158.98 247.511 156.689 247.73 154.395 247.806C150.908 247.921 147.418 247.932 143.929 247.981C143.152 247.993 142.37 248.037 141.598 247.973C139.38 247.788 137.165 247.552 134.949 247.341C133.761 247.228 132.571 247.14 131.384 247.015C129.462 246.813 127.546 246.508 125.619 246.398C123.74 246.291 121.849 246.354 119.964 246.381C118.485 246.402 117.005 246.455 115.529 246.542C113.182 246.679 110.837 246.854 108.492 247.019C106.28 247.175 104.069 247.339 101.858 247.501C100.428 247.606 98.9982 247.715 97.5686 247.822C95.4107 247.983 93.2528 248.144 91.095 248.305C89.6653 248.412 88.2358 248.522 86.806 248.626C84.5679 248.789 82.33 248.956 80.091 249.106C78.3138 249.226 76.5345 249.316 74.7572 249.434C73.7524 249.501 73.4387 249.844 73.4638 250.872C73.4777 251.44 73.5671 252.007 73.617 252.575C73.8327 255.032 74.0297 257.491 74.2715 259.945C74.3409 260.65 74.4151 261.44 75.1563 261.797C75.597 262.01 76.131 262.122 76.6223 262.12C78.128 262.113 79.633 261.996 81.1388 261.983C84.0959 261.959 87.0535 261.994 90.0107 261.972C95.322 261.933 100.633 261.869 105.944 261.816C106.436 261.811 106.928 261.823 107.419 261.814C110.158 261.763 112.896 261.689 115.634 261.658C121.535 261.592 127.436 261.539 133.337 261.497C136.24 261.477 139.144 261.512 142.048 261.49C147.252 261.45 152.456 261.386 157.66 261.333C158.178 261.328 158.697 261.341 159.215 261.331C161.953 261.281 164.691 261.207 167.43 261.176C173.331 261.11 179.232 261.056 185.132 261.015C188.009 260.994 190.886 261.029 193.763 261.007C198.994 260.967 204.225 260.903 209.456 260.851C209.974 260.846 210.493 260.857 211.011 260.849C214.285 260.798 217.559 260.729 220.834 260.694C223.085 260.67 225.337 260.707 227.588 260.686C231.961 260.645 236.334 260.584 240.707 260.527C241.666 260.514 242.394 259.829 242.495 258.813C242.722 256.517 242.928 254.22 243.142 251.763C243.196 250.928 243.281 250.093 243.296 249.257C243.317 247.986 242.677 247.499 241.418 247.653C238.987 247.951 236.553 248.362 234.113 248.427C230.494 248.523 226.868 248.384 223.246 248.294C221.547 248.251 219.849 248.107 218.153 247.979C216.289 247.837 214.426 247.669 212.564 247.498C210.914 247.348 209.267 247.176 207.618 247.019L204.214 246.691C203.079 246.582 201.944 246.477 200.808 246.379C198.706 246.198 196.602 246.018 194.495 245.903C192.617 245.8 190.735 245.762 188.854 245.738C186.754 245.711 184.653 245.69 182.555 245.744ZM127.659 230.371C126.058 230.452 124.456 230.54 122.853 230.61C121.402 230.674 119.949 230.719 118.497 230.773C117.072 230.827 115.647 230.882 114.222 230.934C111.21 231.042 108.199 231.147 105.188 231.257C103.816 231.306 102.444 231.372 101.072 231.415C99.0845 231.476 97.0959 231.515 95.1082 231.582C94.245 231.611 93.3779 231.642 92.5225 231.751C91.6974 231.855 90.8912 232.133 90.0656 232.203C89.0324 232.29 87.9689 232.313 87.2744 231.274C87.2242 231.199 86.8315 231.235 86.8257 231.265C86.4545 233.147 85.2236 234.488 83.952 235.784C82.9121 236.844 81.7926 237.825 80.7314 238.865C79.3946 240.175 78.0393 241.47 76.7714 242.845C75.8294 243.867 75.0116 245.003 74.1455 246.094C74.0596 246.203 74.0232 246.35 73.9639 246.48C74.117 246.498 74.2707 246.537 74.4232 246.532C76.0362 246.484 77.6492 246.433 79.2619 246.373C80.4998 246.327 81.7369 246.259 82.9749 246.216C84.7216 246.154 86.47 246.132 88.2152 246.045C89.5399 245.979 90.8601 245.827 92.1837 245.734C94.6093 245.564 97.0365 245.416 99.4621 245.247C100.812 245.152 102.164 245.064 103.51 244.92C105.22 244.736 106.923 244.483 108.633 244.289C109.818 244.155 111.011 244.083 112.197 243.959C114.147 243.756 116.091 243.478 118.044 243.338C119.413 243.24 120.796 243.298 122.171 243.325C123.517 243.351 124.867 243.367 126.205 243.495C127.757 243.643 129.297 243.919 130.845 244.12C132.198 244.296 133.556 244.422 134.906 244.611C136.648 244.856 138.383 245.149 140.123 245.405C140.57 245.47 141.025 245.473 141.476 245.505C141.108 245.126 140.776 244.7 140.363 244.376C138.301 242.756 136.619 240.764 135.091 238.677C133.703 236.782 132.584 234.688 131.362 232.673C130.528 231.299 129.548 230.172 127.659 230.371ZM230.93 229.313C229.645 229.436 228.349 229.443 227.057 229.484C225.069 229.547 223.081 229.598 221.093 229.646C218.676 229.705 216.259 229.769 213.842 229.805C209.442 229.87 205.041 229.916 200.641 229.968C200.042 229.975 199.443 229.96 198.844 229.971C195.998 230.021 193.152 230.076 190.145 230.13H173.686C168.674 230.13 163.661 230.109 158.649 230.151C157.849 230.158 157.047 230.457 156.655 231.296C155.963 232.778 155.346 234.298 154.594 235.748C152.818 239.171 150.306 242.031 147.476 244.606C146.881 245.148 147.286 245.324 147.618 245.38C148.227 245.483 148.868 245.448 149.49 245.402C151.408 245.261 153.325 245.091 155.241 244.926C157.078 244.769 158.914 244.601 160.751 244.446C162.721 244.28 164.692 244.127 166.662 243.961C168.499 243.806 170.333 243.615 172.172 243.486C174.784 243.301 177.398 243.134 180.014 243.008C181.28 242.947 182.553 242.958 183.82 243.006C185.68 243.078 187.538 243.201 189.396 243.322C191.689 243.471 193.98 243.641 196.273 243.801C197.81 243.909 199.347 244.015 200.884 244.123C203.149 244.283 205.414 244.444 207.68 244.606C209.163 244.712 210.646 244.822 212.13 244.927C213.694 245.037 215.258 245.139 216.821 245.249C218.305 245.354 219.788 245.476 221.272 245.567C223.21 245.687 225.15 245.878 227.089 245.869C229.591 245.857 232.098 245.744 234.594 245.551C236.849 245.376 239.092 245.042 241.338 244.763C242.504 244.618 242.939 243.756 242.334 242.771C240.091 239.115 237.812 235.48 235.59 231.811C234.512 230.032 233.063 229.109 230.93 229.313ZM141.897 141.189C141.783 141.515 141.705 141.859 141.55 142.164C141.017 143.204 140.45 144.227 139.909 145.264C138.669 147.639 137.44 149.982 135.183 151.649C133.713 152.734 131.99 153.547 130.94 155.17C130.63 155.648 130.086 155.973 129.765 156.447C129.19 157.294 128.731 158.219 128.174 159.08C126.014 162.415 124.04 165.838 122.888 169.677C121.995 172.65 121.36 175.664 121.393 178.784C121.41 180.397 121.448 182.013 121.562 183.621C121.656 184.952 121.868 186.275 122.044 187.599C122.299 189.528 122.616 191.45 122.812 193.384C122.893 194.179 122.64 195.005 122.693 195.807C122.784 197.192 122.917 198.584 123.173 199.947C123.659 202.547 124.214 205.135 124.797 207.715C125.394 210.355 126.076 212.976 126.691 215.613C127.632 219.648 129.007 223.53 130.821 227.25C132.651 231.002 134.832 234.551 137.311 237.906C138.494 239.507 139.726 241.102 141.134 242.501C142.701 244.057 144.744 244.362 146.389 242.507C147.401 241.366 148.361 240.175 149.291 238.966C151.32 236.329 153.316 233.667 155.321 231.012C155.393 230.918 155.424 230.793 155.475 230.683C155.35 230.659 155.227 230.632 155.102 230.613C154.144 230.465 153.162 230.407 152.233 230.155C149.178 229.327 146.722 227.417 144.25 225.561C141.913 223.805 139.615 221.998 137.289 220.227C136.918 219.945 136.57 219.938 136.291 220.441C135.526 221.816 134.726 223.172 133.927 224.528C133.794 224.753 133.594 224.939 133.426 225.144C133.219 224.892 132.971 224.664 132.814 224.384C132.222 223.333 132.82 222.36 133.112 221.402C133.727 219.38 134.183 217.348 134.097 215.217C134.023 213.363 133.925 211.508 133.953 209.655C133.972 208.396 134.434 207.159 135.52 206.501C136.347 206.001 136.226 205.417 136.146 204.772C135.86 202.459 135.386 200.159 135.255 197.839C135.086 194.849 135.162 191.843 135.701 188.714C135.755 188.362 135.789 188.005 135.866 187.658C136.221 186.038 136.505 184.396 136.97 182.807C137.611 180.616 138.352 178.452 139.125 176.303C139.569 175.071 141.637 170.891 141.488 172.144C141.426 172.834 140.561 176.186 140.055 177.794C139.271 180.287 138.491 182.786 137.836 185.315C137.044 188.372 136.45 191.474 136.509 194.658C136.542 196.378 136.589 198.099 136.674 199.817C136.746 201.276 136.879 202.731 136.989 204.187C137.027 204.681 137.385 205.047 137.657 204.876C138.169 204.555 138.675 204.225 139.18 203.892C141.724 202.214 143.972 200.189 146.052 197.974C146.45 197.55 146.945 197.098 147.087 196.575C147.504 195.045 147.802 193.48 148.074 191.916C148.294 190.653 148.407 189.371 148.569 188.097C148.836 185.984 149.209 183.876 149.332 181.754C149.4 180.574 149.022 179.373 148.899 178.176C148.778 176.999 148.787 175.807 148.628 174.636C148.392 172.9 148.132 171.16 147.739 169.455C147.462 168.254 147.135 166.992 146.5 165.961C145.21 163.868 143.611 161.968 142.302 159.886C141.285 158.268 140.403 156.499 140.24 154.566C140.079 152.64 140.138 150.687 140.25 148.754C140.28 148.252 140.772 147.548 141.225 147.362C141.705 147.165 142.107 147.766 142.302 148.311C142.594 149.127 142.926 149.929 143.242 150.736C143.275 150.82 143.317 150.901 143.355 150.983C143.377 150.885 143.423 150.785 143.416 150.69C143.406 150.568 143.347 150.451 143.319 150.33C142.906 148.566 142.42 146.822 142.437 144.978C142.445 144.058 142.253 143.136 142.13 142.217C142.083 141.87 141.976 141.532 141.897 141.189ZM122.802 212.75C121.943 212.836 121.079 212.874 120.216 212.918C119.033 212.979 117.85 213.032 116.666 213.08C113.924 213.19 111.181 213.295 108.278 213.403C106.018 213.51 103.759 213.644 101.498 213.717C98.9223 213.801 96.3448 213.864 93.7678 213.868C92.8192 213.87 91.8689 213.69 90.9216 213.575C89.6491 213.419 88.383 213.173 87.1065 213.1C85.6353 213.017 85.2161 213.498 85.1968 214.971C85.1596 217.811 85.1144 220.652 86.0063 223.399C86.366 224.507 86.6173 225.69 87.1924 226.679C88.0538 228.161 89.5953 228.811 91.2385 228.812C94.2754 228.814 97.3124 228.63 100.349 228.521C101.747 228.471 103.145 228.413 104.543 228.361C107.446 228.253 110.349 228.148 113.252 228.038C114.543 227.989 115.833 227.915 117.124 227.882C119.674 227.816 122.224 227.774 124.774 227.716L124.96 227.712C126.263 227.679 127.552 227.648 128.319 229.066C128.387 229.191 128.776 229.143 129.016 229.176C129.032 228.97 129.125 228.733 129.053 228.565C128.43 227.108 127.782 225.662 127.132 224.216C125.547 220.69 124.393 217.02 123.478 213.27C123.391 212.916 123.237 212.706 122.802 212.75ZM145.106 203.295C143.204 204.275 141.301 205.265 139.475 206.377C138.661 206.872 137.93 207.591 137.351 208.353C136.903 208.941 136.745 209.752 136.467 210.467C135.74 212.341 136.325 214.052 137.346 215.568C138.939 217.934 140.733 220.16 142.941 222C144.3 223.133 154.2 229.971 157.859 226.867C158.367 226.436 158.581 225.777 158.877 225.199C160.088 222.836 162.042 220.836 162.449 218.083C162.612 216.983 162.756 215.848 162.664 214.75C162.556 213.478 162.173 212.231 161.92 210.971C161.755 210.143 161.708 209.265 160.882 208.749C160.777 208.684 160.662 208.634 160.551 208.578C160.524 208.7 160.457 208.83 160.477 208.945C160.725 210.382 160.872 211.81 161.369 213.231C161.969 214.941 161.659 216.783 160.958 218.502C160.646 219.267 159.568 219.631 158.832 219.543C156.78 219.295 155.074 218.289 153.588 216.891C151.489 214.918 150.181 212.454 149.132 209.703C148.89 208.999 148.659 208.292 148.406 207.592C147.985 206.427 147.604 205.244 147.104 204.113C146.71 203.223 145.89 202.891 145.106 203.295ZM181.102 126.743C181.167 126.945 181.195 127.171 181.305 127.345C181.963 128.389 182.75 128.566 183.288 129.667C184.526 132.204 185.449 134.056 186.535 136.661C186.956 137.669 186.998 138.984 187.348 140.649C187.361 140.711 187.545 140.886 187.678 140.964C188.367 141.367 189.114 141.69 189.749 142.164C191.567 143.52 192.149 145.016 191.597 146.947C190.624 150.352 189.467 148.65 190.161 146.618C190.442 145.791 190.232 144.947 189.581 144.346C189.363 144.145 188.39 143.655 187.188 143.096C187.073 143.043 187.156 143.413 186.671 144.393C186.526 144.685 185.964 145.531 185.804 145.102C185.53 144.368 186.037 142.571 185.804 142.467L185.554 142.356C183.64 141.507 181.724 140.716 181.489 140.687C180.773 140.598 180.109 140.948 180.103 142.226C180.087 145.355 178.846 147.883 176.467 149.876C174.352 151.648 171.994 152.574 169.166 152.139C167.096 151.821 165.328 150.954 163.795 149.571C162.444 148.351 161.419 146.909 160.958 145.12C160.848 144.69 160.728 144.718 160.432 144.992C158.957 146.359 157.981 148.022 157.428 149.943C157.363 150.172 157.349 150.415 157.311 150.652C157.563 150.63 157.825 150.644 158.066 150.579C158.762 150.39 159.449 150.168 160.141 149.961C160.231 149.934 160.323 149.917 160.415 149.896C160.38 149.973 160.337 150.048 160.311 150.128C159.989 151.119 159.275 151.742 158.334 152.073C157.284 152.442 155.689 151.42 155.988 150.366C156.202 149.611 156.578 148.895 156.936 148.189C157.556 146.969 158.218 145.771 158.943 144.564C159.011 144.364 159.08 144.165 159.149 143.965C159 144.111 158.851 144.257 158.621 144.403C158.507 144.57 158.424 144.774 158.275 144.899C156.209 146.641 153.903 147.59 151.119 147.326C149.531 147.175 148.148 146.618 146.84 145.799C145.734 145.106 144.546 145.524 144.419 146.811C144.331 147.708 144.424 148.668 144.651 149.544C145.388 152.381 146.177 155.191 147.388 157.897C148.279 159.888 149.521 161.266 151.546 161.922C153.064 162.413 154.598 162.899 156.161 163.193C158.038 163.546 159.942 163.532 161.832 163.08C163.207 162.751 164.615 162.562 165.993 162.246C167.331 161.938 168.728 161.719 169.962 161.159C172.962 159.798 178.303 155.33 180.715 153.108C180.829 153.003 180.942 152.897 181.056 152.791C181.078 152.943 181.129 153.096 181.119 153.245C181.027 154.642 177.509 157.978 176.252 158.585C176.012 158.701 175.946 159.179 175.799 159.49C176.067 159.608 176.332 159.811 176.604 159.821C176.913 159.831 177.225 159.653 177.542 159.591C177.63 159.574 177.819 159.665 177.829 159.727C177.905 160.211 177.987 160.699 177.995 161.187C178.016 162.562 178.029 163.94 177.987 165.314C177.973 165.782 177.838 166.263 177.672 166.706C176.562 169.677 175.362 172.615 174.323 175.609C173.377 178.333 172.492 181.088 171.783 183.88C171.271 185.896 170.899 187.987 170.811 190.06C170.688 192.939 170.639 195.829 171.216 198.709C171.855 201.894 173.068 204.814 174.797 207.522C176.671 210.457 178.622 213.345 180.602 216.211C181.091 216.919 181.603 217.68 182.466 218.045C182.687 218.139 183.264 218.028 183.579 217.838C183.927 217.63 184.041 217.267 183.809 216.784C183.015 215.132 182.287 213.449 181.542 211.774C180.453 209.33 179.36 206.888 178.288 204.437C176.439 200.207 175.725 195.724 175.629 191.162C175.573 188.499 175.888 185.826 176.081 183.161C176.193 181.616 176.336 180.069 176.568 178.538C176.948 176.028 177.452 173.537 177.831 171.027C178.241 168.308 178.931 165.68 180.294 163.281C181.316 161.481 182.652 159.918 184.588 159.052C186.928 158.007 189.133 156.844 190.766 154.752C192.287 152.804 193.211 150.633 193.418 148.213C193.69 145.041 192.946 142.091 191.024 139.488C189.408 137.3 187.875 135.066 186.671 132.608C185.454 130.121 184.065 128.53 181.603 127.012C181.442 126.912 181.269 126.832 181.102 126.743ZM141.108 148.763C141.021 149.01 140.872 149.254 140.858 149.505C140.732 151.818 141.071 154.091 141.844 156.251C142.507 158.101 143.304 159.943 144.639 161.438C145.694 162.62 146.393 164.105 147.727 165.05C147.845 165.134 147.874 165.359 147.923 165.525C148.352 166.978 148.821 168.421 149.19 169.89L149.288 170.284C149.596 171.532 149.858 172.796 149.698 174.106C149.675 174.291 149.676 174.483 149.697 174.668C149.961 176.997 150.223 179.326 150.501 181.653C150.728 183.549 150.048 185.333 149.849 187.176C149.723 188.347 149.55 189.512 149.368 190.676C149.173 191.93 148.962 193.183 148.724 194.43C148.479 195.717 148.306 197.036 147.88 198.264C147.647 198.937 147.725 199.426 147.955 200.011C148.445 201.256 148.878 202.523 149.378 203.764C150.542 206.659 151.654 209.579 152.937 212.422C153.912 214.582 155.616 216.058 157.938 216.741C159.063 217.072 160.075 216.678 160.266 215.755C160.358 215.312 160.306 214.811 160.203 214.363C160.1 213.916 159.733 213.514 159.689 213.072C159.57 211.868 159.559 210.652 159.506 209.442C159.497 209.229 159.511 209.015 159.489 208.805C159.337 207.341 159.169 205.879 159.026 204.414C158.896 203.087 158.823 201.754 158.667 200.43C158.499 199.01 158.243 197.6 158.066 196.181C157.967 195.378 157.991 194.559 157.889 193.757C157.705 192.314 157.412 190.883 157.267 189.437C157.055 187.311 156.914 185.176 156.777 183.044C156.645 180.999 156.502 178.952 156.463 176.904C156.41 174.091 156.404 171.274 156.475 168.461C156.499 167.516 156.789 166.569 157.025 165.641C157.126 165.248 157.093 165.188 156.684 165.135C155.373 164.964 154.054 164.796 152.77 164.491C150.632 163.984 148.89 162.837 147.771 160.9C146.587 158.849 145.459 156.766 144.226 154.616C143.96 154.243 143.675 153.883 143.434 153.495C142.987 152.776 142.503 152.07 142.156 151.304C141.891 150.721 141.846 150.042 141.637 149.428C141.551 149.176 141.289 148.983 141.108 148.763ZM178.58 123.812C178.506 123.82 178.432 123.842 178.358 123.857C178.411 123.933 178.448 124.032 178.519 124.081C179.417 124.692 180.328 125.285 181.22 125.904C183.188 127.27 184.879 128.123 186.199 130.124C187.833 132.603 189.437 135.103 191.026 137.611C192.543 140.006 193.972 142.41 194.289 145.357C194.498 147.304 194.394 149.178 193.816 151.001C192.517 155.102 189.767 157.986 185.835 159.599C183.067 160.736 181.45 162.795 180.443 165.418C179.847 166.972 179.481 168.622 179.111 170.252C178.635 172.343 178.218 174.45 177.855 176.565C177.573 178.206 177.382 179.865 177.205 181.523C176.961 183.816 176.62 186.113 176.596 188.411C176.571 190.781 176.789 193.165 177.066 195.524C177.277 197.324 177.639 199.122 178.121 200.87C179.455 205.698 181.936 210.019 184.28 214.396C184.665 215.116 185.459 215.286 185.922 214.676C186.197 214.314 186.358 213.659 186.234 213.233C185.604 211.064 184.806 208.944 184.178 206.774C183.198 203.395 182.308 199.989 181.38 196.434C181.326 196.376 181.235 196.324 181.225 196.259C181.003 194.848 180.769 193.439 180.581 192.023C180.344 190.239 179.991 188.452 179.969 186.662C179.936 183.975 180.021 181.271 180.295 178.599C180.504 176.552 180.975 174.513 181.517 172.522C182.481 168.985 184.027 165.693 186.216 162.737C187.079 161.572 188.036 160.471 189.005 159.39C190.186 158.073 191.597 156.928 192.601 155.493C194.517 152.755 195.342 149.57 195.5 146.264C195.583 144.522 195.507 142.726 195.166 141.021C194.708 138.731 194.034 136.469 193.257 134.263C192.027 130.769 190.151 127.683 187.099 125.422C184.553 123.536 181.744 123.469 178.58 123.812ZM179.499 119.346C178.177 119.308 176.845 120.429 175.52 120.61C175.467 120.617 175.378 120.878 175.419 120.972C175.799 121.841 176.577 122.305 177.413 122.498C178.969 122.858 180.561 122.268 182.14 122.527C185.873 123.139 188.666 125.329 190.99 128.095C192.93 130.405 194.226 133.146 194.978 136.076C195.542 138.273 196.103 140.508 196.281 142.757C196.475 145.197 196.442 147.666 195.888 150.119C195.221 153.075 193.979 155.676 191.93 157.892C190.867 159.042 189.746 160.139 188.698 161.302C187.197 162.968 185.982 164.838 184.917 166.809C183.733 169 182.789 171.285 182.088 173.679C181.302 176.363 180.816 179.106 180.776 181.883C180.743 184.119 181.004 186.365 181.236 188.596C181.418 190.344 181.681 192.09 182.039 193.81C182.679 196.884 183.361 199.951 184.132 202.994C184.735 205.376 185.47 207.735 186.678 209.893C186.965 210.408 187.548 211.02 188.061 211.086C188.883 211.193 190.126 209.157 189.898 208.331C189.58 207.177 189.261 206.022 188.939 204.869C187.883 201.083 187.399 197.193 187.222 193.297C187.075 190.056 187.313 186.79 187.518 183.544C187.643 181.555 187.938 179.565 188.32 177.608C188.75 175.396 189.375 173.223 189.894 171.028C190.523 168.363 191.975 166.047 193.027 163.561C194.185 160.825 195.439 158.126 196.528 155.363C197.432 153.068 197.956 150.665 198.299 148.207C198.586 146.145 198.734 144.079 198.386 142.058C197.998 139.797 197.348 137.574 196.693 135.37C195.811 132.4 194.786 129.47 194.89 126.147C194.953 124.758 194.107 123.897 193.093 123.179C191.426 122 189.475 121.438 187.578 120.775C184.966 119.862 182.248 119.426 179.499 119.346ZM120.913 200.944C120.063 202.461 119.242 203.994 118.331 205.602C118.218 205.822 118.104 206.043 117.991 206.264C117.457 207.313 116.567 208.267 117.312 209.615C117.472 209.903 117.513 210.052 117.859 210.032C119.093 209.961 120.337 209.986 121.558 209.829C122.01 209.77 122.645 209.388 122.777 209.008C122.955 208.495 122.759 207.837 122.666 207.25C122.535 206.43 122.339 205.62 122.196 204.801C122.121 204.368 122.073 203.926 122.059 203.487C122.032 202.617 122.118 201.765 121.491 200.988C121.195 200.621 121.071 200.663 120.913 200.944ZM196.019 127.734C196.119 128.816 196.092 129.934 196.37 130.969C197.021 133.394 197.859 135.768 198.547 138.184C199.114 140.172 199.588 142.191 199.549 144.282C199.529 145.306 199.445 146.328 199.394 147.352C199.279 149.671 198.662 151.887 197.987 154.087C196.615 158.562 194.402 162.681 192.556 166.956C191.752 168.819 191.098 170.764 190.578 172.726C190.016 174.845 189.633 177.018 189.278 179.184C188.979 181.011 188.672 182.862 188.651 184.705C188.606 188.574 188.425 192.454 188.935 196.313C189.124 197.744 189.261 199.182 189.422 200.777C189.69 202.542 189.906 204.318 190.261 206.066C190.353 206.519 190.82 207.16 191.212 207.24C192.499 207.503 193.544 206.89 194.075 205.671C194.884 203.813 195.481 201.966 194.935 199.83C194.407 197.764 194.195 195.611 193.939 193.484C193.663 191.186 193.417 188.878 193.303 186.567C193.176 183.999 193.2 181.413 193.781 178.891C194.212 177.021 194.703 175.154 195.331 173.342C196.459 170.089 197.836 166.917 198.881 163.639C200.265 159.296 200.962 154.793 201.301 150.252C201.439 148.403 201.301 146.535 201.329 144.677C201.371 141.982 201.156 139.31 200.676 136.661C200.379 135.021 200.131 133.363 199.691 131.759C199.19 129.936 198.13 128.468 196.431 127.496C195.976 127.235 195.988 127.397 196.019 127.734ZM200.74 131.235C200.773 131.443 200.807 131.65 200.841 131.938C201.217 134.06 201.692 136.171 201.94 138.309C202.218 140.694 202.378 143.102 202.421 145.503C202.456 147.386 202.294 149.279 202.112 151.157C201.913 153.223 201.707 155.301 201.296 157.332C200.729 160.128 200.082 162.92 199.253 165.649C198.506 168.109 197.494 170.49 196.554 172.889C194.871 177.186 194.062 181.626 194.243 186.244C194.273 187.02 194.185 187.804 194.259 188.574C194.435 190.392 194.652 192.207 194.899 194.016C195.06 195.196 195.346 196.359 195.501 197.54C195.665 198.799 195.949 200.098 195.783 201.326C195.67 202.16 196.05 202.657 196.294 203.272C196.359 203.439 196.714 203.559 196.946 203.578C197.582 203.631 198.584 202.71 198.915 201.877C199.749 199.778 199.96 197.561 200.003 195.347C200.028 194.024 199.686 192.697 199.562 191.366C199.383 189.456 199.083 187.536 199.144 185.631C199.219 183.32 199.524 181.004 199.904 178.719C200.254 176.618 200.658 174.494 201.352 172.489C203.017 167.677 204.012 162.758 204.21 157.68C204.312 155.077 204.344 152.472 204.37 149.867C204.379 149.006 204.264 148.144 204.221 147.281C204.159 146.044 204.188 144.797 204.041 143.571C203.779 141.366 203.578 139.131 203.043 136.986C202.589 135.167 201.699 133.456 201.002 131.616C200.915 131.489 200.827 131.362 200.74 131.235ZM204.756 139.603C204.684 139.707 204.577 139.803 204.549 139.918C204.514 140.07 204.528 140.239 204.543 140.398C204.7 142.127 204.907 143.853 205.011 145.585C205.12 147.408 205.124 149.238 205.19 151.064C205.202 151.392 205.291 151.716 205.345 152.203C205.291 153.601 205.278 155.003 205.175 156.397C204.993 158.856 204.898 161.335 204.5 163.761C204.1 166.202 203.511 168.634 202.761 170.992C201.507 174.929 200.473 178.907 200.231 183.032C200.099 185.303 200.264 187.596 200.37 189.876C200.481 192.259 200.665 194.64 200.851 197.019C200.908 197.751 200.985 198.509 201.229 199.192C201.408 199.693 201.874 200.091 202.212 200.536C202.66 200.087 203.264 199.712 203.522 199.172C203.999 198.172 204.367 197.096 204.611 196.013C204.896 194.745 205.118 193.44 205.147 192.145C205.17 191.117 204.766 190.086 204.723 189.049C204.647 187.221 204.639 185.385 204.718 183.557C204.807 181.504 204.983 179.452 205.195 177.407C205.413 175.316 205.735 173.235 205.984 171.147L206.229 169.108C206.432 167.408 206.627 165.708 206.779 164.003C206.952 162.071 207.081 160.128 207.096 158.189C207.116 155.613 207.033 153.035 206.944 150.459C206.886 148.787 206.777 147.114 206.622 145.448C206.438 143.485 205.863 141.625 204.926 139.884C204.874 139.787 204.813 139.697 204.756 139.603ZM243.101 186.253C244.548 186.588 246.001 186.9 247.46 187.177C248.29 187.334 249.138 187.4 250.058 187.508C252.108 187.668 254.076 187.917 256.048 187.971C259.763 188.074 263.382 187.468 266.882 186.201C266.928 186.184 266.958 186.096 266.997 186.095C267.337 186.085 267.678 186.088 268.018 186.087C267.791 186.292 267.59 186.543 267.332 186.696C265.404 187.84 263.348 188.586 261.121 188.986C258.642 189.431 256.156 189.365 253.695 189.226C250.984 189.073 248.283 188.685 245.614 188.031C243.351 187.477 241.173 186.74 239.023 185.878C238.888 185.824 238.769 185.729 238.643 185.653C238.767 185.628 238.891 185.606 239.013 185.577C240.471 185.231 241.751 185.941 243.101 186.253ZM244.358 165.805C245.241 166.127 246.118 166.468 246.986 166.83C247.511 167.05 248.016 167.318 248.57 167.604C251.062 168.722 253.582 169.527 256.235 170.011C258.766 170.473 261.298 170.536 263.833 170.425C265.424 170.355 267 169.953 268.585 169.71C268.778 169.68 268.981 169.713 269.18 169.717C269.059 169.903 268.983 170.164 268.812 170.263C267.129 171.248 265.346 171.913 263.375 172.076C258.654 172.465 254.23 171.285 249.974 169.441C247.973 168.574 246.127 167.347 244.218 166.27C244.056 166.178 243.951 165.986 243.819 165.841C244 165.826 244.204 165.748 244.358 165.805ZM119.681 165.811C119.55 166.103 119.435 166.405 119.283 166.686C118.973 167.26 118.467 167.781 118.66 168.505C118.954 169.607 119.293 170.696 119.626 171.787C119.643 171.842 119.86 171.893 119.864 171.885C119.953 171.71 120.025 171.526 120.1 171.182C120.251 170.925 120.354 170.615 120.564 170.422C120.851 170.157 120.888 169.953 120.76 169.575C120.432 168.613 120.184 167.624 119.906 166.645C119.828 166.368 119.756 166.089 119.681 165.811ZM121.476 161.621C121.392 161.714 121.281 161.794 121.231 161.903C120.929 162.551 120.554 163.181 120.366 163.862C119.961 165.335 120.66 166.703 120.904 168.115C121.011 168.065 121.173 168.045 121.218 167.962C121.682 167.089 122.166 166.223 122.558 165.317C122.696 164.997 122.689 164.542 122.58 164.202C122.424 163.715 122.114 163.278 121.869 162.658C121.816 162.44 121.777 162.217 121.703 162.006C121.654 161.868 121.553 161.749 121.476 161.621ZM123.345 154.053C123.282 154.22 123.161 154.388 123.165 154.553C123.195 155.747 122.864 156.842 122.435 157.947C122.166 158.641 122.013 159.371 122.132 160.21C122.258 161.106 122.839 161.599 123.245 162.252C123.429 162.548 123.693 162.792 123.921 163.06C124.122 162.792 124.322 162.524 124.604 162.175C124.925 161.586 125.261 161.004 125.565 160.406C126.238 159.077 126.231 159.074 125.165 157.91C125.079 157.816 125.001 157.712 124.926 157.608C124.26 156.676 123.89 155.628 123.679 154.51C123.648 154.342 123.46 154.205 123.345 154.053ZM125.631 148.763C125.555 148.893 125.473 149.018 125.405 149.152C125.082 149.793 124.826 150.479 124.427 151.069C123.809 151.981 124.241 152.831 124.447 153.7C124.818 155.265 125.32 156.777 126.402 158.024C126.652 158.312 126.649 158.314 126.936 157.752C127.465 157.009 127.976 156.251 128.531 155.528C128.791 155.19 129.024 154.977 128.592 154.55C128.108 154.072 127.643 153.515 127.36 152.903C126.791 151.672 126.353 150.38 125.854 149.116C125.804 148.989 125.706 148.881 125.631 148.763ZM148.754 153.921C149.319 154.183 149.868 154.526 150.338 154.936C151.641 156.074 153.127 156.59 154.85 156.475C155.091 156.459 160.215 156.201 159.831 156.859C159.57 157.308 155.701 158.053 155.258 158.059C153.475 158.083 151.337 157.231 150.441 156.859C150.08 156.709 147.415 155.105 147.916 154.164C148.109 153.8 148.554 153.829 148.754 153.921ZM128.154 144.793C127.882 145.211 127.493 145.598 127.368 146.057C127.214 146.62 126.668 147.061 126.853 147.726C127.235 149.096 127.529 150.497 128.009 151.831C128.311 152.672 128.883 153.416 129.347 154.195C129.357 154.213 129.567 154.165 129.614 154.098C130.244 153.196 131.09 152.57 132.163 152.043C132.434 151.855 132.689 151.637 132.979 151.487C133.319 151.312 133.278 151.271 132.974 151.065C131.043 149.758 129.704 147.938 128.629 145.906C128.441 145.551 128.311 145.165 128.154 144.793ZM39.2412 129.16C39.2981 129.246 39.3493 129.336 39.4126 129.417C40.9845 131.419 42.5582 133.421 44.1299 135.424C44.2875 135.624 44.4343 135.834 44.6263 136.079C46.2016 137.708 47.6657 139.374 49.2901 140.866C51.2595 142.674 53.3565 144.344 55.4134 146.056C56.8943 147.289 58.373 148.557 60.2102 149.223C61.3803 149.647 62.6063 150.056 63.833 150.156C66.5665 150.381 69.3189 150.365 72.0575 150.54C72.8883 150.594 73.7028 150.943 74.5156 151.188C74.636 151.224 74.9801 151.417 74.4525 151.495C72.9223 151.72 71.4095 152.073 69.8759 152.263C68.9429 152.378 67.9838 152.295 67.0367 152.282C64.599 152.246 62.2969 151.622 60.0505 150.709C57.1887 149.545 54.626 147.913 52.3311 145.863C50.7546 144.455 49.1099 143.096 47.7092 141.525C45.2084 138.719 42.8254 135.804 40.4874 132.86C39.7346 131.912 39.2522 130.738 39.2004 129.464C39.1963 129.363 39.2268 129.261 39.2412 129.16ZM130.508 140.684C129.797 141.581 128.885 142.424 129.126 143.713C129.298 144.638 129.625 145.536 129.915 146.436C130.542 148.386 132.151 149.484 133.655 150.663C133.736 150.726 134.012 150.662 134.105 150.567C135.364 149.278 136.607 147.974 137.854 146.673C138.093 146.424 138.43 146.209 137.713 146.151C137.231 146.111 136.768 145.862 136.292 145.72C135.695 145.541 135.094 145.377 134.334 145.207C133.773 144.699 133.259 144.119 132.638 143.698C131.582 142.982 130.929 142.052 130.707 140.802C130.698 140.75 130.516 140.674 130.508 140.684ZM169.411 135.24L168.861 135.423C167.456 135.893 166.063 136.393 164.935 137.44C163.642 138.642 162.979 140.187 162.573 141.848C162.49 142.183 162.433 142.517 162.403 142.846C162.431 142.723 162.469 142.603 162.509 142.494C162.617 142.197 162.889 141.954 163.112 141.708L163.202 141.609C163.639 141.14 164.109 140.783 164.815 141.242C165.592 141.748 165.249 142.379 165.032 142.995C164.958 143.203 164.848 143.398 164.714 143.639C164.352 144.238 163.856 144.563 163.239 144.375C162.904 144.273 162.53 143.934 162.404 143.612C162.394 143.586 162.386 143.56 162.379 143.533C162.404 144.664 162.77 145.735 163.546 146.683C164.224 147.511 165.053 148.235 165.887 148.916C167.908 150.564 170.176 150.853 172.473 149.657C175.4 148.133 176.857 145.372 178.163 142.392C178.245 141.724 178.43 141.048 178.387 140.388C178.301 139.092 177.466 138.175 176.527 137.392C174.467 135.677 172.281 134.277 169.411 135.24ZM133.527 134.756C133.34 134.973 133.141 135.18 132.973 135.411C132.888 135.526 132.85 135.68 132.808 135.822C132.43 137.11 131.975 138.383 131.71 139.695C131.543 140.517 131.758 141.372 132.324 142.231C132.964 142.687 133.604 143.145 134.246 143.598C135.54 144.513 137.069 144.806 138.56 145.187C138.681 145.218 138.973 144.998 139.019 144.845C139.436 143.454 139.816 142.052 140.195 140.65C140.203 140.622 140.072 140.522 139.998 140.512C138.685 140.338 137.387 140.263 136.275 139.309C135.06 138.266 134.314 136.983 133.773 135.53C133.679 135.276 133.608 135.014 133.527 134.756ZM148.695 129.115C147.139 129.375 146.116 130.513 145.222 131.744C144.128 133.25 143.51 134.954 143.45 136.789C143.4 138.311 143.834 139.775 144.54 141.149L144.652 141.368C145.081 142.203 145.517 142.999 146.443 143.446C148.737 144.554 151.143 144.923 153.644 144.543C154.392 144.429 155.268 144.253 155.801 143.783C157.842 141.982 158.972 139.662 159.264 136.843C159.238 136.233 159.247 135.619 159.177 135.014C158.97 133.208 158.021 131.834 156.62 130.73C155.388 129.759 153.947 129.203 152.441 129.003C151.216 128.841 149.92 128.911 148.695 129.115ZM152.592 117.625C151.758 120.138 150.929 122.653 150.113 125.172C150.295 125.135 150.487 125.063 150.638 125.114C151.545 125.422 152.417 125.79 153.126 126.484C153.525 126.875 154.012 127.174 154.5 127.555C154.604 127.643 154.706 127.726 154.806 127.806C154.866 127.822 154.925 127.838 154.985 127.855C156.811 128.372 158.386 129.337 159.507 130.934C161.005 133.067 161.369 135.558 161.757 138.042C161.777 138.169 161.792 138.296 161.809 138.423C161.939 138.366 162.089 138.335 162.193 138.248C162.398 138.076 162.578 137.876 162.766 137.684C164.228 136.184 165.868 134.899 167.757 134.008C169.765 133.062 171.832 132.827 174.006 133.692C175.638 134.341 176.948 135.384 178.223 136.512C178.779 137.003 181.392 138.249 186.062 140.249C185.299 137.024 184.512 134.706 183.702 133.296C182.682 131.521 181.531 130.165 180.096 128.838C177.591 126.521 174.97 124.391 172.06 122.592C168.999 120.7 165.692 119.444 162.247 118.52C159.826 117.871 157.373 117.344 154.937 116.75C153.873 116.491 152.849 116.849 152.592 117.625ZM136.694 131.707C135.414 132.574 134.394 134.053 134.974 135.875C135.618 137.894 137.896 139.639 140.056 139.716C140.261 139.724 140.575 139.466 140.669 139.256C140.929 138.669 141.113 138.046 141.294 137.428C141.328 137.31 141.21 137.023 141.158 137.022C139.787 136.992 138.911 136.114 137.953 135.154C137.335 134.142 136.912 133.074 136.975 131.857C136.978 131.808 136.738 131.677 136.694 131.707ZM69.5873 133.874C70.298 134.227 71.0058 134.592 71.6859 135.001C73.1009 135.851 74.4684 136.785 75.9138 137.578C76.6844 138.001 77.5798 138.194 78.4116 138.51C78.595 138.579 78.7478 138.73 78.9147 138.843C78.7427 138.927 78.5407 138.978 78.4035 139.1C77.4038 139.995 76.4635 139.168 75.5301 138.975C73.6019 138.576 72.2545 137.254 70.9235 135.838C70.3384 135.307 69.7847 134.825 69.2552 134.317C69.1281 134.196 69.0812 133.99 68.9975 133.824C69.1957 133.837 69.4231 133.792 69.5873 133.874ZM146.069 135.348C146.746 135.635 146.687 136.179 146.65 136.706C146.59 137.58 145.4 138.722 144.638 138.581C144.367 138.531 143.958 138.119 143.965 137.881C143.981 137.264 144.193 136.653 144.368 135.999C144.483 135.883 144.56 135.808 144.635 135.731C145.036 135.318 145.447 135.084 146.069 135.348ZM138.999 129.284C138.757 129.638 138.426 129.961 138.29 130.352C137.625 132.268 138.84 135.256 141.372 135.984C141.493 136.019 141.762 135.909 141.798 135.808C142.197 134.69 142.566 133.56 142.934 132.431C142.957 132.359 142.909 132.19 142.892 132.189C141.008 132.163 140.092 131.004 139.545 129.381C139.511 129.281 139.24 129.261 138.999 129.284ZM172.085 132.76C172.245 132.845 172.378 132.982 172.523 133.095C172.365 133.058 172.209 133.011 172.05 132.985C170.402 132.714 168.752 132.453 167.106 132.172C166.876 132.132 166.663 131.993 166.443 131.9C166.684 131.832 166.925 131.764 167.247 131.696C169 131.663 170.597 131.971 172.085 132.76ZM143.01 124.307C142.826 124.579 142.638 124.848 142.46 125.124C142.436 125.162 142.476 125.239 142.454 125.281C141.943 126.247 141.451 127.224 140.903 128.169C140.596 128.697 140.579 129.733 141.037 130.012C141.69 130.411 142.4 130.717 143.092 131.051C143.551 131.272 143.829 130.992 144.061 130.652C144.502 130.007 144.906 129.336 145.375 128.712C145.742 128.225 145.38 128.326 145.03 128.238C143.362 127.821 143.17 126.426 142.948 125.066C142.909 124.823 142.986 124.561 143.01 124.307ZM145.739 120.453C145.503 120.644 145.178 120.788 145.045 121.035C144.305 122.405 144.029 123.903 144.081 125.439C144.121 126.642 144.86 127.462 146.024 127.77C146.185 127.813 146.414 127.748 146.564 127.656C146.951 127.417 147.312 127.136 147.764 126.791C147.925 126.51 148.13 126.245 148.236 125.944C148.385 125.522 148.482 125.078 148.557 124.636C148.583 124.481 148.534 124.229 148.425 124.149C147.347 123.349 146.546 122.336 145.997 121.118C145.899 120.901 145.824 120.675 145.739 120.453ZM150.093 125.24L149.762 126.261C149.725 126.375 149.882 126.668 149.993 126.694C150.975 126.93 151.966 127.13 152.951 127.35C152.41 126.951 151.868 126.55 151.324 126.152C151.041 125.945 150.726 125.782 150.44 125.578C150.31 125.485 150.204 125.358 150.093 125.24ZM150.613 113.498C150.052 113.972 149.517 114.477 148.89 115.05C147.834 115.861 147.401 117.024 147.138 118.258C146.787 119.9 146.961 121.424 148.28 122.65C148.727 123.065 149.02 122.889 149.205 122.434C149.774 121.037 150.316 119.627 150.865 118.222C151.441 116.746 151.765 115.275 151.173 113.692C150.991 113.206 150.858 113.292 150.613 113.498ZM170.7 114.997C170 115.155 169.203 116.229 168.919 117.062C168.795 117.428 168.612 117.711 169.322 117.905C170.88 118.332 172.366 119.012 173.74 120.112C174.049 120.124 174.368 120.193 174.665 120.14C175.781 119.938 176.886 118.74 178.003 118.706C179.508 118.661 181.033 118.801 182.527 119.013C184.07 119.232 185.625 119.511 187.104 119.986C189.057 120.613 190.939 121.457 192.853 122.205C192.98 122.255 193.116 122.283 193.248 122.321C193.214 122.21 193.161 122.102 193.148 121.989C193.058 121.245 192.56 120.779 191.975 120.449C190.307 119.506 188.642 118.549 186.917 117.718C184.032 116.329 181.051 115.247 177.841 114.773C175.421 114.417 173.055 114.468 170.7 114.997ZM168.997 110.789C166.622 110.889 164.628 111.787 163.137 113.676C162.416 114.59 162.578 115.925 163.676 116.246C165.041 116.645 166.417 117.002 167.95 117.378C168.272 116.895 168.496 115.48 168.935 115.155C170.16 114.25 171.617 113.881 173.124 113.859C174.441 113.839 175.77 113.862 177.073 114.027C178.625 114.223 180.186 114.481 181.688 114.904C184.998 115.836 188.075 117.342 191.083 118.989C191.266 119.089 191.46 119.167 191.649 119.256C191.647 118.969 191.679 118.675 191.626 118.398C191.601 118.267 191.43 118.143 191.298 118.058C190.116 117.294 188.98 116.435 187.73 115.803C185.121 114.485 182.458 113.284 179.627 112.474C176.146 111.477 172.653 110.636 168.997 110.789ZM164.065 105.3C161.427 105.589 159.125 106.472 157.35 108.518C156.322 109.703 155.708 111.054 155.646 112.798C155.646 113.039 155.597 114.094 155.658 114.319C155.734 114.601 155.856 115.051 156.037 115.093C156.832 115.277 157.654 115.357 158.471 115.429C158.59 115.439 158.827 115.209 158.846 115.068C158.934 114.424 158.868 112.946 159.032 112.328C159.669 109.932 161.388 108.556 163.614 107.738C165.483 107.051 167.428 107.038 169.404 107.059C172.335 107.091 175.199 107.515 178.018 108.238C179.16 108.532 180.235 109.088 181.332 109.547C181.473 109.607 181.558 109.803 181.669 109.935C181.505 109.91 181.332 109.91 181.178 109.857C177.45 108.57 173.594 107.967 169.674 107.741C167.752 107.63 165.824 107.829 164 108.406C161.984 109.044 160.29 110.186 159.603 112.376C159.232 113.557 159.765 115.402 160.918 115.828C161.591 116.077 161.833 115.765 162.095 115.217C162.428 114.52 162.78 112.992 163.288 112.426C164.892 110.64 167.059 110.048 169.343 110.018C170.855 109.997 172.39 110.208 173.883 110.488C176.128 110.91 178.382 111.358 180.564 112.02C183.829 113.011 186.948 114.382 189.828 116.249C190.034 116.383 190.303 116.419 190.543 116.501C190.47 116.265 190.426 116.015 190.32 115.793C189.01 113.044 187.411 110.495 185.089 108.474C183.728 107.288 182.176 106.406 180.418 105.977C179.144 105.665 177.858 105.588 176.515 105.756C175.25 105.914 173.938 105.703 172.647 105.637C172.025 105.605 171.4 105.566 170.784 105.474C168.551 105.138 166.324 105.052 164.065 105.3ZM154.915 110.305C154.825 110.344 154.722 110.367 154.645 110.425C154.175 110.778 153.754 111.23 153.236 111.478C152.396 111.881 152.547 112.519 152.66 113.188C152.677 113.284 152.741 113.375 152.747 113.471C152.779 113.968 152.8 114.466 152.825 114.963C152.937 115.66 153.794 115.66 154.359 115.528C154.466 115.118 154.618 114.714 154.672 114.297C154.797 113.326 154.878 111.549 154.97 110.574C154.979 110.487 154.935 110.395 154.915 110.305ZM123.958 65.4072C124.106 65.5873 123.994 66.0006 123.961 66.3071C123.94 66.5021 123.796 66.6943 123.808 66.8808C123.955 69.0397 124.177 71.1951 124.265 73.3561C124.344 75.2826 124.279 77.215 124.286 79.1447C124.287 79.3987 124.315 79.865 124.376 79.8725C124.85 79.9312 125.335 79.9088 125.815 79.8839C125.846 79.8823 125.897 79.6489 125.884 79.529C125.847 79.1743 125.767 78.8239 125.732 78.4691C125.512 76.2534 125.23 74.0408 125.108 71.8195C125.003 69.9223 125.05 68.0133 125.124 66.1132C125.136 65.8219 125.637 65.3492 125.946 65.3195C126.356 65.2801 126.592 65.6876 126.547 66.2004C126.491 66.8387 126.486 67.49 126.542 68.1282C126.734 70.2928 126.959 79.2687 127.034 79.8017C127.042 79.8547 127.301 79.9017 127.444 79.9019C131.384 79.9073 135.324 79.9382 139.264 79.8916C141.016 79.8709 142.766 79.6843 144.518 79.5871C145.728 79.5201 146.945 79.5376 148.149 79.4122C151.506 79.0622 154.867 78.9317 158.242 78.9146C159.945 78.906 161.645 78.5961 163.35 78.4643C165.72 78.281 168.092 78.0823 170.467 77.9902C173.364 77.8777 176.265 77.8591 179.165 77.8258C179.607 77.8207 179.81 77.795 179.787 77.2488C179.695 75.1016 179.67 72.9516 179.608 70.803C179.566 69.324 179.51 67.8452 179.446 66.3669C179.427 65.9407 179.552 65.7404 180.022 65.7404C180.509 65.7404 180.574 65.978 180.583 66.3852C180.617 67.8108 180.522 69.2647 180.774 70.654C181.15 72.7318 180.994 74.8045 181.059 76.8798C181.084 77.673 181.456 77.967 182.208 77.818C182.558 77.7487 182.913 77.6618 183.267 77.6613C190.611 77.6523 197.954 77.6414 205.298 77.6619C207.742 77.6687 214.186 77.7536 216.629 77.8207C217.278 77.8385 217.926 77.9096 218.572 77.9797C219.256 78.0538 219.791 78.7589 219.797 79.5997C219.807 81.047 219.799 82.4944 219.799 83.9417C219.799 84.0758 219.792 84.2102 219.801 84.3437C219.825 84.74 220.013 85.3799 219.852 85.4837C219.456 85.7394 218.904 85.8234 218.41 85.8451C215.4 85.9768 208.389 86.1036 205.377 86.171C201.513 86.2574 197.649 86.2917 193.784 86.3384C188.875 86.3977 183.965 86.4381 179.056 86.505C177.068 86.5321 175.08 86.6037 173.092 86.6628C171.506 86.7099 169.92 86.7758 168.334 86.8206C166.185 86.8812 164.036 86.9349 161.888 86.9818C159.176 87.041 156.464 87.0879 153.753 87.1447C151.362 87.1948 148.972 87.2512 146.582 87.3048C144.192 87.3584 141.802 87.3892 139.413 87.4725C137.258 87.5475 135.105 87.6667 132.952 87.7921C131.548 87.874 130.143 87.9699 128.744 88.1172C127.034 88.2974 125.331 88.5559 123.622 88.7464C122.383 88.8844 121.14 89.0044 119.896 89.0663C117.234 89.1988 114.569 89.2547 111.909 89.4085C110.337 89.4994 100.773 89.7426 99.2021 89.8637C98.6953 89.9028 98.1655 89.8137 97.6665 89.6966C97.4638 89.6491 97.1935 89.3899 97.1626 89.1942C97.0101 88.2272 96.9141 87.2505 96.8245 86.2748C96.7504 85.468 96.6576 84.6564 96.6776 83.8496C96.6927 83.2393 96.8603 82.655 96.7232 82.0115C96.6828 81.8222 97.3779 81.2893 97.7843 81.2265C99.066 81.0283 108.374 81.0082 109.665 80.8638C111.296 80.6815 112.92 80.4432 114.548 80.2341C114.706 80.2138 114.868 80.234 115.028 80.2272C117.503 80.121 119.978 79.9985 122.454 79.9206C122.88 79.9071 122.839 79.7134 122.837 79.4359C122.83 78.3638 122.813 77.2911 122.84 76.2197C122.867 75.1694 122.942 74.1202 122.995 72.9901C122.787 71.4147 122.539 69.9237 122.385 68.423C122.296 67.5496 122.308 66.6562 122.384 65.7815C122.406 65.5396 122.792 65.21 123.066 65.1434C123.338 65.077 123.787 65.2007 123.958 65.4072ZM205.591 78.7898C197.894 78.8195 190.198 78.8791 182.502 78.9447C178.584 78.9781 174.665 79.0062 170.749 79.1203C168.857 79.1754 166.97 79.4368 165.079 79.5812C162.788 79.7562 160.496 79.9075 158.204 80.0664C157.369 80.1243 156.533 80.173 155.698 80.2282C153.272 80.3883 150.848 80.5918 148.419 80.6986C145.978 80.806 143.533 80.8176 140.929 80.8713C140.308 80.9249 139.687 81.018 139.066 81.0259C133.969 81.0905 128.872 81.1149 123.776 81.2045C121.621 81.2424 119.469 81.4054 117.316 81.5155C116.373 81.5637 115.429 81.6017 114.488 81.6794C112.03 81.8822 101.574 82.1104 99.1159 82.3144C98.5358 82.3625 98.2027 82.5068 98.2507 83.221C98.3589 84.83 98.4002 86.4449 98.4132 88.0579C98.417 88.5314 98.5484 88.6359 98.9879 88.5986C100.47 88.4728 109.954 88.3756 111.437 88.2703C112.974 88.1612 114.51 88.0408 116.048 87.9518C118.147 87.8302 120.247 87.7383 122.346 87.6214C122.648 87.6046 122.944 87.5064 123.245 87.4679C124.545 87.3018 125.843 87.1248 127.146 86.9886C128.412 86.8562 129.682 86.747 130.952 86.6659C133.699 86.4906 136.445 86.3046 139.195 86.1894C141.663 86.0861 144.135 86.0731 146.605 86.0177C148.915 85.966 151.224 85.9071 153.534 85.8583C156.272 85.8004 159.01 85.7432 161.748 85.6981C165.425 85.6377 169.101 85.5978 172.777 85.532C174.605 85.4992 176.432 85.4314 178.258 85.3738C179.818 85.3247 181.376 85.2479 182.936 85.2179C186.397 85.1515 189.859 85.1029 193.321 85.0541C197.426 84.9962 201.532 84.9716 205.637 84.8835C208.514 84.8217 215.391 84.6827 218.267 84.5557C218.407 84.5495 218.653 84.3299 218.656 84.2056C218.684 82.8393 218.673 81.4723 218.674 80.1054C218.675 79.5262 218.34 79.1992 217.818 79.1131C217.204 79.0121 216.578 78.9661 215.956 78.9464C213.835 78.8792 207.712 78.7816 205.591 78.7898ZM183.32 64.5536C183.514 67.3545 183.717 70.1552 183.966 72.9517C184.046 73.8552 184.251 74.7504 184.441 75.6406C184.605 76.4102 184.151 76.9501 183.189 76.9709C182.988 76.3822 182.757 75.8433 182.681 75.2833C182.525 74.1308 182.399 72.9692 182.356 71.8077C182.266 69.3976 182.237 66.9852 182.185 64.5737C182.177 64.2061 182.105 63.8301 182.697 63.8093C183.29 63.7885 183.289 64.1078 183.32 64.5536Z" fill="#00160A"/>
<path fill-rule="evenodd" clip-rule="evenodd" d="M154.701 223.984C151.522 231.95 138.593 222.244 136.973 216.532C136.365 214.39 140.528 210.001 142.611 211.737C146.319 214.827 146.052 219.727 151.753 220.954C152.602 221.137 154.426 221.11 155.251 221.347C155.676 221.469 155.492 222.348 154.701 223.984Z" fill="#CF75F9"/>
<path fill-rule="evenodd" clip-rule="evenodd" d="M206.652 185.256C207.024 187.05 207.348 188.765 207.31 190.537C207.287 191.585 207.391 192.637 207.459 193.686C207.651 196.669 206.276 198.764 203.862 200.383C202.205 201.495 200.709 202.842 199.073 203.986C197.698 204.947 196.256 205.823 194.787 206.635C191.819 208.278 188.779 209.817 187.429 213.247C186.804 214.837 185.973 216.39 185.641 218.041C185.258 219.948 185.608 221.845 187.363 223.148C187.424 223.193 187.453 223.282 187.514 223.324C187.787 223.507 188.08 223.832 188.338 223.808C188.537 223.789 188.722 223.341 188.865 223.06C189.182 222.43 188.892 221.875 188.749 221.241C188.533 220.283 188.702 219.236 188.731 218.227C188.734 218.118 188.89 218.013 188.975 217.906C189.024 218.034 189.104 218.159 189.116 218.29C189.18 218.99 189.163 219.706 189.304 220.389C189.406 220.886 189.66 221.375 189.939 221.806C190.229 222.254 191.205 222.041 191.365 221.499C191.66 220.498 191.608 219.492 191.393 218.468C191.284 217.949 191.372 217.386 191.404 216.844C191.408 216.764 191.596 216.694 191.699 216.619C191.751 216.717 191.836 216.821 191.847 216.911C192.325 220.611 193.024 220.611 193.311 220.72C193.598 220.83 193.966 220.682 194.099 220.611C194.268 220.522 194.394 220.227 194.416 220.008C194.501 219.176 194.399 218.3 194.624 217.513C194.913 216.498 195.352 215.494 195.91 214.6C196.28 214.006 196.957 213.596 197.519 213.132C198.983 211.926 200.502 210.803 202.346 210.233C203.654 209.829 204.973 209.458 206.282 209.058C208.541 208.368 210.842 207.783 213.044 206.942C216.478 205.631 219.037 203.356 219.817 199.595C220.245 197.533 219.916 195.454 219.137 193.512C218.52 191.974 217.682 190.524 216.949 189.032C216.875 188.88 216.846 188.706 216.796 188.542C216.929 188.628 217.085 188.693 217.191 188.804C219.06 190.765 220.297 193.09 220.869 195.717C221.482 198.532 221.679 201.38 220.295 204.056C219.991 204.642 219.372 205.115 218.807 205.507C217.101 206.692 215.194 207.491 213.243 208.174C210.971 208.969 208.737 209.97 206.397 210.439C204.14 210.892 202.183 211.936 200.106 212.755C198.83 213.258 198.136 214.429 197.136 215.242C196.081 216.1 195.778 217.151 195.872 218.418C195.9 218.792 195.861 219.169 195.879 219.544C195.99 221.952 194.794 222.169 192.981 221.454C192.902 221.424 192.679 221.527 192.672 221.584C192.523 222.942 191.747 223.607 190.508 223.164C189.975 222.973 190.002 223.332 189.949 223.457C189.404 224.762 188.07 225.184 187.154 224.175C186.205 223.127 185.323 221.968 184.673 220.72C184.351 220.102 184.5 219.155 184.644 218.396C184.889 217.098 185.221 215.805 185.658 214.559C186.236 212.91 187.183 211.468 188.284 210.091C189.408 208.685 190.809 207.677 192.325 206.827C194.407 205.66 196.458 204.45 198.397 203.062C199.191 202.493 199.866 201.759 200.647 201.17C201.678 200.392 202.763 199.684 203.822 198.943C205.266 197.931 206.255 196.722 206.207 194.783C206.175 193.488 206.596 192.186 206.623 190.883C206.65 189.591 206.422 188.294 206.338 186.997C206.297 186.374 206.326 185.746 206.335 185.121C206.337 185.01 206.394 184.899 206.426 184.788C206.502 184.917 206.577 185.046 206.652 185.256Z" fill="#00160A"/>
<path fill-rule="evenodd" clip-rule="evenodd" d="M48.226 98.081C48.3017 97.9155 48.4433 97.7554 48.444 97.7559C50.0976 99.2063 51.1424 101.012 51.8017 103.115C52.0855 104.02 52.7114 104.847 53.298 105.621C54.4046 107.082 55.5986 108.477 56.7385 109.913C56.7836 109.97 56.6859 110.236 56.5886 110.294C55.9348 110.687 54.7665 110.478 54.0629 109.768C53.4625 109.162 52.9348 108.479 52.4085 107.805C51.6188 106.792 50.5128 106.392 49.3243 106.121C47.4343 105.69 46.0269 104.529 44.8538 103.063C42.8748 100.591 42.0468 97.6646 41.6397 94.5921C41.5412 93.8487 41.3863 93.0589 41.5339 92.3479C41.8388 90.8789 43.1517 90.0756 44.7948 90.5578C47.7435 91.423 50.6772 92.3867 53.5209 93.5456C55.3694 94.2989 56.1067 96.0424 56.4516 97.9807C56.7427 99.6175 56.3803 101.093 55.7337 102.547C55.5099 103.051 55.4705 103.032 55.1405 102.56C54.4963 101.639 54.3329 100.554 54.5322 99.5364C54.9699 97.3018 53.9612 95.5388 52.1828 94.8702C50.1185 94.0941 48.0602 93.2899 45.957 92.6332C43.8753 91.9832 43.9041 92.1236 44.2887 94.1419C44.8101 96.8785 45.8106 99.5456 46.8229 102.158C47.3627 103.551 48.4786 104.598 50.0592 105.021C50.6213 105.172 50.5441 104.857 50.464 104.63C50.0851 103.556 49.6821 102.489 49.2423 101.439C48.7974 100.377 48.1698 99.3771 48.226 98.081Z" fill="#FFB61D"/>
<path fill-rule="evenodd" clip-rule="evenodd" d="M211.437 182.723C209.378 182.087 207.443 182.373 205.513 183.135C205.06 183.314 204.425 183.211 203.938 183.048C203.714 182.972 204.419 181.766 204.984 181.551C205.656 181.296 206.346 181.015 207.049 180.933C209.194 180.683 211.182 181.255 213.071 182.257C213.901 182.697 214.777 183.051 215.603 183.5C215.956 183.692 216.249 184.009 216.536 184.302C216.615 184.384 216.633 184.676 216.579 184.709C216.447 184.79 216.23 184.844 216.094 184.79C215.244 184.454 214.404 184.092 213.567 183.723C212.866 183.414 212.174 183.084 211.437 182.723Z" fill="#00160A"/>
<path fill-rule="evenodd" clip-rule="evenodd" d="M147.906 68.4463C146.511 69.4125 145.19 70.3936 143.792 71.2495C142.266 72.1837 140.68 73.0212 139.093 73.849C138.866 73.9675 138.312 73.8971 138.217 73.7342C138.05 73.4498 137.989 73.0594 138.524 72.8063C139.467 72.3598 140.365 71.8058 141.243 71.2368C142.598 70.3588 143.915 69.4234 145.257 68.5261C145.987 68.0382 146.704 67.5104 147.492 67.1394C147.814 66.9881 148.557 67.065 148.677 67.2799C149.038 67.9221 148.476 68.2048 147.906 68.4463Z" fill="#E7EAEE"/>
<path fill-rule="evenodd" clip-rule="evenodd" d="M157.878 169.293C158.347 168.877 158.771 168.494 159.208 168.129C159.336 168.023 159.505 167.965 159.655 167.885C159.719 168.024 159.821 168.158 159.842 168.303C159.98 169.262 159.997 170.281 160.888 170.918C161.266 171.188 161.709 171.471 162.152 171.531C163.799 171.754 165.746 171.584 166.871 169.82C167.326 169.105 167.186 168.378 167.259 167.642C167.278 167.448 167.41 167.136 167.543 167.104C168.085 166.975 167.894 167.437 167.879 167.659C167.818 168.545 168.044 169.42 167.443 170.298C166.717 171.358 165.761 172.034 164.603 172.178C163.469 172.319 162.272 172.401 161.118 171.926C160.084 171.5 159.588 170.752 159.364 169.731C159.334 169.595 159.278 169.465 159.234 169.333C159.129 169.402 159.024 169.471 158.918 169.539C157.798 170.254 156.733 171.115 155.306 171.083C155.102 171.079 154.903 170.821 154.701 170.681C154.884 170.607 155.069 170.536 155.25 170.458C156.113 170.084 156.975 169.708 157.878 169.293Z" fill="#00160A"/>
<path fill-rule="evenodd" clip-rule="evenodd" d="M191.976 68.9291C192.914 68.0981 193.792 67.283 194.723 66.5328C194.972 66.3319 195.378 66.2781 195.718 66.2581C195.87 66.2491 196.168 66.488 196.17 66.6174C196.173 66.8641 196.08 67.1924 195.904 67.345C195.488 67.7059 194.965 67.9439 194.546 68.3025C193.178 69.474 191.852 70.6969 190.465 71.8455C190.275 72.0029 189.742 71.9717 189.523 71.8132C189.228 71.5999 189.341 71.2079 189.63 70.9559C190.395 70.2894 191.167 69.6309 191.976 68.9291Z" fill="#E7EAEE"/>
<path fill-rule="evenodd" clip-rule="evenodd" d="M165.96 211.955C165.175 212.062 164.473 212.218 163.764 212.264C162.929 212.318 162.084 212.325 161.252 212.249C160.983 212.225 160.744 211.876 160.492 211.675C160.739 211.554 160.975 211.367 161.235 211.323C162.615 211.089 163.996 210.823 165.388 210.7C166.564 210.596 167.756 210.66 168.941 210.686C169.076 210.688 169.305 210.923 169.31 211.056C169.314 211.191 169.112 211.429 168.968 211.457C167.997 211.648 167.018 211.794 165.96 211.955Z" fill="#00160A"/>
<path fill-rule="evenodd" clip-rule="evenodd" d="M108.259 68.3659C108.585 68.1113 108.842 67.8168 109.163 67.7064C109.446 67.6092 110.03 67.6295 110.077 67.7527C110.202 68.0783 110.261 68.4428 109.809 68.7876C108.431 69.8373 107.135 70.994 105.803 72.1043C105.67 72.2158 105.514 72.3634 105.36 72.3746C105.09 72.3941 104.669 72.4127 104.575 72.2643C104.446 72.0608 104.441 71.5637 104.592 71.4303C105.773 70.39 107.004 69.4069 108.259 68.3659Z" fill="#E7EAEE"/>
<path fill-rule="evenodd" clip-rule="evenodd" d="M195.555 72.0251C196.64 71.0741 197.743 70.2252 198.8 69.3213C199.184 68.9926 199.578 68.7426 199.943 69.1357C200.266 69.484 200.069 69.9068 199.7 70.2155C198.645 71.099 197.617 72.0171 196.531 72.861C196.321 73.0241 195.898 72.913 195.573 72.9284C195.567 72.6541 195.561 72.3798 195.555 72.0251Z" fill="#E7EAEE"/>
<path fill-rule="evenodd" clip-rule="evenodd" d="M159.084 172.67C159.366 173.032 159.81 173.359 159.803 173.676C159.791 174.206 159.634 174.759 159.022 175.096C158.118 175.593 157.352 175.397 156.611 174.85C155.965 174.373 155.998 173.517 156.649 172.612C156.92 172.236 157.971 172.085 158.442 172.346C158.636 172.453 158.843 172.536 159.084 172.67ZM158.883 173.112C158.663 172.999 158.452 172.856 158.219 172.778C157.68 172.597 157.252 172.727 156.96 173.26C156.674 173.781 156.927 174.155 157.313 174.407C157.568 174.574 157.955 174.667 158.251 174.614C158.574 174.556 158.974 174.359 159.127 174.098C159.244 173.896 159.03 173.502 158.883 173.112Z" fill="#00160A"/>
<path fill-rule="evenodd" clip-rule="evenodd" d="M149.514 72.4674C150.198 72.0523 150.822 71.6376 151.496 71.3293C151.673 71.2482 152.222 71.5011 152.22 71.5924C152.212 71.9529 152.166 72.4585 151.928 72.6394C151.32 73.1018 150.625 73.4776 149.915 73.7638C149.653 73.8697 149.055 73.7275 148.952 73.5246C148.736 73.1007 148.952 72.6722 149.514 72.4674Z" fill="#E7EAEE"/>
</svg>
