<svg width="60" height="60" viewBox="0 0 60 60" fill="none" xmlns="http://www.w3.org/2000/svg">
<circle cx="30" cy="30" r="30" fill="#0077B6"/>
<path d="M47.7311 36.6501C47.5951 36.2615 47.4785 35.9312 47.1677 35.6397C46.7791 35.2511 46.3128 35.4066 45.827 35.426C45.555 35.4454 45.3219 35.4843 45.0498 35.4454C44.7973 35.4066 44.6224 35.3289 44.3504 35.3871C43.7675 35.5037 43.7286 35.97 43.5538 36.4558C43.3789 36.9804 43.4178 37.4467 43.476 37.9907C43.5343 38.6319 43.5538 39.1176 43.34 39.7394C43.2623 39.9337 43.2235 40.1474 43.1457 40.3223C43.0486 40.5554 42.9126 40.5749 42.7377 40.7303C42.524 40.9052 42.5628 41.0412 42.4268 41.2743C42.3103 41.4881 42.1354 41.5463 41.9217 41.6435C41.5719 41.8184 41.1639 41.9738 40.7947 42.1098C40.2701 42.3041 39.7844 42.0709 39.2598 42.0709C39.0655 42.0709 38.8324 42.1875 38.6381 42.1292C38.4826 42.0709 38.4243 41.9155 38.3078 41.7989C37.958 41.4686 37.5111 41.2549 37.1225 40.9635C36.734 40.6526 36.4619 40.3417 36.1899 39.9143C36.0539 39.7005 35.9373 39.4285 35.7236 39.2731C35.5682 39.1565 35.3933 39.0982 35.2573 38.9816C34.8687 38.6902 34.6744 38.3599 34.383 37.9907C34.2275 37.7964 34.1109 37.7576 34.3052 37.5438C34.4218 37.4273 34.655 37.2913 34.8104 37.1941C35.0047 37.0581 35.2573 36.8832 35.471 36.8055C35.6653 36.7278 35.879 36.7667 36.0539 36.6889C36.2288 36.6112 36.5202 36.3781 36.6368 36.2226C36.7728 36.0672 36.7922 35.834 36.9477 35.7175C37.0837 35.6009 37.2974 35.6203 37.4334 35.5426C37.6277 35.426 37.6471 35.2706 37.7637 35.0763C37.9192 34.8625 38.0552 34.8237 38.2689 34.6877C38.4632 34.5517 38.5798 34.3962 38.7158 34.2019C38.9684 33.8522 39.1044 33.5413 39.4735 33.3082C39.901 33.0167 40.0564 32.5504 40.2896 32.123C40.4062 31.9092 40.6005 31.7538 40.717 31.5401C40.8142 31.3458 40.8336 31.1126 40.9113 30.9378C41.1445 30.4714 41.4359 30.1023 41.6302 29.5971C41.8051 29.1502 41.7857 28.7228 41.8051 28.2565C41.844 27.7707 42.0188 27.3238 42.116 26.8575C42.1937 26.3912 41.9411 25.9055 41.98 25.4197C41.9994 25.1866 42.1743 24.9923 42.1548 24.7591C41.8051 20.9315 38.5603 16.3655 34.7716 15.1997C34.2858 15.0443 33.7806 15.0637 33.2949 14.9472C33.0229 14.8694 32.7314 14.8306 32.4594 14.7529C32.2457 14.6946 32.0903 14.5586 31.896 14.4808C31.6628 14.3837 31.3908 14.4226 31.1382 14.3643C30.9245 14.306 30.7496 14.1505 30.5359 14.1117C30.2833 14.0728 30.0696 14.2283 29.7976 14.1894C29.545 14.1505 29.3701 14.0145 29.0981 14.0145C28.0295 14.0534 26.922 13.9368 25.8533 14.0534C25.5425 14.0922 25.3676 14.0534 25.0567 14.0145C24.7847 13.9757 24.6098 14.034 24.3573 14.0922C23.9298 14.2088 23.5801 14.3254 23.1332 14.3643C22.628 14.4031 22.1617 14.5391 21.676 14.6557C21.2679 14.7529 20.7239 14.714 20.3548 14.9083C19.869 15.1609 19.4221 15.5106 18.9364 15.7438C18.7421 15.8409 18.5478 15.8215 18.3535 15.8798C18.1398 15.9575 18.0232 16.1324 17.8678 16.2684C17.4986 16.5987 17.11 16.8901 16.702 17.1427C16.5077 17.2593 16.2357 17.337 16.0802 17.5313C15.9442 17.6867 15.8859 17.881 15.7694 18.0559C15.4973 18.4056 15.1087 18.6194 14.7979 18.9302C14.4676 19.2605 14.1956 19.7268 13.943 20.1349C13.671 20.5623 13.5349 21.0092 13.2629 21.4367C13.0103 21.8447 13.0686 22.2721 12.7966 22.6413C12.5829 22.9133 12.6023 23.0105 12.6023 23.3408C12.6023 23.6128 12.5052 23.7876 12.4275 24.0597C12.3692 24.2734 12.3303 24.4871 12.2914 24.7008C12.2526 24.9534 12.3303 25.1866 12.3109 25.4392C12.2914 25.6918 12.1166 25.8472 12.0389 26.0998C11.9806 26.3135 12 26.6049 12.0194 26.8187C12.0389 27.3238 12.136 27.5376 12.5635 27.7902C12.7383 27.8873 12.8355 28.0622 12.9909 28.1593C13.1852 28.2953 13.4184 28.3148 13.6515 28.3342C14.1178 28.3925 14.4481 28.0816 14.9144 28.1787C15.4002 28.2953 15.7111 28.1787 16.0219 27.7707C16.1191 27.6347 16.2745 27.3821 16.3522 27.2267C16.4688 26.9547 16.3911 26.8187 16.3134 26.5467C16.2357 26.2164 16.3522 26.0803 16.43 25.7695C16.4883 25.5363 16.43 25.342 16.43 25.1283C16.43 24.8757 16.566 24.6814 16.6437 24.4483C16.7214 24.2345 16.7408 23.9625 16.838 23.7682C16.9351 23.5739 17.1294 23.4379 17.2071 23.2436C17.2849 23.0687 17.2071 22.8745 17.2654 22.6996C17.3626 22.3693 17.8483 22.1167 18.0815 21.8641C18.4312 21.4949 18.6644 21.0675 19.0724 20.7372C19.4221 20.4652 19.8302 20.2515 20.1799 19.9989C20.549 19.7463 20.8794 19.416 21.2679 19.2022C21.6565 18.9885 22.0646 18.9302 22.4532 18.7554C22.9583 18.5416 23.3663 18.4251 23.9298 18.4056C24.3961 18.3862 24.8236 18.1919 25.2899 18.153C25.5813 18.1336 25.8145 18.2308 26.1059 18.2308C26.3197 18.2308 26.5334 18.1725 26.7471 18.153C27.2329 18.1142 27.7186 18.2502 28.1849 18.2113C28.7095 18.153 29.1175 18.2502 29.6421 18.2891C29.8753 18.3085 30.1279 18.3085 30.3805 18.3279C30.6719 18.3473 30.8079 18.4445 31.0799 18.5611C31.9348 18.9108 32.9646 18.9108 33.7806 19.3771C34.2081 19.6103 34.519 20.0183 34.9853 20.1932C35.4322 20.368 35.4322 20.6206 35.7625 20.9121C35.9373 21.0675 36.1511 21.1064 36.2871 21.3007C36.4425 21.4949 36.4619 21.7281 36.6174 21.9418C36.8894 22.2721 37.1808 22.5636 37.3557 22.9716C37.55 23.4379 37.6083 23.9431 37.7637 24.4288C37.9192 24.8951 38.0163 25.2837 37.9969 25.75C37.9774 26.6632 37.822 27.693 37.4917 28.5673C37.3363 28.9754 37.2197 29.5194 36.8894 29.8108C36.6951 29.9663 36.5785 30.0246 36.4619 30.2577C36.3648 30.4714 36.3065 30.6269 36.1511 30.8212C35.5487 31.4818 34.9853 32.259 34.1692 32.7059C33.3143 33.1527 32.5177 33.6968 31.6628 34.1437C31.4102 34.2602 31.1576 34.3379 30.9051 34.4545C30.7108 34.5517 30.5748 34.7071 30.3805 34.8237C30.1862 34.9208 30.0501 34.882 29.8364 34.8625C29.6227 34.8431 29.4673 34.9014 29.2535 34.9597C28.9815 35.0374 28.7289 35.1734 28.4569 35.2511C28.1849 35.3289 28.0683 35.2317 27.8157 35.1929C27.3883 35.1151 26.9025 35.3289 26.4557 35.3483C25.4453 35.4066 24.4933 34.7071 24.979 33.6579C25.1927 33.211 25.1539 32.7059 25.2705 32.2201C25.3287 31.9675 25.4842 31.7732 25.5813 31.5401C25.6785 31.3069 25.6396 31.0543 25.7173 30.8018C25.8145 30.5297 26.0088 30.3354 26.0476 30.044C26.0865 29.8303 26.0282 29.6165 26.1254 29.4222C26.3197 29.0142 26.5917 28.6645 26.6305 28.1982C26.6694 27.7707 26.5917 27.3044 26.8637 26.9158C26.9608 26.7798 27.1357 26.7215 27.2329 26.5855C27.3689 26.3912 27.3494 26.1386 27.4077 25.9249C27.5243 25.4197 27.8157 24.9534 27.9323 24.4483C28.0489 24.0014 28.1072 23.5739 28.3986 23.2048C28.7095 22.8356 28.6901 22.4276 28.8649 21.9807C29.0204 21.5921 28.9232 21.1064 28.5152 20.9121C28.3015 20.8149 28.1266 20.8149 27.9323 20.64C27.7769 20.504 27.7186 20.368 27.5243 20.2709C27.0968 20.0766 26.5917 20.0377 26.1448 19.9017C25.6396 19.7463 25.251 19.9406 24.9402 20.3875C24.8041 20.5623 24.6487 20.8538 24.6098 21.0869C24.571 21.3007 24.6681 21.5338 24.6098 21.767C24.4933 22.1361 24.1241 22.4859 23.9298 22.8356C23.6967 23.263 23.6967 23.8265 23.5024 24.2928C23.3081 24.7591 23.0749 25.1866 22.9972 25.6918C22.9583 25.9055 22.9972 26.0998 22.9 26.3135C22.8029 26.5078 22.6669 26.6438 22.5892 26.8381C22.3949 27.3238 22.3366 27.829 22.1811 28.3148C22.0451 28.7422 21.8508 29.1114 21.676 29.5194C21.54 29.8108 21.54 30.0051 21.4817 30.2966C21.4428 30.5492 21.3262 30.6463 21.2097 30.86C21.0931 31.1126 21.1514 31.2098 21.1708 31.4624C21.2097 31.6761 21.1514 31.8315 21.0736 32.0452C20.7239 32.939 20.4713 33.8911 20.2187 34.8237C20.0827 35.29 19.9273 35.7369 19.7913 36.2226C19.6553 36.6889 19.4416 37.097 19.2473 37.5438C19.1307 37.8159 19.1501 38.049 19.0918 38.321C19.053 38.5542 18.917 38.6902 18.8004 38.8845C18.6838 39.0982 18.6449 39.3314 18.5478 39.5451C18.4506 39.7588 18.2952 39.9725 18.2369 40.1863C18.1592 40.4389 18.1981 40.7303 18.1203 40.9829C18.0621 41.1772 18.0038 41.3909 17.926 41.5852C17.7706 42.0127 17.5957 42.4207 17.4014 42.8287C17.0129 43.6059 16.1579 44.6357 16.7991 45.4906C16.9351 45.6849 17.1683 45.8792 17.382 45.9763C17.5763 46.0735 17.8095 46.0346 18.0038 46.1317C18.1592 46.2095 18.2175 46.3649 18.3535 46.4621C18.5284 46.5592 18.6838 46.5592 18.8587 46.5786C19.2667 46.6563 19.869 46.8506 20.2187 46.5009C20.3742 46.3455 20.4325 46.0735 20.549 45.8986C20.6656 45.7237 20.7628 45.5489 20.8405 45.3546C21.0736 44.8494 21.1125 44.3442 21.2874 43.8196C21.3651 43.567 21.4622 43.5087 21.6371 43.3339C21.812 43.159 21.8703 43.023 21.9286 42.7704C22.0063 42.479 22.0451 42.207 22.1034 41.9155C22.1617 41.6629 22.2977 41.5075 22.4143 41.2938C22.6475 40.8469 22.5114 40.5166 22.9389 40.1474C23.1332 39.9725 23.2886 39.9531 23.5218 39.856C23.6967 39.7782 23.7938 39.6617 23.9298 39.5645C24.1241 39.4285 24.2213 39.4285 24.4544 39.4479C24.7459 39.4868 24.8236 39.4868 25.0956 39.3702C25.5425 39.1954 26.0476 39.3314 26.5334 39.3702C26.7471 39.3897 26.9414 39.4285 27.1551 39.4674C27.3883 39.5062 27.6214 39.4285 27.8546 39.4479C28.1266 39.4674 28.3598 39.6422 28.6124 39.72C28.8649 39.7977 29.137 39.8754 29.3895 39.9725C29.7587 40.0891 30.1279 40.2251 30.4193 40.4971C30.6136 40.672 30.6719 40.7886 30.9439 40.8274C31.2354 40.8857 31.2936 40.8663 31.4879 41.08C31.7794 41.3909 32.0903 41.7212 32.3234 42.0904C32.4789 42.3041 32.5954 42.3624 32.7897 42.5178C32.984 42.6733 33.0229 42.751 33.1395 42.9841C33.3338 43.3339 33.7029 43.6253 33.9944 43.9362C34.1692 44.1305 34.3247 44.3831 34.519 44.5579C34.6744 44.694 34.8881 44.7717 35.0824 44.9077C35.5099 45.1797 35.879 45.4323 36.3648 45.5877C36.8117 45.7432 37.2197 45.8986 37.6277 46.1317C37.8026 46.2289 37.9192 46.326 38.1135 46.3066C38.3466 46.2872 38.5021 46.1512 38.7352 46.1512C39.2987 46.1706 39.7455 46.4426 40.309 46.3843C40.7753 46.3455 41.1833 46.19 41.6497 46.0929C41.9022 46.0346 42.1743 46.0735 42.4268 45.9763C42.6406 45.8986 42.8543 45.7626 43.0486 45.646C43.3789 45.4517 43.8258 45.2963 44.1172 45.0437C44.3309 44.8494 44.3892 44.694 44.6613 44.5774C44.8944 44.4997 45.011 44.4414 45.2053 44.2859C45.555 44.0139 45.6522 43.703 45.9242 43.3727C46.2739 42.9647 46.6042 42.615 46.8179 42.1292C47.0122 41.6824 47.1482 41.2549 47.2454 40.7886C47.362 40.2834 47.5563 39.8754 47.634 39.3508C47.6728 39.1176 47.7311 38.8456 47.7117 38.6319C47.6728 38.4182 47.5174 38.2433 47.5174 38.0296C47.5174 37.7964 47.6923 37.5244 47.7311 37.2913C47.8283 37.0387 47.8089 36.8638 47.7311 36.6501ZM40.7365 44.1499C40.7947 44.1499 40.8919 44.1111 40.9113 44.1305C40.9113 44.1499 40.7947 44.1694 40.7365 44.1499ZM43.2235 43.1396C43.2235 43.1396 43.2429 42.8676 43.3012 42.8676C43.3789 42.887 43.34 43.1979 43.2235 43.1396ZM44.9721 39.3508C45.011 39.2925 45.3996 39.2536 45.4384 39.3702C45.3996 39.5062 44.875 39.5257 44.9721 39.3508Z" fill="white"/>
</svg>
