<svg width="48" height="54" viewBox="0 0 48 54" fill="none" xmlns="http://www.w3.org/2000/svg">
<g clip-path="url(#clip0_3715_5470)">
<path d="M45.5778 41.6061C46.2825 42.0178 46.2236 43.0544 45.4767 43.3834C43.3668 44.3129 41.3344 45.209 39.302 46.1299C38.8956 46.3331 38.6111 46.0893 38.3266 45.9267C36.0506 44.5855 33.7339 43.2036 31.4579 41.8624C21.2971 35.8472 11.0956 29.832 0.934795 23.8168C0.24386 23.4104 0 23.0039 0.0406433 22.1911C0.0812865 20.1996 0.0406433 18.208 0.0812865 16.2572C0.0812865 16.1942 0.07824 16.1313 0.0745061 16.0683C0.0467523 15.6005 0.49044 15.3595 0.910301 15.5678C1.29036 15.7564 1.66126 15.994 2.03216 16.2165C8.65701 20.0776 15.2819 23.9387 21.9067 27.7998C22.5977 28.2063 23.2479 28.3688 24.0202 28.3282C25.9304 28.2063 27.7593 27.8811 29.507 27.1496C33.1243 25.6458 35.1564 22.9227 35.5628 19.0209C35.7254 17.5984 35.6441 16.1759 35.3596 14.7534C34.7093 11.6239 32.8804 9.38848 29.9947 8.00661C27.7593 6.90925 25.402 6.54346 23.0041 6.50281C18.005 6.46217 13.0058 6.50281 8.00672 6.50281C7.15321 6.50281 7.15321 6.50282 7.15321 7.39697C7.15321 9.10398 7.15321 10.7703 7.15321 12.4774C7.15321 12.6022 7.1592 12.727 7.15969 12.8495C7.16109 13.2047 6.83112 13.4503 6.53404 13.2555C6.46702 13.2115 6.40368 13.1657 6.34035 13.1277C4.47076 12.0709 2.60117 11.0142 0.731579 9.95749C0.203216 9.71363 0 9.34784 0 8.77883C0.0406433 6.09638 0 3.41393 0.0406433 0.772127C0.0406433 0.0405501 0.0406433 -9.31118e-05 0.772222 -9.31118e-05C8.65701 -9.31118e-05 16.5824 -0.0407363 24.4672 0.0405501C27.8406 0.0811932 31.0921 0.853414 34.0997 2.4385C39.1801 5.12095 42.0658 9.34784 42.7567 15.0785C43.1631 18.4926 42.7567 21.8253 41.2935 24.9548C39.4646 28.7753 36.4164 31.2952 32.5959 32.9615C32.3218 33.079 32.0855 33.1964 31.8142 33.3139C31.7936 33.3228 31.7863 33.3213 31.766 33.3307C31.6796 33.3707 31.7305 33.5303 31.8127 33.5782C36.3722 36.2349 40.9325 38.8922 45.5778 41.6061Z" fill="white"/>
<path d="M0.00437564 32.5803C0.00133115 31.8105 0.83356 31.3294 1.49999 31.7147C11.5877 37.5474 21.4722 43.3442 31.3888 49.1052C31.6685 49.2677 31.7832 49.6539 31.4699 49.7341C31.4282 49.7448 31.3976 49.7563 31.3584 49.7741C29.0614 50.8212 26.7647 51.829 24.508 52.8768C24.0203 53.1206 23.6545 53.08 23.1668 52.7955C15.6884 48.3247 8.16941 43.854 0.650408 39.3832C0.122046 39.0987 -0.0405273 38.7329 -0.0405273 38.1639C0.0226345 36.3954 0.0121786 34.5532 0.00437564 32.5803Z" fill="white"/>
</g>
<defs>
<clipPath id="clip0_3715_5470">
<rect width="47.2681" height="53.08" fill="white"/>
</clipPath>
</defs>
</svg>
