<svg width="188" height="50" viewBox="0 0 188 50" fill="none" xmlns="http://www.w3.org/2000/svg">
    <defs>
        <linearGradient id="paint0_linear_1570_1339" x1="21.9254" y1="8.89551" x2="21.9254" y2="48.9561" gradientUnits="userSpaceOnUse">
        <stop stop-color="#0077B6"/>
        <stop offset="1" stop-color="#00CCD9"/>
        </linearGradient>
        <linearGradient id="paint1_linear_1570_1339" x1="51.4715" y1="20.792" x2="51.4715" y2="48.5654" gradientUnits="userSpaceOnUse">
        <stop stop-color="#0077B6"/>
        <stop offset="1" stop-color="#00CCD9"/>
        </linearGradient>
        <linearGradient id="paint2_linear_1570_1339" x1="73.474" y1="20.7578" x2="73.474" y2="48.4813" gradientUnits="userSpaceOnUse">
        <stop stop-color="#0077B6"/>
        <stop offset="1" stop-color="#00CCD9"/>
        </linearGradient>
        <linearGradient id="paint3_linear_1570_1339" x1="95.812" y1="20.8701" x2="95.812" y2="48.5717" gradientUnits="userSpaceOnUse">
        <stop stop-color="#0077B6"/>
        <stop offset="1" stop-color="#00CCD9"/>
        </linearGradient>
        <linearGradient id="paint4_linear_1570_1339" x1="116.742" y1="0.12207" x2="116.742" y2="48.8611" gradientUnits="userSpaceOnUse">
        <stop stop-color="#0077B6"/>
        <stop offset="1" stop-color="#00CCD9"/>
        </linearGradient>
        <linearGradient id="paint5_linear_1570_1339" x1="163.608" y1="35.6416" x2="163.608" y2="41.6633" gradientUnits="userSpaceOnUse">
        <stop stop-color="#0077B6"/>
        <stop offset="1" stop-color="#00CCD9"/>
        </linearGradient>
        <linearGradient id="paint6_linear_1570_1339" x1="146.046" y1="20.0859" x2="146.046" y2="49.1222" gradientUnits="userSpaceOnUse">
        <stop stop-color="#0077B6"/>
        <stop offset="1" stop-color="#00CCD9"/>
        </linearGradient>
        <linearGradient id="paint7_linear_1570_1339" x1="160.943" y1="36.6182" x2="160.943" y2="38.4032" gradientUnits="userSpaceOnUse">
        <stop stop-color="#0077B6"/>
        <stop offset="1" stop-color="#00CCD9"/>
        </linearGradient>
        <linearGradient id="paint8_linear_1570_1339" x1="174.724" y1="21.1025" x2="174.724" y2="48.8995" gradientUnits="userSpaceOnUse">
        <stop stop-color="#0077B6"/>
        <stop offset="1" stop-color="#00CCD9"/>
        </linearGradient>
        </defs>
    <path d="M43.7701 36.6415C43.6035 36.1655 43.4607 35.7609 43.0799 35.4039C42.6039 34.9279 42.0327 35.1183 41.4376 35.1421C41.1044 35.1659 40.8188 35.2135 40.4856 35.1659C40.1762 35.1183 39.962 35.0231 39.6288 35.0945C38.9147 35.2373 38.8671 35.8085 38.6529 36.4035C38.4387 37.0462 38.4863 37.6174 38.5577 38.2838C38.6291 39.0692 38.6529 39.6643 38.3911 40.4259C38.2959 40.6639 38.2483 40.9257 38.1531 41.1399C38.0341 41.4255 37.8675 41.4493 37.6533 41.6398C37.3915 41.854 37.4391 42.0206 37.2725 42.3062C37.1296 42.568 36.9154 42.6394 36.6536 42.7584C36.2252 42.9726 35.7254 43.163 35.2732 43.3296C34.6305 43.5676 34.0355 43.282 33.3929 43.282C33.1549 43.282 32.8693 43.4248 32.6312 43.3534C32.4408 43.282 32.3694 43.0916 32.2266 42.9488C31.7982 42.5442 31.2508 42.2824 30.7748 41.9254C30.2987 41.5445 29.9655 41.1637 29.6323 40.6401C29.4657 40.3783 29.3229 40.0451 29.0611 39.8547C28.8707 39.7119 28.6565 39.6405 28.4899 39.4977C28.0138 39.1406 27.7758 38.736 27.4188 38.2838C27.2284 38.0458 27.0856 37.9982 27.3236 37.7364C27.4664 37.5936 27.752 37.427 27.9424 37.308C28.1804 37.1414 28.4899 36.9271 28.7517 36.8319C28.9897 36.7367 29.2515 36.7843 29.4657 36.6891C29.6799 36.5939 30.0369 36.3083 30.1797 36.1179C30.3463 35.9275 30.3701 35.6419 30.5606 35.4991C30.7272 35.3563 30.989 35.3801 31.1556 35.2849C31.3936 35.1421 31.4174 34.9517 31.5602 34.7136C31.7506 34.4518 31.9172 34.4042 32.179 34.2376C32.417 34.071 32.5598 33.8806 32.7264 33.6426C33.0359 33.2142 33.2025 32.8334 33.6547 32.5478C34.1783 32.1907 34.3687 31.6195 34.6543 31.0959C34.7971 30.8341 35.0352 30.6437 35.178 30.3819C35.297 30.1438 35.3208 29.8582 35.416 29.644C35.7016 29.0728 36.0586 28.6206 36.2966 28.0018C36.5108 27.4543 36.487 26.9307 36.5108 26.3595C36.5584 25.7645 36.7726 25.217 36.8916 24.6458C36.9868 24.0746 36.6774 23.4796 36.725 22.8845C36.7488 22.5989 36.963 22.3609 36.9392 22.0753C36.5108 17.3865 32.536 11.7932 27.8948 10.3652C27.2998 10.1748 26.681 10.1986 26.086 10.0558C25.7527 9.96055 25.3957 9.91295 25.0625 9.81775C24.8007 9.74634 24.6103 9.57974 24.3723 9.48453C24.0867 9.36553 23.7535 9.41313 23.444 9.34173C23.1822 9.27032 22.968 9.07992 22.7062 9.03231C22.3968 8.98471 22.135 9.17512 21.8018 9.12752C21.4924 9.07992 21.2781 8.91331 20.9449 8.91331C19.6359 8.96091 18.2792 8.8181 16.9702 8.96091C16.5893 9.00851 16.3751 8.96091 15.9943 8.91331C15.6611 8.86571 15.4469 8.93711 15.1375 9.00851C14.6138 9.15132 14.1854 9.29412 13.638 9.34173C13.0192 9.38933 12.448 9.55594 11.8529 9.69874C11.3531 9.81775 10.6867 9.77015 10.2345 10.0082C9.63943 10.3176 9.092 10.746 8.49698 11.0316C8.25897 11.1506 8.02096 11.1268 7.78294 11.1982C7.52113 11.2934 7.37833 11.5076 7.18792 11.6742C6.7357 12.0788 6.25968 12.4359 5.75986 12.7453C5.52184 12.8881 5.18863 12.9833 4.99822 13.2213C4.83161 13.4117 4.76021 13.6497 4.6174 13.8639C4.28419 14.2923 3.80817 14.5542 3.42735 14.935C3.02273 15.3396 2.68952 15.9108 2.38011 16.4106C2.04689 16.9343 1.88028 17.4817 1.54707 18.0053C1.23765 18.5051 1.30906 19.0288 0.975843 19.481C0.714032 19.8142 0.737833 19.9332 0.737833 20.3378C0.737833 20.671 0.618827 20.8852 0.523623 21.2185C0.45222 21.4803 0.404618 21.7421 0.357016 22.0039C0.309414 22.3133 0.404618 22.5989 0.380817 22.9083C0.357016 23.2177 0.142806 23.4081 0.0476021 23.7176C-0.0238011 23.9794 1.77332e-09 24.3364 0.0238011 24.5982C0.0476021 25.217 0.166607 25.4788 0.690231 25.7883C0.90444 25.9073 1.02345 26.1215 1.21385 26.2405C1.45186 26.4071 1.73748 26.4309 2.02309 26.4547C2.59431 26.5261 2.99893 26.1453 3.57016 26.2643C4.16518 26.4071 4.546 26.2643 4.92682 25.7645C5.04582 25.5978 5.23623 25.2884 5.33144 25.098C5.47424 24.7648 5.37904 24.5982 5.28383 24.265C5.18863 23.8604 5.33144 23.6938 5.42664 23.3129C5.49804 23.0273 5.42664 22.7893 5.42664 22.5275C5.42664 22.2181 5.59325 21.9801 5.68845 21.6945C5.78366 21.4327 5.80746 21.0994 5.92646 20.8614C6.04547 20.6234 6.28348 20.4568 6.37868 20.2188C6.47389 20.0046 6.37868 19.7666 6.45009 19.5524C6.56909 19.1478 7.16412 18.8383 7.44973 18.5289C7.87815 18.0767 8.16376 17.5531 8.66358 17.1485C9.092 16.8153 9.59182 16.5534 10.0202 16.244C10.4725 15.9346 10.8771 15.53 11.3531 15.2682C11.8291 15.0064 12.3289 14.935 12.805 14.7208C13.4238 14.459 13.9236 14.3161 14.6138 14.2923C15.1851 14.2685 15.7087 14.0305 16.2799 13.9829C16.6369 13.9591 16.9225 14.0781 17.2796 14.0781C17.5414 14.0781 17.8032 14.0067 18.065 13.9829C18.66 13.9353 19.2551 14.1019 19.8263 14.0543C20.4689 13.9829 20.9687 14.1019 21.6114 14.1495C21.897 14.1733 22.2064 14.1733 22.5158 14.1971C22.8728 14.2209 23.0394 14.3399 23.3726 14.4828C24.4199 14.9112 25.6813 14.9112 26.681 15.4824C27.2046 15.768 27.5854 16.2678 28.1566 16.482C28.7041 16.6963 28.7041 17.0057 29.1087 17.3627C29.3229 17.5531 29.5847 17.6007 29.7513 17.8387C29.9417 18.0767 29.9655 18.3623 30.1559 18.6241C30.4891 19.0288 30.8462 19.3858 31.0604 19.8856C31.2984 20.4568 31.3698 21.0756 31.5602 21.6707C31.7506 22.2419 31.8696 22.7179 31.8458 23.2891C31.822 24.4078 31.6316 25.6692 31.227 26.7403C31.0366 27.2401 30.8938 27.9065 30.4892 28.2636C30.2511 28.454 30.1083 28.5254 29.9655 28.811C29.8465 29.0728 29.7751 29.2632 29.5847 29.5012C28.8469 30.3105 28.1566 31.2625 27.157 31.8099C26.1098 32.3573 25.1339 33.0238 24.0867 33.5712C23.7773 33.714 23.4678 33.8092 23.1584 33.952C22.9204 34.071 22.7538 34.2614 22.5158 34.4042C22.2778 34.5232 22.1112 34.4756 21.8494 34.4518C21.5876 34.428 21.3971 34.4994 21.1353 34.5708C20.8021 34.666 20.4927 34.8327 20.1595 34.9279C19.8263 35.0231 19.6835 34.9041 19.3741 34.8565C18.8504 34.7613 18.2554 35.0231 17.708 35.0469C16.4703 35.1183 15.3041 34.2614 15.8991 32.9762C16.1609 32.4287 16.1133 31.8099 16.2561 31.2149C16.3275 30.9055 16.5179 30.6675 16.6369 30.3819C16.7559 30.0962 16.7083 29.7868 16.8035 29.4774C16.9225 29.1442 17.1606 28.9062 17.2082 28.5492C17.2558 28.2874 17.1844 28.0256 17.3034 27.7875C17.5414 27.2877 17.8746 26.8593 17.9222 26.2881C17.9698 25.7645 17.8746 25.1932 18.2078 24.7172C18.3268 24.5506 18.541 24.4792 18.66 24.3126C18.8266 24.0746 18.8028 23.7652 18.8742 23.5034C19.017 22.8845 19.3741 22.3133 19.5169 21.6945C19.6597 21.147 19.7311 20.6234 20.0881 20.1712C20.4689 19.719 20.4451 19.2192 20.6593 18.6717C20.8497 18.1957 20.7307 17.6007 20.2309 17.3627C19.9691 17.2437 19.7549 17.2437 19.5169 17.0295C19.3265 16.8629 19.2551 16.6963 19.017 16.5772C18.4934 16.3392 17.8746 16.2916 17.3272 16.125C16.7083 15.9346 16.2323 16.1726 15.8515 16.7201C15.6849 16.9343 15.4945 17.2913 15.4469 17.5769C15.3993 17.8387 15.5183 18.1243 15.4469 18.4099C15.3041 18.8621 14.8519 19.2906 14.6138 19.719C14.3282 20.2426 14.3282 20.9328 14.0902 21.5041C13.8522 22.0753 13.5666 22.5989 13.4714 23.2177C13.4238 23.4796 13.4714 23.7176 13.3524 23.9794C13.2334 24.2174 13.0668 24.384 12.9716 24.622C12.7336 25.217 12.6622 25.8359 12.4718 26.4309C12.3051 26.9545 12.0671 27.4067 11.8529 27.9065C11.6863 28.2636 11.6863 28.5016 11.6149 28.8586C11.5673 29.168 11.4245 29.287 11.2817 29.5488C11.1389 29.8582 11.2103 29.9772 11.2341 30.2867C11.2817 30.5485 11.2103 30.7389 11.1151 31.0007C10.6867 32.0955 10.3773 33.2618 10.0678 34.4042C9.90124 34.9755 9.71083 35.5229 9.54422 36.1179C9.37761 36.6891 9.1158 37.189 8.87779 37.7364C8.73499 38.0696 8.75879 38.3552 8.68738 38.6884C8.63978 38.974 8.47318 39.1406 8.33037 39.3787C8.18756 39.6405 8.13996 39.9261 8.02096 40.1879C7.90195 40.4497 7.71154 40.7115 7.64014 40.9733C7.54493 41.2827 7.59254 41.6398 7.49733 41.9492C7.42593 42.1872 7.35453 42.449 7.25932 42.687C7.06891 43.2106 6.8547 43.7104 6.61669 44.2103C6.14067 45.1623 5.09343 46.4238 5.87886 47.471C6.04547 47.709 6.33108 47.947 6.59289 48.066C6.8309 48.185 7.11652 48.1374 7.35453 48.2564C7.54493 48.3516 7.61634 48.5421 7.78294 48.6611C7.99715 48.7801 8.18756 48.7801 8.40177 48.8039C8.90159 48.8991 9.63943 49.1371 10.0678 48.7087C10.2583 48.5183 10.3297 48.185 10.4725 47.9708C10.6153 47.7566 10.7343 47.5424 10.8295 47.3044C11.1151 46.6856 11.1627 46.0667 11.3769 45.4241C11.4721 45.1147 11.5911 45.0433 11.8053 44.8291C12.0195 44.6149 12.0909 44.4483 12.1623 44.1389C12.2575 43.7818 12.3051 43.4486 12.3765 43.0916C12.448 42.7822 12.6146 42.5918 12.7574 42.33C13.043 41.7826 12.8764 41.3779 13.4 40.9257C13.638 40.7115 13.8284 40.6877 14.114 40.5687C14.3282 40.4735 14.4472 40.3307 14.6138 40.2117C14.8519 40.0451 14.9709 40.0451 15.2565 40.0689C15.6135 40.1165 15.7087 40.1165 16.0419 39.9737C16.5893 39.7595 17.2082 39.9261 17.8032 39.9737C18.065 39.9975 18.303 40.0451 18.5648 40.0927C18.8504 40.1403 19.136 40.0451 19.4217 40.0689C19.7549 40.0927 20.0405 40.3069 20.3499 40.4021C20.6593 40.4973 20.9925 40.5925 21.3019 40.7115C21.7542 40.8543 22.2064 41.0209 22.5634 41.3541C22.8014 41.5683 22.8728 41.7112 23.206 41.7588C23.563 41.8302 23.6344 41.8064 23.8725 42.0682C24.2295 42.449 24.6103 42.8536 24.8959 43.3058C25.0863 43.5676 25.2291 43.639 25.4671 43.8294C25.7051 44.0199 25.7527 44.1151 25.8955 44.4007C26.1336 44.8291 26.5858 45.1861 26.9428 45.5669C27.157 45.8049 27.3474 46.1143 27.5854 46.3286C27.7758 46.4952 28.0376 46.5904 28.2757 46.757C28.7993 47.0902 29.2515 47.3996 29.8465 47.59C30.3939 47.7804 30.8938 47.9708 31.3936 48.2564C31.6078 48.3755 31.7506 48.4945 31.9886 48.4707C32.2742 48.4469 32.4646 48.2802 32.7503 48.2802C33.4405 48.304 33.9879 48.6373 34.6781 48.5659C35.2494 48.5183 35.7492 48.3278 36.3204 48.2088C36.6298 48.1374 36.963 48.185 37.2725 48.066C37.5343 47.9708 37.7961 47.8042 38.0341 47.6614C38.4387 47.4234 38.9861 47.233 39.3431 46.9236C39.605 46.6856 39.6764 46.4952 40.0096 46.3524C40.2952 46.2572 40.438 46.1858 40.676 45.9953C41.1044 45.6621 41.2234 45.2813 41.5566 44.8767C41.9851 44.3769 42.3897 43.9485 42.6515 43.3534C42.8895 42.806 43.0561 42.2824 43.1751 41.7112C43.3179 41.0923 43.5559 40.5925 43.6511 39.9499C43.6987 39.6643 43.7701 39.3311 43.7463 39.0692C43.6987 38.8074 43.5083 38.5932 43.5083 38.3314C43.5083 38.0458 43.7225 37.7126 43.7701 37.427C43.8891 37.1176 43.8653 36.9033 43.7701 36.6415ZM35.2018 45.8287C35.2732 45.8287 35.3922 45.7811 35.416 45.8049C35.416 45.8287 35.2732 45.8525 35.2018 45.8287ZM38.2483 44.5911C38.2483 44.5911 38.2721 44.2579 38.3435 44.2579C38.4387 44.2817 38.3911 44.6625 38.2483 44.5911ZM40.3904 39.9499C40.438 39.8785 40.914 39.8309 40.9616 39.9737C40.914 40.1403 40.2714 40.1641 40.3904 39.9499Z" fill="url(#paint0_linear_1570_1339)"/>
    <path d="M63.1444 34.9274C62.835 34.8798 62.5732 34.8798 62.2875 34.7608C62.0733 34.6655 61.8829 34.5465 61.6449 34.4751C61.1927 34.3323 60.5977 34.4037 60.193 34.6893C59.7646 34.975 59.717 35.451 59.5266 35.8794C59.4314 36.0936 59.2886 36.284 59.241 36.522C59.1696 36.76 59.1934 36.9981 59.0982 37.2361C59.003 37.5217 58.7888 37.7835 58.6698 38.0691C58.5746 38.2833 58.5032 38.5213 58.3842 38.7355C58.1224 39.1877 57.7653 39.521 57.4083 39.878C56.6943 40.592 56.0517 41.3298 55.171 41.8535C54.7426 42.1153 54.4332 42.4485 53.981 42.6389C53.5288 42.8531 53.0051 43.0197 52.5291 43.0673C52.0293 43.1149 51.5057 43.0673 51.0058 43.1625C50.4346 43.2815 49.9824 43.4005 49.3874 43.3291C48.2925 43.1863 47.1977 43.3767 46.1266 43.1149C45.1032 42.8531 44.1273 42.2105 43.6513 41.2108C43.2943 40.473 43.4133 38.8783 44.0797 38.3785C44.4129 38.1167 44.7224 37.6407 45.1032 37.4741C45.603 37.2599 46.1742 37.3313 46.7217 37.3313C47.2929 37.3313 47.8641 37.2599 48.4115 37.1885C48.9351 37.1171 49.3636 37.2123 49.8634 37.2123C50.3156 37.2123 50.863 36.8552 51.3153 36.7124C51.7675 36.5696 52.1959 36.5458 52.6005 36.284C53.3621 35.808 54.4808 35.332 54.9806 34.5703C55.528 33.7611 56.2659 33.1661 56.6943 32.2854C57.1227 31.4048 57.5035 30.5718 57.6463 29.5959C57.7177 29.0961 57.8843 28.5963 57.9319 28.0965C57.9795 27.6442 57.9081 27.192 57.8605 26.7398C57.7653 25.764 57.3607 24.8119 56.8609 23.9789C56.6229 23.5743 56.3135 23.4315 56.0041 23.0982C55.647 22.7174 55.4566 22.408 55.0044 22.1224C54.1952 21.6226 53.2669 21.218 52.3149 21.0989C51.8151 21.0275 51.3153 20.8847 50.8392 20.8133C50.2918 20.7419 49.8158 20.8609 49.316 21.0037C48.7923 21.1466 48.2687 21.2418 47.7689 21.4084C47.2929 21.5512 46.8407 21.575 46.4122 21.813C45.9838 22.051 45.6744 22.3842 45.2698 22.646C44.8414 22.9078 44.3653 23.1458 44.0083 23.4791C43.6037 23.8361 43.3181 24.3121 42.9849 24.7167C42.6755 25.0975 42.2471 25.4307 42.009 25.8592C41.771 26.2876 41.5806 26.7874 41.3664 27.2158C41.1284 27.6918 40.938 28.0965 40.819 28.6201C40.581 29.5959 40.1764 30.5242 40.0098 31.5238C39.9145 32.0712 39.7479 32.6187 39.5813 33.1661C39.4147 33.6421 39.3671 34.0467 39.2957 34.5465C39.1291 35.57 38.5103 36.522 38.3913 37.5455C38.1295 39.6876 38.2723 41.7821 39.2243 43.7338C39.6765 44.662 40.3192 45.3998 41.0332 46.1139C41.414 46.5185 41.7472 46.6613 42.2471 46.8993C42.6517 47.0897 42.8659 47.4467 43.2705 47.6133C44.2463 47.9941 45.1746 48.0893 46.1742 48.3036C46.7216 48.4226 47.1977 48.5654 47.7451 48.5654C48.2449 48.5654 48.7447 48.4464 49.2446 48.4464C49.8158 48.4702 50.3156 48.4702 50.8868 48.4226C51.3867 48.375 51.8389 48.4226 52.3387 48.4702C53.4097 48.5416 54.338 47.8037 55.3852 47.6609C55.8851 47.5895 56.3373 47.3039 56.7657 47.0659C57.1941 46.8041 57.6701 46.6375 58.0986 46.3757C58.527 46.1377 58.7412 45.733 59.1458 45.4712C59.3124 45.376 59.5266 45.3522 59.6932 45.257C59.9312 45.1142 60.0502 44.9 60.2168 44.7096C60.8833 43.9718 61.6687 43.3291 62.2637 42.5199C62.5732 42.0677 62.716 41.5679 62.9778 41.0918C63.2158 40.6872 63.5252 40.3302 63.6918 39.9018C64.0964 38.9259 64.5486 37.9977 64.6676 36.9505C64.6676 35.9508 64.1202 35.094 63.1444 34.9274ZM45.8172 29.9767C45.9362 29.5483 46.0552 29.1437 46.2932 28.7391C47.1977 27.2396 49.2446 25.9068 51.0534 26.1686C51.9341 26.3114 52.5529 26.7398 52.5767 27.668C52.6005 28.0489 52.7195 28.6439 52.5529 29.0009C52.3863 29.3579 52.1245 29.7149 51.9341 30.0719C51.5533 30.7146 50.7916 31.5238 50.0776 31.8094C49.7682 31.9284 47.5785 32.0236 47.5785 32.095C46.8883 32.095 45.5792 32.3806 45.4602 31.3096C45.4364 30.8574 45.722 30.4052 45.8172 29.9767Z" fill="url(#paint1_linear_1570_1339)"/>
    <path d="M86.3739 34.7613C85.4695 34.5471 84.3271 34.2377 83.6844 35.1183C83.375 35.5467 83.3988 35.9037 83.3512 36.4036C83.3274 36.8796 83.1132 37.3556 82.9466 37.784C82.7324 38.3077 82.5182 38.8075 82.423 39.3549C82.3516 39.7595 82.3516 40.2593 82.1374 40.6164C82.0183 40.8068 81.8279 40.9258 81.6851 41.0924C81.5423 41.2828 81.4947 41.497 81.3519 41.6874C81.1139 42.0444 80.6617 42.211 80.3523 42.5204C79.9715 42.9013 79.5906 42.8775 79.1146 43.0679C78.591 43.2583 78.4244 43.3059 77.877 43.1631C77.3295 43.0441 76.9963 42.9727 76.8773 42.3776C76.7821 41.8302 76.9725 41.378 77.0201 40.8306C77.1391 39.8785 77.3771 38.8313 77.6866 37.903C77.8532 37.427 78.0198 37.0224 78.115 36.5226C78.1864 36.0704 78.234 35.6419 78.3768 35.1897C78.4482 34.9279 78.6148 34.7137 78.71 34.4757C78.8052 34.2377 78.7814 34.0473 78.7814 33.7855C78.8052 33.357 79.0432 33 79.186 32.5954C79.3526 32.0718 79.424 31.5482 79.543 31.0245C79.662 30.5247 79.9239 30.0963 80.0429 29.6203C80.2571 28.7872 80.1857 27.8352 80.6141 27.0974C80.8521 26.6689 80.7569 26.2167 80.8759 25.7407C81.0187 25.2885 81.2091 24.9077 81.3519 24.4792C81.7089 23.4796 82.0421 22.4561 81.3757 21.5279C81.0663 21.0995 80.8521 20.9091 80.3047 20.8853C79.8048 20.8615 79.3288 20.9805 78.829 20.9329C78.3292 20.8853 77.7818 20.7187 77.2819 20.7663C76.7821 20.8139 76.3537 20.8853 75.8301 20.8853C75.5445 20.8853 75.2588 20.7663 74.9732 20.7901C74.7114 20.7901 74.4734 20.8853 74.2116 20.9091C73.7118 20.9567 73.2358 20.8139 72.7121 20.8853C71.7125 21.0043 70.7366 20.7187 69.8084 21.1233C68.9516 21.4803 68.0471 21.7183 67.2379 22.2181C65.5956 23.2178 63.8105 24.1222 62.7871 25.8597C62.6443 26.0977 62.5967 26.3833 62.4539 26.5975C62.3349 26.8117 62.1207 26.9307 62.0017 27.145C61.7637 27.5258 61.6208 28.0256 61.4542 28.4302C61.0972 29.3109 60.9544 30.2391 60.6212 31.1435C60.2642 32.0718 60.2166 32.9286 60.0262 33.8807C59.812 34.8803 59.3597 35.7847 59.2169 36.7606C59.0503 37.8078 58.5267 38.8313 58.5029 39.9261C58.4791 40.4497 58.5029 40.9972 58.4791 41.5208C58.4553 42.0444 58.6219 42.3776 58.7171 42.8775C58.7647 43.1393 58.6933 43.4249 58.7647 43.6867C58.8123 43.8771 58.9551 44.0437 59.0503 44.2341C59.2645 44.6387 59.5264 45.0195 59.8358 45.3766C60.4546 46.1144 61.1686 46.757 61.9541 47.3045C62.1683 47.4711 62.3587 47.6377 62.6205 47.7329C62.8347 47.8043 63.0965 47.8043 63.3107 47.8757C63.7867 48.0423 64.1438 48.2803 64.6436 48.3755C65.1672 48.4707 65.667 48.5183 66.1906 48.4469C66.6905 48.3755 67.1665 48.5421 67.6187 48.3755C67.9043 48.2803 68.1185 48.1851 68.4279 48.1851C68.6898 48.1851 68.904 48.1851 69.1658 48.1137C69.6656 47.9709 70.0226 47.7091 70.451 47.4473C70.8557 47.233 71.4031 46.8522 71.8315 46.7332C72.2123 46.6142 72.8549 46.7332 73.2596 46.7808C74.1878 46.8998 74.9494 47.7805 75.8301 48.0661C76.7107 48.3517 77.5913 48.5183 78.4958 48.3755C79.067 48.3041 79.6858 48.3517 80.2333 48.2565C80.6379 48.1851 81.0425 47.9709 81.3995 47.8043C81.8517 47.5901 82.2802 47.4235 82.7324 47.2092C83.1608 47.0188 83.256 46.7094 83.613 46.4476C83.8272 46.281 84.089 46.2334 84.2794 46.0668C84.4461 45.924 84.5651 45.7098 84.7079 45.5432C84.9935 45.21 85.3505 44.9243 85.6599 44.5911C86.3025 43.8533 86.5881 42.9965 86.9928 42.1396C87.207 41.6636 87.3498 41.259 87.4212 40.7354C87.5164 40.2355 87.6592 39.8547 87.802 39.4025C87.9448 38.9265 88.0162 38.4505 88.1828 37.9744C88.3256 37.546 88.4684 37.0224 88.4684 36.5702C88.5398 35.4753 87.2546 34.9755 86.3739 34.7613ZM75.0446 27.859C74.9732 28.0732 74.9018 28.216 74.878 28.454C74.8542 28.6444 74.9256 28.8348 74.9018 29.049C74.8066 29.4537 74.5448 29.8107 74.4496 30.2391C74.3544 30.5723 74.3306 30.9055 74.2592 31.2387C74.0926 32.048 73.6642 32.762 73.5452 33.595C73.4738 33.9997 73.4976 34.4519 73.3786 34.8327C73.2834 35.1897 73.0216 35.4277 72.9739 35.8085C72.9263 36.1418 72.9501 36.4274 72.8311 36.7606C72.7121 37.1176 72.5455 37.4508 72.4027 37.8078C72.1409 38.4743 71.9743 39.1883 71.6887 39.8785C71.5459 40.2117 71.3555 40.664 71.0699 40.902C70.8557 41.1162 70.5938 41.2352 70.3796 41.4494C69.7846 42.0682 69.2372 42.6156 68.3803 42.8537C67.6425 43.0441 66.9761 43.3535 66.1906 43.3535C65.3814 43.3535 64.3104 43.1155 63.8819 42.3538C63.4059 41.5208 63.4535 40.664 63.7391 39.7833C63.9771 39.0217 64.3818 38.2124 64.358 37.427C64.3342 36.5226 64.834 35.7371 65.1196 34.9041C65.3814 34.1901 65.2624 33.4046 65.6194 32.7382C65.8098 32.3812 65.8098 32.1432 65.8812 31.7624C65.9288 31.4053 66.143 31.1435 66.2382 30.8103C66.3097 30.5485 66.262 30.2629 66.3811 30.0249C66.4763 29.8345 66.6191 29.7155 66.7381 29.5489C66.9285 29.2871 66.9999 28.9538 67.2141 28.692C67.4283 28.4302 67.7377 28.2874 67.9519 28.0494C68.2375 27.74 68.4755 27.5258 68.8564 27.3116C69.499 26.9307 70.1178 26.4547 70.8557 26.2881C71.4745 26.1215 72.2361 25.9549 72.9025 26.0501C73.5928 26.1453 74.64 26.2881 74.997 26.9784C75.116 27.2164 75.1398 27.5258 75.0446 27.859Z" fill="url(#paint2_linear_1570_1339)"/>
    <path d="M108.676 37.141C108.557 37.6646 108.509 38.2358 108.295 38.7118C108.081 39.1641 107.986 39.7115 107.7 40.1399C107.414 40.5683 107.295 41.1633 106.938 41.4966C106.557 41.8536 106.391 42.2344 106.105 42.6628C105.772 43.115 105.391 43.5911 105.01 43.9957C104.653 44.3765 104.249 44.6621 103.892 45.0429C103.535 45.4475 103.035 45.7094 102.606 46.0664C102.249 46.3758 101.773 46.5186 101.345 46.7566C100.821 47.0422 100.298 47.2088 99.798 47.5182C99.3219 47.8038 98.8697 47.9228 98.3461 48.0419C97.7987 48.1609 97.2989 48.3751 96.7514 48.4703C96.2516 48.5417 95.728 48.5893 95.2282 48.5655C94.9664 48.5417 94.7283 48.4465 94.4665 48.4227C94.1571 48.3989 93.8953 48.5417 93.6097 48.5417C93.0385 48.5417 92.5148 48.4227 91.9674 48.3751C91.3486 48.3275 90.7298 48.4465 90.1109 48.3513C89.5397 48.2799 89.1113 47.9705 88.5639 47.8514C88.2783 47.78 88.0402 47.8038 87.7784 47.6372C87.5166 47.4944 87.2548 47.2802 87.0168 47.1136C86.5646 46.8042 86.041 46.59 85.6839 46.2092C85.3031 45.7808 84.9937 45.3047 84.6367 44.8287C84.0179 43.9957 83.2324 42.9484 83.2086 41.8774C83.1848 41.3538 82.9944 40.8301 82.923 40.2827C82.8516 39.6639 82.8992 39.0689 82.9706 38.45C83.042 37.8788 83.042 37.3076 83.1848 36.7364C83.3276 36.1651 83.399 35.5463 83.637 35.0227C83.8751 34.5229 83.8275 33.9992 84.0417 33.4756C84.2797 32.9282 84.2559 32.3808 84.4939 31.8333C84.9461 30.7861 84.9223 29.6674 85.3507 28.644C85.5411 28.168 85.6363 27.6682 85.8505 27.1921C86.0648 26.6685 86.398 26.2639 86.7074 25.8117C86.993 25.3833 87.1834 24.9072 87.5166 24.5264C87.707 24.3122 87.9212 24.217 88.1354 24.0504C88.3497 23.86 88.4687 23.5744 88.7067 23.4078C88.8971 23.2412 89.1589 23.1698 89.3731 23.0031C89.5873 22.8365 89.7063 22.5985 89.9205 22.4557C90.3965 22.0749 90.9678 21.9797 91.5152 21.7893C91.7294 21.7179 91.9912 21.6465 92.1816 21.5275C92.372 21.4323 92.5148 21.2419 92.7052 21.1943C92.9433 21.1229 93.2289 21.1705 93.4907 21.1467C93.8239 21.0991 94.1809 21.0039 94.5141 20.9325C95.0616 20.8135 95.5138 20.8849 96.0374 20.9801C96.5848 21.0515 97.156 21.0753 97.6797 21.2181C98.1795 21.3847 98.6793 21.5275 99.1553 21.7893C99.6552 22.0749 100.131 22.5271 100.56 22.8841C100.988 23.2174 101.178 23.7172 101.416 24.1932C101.631 24.6216 101.988 24.8834 102.13 25.3833C102.297 25.9069 102.273 26.4067 102.345 26.9541C102.416 27.5253 102.535 28.1442 102.511 28.7154C102.487 29.1914 102.202 29.596 102.083 30.0721C101.964 30.6195 101.916 31.1907 101.726 31.6905C101.297 32.8568 99.7028 32.4522 98.8459 32.1428C98.6079 32.0475 98.3937 31.9285 98.1557 31.8571C97.9177 31.7857 97.6083 31.8333 97.3941 31.7143C96.918 31.4763 96.8704 30.5957 96.918 30.1435C96.9894 29.12 97.8225 27.7396 97.0846 26.7875C96.3944 25.9307 94.8711 26.1211 93.9905 26.4067C92.9433 26.7399 91.9436 27.2397 91.2772 28.168C90.6108 29.0962 90.3489 30.1435 90.0395 31.2145C89.7063 32.3094 89.4683 33.4518 89.2541 34.5705C89.1351 35.1179 88.8733 35.5701 88.7067 36.0937C88.5163 36.6412 88.4211 37.2124 88.2545 37.7598C88.0878 38.331 88.0878 38.8546 88.1116 39.4259C88.1116 40.0209 87.9926 40.4731 88.3021 41.0205C88.4211 41.2348 88.6115 41.4014 88.7543 41.6156C88.8971 41.806 88.9685 42.044 89.1351 42.2344C89.4207 42.5676 89.9681 42.9484 90.3965 43.0912C90.9202 43.2578 91.5866 43.3054 92.134 43.3768C92.4434 43.4245 92.6576 43.3768 92.9671 43.353C93.3003 43.3292 93.4907 43.4245 93.8001 43.4721C94.0619 43.5197 94.2761 43.4244 94.5379 43.4006C94.8473 43.353 95.1568 43.4007 95.4662 43.3768C96.085 43.3292 96.7514 43.1864 97.3227 43.0198C98.3699 42.6866 99.3219 42.0916 100.25 41.4966C100.726 41.1872 101.107 40.9015 101.44 40.4255C101.726 40.0209 102.202 39.8305 102.368 39.3545C102.773 38.3072 103.44 37.3552 103.797 36.2603C103.939 35.8319 103.987 35.1893 104.296 34.8561C104.701 34.4277 105.415 34.3801 105.939 34.4991C106.914 34.7133 108.081 34.9275 108.652 35.8319C108.747 36.1651 108.771 36.7126 108.676 37.141Z" fill="url(#paint3_linear_1570_1339)"/>
    <path d="M131.667 35.0468C131.239 34.8326 130.811 34.9754 130.382 34.8088C129.93 34.6422 129.668 34.4993 129.168 34.4755C128.787 34.4517 128.407 34.3089 128.145 34.6422C127.954 34.8802 127.859 35.2848 127.788 35.5942C127.669 36.0464 127.55 36.4986 127.312 36.9033C127.217 37.0937 127.05 37.2365 127.002 37.4269C126.955 37.6411 127.026 37.8553 127.002 38.0695C126.979 38.5693 126.622 38.9739 126.55 39.4738C126.479 39.8784 126.36 40.2354 126.169 40.6162C125.765 41.4255 125.265 42.1633 124.408 42.5203C124.003 42.6869 123.623 42.8773 123.242 43.0439C122.932 43.1867 122.623 43.4723 122.266 43.3533C122.099 43.2819 122.004 43.1153 121.861 43.0201C121.695 42.9249 121.552 42.9249 121.385 42.8773C120.933 42.7583 120.909 42.6393 121.028 42.1871C121.147 41.7587 120.909 41.3064 121.076 40.9256C121.219 40.5448 121.481 40.3068 121.576 39.9022C121.671 39.45 121.861 38.9739 121.885 38.5217C121.909 38.0219 121.885 37.8791 122.171 37.4745C122.48 37.0461 122.147 36.7604 122.266 36.332C122.361 35.9512 122.671 35.737 122.742 35.3086C122.813 34.8564 122.742 34.4041 122.813 33.9757C122.885 33.5473 123.075 33.1427 123.194 32.7143C123.313 32.2858 123.432 31.8574 123.551 31.4052C123.646 31.0006 123.813 30.7388 123.956 30.358C124.265 29.5725 123.861 28.8823 123.789 28.0969C123.742 27.6208 123.861 27.2162 123.765 26.7164C123.694 26.3118 123.527 25.9786 123.337 25.6216C123.123 25.2169 122.885 24.8361 122.647 24.4553C122.456 24.1459 122.528 23.8365 122.385 23.5271C122.052 22.8368 121.005 22.3132 120.362 21.98C119.957 21.7896 119.529 21.5516 119.124 21.4088C118.72 21.266 118.339 21.3136 117.982 21.0755C117.53 20.7661 117.411 20.9089 116.887 20.9565C116.459 21.0041 115.983 20.8851 115.53 20.8851C115.102 20.8851 114.459 20.8851 114.078 20.7185C113.769 20.5757 113.674 20.1235 113.531 19.8141C113.198 19.0763 113.626 17.9814 113.864 17.2436C113.983 16.8628 114.245 16.5772 114.364 16.1963C114.507 15.7917 114.507 15.2681 114.531 14.8397C114.554 14.3399 114.935 14.0066 114.911 13.5068C114.888 13.0308 114.888 12.8404 115.054 12.3644C115.197 11.9597 115.483 11.6027 115.483 11.1505C115.483 10.6269 115.554 10.5793 115.84 10.1985C116.102 9.81765 115.959 9.38923 116.125 8.98461C116.292 8.58 116.411 8.31819 116.482 7.86597C116.554 7.38994 116.768 7.00913 116.768 6.53311C116.768 6.03328 117.006 5.93808 117.173 5.50966C117.315 5.12885 117.196 4.62902 117.268 4.2244C117.339 3.79599 117.601 3.41517 117.649 3.01055C117.696 2.67734 117.696 2.03471 117.577 1.72529C117.458 1.39208 117.03 1.20167 116.768 0.987462C116.387 0.654247 116.03 0.678048 115.554 0.535242C115.316 0.463839 115.078 0.344833 114.84 0.321032C114.65 0.297231 114.483 0.344833 114.316 0.249629C114.126 0.249629 114.102 0.0830217 113.912 0.130624C113.745 0.178226 113.65 0.416236 113.555 0.535242C113.341 0.797053 113.055 0.93986 112.865 1.20167C112.603 1.51108 112.484 2.05851 112.484 2.46313C112.508 2.98675 112.436 3.01055 112.151 3.43897C111.936 3.77218 111.913 4.1768 111.817 4.53382C111.722 4.96224 111.556 5.34305 111.413 5.74767C111.27 6.17609 111.341 6.67591 111.27 7.15193C111.199 7.60415 111.008 7.69936 110.818 8.10398C110.627 8.48479 110.984 8.81801 110.818 9.19882C110.627 9.57964 110.365 9.57964 110.318 10.0319C110.294 10.4365 110.413 11.0315 110.27 11.3885C110.151 11.6741 109.866 11.7931 109.794 12.1026C109.723 12.3644 109.794 12.6262 109.723 12.888C109.675 13.0784 109.532 13.245 109.485 13.4354C109.366 13.84 109.366 14.2922 109.318 14.6969C109.223 15.5061 108.818 16.3153 108.58 17.1246C108.342 17.9338 108.033 18.7192 107.866 19.5523C107.771 20.0283 107.652 20.4091 107.486 20.8613C107.343 21.266 107.509 21.6706 107.295 22.0514C107.2 22.218 107.033 22.337 106.962 22.5274C106.891 22.7416 106.962 23.0034 106.914 23.2176C106.843 23.5985 106.653 23.9555 106.557 24.3363C106.414 24.7885 106.367 25.2407 106.248 25.693C106.129 26.1452 105.915 26.6212 105.867 27.0734C105.819 27.4542 106.034 27.7398 105.819 28.1207C105.581 28.5253 105.486 28.7157 105.415 29.1679C105.343 29.6201 105.272 30.0723 105.177 30.5246C105.082 30.9292 104.891 31.3338 104.796 31.7384C104.701 32.1906 104.748 32.4049 104.463 32.7619C104.153 33.1427 104.225 33.3331 104.201 33.8091C104.153 34.6898 103.701 35.4038 103.582 36.2606C103.511 36.7604 103.463 37.1175 103.249 37.5935C103.082 37.9267 102.844 38.1885 102.749 38.5693C102.654 38.9977 102.749 39.4262 102.678 39.8546C102.606 40.2592 102.345 40.6162 102.273 41.0446C102.202 41.4731 101.94 41.7349 101.821 42.1395C101.749 42.3299 101.797 42.5441 101.773 42.7345C101.726 42.9725 101.63 43.1629 101.535 43.3771C101.369 43.8056 101.583 44.115 101.488 44.5196C101.392 44.8528 101.012 44.9718 100.94 45.3288C100.893 45.543 100.988 45.7334 100.964 45.9477C100.94 46.1857 100.821 46.3761 100.75 46.6141C100.631 47.0187 100.821 47.0901 101.059 47.3757C101.273 47.6137 101.273 48.0183 101.535 48.2088C101.797 48.3992 102.368 48.3992 102.678 48.3992C103.463 48.3992 104.13 49.2084 104.939 48.6848C105.748 48.1373 105.843 47.5899 105.986 46.6855C106.057 46.3047 106.081 45.8286 106.272 45.4954C106.367 45.3288 106.533 45.2098 106.605 45.0194C106.676 44.829 106.653 44.6386 106.676 44.4482C106.7 44.0674 106.7 43.5199 106.914 43.2105C107.152 42.8773 107.367 42.8773 107.367 42.4251C107.367 41.9729 107.39 41.5207 107.557 41.0922C107.724 40.7352 107.914 40.4734 107.985 40.0688C108.152 39.212 108.152 38.4027 108.485 37.5697C108.628 37.1889 108.914 36.9033 108.985 36.4986C109.009 36.3082 108.985 36.094 109.009 35.9036C109.056 35.6894 109.199 35.4752 109.271 35.261C109.39 34.8564 109.413 34.4041 109.461 33.9995C109.509 33.5235 109.794 33.2379 109.866 32.7857C109.937 32.2858 109.818 31.8812 110.056 31.3814C110.199 31.0958 110.484 30.9768 110.651 30.715C110.841 30.4056 110.865 29.9295 111.032 29.5725C111.27 29.0965 111.46 29.0489 111.841 28.7395C112.174 28.4777 112.151 28.0493 112.484 27.7874C112.769 27.5732 113.103 27.3828 113.412 27.1686C114.197 26.5736 115.03 26.2404 116.03 26.2166C116.459 26.2166 116.839 26.0738 117.22 26.3356C117.53 26.5498 117.839 26.8116 118.101 27.0734C118.363 27.359 118.696 27.6446 118.696 28.0493C118.696 28.4539 118.601 28.6205 118.767 29.0251C118.981 29.5249 118.72 29.5487 118.601 30.0009C118.529 30.3342 118.672 30.6674 118.624 31.0244C118.553 31.5718 118.41 32.0478 118.267 32.5715C118.148 33.0475 118.029 33.1427 117.768 33.4997C117.53 33.8091 117.458 34.2851 117.434 34.666C117.411 34.8564 117.482 35.0706 117.434 35.261C117.387 35.4514 117.22 35.5704 117.125 35.737C116.911 36.1178 117.03 36.57 116.911 36.9747C116.792 37.4507 116.554 37.8315 116.411 38.2599C116.125 39.1168 116.363 40.0688 116.03 40.878C115.84 41.3779 115.816 41.4969 115.935 42.0205C116.006 42.3775 116.03 42.8297 115.959 43.1867C115.887 43.6866 115.768 43.8056 116.054 44.2578C116.244 44.5672 116.459 44.8528 116.673 45.1622C116.911 45.543 117.077 45.9715 117.315 46.3285C117.553 46.6855 117.958 46.8283 118.267 47.1377C118.505 47.3995 118.743 47.7565 119.029 47.9707C119.315 48.2088 119.838 48.2326 120.195 48.3754C120.933 48.6848 121.885 48.542 122.694 48.5658C123.147 48.5658 123.575 48.3992 124.027 48.2802C124.241 48.2326 124.432 48.1373 124.646 48.1373C124.813 48.1373 125.003 48.2564 125.17 48.2326C125.551 48.2088 125.812 47.7565 126.122 47.5899C126.479 47.3995 126.669 47.3043 127.05 47.2567C127.812 47.1853 128.454 46.3047 129.025 45.781C129.335 45.4954 129.525 45.0908 129.835 44.7814C130.12 44.4958 130.525 44.2102 130.739 43.8294C130.93 43.4485 130.834 43.0439 131.025 42.6393C131.191 42.3299 131.382 42.0443 131.548 41.7349C131.739 41.3778 131.596 41.0208 131.644 40.64C131.691 40.2116 131.834 39.8546 132.001 39.4738C132.143 39.1167 132.453 38.8073 132.5 38.4265C132.548 38.0219 132.596 37.7125 132.715 37.3079C132.929 36.2606 132.524 35.4752 131.667 35.0468ZM120.172 45.7096C120.195 45.7096 120.195 45.7096 120.172 45.7096C120.195 45.7096 120.195 45.7096 120.172 45.7096Z" fill="url(#paint4_linear_1570_1339)"/>
    <path d="M161.109 36.5222C161.109 36.546 161.086 36.5936 161.086 36.6174C161.133 36.5222 161.157 36.427 161.205 36.3318C161.181 36.3794 161.133 36.427 161.109 36.5222ZM163.918 41.6395C163.942 41.6633 163.942 41.6633 163.942 41.6633C163.942 41.6395 163.918 41.6395 163.918 41.6395ZM165.584 35.8082C165.608 35.8082 165.56 35.9034 165.536 35.9034C165.584 35.9034 165.632 35.9034 165.679 35.8796C165.679 35.8558 165.608 35.832 165.584 35.8082ZM165.941 35.6416C165.965 35.7368 166.036 35.8796 166.036 35.8796C166.084 35.8796 166.108 35.8796 166.131 35.8796C166.084 35.7844 166.036 35.713 165.941 35.6416Z" fill="url(#paint5_linear_1570_1339)"/>
    <path d="M166.631 35.8799C166.607 35.8799 166.56 35.8799 166.536 35.8799C166.512 35.8799 166.465 35.7371 166.441 35.6419C166.369 35.5705 166.274 35.4991 166.155 35.4753C165.727 35.2849 165.275 35.1183 164.822 34.9755C164.608 34.9041 164.442 34.8565 164.227 34.8803C164.037 34.9041 163.87 35.0231 163.656 34.9993C163.109 34.9279 162.966 34.5709 162.418 34.9993C162.014 35.3087 162.133 35.6419 161.919 36.0465C161.847 36.1655 161.752 36.2369 161.704 36.3321C161.657 36.4273 161.633 36.5225 161.585 36.6177C161.585 36.7844 161.633 36.951 161.633 37.1176C161.609 37.5222 161.419 37.9982 161.228 38.3552C161.228 38.379 161.205 38.4028 161.205 38.4028C161.086 38.5932 160.99 38.7122 160.99 38.9502C160.99 39.1407 161.109 39.3073 161.086 39.4739C161.062 39.9023 160.633 40.1165 160.562 40.5211C160.514 40.8067 160.562 41.0209 160.395 41.259C160.276 41.4494 160.086 41.5922 159.943 41.7588C159.681 42.1396 159.467 42.5204 159.11 42.8298C158.682 43.1868 158.277 43.2344 157.753 43.3058C157.301 43.3534 156.944 43.5915 156.444 43.5439C155.516 43.4724 154.945 42.6632 155.254 41.735C155.421 41.2828 155.635 40.8781 155.73 40.3783C155.826 39.9261 155.921 39.4977 156.04 39.0693C156.206 38.5456 156.302 38.0696 156.373 37.546C156.444 37.07 156.682 36.6653 156.754 36.1655C156.801 35.6895 156.992 35.2611 157.111 34.7851C157.23 34.3804 157.539 33.952 157.611 33.5474C157.634 33.3332 157.515 33.119 157.563 32.9048C157.587 32.7144 157.73 32.5954 157.825 32.4288C158.063 32.0717 158.015 31.6195 158.11 31.1911C158.206 30.7151 158.277 30.2391 158.349 29.7392C158.42 29.2632 158.563 28.811 158.634 28.3588C158.706 27.8828 158.61 27.4067 158.539 26.9307C158.468 26.4071 158.491 26.0739 158.23 25.6217C157.991 25.217 157.777 24.7886 157.468 24.4078C157.206 24.0984 156.873 23.7652 156.682 23.4082C156.444 22.9559 156.373 22.6703 155.897 22.3609C155.516 22.1229 155.064 22.0039 154.683 21.7659C154.231 21.5041 153.731 21.5517 153.279 21.3375C152.803 21.1233 152.351 21.1471 151.827 21.0995C151.303 21.0281 151.018 21.0995 150.542 21.2423C150.066 21.3851 149.614 21.2899 149.161 21.5041C148.709 21.7183 148.185 21.9325 147.686 21.9801C147.138 22.0277 146.805 22.2181 146.305 22.3609C145.734 22.5037 145.472 22.4085 144.949 22.2419C144.496 22.0991 144.068 22.1467 143.616 21.9563C143.378 21.8373 143.211 21.7421 142.949 21.7421C142.735 21.7421 142.592 21.7897 142.402 21.6945C142.045 21.5279 141.95 21.2423 141.497 21.2899C141.188 21.3375 141.069 21.3613 140.76 21.2661C140.522 21.1947 140.379 21.0995 140.117 21.0995C139.712 21.0995 139.308 21.2423 138.903 21.2661C138.617 21.2899 138.403 21.1709 138.118 21.1709C137.903 21.1709 137.689 21.2661 137.475 21.3375C137.118 21.4565 136.832 21.5993 136.547 21.2899C136.404 21.1233 136.356 20.9091 136.166 20.79C135.952 20.671 135.69 20.7186 135.476 20.6234C135.047 20.433 134.857 20.2188 134.381 20.1474C133.429 20.0046 132.572 20.0522 132.025 20.9329C131.787 21.3137 131.62 21.7183 131.525 22.1467C131.43 22.5751 131.477 22.9797 131.334 23.3844C131.168 23.8604 131.168 24.3126 131.025 24.7886C130.882 25.2408 130.62 25.6217 130.477 26.0739C130.311 26.6213 130.287 27.1687 130.144 27.7162C130.025 28.1922 129.835 28.6444 129.74 29.1442C129.644 29.6202 129.644 30.1201 129.502 30.5723C129.359 31.0007 129.049 31.3815 128.93 31.8099C128.835 32.0717 128.907 32.3336 128.859 32.5954C128.811 32.8334 128.669 33 128.573 33.2142C128.407 33.6188 128.359 34.1186 128.359 34.5471C128.359 34.8565 128.383 34.9755 128.193 35.2135C128.097 35.3563 127.955 35.4515 127.907 35.6181C127.859 35.8085 127.955 35.9989 127.955 36.1893C127.955 36.4035 127.907 36.5701 127.836 36.7844C127.693 37.2604 127.431 37.665 127.288 38.141C127.217 38.3552 127.122 38.5694 127.098 38.7836C127.074 39.0217 127.145 39.2359 127.074 39.4501C127.003 39.6643 126.812 39.7833 126.741 39.9975C126.646 40.2117 126.693 40.4259 126.669 40.6639C126.622 41.1161 126.408 41.5208 126.36 41.973C126.217 42.9488 125.622 43.8057 125.551 44.8053C125.527 45.0909 125.551 45.2099 125.408 45.4717C125.289 45.7098 125.194 45.805 125.146 46.0668C125.051 46.519 125.003 47.0188 125.146 47.4472C125.408 48.3517 126.503 48.5659 127.336 48.7325C127.621 48.7801 127.883 48.7801 128.145 48.8753C128.383 48.9467 128.55 49.0657 128.788 49.0419C129.264 48.9943 129.549 48.6135 129.763 48.2327C130.216 47.352 130.43 46.3762 130.858 45.5193C130.977 45.2575 131.096 44.9005 131.144 44.6149C131.168 44.3769 131.073 44.1627 131.12 43.9247C131.168 43.4963 131.43 43.163 131.477 42.7346C131.549 42.211 131.763 41.7588 131.906 41.259C132.025 40.7829 132.12 40.3069 132.286 39.8547C132.596 38.9741 132.548 38.022 132.881 37.1176C132.977 36.8558 133.167 36.6653 133.238 36.4035C133.31 36.1893 133.286 35.9513 133.334 35.7371C133.405 35.4991 133.548 35.3325 133.643 35.1183C133.738 34.8803 133.714 34.7137 133.714 34.4519C133.738 33.952 134.048 33.5712 134.19 33.0952C134.309 32.6668 134.428 32.2146 134.452 31.7623C134.476 31.3101 134.452 30.8579 134.666 30.4295C134.809 30.0963 135.142 29.9297 135.238 29.5726C135.309 29.3346 135.261 29.1204 135.38 28.9062C135.499 28.692 135.69 28.5016 135.857 28.335C136.19 28.0018 136.618 27.7162 137.023 27.4543C137.808 26.9069 138.736 26.4785 139.688 26.3595C140.664 26.2405 141.593 26.9069 141.735 27.9066C141.783 28.216 141.664 28.454 141.64 28.7396C141.616 28.93 141.688 29.1442 141.64 29.3346C141.545 29.7392 141.283 30.1201 141.188 30.5247C141.069 31.0007 141.045 31.4767 140.855 31.9527C140.688 32.3812 140.712 32.8572 140.522 33.2856C140.331 33.7378 140.045 34.1662 139.974 34.6423C139.903 35.0945 139.974 35.5705 139.879 36.0227C139.76 36.4987 139.522 36.9272 139.379 37.4032C139.26 37.8316 139.117 38.2838 138.951 38.7122C138.784 39.1645 138.689 39.6643 138.641 40.1403C138.617 40.3545 138.641 40.5687 138.546 40.7829C138.475 40.9257 138.332 41.0209 138.26 41.1637C138.07 41.5684 138.379 41.9492 138.189 42.3776C138.046 42.7346 137.761 43.0678 137.642 43.4248C137.57 43.6629 137.665 43.8295 137.689 44.0675C137.713 44.3055 137.642 44.4245 137.546 44.6625C137.38 45.0671 137.142 45.4717 137.047 45.9002C136.809 46.8998 136.618 47.9709 137.761 48.4469C138.213 48.6373 138.689 48.8039 139.165 48.9229C139.641 49.0419 140.046 48.8991 140.522 49.0657C141.545 49.3751 141.997 48.3517 142.092 47.4948C142.164 46.995 142.426 46.5904 142.521 46.0906C142.616 45.5669 142.759 45.0909 142.83 44.5673C142.902 44.0913 143.044 43.6153 143.211 43.163C143.354 42.7346 143.425 42.2586 143.568 41.8302C143.901 40.9257 143.854 39.9737 144.139 39.0455C144.282 38.5932 144.592 38.3552 144.687 37.8792C144.758 37.4746 145.044 37.07 145.068 36.6891C145.091 36.4273 144.925 36.1893 144.972 35.9275C145.02 35.7371 145.187 35.5705 145.258 35.4039C145.472 34.9755 145.663 34.5709 145.71 34.0948C145.758 33.595 145.901 33.1428 145.972 32.643C146.043 32.1431 146.234 31.8099 146.424 31.3339C146.591 30.8579 146.543 30.2867 146.734 29.8344C146.9 29.4536 147.233 29.2394 147.376 28.8348C147.543 28.2874 147.686 28.3112 148.162 28.0494C148.519 27.859 148.804 27.5257 149.137 27.2877C149.994 26.6213 150.923 26.1215 152.041 26.4309C152.922 26.6689 153.445 27.5257 153.565 28.3826C153.636 28.93 153.326 29.3346 153.207 29.8582C153.112 30.2867 153.017 30.7389 152.946 31.1673C152.898 31.4053 152.874 31.6671 152.779 31.8813C152.708 32.0717 152.517 32.1669 152.446 32.3336C152.327 32.5478 152.398 32.7382 152.398 32.9762C152.398 33.2618 152.327 33.4998 152.255 33.7616C152.136 34.2138 152.065 34.6661 151.922 35.1183C151.803 35.5467 151.589 35.9513 151.518 36.4035C151.351 37.4032 150.994 38.3076 150.756 39.2835C150.542 40.2117 150.066 41.2828 150.137 42.2586C150.137 42.5204 150.09 42.806 150.137 43.0678C150.185 43.3058 150.328 43.4963 150.399 43.7343C150.518 44.2103 150.399 44.6387 150.589 45.1385C150.756 45.5431 151.065 45.6621 151.303 45.9954C151.541 46.3524 151.565 46.7332 151.875 47.0664C152.208 47.4234 152.589 47.828 153.041 48.0185C153.493 48.2089 153.945 48.2803 154.421 48.3755C155.326 48.5897 156.064 49.0657 157.016 48.8039C157.492 48.6611 157.968 48.8039 158.444 48.6611C158.848 48.5421 159.229 48.4469 159.634 48.3279C159.896 48.2565 160.205 48.2089 160.443 48.0661C160.633 47.947 160.776 47.7804 160.99 47.6614C161.395 47.4472 161.728 47.3996 162.085 47.114C162.442 46.8046 162.847 46.5428 163.18 46.2096C163.275 46.1144 163.347 45.9954 163.442 45.9002C163.609 45.6621 163.775 45.4003 163.989 45.2099C164.156 45.0671 164.37 45.0195 164.513 44.8529C164.656 44.6863 164.703 44.4245 164.775 44.2341C164.941 43.8295 165.108 43.4724 165.37 43.1154C165.679 42.687 165.679 42.2586 165.822 41.7588C165.965 41.2828 166.012 40.8305 166.131 40.3545C166.369 39.4263 166.893 38.5932 167.036 37.6174C166.964 37.0224 166.917 36.3559 166.631 35.8799ZM164.394 41.6398C164.394 41.6398 164.418 41.6398 164.418 41.6636C164.418 41.6874 164.394 41.6636 164.394 41.6398ZM166.012 35.9037C166.012 35.9037 166.084 35.8323 166.06 35.8085C166.084 35.8085 166.155 35.8561 166.179 35.8799C166.108 35.9037 166.06 35.9037 166.012 35.9037Z" fill="url(#paint6_linear_1570_1339)"/>
    <path d="M161.109 36.6182C160.943 37.0228 160.824 37.4512 160.776 37.8796C160.752 38.0462 160.729 38.2366 160.729 38.4032C160.752 38.3794 160.752 38.3794 160.752 38.3556C160.943 37.9986 161.133 37.5226 161.157 37.118C161.157 36.9514 161.109 36.761 161.109 36.6182Z" fill="url(#paint7_linear_1570_1339)"/>
    <path d="M186.077 35.2377C185.767 35.1901 185.505 35.1901 185.22 35.0711C185.006 34.9997 184.815 34.8569 184.577 34.7855C184.125 34.6427 183.53 34.7141 183.125 34.9997C182.697 35.2853 182.649 35.7613 182.459 36.1897C182.364 36.404 182.245 36.5944 182.173 36.8324C182.102 37.0704 182.126 37.3084 182.03 37.5464C181.935 37.832 181.721 38.0938 181.602 38.3794C181.507 38.5937 181.435 38.8317 181.316 39.0459C181.055 39.4981 180.698 39.8313 180.341 40.2121C179.603 40.9262 178.984 41.664 178.103 42.1876C177.675 42.4256 177.365 42.7826 176.913 42.973C176.461 43.1635 175.937 43.3539 175.461 43.4015C174.962 43.4491 174.438 43.4015 173.938 43.4967C173.367 43.6157 172.915 43.7347 172.32 43.6633C171.225 43.5205 170.13 43.7109 169.059 43.4491C168.035 43.1873 167.06 42.5446 166.584 41.545C166.227 40.8072 166.346 39.2363 167.012 38.7127C167.345 38.4508 167.655 37.9748 168.035 37.8082C168.535 37.594 169.106 37.6654 169.654 37.6654C170.225 37.6654 170.796 37.594 171.368 37.5226C171.867 37.4512 172.32 37.5464 172.819 37.5464C173.272 37.5464 173.819 37.1894 174.271 37.0466C174.724 36.9038 175.152 36.88 175.557 36.6182C176.318 36.1421 177.437 35.6661 177.937 34.9045C178.484 34.0953 179.222 33.5002 179.65 32.6196C180.079 31.7389 180.46 30.9059 180.602 29.9301C180.674 29.4302 180.84 28.9304 180.888 28.4306C180.912 27.9784 180.864 27.5262 180.817 27.0739C180.721 26.0981 180.317 25.1461 179.817 24.313C179.579 23.9084 179.27 23.7656 178.96 23.4324C178.603 23.0516 178.413 22.7422 177.96 22.4565C177.151 21.9567 176.223 21.5521 175.271 21.4331C174.771 21.3617 174.295 21.2189 173.795 21.1237C173.248 21.0523 172.772 21.1713 172.272 21.3379C171.748 21.4807 171.225 21.5759 170.725 21.7425C170.249 21.8853 169.821 21.9091 169.368 22.1471C168.94 22.3851 168.63 22.7183 168.226 22.9802C167.797 23.242 167.321 23.48 166.964 23.8132C166.56 24.1702 166.274 24.6462 165.941 25.0509C165.632 25.4317 165.203 25.7649 164.965 26.1933C164.703 26.5979 164.537 27.1215 164.322 27.55C164.084 28.026 163.918 28.4306 163.775 28.9542C163.537 29.9539 163.132 30.8583 162.966 31.858C162.871 32.4054 162.704 32.9528 162.537 33.5002C162.371 33.9762 162.323 34.3809 162.252 34.8807C162.18 35.3567 161.99 35.8327 161.8 36.3088C161.871 36.2135 161.966 36.1421 162.014 36.0231C162.228 35.6185 162.109 35.2853 162.514 34.9759C163.061 34.5475 163.18 34.9045 163.751 34.9759C163.965 34.9997 164.132 34.8807 164.322 34.8569C164.537 34.8331 164.703 34.8807 164.918 34.9521C165.37 35.0949 165.822 35.2853 166.25 35.4519C166.346 35.4995 166.441 35.5471 166.536 35.6185C166.607 35.6899 166.679 35.7851 166.75 35.8803C167.036 36.3326 167.083 37.0228 167.012 37.5464C166.869 38.5222 166.369 39.3553 166.108 40.2835C165.989 40.7595 165.941 41.2118 165.798 41.6878C165.655 42.1876 165.655 42.616 165.346 43.0444C165.084 43.4015 164.918 43.7585 164.751 44.1631C164.656 44.3535 164.608 44.6153 164.489 44.7819C164.346 44.9485 164.132 45.0199 163.965 45.1389C163.751 45.3293 163.585 45.5912 163.418 45.8292C163.608 46.0434 163.799 46.2338 164.013 46.448C164.394 46.8526 164.727 46.9954 165.227 47.2334C165.632 47.4238 165.846 47.7809 166.25 47.9475C167.226 48.3283 168.154 48.4235 169.154 48.6377C169.702 48.7567 170.178 48.8995 170.725 48.8995C171.225 48.8995 171.725 48.7805 172.224 48.7805C172.796 48.8043 173.295 48.8043 173.867 48.7567C174.367 48.7091 174.819 48.7805 175.319 48.8043C176.39 48.8757 177.342 48.1379 178.365 47.9951C178.865 47.9237 179.317 47.6381 179.746 47.3762C180.174 47.1144 180.65 46.9478 181.078 46.686C181.507 46.448 181.721 46.0434 182.126 45.7816C182.292 45.6864 182.506 45.6626 182.673 45.5674C182.911 45.4246 183.03 45.2103 183.197 45.0199C183.863 44.2821 184.649 43.6395 185.244 42.8302C185.553 42.378 185.696 41.8782 185.958 41.4022C186.196 40.9976 186.505 40.6405 186.672 40.2121C187.076 39.2363 187.529 38.308 187.648 37.2608C187.576 36.285 187.029 35.4281 186.077 35.2377ZM168.749 30.3109C168.868 29.8825 168.987 29.4778 169.249 29.0732C170.154 27.5738 172.201 26.2409 174.009 26.5027C174.89 26.6217 175.509 27.0739 175.533 28.0022C175.557 28.383 175.676 28.978 175.509 29.3112C175.342 29.6683 175.081 30.0253 174.89 30.3823C174.509 31.0249 173.748 31.8342 173.034 32.1198C172.724 32.2388 170.535 32.334 170.535 32.4054C169.844 32.4054 168.535 32.691 168.416 31.6199C168.345 31.1915 168.63 30.7393 168.749 30.3109ZM165.203 34.4047C165.108 34.4047 165.227 34.3333 165.203 34.4047C165.227 34.3809 165.227 34.3809 165.203 34.4047ZM165.917 35.1187C165.917 35.1187 166.131 34.9759 166.155 35.1663C166.155 35.4757 165.893 35.1187 165.917 35.1187ZM165.513 43.3063C165.465 43.3777 165.489 43.2111 165.513 43.3063C165.489 43.3063 165.513 43.3301 165.513 43.3063Z" fill="url(#paint8_linear_1570_1339)"/>

    </svg>
    