<svg width="25" height="25" viewBox="0 0 25 25" fill="none" xmlns="http://www.w3.org/2000/svg">
<g clip-path="url(#clip0_369_12578)">
<path d="M21.3584 10.4697C21.3584 17.4697 12.3584 23.4697 12.3584 23.4697C12.3584 23.4697 3.3584 17.4697 3.3584 10.4697C3.3584 8.08278 4.30661 5.79359 5.99444 4.10577C7.68226 2.41794 9.97145 1.46973 12.3584 1.46973C14.7453 1.46973 17.0345 2.41794 18.7224 4.10577C20.4102 5.79359 21.3584 8.08278 21.3584 10.4697Z" stroke="black" stroke-width="2" stroke-linecap="round" stroke-linejoin="round"/>
<path d="M12.3584 13.4697C14.0153 13.4697 15.3584 12.1266 15.3584 10.4697C15.3584 8.81287 14.0153 7.46973 12.3584 7.46973C10.7015 7.46973 9.3584 8.81287 9.3584 10.4697C9.3584 12.1266 10.7015 13.4697 12.3584 13.4697Z" stroke="black" stroke-width="2" stroke-linecap="round" stroke-linejoin="round"/>
</g>
<defs>
<clipPath id="clip0_369_12578">
<rect width="24" height="24" fill="white" transform="translate(0.358398 0.469727)"/>
</clipPath>
</defs>
</svg>
