<svg width="30" height="26" viewBox="0 0 30 26" fill="none" xmlns="http://www.w3.org/2000/svg">
<path fill-rule="evenodd" clip-rule="evenodd" d="M21.9965 7.22284L21.9987 7.22507C22.785 8.01054 23.2223 9.06625 23.2223 10.1722V10.6336C23.173 10.418 23.0989 10.2066 23 10.0036V12.5797C23.0986 12.3766 23.1728 12.1646 23.2223 11.9478V19.8278C23.2223 22.1278 21.3487 24 19.0366 24H19H7H6.96228C4.65073 24 2.77783 22.1283 2.77783 19.8278V10.1722C2.77783 7.86911 4.64108 6 6.96228 6H7H19H19.0366C20.1491 6 21.2151 6.43978 21.9965 7.22284ZM3 12.462C2.70457 11.7445 2.71152 10.9422 3 10.2361V12.462ZM19.0366 4C20.6756 4 22.2523 4.64778 23.4122 5.81011C24.5733 6.97 25.2223 8.53444 25.2223 10.1722V19.8278C25.2223 23.2378 22.4478 26 19.0366 26H6.96228C3.55105 26 0.777832 23.2378 0.777832 19.8278V10.1722C0.777832 6.76222 3.53883 4 6.96228 4H19.0366Z" fill="#001824"/>
<path d="M6 11L13.0909 16L19 11" stroke="#001824" stroke-width="2" stroke-linecap="round" stroke-linejoin="round"/>
<mask id="path-3-outside-1_19_5393" maskUnits="userSpaceOnUse" x="18" y="0" width="12" height="12" fill="black">
<rect fill="white" x="18" width="12" height="12"/>
<path fill-rule="evenodd" clip-rule="evenodd" d="M24 2C23.5582 2 23.2 2.35817 23.2 2.8V5.2H20.8C20.3582 5.2 20 5.55817 20 6C20 6.44183 20.3582 6.8 20.8 6.8H23.2V9.2C23.2 9.64183 23.5582 10 24 10C24.4418 10 24.8 9.64183 24.8 9.2V6.8H27.2C27.6418 6.8 28 6.44183 28 6C28 5.55817 27.6418 5.2 27.2 5.2H24.8V2.8C24.8 2.35817 24.4418 2 24 2Z"/>
</mask>
<path fill-rule="evenodd" clip-rule="evenodd" d="M24 2C23.5582 2 23.2 2.35817 23.2 2.8V5.2H20.8C20.3582 5.2 20 5.55817 20 6C20 6.44183 20.3582 6.8 20.8 6.8H23.2V9.2C23.2 9.64183 23.5582 10 24 10C24.4418 10 24.8 9.64183 24.8 9.2V6.8H27.2C27.6418 6.8 28 6.44183 28 6C28 5.55817 27.6418 5.2 27.2 5.2H24.8V2.8C24.8 2.35817 24.4418 2 24 2Z" fill="#001824"/>
<path d="M23.2 5.2V7.2H25.2V5.2H23.2ZM23.2 6.8H25.2V4.8H23.2V6.8ZM24.8 6.8V4.8H22.8V6.8H24.8ZM24.8 5.2H22.8V7.2H24.8V5.2ZM25.2 2.8C25.2 3.46274 24.6627 4 24 4V0C22.4536 0 21.2 1.2536 21.2 2.8H25.2ZM25.2 5.2V2.8H21.2V5.2H25.2ZM20.8 7.2H23.2V3.2H20.8V7.2ZM22 6C22 6.66274 21.4627 7.2 20.8 7.2V3.2C19.2536 3.2 18 4.4536 18 6H22ZM20.8 4.8C21.4627 4.8 22 5.33726 22 6H18C18 7.5464 19.2536 8.8 20.8 8.8V4.8ZM23.2 4.8H20.8V8.8H23.2V4.8ZM25.2 9.2V6.8H21.2V9.2H25.2ZM24 8C24.6627 8 25.2 8.53726 25.2 9.2H21.2C21.2 10.7464 22.4536 12 24 12V8ZM22.8 9.2C22.8 8.53726 23.3373 8 24 8V12C25.5464 12 26.8 10.7464 26.8 9.2H22.8ZM22.8 6.8V9.2H26.8V6.8H22.8ZM27.2 4.8H24.8V8.8H27.2V4.8ZM26 6C26 5.33726 26.5373 4.8 27.2 4.8V8.8C28.7464 8.8 30 7.5464 30 6H26ZM27.2 7.2C26.5373 7.2 26 6.66274 26 6H30C30 4.4536 28.7464 3.2 27.2 3.2V7.2ZM24.8 7.2H27.2V3.2H24.8V7.2ZM22.8 2.8V5.2H26.8V2.8H22.8ZM24 4C23.3373 4 22.8 3.46274 22.8 2.8H26.8C26.8 1.2536 25.5464 0 24 0V4Z" fill="white" mask="url(#path-3-outside-1_19_5393)"/>
</svg>
