<svg width="5" height="19" viewBox="0 0 5 19" fill="none" xmlns="http://www.w3.org/2000/svg">
<path d="M2.9502 10.1104C3.50248 10.1104 3.9502 9.66264 3.9502 9.11035C3.9502 8.55807 3.50248 8.11035 2.9502 8.11035C2.39791 8.11035 1.9502 8.55807 1.9502 9.11035C1.9502 9.66264 2.39791 10.1104 2.9502 10.1104Z" stroke="black" stroke-width="2" stroke-linecap="round" stroke-linejoin="round"/>
<path d="M2.9502 3.11035C3.50248 3.11035 3.9502 2.66264 3.9502 2.11035C3.9502 1.55807 3.50248 1.11035 2.9502 1.11035C2.39791 1.11035 1.9502 1.55807 1.9502 2.11035C1.9502 2.66264 2.39791 3.11035 2.9502 3.11035Z" stroke="black" stroke-width="2" stroke-linecap="round" stroke-linejoin="round"/>
<path d="M2.9502 17.1104C3.50248 17.1104 3.9502 16.6626 3.9502 16.1104C3.9502 15.5581 3.50248 15.1104 2.9502 15.1104C2.39791 15.1104 1.9502 15.5581 1.9502 16.1104C1.9502 16.6626 2.39791 17.1104 2.9502 17.1104Z" stroke="black" stroke-width="2" stroke-linecap="round" stroke-linejoin="round"/>
</svg>
