<svg width="23" height="23" viewBox="0 0 23 23" fill="none" xmlns="http://www.w3.org/2000/svg">
<path d="M8.625 17.25V4.79167L20.125 2.875V15.3333" stroke="white" stroke-width="2" stroke-linecap="round" stroke-linejoin="round"/>
<path d="M5.75 20.125C7.33782 20.125 8.625 18.8378 8.625 17.25C8.625 15.6622 7.33782 14.375 5.75 14.375C4.16218 14.375 2.875 15.6622 2.875 17.25C2.875 18.8378 4.16218 20.125 5.75 20.125Z" fill="white" stroke="white" stroke-width="2" stroke-linecap="round" stroke-linejoin="round"/>
<path d="M17.25 18.208C18.8378 18.208 20.125 16.9208 20.125 15.333C20.125 13.7452 18.8378 12.458 17.25 12.458C15.6622 12.458 14.375 13.7452 14.375 15.333C14.375 16.9208 15.6622 18.208 17.25 18.208Z" fill="white" stroke="white" stroke-width="2" stroke-linecap="round" stroke-linejoin="round"/>
</svg>
