<svg width="23" height="23" viewBox="0 0 23 23" fill="none" xmlns="http://www.w3.org/2000/svg">
<path d="M8.625 17.25V4.79167L20.125 2.875V15.3333" stroke="white" stroke-width="2" stroke-linecap="round" stroke-linejoin="round"/>
<path d="M5.75 20.125C7.33782 20.125 8.625 18.8378 8.625 17.25C8.625 15.6622 7.33782 14.375 5.75 14.375C4.16218 14.375 2.875 15.6622 2.875 17.25C2.875 18.8378 4.16218 20.125 5.75 20.125Z" fill="white" stroke="white" stroke-width="2" stroke-linecap="round" stroke-linejoin="round"/>
<path d="M17.25 18.2085C18.8378 18.2085 20.125 16.9213 20.125 15.3335C20.125 13.7457 18.8378 12.4585 17.25 12.4585C15.6622 12.4585 14.375 13.7457 14.375 15.3335C14.375 16.9213 15.6622 18.2085 17.25 18.2085Z" fill="white" stroke="white" stroke-width="2" stroke-linecap="round" stroke-linejoin="round"/>
</svg>
