<svg width="46" height="46" viewBox="0 0 46 46" fill="none" xmlns="http://www.w3.org/2000/svg">
<circle opacity="0.6" cx="23" cy="23" r="23" fill="black" fill-opacity="0.5"/>
<path fill-rule="evenodd" clip-rule="evenodd" d="M33.3778 14.1847C33.7074 14.5143 33.7074 15.0476 33.3778 15.3772L27.2316 21.5237C27.2302 21.5251 27.2288 21.5265 27.2274 21.5279L19.556 29.2004L19.549 29.206L15.3789 33.3772C15.2146 33.5426 14.9986 33.6247 14.7826 33.6247C14.5666 33.6247 14.3506 33.5426 14.1864 33.3772C13.8567 33.0476 13.8567 32.5143 14.1864 32.1847L17.1777 29.1929C16.4145 29.1568 15.7679 29.0572 15.0312 28.4276C14.039 27.5791 13.9434 25.895 13.9375 24.4095L13.9377 23.9231L13.9389 23.6497L13.9377 23.3774L13.9375 22.891C13.9434 21.4053 14.0391 19.7204 15.0324 18.8729C15.8649 18.1608 16.5781 18.1338 17.4792 18.1001C17.7279 18.0899 18.008 18.0798 18.3365 18.0539C18.6189 18.0179 19.439 17.3429 19.9812 16.8974C21.563 15.5936 23.7309 13.8093 25.7581 15.0108C25.7952 15.0311 25.8301 15.0558 25.8627 15.0828C26.8342 15.8736 27.2187 17.0847 27.3799 18.9895L32.1853 14.1847C32.5149 13.8551 33.0481 13.8551 33.3778 14.1847ZM26.6417 25.0938C27.1074 25.1006 27.4809 25.4831 27.4742 25.9488C27.4314 29.2732 27.1704 31.1553 25.8621 32.2185C25.8283 32.2444 25.7946 32.2691 25.7586 32.2893C25.2816 32.5717 24.7978 32.6865 24.3242 32.6865C23.1879 32.6865 22.1091 32.0283 21.3092 31.449C20.9312 31.1767 20.8468 30.6491 21.1191 30.2722C21.3936 29.8942 21.9212 29.8076 22.2981 30.0832C23.7752 31.1509 24.4412 31.08 24.8451 30.8685C25.4998 30.2846 25.7484 28.9706 25.7867 25.9263C25.7934 25.4606 26.1343 25.0983 26.6417 25.0938ZM24.3215 16.3124C23.3472 16.3124 22.0951 17.3429 21.0534 18.2002C20.0521 19.0237 19.2624 19.6739 18.4692 19.7369C18.1149 19.7639 17.8111 19.7763 17.5434 19.7864C16.712 19.8168 16.5016 19.8371 16.1281 20.1566C15.6185 20.5919 15.623 22.3334 15.6252 23.3729L15.6264 23.6497L15.6252 23.9276C15.623 24.9671 15.6185 26.7086 16.1281 27.1439C16.5095 27.4702 16.7255 27.4904 17.5771 27.5197C17.8347 27.5287 18.1261 27.5388 18.4625 27.5624C18.5592 27.5692 18.6582 27.5849 18.7595 27.6097L25.7772 20.5919C25.6951 18.0888 25.442 16.9661 24.8457 16.4328C24.6837 16.3496 24.5082 16.3124 24.3215 16.3124Z" fill="white"/>
</svg>
