<svg width="39" height="39" viewBox="0 0 39 39" fill="none" xmlns="http://www.w3.org/2000/svg">
<g clip-path="url(#clip0_1554_3443)">
<path d="M31.375 19.3381C31.375 20.6776 31.1518 21.9672 30.7432 23.169L28.81 21.2357C28.9365 20.6111 29.0002 19.9754 29 19.3381V16.9631C29 16.6481 29.1251 16.3461 29.3478 16.1234C29.5705 15.9007 29.8726 15.7756 30.1875 15.7756C30.5024 15.7756 30.8045 15.9007 31.0272 16.1234C31.2499 16.3461 31.375 16.6481 31.375 16.9631V19.3381ZM19.5 28.8381C21.4427 28.8381 23.2477 28.2562 24.7535 27.254L26.4588 28.9616C24.7634 30.191 22.7716 30.9476 20.6875 31.1537V35.9631H27.8125C28.1274 35.9631 28.4295 36.0882 28.6522 36.3109C28.8749 36.5336 29 36.8356 29 37.1506C29 37.4655 28.8749 37.7676 28.6522 37.9903C28.4295 38.213 28.1274 38.3381 27.8125 38.3381H11.1875C10.8726 38.3381 10.5705 38.213 10.3478 37.9903C10.1251 37.7676 10 37.4655 10 37.1506C10 36.8356 10.1251 36.5336 10.3478 36.3109C10.5705 36.0882 10.8726 35.9631 11.1875 35.9631H18.3125V31.1537C15.3834 30.8593 12.668 29.4874 10.6932 27.3042C8.71841 25.1209 7.62496 22.282 7.625 19.3381V16.9631C7.625 16.6481 7.75011 16.3461 7.97281 16.1234C8.19551 15.9007 8.49756 15.7756 8.8125 15.7756C9.12744 15.7756 9.42949 15.9007 9.65219 16.1234C9.87489 16.3461 10 16.6481 10 16.9631V19.3381C10 21.8576 11.0009 24.274 12.7825 26.0556C14.5641 27.8372 16.9804 28.8381 19.5 28.8381ZM26.625 7.46309V19.0507L12.7502 5.17596C13.294 3.57816 14.3871 2.22516 15.835 1.35783C17.2829 0.490505 18.9916 0.165135 20.6569 0.439646C22.3222 0.714158 23.836 1.57074 24.9289 2.85689C26.0218 4.14304 26.6229 5.7753 26.625 7.46309Z" fill="white"/>
<path d="M23.0292 25.5304L12.375 14.8738V19.3388C12.3746 20.5864 12.7019 21.8123 13.324 22.8937C13.9461 23.9752 14.8413 24.8743 15.92 25.5012C16.9987 26.1281 18.2231 26.4607 19.4707 26.4659C20.7183 26.471 21.9454 26.1484 23.0292 25.5304ZM4.40924 3.55455L32.9092 32.0546L34.5907 30.3731L6.09074 1.87305L4.40924 3.55455Z" fill="white"/>
</g>
<defs>
<clipPath id="clip0_1554_3443">
<rect width="38" height="38" fill="white" transform="translate(0.5 0.337891)"/>
</clipPath>
</defs>
</svg>
