<svg width="34" height="26" viewBox="0 0 34 26" fill="none" xmlns="http://www.w3.org/2000/svg">
<path d="M27.8499 10.746V14.7218H28.8699C29.0493 14.2119 29.4743 13.8625 30.107 13.8625C31.0042 13.8625 31.448 14.3724 31.448 15.2696C31.448 16.1195 31.0325 16.7523 30.107 16.7523C29.3798 16.7523 28.8888 16.3745 28.7471 15.789H27.6988C27.8594 16.8656 28.681 17.6494 30.0976 17.6494C31.6935 17.6494 32.4774 16.6106 32.4774 15.2413C32.4774 14.2024 31.958 12.9464 30.2675 12.9464C29.6537 12.9464 29.0965 13.2297 28.8415 13.5697V11.6904H32.0052V10.746H27.8499Z" fill="#0C0C0C"/>
<path d="M3.662 9.68C2.094 10.156 1.094 9.99 0 8.896V16C1.032 14.901 2.093 14.562 3.662 15.039L24 21V4L3.662 9.68ZM15 20.419L13.038 22.566C12.674 22.941 12.131 23.087 11.626 22.947L7.676 21.867C7.186 21.731 6.807 21.347 6.68 20.858L6 17.812L8.131 18.429L8.365 19.758C8.45 20.081 8.701 20.336 9.024 20.426L11.166 21.005C11.501 21.099 11.862 21.003 12.103 20.753L12.898 19.809L15 20.419Z" fill="#333333"/>
<path d="M6 1L21.5 22.5" stroke="white" stroke-width="3"/>
<path d="M4.5 3L20 24.5" stroke="#333333" stroke-width="3"/>
</svg>
