<svg width="39" height="39" viewBox="0 0 39 39" fill="none" xmlns="http://www.w3.org/2000/svg">
<circle cx="19.5" cy="19.5" r="19.5" fill="#0077B6"/>
<path d="M20 10C14.4777 10 10 14.4777 10 20C10 25.5223 14.4777 30 20 30C25.5223 30 30 25.5223 30 20C30 14.4777 25.5223 10 20 10ZM20 28.3036C15.4152 28.3036 11.6964 24.5848 11.6964 20C11.6964 18.0134 12.3951 16.1875 13.5603 14.7589L25.2411 26.4397C23.8125 27.6049 21.9866 28.3036 20 28.3036ZM26.4397 25.2411L14.7589 13.5603C16.1875 12.3951 18.0134 11.6964 20 11.6964C24.5848 11.6964 28.3036 15.4152 28.3036 20C28.3036 21.9866 27.6049 23.8125 26.4397 25.2411Z" fill="white"/>
</svg>
