<svg width="20" height="24" viewBox="0 0 20 24" fill="none" xmlns="http://www.w3.org/2000/svg">
<path fill-rule="evenodd" clip-rule="evenodd" d="M17.8246 8.2624C17.8246 9.72765 18.2119 10.5913 19.0641 11.5865C19.71 12.3197 19.9163 13.2609 19.9163 14.282C19.9163 15.302 19.5812 16.2702 18.9099 17.0563C18.031 17.9986 16.7915 18.6002 15.5265 18.7048C13.6933 18.8611 11.8589 18.9927 10.0003 18.9927C8.14041 18.9927 6.30723 18.914 4.47405 18.7048C3.20787 18.6002 1.96836 17.9986 1.09062 17.0563C0.419264 16.2702 0.0830078 15.302 0.0830078 14.282C0.0830078 13.2609 0.290559 12.3197 0.935244 11.5865C1.81415 10.5913 2.17591 9.72765 2.17591 8.2624V7.76536C2.17591 5.80307 2.66523 4.51995 3.67284 3.26385C5.17092 1.43199 7.57225 0.333344 9.94808 0.333344H10.0524C12.4793 0.333344 14.9583 1.48487 16.4309 3.39545C17.3863 4.6257 17.8246 5.85477 17.8246 7.76536V8.2624ZM6.58563 21.4043C6.58563 20.8168 7.1248 20.5477 7.62338 20.4326C8.20662 20.3092 11.7605 20.3092 12.3437 20.4326C12.8423 20.5477 13.3815 20.8168 13.3815 21.4043C13.3525 21.9636 13.0244 22.4595 12.571 22.7744C11.9831 23.2327 11.2932 23.5229 10.572 23.6275C10.1731 23.6792 9.78122 23.6803 9.39627 23.6275C8.6739 23.5229 7.98399 23.2327 7.39728 22.7732C6.94276 22.4595 6.61461 21.9636 6.58563 21.4043Z" fill="#0077B6"/>
</svg>
