<svg width="20" height="24" viewBox="0 0 20 24" fill="none" xmlns="http://www.w3.org/2000/svg">
<path d="M11.8729 21.5396L11.8503 21.5553L11.8286 21.5722C11.3829 21.9196 10.8609 22.1398 10.3154 22.2202C10.0037 22.26 9.70606 22.2597 9.41964 22.2207C8.87162 22.1407 8.34914 21.9204 7.90468 21.5724L7.88098 21.5538L7.85621 21.5367C7.66474 21.4046 7.54919 21.2367 7.50205 21.0789C7.51029 21.0751 7.51927 21.0711 7.52901 21.067C7.58256 21.0446 7.64783 21.0236 7.72247 21.0056C7.7291 21.0045 7.74447 21.0022 7.7708 20.9992C7.8114 20.9945 7.86536 20.9894 7.9334 20.9843C8.06955 20.9741 8.24394 20.9651 8.44814 20.9576C8.85566 20.9428 9.35836 20.9352 9.86519 20.9352C10.372 20.9352 10.8747 20.9428 11.2822 20.9576C11.4864 20.9651 11.6608 20.9741 11.797 20.9843C11.865 20.9894 11.919 20.9945 11.9596 20.9992C11.9859 21.0022 12.0013 21.0045 12.0079 21.0056C12.0825 21.0236 12.1478 21.0446 12.2014 21.067C12.2111 21.0711 12.2201 21.0751 12.2283 21.0789C12.1811 21.2371 12.0653 21.406 11.8729 21.5396ZM15.4974 3.66164L15.4997 3.66454C16.3037 4.69977 16.6782 5.7038 16.6782 7.40547V7.90073C16.6782 8.72195 16.7872 9.43057 17.0452 10.0946C17.3022 10.7561 17.6848 11.3158 18.1537 11.8634L18.1537 11.8635L18.1629 11.874C18.5799 12.3474 18.7625 13.0026 18.7625 13.8989C18.7625 14.683 18.5099 15.4078 18.0132 15.9973C17.3064 16.7468 16.309 17.2263 15.3059 17.3093L15.3034 17.3095C13.4826 17.4647 11.6896 17.5927 9.88183 17.5927C8.05654 17.5927 6.26897 17.5154 4.48872 17.3123L4.47322 17.3105L4.45768 17.3093C3.45316 17.2263 2.45604 16.7466 1.75065 15.9975C1.25333 15.4075 1 14.6823 1 13.8989C1 13.0041 1.18311 12.3482 1.59946 11.8741C2.08796 11.3209 2.47449 10.7568 2.72969 10.0899C2.98486 9.42299 3.08543 8.71435 3.08543 7.90073V7.40547C3.08543 5.66935 3.50081 4.61442 4.35406 3.5495C5.64978 1.96751 7.75232 1 9.82984 1H9.93382C12.0615 1 14.2311 2.01866 15.4974 3.66164Z" stroke="#252525" stroke-width="2"/>
</svg>
