<svg width="25" height="30" viewBox="0 0 25 30" fill="none" xmlns="http://www.w3.org/2000/svg">
<path d="M16.5128 5.56794C15.7499 5.12489 15.2784 4.30038 15.2796 3.41189V3.40834C15.2808 2.01994 14.1684 0.894531 12.7966 0.894531C11.4248 0.894531 10.3124 2.01994 10.3124 3.40834V3.41189C10.3136 4.30156 9.8433 5.12489 9.07921 5.56794C3.55048 8.78069 6.72769 19.446 0.950195 21.3308V23.4027H24.643V21.3308C18.8655 19.446 22.0427 8.78069 16.5128 5.56794ZM12.7966 2.07917C13.4505 2.07917 13.9813 2.61108 13.9813 3.26381C13.9813 3.91774 13.4505 4.44846 12.7966 4.44846C12.1427 4.44846 11.612 3.91774 11.612 3.26381C11.612 2.61108 12.1427 2.07917 12.7966 2.07917ZM16.3505 25.772C16.3505 27.6651 14.7015 29.3259 12.831 29.3259C10.9604 29.3259 9.24269 27.6651 9.24269 25.772H16.3505Z" fill="#333333"/>
</svg>
