<svg width="350" height="350" viewBox="0 0 350 350" fill="none" xmlns="http://www.w3.org/2000/svg">
<rect width="350" height="350" fill="#F5F5F5"/>
<path fill-rule="evenodd" clip-rule="evenodd" d="M158.412 134.492C157.662 133.443 155.773 132.447 154.119 132.529C152.466 132.611 150.909 133.294 149.425 134.021C150.558 134.847 151.833 135.483 153.178 135.892C153.603 136.022 154.567 136.404 156.645 135.546" fill="#E7EAEE"/>
<path fill-rule="evenodd" clip-rule="evenodd" d="M42.6327 248.533C-2.28882e-05 190.689 114.204 175.133 182.043 130.726C219.009 106.529 235.917 80.0582 267.867 80.777C333.184 82.2465 335.857 205.629 321.986 227.793C269.685 311.369 60.2786 272.475 42.6327 248.533Z" fill="#FF7171"/>
<path fill-rule="evenodd" clip-rule="evenodd" d="M177.8 170.189C192.047 170.189 206.543 171.535 219.329 177.925C220.836 178.679 222.575 180.078 222.032 181.69C221.827 182.295 221.329 182.744 220.833 183.14C215.039 187.769 207.338 188.944 200.008 189.776C197.159 190.099 194.307 190.394 191.451 190.634C168.784 192.532 145.831 190.866 123.663 185.712C122.357 185.409 120.837 184.893 120.475 183.586C120.034 181.997 121.628 180.639 123.039 179.817C133.959 173.451 146.438 169.86 159.028 169.46C156.788 169.809 188.832 170.271 177.8 170.189Z" fill="#F5F5F5"/>
<path fill-rule="evenodd" clip-rule="evenodd" d="M259.539 124.963C256.599 130.882 254.141 137.155 253.464 143.739C253.434 144.023 253.412 144.326 253.544 144.578C253.81 145.089 254.513 145.115 255.085 145.077C268.325 144.205 282.009 146.81 293.242 153.924C297.082 156.356 300.609 159.287 304.591 161.473C304.766 161.57 304.966 161.668 305.158 161.612C305.352 161.555 305.469 161.362 305.567 161.184C307.986 156.785 310.129 152.232 311.98 147.561C312.635 145.905 313.26 144.209 313.423 142.433C313.832 137.964 310.891 133.403 306.672 131.963C295.857 128.271 285.042 124.578 274.227 120.886C272.251 120.212 270.247 119.531 268.165 119.38C266.083 119.23 263.88 119.666 262.274 121.009C261.039 122.044 260.258 123.515 259.539 124.963Z" fill="#F5F5F5"/>
<path d="M219.781 265.51C219.76 266.625 222.434 267.453 223.252 266.691C224.069 265.93 224.166 264.692 224.209 263.577C224.791 248.556 224.908 233.991 224.598 218.962L264.069 229.176L262.306 269.08C262.251 270.21 264.004 270.631 264.857 269.886C265.711 269.141 265.851 267.889 265.93 266.76C266.744 255.136 266.887 243.459 267.528 231.843C267.867 225.689 275.785 225.689 283.481 218.1C287.312 214.321 290.582 209.107 290.582 209.107C291.19 223.22 292.364 237.369 291.306 251.456C291.225 252.527 292.885 252.961 293.704 252.265C294.491 251.596 294.654 250.475 294.735 249.439L294.745 249.31C295.836 234.564 297.096 203.008 298.667 182.338C299.262 174.511 300.947 167.013 301.933 162.565C302.369 160.601 301.006 160.635 298.278 159.41C297.161 158.908 294.665 162.586 293.533 173.024L293.477 173.573C293.068 177.726 292.711 185.563 292.407 197.085C291.913 199.726 288.937 200.336 283.481 198.916L283.267 198.86C277.674 197.368 269.094 194.645 257.529 190.689L257.449 189.599C256.189 172.082 256.618 159.84 258.737 152.874L258.803 152.66C262.133 142.055 256.573 146.439 255.942 147.286C251.712 152.958 250.801 160.206 250.828 166.741L250.909 186.387C250.908 188.438 250.81 190.579 249.686 192.28C248.722 193.739 247.143 194.65 245.598 195.488L226.507 205.813C224.747 206.771 222.996 207.786 221.611 209.225C220.087 210.807 219.05 213.011 219.402 215.177C219.637 216.62 220.227 217.744 221.172 218.548L220.827 228.652C220.3 244.39 219.952 256.676 219.781 265.51Z" fill="#F5F5F5"/>
<path d="M126.485 266.443C126.507 267.559 124.766 267.92 123.948 267.158C123.131 266.397 123.034 265.159 122.991 264.044C122.409 249.023 121.826 233.992 122.135 218.963C108.953 222.907 95.7716 226.852 82.5898 230.797C83.2025 243.558 83.8152 256.319 84.4278 269.08C84.4821 270.211 82.7298 270.632 81.8759 269.886C81.0219 269.141 80.8819 267.889 80.8029 266.76C79.9898 255.136 79.4573 243.493 79.2058 231.843C79.1745 230.392 78.0259 229.241 76.9566 228.257C70.0215 221.874 63.0865 215.491 56.1514 209.108C55.5432 223.221 55.7691 237.369 56.8276 251.456C56.9081 252.527 55.2486 252.961 54.4293 252.265C53.61 251.569 53.4673 250.381 53.3881 249.31C51.6823 226.24 52.8391 203.03 51.1178 179.962C50.7041 174.417 50.105 168.802 48.0667 163.627C51.7163 162.779 94.3514 154.006 90.7394 148.46C95.6074 152.833 95.9325 160.207 95.9054 166.741C95.8789 173.154 95.8523 179.566 95.8257 185.978C95.8167 188.15 95.8482 190.466 97.047 192.28C98.0502 193.798 99.7178 194.722 101.32 195.589C107.446 198.902 113.573 202.214 119.699 205.527C121.632 206.572 123.599 207.643 125.123 209.225C126.646 210.807 127.683 213.011 127.331 215.177C126.979 217.342 124.921 219.262 122.741 218.97C125.051 219.461 124.828 218.941 125.561 218.548C125.869 234.513 126.177 250.478 126.485 266.443Z" fill="#F5F5F5"/>
<path d="M50.9039 167.707C50.2692 165.788 49.6346 163.869 49 161.949C49.884 162.17 81.3714 151.047 87.1627 149.366C87.7288 149.201 88.0493 149.127 88.0718 149.163C91.8732 155.174 91.9613 162.725 91.9297 169.836C91.9003 176.441 91.8709 183.045 91.8416 189.65C91.8351 191.104 91.542 192.95 90.1302 193.305C81.7765 195.407 73.5414 197.979 65.4769 201.006C63.0987 201.898 60.6123 202.847 58.0916 202.531C56.7665 202.366 55.5123 201.856 54.276 201.352C53.4738 201.025 52.5353 200.506 52.5376 199.64C52.5563 192.563 52.5751 185.485 52.5939 178.408C52.5989 176.532 52.603 174.645 52.2977 172.794C52.0112 171.058 51.4565 169.378 50.9039 167.707Z" fill="#F5F5F5"/>
<path fill-rule="evenodd" clip-rule="evenodd" d="M174.812 0.314898C174.592 0.375938 174.246 0.33442 174.28 0.109436C174.412 0.0421357 174.558 -0.0271132 174.701 0.0107313C174.843 0.0485759 174.936 0.254758 174.821 0.347485L174.812 0.314898Z" fill="#00160A"/>
<path fill-rule="evenodd" clip-rule="evenodd" d="M35.4693 147.972L39.7326 159.009C40.1428 160.071 40.5993 161.195 41.5292 161.856C43.0824 162.962 45.229 162.341 47.0043 161.642C50.6161 160.22 54.1588 158.632 57.7012 157.043C61.5501 155.318 65.3989 153.592 69.3361 152.08C76.897 149.176 84.9182 147.052 93.0139 147.418C94.3064 147.476 95.369 146.257 95.5982 144.989C95.8274 143.721 95.4392 142.433 95.0553 141.202L92.1606 131.927C91.1744 128.767 90.1387 125.514 87.9991 122.982C85.8594 120.45 82.31 118.797 79.1583 119.847L41.0173 132.563C36.5272 134.06 33.4787 138.995 34.1624 143.66C34.3806 145.149 34.9269 146.567 35.4693 147.972ZM85.8098 122.017C88.922 124.718 90.3975 128.79 91.6835 132.695C92.7853 136.042 93.8395 139.408 94.6411 142.838C94.8181 143.595 94.9826 144.387 94.7949 145.142C94.6072 145.896 93.9588 146.596 93.1782 146.579C85.5014 146.418 77.8944 148.201 70.6555 150.75C65.3541 152.617 60.2138 154.894 55.0736 157.171L55.0732 157.171L55.0728 157.171L55.0724 157.171L55.072 157.171L55.0716 157.172L55.0712 157.172L55.0708 157.172L55.0704 157.172L55.07 157.172L55.0696 157.172L55.0692 157.173L55.0688 157.173L55.0684 157.173L55.068 157.173L55.0676 157.173L55.0672 157.173L55.0668 157.174L55.0664 157.174L55.066 157.174L55.0656 157.174C53.1897 158.005 51.3139 158.836 49.4302 159.647C47.911 160.301 46.3671 160.947 44.732 161.203C43.4123 161.409 41.7079 161.105 41.3551 159.823C40.7404 157.587 39.8256 155.454 38.9101 153.319C38.3077 151.915 37.705 150.51 37.1874 149.074C35.8832 145.457 35.1339 141.433 36.3755 137.794C36.7601 136.667 37.3516 135.576 38.273 134.817C39.0898 134.144 40.1093 133.774 41.1073 133.418C53.4242 129.024 65.8267 124.869 78.3055 120.954C79.6695 120.526 81.0941 120.096 82.5069 120.317C83.7478 120.511 84.8629 121.196 85.8098 122.017ZM49 161.949L50.9038 167.707C51.4565 169.378 52.0111 171.057 52.2976 172.794C52.603 174.645 52.5988 176.531 52.5939 178.408L52.5376 199.64C52.5353 200.506 53.4738 201.024 54.276 201.352C55.5123 201.856 56.7665 202.365 58.0915 202.531C60.5821 202.843 63.0392 201.921 65.3915 201.038L65.4769 201.005C73.5414 197.979 81.7765 195.407 90.1301 193.305C91.542 192.95 91.8351 191.104 91.8416 189.649L91.9297 169.836C91.9613 162.725 91.8732 155.174 88.0718 149.162C87.8199 148.764 87.393 148.321 86.9574 148.501C89.0679 152.18 90.3879 156.309 90.8027 160.529C90.9934 162.471 90.9949 164.425 90.9962 166.376L91.0116 189.683C91.0124 190.858 90.7847 192.348 89.6472 192.644C82.424 194.523 75.1808 196.409 68.2306 199.129C67.9579 199.235 67.6842 199.344 67.4096 199.452L67.4061 199.453C63.9489 200.82 60.3411 202.245 56.7162 201.577C55.0098 201.263 53.1439 200.105 53.1778 198.371L53.4383 185.071C53.5772 177.98 53.6719 170.646 50.9168 164.109C50.5286 163.188 49.9704 162.191 49 161.949ZM93.3333 196.108C84.3068 197.62 75.4451 200.061 66.9436 203.376C65.5505 203.919 64.1672 204.486 62.784 205.052L60.8127 205.86C60.3652 205.42 61.0359 204.755 61.6143 204.497C71.1863 200.232 81.3583 197.241 91.7574 195.635C92.3492 195.544 93.1318 195.559 93.3333 196.108ZM80.2943 133.467C80.1929 133.951 80.3801 134.465 80.6922 134.843C81.0324 135.256 81.6119 135.541 82.0884 135.311C82.7537 134.989 82.7054 133.964 82.3123 133.326C82.0859 132.959 81.7414 132.621 81.3185 132.595C80.8361 132.564 80.3958 132.982 80.2943 133.467ZM81.7131 134.615C81.3694 134.769 80.9222 134.43 80.9641 134.048C81.0059 133.666 81.5149 133.438 81.8168 133.666C82.1188 133.894 82.0568 134.461 81.7131 134.615ZM60.626 140.978C60.1198 140.399 60.0128 139.341 60.5902 138.848C60.7018 138.753 60.8343 138.683 60.9751 138.665C61.2947 138.623 61.5901 138.846 61.8289 139.082C62.3591 139.604 62.7947 140.512 62.3482 141.12C61.9403 141.676 61.0766 141.493 60.626 140.978ZM61.5492 139.701C61.4277 139.575 61.2811 139.44 61.1153 139.466C60.7973 139.515 60.8045 140.032 60.9589 140.34C61.1331 140.686 61.5584 141.007 61.8231 140.737C62.0947 140.461 61.8187 139.98 61.5492 139.701ZM51.1671 143.026C50.8793 143.265 50.8437 143.676 50.8768 144.037C50.9156 144.46 51.0276 144.894 51.31 145.223C51.5924 145.552 52.0761 145.751 52.5006 145.618C52.9093 145.489 53.172 145.079 53.1975 144.671C53.223 144.263 53.0469 143.863 52.8018 143.527C52.4327 143.021 51.6551 142.621 51.1671 143.026ZM51.7229 143.675C51.9733 143.506 52.4202 143.788 52.2607 144.038L52.39 144.295C52.7126 144.333 52.6514 144.876 52.335 144.947C52.0186 145.017 51.7167 144.758 51.5895 144.474C51.4693 144.205 51.4724 143.844 51.7229 143.675ZM69.3313 128.423C69.6583 128.482 69.9908 128.593 70.2222 128.831C70.4536 129.068 70.5523 129.458 70.3778 129.74C70.227 129.983 69.9273 130.084 69.6484 130.152C69.2401 130.251 68.8051 130.316 68.4042 130.19C68.0033 130.065 67.6513 129.7 67.6672 129.281C67.6939 128.574 68.6323 128.296 69.3313 128.423ZM69.0623 129.137C68.7741 128.976 68.3549 129.158 68.277 129.478C68.761 129.769 69.4152 129.749 69.8808 129.43C69.7831 129.13 69.3797 128.979 69.108 129.14L69.0623 129.137ZM125.085 265.51L124.161 217.615C123.428 218.007 123.351 219.008 123.369 219.838L124.367 266.301C123.02 266.393 122.498 264.601 122.442 263.255C121.806 248.19 121.44 233.114 121.341 218.036C123.521 218.328 125.579 216.408 125.931 214.243C126.283 212.078 125.246 209.873 123.723 208.291C122.199 206.709 120.232 205.639 118.299 204.593L99.9202 194.655C98.3178 193.789 96.6502 192.864 95.647 191.346C94.4482 189.532 94.4168 187.217 94.4258 185.044L94.5054 165.808C94.5325 159.273 94.2074 151.9 89.3394 147.526C92.9514 153.072 93.8868 159.938 93.9125 166.551C93.9222 169.044 93.8161 171.538 93.71 174.031V174.031V174.031V174.032V174.032V174.032V174.032V174.032V174.032V174.032V174.032V174.032V174.032V174.033V174.033V174.033C93.5348 178.154 93.3596 182.273 93.7073 186.379C93.872 188.323 94.1829 190.335 95.2861 191.946C96.1739 193.243 97.5006 194.168 98.8316 195.006C101.989 196.995 105.348 198.671 108.703 200.344C113.964 202.968 119.212 205.586 123.651 209.395C124.772 210.357 125.606 212.544 124.179 212.931C109.945 216.784 95.8876 221.283 82.0638 226.409C80.994 226.806 79.8914 225.981 79.048 225.214L56.8537 205.028C56.053 204.3 54.6611 204.779 54.081 205.692C53.5008 206.605 53.5003 207.756 53.5186 208.836L54.237 251.396C52.735 249.95 52.5256 247.66 52.4247 245.58C51.9503 235.794 51.8394 225.992 51.7285 216.191C51.5682 202.022 51.408 187.856 50.1493 173.748C49.8 169.833 49.2541 165.658 46.6666 162.693C48.705 167.869 49.304 173.483 49.7178 179.028C50.5808 190.594 50.7203 202.195 50.8599 213.796V213.796C50.9987 225.334 51.1375 236.873 51.9881 248.376C52.0673 249.447 52.21 250.635 53.0293 251.331C53.8486 252.028 55.5081 251.593 55.4276 250.522C54.3691 236.436 54.1432 222.287 54.7514 208.174L75.5566 227.323C76.6259 228.308 77.7745 229.459 77.8058 230.91C78.0573 242.559 78.5898 254.203 79.4029 265.827C79.4819 266.956 79.6219 268.207 80.4759 268.953C81.3298 269.698 83.0821 269.277 83.0278 268.146L81.1898 229.864L120.735 218.029C120.426 233.058 121.009 248.09 121.591 263.111C121.634 264.225 121.731 265.463 122.548 266.225C123.366 266.986 125.107 266.625 125.085 265.51ZM77.753 228.583L55.2225 207.192C54.8379 206.827 54.4219 206.284 54.688 205.826C55.0434 205.214 55.9816 205.644 56.5066 206.12L80.429 227.8C95.0306 222.583 109.813 217.869 124.74 213.67C125.148 214.229 124.92 215.062 124.424 215.545C123.927 216.027 123.238 216.245 122.575 216.447L81.8759 228.857C81.3634 229.014 80.8057 229.204 80.5295 229.662C80.3124 230.022 80.3206 230.469 80.3363 230.889C80.5065 235.425 80.7954 239.958 81.0842 244.49L81.0842 244.49C81.6102 252.744 82.136 260.995 81.9449 269.258C79.4889 264.951 79.3368 259.759 79.2469 254.804L78.8392 232.341C78.8149 231.001 78.7267 229.507 77.753 228.583ZM49.5745 137.587C49.4125 137.689 49.217 137.725 49.0262 137.726C48.4499 137.73 47.8581 137.386 47.6607 136.835C47.4634 136.285 47.7632 135.573 48.3206 135.424C48.749 135.309 49.2071 135.527 49.5194 135.846C49.9821 136.32 50.1319 137.234 49.5745 137.587ZM48.7816 136.11C48.4174 136.021 48.1818 136.609 48.4313 136.893C48.6808 137.178 49.1404 137.149 49.47 136.967L48.7925 136.124L48.7816 136.11ZM87.5134 128.417L86.6325 127.741C86.4571 127.606 86.268 127.466 86.0536 127.46C85.6937 127.449 85.4051 127.85 85.4001 128.242C85.3951 128.635 85.606 128.996 85.8643 129.27C86.2269 129.654 86.7641 129.921 87.2385 129.73C87.7128 129.538 87.927 128.734 87.5134 128.417ZM85.9554 128.432C86.046 128.212 86.3807 128.194 86.4912 128.402L86.5384 128.445C86.8952 128.484 87.1795 128.892 87.1193 129.278C86.6494 129.178 86.2204 128.866 85.9554 128.432ZM72.0471 144.329C71.9072 144.063 71.815 143.746 71.8982 143.454C72.0691 142.855 72.8709 142.723 73.4083 142.994C74.0974 143.342 74.4956 144.416 73.9325 144.959C73.3726 145.499 72.4136 145.028 72.0471 144.329ZM72.8714 144.349L73.3988 144.593C73.6479 144.374 73.6181 143.899 73.3437 143.715C73.0693 143.532 72.6461 143.705 72.5622 144.035L72.8711 144.348L72.8714 144.349ZM73.6572 137.629C73.8741 137.134 73.6027 136.558 73.1563 136.196C72.8954 135.985 72.5471 135.822 72.1941 135.867C71.6801 135.932 71.3535 136.434 71.4054 136.882C71.4572 137.331 71.7933 137.718 72.1735 138.025C72.6203 138.386 73.4403 138.125 73.6572 137.629ZM72.6308 136.56C72.8255 136.657 72.9322 136.846 73.0146 137.027L72.9893 137.106C73.2868 137.193 73.0389 137.646 72.7281 137.607C72.4173 137.567 72.2387 137.285 72.12 137.033C72.0693 136.925 72.02 136.805 72.0626 136.695C72.1337 136.51 72.4361 136.463 72.6308 136.56ZM82.3704 143.52C82.1243 143.127 82.02 142.568 82.3036 142.205C82.7426 141.642 83.63 142.021 84.0938 142.562C84.2735 142.771 84.4393 143.016 84.4638 143.297C84.5077 143.801 84.0393 144.246 83.559 144.259C83.0786 144.273 82.6349 143.943 82.3704 143.52ZM83.5203 142.958L83.06 142.627C82.8719 142.807 82.8355 143.138 82.9795 143.359C83.1234 143.58 83.4294 143.664 83.6571 143.544C83.815 143.379 83.7263 143.042 83.5102 142.986L83.5203 142.958ZM78.0595 125.381C77.9341 125.551 77.9224 125.769 77.9395 125.974C77.9804 126.462 78.1858 126.966 78.6211 127.256C79.0564 127.546 79.7486 127.539 80.0808 127.153C80.5081 126.656 80.1337 125.912 79.613 125.495C79.1705 125.14 78.3873 124.935 78.0595 125.381ZM78.7928 125.903C79.0102 125.751 79.4134 125.949 79.3255 126.185L79.4685 126.223C79.5885 126.448 79.5846 126.725 79.4584 126.948C79.1981 126.869 78.9287 126.77 78.7609 126.573C78.5932 126.377 78.5754 126.055 78.7928 125.903ZM40.246 138.09C40.5629 137.598 41.3499 137.654 41.8534 137.969C42.3387 138.272 42.6946 138.967 42.2923 139.368C42.0879 139.572 41.7638 139.61 41.4713 139.587C41.077 139.557 40.6742 139.427 40.4048 139.147C40.1355 138.866 40.0369 138.415 40.246 138.09ZM41.3085 138.361L40.8081 138.601C41.0029 138.921 41.4349 139.085 41.8027 138.979C41.8542 138.711 41.6184 138.427 41.3373 138.418L41.3085 138.361ZM57.8263 132.855C58.2573 133.155 58.8539 133.102 59.3106 132.845C59.4832 132.748 59.6507 132.612 59.7101 132.419C59.8218 132.056 59.5101 131.705 59.1975 131.502C58.7074 131.183 57.993 131.024 57.5974 131.46C57.2421 131.852 57.3954 132.554 57.8263 132.855ZM58.0087 132.097C57.9847 131.88 58.2841 131.691 58.4253 131.853L58.4525 131.801C58.7041 131.797 58.9516 131.955 59.0596 132.189C58.8805 132.305 58.6912 132.425 58.4798 132.437C58.2685 132.45 58.0327 132.313 58.0087 132.097ZM54.0591 150.949C54.4928 150.644 55.1778 150.805 55.431 151.271C55.6841 151.737 55.446 152.399 54.954 152.597C54.5293 152.768 53.9913 152.575 53.7728 152.172C53.5542 151.77 53.6846 151.213 54.0591 150.949ZM54.8922 152.055C54.9947 151.705 54.6628 151.305 54.3002 151.341C54.2033 151.698 54.5045 152.106 54.8745 152.118L54.8922 152.055ZM46.4412 154.179C46.2326 154.355 46.1861 154.686 46.2032 154.979C46.2504 155.787 46.9447 156.657 47.5988 156.318C47.9746 156.123 48.144 155.579 48.0332 155.131C47.9223 154.683 47.583 154.338 47.2005 154.161C46.9555 154.047 46.6531 154 46.4412 154.179ZM47.2388 154.914C47.4618 154.978 47.5649 155.335 47.4178 155.534L47.5723 155.736C47.2713 155.788 46.8767 155.698 46.8179 155.362C46.7735 155.108 47.0158 154.851 47.2388 154.914ZM45.0437 148.613C44.9497 148.717 44.8319 148.801 44.7016 148.855C44.4697 148.951 44.1989 148.95 43.9673 148.853C43.4777 148.648 43.2488 147.987 43.5078 147.527C43.7668 147.066 44.4536 146.913 44.8864 147.219C45.3192 147.525 45.3976 148.219 45.0437 148.613ZM44.5566 148.5C44.8608 148.275 44.6554 147.685 44.2763 147.695C44.1072 147.797 43.9795 147.964 43.9268 148.153C44.1007 148.314 44.3176 148.429 44.5492 148.483L44.5566 148.5ZM91.4477 141.087C91.3269 140.669 91.128 140.18 90.6438 140.076C90.1242 139.965 89.6305 140.429 89.6016 140.89C89.5724 141.355 89.9439 141.844 90.4766 141.918C91.0093 141.993 91.5784 141.539 91.4477 141.087ZM90.6892 140.946C90.8444 141.125 90.6304 141.43 90.3746 141.394L90.4045 141.306C90.238 141.269 90.1522 141.073 90.249 140.95C90.3459 140.828 90.5887 140.825 90.6892 140.946ZM87.75 134.209C87.626 133.612 88.2129 132.983 88.8162 133.067C89.5048 133.163 89.8569 134.159 89.3821 134.667C88.9072 135.176 87.8916 134.89 87.75 134.209ZM88.5842 134.481C88.8479 134.543 89.1411 134.3 89.1133 134.03C89.0856 133.76 88.7261 133.585 88.5051 133.741C88.2842 133.898 88.348 134.314 88.6097 134.383L88.5842 134.481ZM65.2956 146.322C65.2347 146.111 65.1026 145.923 64.9279 145.798C64.3429 145.382 63.3972 145.969 63.4707 146.703C63.5441 147.436 64.5858 147.808 65.0757 147.275C65.3031 147.027 65.3902 146.649 65.2956 146.322ZM64.1223 146.804C64.0631 146.58 64.2957 146.334 64.5119 146.393C64.7281 146.452 64.8157 146.784 64.6587 146.95C64.5016 147.115 64.1815 147.028 64.1223 146.804Z" fill="#00160A"/>
<path fill-rule="evenodd" clip-rule="evenodd" d="M270.35 123.847C270.45 123.921 270.515 124.024 270.564 124.128C270.786 124.602 270.65 125.223 270.143 125.491C269.637 125.759 268.821 125.472 268.8 124.962C268.794 124.799 268.861 124.641 268.937 124.491C269.062 124.246 269.223 124.002 269.481 123.851C269.739 123.701 270.115 123.672 270.35 123.847ZM270.013 124.612C270.168 124.569 270.119 124.321 269.956 124.325C269.537 124.434 269.341 124.936 269.6 125.24C269.807 125.073 269.952 124.85 270.012 124.611L270.013 124.612ZM289.364 132.08C289.749 132.22 290.181 132.021 290.499 131.775C290.848 131.506 291.152 131.145 291.196 130.724C291.239 130.304 290.935 129.836 290.484 129.796C290.168 129.768 289.874 129.942 289.628 130.131C289.3 130.383 288.994 130.694 288.894 131.08C288.795 131.466 288.968 131.935 289.364 132.08ZM290.79 130.622L289.918 131.433L289.901 131.462L289.563 131.238C289.67 130.987 289.788 130.723 290.02 130.561C290.252 130.399 290.635 130.394 290.79 130.622ZM298.871 136.616C298.529 136.275 298.67 135.669 298.908 135.241C299.08 134.932 299.307 134.632 299.626 134.508C299.944 134.384 300.367 134.503 300.493 134.835C300.571 135.043 300.522 135.277 300.465 135.492C300.36 135.885 300.218 136.288 299.926 136.554C299.634 136.821 299.151 136.896 298.871 136.616ZM300.033 135.428C300.067 135.359 300.097 135.282 300.084 135.205C300.071 135.125 300.009 135.057 299.933 135.041C299.453 135.183 299.125 135.75 299.224 136.265C299.57 136.088 299.858 135.789 300.033 135.428ZM295.686 144.592C296.196 144.986 296.92 144.445 297.231 143.887C297.441 143.511 297.598 143.107 297.697 142.69C297.758 142.433 297.765 142.1 297.528 141.973C297.413 141.912 297.273 141.921 297.144 141.944C296.283 142.097 295.558 142.819 295.42 143.664C295.365 143.997 295.416 144.383 295.686 144.592ZM297.106 142.749C297.148 142.877 297.057 143.007 296.97 143.113L296.098 144.178C295.948 143.55 296.33 142.842 296.946 142.609C297.019 142.623 297.083 142.679 297.106 142.749ZM221.382 209.277C220.912 210.399 221.368 211.985 222.557 212.255C234.63 214.993 246.551 218.401 258.244 222.459C262.119 223.804 266.433 225.214 270.197 223.587C271.659 222.955 272.897 221.91 274.11 220.879L286.768 210.136C282.525 215.821 277.275 220.756 271.335 224.647C269.914 225.578 268.409 226.466 266.734 226.756C264.649 227.117 262.53 226.516 260.5 225.922L224.957 215.515C223.536 215.099 221.758 213.736 222.665 212.569C221.491 213.002 221.577 214.667 221.884 215.876L260.335 227.079C262.157 227.61 264.046 228.146 265.926 227.885C267.793 227.625 269.455 226.604 271.036 225.579C277.76 221.214 284.347 216.09 288.071 209.004C288.18 208.797 288.288 208.586 288.397 208.374L288.397 208.374C289.372 206.481 290.409 204.465 292.372 203.741C292.711 219.64 292.458 235.553 291.615 251.434C291.558 252.499 293.229 252.878 294.013 252.153C294.798 251.428 294.886 250.242 294.921 249.176L296.97 187.673C297.257 179.028 297.619 170.078 301.467 162.325C296.942 169.38 296.541 178.211 296.276 186.581L294.326 248.221C294.278 249.749 294.018 251.601 292.603 252.19L293.351 203.037C290.961 202.821 289.253 205.157 287.835 207.096L287.809 207.132C283.694 212.758 277.915 216.912 272.237 220.967C269.845 222.676 266.919 224.47 264.153 223.469C250.359 218.476 236.293 214.23 222.038 210.755C223.865 208.066 226.591 206.13 229.334 204.378C234.252 201.235 239.422 198.484 244.778 196.158L245.021 196.053L245.144 195.999L245.15 195.997L245.153 195.996C247.635 194.921 250.219 193.803 251.86 191.673C254.066 188.807 254.015 184.87 253.922 181.258C253.795 176.297 253.778 171.333 253.87 166.371C253.997 159.604 254.392 152.587 257.545 146.593C253.898 149.799 253.54 155.246 253.447 160.093L252.988 183.856C252.931 186.823 252.717 190.151 250.499 192.131C249.665 192.875 248.627 193.343 247.606 193.802L247.606 193.802L247.535 193.834C239.349 197.52 231.452 201.842 223.939 206.749C222.919 207.415 221.852 208.155 221.382 209.277ZM264.562 268.82C264 269.307 262.82 269.044 262.86 268.32C263.581 255.163 264.38 242.011 265.257 228.862C264.868 228.612 264.517 229.233 264.489 229.681L262.375 263.609C262.265 265.382 262.156 267.177 262.498 268.923C262.695 269.93 264.324 270.06 265.074 269.328C265.824 268.596 265.919 267.474 265.97 266.45L267.865 228.838C267.889 228.36 267.662 227.675 267.182 227.811L265.234 266.804C265.198 267.528 265.124 268.333 264.562 268.82ZM225.867 217.548L224.375 262.714C224.343 263.692 222.837 264.032 222.053 263.42C221.268 262.809 221.068 261.742 220.963 260.768C220.473 256.233 220.862 251.665 221.25 247.113L221.25 247.112C221.31 246.408 221.369 245.705 221.426 245.002C222.154 235.961 222.338 226.879 221.978 217.818C221.967 217.554 222.387 217.46 222.589 217.636C222.791 217.811 222.821 218.103 222.836 218.367C223.357 227.141 222.746 235.92 222.136 244.699L222.136 244.699C221.899 248.097 221.663 251.494 221.492 254.891C221.376 257.207 221.294 259.564 221.898 261.806C222.018 262.247 222.192 262.72 222.594 262.956C222.995 263.192 223.66 262.992 223.676 262.536L225.137 218.518C225.153 218.049 225.41 217.4 225.867 217.548ZM304.197 146.147C304.294 146.124 304.399 146.112 304.489 146.157C304.637 146.229 304.7 146.422 304.721 146.599C304.819 147.399 304.311 148.234 303.606 148.433C303.305 148.518 302.885 148.401 302.869 148.057C302.827 147.183 303.423 146.324 304.197 146.147ZM304.107 147.28C304.247 147.144 304.308 146.917 304.258 146.718C303.789 146.834 303.417 147.323 303.394 147.855C303.693 147.802 303.964 147.585 304.104 147.288L304.107 147.28ZM276.122 142.515C276.036 142.361 275.915 142.227 275.77 142.125C275.273 141.775 274.506 141.902 274.146 142.394C273.786 142.886 273.896 143.659 274.377 144.031C274.859 144.403 275.631 144.31 276.012 143.835C276.305 143.47 276.35 142.924 276.122 142.515ZM275.283 143.594C274.933 143.648 274.605 143.237 274.734 142.906C274.863 142.575 275.381 142.495 275.602 142.773C275.823 143.051 275.633 143.541 275.283 143.594ZM301.694 152.722C301.811 152.781 301.914 152.89 301.931 153.026C301.943 153.122 301.911 153.218 301.88 153.309L301.711 153.801C301.598 154.133 301.477 154.477 301.24 154.724C301.003 154.971 300.613 155.089 300.334 154.899C299.851 154.571 300.102 153.764 300.465 153.292C300.77 152.894 301.257 152.505 301.694 152.722ZM301.084 153.985C301.261 153.82 301.328 153.535 301.247 153.3C300.766 153.444 300.478 154.084 300.675 154.575L301.1 154.004L301.084 153.985ZM284.986 144.591C284.947 144.503 284.899 144.416 284.826 144.354C284.59 144.156 284.231 144.302 283.987 144.49C283.673 144.731 283.395 145.048 283.298 145.435C283.202 145.822 283.328 146.283 283.666 146.49C284.253 146.848 285.023 146.213 285.118 145.526C285.161 145.21 285.115 144.882 284.986 144.591ZM284.005 146.016C283.777 145.924 283.744 145.545 283.953 145.414L283.949 145.415L284.477 144.897C284.679 145.31 284.44 145.877 284.005 146.016ZM265.73 141.652C265.611 141.773 265.461 141.86 265.298 141.902C264.632 142.076 263.938 141.28 264.184 140.625C264.431 139.97 265.469 139.854 265.85 140.438C266.09 140.805 266.037 141.341 265.73 141.652ZM265.191 140.65C264.972 140.609 264.741 140.803 264.739 141.03C264.737 141.257 264.963 141.456 265.183 141.42C265.418 141.211 265.453 140.807 265.257 140.559L265.191 140.65ZM307.655 139.528C308.146 139.272 308.364 138.607 308.459 137.994C308.545 137.448 307.873 137.092 307.443 137.34C307.014 137.588 306.806 138.15 306.632 138.668C306.438 139.248 307.163 139.783 307.655 139.528ZM307.762 137.857C307.953 137.912 307.999 138.269 307.831 138.387L307.831 138.382C307.816 138.687 307.535 138.936 307.276 138.873C307.287 138.472 307.474 138.082 307.762 137.857ZM286.805 140.06C286.309 140.058 285.969 139.394 286.092 138.857C286.214 138.319 286.66 137.942 287.127 137.757C287.462 137.624 287.837 137.949 287.913 138.337C287.989 138.725 287.84 139.127 287.637 139.453C287.44 139.769 287.15 140.061 286.805 140.06ZM287.352 138.894L287.408 138.474C286.952 138.388 286.497 138.916 286.591 139.422C286.684 139.495 286.806 139.522 286.918 139.495C287.007 139.262 287.148 139.055 287.325 138.897L287.352 138.894ZM276.125 136.793C276.644 136.803 277.006 136.359 277.139 135.943C277.242 135.622 277.242 135.222 276.92 135.025C276.561 134.805 276.033 134.985 275.733 135.259C275.466 135.503 275.289 135.833 275.343 136.159C275.398 136.485 275.729 136.785 276.125 136.793ZM276.341 135.487C276.546 135.425 276.746 135.692 276.588 135.816L276.574 135.795C276.496 135.984 276.342 136.151 276.144 136.263C275.941 136.02 276.037 135.642 276.341 135.487ZM295.382 149.869C295.399 149.783 295.413 149.692 295.381 149.611C295.332 149.486 295.191 149.422 295.058 149.403C294.484 149.318 293.985 149.812 293.716 150.326C293.479 150.779 293.414 151.472 293.884 151.679C294.334 151.878 294.795 151.415 295.011 150.974C295.181 150.624 295.307 150.251 295.382 149.869ZM294.302 150.623C294.215 150.472 294.302 150.251 294.468 150.199L294.451 150.213C294.574 150.201 294.664 150.36 294.615 150.474C294.566 150.588 294.425 150.64 294.302 150.623ZM280.38 128.736C280.102 128.995 279.793 129.232 279.436 129.323C279.325 129.351 279.24 129.217 279.2 129.101C278.976 128.464 279.01 127.651 279.489 127.208C279.968 126.765 280.906 127.042 280.933 127.723C280.948 128.129 280.665 128.472 280.38 128.736ZM280.263 127.596C279.835 127.565 279.533 128.141 279.661 128.585C280.042 128.466 280.321 128.041 280.299 127.613L280.263 127.596ZM267.865 131.881C267.845 131.55 267.617 131.214 267.307 131.194C267.055 131.178 266.829 131.368 266.684 131.588C266.457 131.932 266.376 132.422 266.597 132.77C266.817 133.118 267.388 133.176 267.588 132.814C267.746 132.529 267.884 132.212 267.865 131.881ZM267.001 132.661L266.963 132.215L266.97 132.21C267.03 132.017 267.154 131.848 267.316 131.74C267.472 132.067 267.318 132.518 267.001 132.661ZM257.959 138.485C258.174 138.842 258.034 139.326 257.833 139.694C257.765 139.819 257.685 139.945 257.567 140.012C257.316 140.153 257.004 139.963 256.843 139.708C256.608 139.332 256.597 138.776 256.878 138.44C257.159 138.104 257.73 138.104 257.959 138.485ZM257.179 139.047C257.179 139.177 257.321 139.279 257.429 139.227C257.537 139.174 257.565 138.989 257.477 138.902C257.386 138.834 257.239 138.929 257.25 139.049L257.179 139.047ZM260.136 132.126C260.593 132.145 260.982 131.622 260.835 131.187C260.8 131.082 260.74 130.986 260.661 130.908C260.335 130.586 259.698 130.711 259.516 131.133C259.334 131.555 259.68 132.107 260.136 132.126ZM260.242 131.171C260.447 131.175 260.312 131.558 260.111 131.517L260.114 131.525C260.035 131.403 260.104 131.213 260.242 131.171Z" fill="#00160A"/>
<path fill-rule="evenodd" clip-rule="evenodd" d="M304.54 130.396C307.03 131.247 309.622 132.161 311.443 134.072C313.724 136.467 314.38 140.071 313.936 143.36C313.492 146.648 312.086 149.715 310.696 152.724C309.126 156.125 307.556 159.526 305.986 162.927C300.81 160.419 296.358 156.633 291.408 153.699C280.607 147.298 267.705 145.164 255.187 145.754C254.134 145.804 252.765 145.654 252.506 144.625C252.429 144.318 252.48 143.996 252.533 143.684C253.742 136.653 256.094 129.823 259.468 123.548C259.968 122.618 260.498 121.69 261.226 120.927C262.906 119.166 265.472 118.497 267.894 118.604C270.317 118.711 272.651 119.503 274.947 120.288C284.812 123.657 294.676 127.027 304.54 130.396ZM259.539 124.963C256.599 130.882 254.141 137.155 253.463 143.739C253.434 144.023 253.412 144.326 253.543 144.578C253.81 145.089 254.513 145.115 255.085 145.077C268.325 144.205 282.009 146.81 293.242 153.925C297.082 156.356 300.609 159.287 304.591 161.474C304.766 161.57 304.966 161.668 305.158 161.612C305.352 161.555 305.469 161.362 305.566 161.184C307.986 156.785 310.129 152.232 311.98 147.561C312.635 145.905 313.26 144.209 313.423 142.433C313.832 137.964 310.891 133.403 306.672 131.963C295.857 128.271 285.042 124.579 274.227 120.887C272.251 120.212 270.247 119.531 268.165 119.381C266.083 119.23 263.879 119.666 262.274 121.009C261.039 122.044 260.258 123.515 259.539 124.963Z" fill="#00160A"/>
<path fill-rule="evenodd" clip-rule="evenodd" d="M171.661 152.71C171.025 153.067 170.198 152.515 169.957 151.831C169.769 151.299 169.812 150.727 169.855 150.158C169.867 149.997 169.879 149.836 169.886 149.676C169.951 148.164 169.53 146.694 169.111 145.228C168.98 144.771 168.85 144.315 168.734 143.858C166.809 136.255 169.231 127.722 174.874 122.228C175.597 123.603 177.525 123.965 178.993 123.429C180.461 122.893 181.57 121.702 182.612 120.546C183.654 119.39 184.745 118.189 186.2 117.62C185.111 117.434 183.978 117.509 182.923 117.836C182.761 116.358 181.199 115.184 179.719 115.428C178.708 115.595 177.907 114.649 177.278 113.848C176.649 113.047 175.643 112.211 174.717 112.645C175.907 113.358 175.812 115.111 175.31 116.397C175.219 116.631 175.119 116.867 175.018 117.105C174.565 118.168 174.102 119.257 174.383 120.349C174.651 121.388 173.803 122.347 173.076 123.141C168.995 127.598 166.8 133.7 167.117 139.71C165.917 138.095 164.392 136.718 162.658 135.683C162.334 135.491 162.001 135.307 161.667 135.123C160.483 134.47 159.291 133.814 158.52 132.732C157.61 131.455 155.926 130.903 154.35 130.95C152.773 130.998 151.264 131.554 149.787 132.103C149.377 132.255 148.899 132.493 148.868 132.926C148.845 133.248 149.092 133.523 149.336 133.738C151.665 135.799 155.298 136.264 158.079 134.857C159.091 134.344 160.317 134.837 161.286 135.426C166.913 138.844 170.066 145.853 168.87 152.285C167.931 152.636 166.922 152.589 165.908 152.542C165.35 152.516 164.79 152.491 164.24 152.531C162.689 152.644 160.914 153.768 161.186 155.285C161.816 158.801 162.446 162.415 161.749 165.919C161.547 166.936 161.236 167.925 160.924 168.915C160.7 169.628 160.476 170.341 160.292 171.065C159.832 172.88 159.628 174.759 159.691 176.629C159.707 177.13 159.749 177.651 160.001 178.087C160.372 178.729 161.117 179.052 161.825 179.287C164.111 180.047 166.555 180.335 168.957 180.128C170.773 179.971 172.819 179.329 173.508 177.657C173.944 176.601 173.714 175.406 173.494 174.287C172.448 168.968 171.783 163.336 173.617 158.231C173.68 158.055 173.746 157.879 173.813 157.701C174.205 156.658 174.605 155.591 174.434 154.504C174.235 153.233 172.79 152.076 171.661 152.71ZM166.616 168.815L165.149 171.932C164.977 172.298 164.872 172.853 165.252 173.001C166.273 171.575 167 169.943 167.373 168.234C167.51 167.605 168.079 167.138 168.697 166.94C169.315 166.742 169.981 166.768 170.629 166.809C170.992 166.833 171.394 166.878 171.638 167.146C171.832 167.358 171.878 167.661 171.916 167.945L172.933 175.53C173.023 176.197 173.108 176.899 172.853 177.522C172.421 178.575 171.187 179.04 170.061 179.259C167.295 179.797 164.375 179.53 161.755 178.5C161.385 178.355 161.006 178.184 160.756 177.877C160.423 177.469 160.382 176.904 160.375 176.378C160.331 172.976 161.112 169.567 162.634 166.517L166.184 167.804C166.401 167.883 166.641 167.983 166.724 168.196C166.802 168.397 166.708 168.62 166.616 168.815ZM166.904 167.009C166.67 167.276 166.224 167.395 165.952 167.165C165.028 166.382 163.745 166.033 162.546 166.237C162.976 163.699 162.657 161.134 162.338 158.564C162.186 157.339 162.034 156.113 161.962 154.888C161.954 154.745 161.95 154.59 162.033 154.472C162.169 154.28 162.454 154.289 162.689 154.318L168.283 155.014C168.474 155.038 168.673 155.064 168.837 155.164C169.3 155.448 169.252 156.119 169.147 156.648L167.285 166.03C167.216 166.377 167.138 166.741 166.904 167.009ZM168.223 164.795C169.066 161.563 169.641 158.262 169.938 154.936C171.308 155.161 172.758 154.872 173.934 154.14C173.699 155.239 173.406 156.332 173.112 157.425C172.415 160.022 171.718 162.617 171.813 165.286L171.814 165.31C171.822 165.536 171.831 165.77 171.737 165.976C171.641 166.189 171.395 166.357 171.171 166.282C170.129 165.931 168.92 166.117 168.034 166.764C167.876 166.123 168.051 165.454 168.218 164.815L168.223 164.795ZM175.529 121.692C174.937 120.825 174.815 119.685 175.11 118.68C175.248 118.21 175.471 117.75 175.693 117.292C176.137 116.375 176.576 115.469 176.31 114.525C176.233 114.253 176.143 113.875 176.402 113.758C177.433 114.646 178.11 115.925 178.262 117.27C178.306 117.662 178.3 118.087 178.082 118.418C177.868 118.742 177.504 118.907 177.141 119.072C177.014 119.13 176.886 119.188 176.766 119.252C176.301 119.501 175.873 120.055 176.133 120.51C178.367 118.881 181.23 118.121 183.988 118.426C183.249 118.891 182.57 119.449 181.971 120.082C181.763 120.302 181.559 120.534 181.353 120.768C180.463 121.779 179.549 122.817 178.248 122.978C177.199 123.107 176.121 122.559 175.529 121.692ZM154.119 131.595C155.773 131.513 157.662 132.509 158.412 133.558L156.645 134.612C154.67 135.427 153.702 135.123 153.246 134.98C153.222 134.972 153.199 134.965 153.178 134.959C151.833 134.549 150.558 133.914 149.425 133.087C150.909 132.361 152.466 131.677 154.119 131.595ZM181.983 117.556C181.9 117.669 181.751 117.708 181.614 117.74L179.347 118.263C179.238 118.288 179.122 118.313 179.016 118.277C178.737 118.18 178.757 117.78 178.867 117.507C178.977 117.235 179.111 116.895 178.911 116.678C178.67 116.415 179.12 116.065 179.478 116.038C180.324 115.974 181.192 116.293 181.792 116.888C181.973 117.067 182.134 117.352 181.983 117.556ZM169.111 153.691C169.303 153.91 169.191 154.358 168.899 154.343C167.104 154.246 165.319 153.974 163.579 153.532C165.118 153.172 166.726 153.291 168.303 153.412C168.595 153.434 168.919 153.472 169.111 153.691ZM173.142 153.498C173.221 153.677 173.111 153.913 172.922 153.969C171.989 154.247 171.022 154.414 170.049 154.465C169.799 154.302 169.873 153.887 170.111 153.708C170.35 153.53 170.673 153.52 170.972 153.517L173.142 153.498ZM177.752 170.797C191.31 170.898 205.571 171.185 217.29 178.099C218.415 178.763 218.429 180.529 217.644 181.581C216.859 182.634 215.565 183.137 214.331 183.554C210.435 184.867 206.421 185.822 202.356 186.401C198.511 186.948 194.629 187.16 190.751 187.335C168.123 188.356 145.162 188.104 123.239 182.329C123.149 181.525 123.864 180.886 124.519 180.425C134.512 173.389 147.003 171.333 159.028 169.46C146.438 169.859 133.959 173.45 123.039 179.816C121.628 180.639 120.034 181.996 120.475 183.585C120.837 184.892 122.357 185.409 123.663 185.712C145.831 190.865 168.784 192.532 191.451 190.633C194.307 190.394 197.159 190.099 200.008 189.776C207.338 188.944 215.039 187.768 220.833 183.14C221.329 182.744 221.827 182.295 222.032 181.69C222.575 180.078 220.836 178.678 219.329 177.925C206.543 171.535 191.9 169.025 177.752 170.797ZM220.775 179.761C221.498 180.679 221.5 182.276 220.482 182.84C217.163 184.678 213.793 186.511 210.135 187.484C208.198 187.999 206.208 188.266 204.222 188.52C200.365 189.014 196.503 189.466 192.631 189.815C169.173 191.929 145.382 190.202 122.46 184.724C121.391 184.468 120.93 183.029 121.375 182.011C121.725 181.211 122.454 180.665 123.266 180.33C122.702 180.801 122.551 181.889 123.026 182.555C123.657 183.44 124.816 183.714 125.874 183.92C138.399 186.358 151.075 188.182 163.825 188.473C167.912 188.566 172.001 188.501 176.089 188.436C188.145 188.246 200.324 188.04 212.03 185.106C214.397 184.512 216.878 183.719 218.457 181.836C218.757 181.477 219.026 181.067 219.093 180.602C219.237 179.621 218.48 178.765 217.781 178.072C218.884 178.436 220.051 178.843 220.775 179.761ZM123.944 180.101C123.679 180.087 123.45 180.175 123.266 180.33C123.488 180.238 123.716 180.162 123.944 180.101ZM124.678 179.717C124.494 179.759 124.276 179.539 124.39 179.387L124.484 179.485C124.568 179.26 124.893 179.174 125.074 179.33C124.978 179.495 124.862 179.675 124.678 179.717ZM201.419 264.292C202.401 267.397 204.805 270.311 207.995 270.717C209.149 270.864 210.016 269.169 209.233 268.297C208.451 267.424 206.705 268.141 206.741 269.32C204.736 268.523 203.331 266.599 202.622 264.536C201.913 262.473 201.802 260.255 201.698 258.073L201.276 249.215C201.135 246.24 200.871 242.973 198.798 240.865C198.348 240.407 197.828 240.024 197.309 239.642C196.645 239.153 195.982 238.666 195.468 238.022C194.265 236.515 194.09 234.439 194.03 232.5C193.697 221.831 195.327 211.102 198.811 201.03C199.039 200.37 199.276 199.711 199.512 199.052C200.467 196.395 201.423 193.733 201.849 190.945C201.313 190.807 200.939 191.465 200.769 192L197.333 202.789C196.437 205.605 195.54 208.423 194.873 211.303C193.305 218.071 193.032 225.069 192.766 232.015C192.702 233.693 192.655 235.458 193.414 236.95C193.963 238.029 194.866 238.837 195.773 239.648C196.431 240.236 197.092 240.827 197.621 241.525C198.791 243.067 199.251 245.034 199.586 246.95C200.028 249.476 200.305 252.031 200.415 254.594C200.442 255.217 200.459 255.843 200.477 256.469C200.55 259.119 200.624 261.78 201.419 264.292ZM207.503 268.967C207.6 268.594 208.164 268.461 208.404 268.76L208.469 268.705C208.707 269.006 208.545 269.536 208.178 269.636C207.811 269.736 207.405 269.34 207.503 268.967ZM133.948 273.407C133.791 272.406 134.954 271.751 135.931 271.553L136.05 271.529C137.002 271.338 138.109 271.116 138.461 270.211C139.879 266.573 139.954 262.555 140.028 258.56C140.117 253.824 140.204 249.122 142.53 245.13C143.645 243.216 145.212 241.611 146.894 240.19C147.023 240.081 147.153 239.972 147.284 239.863C148.647 238.723 150.075 237.53 150.554 235.823C150.821 234.87 150.756 233.857 150.689 232.868L149.391 213.741C149.225 211.299 149.059 208.855 148.73 206.431C148.056 201.463 146.702 196.615 145.139 191.86C146.37 192.566 146.926 194.046 147.335 195.423C149.696 203.369 150.246 211.737 150.782 220.02L151.621 232.993C151.775 235.365 151.645 238.284 149.57 239.375C146.277 241.109 143.658 244.129 142.376 247.67C141.147 251.067 141.146 254.739 141.144 258.386V258.386C141.144 259.212 141.144 260.037 141.129 260.857C141.05 265.296 140.384 270.067 137.393 273.298C136.9 273.831 136.311 274.331 135.601 274.442C134.891 274.553 134.06 274.129 133.948 273.407ZM134.603 273.381C134.568 273.592 134.779 273.778 134.988 273.793C135.198 273.808 135.396 273.703 135.576 273.594C136.153 273.243 136.685 272.817 137.155 272.329C136.789 272.049 136.268 272.058 135.847 272.241C135.427 272.425 135.088 272.757 134.775 273.097C134.699 273.18 134.621 273.27 134.603 273.381ZM175.938 242.26C175.862 248.424 176.661 254.56 177.458 260.671C177.681 262.373 177.91 264.103 178.607 265.667C178.923 266.375 179.541 267.14 180.288 266.969C180.521 266.915 180.726 266.772 180.899 266.605C181.578 265.952 181.788 264.747 181.151 264.052C180.513 263.357 179.074 263.722 179.032 264.67C177.784 257.961 176.986 251.165 176.646 244.346C176.608 243.587 176.527 242.729 175.938 242.26ZM180.654 264.525C180.687 264.655 180.616 264.787 180.549 264.902L179.998 265.839L179.632 265.768C179.592 265.393 179.673 265.005 179.86 264.679C180.035 264.375 180.568 264.185 180.654 264.525ZM176.05 231.131C175.861 229.08 175.938 227.015 176.03 224.957C176.509 214.283 177.387 203.628 178.662 193.022C178.693 192.768 178.752 192.471 178.981 192.364C179.455 192.143 179.718 192.938 179.658 193.467C178.238 206.169 177.303 218.93 176.963 231.709C176.956 231.99 176.539 232.08 176.33 231.899C176.12 231.718 176.075 231.411 176.05 231.131Z" fill="#00160A"/>
<path d="M181.613 242.068C178.777 241.876 175.94 241.684 173.104 241.491C169.192 241.227 165.268 240.96 161.422 240.212C158.736 239.689 156.096 238.933 153.544 237.954C153.267 237.848 152.977 237.73 152.791 237.5C152.435 237.061 152.613 236.37 153.025 235.982C153.438 235.595 154.014 235.438 154.566 235.305C166.257 232.487 178.531 234.301 190.371 236.42C191.268 236.581 192.191 236.753 192.953 237.247C193.715 237.74 194.282 238.642 194.098 239.524C193.883 240.559 192.783 241.15 191.766 241.476C188.52 242.518 185.017 242.298 181.613 242.068" fill="#F5F5F5"/>
<path fill-rule="evenodd" clip-rule="evenodd" d="M181.613 242.068C178.777 241.876 175.94 241.684 173.104 241.491C169.192 241.227 165.268 240.96 161.422 240.212C158.736 239.689 156.096 238.933 153.544 237.954C153.267 237.848 152.977 237.73 152.791 237.5C152.435 237.061 152.613 236.37 153.025 235.982C153.438 235.595 154.014 235.438 154.566 235.305C166.257 232.487 178.531 234.301 190.371 236.42C191.268 236.581 192.191 236.753 192.953 237.247C193.715 237.74 194.282 238.642 194.098 239.524C193.883 240.559 192.783 241.15 191.766 241.476C188.52 242.518 185.017 242.298 181.613 242.068M153.281 237.153C162.48 240.297 172.372 240.696 182.099 241.065C184.486 241.155 186.876 241.246 189.264 241.186C190.208 241.163 191.232 241.084 191.934 240.46C192.635 239.835 192.676 238.471 191.802 238.12C186.723 236.081 181.142 235.704 175.672 235.361C169.16 234.952 162.575 234.562 156.148 235.675C155.049 235.865 153.826 236.19 153.281 237.153Z" fill="#00160A"/>
<path fill-rule="evenodd" clip-rule="evenodd" d="M293.369 198.397C293.929 195.298 294.228 192.151 294.26 189.001C294.31 184.164 293.733 179.327 294.006 174.498C294.279 169.67 295.508 164.693 298.667 161.053C298.377 163.057 297.753 165.011 296.828 166.809C295.009 170.346 294.947 174.503 294.925 178.488C294.891 184.618 294.858 190.749 294.824 196.88C294.814 198.749 293.533 200.46 291.884 201.316C290.235 202.172 288.283 202.273 286.452 201.974C284.997 201.736 283.592 201.262 282.194 200.791C273.911 197.994 265.628 195.198 257.345 192.401C256.679 192.176 255.894 191.804 255.846 191.098C255.117 180.391 255.076 169.636 255.723 158.924C256.002 154.315 256.619 149.257 259.987 146.126C258.965 148.297 257.938 150.481 257.31 152.799C256.484 155.846 256.37 159.037 256.261 162.195C255.932 171.75 255.604 181.349 256.724 190.843C256.777 191.294 256.935 191.853 257.381 191.913C261.069 192.402 264.603 193.68 268.103 194.951C272.954 196.712 277.805 198.472 282.656 200.233C283.835 200.661 285.032 201.093 286.281 201.2C288.07 201.354 289.84 200.834 291.56 200.319C292.072 200.166 292.617 199.991 292.948 199.57C293.207 199.24 293.294 198.811 293.369 198.397Z" fill="#00160A"/>
<path fill-rule="evenodd" clip-rule="evenodd" d="M285.6 203.527C278.249 203.054 271.441 199.786 264.405 197.654C261.931 196.904 259.416 196.293 256.902 195.681C255.268 195.284 253.634 194.886 252 194.489C255.195 193.671 258.547 194.703 261.68 195.725C269.654 198.326 277.627 200.926 285.6 203.527Z" fill="#00160A"/>
<path fill-rule="evenodd" clip-rule="evenodd" d="M155.789 132.819C156.031 132.826 156.248 132.86 156.594 132.943L158.595 133.467C158.702 133.494 158.802 133.52 158.89 133.542C159.015 133.573 159.09 133.7 159.059 133.825C159.027 133.95 158.901 134.026 158.776 133.994L158.055 133.809L156.694 133.449L156.593 133.423C156.21 133.327 156.002 133.292 155.774 133.285L155.716 133.286C155.293 133.301 153.296 133.498 152.009 133.582C151.88 133.59 151.769 133.493 151.761 133.364C151.752 133.236 151.85 133.125 151.979 133.116L152.466 133.082C153.747 132.985 155.428 132.822 155.76 132.818L155.789 132.819Z" fill="#00160A"/>
<path fill-rule="evenodd" clip-rule="evenodd" d="M155.517 131.99C155.613 131.904 155.76 131.912 155.846 132.008L156.601 132.848C156.687 132.944 156.679 133.092 156.583 133.178C156.487 133.264 156.339 133.256 156.253 133.16L155.499 132.319C155.413 132.223 155.421 132.076 155.517 131.99Z" fill="#00160A"/>
<path fill-rule="evenodd" clip-rule="evenodd" d="M156.543 132.841C156.647 132.917 156.67 133.063 156.595 133.167L155.893 134.136C155.817 134.24 155.671 134.263 155.567 134.188C155.463 134.112 155.439 133.966 155.515 133.862L156.217 132.893C156.292 132.789 156.438 132.766 156.543 132.841Z" fill="#00160A"/>
<path fill-rule="evenodd" clip-rule="evenodd" d="M152.848 132.32C152.909 132.206 153.05 132.162 153.164 132.222L154.368 132.858C154.481 132.919 154.525 133.06 154.465 133.174C154.405 133.288 154.263 133.331 154.15 133.271L152.946 132.635C152.832 132.575 152.788 132.434 152.848 132.32Z" fill="#00160A"/>
<path fill-rule="evenodd" clip-rule="evenodd" d="M154.362 132.942C154.445 133.041 154.432 133.188 154.333 133.271L153.093 134.311C152.994 134.394 152.847 134.381 152.764 134.283C152.681 134.184 152.694 134.037 152.793 133.954L154.033 132.913C154.132 132.831 154.279 132.844 154.362 132.942Z" fill="#00160A"/>
<path fill-rule="evenodd" clip-rule="evenodd" d="M165.252 173.001C164.872 172.853 164.977 172.298 165.149 171.932C165.638 170.893 166.127 169.854 166.616 168.815C166.708 168.62 166.802 168.397 166.723 168.196C166.641 167.983 166.401 167.883 166.184 167.804C165.001 167.375 163.817 166.946 162.634 166.517C161.112 169.567 160.331 172.976 160.375 176.378C160.382 176.904 160.423 177.469 160.756 177.877C161.006 178.184 161.385 178.355 161.755 178.5C164.375 179.53 167.295 179.797 170.061 179.259C171.187 179.04 172.421 178.575 172.853 177.522C173.108 176.899 173.023 176.196 172.933 175.53C172.594 173.002 172.255 170.473 171.916 167.945C171.878 167.661 171.832 167.358 171.638 167.146C171.394 166.878 170.992 166.833 170.629 166.809C169.981 166.768 169.315 166.742 168.697 166.94C168.079 167.138 167.51 167.605 167.373 168.234C167 169.943 166.273 171.575 165.252 173.001Z" fill="#E7EAEE"/>
<path fill-rule="evenodd" clip-rule="evenodd" d="M162.546 166.237C163.745 166.033 165.028 166.383 165.952 167.166C166.224 167.396 166.67 167.276 166.904 167.009C167.138 166.742 167.216 166.377 167.284 166.03C167.905 162.903 168.526 159.776 169.147 156.648C169.252 156.119 169.3 155.448 168.837 155.164C168.673 155.064 168.474 155.038 168.283 155.014C166.418 154.782 164.553 154.55 162.688 154.319C162.454 154.289 162.169 154.281 162.033 154.473C161.95 154.59 161.954 154.745 161.962 154.888C162.183 158.682 163.181 162.489 162.546 166.237Z" fill="#F5F5F5"/>
<path fill-rule="evenodd" clip-rule="evenodd" d="M173.934 154.141C172.758 154.873 171.308 155.162 169.938 154.937C169.64 158.262 169.066 161.563 168.223 164.795C168.054 165.441 167.875 166.117 168.034 166.764C168.919 166.118 170.129 165.932 171.171 166.282C171.395 166.357 171.641 166.19 171.737 165.977C171.834 165.763 171.821 165.52 171.813 165.286C171.678 161.495 173.141 157.852 173.934 154.141Z" fill="#F5F5F5"/>
<path fill-rule="evenodd" clip-rule="evenodd" d="M163.579 153.532C165.319 153.975 167.104 154.247 168.899 154.343C169.191 154.358 169.303 153.91 169.111 153.691C168.919 153.472 168.595 153.434 168.303 153.412C166.726 153.291 165.118 153.172 163.579 153.532Z" fill="#F5F5F5"/>
<path fill-rule="evenodd" clip-rule="evenodd" d="M170.049 154.466C171.022 154.414 171.989 154.248 172.922 153.97C173.111 153.913 173.221 153.677 173.142 153.498C172.419 153.504 171.695 153.511 170.972 153.517C170.673 153.52 170.35 153.53 170.111 153.709C169.873 153.887 169.799 154.302 170.049 154.466" fill="#F5F5F5"/>
<path fill-rule="evenodd" clip-rule="evenodd" d="M175.11 118.68C174.815 119.685 174.937 120.825 175.529 121.692C176.121 122.56 177.199 123.107 178.247 122.978C179.851 122.78 180.866 121.251 181.971 120.082C182.57 119.449 183.249 118.891 183.988 118.426C181.23 118.121 178.367 118.881 176.133 120.51C175.873 120.055 176.301 119.501 176.766 119.253C177.23 119.004 177.793 118.856 178.082 118.418C178.3 118.087 178.306 117.662 178.262 117.27C178.11 115.925 177.432 114.646 176.402 113.758C176.143 113.875 176.233 114.253 176.31 114.525C176.709 115.941 175.524 117.268 175.11 118.68Z" fill="#FFB61D"/>
<path fill-rule="evenodd" clip-rule="evenodd" d="M181.614 117.74C181.751 117.708 181.9 117.669 181.983 117.556C182.134 117.352 181.973 117.067 181.792 116.888C181.192 116.293 180.324 115.974 179.478 116.038C179.12 116.065 178.67 116.415 178.911 116.678C179.111 116.895 178.977 117.235 178.867 117.507C178.757 117.78 178.737 118.18 179.016 118.277C179.122 118.313 179.238 118.288 179.347 118.263C180.103 118.089 180.858 117.914 181.614 117.74Z" fill="#FFB61D"/>
</svg>
