<svg width="350" height="350" viewBox="0 0 350 350" fill="none" xmlns="http://www.w3.org/2000/svg">
<rect width="350" height="350" fill="white"/>
<path fill-rule="evenodd" clip-rule="evenodd" d="M316.817 190.812C310.123 199.628 301.444 206.707 293.884 214.792C284.041 225.318 276.084 237.604 270.504 250.891C264.731 264.64 261.114 280.032 250.486 290.492C235.196 305.541 209.943 305.228 190.133 296.993C159.212 284.139 137.326 256.05 120.57 227.057C117.204 221.234 113.791 215.11 108.232 211.325C98.1244 204.445 84.6659 207.371 72.493 208.518C63.8407 209.333 54.8295 209.039 46.8842 205.518C34.9851 200.244 27.0131 188.142 24.4337 175.385C21.8542 162.627 24.0861 149.31 28.2586 136.982C39.7006 103.174 66.0545 74.9895 98.471 60.0543C130.888 45.1191 168.871 43.2953 203.002 53.7334C217.956 58.3065 232.651 65.4754 242.741 77.4216C251.641 87.9586 256.48 101.626 266.251 111.36C275.607 120.681 288.442 125.396 300.089 131.621C311.736 137.847 323.275 146.988 325.927 159.926C328.15 170.77 323.511 181.996 316.817 190.812Z" fill="#FF7676"/>
<path fill-rule="evenodd" clip-rule="evenodd" d="M73.9902 79.2837L74.2574 79.2981C78.9723 79.5693 84.4169 81.571 85.5389 86.1584C88.7985 74.464 96.231 63.9793 106.187 57.0317C103.121 63.5196 101.924 70.8771 102.774 78.0021C105.437 71.2304 110.358 65.369 116.566 61.5732C113.754 65.5569 112.145 70.3787 112.002 75.2529C111.898 78.7972 112.626 82.5079 114.845 85.2736C116.278 87.0598 118.239 88.3428 120.24 89.4557C120.741 89.7341 121.246 90.0028 121.756 90.2618C121.959 90.3646 122.162 90.4657 122.365 90.5653C122.837 90.7964 123.313 91.0192 123.792 91.2339C124.222 91.4262 124.654 91.6119 125.088 91.7912L125.376 91.9087C125.663 92.0247 125.95 92.1379 126.239 92.2483L126.715 92.4272L126.981 92.5249L127.499 92.7096L127.695 92.7777L128.147 92.9314C128.448 93.0323 128.751 93.1303 129.055 93.2253L129.663 93.4111L130.06 93.5277L130.537 93.6632L130.975 93.7829L131.601 93.9467L131.875 94.0158L132.297 94.1187L132.541 94.1764L132.97 94.2746L133.296 94.3467L133.505 94.3918L134.073 94.5094L134.652 94.6224L135.21 94.7246L135.767 94.8203L136.355 94.9144L136.895 94.9946L137.475 95.0742L138.048 95.1461L138.565 95.2056L138.888 95.24L139.375 95.2879L139.72 95.3191L140.074 95.3487L140.649 95.3915L140.835 95.404L141.416 95.4387L141.982 95.4662L142.532 95.4871L142.892 95.4976L143.432 95.5087L143.685 95.512L144.26 95.5149L144.836 95.5115L145.084 95.5081L145.601 95.4972L146.206 95.478L146.558 95.4636L147.09 95.4374L147.674 95.4023L148.241 95.3621L148.816 95.3149L149.094 95.2898L149.653 95.2349L150.242 95.1705L150.536 95.1358L151.065 95.0691L151.631 94.9918L151.96 94.9439L152.234 94.9025L152.507 94.8596L153.033 94.7729L153.381 94.7126L153.615 94.6705L153.915 94.615L154.486 94.5047L154.745 94.4522L155.033 94.3924L155.54 94.2831L156.123 94.1507L156.662 94.0219L156.967 93.9464L157.49 93.8121L157.805 93.7283L158.342 93.5809L158.892 93.4231L159.143 93.3488L159.472 93.2495L159.999 93.0852L160.248 93.0055L160.516 92.9178L160.826 92.8148L161.043 92.741L161.362 92.6309L161.883 92.4457L162.154 92.3468L162.692 92.145L163.205 91.9461L163.735 91.7339L164.214 91.5359L164.552 91.3923L165.058 91.1722L165.309 91.0607L165.545 90.9542L165.822 90.827L166.088 90.703L166.32 90.5933L166.85 90.3369L167.093 90.2165L167.344 90.0909L167.826 89.8438L168.116 89.6916L168.364 89.5595L168.883 89.2772L169.088 89.1637L169.394 88.9913L169.593 88.8776L169.852 88.7277L170.098 88.5828L170.346 88.4356L170.83 88.1413L171.296 87.8506L171.572 87.6741L171.787 87.5355L172.043 87.3678L172.248 87.2318L172.519 87.0494L172.725 86.9089L172.963 86.7448L173.225 86.5615L173.438 86.4102L173.686 86.2321C173.785 86.1606 173.883 86.0887 173.982 86.0164C174.018 85.5045 173.978 85.0562 173.878 84.6547C173.471 84.4014 173.068 84.1227 172.671 83.8186C171.283 82.7557 169.983 80.9673 168.772 78.4534L168.453 78.019C166.67 75.561 165.32 73.1994 165.237 72.8237C164.687 70.3202 164.52 67.7691 164.551 65.2052L164.547 65.1897C164.29 63.4371 164.416 61.6454 164.836 59.8513C164.911 58.9582 164.993 58.0664 165.076 57.1775L165.45 57.7704L165.485 57.6728C165.899 56.5206 166.704 58.7216 167.61 61.1882L169.848 64.731C168.536 55.7943 171.905 46.3006 178.558 40.1909C175.287 53.1691 179.098 67.7071 188.315 77.412C199.119 88.7889 215.908 93.1432 226.249 104.942C235.536 115.538 238.062 130.264 243.954 143.069L244.152 143.495C246.258 147.998 249.121 152.561 253.696 154.503C258.154 156.395 263.249 155.397 267.983 154.372L281.269 151.492C276.627 161.755 262.927 166.745 252.772 161.871C256.081 166.637 262.192 169.289 267.933 168.451C276.237 167.239 282.717 159.592 291.096 159.133C293.295 159.013 295.689 159.508 297.149 161.156C299.251 163.53 298.491 167.544 296.136 169.667C293.781 171.789 290.346 172.306 287.196 171.948C291.063 170.486 295.182 162.668 292.425 162.96C285.765 163.665 275.216 169.084 267.686 174.987C269.365 174.53 271.361 174.829 273.066 174.482C277.056 173.671 278.531 172.903 281.995 171.948C280.152 175.901 275.663 176.793 271.058 179.052C278.358 178.002 285.338 175.932 292.638 174.882C295.272 174.503 302.03 177.019 301.868 178.144C301.811 178.538 297.126 178.467 296.324 178.446C293.232 178.363 290.982 177.773 288.293 179.302C280.689 183.627 270.056 184.2 261.882 181.086L263.275 182.145L264.325 182.937C269.239 186.624 274.342 190.129 280.152 192.043C286.853 194.25 294.787 193.987 300.327 189.642L300.517 189.491C304.814 186.014 310.23 183.942 315.751 183.663C309.501 186.664 303.761 190.723 298.847 195.614C303.262 192.863 309.115 192.591 313.767 194.919C310.224 194.992 306.704 195.978 303.638 197.755C302.397 198.475 301.083 199.946 301.868 201.147C302.221 201.687 302.89 201.92 303.523 202.048C308.453 203.045 313.034 199.917 317.19 196.895L318.442 195.983C322.924 192.726 329.088 189.878 333.722 192.914C324.739 197.928 318.503 207.805 308.523 210.302C300.555 212.295 292.268 208.994 285.006 205.157L283.24 204.22L282.505 203.833C278.412 201.694 274.14 199.739 269.602 200.073C264.131 200.474 258.752 206.092 260.907 211.136C262.31 214.422 266.16 215.942 269.717 216.28C273.274 216.619 276.917 216.126 280.396 216.938C288.164 218.75 293.151 225.707 299.069 231.071L300.421 232.281L300.821 232.635C303.998 235.431 308.251 238.874 312.724 240.148C317.754 241.579 323.093 240.095 325.952 240.148C331.788 240.255 338.075 242.075 341.416 246.861L340.551 246.615L339.964 246.452C336.457 245.497 333.162 244.873 329.91 245.564C328.322 245.901 318.74 251.422 308.523 247.44C300.36 244.258 293.847 237.266 290.536 234.796C285.685 231.176 270.111 222.966 271.829 224.805C272.029 225.419 271.262 225.243 269.803 224.486L270.052 225.022C272.926 231.327 273.153 236.281 270.732 239.885C268.212 243.637 264.515 244.197 259.641 241.566L258.529 240.82C255.678 238.901 253.731 237.539 252.688 236.736C251.685 235.963 254.262 252.645 259.641 257.894C262.159 260.351 270.269 261.944 277.127 265.2C279.067 266.121 281.227 267.997 283.607 270.826C280.366 269.194 277.497 268.153 275.002 267.702C264.191 265.751 256.447 268.213 251.845 262.195C247.243 256.178 247.828 254.003 247.341 248.877L246.482 239.885C241.265 247.549 236.381 252.592 231.83 255.012C227.755 257.18 223.644 257.157 219.496 254.941L219.302 254.836L219.389 254.888C222.808 256.904 225.78 258.297 228.305 259.069C231.155 259.94 234.759 260.423 239.118 260.517C226.602 268.097 215.684 267.222 206.363 257.894L205.856 257.383C200.774 252.227 193.758 243.968 189.904 231.868L189.618 230.954C187.951 225.701 186.421 222.469 187.681 212.409L187.827 211.28C188.135 208.797 188.471 204.645 187.765 200.697C187.453 198.958 186.309 196.389 184.332 192.99C176.259 202.609 171.938 212.138 171.369 221.576C170.8 231.015 172.889 241.848 177.637 254.076L177.733 254.331L177.807 254.544C178.864 255.666 179.889 256.988 180.844 258.593C185.746 266.835 192.515 274.754 192.844 284.338C193.049 290.33 190.47 296.36 185.996 300.35C189.784 290.518 186.862 278.487 179.017 271.463L178.778 271.252C170.228 263.802 164.798 252.879 164.02 241.566C164.081 241.792 164.146 242.011 164.217 242.222C163.185 237.352 162.731 232.379 162.855 227.303L162.87 226.777C163.046 221.269 163.919 213.516 165.489 203.517L165.088 204.602C163.558 208.792 162.484 212.275 162.15 214.195C159.747 227.976 160.151 245.777 162.15 255.101L161.022 255.465C142.961 261.271 133.325 263.321 132.114 261.614L127.825 255.101C114.604 231.937 110.819 201.857 116.912 175.15L117.099 174.342L116.979 174.698C114.58 181.869 112.386 192.396 111.701 201.882L111.658 202.503C111.006 212.517 112.135 221.255 111.714 223.125L111.701 223.18C110.459 227.922 116.683 246.153 124.099 258.794C128.84 266.876 136.256 271.368 135.372 272.853C134.688 274.002 124.26 267.159 115.712 259.078L115.231 258.62C107.408 251.11 101.431 242.593 101.28 244.01C100.389 252.369 111.701 268.895 111.701 270.736L111.699 271.591C111.662 279.381 111.089 285.765 108.274 292.407L108.047 292.935C106.482 296.527 104.333 300.355 100.557 301.196C104.192 295.679 106.791 289.481 108.179 283.022C108.787 280.19 109.164 277.262 108.722 274.4C108.14 270.625 106.169 267.2 103.868 264.15C98.0006 256.374 89.4514 249.744 87.9152 240.123C87.1211 235.151 88.3842 230.082 88.2093 225.05C88.0412 220.213 86.5508 215.522 85.9633 210.718C84.4878 198.653 89.1203 185.997 98.036 177.735C88.4273 178.666 79.1603 182.829 72.0814 189.392C68.8136 192.422 65.9714 195.967 62.2465 198.413C57.478 201.545 51.6865 202.608 46.0692 203.603C56.2036 196.817 64.9927 188.031 71.7813 177.899C66.5066 184.715 58.4863 189.341 49.9454 190.494L50.542 190.105C55.8045 186.641 60.8634 182.578 63.9476 177.099C67.1482 171.414 67.7981 163.895 64.0708 158.54C60.3436 153.186 51.6596 151.495 47.0958 156.158C51.8619 150.126 59.1748 146.176 66.8322 145.498C74.316 144.835 84.0146 145.942 90.6344 142.341C79.2121 140.028 67.6467 138.423 56.0264 137.538C53.8243 137.371 51.174 137.012 48.7464 136.565C46.2737 136.243 44.1468 135.768 42.4841 134.928C42.3003 134.844 42.1404 134.762 42.0077 134.681C41.951 134.646 41.8985 134.613 41.85 134.58L41.7385 134.504L41.7113 134.483C40.6034 133.65 42.3361 133.564 43.1217 133.307C42.7792 132.901 41.8504 132.648 41.7964 132.261C41.7923 132.231 41.8028 132.2 41.8245 132.168L41.7975 132.083C41.7589 131.658 42.8139 131.627 42.7753 131.202C42.4683 130.592 41.9126 130.556 41.9032 130.255L41.8512 130.198C41.6091 129.913 41.6525 129.7 42.6702 129.712L42.7753 129.714C45.0889 129.772 46.1644 129.951 48.2552 130.903L48.2884 130.912L47.8048 130.387C47.2074 129.728 46.5 128.823 47.2243 128.494C47.2461 128.479 47.2726 128.468 47.304 128.462C47.4357 128.416 47.6063 128.385 47.8216 128.373C51.3463 128.176 51.7929 129.99 54.7035 130.034L55.4081 130.043C67.1102 130.16 88.0997 128.999 87.3692 128.747C86.6237 128.491 72.1902 117.986 63.2553 118.242C58.8299 118.369 54.1508 119.89 50.1411 118.013C57.4709 114.982 65.9424 114.042 73.334 116.919C77.5052 118.543 81.1453 121.285 85.1981 123.185C93.9451 127.285 104.57 127.136 113.198 122.792C103.679 123.016 94.1117 120.825 85.6383 116.48C97.7904 117.783 110.222 116.415 121.799 112.499C112.887 107.358 102.6 105.135 92.2667 104.741L90.7988 104.741C88.4641 104.736 86.6804 104.706 85.3307 104.742L84.8946 104.756C72.1661 105.269 59.6549 108.044 47.1465 110.456C46.7268 110.537 46.2676 110.583 45.8002 110.589L45.6831 110.59C43.6524 110.59 41.5137 109.846 41.7975 108.016C48.1584 107.899 53.7483 104.08 59.4918 101.343C66.9085 97.8098 75.1231 95.9652 83.3381 95.982L83.7862 95.9848L84.2343 95.9912C84.114 95.8571 83.9925 95.7241 83.8698 95.5923L83.5985 95.3048L83.3581 95.0566L83.1149 94.8113C82.8046 94.5022 82.4875 94.2001 82.1637 93.9053L81.884 93.6538L81.6061 93.4103L81.2231 93.0845L80.9854 92.8879L80.7257 92.6778L80.3667 92.3952L80.2024 92.2688L79.9519 92.0796L79.5579 91.7902L79.2934 91.6015L78.8888 91.3211L78.8174 91.2726C78.6177 91.1374 78.4163 91.0047 78.2133 90.8744L77.9992 90.7382L77.7367 90.5747L77.4538 90.4027L77.1405 90.2171L76.7551 89.9959L76.4263 89.813L76.1479 89.6625L75.876 89.5191L75.466 89.3095L75.1573 89.157L74.7146 88.9459L74.3936 88.7985L73.9914 88.6201L73.5672 88.4398L73.2319 88.3027C73.0243 88.2193 72.8158 88.1383 72.6063 88.0597L72.2915 87.9436C71.9872 87.8333 71.681 87.7281 71.3732 87.628C71.2371 87.5838 71.1008 87.5406 70.9642 87.4984L70.665 87.4078C70.5611 87.3769 70.457 87.3466 70.3527 87.317L70.0454 87.2313C65.3855 85.9601 61.5474 82.0411 60.3738 77.3557C64.4197 79.614 69.3526 79.0496 73.9902 79.2837ZM93.1851 142.869L93.2772 142.898C94.5042 143.269 96.232 143.684 98.3315 144.012C96.6199 143.614 94.9042 143.234 93.1851 142.869ZM48.5996 128.849L48.6051 128.852L48.8814 128.951C49.1234 129.037 49.3953 129.128 49.6995 129.22L49.4629 129.109C49.1844 128.983 48.8971 128.875 48.5996 128.849Z" fill="white"/>
<path fill-rule="evenodd" clip-rule="evenodd" d="M185.376 171.251C184.36 171.045 183.171 170.891 182.406 171.59C174.389 178.914 170.113 189.401 166.702 199.71C164.397 206.68 162.36 213.793 161.656 221.101C161.089 226.981 161.393 232.905 161.697 238.804C161.975 244.204 162.253 249.605 162.531 255.005C161.91 255.424 150.595 238.35 154.503 215.878C158.411 193.405 168.307 173.763 175.012 167.118C184.447 160.214 194.705 173.142 185.376 171.251Z" fill="#E7EAEE"/>
<path d="M72.9595 118.933C76.936 120.536 80.2398 123.434 83.9941 125.504C88.0834 127.758 92.6469 128.998 97.2003 130.034C112.849 133.594 66.851 116.472 72.9595 118.933Z" fill="white"/>
<path fill-rule="evenodd" clip-rule="evenodd" d="M167.031 130.344C178.028 121.772 180.114 126.209 182.612 125.017C179.729 127.372 176.619 130.142 176.312 133.852C176.122 136.144 177.067 138.363 178.028 140.453C179.361 143.352 180.793 146.262 182.935 148.627C187.29 153.434 168.43 142.522 166.846 138.968C166.115 137.328 165.368 135.589 165.567 133.804C165.707 132.547 166.146 131.034 167.031 130.344Z" fill="#E7EAEE"/>
<path d="M170.188 110.615C170.677 108.202 172.638 106.377 174.639 104.941C180.721 100.581 188.215 98.2236 195.697 98.3159C195.187 98.0752 196.301 98.2349 197.465 99.2067C198.915 100.417 199.669 101.295 200.253 103.408C198.346 103.054 196.58 101.985 195.383 100.459C195.892 103.156 198.151 105.436 200.844 105.97C199.328 106.364 197.94 107.236 196.927 108.432C199.413 107.519 202.472 108.587 203.848 110.849C200.066 110.356 196.088 111.679 193.353 114.337C197.569 112.769 202.669 113.951 205.765 117.216C199.619 116.742 193.455 116.489 187.291 116.46C190.534 117.11 193.5 119.055 195.387 121.772C194.942 121.774 192.201 121.499 187.291 120.156C184.224 119.318 175.538 116.46 175.538 116.46C175.538 116.46 174.636 115.917 174.23 115.652C171.248 113.711 169.901 112.032 170.188 110.615Z" fill="white"/>
<ellipse cx="178.973" cy="103.667" rx="1.48763" ry="1.74914" fill="#FFB61D"/>
<path fill-rule="evenodd" clip-rule="evenodd" d="M174.812 0.314898C174.592 0.375938 174.245 0.33442 174.28 0.109436C174.411 0.0421357 174.558 -0.0271132 174.701 0.0107313C174.843 0.0485759 174.936 0.254758 174.821 0.347485L174.812 0.314898Z" fill="#00160A"/>
<ellipse cx="184.938" cy="113.4" rx="1.63404" ry="1.86667" fill="#FFB61D"/>
<path fill-rule="evenodd" clip-rule="evenodd" d="M299.426 231.392L299.297 231.277C297.785 229.923 296.337 228.46 294.891 227C290.579 222.646 286.288 218.312 280.396 216.938C278.271 216.442 276.085 216.433 273.895 216.424C272.499 216.418 271.102 216.412 269.717 216.28C266.16 215.942 262.31 214.422 260.907 211.136C258.752 206.092 264.131 200.474 269.602 200.073C274.729 199.696 279.516 202.24 284.089 204.671C284.396 204.834 284.702 204.996 285.006 205.157C292.268 208.994 300.555 212.295 308.523 210.302C314.456 208.817 319.066 204.725 323.716 200.596C326.888 197.78 330.079 194.947 333.722 192.914C329.088 189.878 322.924 192.726 318.442 195.983C318.228 196.139 318.012 196.296 317.795 196.454C313.48 199.602 308.694 203.093 303.523 202.048C302.89 201.92 302.221 201.687 301.868 201.147C301.083 199.946 302.397 198.475 303.638 197.755C306.704 195.978 310.224 194.992 313.767 194.919C309.115 192.591 303.262 192.864 298.847 195.614C303.761 190.723 309.501 186.664 315.751 183.663C310.23 183.942 304.814 186.014 300.517 189.491C294.97 193.98 286.93 194.276 280.152 192.043C273.374 189.81 267.558 185.411 261.882 181.086C270.056 184.2 280.689 183.627 288.293 179.302C290.425 178.09 292.28 178.21 294.499 178.353C295.079 178.39 295.683 178.429 296.324 178.446C297.126 178.467 301.811 178.538 301.868 178.144C302.03 177.019 295.272 174.503 292.638 174.882C288.988 175.407 285.418 176.187 281.848 176.967C278.278 177.747 274.708 178.527 271.058 179.052C272.163 178.51 273.261 178.047 274.317 177.601C277.664 176.189 280.594 174.953 281.995 171.948C280.705 172.304 279.691 172.633 278.721 172.949C277.084 173.481 275.571 173.973 273.066 174.482C272.281 174.642 271.434 174.664 270.584 174.687C269.59 174.714 268.591 174.74 267.686 174.987C275.216 169.084 285.765 163.665 292.425 162.96C295.182 162.668 291.063 170.486 287.196 171.948C290.346 172.306 293.781 171.789 296.136 169.667C298.491 167.544 299.251 163.53 297.149 161.156C295.689 159.508 293.295 159.013 291.097 159.133C286.695 159.375 282.818 161.599 278.925 163.832C275.406 165.85 271.875 167.876 267.933 168.451C262.192 169.289 256.081 166.637 252.772 161.871C262.927 166.745 276.627 161.755 281.269 151.492L267.983 154.372C263.249 155.397 258.154 156.395 253.696 154.503C249.121 152.561 246.258 147.998 244.152 143.495C242.117 139.145 240.487 134.564 238.86 129.991C235.661 121 232.473 112.044 226.249 104.942C220.914 98.8548 213.862 94.7489 206.801 90.6379C200.177 86.7808 193.545 82.9192 188.315 77.4121C179.098 67.7071 175.287 53.1691 178.558 40.1909C171.905 46.3006 168.536 55.7943 169.848 64.731L165.076 57.1775C164.591 62.3929 164.112 67.7081 165.237 72.8237C166.363 77.9393 169.371 82.9172 174.139 85.0864C167.329 78.8374 164.065 68.9586 165.811 59.883C166.677 63.0017 168.634 65.8057 171.263 67.6936C169.739 58.5832 172.02 48.8965 177.448 41.4225C174.195 55.429 179.142 71.0338 189.871 80.6079C194.486 84.7268 199.951 87.7061 205.414 90.6839C211.098 93.7823 216.779 96.8792 221.497 101.257C230.871 109.953 235.317 122.592 239.355 134.724C241.728 141.854 244.496 149.552 250.839 153.582C259.403 159.023 270.595 155.57 280.086 151.981C275.034 162.089 260.582 166.025 251.102 159.874C253.173 165.789 259.393 169.974 265.652 169.663C270.219 169.435 274.425 167.129 278.58 164.85C283.621 162.085 288.586 159.362 294.027 160.447C294.907 160.622 295.791 160.911 296.48 161.486C298.445 163.127 297.958 166.482 296.169 168.314C294.379 170.145 291.763 170.846 289.281 171.473C291.466 170.159 293.828 168.626 294.535 166.176C295.242 163.726 294.791 162.255 292.638 162.255C284.28 162.255 275.155 168.449 267.663 173.535C266.99 173.992 266.33 174.44 265.686 174.874C270.763 175.912 276.19 175.15 280.785 172.753C276.542 176.026 271.266 177.939 265.911 178.144C270.909 181.541 277.131 179.82 283.366 178.096C289.541 176.389 295.728 174.678 300.752 177.93C295.602 175.871 290.22 177.742 284.772 179.636C279.982 181.3 275.142 182.983 270.361 182.031C269.3 181.82 268.226 181.482 267.154 181.144C264.468 180.299 261.79 179.456 259.341 180.612C265.754 185.956 273.133 190.136 281.014 192.89C285.195 194.351 289.768 195.412 294.02 194.17C296.78 193.363 299.153 191.66 301.522 189.961C304.084 188.123 306.64 186.289 309.672 185.599C304.04 189.039 299.073 193.564 295.125 198.854C300 194.98 306.631 193.413 312.724 194.695C311.52 195.073 310.253 195.191 308.987 195.308C307.511 195.445 306.037 195.582 304.671 196.132C302.134 197.155 300.359 200.848 302.495 202.558C303.166 203.095 304.056 203.276 304.915 203.331C309.671 203.641 313.794 200.778 317.898 197.928C322.153 194.974 326.388 192.033 331.289 192.652C326.605 197.379 321.818 202.122 316.086 205.503C310.353 208.884 303.49 210.813 296.978 209.44C292.849 208.57 289.146 206.462 285.457 204.362C284.479 203.805 283.503 203.249 282.52 202.717C277.826 200.176 272.463 198.089 267.248 199.223C262.033 200.357 257.551 205.951 259.393 210.961C260.722 214.577 264.679 216.547 268.469 217.239C270.114 217.539 271.786 217.666 273.457 217.794C275.636 217.96 277.813 218.126 279.924 218.674C286.079 220.274 290.68 224.756 295.326 229.28C298.805 232.67 302.31 236.083 306.512 238.329C310.542 240.482 311.32 241.446 312.309 241.777C313.253 242.093 314.391 241.832 318.74 241.478C325.735 240.908 333.77 240.526 338.655 245.564C333.206 242.604 329.687 243.949 325.691 245.475C322.606 246.654 319.237 247.94 314.476 247.44C307.709 246.728 302.318 242.176 296.957 237.649C294.962 235.965 292.972 234.285 290.916 232.807C289.6 231.86 288.383 230.924 287.223 230.03C281.7 225.779 277.454 222.51 269.859 223.864C271.834 227.967 272.39 232.737 271.409 237.184C270.903 239.483 269.812 241.895 267.669 242.868C264.895 244.128 261.718 242.475 259.207 240.749C254.288 237.368 249.704 233.5 245.545 229.219C245.172 228.835 244.801 228.447 244.43 228.058C242.021 225.538 239.584 222.988 236.469 221.466C227.063 216.868 215.52 223.767 210.412 232.907C212.11 226.551 217.058 221.157 223.244 218.919C229.429 216.681 236.684 217.661 242.054 221.459C243.25 222.305 244.439 223.3 245.636 224.301C249.504 227.537 253.453 230.84 257.959 229.39C253.212 229.657 249.498 226.55 245.704 223.377C243.384 221.435 241.033 219.469 238.399 218.236C231.007 214.775 221.982 217.611 215.591 222.688C211.628 225.837 208.114 231.193 210.448 235.685C214.062 226.01 225.152 218.452 234.784 222.176C238.782 223.722 241.868 226.853 244.9 229.93C245.346 230.382 245.79 230.832 246.236 231.277C249.761 234.79 253.561 238.028 257.59 240.95C259.942 242.656 262.615 244.323 265.514 244.116C269.541 243.828 272.51 239.854 273.066 235.855C273.622 231.856 273.082 228.643 271.829 224.805C270.111 222.966 285.685 231.176 290.536 234.796C291.354 235.405 292.366 236.291 293.55 237.326C297.163 240.486 302.375 245.044 308.523 247.44C317.068 250.77 325.169 247.454 328.52 246.082C329.176 245.813 329.65 245.619 329.909 245.564C333.607 244.778 337.359 245.692 341.416 246.861C338.075 242.075 331.788 240.255 325.952 240.148C325.086 240.132 323.991 240.257 322.746 240.4C319.884 240.727 316.229 241.145 312.724 240.148C307.558 238.677 302.685 234.312 299.426 231.392ZM269.38 178.697C269.819 178.572 270.291 178.566 270.732 178.681L270.706 178.767C270.264 178.809 269.815 178.785 269.38 178.697ZM72.9595 118.933C75.374 119.906 77.5404 121.357 79.7103 122.81L79.7105 122.81C81.1142 123.75 82.5194 124.691 83.9941 125.504C88.0834 127.758 92.6469 128.998 97.2003 130.034C112.849 133.594 128.992 134.971 145.018 134.112C150.573 133.815 156.27 133.206 161.214 130.653C167.37 127.473 171.867 121.265 172.968 114.424C170.509 114.568 168.766 111.629 169.255 109.216C169.744 106.802 171.704 104.977 173.706 103.542C179.788 99.1813 187.281 96.8237 194.764 96.916C194.273 96.6845 193.917 96.406 193.554 96.1224C193.07 95.7445 192.575 95.3576 191.734 95.0609C193.668 94.1637 195.699 94.7136 197.34 96.0737C196.545 94.567 196.679 92.6159 197.672 91.2317C199.53 94.9729 202.706 98.0432 206.507 99.7742C202.507 98.9881 199.016 95.9863 197.64 92.1483C197.306 94.503 198.017 96.9836 199.532 98.8142C197.704 96.8046 195.166 95.4499 192.477 95.0609C196.203 96.3808 199.2 99.5979 200.253 103.408C198.346 103.054 196.58 101.985 195.383 100.459C195.892 103.156 198.151 105.436 200.844 105.97C199.328 106.364 197.94 107.237 196.927 108.432C199.412 107.519 202.472 108.587 203.848 110.849C200.066 110.357 196.087 111.679 193.353 114.338C197.569 112.769 202.669 113.952 205.765 117.216C199.619 116.742 193.455 116.49 187.291 116.46C190.534 117.11 193.5 119.056 195.387 121.772C193.403 121.778 191.423 121.148 189.807 119.997C191.279 119.788 192.82 120.102 194.095 120.869C191.45 118.555 188.199 116.941 184.757 116.235C191.24 115.517 197.813 115.617 204.271 116.533C200.838 114.143 196.189 113.613 192.306 115.168C194.42 111.801 198.548 109.815 202.498 110.264C200.766 108.583 197.868 108.265 195.813 109.531C196.171 107.798 197.579 106.326 199.295 105.893C197.972 105.202 196.599 104.468 195.735 103.252C194.87 102.035 194.703 100.183 195.772 99.1413C196.409 100.464 197.448 101.588 198.71 102.336C198.862 102.467 199.043 102.569 199.262 102.632C199.074 102.541 198.89 102.442 198.71 102.336C198.211 101.903 198.029 101.146 197.84 100.362C197.657 99.6018 197.468 98.8163 196.978 98.278C196.253 97.4808 195.037 97.4158 193.96 97.4573C186.089 97.7608 178.35 100.82 172.399 105.981C170.929 107.256 169.447 109.16 170.184 110.961C170.546 111.846 171.367 112.443 172.15 112.993L177.55 116.785C176.309 116.672 175.094 116.289 174.013 115.668C172.519 122.474 167.798 128.497 161.545 131.573C156.968 133.825 151.795 134.512 146.711 134.925C131.862 136.13 116.847 135.253 102.24 132.326C101.169 132.112 100.098 131.886 99.0277 131.66C95.077 130.827 91.1234 129.993 87.1003 129.714C82.2949 129.382 76.5956 129.788 71.0127 130.186C62.5087 130.792 54.2749 131.379 49.8813 129.307C49.8345 129.285 49.7875 129.262 49.7403 129.24C49.2511 129.005 48.7354 128.758 48.1844 128.871C46.8176 128.871 48.1704 129.857 49.4391 130.782C50.0009 131.191 50.5462 131.589 50.8316 131.883C49.4349 131.59 48.2345 131.329 47.0342 131.068L47.0326 131.068C45.832 130.807 44.6314 130.546 43.2343 130.253C40.4399 129.665 45.892 132.058 47.8216 132.423C47.3879 132.391 46.7494 132.322 46.0606 132.248C43.9428 132.02 41.3502 131.741 42.7753 132.326C43.7194 132.714 44.5994 133.029 45.4794 133.344L45.4798 133.344C46.36 133.659 47.2402 133.974 48.1844 134.362C47.7071 134.35 46.9968 134.298 46.2395 134.244H46.2394C44.0446 134.085 41.4552 133.897 43.0003 134.567C45.0786 135.467 52.7803 136.493 57.9976 136.857C71.2805 137.783 84.5576 139.363 97.4819 142.565C99.0626 142.957 100.644 143.374 102.226 143.791C109.224 145.635 116.256 147.488 123.452 147.237C123.455 148.15 122.239 148.458 121.327 148.446C115.78 148.37 110.357 146.996 104.967 145.63C104.311 145.464 103.655 145.298 103 145.134C87.5929 141.287 71.8607 138.743 56.0264 137.538C51.0805 137.162 43.8732 135.822 42.0077 134.681C40.6777 133.867 41.6425 133.653 42.5153 133.46C42.8668 133.382 43.2034 133.307 43.3693 133.198L43.3521 133.192C42.7601 132.989 41.9817 132.723 41.7975 132.083C41.7782 131.871 42.0323 131.757 42.2864 131.643L42.2864 131.643L42.2864 131.643C42.5405 131.529 42.7946 131.414 42.7753 131.202C42.7589 131.021 42.4937 130.789 42.2344 130.561C41.7173 130.108 41.2238 129.676 42.7753 129.714C45.1046 129.773 46.1789 129.953 48.2979 130.922C48.236 130.852 48.1566 130.767 48.0672 130.671C47.3565 129.911 46.0141 128.473 47.8216 128.373C49.7303 128.266 50.7364 128.75 51.7199 129.222C52.5526 129.622 53.3691 130.014 54.7035 130.034C66.2445 130.208 88.1146 129.004 87.3692 128.747C87.2484 128.706 86.7686 128.395 86.0112 127.905L86.0109 127.905C82.0919 125.37 70.7428 118.027 63.2553 118.242C61.9661 118.279 60.6552 118.434 59.3457 118.589C56.1604 118.966 52.9827 119.343 50.1411 118.013C57.4709 114.982 65.9425 114.042 73.334 116.919C75.7066 117.843 77.9074 119.128 80.1101 120.414L80.1102 120.414C81.7799 121.39 83.4506 122.365 85.1981 123.185C93.9451 127.285 104.57 127.136 113.198 122.792C103.679 123.016 94.1117 120.825 85.6383 116.481C97.7904 117.783 110.222 116.415 121.799 112.499C110.765 106.134 97.623 104.242 84.8946 104.756C73.8958 105.2 63.0592 107.332 52.2465 109.459L52.2462 109.459L52.2451 109.459C50.5451 109.794 48.8458 110.128 47.1465 110.456C44.8731 110.894 41.4428 110.304 41.7975 108.016C46.7539 107.925 51.2421 105.586 55.6997 103.263C56.9629 102.604 58.2236 101.947 59.4918 101.343C67.1782 97.6813 75.7216 95.8333 84.2343 95.9912C80.4725 91.7953 75.4821 88.7144 70.0455 87.2313C65.3856 85.9601 61.5475 82.0411 60.3738 77.3557C63.5271 79.1158 67.2193 79.1613 70.8905 79.2065C72.0202 79.2204 73.148 79.2343 74.2575 79.2981C78.9723 79.5693 84.4169 81.571 85.5389 86.1584C88.7985 74.464 96.231 63.9793 106.187 57.0317C103.121 63.5196 101.924 70.8771 102.774 78.0021C105.437 71.2304 110.358 65.369 116.566 61.5732C113.754 65.5569 112.145 70.3787 112.002 75.2529C111.898 78.7972 112.626 82.5079 114.845 85.2736C116.278 87.0598 118.239 88.3428 120.24 89.4557C136.925 98.7326 159.001 97.2368 174.281 85.7941C169.038 91.8141 161.268 95.2653 153.361 96.3695C145.455 97.4738 137.385 96.3978 129.627 94.5122C122.931 92.8846 115.739 90.1299 112.584 84.0032C109.276 77.5791 111.588 69.7198 114.835 63.2646C109.53 67.708 105.273 73.3935 102.502 79.7342C101.24 73.3304 101.714 66.5931 103.861 60.4292C94.9079 67.5014 88.5427 77.7794 86.2006 88.9458C84.2846 84.0167 79.3761 80.3952 74.1011 80.019C72.68 79.9176 71.2236 80.0269 69.7737 80.1357C67.0743 80.3383 64.3976 80.5391 62.0138 79.3756C63.2798 83.1734 67.3338 84.6825 71.2691 86.1475C72.3068 86.5338 73.3362 86.917 74.3041 87.3383C79.3508 89.5349 83.3997 93.4734 87.3277 97.3289C79.7038 95.7761 71.7626 97.5387 64.501 100.332C60.8784 101.726 57.3615 103.373 53.8447 105.02C50.3121 106.675 46.7794 108.329 43.1395 109.727C47.7507 109.879 52.2857 108.735 56.7669 107.604C57.0467 107.534 57.3262 107.463 57.6056 107.393C75.3393 102.938 94.4692 99.9249 111.585 106.358C113.143 106.944 114.673 107.605 116.202 108.265L116.202 108.265L116.202 108.265C118.358 109.196 120.513 110.127 122.746 110.847C135.747 115.039 149.87 111.731 162.995 107.944C152.161 113.869 139.285 115.972 127.129 113.801C123.561 113.164 119.97 114.163 116.446 115.143L116.446 115.143C115.914 115.291 115.384 115.438 114.856 115.58C107.5 117.548 99.8381 118.37 92.2319 118.008C103.055 122.863 115.179 121.862 127.3 120.86C139.468 119.855 151.634 118.85 162.478 123.771C147.632 120.296 132.004 120.207 117.119 123.512C115.594 123.851 114.059 124.225 112.518 124.6L112.517 124.6C104.81 126.477 96.9513 128.39 89.4734 126.129C86.1704 125.131 83.1871 123.372 80.2003 121.612C77.5523 120.051 74.9017 118.489 72.0233 117.453C66.0426 115.301 59.218 115.606 53.4532 118.283C59.9736 117.358 66.851 116.472 72.9595 118.933ZM199.825 99.1487C199.729 99.0352 199.632 98.9238 199.532 98.8142C199.627 98.9283 199.724 99.0398 199.825 99.1487ZM189.091 101.5L188.699 101.11C189.196 100.432 189.158 99.413 188.611 98.7737C188.735 98.5419 189.1 98.5534 189.291 98.7333C189.483 98.9132 189.543 99.1893 189.584 99.4486C189.702 100.181 189.69 101.063 189.091 101.5ZM188.749 110.194C189.352 109.011 189.487 107.596 189.119 106.32C188.846 106.318 188.577 106.202 188.388 106.005C188.672 107.377 188.615 108.819 188.223 110.165C188.386 110.077 188.597 110.089 188.749 110.194ZM176.479 106.32C176.251 106.35 176.117 106.588 176.218 106.794C176.843 108.066 178.852 111.909 180.89 113.106C181.047 113.108 181.202 113.016 181.274 112.876C179.259 111.592 177.305 107.536 176.838 106.52C176.774 106.382 176.629 106.3 176.479 106.32ZM188.705 118.802L187.877 118.014C188.348 117.842 188.923 118.02 189.215 118.428C189.507 118.835 189.489 119.437 189.174 119.827C189.045 119.987 188.865 120.114 188.662 120.147C188.507 120.172 188.348 120.142 188.193 120.111C187.573 119.989 186.941 119.863 186.387 119.558C185.833 119.253 185.36 118.734 185.272 118.108C186.173 118.847 187.308 119.297 188.47 119.377L188.705 118.802ZM185.399 119.874C183.094 120.305 180.82 120.897 178.598 121.646C180.508 121.7 182.399 122.306 183.984 123.372C186.019 124.742 188.427 125.551 190.875 125.69C188.263 126.344 185.347 125.623 183.34 123.828C182.372 122.962 181.065 122.549 179.771 122.443C178.477 122.338 177.177 122.515 175.892 122.701C177.74 120.937 180.315 120.205 182.779 119.533C183.686 119.286 184.842 119.118 185.399 119.874ZM182.612 125.017C180.114 126.209 177.937 128.066 176.364 130.344C175.646 131.385 175.041 132.547 174.9 133.804C174.701 135.589 175.449 137.328 176.18 138.968C177.764 142.522 179.388 146.139 181.98 149.041C185.996 153.538 191.757 155.755 197.464 157.951L197.464 157.951L197.464 157.951L197.465 157.951L197.465 157.951L197.465 157.951L197.465 157.951L197.466 157.952C198.957 158.525 200.445 159.098 201.897 159.709C221.673 168.036 236.62 184.983 247.93 203.219L248.027 203.375C249.495 205.745 251.026 208.213 253.417 209.634C241.187 187.444 223.391 167.261 199.902 157.76C198.89 157.35 197.861 156.956 196.829 156.561C191.731 154.607 186.557 152.625 182.935 148.627C180.793 146.263 179.361 143.352 178.028 140.453C177.067 138.363 176.122 136.144 176.312 133.852C176.619 130.142 179.729 127.372 182.612 125.017ZM117.589 227.503C118.43 232.011 119.492 236.495 121.142 240.774C122.657 244.704 124.666 248.445 127.106 251.879C118.22 242.309 115.614 228.565 114.63 215.543C113.843 205.14 113.847 194.678 114.64 184.277C111.62 200.017 111.008 216.376 114.468 232.025C117.928 247.675 125.637 262.598 137.527 273.345C138.03 273.8 137.556 274.724 136.893 274.865C136.23 275.006 135.572 274.655 134.986 274.315C122.553 267.1 110.026 258.66 103.211 246.004C102.925 245.472 102.765 244.618 103.339 244.433C111.25 255.772 121.753 265.291 133.812 272.054C118.37 257.091 110.975 235.172 110.382 213.678C109.789 192.184 115.431 170.964 122.959 150.823C123.928 148.229 125 145.543 127.068 143.701C115.703 169.869 112.356 199.457 117.589 227.503ZM263.31 217.881C261.753 218.263 260.067 218.095 258.615 217.415C261.788 219.656 264.673 222.302 267.178 225.27C265.392 224.863 263.735 223.905 262.492 222.56L265.076 227.363L260.702 223.506L262.132 227.611C254.688 221.575 248.702 213.951 242.733 206.347L242.733 206.346C235.442 197.058 228.175 187.801 218.304 181.51C207.818 174.826 195.354 172.14 183.187 169.572C183.984 169.052 184.45 168.064 184.345 167.118C177.64 173.763 172.266 181.746 168.632 190.458C167.118 194.091 165.905 197.841 164.693 201.585C163.117 206.459 161.535 211.357 160.725 216.415C159.589 223.507 159.996 230.745 160.407 237.915L161.307 253.637C161.35 254.385 161.909 255.424 162.531 255.005L161.697 238.804C161.393 232.905 161.089 226.981 161.656 221.101C162.36 213.793 164.396 206.68 166.702 199.71C170.113 189.401 174.389 178.914 182.406 171.59C183.171 170.891 184.36 171.045 185.376 171.251C194.705 173.142 203.958 175.723 212.501 179.922C221.044 184.12 228.884 190.008 234.487 197.704C242.597 208.844 251.717 219.249 261.698 228.749C262.513 228.46 263.064 227.562 262.952 226.704C263.523 227.615 264.603 228.18 265.676 228.131L265.77 225.937C266.495 226.526 267.627 226.541 268.368 225.971C266.915 223.308 264.778 221.021 262.22 219.391L264.036 219.275C264.741 218.47 263.736 217.315 262.837 216.734L252.267 209.914C255.456 213.175 259.21 215.882 263.31 217.881ZM46.0692 203.603C51.6865 202.608 57.478 201.545 62.2465 198.413C64.7723 196.755 66.8923 194.591 69.0143 192.425L69.0144 192.425L69.0145 192.424C70.0218 191.396 71.0296 190.368 72.0814 189.392C79.1603 182.829 88.4273 178.666 98.036 177.735C89.1202 185.997 84.4877 198.653 85.9633 210.718C86.2021 212.67 86.59 214.604 86.9777 216.537L86.9778 216.537C87.5439 219.359 88.1095 222.179 88.2093 225.05C88.2813 227.122 88.1095 229.201 87.9378 231.277C87.6927 234.241 87.4482 237.199 87.9152 240.123C89.0262 247.081 93.8057 252.475 98.5859 257.87C100.415 259.934 102.244 261.998 103.868 264.151C106.169 267.2 108.14 270.625 108.722 274.4C109.164 277.262 108.787 280.19 108.179 283.022C106.791 289.482 104.192 295.679 100.557 301.196C104.519 300.313 106.689 296.144 108.274 292.407C111.192 285.523 113.954 277.865 111.701 270.736C110.791 267.856 109.13 265.32 107.467 262.779L107.467 262.779C106.698 261.605 105.929 260.431 105.234 259.221C100.392 250.803 99.1864 240.373 101.981 231.072C100.54 241.041 102.696 251.491 107.966 260.075C108.468 260.893 108.999 261.697 109.53 262.502C111.046 264.801 112.563 267.101 113.412 269.707C114.198 272.119 114.371 274.694 114.277 277.23C113.944 286.302 110.144 295.205 103.824 301.722C102.833 302.744 101.3 303.767 100.112 302.982C98.9053 302.185 99.2802 300.339 99.861 299.014C100.701 297.098 101.692 295.213 102.683 293.327C105.271 288.402 107.86 283.476 107.757 278.012C107.617 270.542 102.459 264.215 97.4041 258.713L97.1536 258.44C92.1699 253.017 86.8504 247.228 85.8142 239.954C85.3955 237.015 85.7207 234.057 86.0466 231.092C86.2705 229.055 86.4949 227.014 86.4784 224.974C86.4537 221.906 85.886 218.887 85.3177 215.865C84.9306 213.806 84.5433 211.746 84.3269 209.668C83.2007 198.85 86.9882 187.615 94.4344 179.687C86.6229 181.244 79.2465 184.93 73.3104 190.241C72.1 191.323 70.9458 192.474 69.7922 193.624L69.7921 193.624C67.5797 195.83 65.3699 198.033 62.7712 199.751C57.0955 203.501 50.1231 204.586 43.3933 205.581C42.9385 204.995 43.5479 204.191 44.1123 203.71L61.9494 188.486C56.7907 190.884 51.0713 192.066 45.3845 191.909C46.1669 191.369 46.9557 190.835 47.7453 190.3C51.9716 187.438 56.2182 184.562 59.5964 180.757C63.6057 176.242 66.2782 170.052 64.9519 164.161C63.6255 158.27 57.2674 153.465 51.5081 155.279C50.1279 155.714 48.8877 156.466 47.6452 157.221C46.6611 157.818 45.6756 158.416 44.618 158.858C46.7444 150.579 55.6752 145.838 64.1298 144.584C68.2152 143.978 72.3556 143.944 76.4949 143.91H76.495C80.9217 143.873 85.3471 143.837 89.7023 143.101C85.2103 145.857 79.8499 145.661 74.4508 145.464C71.8905 145.371 69.3215 145.277 66.8322 145.498C59.1748 146.176 51.862 150.126 47.0958 156.158C51.6597 151.495 60.3436 153.186 64.0708 158.54C67.7981 163.895 67.1482 171.414 63.9476 177.099C60.747 182.784 55.4199 186.945 49.9454 190.494C58.4863 189.341 66.5066 184.715 71.7814 177.899C64.9927 188.031 56.2036 196.817 46.0692 203.603ZM256.078 280.129C251.802 285.352 244.74 287.506 238 287.872C230.863 288.259 223.638 286.93 217.107 284.027C215.784 283.44 214.48 282.782 213.342 281.889C212.347 281.109 211.497 280.163 210.656 279.22C201.444 268.887 192.453 257.935 187.626 244.96C186.837 242.839 186.155 240.605 186.345 238.35C189.055 246.628 192.957 254.516 197.893 261.693C201.345 266.713 205.289 271.372 209.225 276.022C210.635 277.688 212.055 279.364 213.735 280.757C217.554 283.926 222.475 285.444 227.353 286.356C235.657 287.909 244.852 287.732 251.78 282.898C252.138 282.647 252.49 282.385 252.842 282.123C253.868 281.359 254.894 280.594 256.078 280.129ZM191.822 99.0904C192.303 99.9793 192.744 100.889 193.146 101.817C193.357 100.708 192.998 99.5054 192.212 98.6943L191.822 99.0904ZM192.033 112.237C192.599 110.704 193.173 109.12 193.107 107.487C193.097 107.237 193.131 106.903 193.378 106.858C194.122 108.704 193.75 110.952 192.449 112.459L192.033 112.237ZM182.488 102.663C184.345 102.663 186.2 103.012 187.93 103.687C186.403 102.536 184.454 101.959 182.546 102.092C181.884 102.138 181.32 102.773 181.353 103.436C181.385 104.098 182.008 104.675 182.671 104.657C182.66 104.366 182.457 104.139 182.257 103.915C182.203 103.855 182.15 103.795 182.101 103.734C181.868 103.448 181.741 102.961 182.047 102.754C182.173 102.669 182.336 102.663 182.488 102.663ZM298.05 280.241C296.295 279.606 294.493 279.109 292.693 278.613L285.563 276.646C274.168 273.503 262.341 270.332 250.671 272.211C248.837 272.507 246.994 272.925 245.151 273.344C240.111 274.489 235.065 275.636 230.174 274.267C229.766 274.153 229.325 273.576 229.724 273.433C234.724 274.795 239.899 273.672 245.04 272.556C246.539 272.231 248.034 271.907 249.521 271.645C254.83 270.709 260.279 270.574 265.628 271.246C270.663 271.879 275.58 273.217 280.477 274.551L294.584 278.393C296.368 278.879 298.155 279.365 299.885 280.016C303.557 281.395 306.95 283.511 309.804 286.202C309.467 286.495 308.962 286.45 308.519 286.386C293.744 284.261 279.165 280.776 265.025 275.99C256.911 273.243 247.353 275.351 241.146 281.255C245.859 281.9 250.737 281.296 255.149 279.521C253.125 281.074 250.646 282.028 248.103 282.232C246.754 282.34 245.372 282.248 243.995 282.157C241.46 281.988 238.946 281.82 236.705 282.908L240.412 280.426C244.929 277.402 249.699 274.285 255.112 273.799C259.399 273.413 263.624 274.727 267.745 276.008C267.939 276.068 268.134 276.129 268.327 276.189C281.065 280.137 294.092 283.152 307.269 285.202C304.46 283.11 301.343 281.433 298.05 280.241ZM184.53 193.518C186.343 196.681 187.394 200.279 187.568 203.921C187.693 206.528 187.377 209.121 187.061 211.717C186.835 213.566 186.61 215.416 186.544 217.274C186.221 226.29 189.654 235.045 194.034 242.933C198.86 251.625 205.295 259.957 214.35 264.061C223.405 268.165 235.494 266.801 241.429 258.825C235.141 260.517 228.202 259.64 222.532 256.437C227.525 256.945 232.809 255.173 236.127 251.407C239.445 247.642 240.498 241.882 238.297 237.372C236.095 232.862 230.55 230.121 225.735 231.537C220.92 232.953 217.714 238.676 219.407 243.4C220.172 245.532 221.878 247.376 224.051 248.015C226.223 248.654 228.811 247.922 230.105 246.063C232.319 242.883 229.789 238.177 226.189 236.745C229.912 235.871 233.872 239.256 233.942 243.08C234.011 246.903 230.576 250.322 226.763 250.622C222.951 250.921 219.203 248.379 217.675 244.874C216.147 241.368 216.707 237.142 218.721 233.892C221.123 230.016 225.518 227.481 230.071 227.237C234.625 226.992 239.223 229.004 242.216 232.444C246.457 237.319 247.245 244.297 246.927 250.751C246.503 259.379 254.537 267.455 263.167 267.076C270.516 266.753 277.942 268.412 284.456 271.831C282.887 267.127 277.773 264.667 273.012 263.281C272.308 263.076 271.595 262.88 270.878 262.683C266.749 261.547 262.528 260.386 259.544 257.394C256.499 254.34 255.427 250.116 254.345 245.849C253.708 243.34 253.068 240.817 252.021 238.508C253.091 246.569 254.774 255.646 261.593 260.076C264.173 261.751 267.184 262.525 270.184 263.296L270.185 263.296C270.997 263.504 271.808 263.713 272.609 263.939C276.371 264.999 280.269 266.699 282.281 270.051C278.067 267.216 272.833 266.871 267.686 266.532L267.685 266.532C266.572 266.459 265.464 266.386 264.371 266.288C258.219 265.737 251.274 263.568 248.939 257.85C247.914 255.342 247.98 252.589 248.045 249.85C248.064 249.051 248.084 248.253 248.075 247.462C247.982 238.311 242.82 228.377 233.899 226.338C227.693 224.919 220.731 227.996 217.602 233.54C215.417 237.413 215.133 242.432 217.339 246.293C219.545 250.154 224.361 252.495 228.663 251.368C232.965 250.242 236.079 245.416 234.901 241.128C233.722 236.84 228.076 234.326 224.297 236.67C226.122 237.346 227.909 238.332 229.057 239.903C230.205 241.475 230.573 243.729 229.546 245.382C227.695 248.363 222.635 247.318 220.844 244.301C218.656 240.615 220.372 235.313 224.137 233.262C227.901 231.212 232.991 232.401 235.788 235.65C238.584 238.899 239.091 243.8 237.424 247.75C235.814 251.565 232.284 254.511 228.242 255.412C224.2 256.313 219.752 255.146 216.674 252.376C215.959 253.39 217.064 254.687 218.095 255.378C223.549 259.033 230.066 261.082 236.63 261.205C229.897 266.431 219.938 265.811 212.515 261.624C205.092 257.436 199.789 250.325 195.424 243.005C191.363 236.196 187.841 228.743 187.615 220.818C187.533 217.948 187.887 215.095 188.241 212.241C188.513 210.053 188.785 207.865 188.86 205.665C189.035 200.596 187.932 195.08 184.118 191.736C172.559 204.443 167.818 223.016 171.871 239.709C173.965 248.333 178.195 256.284 182.824 263.856C183.152 264.392 183.482 264.928 183.813 265.465C186.629 270.031 189.471 274.64 190.886 279.797C192.468 285.56 191.955 292.286 187.962 296.732C189.715 289.395 188.083 281.319 183.617 275.239C182.044 273.097 180.161 271.217 178.277 269.336L178.277 269.336C176.651 267.714 175.025 266.09 173.596 264.298C168.434 257.819 166.166 249.568 164.02 241.566C164.798 252.879 170.228 263.802 178.778 271.252C186.802 278.244 189.822 290.419 185.996 300.35C190.47 296.36 193.049 290.33 192.844 284.338C192.586 276.828 188.374 270.341 184.204 263.919C183.053 262.145 181.905 260.377 180.844 258.593C174.878 248.562 171.38 236.936 171.738 225.271C172.096 213.606 176.464 201.952 184.53 193.518Z" fill="#00160A"/>
</svg>
