<svg width="350" height="350" viewBox="0 0 350 350" fill="none" xmlns="http://www.w3.org/2000/svg">
<rect width="350" height="350" fill="white"/>
<path fill-rule="evenodd" clip-rule="evenodd" d="M140.314 266.316C189.199 280.063 212.986 227.307 254.872 231.321C277.8 233.518 323.502 244.654 323.4 163.535C323.145 111.165 274.874 98.0511 225.097 124.909C210.45 130.637 198.886 128.861 186.33 123.17C173.774 117.478 157.626 92.0701 127.192 86.843C35.604 71.1128 -42.761 214.832 140.314 266.316Z" fill="#FFCD4B"/>
<path fill-rule="evenodd" clip-rule="evenodd" d="M256.484 134.561C257.401 134.115 259.047 134.98 258.092 136.372C255.979 139.454 264.153 145.61 261.529 140.185C261.249 139.605 259.81 135.594 261.845 137.665C263.881 139.735 266.72 148.886 264.884 152.039C263.273 154.806 259.009 156.122 253.189 156.278L252.927 156.284L252.803 156.292C249.373 156.451 246.771 154.328 245.092 150.193L245.011 149.991C243.311 145.663 243.777 142.193 246.526 139.853C246.576 139.811 246.63 139.773 246.686 139.739L246.772 139.693L256.484 134.561Z" fill="white"/>
<path fill-rule="evenodd" clip-rule="evenodd" d="M71.1319 53.5568C70.7317 52.9889 70.0832 52.6619 69.3907 52.7467C68.6814 52.8327 68.0883 53.3259 67.8726 54.0063L67.815 54.1883C67.7714 54.3226 67.7194 54.4764 67.6584 54.6494C67.4844 55.1433 67.2734 55.6915 67.0242 56.2811C66.3157 57.9572 65.4435 59.6301 64.4025 61.1864C62.1564 64.5441 59.4501 66.8816 56.2777 67.7818C55.7818 67.9226 55.4938 68.4386 55.6346 68.9345C55.706 69.1862 60.3393 71.5018 65.0692 70.918C69.6571 70.3518 74.3464 66.893 74.3842 66.6576L74.442 66.1675L74.4583 66.0033C74.7869 62.4397 74.1632 58.4143 71.7635 54.5149C71.5642 54.1909 71.3537 53.8715 71.1319 53.5568Z" fill="#E7EAEE"/>
<path fill-rule="evenodd" clip-rule="evenodd" d="M80.6792 54.5935L80.6548 54.782C80.3225 57.1945 79.3911 60.5542 77.7068 63.0885C75.6331 66.2087 72.7065 68.5949 69.7657 70.1327C65.5231 72.3509 60.905 72.757 56.358 69.8752L56.1574 69.7461C53.7679 68.1832 51.9547 67.4307 49.4667 68.0517C46.9787 68.6727 45.7703 70.4847 44.6962 72.1659L44.647 72.237C44.4749 72.467 44.223 72.6263 43.9392 72.6824L39.2219 73.4296L40.9398 75.5636C41.4568 76.2105 41.8243 76.6769 42.0423 76.9627L43.9305 79.4501C49.5578 86.8305 55.6137 93.8773 67.4231 91.4379L67.8234 91.352C70.9521 90.6566 73.5753 92.5244 76.8661 95.2775L77.5692 95.8695C78.4398 96.6062 81.0715 98.9264 82.1487 100.043L82.5007 100.413L82.8255 100.762C82.8932 100.836 82.9577 100.907 83.0188 100.974L83.3546 101.353L83.5607 101.11C85.7885 98.4277 87.1836 94.3432 87.9059 90.9738C88.1788 89.7007 88.3354 88.4817 88.4005 87.357L88.4086 87.2105C88.4255 86.8817 88.4331 86.5947 88.4343 86.3549V86.177L88.0978 86.2757C84.2028 87.3803 79.8206 87.49 75.5445 86.9967C74.5116 86.8776 85.8429 77.7 83.517 65.8145C82.9869 63.1056 82.6505 59.4838 81.7247 57.0255C81.4327 56.2502 81.13 55.5412 80.8301 54.9072L80.6792 54.5935Z" fill="white"/>
<path fill-rule="evenodd" clip-rule="evenodd" d="M256.977 136.029L247.282 140.742C244.959 142.719 244.563 145.66 246.097 149.565C246.635 150.934 247.981 154.198 247.981 152.916C247.981 152.515 256.977 146.635 258.703 147.211C260.299 147.742 257.432 142.947 256.628 140.742L256.977 135.909L257.243 135.427" fill="#E7EAEE"/>
<path fill-rule="evenodd" clip-rule="evenodd" d="M244.042 139.566C244.687 139.566 241.036 141.283 241.224 144.45C241.412 147.617 243.887 153.453 243.285 153.683C242.683 153.913 241.542 152.212 241.312 151.61C239.881 147.865 239.61 146.337 239.661 144.152C239.728 141.293 241.232 139.566 244.042 139.566Z" fill="#E7EAEE"/>
<ellipse cx="260.289" cy="142.703" rx="2.52007" ry="5.69295" fill="#E7EAEE"/>
<path fill-rule="evenodd" clip-rule="evenodd" d="M84.2646 202.727C84.2646 192.849 85.3621 188.555 97.1475 183.164C121.302 173.4 121.302 173.024 167.577 155.133C179.815 150.426 205.615 161.702 216.834 156.976C224.313 153.826 231.307 151.487 237.487 148.362C238.085 152.27 241.953 158.885 243.315 160.023C236.079 161.541 229.08 163.889 222.317 167.068C207.696 173.938 216.36 172.066 193.203 193.904C191.24 195.755 184.028 199.974 173.601 204.37C173.601 204.37 152.601 201.55 144.178 198.046C135.607 194.481 122.619 183.164 122.619 183.164C122.619 183.164 107.471 193.046 98.762 197.488C94.6858 199.567 84.2646 202.727 84.2646 202.727Z" fill="white"/>
<path fill-rule="evenodd" clip-rule="evenodd" d="M84.2646 197.594C84.2646 195.276 84.0197 193.657 84.2646 191.867C85.0632 186.032 88.1928 183.047 97.212 178.921C121.367 169.158 121.302 167.891 167.577 150C179.815 145.293 205.615 156.568 216.834 151.843C224.313 148.693 231.307 146.353 237.487 143.229C237.504 143.341 236.861 148.681 236.861 148.681C236.861 148.681 221.606 156.736 211.516 158.444C200.794 160.259 186.068 151.843 171.364 155.982C148.971 162.286 97.3683 182.099 91.2638 187.064C86.4672 190.965 84.2646 197.594 84.2646 197.594Z" fill="#E7EAEE"/>
<path fill-rule="evenodd" clip-rule="evenodd" d="M71.1319 53.5568C70.7317 52.9889 70.0832 52.6619 69.3907 52.7467C68.6814 52.8327 68.0883 53.3259 67.8726 54.0063L67.815 54.1883C67.7714 54.3226 67.7194 54.4764 67.6584 54.6494C67.4844 55.1433 67.2734 55.6915 67.0242 56.2811C66.3157 57.9572 65.4435 59.6301 64.4025 61.1864C62.1564 64.5442 59.4501 66.8816 56.2777 67.7818C55.7818 67.9226 55.4938 68.4386 55.6346 68.9345C55.7753 69.4304 63.4833 65.9178 65.9541 62.2242C67.0663 60.5615 67.9919 58.786 68.7436 57.0079C68.9703 56.4714 69.1677 55.9661 69.3368 55.4997L69.419 55.2698C69.4852 55.082 69.5421 54.9136 69.5904 54.7648C69.6026 54.6587 69.6139 54.6232 69.6244 54.6583C74.9713 58.3163 72.8694 67.3944 73.3829 67.4385C73.8732 67.4806 74.3074 67.1358 74.3842 66.6576L74.442 66.1675L74.4583 66.0033C74.7869 62.4397 74.1632 58.4143 71.7635 54.5149C71.5642 54.1909 71.3537 53.8715 71.1319 53.5568Z" fill="#E7EAEE"/>
<path fill-rule="evenodd" clip-rule="evenodd" d="M82.2652 53.5293L82.3831 53.7396L82.5268 54.0095C82.6133 54.1757 82.7106 54.3685 82.8164 54.5862C83.1832 55.3408 83.5536 56.1946 83.9083 57.1364C84.9066 59.7871 85.6046 62.6479 85.8429 65.6284C86.1662 69.673 85.5824 73.4901 84.1038 76.9626L83.9772 77.2541C82.7759 79.9667 81.0258 82.4522 78.754 84.6821L78.5288 84.9001L78.7203 84.9094C81.9918 85.0468 85.2271 84.754 88.0712 83.8471C88.6811 83.6527 89.3461 83.7531 89.8716 84.1185C90.396 84.4833 90.7217 85.0703 90.7546 85.7082L90.762 85.9062L90.7667 86.1679V86.2686C90.7667 86.6338 90.7559 87.0431 90.73 87.4918C90.6582 88.7308 90.4865 90.0674 90.1874 91.4627C89.3424 95.4046 87.6529 99.0965 84.8916 102.207C84.5252 102.62 84.0096 102.868 83.4615 102.897L83.3348 102.9C82.7496 102.889 82.2152 102.647 81.8353 102.234L81.5571 101.911L81.4207 101.756L81.1308 101.434L80.8134 101.091C80.703 100.974 80.5883 100.853 80.4693 100.73C79.4554 99.6784 78.3365 98.6361 77.1481 97.6771C73.854 95.0191 70.6767 93.5184 67.9631 93.681C63.5243 93.9477 59.8484 93.7404 56.4382 92.7835C52.0294 91.5466 48.5675 89.1194 46.2765 85.2557L46.1481 85.0355C44.962 82.967 43.2102 80.5842 41.1439 78.1041C40.5053 77.3377 39.8754 76.6089 39.275 75.9348L39.0196 75.6494C38.6106 75.1944 38.2755 74.8318 38.1351 74.6842C37.6165 74.1378 37.4363 73.3537 37.6628 72.6368L37.6961 72.5399C37.945 71.8699 38.5238 71.3735 39.2293 71.2343L43.0122 70.4867L43.0563 70.4229C44.4098 68.4989 46.3425 66.8692 48.9097 66.2128C51.5875 65.5281 54.4053 66.1234 57.2431 67.924L57.4411 68.0516C61.2737 70.5582 65.0727 70.4199 68.6845 68.5315C71.2644 67.1824 73.7233 64.8918 75.5866 62.0883C77.319 59.4817 78.3487 56.6952 78.4222 54.4959C78.4528 53.5768 79.0868 52.7876 79.9784 52.5626C80.8707 52.337 81.8039 52.7322 82.2652 53.5293ZM80.6792 54.5934L80.6548 54.7819C80.3224 57.1944 79.3911 60.5541 77.7067 63.0884C75.633 66.2086 72.7065 68.5948 69.7657 70.1325C65.5231 72.3508 60.905 72.7569 56.358 69.8751L56.1574 69.7459C53.7679 68.1831 51.9547 67.4306 49.4666 68.0516C46.9786 68.6726 45.7702 70.4846 44.6962 72.1658L44.647 72.2369C44.4748 72.4669 44.223 72.6262 43.9392 72.6823L39.2219 73.4295L40.9398 75.5635C41.4568 76.2104 41.8243 76.6768 42.0423 76.9626L43.9305 79.45C49.5578 86.8304 55.6137 93.8772 67.4231 91.4377L67.8233 91.3519C70.9521 90.6565 73.5753 92.5243 76.8661 95.2774L77.5692 95.8694C78.4398 96.6061 81.0715 98.9263 82.1487 100.043L82.5007 100.413L82.8255 100.762C82.8931 100.836 82.9577 100.906 83.0188 100.974L83.3546 101.353L83.5607 101.109C85.7884 98.4276 87.1836 94.3431 87.9058 90.9737C88.1787 89.7006 88.3354 88.4816 88.4005 87.3569L88.4085 87.2104C88.4255 86.8816 88.433 86.5946 88.4343 86.3548V86.1769L88.0978 86.2755C84.2028 87.3802 79.8206 87.4899 75.5445 86.9966C74.5116 86.8775 85.8429 77.6999 83.517 65.8144C82.9869 63.1055 82.6505 59.4837 81.7246 57.0254C81.4327 56.2501 81.13 55.5411 80.8301 54.9071L80.6792 54.5934Z" fill="#E7EAEE"/>
<path fill-rule="evenodd" clip-rule="evenodd" d="M51.1001 75.5999C52.0007 75.5999 52.7334 74.8672 52.7334 73.9666C52.7334 73.0659 52.0007 72.3333 51.1001 72.3333C50.1994 72.3333 49.4667 73.0659 49.4667 73.9666C49.4667 74.8671 50.1994 75.5999 51.1001 75.5999Z" fill="#00160A"/>
<ellipse cx="52.5" cy="80.0333" rx="2.56667" ry="2.1" fill="#FFD98A"/>
<ellipse cx="52.5" cy="80.0333" rx="2.56667" ry="2.1" fill="#FFD98A"/>
<path fill-rule="evenodd" clip-rule="evenodd" d="M82.2654 53.5293L82.3832 53.7396L82.5269 54.0095C82.6135 54.1757 82.7107 54.3685 82.8165 54.5862C83.1833 55.3408 83.5537 56.1946 83.9084 57.1364C84.9067 59.7871 85.6047 62.6479 85.843 65.6284C86.1664 69.673 85.5825 73.4901 84.1039 76.9626L83.9773 77.2541C82.7761 79.9667 81.0259 82.4522 78.7541 84.6821L78.5289 84.9001L78.7204 84.9094C81.9919 85.0468 85.2272 84.754 88.0714 83.8471C88.6813 83.6527 89.3462 83.7531 89.8717 84.1185C90.3961 84.4833 90.7219 85.0703 90.7547 85.7082L90.7622 85.9062L90.7668 86.1679V86.2686C90.7668 86.6338 90.7561 87.0431 90.7301 87.4918C90.6583 88.7308 90.4866 90.0674 90.1875 91.4627C89.3425 95.4046 87.6531 99.0965 84.8918 102.207C84.5253 102.62 84.0097 102.868 83.4617 102.897L83.335 102.9C82.7497 102.889 82.2153 102.647 81.8354 102.234L81.5573 101.911L81.4209 101.756L81.131 101.434L80.8135 101.091C80.7032 100.974 80.5884 100.853 80.4694 100.73C79.4555 99.6784 78.3367 98.6361 77.1482 97.6771C73.8541 95.0191 70.6768 93.5184 67.9633 93.681C63.5244 93.9477 59.8486 93.7404 56.4383 92.7835C52.0295 91.5466 48.5676 89.1194 46.2766 85.2557L46.1482 85.0355C44.9621 82.967 43.2104 80.5842 41.144 78.1041C40.5054 77.3377 39.8755 76.6089 39.2752 75.9348L39.0197 75.6494C38.6107 75.1944 38.2756 74.8318 38.1352 74.6842C37.6166 74.1378 37.4364 73.3537 37.6629 72.6368L37.6962 72.5399C37.9451 71.8699 38.5239 71.3735 39.2294 71.2343L43.0123 70.4867L43.0564 70.4229C44.41 68.4989 46.3426 66.8692 48.9099 66.2128C51.4369 65.5666 54.0886 66.0604 56.7641 67.6313C59.7277 66.6381 62.2721 64.3712 64.4026 61.1863C65.4436 59.63 66.3157 57.9571 67.0242 56.281C67.2735 55.6914 67.4844 55.1432 67.6585 54.6494C67.7194 54.4764 67.7714 54.3225 67.815 54.1882L67.8727 54.0062C68.0884 53.3258 68.6815 52.8327 69.3907 52.7466C70.0833 52.6618 70.7318 52.9888 71.132 53.5567C71.3538 53.8714 71.5642 54.1909 71.7635 54.5148C73.6263 57.5417 74.4189 60.6445 74.5267 63.5483C74.8974 63.0799 75.2517 62.5924 75.5867 62.0883C77.3191 59.4817 78.3489 56.6952 78.4223 54.4959C78.453 53.5768 79.0869 52.7876 79.9785 52.5626C80.8709 52.337 81.804 52.7322 82.2654 53.5293ZM68.6846 68.5315C65.1763 70.3658 61.4914 70.5489 57.7706 68.2605C60.2758 67.1022 64.2953 64.704 65.9541 62.2241C67.0664 60.5614 67.992 58.786 68.7436 57.0078C68.9704 56.4714 69.1677 55.966 69.3368 55.4997L69.419 55.2698C69.4852 55.0819 69.5421 54.9135 69.5904 54.7648C69.6026 54.6587 69.6139 54.6232 69.6245 54.6583C73.1786 57.0897 73.4415 61.9162 73.3691 64.8922C71.9405 66.4166 70.3374 67.6672 68.6846 68.5315ZM69.7658 70.1325C71.1895 69.3881 72.6098 68.4448 73.9317 67.3157C74.0333 67.2565 74.1232 67.1785 74.1962 67.0861C75.5026 65.9337 76.7044 64.5968 77.7069 63.0884C79.3912 60.5541 80.3226 57.1944 80.6549 54.7819L80.6793 54.5934L80.8303 54.9071C81.1301 55.5411 81.4328 56.2501 81.7248 57.0254C82.3691 58.7362 82.7279 61.0105 83.0652 63.1484C83.2126 64.0826 83.3559 64.9907 83.5171 65.8144C85.2998 74.9241 79.0595 82.443 76.5126 85.5118C75.7366 86.4469 75.3034 86.9688 75.5447 86.9966C79.8207 87.4899 84.2029 87.3802 88.0979 86.2755L88.4344 86.1769V86.3548C88.4332 86.5946 88.4256 86.8816 88.4087 87.2104L88.4007 87.3569C88.3355 88.4816 88.1789 89.7006 87.906 90.9737C87.1837 94.3431 85.7886 98.4276 83.5608 101.109L83.3547 101.353L83.019 100.974C82.9578 100.906 82.8933 100.836 82.8256 100.762L82.5009 100.413L82.1489 100.043C81.0716 98.9263 78.4399 96.6061 77.5693 95.8694L76.8663 95.2774C73.5754 92.5243 70.9523 90.6565 67.8235 91.3519L67.4232 91.4377C55.6138 93.8772 49.5579 86.8304 43.9306 79.45L42.0424 76.9626C41.8245 76.6768 41.4569 76.2104 40.9399 75.5635L39.222 73.4295L43.9393 72.6823C44.2232 72.6262 44.475 72.4669 44.6471 72.2369L44.6964 72.1658C45.7704 70.4846 46.9788 68.6726 49.4668 68.0516C51.9548 67.4306 53.768 68.1831 56.1575 69.7459L56.3581 69.8751C60.9052 72.7569 65.5232 72.3508 69.7658 70.1325ZM256.484 134.561C257.401 134.115 259.047 134.98 258.092 136.372C256.647 138.479 258.253 143.371 259.231 146.351C259.683 147.73 260.001 148.699 259.82 148.793C259.249 149.092 258.545 148.871 258.246 148.3C256.63 145.208 255.702 142.752 255.471 140.885C255.355 139.957 255.33 139.058 255.395 138.191L255.403 138.091L247.932 141.723L247.838 141.81C246.151 143.392 245.409 145.229 246.643 148.482L246.716 148.671C248.056 152.083 250.324 154.53 252.684 154.428L252.868 154.418C258.112 154.313 261.246 152.735 262.365 150.814C263.772 148.398 264.153 145.609 261.529 140.185C261.249 139.605 259.81 135.594 261.846 137.665C263.882 139.735 266.72 148.886 264.884 152.039C263.351 154.671 259.419 155.99 254.029 156.247C254.061 156.384 254.068 156.529 254.046 156.677C253.535 160.142 251.954 162.321 249.31 162.951C247.288 163.434 245.114 162.795 243.124 161.256C236.13 162.758 229.36 165.047 222.813 168.123L221.843 168.583C218.503 170.178 216.588 171.248 215.189 172.287C214.368 172.897 213.691 173.522 212.962 174.325L212.845 174.459C212.491 174.869 211.721 175.81 210.845 176.88L210.844 176.881L210.844 176.882L210.843 176.882L210.843 176.882L210.842 176.884L210.84 176.886C209.673 178.311 208.32 179.964 207.512 180.899L207.122 181.349C203.836 185.113 199.695 189.385 194.003 194.753L193.844 194.899C191.71 196.806 186.039 200.03 178.967 203.281C198.483 202.588 212.556 195.139 221.32 180.921C221.706 180.295 222.567 180.178 223.106 180.677C238.176 194.634 255.638 201.093 275.558 200.085C295.531 199.073 310.188 193.882 319.574 184.562C320.031 184.108 320.77 184.111 321.224 184.568C321.678 185.025 321.675 185.764 321.218 186.218C311.372 195.995 290.468 203.331 269.967 204.37C250.031 205.379 238.135 197.164 222.925 183.663L222.554 183.33L222.42 183.535C212.787 198.134 191.859 208.782 170.973 208.932L170.318 208.935C148.956 208.935 136.635 198.591 122.222 184.453L122.11 184.342L122.059 184.386L121.359 184.974L120.8 185.445C107.295 196.81 97.218 205.29 82.06 207.456L81.5765 207.524C64.4854 210.982 38.5649 201.771 34.5816 197.256C30.9319 193.119 35.189 195.691 36.3576 196.397C36.4644 196.461 36.5454 196.51 36.5922 196.537C47.9042 203.013 60.9465 205.48 76.5945 203.345C78.7541 203.051 80.9 202.661 83.0322 202.175L83.0075 201.946C82.3243 195.456 82.3203 192.62 83.3048 189.365C84.6439 184.937 87.895 181.572 93.7433 178.897L95.3536 178.185C102.578 175.001 108.315 172.611 114.266 170.289L114.701 170.119C115.369 169.859 116.045 169.598 116.735 169.333L117.412 169.075C117.656 168.989 120.844 167.725 125.69 165.804L125.691 165.804C136.869 161.372 156.868 153.444 169.915 148.399C172.737 147.314 176.154 146.953 180.346 147.17L180.707 147.19C183.847 147.374 186.936 147.801 191.999 148.677L196.447 149.456C201.415 150.316 203.822 150.655 206.632 150.855C207.515 150.918 208.355 150.996 209.153 151.07C212.108 151.345 214.486 151.566 216.381 150.768C218.066 150.058 219.719 149.372 221.338 148.701C226.633 146.504 231.572 144.455 236.156 142.177C236.47 140.138 237.273 138.633 238.532 137.642C240.474 136.113 243.222 136.088 245.605 137.015C246.206 137.248 246.503 137.924 246.27 138.525C246.194 138.719 245.709 138.63 245.022 138.503C243.586 138.238 241.269 137.811 239.976 139.475C238.537 141.327 238.06 144.164 239.333 149.75C240.256 153.798 246.241 160.682 248.769 160.682C251.587 160.682 252.246 157.946 252.62 156.394L252.643 156.297C249.291 156.384 246.745 154.263 245.092 150.193L245.011 149.991C243.311 145.662 243.777 142.193 246.526 139.853C246.576 139.811 246.63 139.773 246.686 139.739L246.772 139.693L256.484 134.561ZM240.971 159.147C240.853 159.004 240.736 158.857 240.621 158.708C240.577 158.661 240.535 158.614 240.499 158.57L240.425 158.48L240.387 158.434L240.337 158.374L240.172 158.176C239.268 157.09 238.22 155.832 237.4 154.017L237.281 153.752C235.965 150.804 235.808 147.493 235.889 144.763L235.901 144.445L235.832 144.481C230.394 147.172 224.48 149.871 218.088 152.579L217.287 152.918C214.55 154.071 211.132 154.885 206.801 154.605L206.466 154.582C203.507 154.371 201.018 154.018 195.799 153.112L191.903 152.428C180.92 150.527 175.423 150.23 170.894 151.924C170.894 151.924 103.352 177.331 94.7015 181.025C89.4405 183.431 87.6556 185.696 85.4799 189.365C84.3546 191.263 84.4683 196.498 84.5474 200.134L84.5474 200.135C84.5607 200.745 84.5729 201.31 84.5782 201.806C97.3493 198.612 109.626 191.972 121.415 181.872C121.879 181.474 122.573 181.502 123.003 181.937C123.957 182.902 124.927 183.833 125.912 184.732L174.55 164.412C174.684 164.356 174.822 164.327 174.958 164.322C175.324 164.149 175.719 164.006 176.143 163.894C180.384 162.766 183.771 164.6 186.111 169.116L190.351 166.023C190.976 165.567 191.864 165.835 192.132 166.561C196.001 177.017 194.874 184.181 188.503 187.638C182.079 191.124 176.492 188.249 172.136 179.536C171.915 179.094 172.002 178.583 172.308 178.239C171.27 174.021 171.077 170.66 171.783 168.226L129.17 187.537C135.542 192.711 142.539 196.612 150.166 199.244C150.34 199.077 150.529 198.933 150.715 198.832C157.139 195.313 172.967 191.202 176.876 190.187L176.883 190.185C177.218 190.098 177.464 190.034 177.609 189.995C179.444 189.504 177.564 191.218 177.011 191.473L176.94 191.503L153.839 200.399C160.711 202.357 168.07 203.335 175.918 203.335C176.365 203.335 176.808 203.331 177.249 203.325L177.766 202.989C182.706 199.778 190.968 194.408 192.402 193.055L193.071 192.422C197.828 187.807 201.367 183.38 204.457 179.515C207.848 175.274 210.696 171.711 214.015 169.321C216.596 167.463 217.531 167.038 219.73 166.041L219.73 166.04L219.732 166.04L219.734 166.039L219.736 166.038C220.323 165.771 220.999 165.464 221.821 165.078C227.651 162.338 234.272 160.752 240.488 159.263L240.971 159.147ZM176.743 166.149C180.103 165.255 182.62 166.833 184.539 171.24L184.599 171.541C185.309 175.2 185.004 177.248 184.032 177.793C183.114 178.308 182.211 177.806 181.041 175.701C180.97 175.567 180.874 175.452 180.763 175.359C180.443 175.092 179.993 175.008 179.586 175.169L179.579 175.171L179.577 175.172L174.455 177.193L174.327 176.631C172.924 170.273 173.838 166.921 176.743 166.149ZM120.278 219.144C120.82 218.795 124.56 216.97 121.229 220.4C117.899 223.83 91.9596 238.381 77.9577 239.187C64.4622 239.963 52.4799 234.327 42.055 226.95L41.7095 226.704L41.6406 226.793C41.1791 227.378 40.7049 227.909 40.2176 228.385L40.0079 228.586C39.1249 229.416 37.5966 230.354 35.3885 231.444C34.8108 231.73 32.7696 231.992 33.8258 230.915C34.8821 229.838 37.194 228.287 38.5404 227.398C39.4203 226.817 39.6982 226.137 39.9739 225.463C40.1201 225.105 40.2656 224.749 40.4999 224.41C40.8763 223.866 41.6297 223.743 42.1593 224.14C52.4365 231.843 64.4421 235.949 77.9577 235.171C91.5291 234.39 105.545 228.623 120.278 219.144ZM200.101 226.582C200.574 226.145 200.574 223.028 200.101 223.465C194.859 228.302 183.884 232.556 170.342 233.336C156.782 234.116 146.122 231.984 138.339 226.98C137.797 226.631 135.115 225.71 136.727 227.33C138.339 228.951 156.462 237.405 170.476 236.599L170.896 236.574C184.704 235.731 194.439 231.806 200.101 226.582ZM190.529 169.042L190.459 168.832L186.946 171.395L187.01 171.757C187.717 175.889 187.235 178.589 185.276 179.768L185.173 179.828C183.131 180.973 181.209 180.164 179.602 177.811L179.532 177.707L174.808 179.614L174.917 179.813C178.528 186.328 182.529 188.14 187.238 185.668L187.391 185.587C192.12 183.021 193.285 177.783 190.692 169.55L190.529 169.042ZM52.7335 73.9666C52.7335 74.8672 52.0008 75.5999 51.1001 75.5999C50.1995 75.5999 49.4668 74.8671 49.4668 73.9666C49.4668 73.0659 50.1995 72.3333 51.1001 72.3333C52.0008 72.3333 52.7335 73.0659 52.7335 73.9666Z" fill="#00160A"/>
</svg>
