<svg width="350" height="350" viewBox="0 0 350 350" fill="none" xmlns="http://www.w3.org/2000/svg">
<rect width="350" height="350" fill="white"/>
<path fill-rule="evenodd" clip-rule="evenodd" d="M260.855 88.8292C292.442 122.087 299.34 181.246 277.33 230.125C255.32 279.004 205.932 314.2 159.375 314.183C153.103 314.183 146.892 313.659 140.851 312.508C96.0041 303.96 62.2789 260.994 60.2933 209.872C58.3078 158.751 88.2011 103.03 131.698 76.7782C175.195 50.5263 229.269 55.5709 260.855 88.8292ZM86.89 249.494C86.4625 249.6 86.1963 250.179 86.2389 250.64C86.2815 251.101 86.5392 251.466 86.7814 251.817C89.2245 255.35 90.8959 259.509 93.038 263.294C100.112 275.796 111.967 283.702 123.951 290.376C124.067 290.44 124.187 290.506 124.322 290.512C124.8 290.536 125.152 289.794 125.002 289.311C124.852 288.828 124.414 288.57 124.005 288.345C112.227 281.867 100.756 273.869 93.9711 261.504C92.9291 259.605 92.0067 257.618 90.9982 255.694C90.0191 253.826 88.9595 252.018 87.9002 250.211C87.67 249.818 87.3423 249.382 86.89 249.494ZM190.721 276.652C187.539 276.474 184.056 279.084 182.833 282.562C182.133 284.557 182.147 286.746 182.873 288.509C184.138 291.582 187.649 293.056 190.822 291.845C193.995 290.635 196.486 286.872 196.462 283.324C196.439 279.777 193.903 276.83 190.721 276.652ZM157.916 77.4979C142.192 85.5651 127.106 96.0109 114.135 109.259C101.165 122.507 90.3537 138.635 83.9198 156.317C80.2247 166.471 78.0029 176.997 76.1397 187.486C74.6733 195.74 73.4138 204.098 73.8569 212.203C74.8424 211.497 75.0551 210.052 75.1546 208.829C76.7152 189.642 79.6481 170.049 87.3095 151.793C100.513 120.33 126.829 95.7365 155.186 80.8219C156.493 80.1346 158.086 78.971 157.916 77.4979ZM123.556 260.045C123.968 261.776 125.914 262.449 127.647 262.022C129.38 261.595 130.941 260.352 132.429 259.145C148.855 245.821 165.212 232.386 181.498 218.842C183.451 217.219 185.831 218.848 187.254 220.538C195.118 229.878 200.151 241.955 208.877 250.359C209.862 251.308 210.947 252.233 212.319 252.456C213.69 252.679 215.417 251.976 216.097 250.514C216.689 249.241 216.339 247.858 215.94 246.662C210.976 231.8 200.385 220.43 195.535 205.509C195.242 204.609 194.968 203.657 195.117 202.645C195.349 201.062 196.543 199.717 197.663 198.519C199.279 196.791 200.896 195.062 202.512 193.333C204.105 191.629 205.865 189.393 205.361 187.317C205.008 185.867 203.57 185.101 202.123 185.148C200.677 185.195 199.225 185.9 197.863 186.684C194.294 188.737 190.973 191.437 188.109 194.615C187.333 195.476 186.049 195.359 185.309 194.71C184.57 194.061 184.211 193.039 183.773 192.112C182.626 189.681 180.785 187.717 178.519 186.504C176.961 185.671 174.847 185.274 173.291 186.631C172.487 187.332 171.998 188.387 171.778 189.424C170.716 194.432 175.241 198.54 173.91 203.517C173.382 205.489 172.016 207.178 170.682 208.757C159.812 221.628 147.804 233.416 134.943 243.839C130.268 247.629 125.05 251.886 123.673 257.751C123.491 258.524 123.385 259.328 123.556 260.045ZM263.246 189.897C260.495 191.28 258.469 194.63 258.472 197.789C258.475 200.949 260.508 203.668 263.26 204.197C265.976 204.718 269.184 203.072 270.864 200.296C272.543 197.52 272.568 193.821 270.924 191.53C269.256 189.208 265.998 188.514 263.246 189.897ZM93.4632 202.779C90.3149 202.117 86.5096 204.491 85.0961 207.998C83.6826 211.506 84.8503 215.677 87.6635 217.17C90.4768 218.663 94.5589 217.278 96.6393 214.125C98.0199 212.032 98.4969 209.324 97.8758 207.106C97.2547 204.887 95.5526 203.218 93.4632 202.779ZM183.461 105.966C180.722 105.422 177.482 107.003 175.708 109.75C174.201 112.082 173.796 115.126 174.679 117.479C175.562 119.832 177.702 121.408 180.112 121.481C182.522 121.554 185.114 120.12 186.694 117.842C188.192 115.681 188.738 112.833 188.102 110.497C187.466 108.16 185.667 106.404 183.461 105.966Z" fill="#FC9B64"/>
<path fill-rule="evenodd" clip-rule="evenodd" d="M252.55 171.482C251.39 171.683 250.424 170.181 250.427 168.772C250.429 167.364 251.089 166.094 251.725 164.912C252.106 164.204 252.487 163.496 252.868 162.789C253.416 164.129 253.818 165.555 254.061 167.019C254.355 168.79 254.036 171.224 252.55 171.482" fill="white"/>
<path d="M221.983 195.556C220.092 194.981 213.176 192.037 203.122 191.8C196.605 191.647 188.768 194.27 180.132 193.86C171.118 193.433 160.969 191.06 150.942 190.989C139.915 190.91 128.79 193.187 118.098 193.189C112.036 193.191 106.049 197.376 100.513 197.4C94.0492 197.427 88.1593 193.296 82.8574 193.349C71.0082 193.468 62.6599 193.647 60.4933 193.86C61.6508 191.375 68.4363 187.947 78.8229 184.586C86.1515 182.215 103.734 182.137 113.936 180.188C117.925 179.426 117.288 179.47 118.612 178.793C123.038 176.53 143.066 172.967 156.16 172.978C163.797 172.984 171.558 176.883 179.017 177.517C188.706 178.34 198.386 177.563 207.027 178.793C209.972 179.212 212.83 179.672 215.583 180.164C220.601 181.061 225.18 184.129 229.412 185.189C232.984 186.084 236.335 184.956 239.222 185.902C248.196 188.839 253.588 191.871 253.693 194.082C246.938 192.565 239.682 193.41 233.451 196.44C229.91 198.162 225.747 196.701 221.983 195.556Z" fill="white"/>
<path fill-rule="evenodd" clip-rule="evenodd" d="M221.983 195.556C212.37 192.631 202.1 191.916 192.179 193.481C189.047 193.975 185.931 194.694 182.761 194.74C178.923 194.795 175.15 193.863 171.377 193.159C149.175 189.018 126.281 192.749 104.305 197.97C99.7106 199.061 94.9696 197.462 90.4033 196.257C80.6786 193.691 70.4996 192.875 60.4933 193.86C67.0333 179.818 80.6044 170.663 93.5558 162.243C101.485 157.088 109.508 151.897 118.393 148.683C123.466 146.848 128.756 145.684 134.071 144.775C155.779 141.063 178.197 141.589 199.709 146.314C212.322 149.085 224.866 153.415 235.108 161.316C245.35 169.218 253.077 181.119 253.693 194.082C246.938 192.565 239.682 193.411 233.451 196.44C229.91 198.162 225.747 196.701 221.983 195.556ZM182.094 177.482C196.642 175.885 211.568 177.891 225.188 183.273C227.301 184.109 229.452 185.038 231.722 185.054C239.104 185.106 246.453 187.496 252.466 191.801C249.341 174.073 234.697 160.135 218.207 153.111C201.716 146.087 183.442 144.833 165.555 143.921C126.727 141.94 87.412 159.995 63.4829 190.796C77.4971 183.762 93.1607 180.076 108.825 180.126C111.911 180.136 153.824 166.399 173.928 176.402C176.615 177.036 179.351 177.784 182.094 177.482ZM101.853 197.003C125.461 189.174 151.077 187.551 175.476 192.338C178.454 192.922 181.524 193.601 184.489 192.956C199.664 189.654 215.749 190.7 230.374 195.938C227.825 192.06 224.656 188.594 221.026 185.714C221.23 184.799 222.625 185.205 223.325 185.825C226.07 188.256 228.517 191.028 230.591 194.059C231.382 195.215 233.149 194.729 234.444 194.205C239.101 192.324 244.206 191.575 249.202 192.042C243.902 188.026 237.176 185.955 230.547 186.298C228.804 186.388 227.141 185.639 225.533 184.956C212.074 179.236 197.098 177.173 182.605 179.043C180.919 179.26 179.149 179.521 177.565 178.903C166.157 174.459 153.504 175.097 141.29 175.8C134.117 176.213 126.739 176.676 120.239 179.754C118.266 180.689 116.327 181.877 114.153 182.061C112.857 182.171 111.893 183.269 111.074 184.286C107.788 188.368 104.488 192.469 101.853 197.003ZM64.914 191.981C76.0837 191.68 87.3014 193.264 97.9569 196.645C100.044 197.308 101.697 194.899 102.709 192.948C104.872 188.779 107.703 184.962 111.059 181.687C101.366 180.287 91.5927 182.892 82.1433 185.474C76.2019 187.097 70.1704 188.759 64.914 191.981Z" fill="#00160A"/>
<path fill-rule="evenodd" clip-rule="evenodd" d="M174.379 313.845C174.955 312.328 174.994 310.663 175.026 309.037C175.168 301.711 175.31 294.384 175.453 287.058C175.464 286.493 175.161 285.687 174.649 285.902C172.373 286.857 169.797 287.053 167.408 286.454C166.452 286.214 165.979 287.593 165.954 288.596C165.767 296.039 165.827 303.489 166.132 310.928C166.223 313.134 166.554 315.719 168.445 316.796C170.624 318.037 173.477 316.218 174.379 313.845Z" fill="white"/>
<path fill-rule="evenodd" clip-rule="evenodd" d="M159.159 309.037C159.301 301.711 159.444 294.384 159.586 287.058C159.597 286.493 159.295 285.687 158.782 285.902C156.506 286.857 153.931 287.053 151.541 286.454C150.585 286.214 150.112 287.593 150.087 288.596C149.9 296.039 148.56 303.489 148.866 310.928C148.956 313.134 149.287 315.719 151.178 316.796C153.357 318.037 157.61 316.218 158.512 313.845C159.089 312.328 159.127 310.663 159.159 309.037Z" fill="white"/>
<path fill-rule="evenodd" clip-rule="evenodd" d="M186.105 252.631C187.168 254.567 188.179 256.631 188.213 258.839C188.247 261.047 187.027 263.423 184.905 264.04C172.761 267.569 159.683 271.015 147.695 266.986C146.805 266.687 145.881 266.314 145.31 265.568C144.618 264.665 144.601 263.431 144.663 262.296C145.081 254.623 147.812 247.091 152.408 240.93C153.591 239.344 154.925 237.788 155.465 235.885C156.005 233.982 155.463 231.588 153.682 230.722C152.75 225.305 146.459 219.953 147.782 224.026C145.865 223.937 145.344 221.329 145.605 219.43C146.122 215.665 147.829 211.631 151.348 210.185C153.231 209.411 155.346 209.503 157.335 209.07C159.324 208.636 161.42 207.353 161.656 205.333C162.198 206.304 167.434 206.117 167.682 205.346C169.742 205.346 172.194 207.532 172.949 209.089C176.682 207.83 180.655 210.951 182.14 214.597C183.062 216.862 183.321 219.558 182.111 221.684C180.901 223.81 177.906 224.967 175.851 223.637C176.522 227.084 174.184 230.526 174.59 234.014C174.899 236.673 176.728 238.863 178.385 240.967C181.272 244.635 183.857 248.54 186.105 252.631Z" fill="white"/>
<path fill-rule="evenodd" clip-rule="evenodd" d="M149.818 193.023C148.893 190.168 147.956 187.171 147.014 186.037C146.678 188.865 146.296 191.821 144.662 194.158C143.029 196.495 139.718 197.935 137.221 196.549C135.164 195.407 134.361 192.72 134.817 190.418C135.273 188.117 136.734 186.144 138.312 184.403C142.228 180.081 147.099 176.652 150.711 172.074C155.597 165.88 164.513 163.184 172.031 165.628C179.549 168.072 185.153 175.487 185.431 183.36C188.087 185.352 190.117 188.161 191.169 191.302C191.695 192.874 191.936 194.74 190.95 196.074C189.512 198.018 186.236 197.54 184.595 195.762C182.954 193.984 182.507 191.448 182.131 189.062C181.12 190.459 180.11 191.857 179.1 193.254C179.08 193.281 182.769 194.158 181.267 196.549C179.978 198.6 177.649 196.206 177.192 196.873C175 200.072 170.634 204.234 162.693 204.234C157.755 204.234 153.947 201.626 151.27 196.412C151.057 195.997 147.503 199.181 147.206 195.82C146.909 192.46 149.818 193.023 149.818 193.023Z" fill="white"/>
<ellipse cx="155.527" cy="194.6" rx="3.26665" ry="3.26667" fill="#FFB61D"/>
<ellipse cx="173.727" cy="194.6" rx="3.26668" ry="3.26667" fill="#FFB61D"/>
<path fill-rule="evenodd" clip-rule="evenodd" d="M174.23 283.267C173.346 282.561 173.561 281.22 173.79 280.129C174.608 276.227 174.531 272.15 173.567 268.279C173.458 267.843 173.341 267.372 173.517 266.957C173.693 266.542 174.309 266.29 174.627 266.614C174.769 266.759 174.81 266.968 174.845 267.165C175.785 272.543 176.548 278.3 174.23 283.267Z" fill="#00160A"/>
<path fill-rule="evenodd" clip-rule="evenodd" d="M156.11 79.303C155.532 78.0866 155.504 76.7181 155.486 75.3908C155.399 69.3081 155.313 63.2254 155.227 57.1427C155.218 56.4997 155.356 55.6732 156.038 55.5332C157.13 58.7219 157.113 62.1296 157.086 65.4727C157.051 69.7134 157.017 73.9541 156.983 78.1947C156.978 78.7348 156.659 79.4945 156.11 79.303H156.11Z" fill="#E7EAEE"/>
<path fill-rule="evenodd" clip-rule="evenodd" d="M198.388 81.1205C198.682 85.4851 198.704 89.8708 198.454 94.2386C198.413 94.9549 197.952 95.9417 197.367 95.595C197.214 90.1769 197.186 84.7547 197.284 79.3351C198.025 79.2831 198.334 80.3249 198.388 81.1205Z" fill="#E7EAEE"/>
<path fill-rule="evenodd" clip-rule="evenodd" d="M160.505 268.333C161.14 270.919 160.711 273.643 160.278 276.273C160.039 277.725 159.801 279.176 159.562 280.628C159.334 282.016 159.096 283.432 158.445 284.667C158.016 284.529 157.99 283.915 158.051 283.453C158.671 278.736 159.29 274.019 159.91 269.301C159.963 268.891 160.109 268.381 160.505 268.333L160.505 268.333Z" fill="#00160A"/>
<path fill-rule="evenodd" clip-rule="evenodd" d="M152.635 270.223C152.502 269.159 152.519 267.758 153.506 267.4C154.545 272.932 154.556 278.664 153.539 284.199C153.521 284.298 153.501 284.4 153.449 284.485C153.255 284.8 152.732 284.673 152.551 284.35C152.371 284.026 152.424 283.625 152.479 283.257C153.121 278.948 153.174 274.547 152.635 270.223H152.635Z" fill="#00160A"/>
<path fill-rule="evenodd" clip-rule="evenodd" d="M182.252 222.6C182.592 222.894 182.654 223.45 182.681 223.943C182.971 229.298 182.465 234.71 181.192 239.866C180.798 238.986 180.877 237.931 180.965 236.943C181.394 232.162 181.823 227.381 182.252 222.6Z" fill="#00160A"/>
<path fill-rule="evenodd" clip-rule="evenodd" d="M158.216 285.8C159.167 285.494 160.197 286.241 160.57 287.172C160.943 288.103 160.833 289.149 160.714 290.146C159.979 296.329 159.157 302.634 160.372 308.741C161.021 312 160.036 315.742 157.334 317.658C154.632 319.574 150.233 318.893 148.792 315.901C147.758 313.753 148.384 311.222 148.774 308.869C149.896 302.087 148.85 295.117 149.595 288.283C149.699 287.328 149.865 286.318 150.499 285.6C152.952 286.531 155.718 286.602 158.216 285.8ZM151.916 287.285C151.016 287.155 150.655 288.41 150.654 289.324C150.651 294.236 150.647 299.148 150.644 304.06C150.643 305.246 150.642 306.438 150.458 307.61C150.041 310.277 148.738 313.193 150.146 315.493C151.463 317.645 154.794 317.884 156.774 316.327C158.754 314.77 159.439 311.96 159.018 309.468C158.194 304.599 158.562 299.616 158.933 294.691C159.123 292.159 159.314 289.627 159.504 287.095C157.009 287.585 154.432 287.65 151.916 287.285Z" fill="#00160A"/>
<path fill-rule="evenodd" clip-rule="evenodd" d="M170.395 214.792C170.611 214.399 171.093 215.014 171.093 215.466C171.095 220.492 170.926 225.519 170.588 230.533C169.733 230.133 169.655 228.939 169.705 227.976C169.935 223.582 170.165 219.187 170.395 214.792Z" fill="#00160A"/>
<path fill-rule="evenodd" clip-rule="evenodd" d="M178.583 89.5316C178.073 86.3321 177.961 83.0857 178.248 79.8657C178.305 79.227 178.379 78.5835 178.606 77.9734C178.668 77.8049 178.753 77.6279 178.927 77.534C179.507 77.2206 179.969 78.0685 179.96 78.6586C179.911 81.8403 179.862 85.0221 179.813 88.2038C179.802 88.8923 179.28 89.8672 178.583 89.5316L178.583 89.5316Z" fill="#E7EAEE"/>
<path fill-rule="evenodd" clip-rule="evenodd" d="M210.937 61.1646C210.905 61.5147 210.867 61.885 210.67 62.1646C210.525 62.3711 210.298 62.508 210.06 62.5331C209.636 58.6511 209.791 54.6951 210.519 50.8665C211.539 54.1479 211.244 57.7173 210.937 61.1646Z" fill="#E7EAEE"/>
<path fill-rule="evenodd" clip-rule="evenodd" d="M121.145 126.629C121.002 124.385 120.859 122.141 120.715 119.898C120.681 119.367 120.653 118.812 120.905 118.329C121.156 117.846 121.787 117.472 122.358 117.641C122.57 120.975 122.615 124.317 122.493 127.654C122.298 127.966 121.724 127.911 121.463 127.639C121.203 127.367 121.168 126.984 121.145 126.629Z" fill="#E7EAEE"/>
<path fill-rule="evenodd" clip-rule="evenodd" d="M133.424 50.8667C133.24 48.0991 133.25 45.3218 133.454 42.5553C133.501 41.9083 133.78 41.069 134.522 41.0667C135.329 43.8316 135.371 46.7641 134.644 49.5459C134.489 50.1431 134.125 50.8586 133.424 50.8667Z" fill="#E7EAEE"/>
<path fill-rule="evenodd" clip-rule="evenodd" d="M160.054 220.793C159.937 219.341 159.821 217.888 159.704 216.435C159.635 216.128 159.215 216.111 159.027 216.344C158.839 216.578 158.821 216.925 158.814 217.242C158.775 218.866 158.736 220.491 158.697 222.115C158.241 222.261 158.019 221.499 158.027 220.958C158.066 218.239 158.105 215.519 158.144 212.8C160.156 214.614 161.185 217.746 160.714 220.623C160.539 220.804 160.28 220.871 160.054 220.793Z" fill="#00160A"/>
<path fill-rule="evenodd" clip-rule="evenodd" d="M171.561 227.844C171.76 223.282 171.959 218.72 172.158 214.157C172.183 213.583 172.37 212.835 172.957 212.8C172.99 218.068 172.745 223.338 172.223 228.582C171.921 228.894 171.542 228.273 171.561 227.844Z" fill="#00160A"/>
<path fill-rule="evenodd" clip-rule="evenodd" d="M114.428 45.2666C114.842 48.1686 115.064 51.0914 115.093 54.0156C115.097 54.3885 115.047 54.8378 114.665 55.0068C113.969 55.3155 113.47 54.3613 113.447 53.6807C113.374 51.5902 113.302 49.4996 113.229 47.409C113.199 46.5326 113.428 45.3727 114.428 45.2666L114.428 45.2666Z" fill="#E7EAEE"/>
<path fill-rule="evenodd" clip-rule="evenodd" d="M167.241 269.228C168.4 274.54 168.609 280.065 167.857 285.453C170.303 285.219 172.749 284.985 175.196 284.75C175.695 284.703 176.304 284.707 176.565 285.143C176.698 285.366 176.697 285.642 176.692 285.902C176.529 293.942 176.367 301.981 176.205 310.021C176.179 311.335 176.148 312.672 175.752 313.923C174.975 316.37 172.628 318.284 170.105 318.266C167.582 318.248 165.171 316.11 165.032 313.542C164.588 305.281 164.457 297.001 164.64 288.729C164.659 287.874 164.692 286.98 165.106 286.236C165.519 285.492 166.444 284.969 167.214 285.308C166.93 279.665 166.645 274.022 166.36 268.379C166.779 268.162 167.139 268.76 167.241 269.228M174.379 313.845C174.955 312.328 174.994 310.663 175.026 309.037C175.168 301.711 175.31 294.384 175.453 287.058C175.464 286.493 175.161 285.687 174.649 285.902C172.373 286.857 169.798 287.053 167.408 286.454C166.452 286.214 165.979 287.593 165.954 288.596C165.767 296.039 165.827 303.489 166.132 310.929C166.223 313.134 166.554 315.719 168.445 316.796C170.624 318.037 173.477 316.218 174.379 313.845H174.379Z" fill="#00160A"/>
<path fill-rule="evenodd" clip-rule="evenodd" d="M142.127 97.3092C142.293 100.053 142.458 102.797 142.624 105.541C142.663 106.186 142.282 107.139 141.783 106.793C141.138 103.291 141.053 99.6669 141.532 96.1333C141.97 96.2125 142.098 96.8244 142.127 97.3092L142.127 97.3092Z" fill="#E7EAEE"/>
<path fill-rule="evenodd" clip-rule="evenodd" d="M246.309 116.311C246.263 117.053 246 118.011 245.185 118.067C244.57 114.985 244.749 111.775 245.704 108.766C246.381 108.545 246.731 109.49 246.69 110.142C246.563 112.198 246.436 114.255 246.309 116.311Z" fill="#E7EAEE"/>
<path fill-rule="evenodd" clip-rule="evenodd" d="M250.893 168.754C250.895 167.698 251.39 166.746 251.867 165.859C252.153 165.328 252.439 164.797 252.725 164.267C253.136 165.272 253.437 166.341 253.619 167.439C253.839 168.767 253.6 170.593 252.486 170.786C251.616 170.937 250.891 169.81 250.893 168.754ZM252.565 169.875C252.782 169.875 253.061 168.916 252.977 168.39C252.894 167.863 252.265 167.496 251.99 167.918C251.99 167.918 251.485 169.875 252.565 169.875Z" fill="#E7EAEE"/>
<path fill-rule="evenodd" clip-rule="evenodd" d="M156.129 81.2C156.656 83.9407 156.766 86.7654 156.452 89.5403C156.367 90.2927 156.164 91.1635 155.487 91.4666C154.988 88.0494 155.209 84.5239 156.129 81.2Z" fill="#E7EAEE"/>
<path fill-rule="evenodd" clip-rule="evenodd" d="M177.69 37.7971C176.901 37.8615 176.651 36.8186 176.699 36.0726C176.814 34.2714 176.928 32.4701 177.043 30.6689C177.085 30.016 177.616 29.111 178.181 29.4892C178.407 29.6403 178.455 29.9328 178.479 30.193C178.712 32.7447 178.443 35.3365 177.69 37.7971Z" fill="#E7EAEE"/>
<path fill-rule="evenodd" clip-rule="evenodd" d="M204.573 133C204.306 130.932 204.193 128.849 204.235 126.768C204.251 125.96 204.376 125.018 205.165 124.6C206.138 125.241 206.145 126.496 206.059 127.561C205.918 129.313 205.777 131.066 205.636 132.818C205.281 132.879 204.927 132.939 204.573 133Z" fill="#E7EAEE"/>
<path fill-rule="evenodd" clip-rule="evenodd" d="M119.979 84C118.468 81.8491 120.008 78.668 119.46 76.0074C119.322 75.3385 119.201 74.3646 119.803 74.2154C120.4 74.0675 120.673 75.011 120.675 75.6915C120.681 77.705 120.687 79.7186 120.693 81.7322C120.696 82.5724 120.625 83.5664 119.979 84H119.979Z" fill="#E7EAEE"/>
<path fill-rule="evenodd" clip-rule="evenodd" d="M168.293 197.372C167.281 196.849 166.099 197.403 164.991 197.628C164.93 197.641 161.166 198.254 161.833 198.458C163.89 199.089 168.232 197.573 168.293 197.372Z" fill="#00160A"/>
<path fill-rule="evenodd" clip-rule="evenodd" d="M227.484 111.066C227.041 108.59 226.974 106.035 227.287 103.535C227.343 103.088 227.654 102.497 228.02 102.712C228.588 105.388 228.646 108.188 228.189 110.888C227.954 110.948 227.719 111.007 227.484 111.066Z" fill="#E7EAEE"/>
<path fill-rule="evenodd" clip-rule="evenodd" d="M159.209 185.287C159.861 185.329 160.635 185.545 160.827 186.194C160.891 186.411 159.258 185.929 158.575 185.967C156.97 186.055 156.486 186.935 156.278 186.667C155.836 186.098 156.73 185.426 157.429 185.339C158.019 185.265 158.616 185.248 159.209 185.287Z" fill="#00160A"/>
<path fill-rule="evenodd" clip-rule="evenodd" d="M161.293 235.42C163.034 235.028 164.811 234.798 166.595 234.735C167.097 234.717 167.753 234.833 167.827 235.325C165.826 236.367 163.324 236.404 161.293 235.42V235.42Z" fill="#E7EAEE"/>
<path fill-rule="evenodd" clip-rule="evenodd" d="M190.713 37.2396C190.716 36.2439 191.083 34.8822 192.018 35.0081C192.171 37.4708 192.092 39.9494 191.782 42.3956C191.708 42.9825 191.091 43.731 190.775 43.2418C190.695 43.1183 190.693 42.9585 190.693 42.809C190.7 40.9525 190.706 39.096 190.713 37.2396Z" fill="#E7EAEE"/>
<path fill-rule="evenodd" clip-rule="evenodd" d="M177.753 224C178.076 227.64 178.169 231.293 178.032 234.94C178.011 235.495 177.656 236.258 176.964 236.116C176.874 232.623 176.784 229.129 176.694 225.636C176.677 224.962 176.889 224.071 177.753 224L177.753 224Z" fill="#00160A"/>
<path fill-rule="evenodd" clip-rule="evenodd" d="M168.229 232.673C168.16 232.773 168.048 232.82 167.941 232.861C166.408 233.44 164.717 233.488 163.16 232.997C163.56 232.215 164.508 232.084 165.317 232.042C166.009 232.006 166.7 231.97 167.392 231.934C167.843 231.911 168.503 232.275 168.229 232.673H168.229Z" fill="#E7EAEE"/>
<path fill-rule="evenodd" clip-rule="evenodd" d="M173.759 186.666C173.108 186.513 173.252 185.733 171.793 185.733C170.334 185.733 170.39 186.297 169.693 186.353C169.743 185.479 170.484 184.859 171.198 184.805C171.912 184.751 172.598 185.114 173.252 185.469C173.664 185.693 174.128 186.351 173.759 186.666Z" fill="#00160A"/>
<path fill-rule="evenodd" clip-rule="evenodd" d="M162.693 193.666C162.781 192.768 163.481 191.976 164.321 191.826C165.161 191.676 166.067 192.181 166.427 193C165.771 193.117 166.028 192.439 164.321 192.439C163.695 192.439 163.282 193.561 162.693 193.666Z" fill="#00160A"/>
<path fill-rule="evenodd" clip-rule="evenodd" d="M145.282 225.135C145.564 224.912 145.846 224.689 146.128 224.467C146.568 225.222 146.367 226.203 145.652 226.794C145.271 226.849 144.948 226.499 144.96 226.177C144.973 225.854 145.207 225.571 145.433 225.309L145.282 225.135Z" fill="#00160A"/>
<path fill-rule="evenodd" clip-rule="evenodd" d="M159.318 234.729C160.147 234.647 160.656 233.523 160.171 232.845C159.687 232.167 158.459 232.287 158.115 233.047C157.771 233.806 158.489 234.81 159.318 234.729Z" fill="#00160A"/>
<path fill-rule="evenodd" clip-rule="evenodd" d="M171.472 232.407C171.167 231.814 170.181 231.766 169.821 232.327C169.46 232.888 169.912 233.767 170.578 233.799C171.243 233.831 171.777 233 171.472 232.407Z" fill="#00160A"/>
<path fill-rule="evenodd" clip-rule="evenodd" d="M173.228 313.032C173.491 313.377 173.535 314.062 173.1 314.066C172.028 312.757 169.932 312.429 168.509 313.347C168.049 313.124 168.403 312.41 168.846 312.155C170.255 311.343 172.243 311.741 173.228 313.032V313.032Z" fill="#00160A"/>
<path fill-rule="evenodd" clip-rule="evenodd" d="M157.093 312.651C157.001 313.191 156.218 312.954 155.748 312.702C154.642 312.109 153.194 312.288 152.254 313.133C151.717 313.014 151.996 312.134 152.452 311.819C153.894 310.825 156.058 311.213 157.093 312.651H157.093Z" fill="#00160A"/>
<path fill-rule="evenodd" clip-rule="evenodd" d="M185.815 251.935C186.863 253.843 187.859 255.877 187.893 258.052C187.927 260.227 186.724 262.569 184.633 263.177C172.667 266.654 159.782 270.049 147.971 266.079C147.093 265.784 146.183 265.417 145.62 264.682C144.939 263.793 144.922 262.576 144.983 261.458C145.395 253.898 148.086 246.477 152.614 240.406C153.78 238.843 155.094 237.311 155.626 235.436C156.158 233.561 155.624 231.201 153.869 230.349C155.514 231.396 157.893 231.085 159.212 229.65C160.53 228.215 160.638 225.821 159.453 224.274C159.609 226.332 159.283 229.067 157.253 229.455C155.858 229.721 154.532 228.489 154.171 227.116C153.811 225.743 154.156 224.295 154.501 222.918C154.902 224.53 155.303 226.142 155.705 227.753C155.798 228.127 155.93 228.549 156.282 228.706C156.94 228.998 157.491 228.135 157.699 227.446C158.196 225.799 158.694 224.151 159.191 222.504C162.186 225.164 160.762 231.034 156.88 232.03C158.127 234.753 155.991 237.721 154.231 240.146C149.604 246.523 146.838 254.23 146.354 262.091C146.321 262.633 146.307 263.213 146.589 263.677C146.904 264.195 147.511 264.447 148.083 264.649C159.444 268.648 171.936 265.394 183.528 262.125C185.624 261.534 186.689 259.035 186.411 256.878C186.132 254.72 184.862 252.838 183.627 251.046C181.068 247.33 178.509 243.615 175.95 239.9C174.745 238.152 173.509 236.328 173.164 234.233C172.893 232.593 173.193 230.918 173.493 229.283C173.845 227.359 174.197 225.435 174.55 223.511C174.746 222.437 175.776 221.042 176.57 221.792C178.055 223.193 180.755 221.952 181.401 220.016C182.046 218.079 181.264 215.967 180.293 214.171C179.389 212.498 178.219 210.839 176.476 210.074C174.734 209.31 172.322 209.815 171.559 211.556C170.314 214.4 166.643 215.054 163.548 215.319C162.65 215.395 161.489 215.311 161.207 214.456C159.886 210.448 153.954 209.461 150.685 212.134C147.417 214.808 146.753 219.738 148.056 223.752C146.167 223.663 145.654 221.094 145.911 219.223C146.42 215.513 148.102 211.538 151.57 210.113C153.425 209.351 155.509 209.441 157.469 209.015C159.428 208.588 161.494 207.323 161.726 205.333C162.261 206.29 162.346 207.335 162.88 208.292C163.177 208.824 164.81 210.732 165.31 210.708C165.856 210.682 167.283 208.481 167.489 207.841C167.734 207.082 167.419 206.105 167.664 205.346C169.008 206.638 168.81 209.155 167.281 210.222C166.075 211.063 167.239 213.278 168.702 213.133C170.166 212.989 171.069 211.306 170.912 209.846C170.756 208.385 169.856 207.126 168.985 205.942C170.647 206.331 172.109 207.499 172.853 209.034C176.531 207.793 180.446 210.868 181.909 214.461C182.818 216.693 183.073 219.349 181.88 221.444C180.688 223.538 177.737 224.678 175.713 223.367C176.373 226.764 174.07 230.155 174.47 233.592C174.774 236.212 176.577 238.37 178.209 240.443C181.054 244.057 183.601 247.905 185.815 251.935ZM164.529 212.998C164.773 212.615 164.989 212.038 164.62 211.771C163.187 210.735 162.064 209.275 161.431 207.624C160.295 207.891 159.713 209.258 159.902 210.408C160.091 211.559 160.834 212.53 161.553 213.449C161.84 213.815 162.163 214.205 162.617 214.306C163.423 214.485 164.084 213.693 164.529 212.998ZM165.916 212.478C165.672 212.655 165.505 212.936 165.466 213.235C165.727 213.618 166.131 213.901 166.58 214.017C166.645 213.437 166.377 212.831 165.904 212.488L165.916 212.478Z" fill="#00160A"/>
<path fill-rule="evenodd" clip-rule="evenodd" d="M154.467 175V223.067H153.533V175H154.467Z" fill="#00160A"/>
<path fill-rule="evenodd" clip-rule="evenodd" d="M139.601 195.893C141.275 195.794 142.782 194.733 143.761 193.376C144.739 192.019 145.256 190.389 145.644 188.764C146.178 186.527 146.494 184.246 146.81 181.969C146.91 181.251 146.916 180.341 146.269 180.011C145.752 179.748 145.135 180.037 144.642 180.34C140.966 182.601 138.014 186.009 136.309 189.962C135.851 191.022 135.477 192.196 135.754 193.316C136.155 194.938 137.927 195.992 139.601 195.893ZM151.729 195.864C152.639 197.917 153.644 199.82 154.529 200.688C156.968 203.081 160.644 203.78 164.067 203.707C172.814 203.52 175.873 197.515 176.884 196.43C178.597 194.59 177.186 197.388 176.285 198.593C171.793 204.6 162.747 206.41 157.107 203.52C155.147 202.516 153.805 200.926 152.144 198.763C151.747 198.246 151.346 197.37 150.942 196.307M184.349 184.097C184.22 184.014 184.082 183.931 183.929 183.925C183.599 183.911 183.37 184.244 183.239 184.546C182.18 186.99 183.114 189.791 184.05 192.285C184.498 193.48 184.975 194.718 185.903 195.597C186.831 196.476 188.351 196.875 189.409 196.156C190.681 195.293 190.639 193.409 190.211 191.936C189.282 188.738 187.159 185.899 184.349 184.097ZM149.818 193.023C148.893 190.168 147.956 187.171 147.014 186.037C146.678 188.865 146.296 191.821 144.662 194.158C143.029 196.495 139.718 197.935 137.221 196.549C135.164 195.407 134.361 192.72 134.817 190.418C135.273 188.117 136.734 186.144 138.312 184.403C142.228 180.081 147.099 176.652 150.711 172.074C155.597 165.88 164.513 163.184 172.031 165.628C179.549 168.072 185.153 175.487 185.431 183.36C188.087 185.352 190.117 188.161 191.169 191.302C191.695 192.874 191.936 194.74 190.95 196.074C189.512 198.018 186.236 197.54 184.595 195.762C182.954 193.984 182.507 191.448 182.131 189.062C181.12 190.459 180.11 191.857 179.1 193.254C178.936 193.481 178.559 193.144 178.527 192.749C178.23 189.092 177.503 185.469 176.361 181.98C175.97 182.4 175.337 182.578 174.783 182.424C175.018 181.204 175.253 179.983 175.489 178.762C174.117 178.725 172.745 179.388 171.926 180.484C171.549 180.026 171.303 179.463 171.222 178.876C169.781 181.534 166.382 182.348 163.367 182.66C160.351 182.971 157.026 183.175 154.855 185.284C153.297 186.798 151.926 189.381 149.817 188.843C151.583 187.15 153.348 185.458 155.114 183.766C155.714 183.191 156.335 182.602 157.107 182.291C157.981 181.94 158.954 181.98 159.896 181.957C164.783 181.84 169.6 179.816 173.094 176.41C172.993 177.194 172.902 178.04 173.283 178.734C173.441 177.8 174.809 177.548 175.582 178.098C176.355 178.649 176.662 179.63 176.92 180.541C177.813 183.684 178.705 186.827 179.597 189.97C182.678 186.786 183.742 181.912 182.609 177.636C181.477 173.36 178.3 169.745 174.352 167.722C168.12 164.528 160.002 165.44 154.64 169.935C149.277 174.43 146.989 182.242 149.084 188.904C149.308 189.617 149.809 191.087 150.457 192.771M146.81 179.611C147.628 179.056 148.171 178.117 148.244 177.134C147.684 176.761 146.843 176.899 146.431 177.43C146.019 177.962 146.098 178.806 146.602 179.253M183.912 182.117C184.039 182.483 184.649 182.4 184.832 182.057C185.014 181.715 184.907 181.297 184.797 180.925C184.632 180.729 184.335 180.657 184.098 180.755C183.913 181.178 183.858 181.657 183.942 182.111L183.912 182.117Z" fill="#00160A"/>
<path fill-rule="evenodd" clip-rule="evenodd" d="M150.272 192.719C150.2 192.339 149.833 192.09 149.453 192.162C147.201 192.591 146.03 194.639 146.628 196.417C147.298 198.411 149.522 198.497 151.695 196.343C151.97 196.071 148.018 197.357 147.504 196.343C145.982 193.343 150.344 193.098 150.272 192.719Z" fill="#00160A"/>
<path fill-rule="evenodd" clip-rule="evenodd" d="M99.7532 319.033C93.0539 319.139 70.0157 320.846 69.6177 319.991C69.1086 318.898 94.2316 317.46 99.7078 317.373L101.423 317.35C106.402 317.296 99.7532 319.033 99.7532 319.033ZM198.299 316.812C198.888 316.797 199.378 317.262 199.394 317.851C199.409 318.44 198.944 318.931 198.355 318.946L188.82 319.182C182.885 319.318 120.006 319.459 109.842 319.66C109.252 319.671 108.765 319.203 108.753 318.613C108.742 318.024 109.21 317.537 109.8 317.525L183.799 317.158C189.263 317.04 193.653 316.935 198.299 316.812ZM258.937 314.261C258.937 314.261 260.854 313.931 274.846 314.978C275.434 315.022 275.874 315.535 275.83 316.122C275.786 316.71 268.867 316.413 259.409 316.397L256.807 316.401C249.862 316.432 243.41 316.62 232.701 317.06L219.185 317.631C213.417 317.868 209.977 317.983 205.792 318.081C205.203 318.095 204.714 317.629 204.7 317.039C204.686 316.45 205.152 315.961 205.742 315.947L209.102 315.859C213.099 315.744 217.207 315.583 224.489 315.272L232.211 314.944C244.285 314.445 251 314.261 258.937 314.261Z" fill="#00160A"/>
<path fill-rule="evenodd" clip-rule="evenodd" d="M179.1 193.254C177.92 192.773 178.778 192.556 179.158 192.629C181.41 193.057 182.581 195.105 181.983 196.884C181.313 198.878 179.089 198.964 176.916 196.81C176.642 196.538 180.21 198.473 181.133 196.528C182.101 194.489 180.281 193.735 179.1 193.254Z" fill="#00160A"/>
<path d="M182.205 177.482C196.753 175.885 211.679 177.891 225.298 183.273C227.412 184.109 229.562 185.038 231.833 185.054C239.215 185.106 246.563 187.496 252.576 191.8C249.451 174.073 234.808 160.134 218.317 153.111C201.827 146.087 183.552 144.833 165.666 143.921C126.838 141.94 87.5224 159.995 63.5933 190.796C77.6074 183.762 93.2711 180.076 108.935 180.126C112.022 180.136 115.761 179.933 117.221 177.199C125.623 161.476 140.7 149.504 157.862 144.928C158.829 144.67 160.107 144.556 160.591 145.437C143.338 150.647 128.223 162.681 119.228 178.371C136.89 172.839 156.029 172.151 174.039 176.402C176.726 177.036 179.461 177.784 182.205 177.482Z" fill="white"/>
<path fill-rule="evenodd" clip-rule="evenodd" d="M215.042 159.157C212.437 157.025 209.763 154.977 207.027 153.017C207.057 152.504 207.825 152.533 208.294 152.738C220.461 158.043 229.783 169.515 232.533 182.569C232.767 183.679 232.865 185.051 231.964 185.733C230.907 183.333 229.849 180.933 228.792 178.533C226.693 173.769 224.55 168.931 221.195 164.96C219.371 162.802 217.225 160.945 215.042 159.157Z" fill="#00160A"/>
<path fill-rule="evenodd" clip-rule="evenodd" d="M172.114 150.24C171.823 149.865 172.311 149.306 172.795 149.334C173.279 149.362 173.657 149.733 173.972 150.089C177.617 154.218 179.399 159.605 180.282 164.965C180.942 168.97 181.149 173.029 181.355 177.078C181.365 177.263 181.37 177.462 181.262 177.614C181.063 177.895 180.582 177.835 180.344 177.584C180.107 177.332 180.048 176.972 180.004 176.635C179.152 170.187 179.494 163.426 176.793 157.473C175.609 154.863 173.882 152.521 172.114 150.24V150.24Z" fill="#00160A"/>
<path fill-rule="evenodd" clip-rule="evenodd" d="M117.226 177.124C125.628 161.401 140.705 149.428 157.866 144.852C158.834 144.594 160.112 144.481 160.596 145.362C143.342 150.571 128.228 162.606 119.233 178.296C119.233 178.296 115.766 179.857 117.226 177.124Z" fill="#00160A"/>
<path fill-rule="evenodd" clip-rule="evenodd" d="M182.569 177.452L182.954 178.846L182.785 178.803C181.38 178.428 177.44 177.043 176.584 176.797C168.82 174.57 160.91 173.988 149.688 174.997L151.069 173.671C151.069 173.671 160.988 173.212 166.837 173.6C172.686 173.988 182.569 177.452 182.569 177.452Z" fill="#00160A"/>
<path fill-rule="evenodd" clip-rule="evenodd" d="M149.461 234.103C148.764 234.538 147.934 234.844 147.125 234.695C145.687 234.431 144.852 232.789 144.971 231.336C145.09 229.884 145.904 228.593 146.695 227.367C147.42 226.244 148.144 225.121 148.869 223.998C150.334 221.727 148.568 218.488 149.811 216.089C150.676 214.421 152.862 213.473 153.085 211.609C153.165 210.939 154.165 210.725 154.683 211.159C155.202 211.594 155.293 212.361 155.189 213.028C155.084 213.695 154.825 214.336 154.786 215.01C154.735 215.897 155.069 216.757 155.187 217.638C155.305 218.519 155.123 219.558 154.356 220.011C153.461 220.541 153.009 221.607 152.904 222.64C152.798 223.672 152.978 224.71 153.046 225.745C153.251 228.921 152.167 232.413 149.461 234.103M152.416 218.595C152.891 217.781 153.571 217.086 154.376 216.592C153.654 216.627 152.933 216.662 152.211 216.696C151.961 216.128 152.749 215.7 153.338 215.498C153.927 215.296 154.544 214.514 154.02 214.178C153.883 214.09 153.71 214.083 153.548 214.094C152.066 214.196 150.952 215.581 150.582 217.015C150.212 218.449 150.393 219.957 150.397 221.437C150.4 222.918 150.174 224.506 149.172 225.6C147.734 227.168 146.678 229.083 146.121 231.134C146.019 231.509 145.934 231.903 146.016 232.283C146.21 233.178 147.315 233.641 148.208 233.422C149.1 233.203 149.788 232.496 150.323 231.751C151.996 229.421 152.647 226.388 152.076 223.579C151.671 221.593 152.876 219.402 154.774 218.672C154.07 218.249 153.145 218.218 152.416 218.595ZM154.132 213.379C154.567 213.182 154.745 212.57 154.484 212.172C153.857 212.122 153.538 213.26 154.161 213.348L154.132 213.379Z" fill="#00160A"/>
<path fill-rule="evenodd" clip-rule="evenodd" d="M154.484 212.172C154.745 212.57 154.567 213.182 154.132 213.379L154.161 213.348C153.538 213.26 153.857 212.122 154.484 212.172ZM154.376 216.592C153.571 217.086 152.891 217.781 152.416 218.595C153.145 218.218 154.07 218.249 154.774 218.672C152.876 219.402 151.671 221.593 152.076 223.579C152.647 226.387 151.996 229.421 150.323 231.751C149.788 232.496 149.1 233.203 148.208 233.422C147.315 233.64 146.21 233.178 146.016 232.282C145.934 231.903 146.019 231.508 146.121 231.134C146.678 229.083 147.734 227.168 149.172 225.599C150.174 224.506 150.4 222.918 150.397 221.437C150.396 221.075 150.384 220.712 150.373 220.348C150.338 219.224 150.302 218.098 150.582 217.015C150.952 215.581 152.066 214.196 153.548 214.094C153.71 214.083 153.883 214.09 154.02 214.177C154.544 214.514 153.927 215.295 153.338 215.498C152.749 215.7 151.961 216.128 152.211 216.696L154.376 216.592Z" fill="white"/>
<path fill-rule="evenodd" clip-rule="evenodd" d="M158.426 187.728C159.183 187.728 159.806 187.983 160.26 188.491C160.432 188.684 160.415 188.979 160.223 189.15C160.03 189.322 156.822 189.322 156.63 189.15C156.438 188.979 156.421 188.684 156.593 188.491C157.047 187.983 157.67 187.728 158.426 187.728Z" fill="#00160A"/>
<path fill-rule="evenodd" clip-rule="evenodd" d="M171.493 187.728C172.25 187.728 172.873 187.983 173.327 188.491C173.498 188.684 173.481 188.979 173.289 189.15C173.097 189.322 169.889 189.322 169.697 189.15C169.504 188.979 169.488 188.684 169.659 188.491C170.113 187.983 170.736 187.728 171.493 187.728Z" fill="#00160A"/>
</svg>
