<svg width="24" height="20" viewBox="0 0 24 20" fill="none" xmlns="http://www.w3.org/2000/svg">
<path d="M10.1813 0.880005C4.1179 0.880005 0.47998 5.74385 0.47998 8.17601C0.47998 10.6082 1.69246 12.4322 4.1179 12.4322C6.54334 12.4322 7.7563 13.0398 7.7563 14.8638C7.7563 17.2955 9.57502 19.1195 12.0005 19.1195C19.883 19.1195 23.5205 14.8638 23.5205 10.6082C23.52 3.31217 17.4557 0.880005 10.1813 0.880005ZM8.66542 3.31217C8.86474 3.31242 9.06205 3.35192 9.2461 3.42843C9.43014 3.50494 9.59732 3.61695 9.73808 3.75806C9.87884 3.89918 9.99042 4.06664 10.0665 4.25088C10.1425 4.43512 10.1815 4.63253 10.1813 4.83185C10.1813 5.67184 9.50254 6.35201 8.66542 6.35201C7.8283 6.35201 7.14958 5.67136 7.14958 4.83185C7.14933 4.63253 7.18834 4.43512 7.26438 4.25088C7.34042 4.06664 7.45201 3.89918 7.59276 3.75806C7.73352 3.61695 7.9007 3.50494 8.08474 3.42843C8.26879 3.35192 8.4661 3.31242 8.66542 3.31217ZM13.5153 3.31217C13.7147 3.31242 13.912 3.35192 14.096 3.42843C14.2801 3.50494 14.4472 3.61695 14.588 3.75806C14.7288 3.89918 14.8403 4.06664 14.9164 4.25088C14.9924 4.43512 15.0314 4.63253 15.0312 4.83185C15.0315 5.0312 14.9925 5.22867 14.9165 5.41296C14.8405 5.59726 14.7289 5.76477 14.5882 5.90594C14.4474 6.0471 14.2802 6.15915 14.0961 6.23569C13.912 6.31223 13.7147 6.35175 13.5153 6.35201C13.316 6.35169 13.1187 6.31212 12.9347 6.23555C12.7507 6.15899 12.5835 6.04693 12.4428 5.90577C12.3021 5.76461 12.1906 5.59711 12.1146 5.41285C12.0386 5.22859 11.9997 5.03116 12 4.83185C11.9995 4.42939 12.1588 4.04322 12.443 3.75823C12.7272 3.47325 13.1129 3.3128 13.5153 3.31217ZM18.3662 5.74384C18.5656 5.74403 18.763 5.78351 18.9472 5.86002C19.1313 5.93653 19.2985 6.04857 19.4394 6.18974C19.5802 6.33092 19.6918 6.49845 19.7678 6.68278C19.8439 6.86711 19.8829 7.06461 19.8825 7.264C19.8829 7.46338 19.8439 7.66086 19.7678 7.84516C19.6918 8.02946 19.5802 8.19696 19.4393 8.3381C19.2985 8.47923 19.1312 8.59123 18.9471 8.66768C18.763 8.74414 18.5656 8.78356 18.3662 8.78369C18.1669 8.7835 17.9696 8.74403 17.7855 8.66754C17.6015 8.59105 17.4343 8.47903 17.2936 8.3379C17.1529 8.19676 17.0413 8.02928 16.9654 7.84501C16.8894 7.66075 16.8505 7.46332 16.8509 7.264C16.8505 7.06467 16.8894 6.86722 16.9653 6.68293C17.0413 6.49863 17.1528 6.33112 17.2936 6.18994C17.4343 6.04877 17.6015 5.93671 17.7855 5.86017C17.9696 5.78362 18.1669 5.7441 18.3662 5.74384ZM4.42126 6.96017C4.62053 6.96035 4.81781 6.99981 5.00183 7.07627C5.18584 7.15273 5.35299 7.2647 5.49372 7.40578C5.63444 7.54687 5.74599 7.7143 5.82199 7.89851C5.89798 8.08272 5.93694 8.2801 5.93662 8.47937C5.93662 9.31937 5.2579 9.99953 4.42126 9.99953C3.58462 9.99953 2.90542 9.31889 2.90542 8.47937C2.90504 8.07691 3.06451 7.69079 3.34877 7.40589C3.63304 7.121 4.01881 6.96067 4.42126 6.96017ZM12 13.0398C13.0046 13.0398 13.8187 13.8558 13.8187 14.8643C13.8187 15.8714 13.0046 16.6878 12 16.6878C10.9953 16.6878 10.1813 15.8714 10.1813 14.8643C10.1808 14.6251 10.2275 14.3881 10.3187 14.1669C10.4099 13.9458 10.5437 13.7447 10.7126 13.5753C10.8815 13.4058 11.0821 13.2714 11.303 13.1795C11.5239 13.0876 11.7607 13.0402 12 13.0398Z" fill="white"/>
</svg>
