<svg width="25" height="25" viewBox="0 0 25 25" fill="none" xmlns="http://www.w3.org/2000/svg">
<g clip-path="url(#clip0_369_12567)">
<path d="M21.7987 11.3722L12.6087 20.5622C11.4828 21.688 9.95587 22.3205 8.36369 22.3205C6.7715 22.3205 5.24453 21.688 4.11869 20.5622C2.99284 19.4363 2.36035 17.9094 2.36035 16.3172C2.36035 14.725 2.99284 13.198 4.11869 12.0722L13.3087 2.88219C14.0593 2.13162 15.0772 1.70996 16.1387 1.70996C17.2001 1.70996 18.2181 2.13162 18.9687 2.88219C19.7193 3.63275 20.1409 4.65073 20.1409 5.71218C20.1409 6.77364 19.7193 7.79162 18.9687 8.54219L9.76869 17.7322C9.39341 18.1075 8.88442 18.3183 8.35369 18.3183C7.82296 18.3183 7.31397 18.1075 6.93869 17.7322C6.56341 17.3569 6.35258 16.8479 6.35258 16.3172C6.35258 15.7865 6.56341 15.2775 6.93869 14.9022L15.4287 6.42218" stroke="black" stroke-width="2" stroke-linecap="round" stroke-linejoin="round"/>
</g>
<defs>
<clipPath id="clip0_369_12567">
<rect width="24" height="24" fill="white" transform="translate(0.358398 0.322266)"/>
</clipPath>
</defs>
</svg>
