<svg width="25" height="25" viewBox="0 0 25 25" fill="none" xmlns="http://www.w3.org/2000/svg">
<path d="M17.3584 3.32257C17.621 3.05992 17.9328 2.85158 18.276 2.70944C18.6192 2.5673 18.987 2.49414 19.3584 2.49414C19.7298 2.49414 20.0976 2.5673 20.4408 2.70944C20.784 2.85158 21.0958 3.05992 21.3584 3.32257C21.621 3.58521 21.8294 3.89701 21.9715 4.24018C22.1137 4.58334 22.1868 4.95113 22.1868 5.32257C22.1868 5.694 22.1137 6.0618 21.9715 6.40496C21.8294 6.74812 21.621 7.05992 21.3584 7.32257L7.8584 20.8226L2.3584 22.3226L3.8584 16.8226L17.3584 3.32257Z" stroke="black" stroke-width="2" stroke-linecap="round" stroke-linejoin="round"/>
</svg>
