<svg width="21" height="21" viewBox="0 0 21 21" fill="none" xmlns="http://www.w3.org/2000/svg">
<path d="M15.284 2.6972C15.5201 2.46106 15.8004 2.27375 16.1089 2.14596C16.4175 2.01817 16.7481 1.95239 17.0821 1.95239C17.416 1.95239 17.7467 2.01817 18.0552 2.14596C18.3637 2.27375 18.6441 2.46106 18.8802 2.6972C19.1163 2.93333 19.3036 3.21366 19.4314 3.52218C19.5592 3.8307 19.625 4.16137 19.625 4.49531C19.625 4.82925 19.5592 5.15992 19.4314 5.46845C19.3036 5.77697 19.1163 6.0573 18.8802 6.29343L6.74291 18.4307L1.7981 19.7793L3.14668 14.8345L15.284 2.6972Z" stroke="#C4C4C4" stroke-width="2" stroke-linecap="round" stroke-linejoin="round"/>
</svg>
