<svg width="39" height="39" viewBox="0 0 39 39" fill="none" xmlns="http://www.w3.org/2000/svg">
<circle cx="19.5" cy="19.5" r="19.5" fill="#0077B6"/>
<path d="M20 23.6666C22.0251 23.6666 23.6667 22.025 23.6667 20C23.6667 17.9749 22.0251 16.3333 20 16.3333C17.975 16.3333 16.3334 17.9749 16.3334 20C16.3334 22.025 17.975 23.6666 20 23.6666Z" stroke="white" stroke-width="2" stroke-linecap="round" stroke-linejoin="round"/>
<path d="M23.6667 16.3333V20.9167C23.6667 21.646 23.9564 22.3455 24.4722 22.8612C24.9879 23.3769 25.6874 23.6667 26.4167 23.6667C27.1461 23.6667 27.8455 23.3769 28.3613 22.8612C28.877 22.3455 29.1667 21.646 29.1667 20.9167V20C29.1666 17.9311 28.4666 15.9231 27.1806 14.3025C25.8945 12.6819 24.0981 11.5439 22.0833 11.0738C20.0686 10.6036 17.954 10.8288 16.0835 11.7127C14.2129 12.5967 12.6964 14.0874 11.7805 15.9426C10.8647 17.7977 10.6033 19.9081 11.0389 21.9306C11.4745 23.9531 12.5814 25.7688 14.1798 27.0824C15.7781 28.396 17.7739 29.1303 19.8424 29.1659C21.911 29.2014 23.9308 28.5362 25.5734 27.2783" stroke="white" stroke-width="2" stroke-linecap="round" stroke-linejoin="round"/>
</svg>
