<svg width="39" height="39" viewBox="0 0 39 39" fill="none" xmlns="http://www.w3.org/2000/svg">
<circle cx="19.5" cy="19.5" r="19.5" fill="#0077B6"/>
<path d="M19.6333 22.1983C23.279 22.1983 26.3918 22.7763 26.3918 25.0891C26.3918 27.401 23.299 28 19.6333 28C15.9877 28 12.8748 27.422 12.8748 25.1102C12.8748 22.7974 15.9677 22.1983 19.6333 22.1983ZM25.4623 20.8057C26.856 20.7798 28.3544 20.9712 28.9081 21.1071C30.0811 21.3377 30.8527 21.8085 31.1724 22.4927C31.4425 23.0544 31.4425 23.706 31.1724 24.2668C30.6834 25.328 29.1069 25.6686 28.4943 25.7567C28.3677 25.7758 28.2659 25.6658 28.2793 25.5385C28.5923 22.5979 26.1025 21.2038 25.4585 20.8832C25.4309 20.8688 25.4252 20.8468 25.428 20.8334C25.4299 20.8239 25.4413 20.8086 25.4623 20.8057ZM13.651 20.8037L13.9134 20.8061C13.9344 20.8089 13.9448 20.8242 13.9467 20.8329C13.9496 20.8472 13.9439 20.8683 13.9173 20.8836C13.2722 21.2041 10.7825 22.5983 11.0955 25.5379C11.1088 25.6661 11.008 25.7752 10.8814 25.757C10.2688 25.669 8.69236 25.3283 8.20335 24.2672C7.93222 23.7055 7.93222 23.0548 8.20335 22.4931C8.52301 21.8089 9.29362 21.3381 10.4667 21.1065C11.0213 20.9716 12.5187 20.7802 13.9134 20.8061L13.651 20.8037ZM19.6333 11C22.1155 11 24.1057 12.9999 24.1057 15.4974C24.1057 17.9939 22.1155 19.9958 19.6333 19.9958C17.1512 19.9958 15.161 17.9939 15.161 15.4974C15.161 12.9999 17.1512 11 19.6333 11ZM25.7049 11.75C28.1023 11.75 29.9851 14.0188 29.3438 16.546C28.911 18.2473 27.3441 19.3774 25.5983 19.3315C25.4233 19.3267 25.2511 19.3104 25.0846 19.2817C24.9637 19.2607 24.9029 19.1238 24.9714 19.0224C25.6373 18.0368 26.0169 16.8512 26.0169 15.5785C26.0169 14.2504 25.6021 13.0122 24.8819 11.9969C24.8591 11.9653 24.842 11.9165 24.8648 11.8802C24.8838 11.8505 24.919 11.8352 24.9523 11.8275C25.1949 11.7778 25.4442 11.75 25.7049 11.75ZM13.6694 11.7499C13.9301 11.7499 14.1794 11.7777 14.4229 11.8274C14.4553 11.8351 14.4914 11.8513 14.5104 11.8801C14.5323 11.9164 14.5161 11.9652 14.4933 11.9968C13.7731 13.0121 13.3583 14.2503 13.3583 15.5785C13.3583 16.8511 13.7379 18.0367 14.4039 19.0223C14.4724 19.1237 14.4115 19.2606 14.2907 19.2816C14.1232 19.3113 13.952 19.3266 13.7769 19.3314C12.0312 19.3773 10.4643 18.2472 10.0314 16.5459C9.38923 14.0187 11.272 11.7499 13.6694 11.7499Z" fill="white"/>
</svg>
