<svg width="28" height="27" viewBox="0 0 28 27" fill="none" xmlns="http://www.w3.org/2000/svg">
<path d="M12.5342 7.49057L12.5125 7.48963H12.4908C12.0517 7.48963 11.6303 7.59083 11.238 7.78687L11.2171 7.79734L11.1967 7.80877C10.6896 8.09258 10.2781 8.54058 10.048 9.08415L10.0422 9.09767L10.0369 9.11135C9.96063 9.30745 9.88796 9.61264 9.84531 9.79932C9.82051 9.9079 9.79874 10.009 9.78301 10.0846C9.77517 10.1222 9.76849 10.1552 9.7635 10.1807C9.7611 10.193 9.75852 10.2064 9.75625 10.219C9.75541 10.2236 9.75404 10.2313 9.75254 10.2404C9.59685 11.0866 9.52124 12.3789 9.52124 13.7436C9.52124 15.0658 9.59922 16.2937 9.72415 17.1262L9.77306 17.4521L9.79572 17.4748C9.8081 17.5347 9.82215 17.6012 9.83749 17.6704C9.86759 17.8062 9.90498 17.9633 9.94793 18.113C9.98632 18.2467 10.0461 18.4364 10.1335 18.6038L10.1343 18.6053C10.5856 19.4664 11.4736 20.0104 12.4397 20.0104H12.4908H12.5075L12.5241 20.0098C12.8866 19.9977 13.3175 19.8591 13.5564 19.7764C13.6985 19.7273 13.8278 19.6778 13.9251 19.6383C13.9728 19.6189 14.0189 19.5994 14.0581 19.5816C14.0718 19.5754 14.0928 19.5657 14.1163 19.5539C14.8793 19.2296 15.9237 18.6223 16.8953 17.9691C17.8776 17.3086 18.8846 16.5348 19.5037 15.8692L19.567 15.8059C19.7448 15.6282 19.9523 15.3769 20.0163 15.2921C20.3623 14.8363 20.5251 14.2883 20.5251 13.7577C20.5251 13.1749 20.3429 12.6122 19.9837 12.1477L19.9447 12.0971L19.8999 12.0524C19.9016 12.0541 19.9013 12.0538 19.8979 12.0501C19.8934 12.0453 19.8834 12.0347 19.8656 12.0153L19.7641 11.9051C19.6884 11.823 19.5898 11.7174 19.4898 11.617C18.8855 10.9728 17.8707 10.1869 16.8647 9.50795C15.8529 8.82502 14.7412 8.17702 13.9229 7.85483C13.7864 7.79966 13.5684 7.72024 13.3397 7.65112C13.1334 7.58879 12.8176 7.50288 12.5342 7.49057ZM14 1.5C20.7503 1.5 26.25 6.99633 26.25 13.7577C26.25 20.5029 20.7511 26 14 26C7.24892 26 1.75 20.5029 1.75 13.7577C1.75 6.99633 7.24967 1.5 14 1.5Z" stroke="#001824" stroke-width="2"/>
</svg>
