<svg width="28" height="27" viewBox="0 0 28 27" fill="none" xmlns="http://www.w3.org/2000/svg">
<path d="M14 0.5C21.3028 0.5 27.25 6.44428 27.25 13.7577C27.25 21.0557 21.3028 27 14 27C6.69715 27 0.75 21.0557 0.75 13.7577C0.75 6.44428 6.69715 0.5 14 0.5ZM12.4908 8.48963C12.2095 8.48963 11.9409 8.55355 11.6851 8.68138C11.3653 8.86035 11.1096 9.14158 10.9689 9.47395C10.8793 9.70405 10.7387 10.3944 10.7387 10.4071C10.598 11.1614 10.5212 12.3886 10.5212 13.7436C10.5212 15.036 10.598 16.2108 10.7131 16.9778C10.7259 16.9906 10.8666 17.8471 11.02 18.1411C11.3014 18.678 11.8514 19.0104 12.4397 19.0104H12.4908C12.8745 18.9976 13.6803 18.6652 13.6803 18.6524C15.036 18.09 17.709 16.3386 18.7833 15.1754L18.86 15.0986C19.0007 14.958 19.1798 14.7407 19.2181 14.6896C19.4228 14.4211 19.5251 14.0888 19.5251 13.7577C19.5251 13.3857 19.41 13.0405 19.1926 12.7593C19.1414 12.7082 18.9496 12.4908 18.7705 12.3119C17.7218 11.1869 14.9848 9.34612 13.5524 8.78365C13.3349 8.69544 12.785 8.50241 12.4908 8.48963Z" fill="#0077B6"/>
</svg>
