<svg width="8" height="23" viewBox="0 0 8 23" fill="none" xmlns="http://www.w3.org/2000/svg">
<path d="M3.96582 12.6816C4.51811 12.6816 4.96582 12.2339 4.96582 11.6816C4.96582 11.1294 4.51811 10.6816 3.96582 10.6816C3.41354 10.6816 2.96582 11.1294 2.96582 11.6816C2.96582 12.2339 3.41354 12.6816 3.96582 12.6816Z" stroke="black" stroke-width="2" stroke-linecap="round" stroke-linejoin="round"/>
<path d="M3.96582 5.68164C4.51811 5.68164 4.96582 5.23393 4.96582 4.68164C4.96582 4.12936 4.51811 3.68164 3.96582 3.68164C3.41354 3.68164 2.96582 4.12936 2.96582 4.68164C2.96582 5.23393 3.41354 5.68164 3.96582 5.68164Z" stroke="black" stroke-width="2" stroke-linecap="round" stroke-linejoin="round"/>
<path d="M3.96582 19.6816C4.51811 19.6816 4.96582 19.2339 4.96582 18.6816C4.96582 18.1294 4.51811 17.6816 3.96582 17.6816C3.41354 17.6816 2.96582 18.1294 2.96582 18.6816C2.96582 19.2339 3.41354 19.6816 3.96582 19.6816Z" stroke="black" stroke-width="2" stroke-linecap="round" stroke-linejoin="round"/>
</svg>
