<svg width="22" height="22" viewBox="0 0 22 22" fill="none" xmlns="http://www.w3.org/2000/svg">
<path d="M15.584 11.0919L6.60006 11.0919" stroke="#252525" stroke-width="2" stroke-linecap="round" stroke-linejoin="round"/>
<path d="M11.092 6.59998L11.092 15.5839" stroke="#252525" stroke-width="2" stroke-linecap="round" stroke-linejoin="round"/>
<mask id="path-3-inside-1_3221_3770" fill="white">
<path fill-rule="evenodd" clip-rule="evenodd" d="M20.4504 1.53879C19.2746 0.461903 17.7142 -0.0875289 16.1318 0.0113688H5.86836C4.27499 -0.0875289 2.71459 0.461903 1.5388 1.53879C0.461906 2.71457 -0.0875296 4.27496 0.0113689 5.86831V16.1317C-0.0875296 17.725 0.461906 19.2854 1.5388 20.4612C2.71459 21.5381 4.27499 22.0875 5.86836 21.9886H16.1318C17.7142 22.0875 19.2856 21.5381 20.4614 20.4612C21.5273 19.2854 22.0877 17.725 21.9888 16.1317V5.86831C22.0767 4.27496 21.5273 2.71457 20.4504 1.53879Z"/>
</mask>
<path d="M16.1318 0.0113688V2.01137H16.1943L16.2566 2.00747L16.1318 0.0113688ZM20.4504 1.53879L21.9253 0.187958L21.866 0.123206L21.8012 0.0639018L20.4504 1.53879ZM5.86836 0.0113688L5.74446 2.00753L5.80635 2.01137H5.86836V0.0113688ZM1.5388 1.53879L0.187982 0.0639027L0.123231 0.123207L0.063926 0.187958L1.5388 1.53879ZM0.0113689 5.86831H2.01137V5.8063L2.00753 5.74441L0.0113689 5.86831ZM0.0113689 16.1317L2.00753 16.2556L2.01137 16.1937V16.1317H0.0113689ZM1.5388 20.4612L0.0639252 21.812L0.123231 21.8768L0.187982 21.9361L1.5388 20.4612ZM5.86836 21.9886V19.9886H5.80635L5.74446 19.9925L5.86836 21.9886ZM16.1318 21.9886L16.2566 19.9925L16.1943 19.9886H16.1318V21.9886ZM20.4614 20.4612L21.8122 21.9361L21.8807 21.8733L21.9431 21.8045L20.4614 20.4612ZM21.9888 16.1317H19.9888V16.1937L19.9927 16.2556L21.9888 16.1317ZM21.9888 5.86831L19.9918 5.75813L19.9888 5.81318V5.86831H21.9888ZM16.2566 2.00747C17.2966 1.94247 18.3244 2.30367 19.0996 3.01367L21.8012 0.0639018C20.2248 -1.37986 18.1318 -2.11753 16.0071 -1.98474L16.2566 2.00747ZM5.86836 2.01137H16.1318V-1.98863H5.86836V2.01137ZM2.88962 3.01367C3.66334 2.30503 4.69082 1.94213 5.74446 2.00753L5.99225 -1.98479C3.85916 -2.11719 1.76584 -1.38123 0.187982 0.0639027L2.88962 3.01367ZM2.00753 5.74441C1.94213 4.6908 2.30503 3.66334 3.01368 2.88962L0.063926 0.187958C-1.38122 1.76581 -2.11719 3.85912 -1.98479 5.99221L2.00753 5.74441ZM2.01137 16.1317V5.86831H-1.98863V16.1317H2.01137ZM3.01368 19.1104C2.30503 18.3367 1.94213 17.3092 2.00753 16.2556L-1.98479 16.0078C-2.11719 18.1409 -1.38122 20.2342 0.0639252 21.812L3.01368 19.1104ZM5.74446 19.9925C4.69082 20.0579 3.66334 19.695 2.88962 18.9863L0.187982 21.9361C1.76584 23.3812 3.85916 24.1172 5.99226 23.9848L5.74446 19.9925ZM16.1318 19.9886H5.86836V23.9886H16.1318V19.9886ZM19.1106 18.9863C18.3378 19.694 17.3 20.0577 16.2566 19.9925L16.0071 23.9847C18.1284 24.1173 20.2333 23.3822 21.8122 21.9361L19.1106 18.9863ZM19.9927 16.2556C20.0575 17.3006 19.6899 18.3344 18.9796 19.1179L21.9431 21.8045C23.3646 20.2365 24.1179 18.1495 23.985 16.0078L19.9927 16.2556ZM19.9888 5.86831V16.1317H23.9888V5.86831H19.9888ZM18.9755 2.88962C19.6839 3.66308 20.0505 4.69482 19.9918 5.75813L23.9858 5.97849C24.1029 3.85509 23.3706 1.76607 21.9253 0.187958L18.9755 2.88962Z" fill="#252525" mask="url(#path-3-inside-1_3221_3770)"/>
</svg>
