<svg width="20" height="25" viewBox="0 0 20 25" fill="none" xmlns="http://www.w3.org/2000/svg">
<path d="M10 17.4674C12.6874 17.4674 15.0454 17.6897 16.6999 18.2757C17.5204 18.5663 18.0978 18.9225 18.4629 19.3209C18.8073 19.6968 19 20.1482 19 20.7487C19 21.3475 18.8069 21.7958 18.4618 22.1688C18.0955 22.5649 17.516 22.9183 16.6928 23.2058C15.0333 23.7853 12.6741 24 10 24C7.31329 24 4.95521 23.7777 3.30056 23.1917C2.47989 22.9011 1.90242 22.5449 1.53726 22.1464C1.19274 21.7705 1 21.3191 1 20.7187C1 20.1199 1.19313 19.6716 1.53817 19.2986C1.9045 18.9025 2.48402 18.5492 3.30724 18.2617C4.9667 17.6821 7.32588 17.4674 10 17.4674ZM10 1C13.1221 1 15.6175 3.49528 15.6175 6.61382C15.6175 9.7326 13.1218 12.2289 10 12.2289C6.87931 12.2289 4.38252 9.73247 4.38252 6.61382C4.38252 3.4954 6.87907 1 10 1Z" stroke="#252525" stroke-width="2"/>
</svg>
