<svg width="221" height="220" viewBox="0 0 221 220" fill="none" xmlns="http://www.w3.org/2000/svg">
<g clip-path="url(#clip0_369_8457)">
<path d="M220.5 0H0.5V220H220.5V0Z" fill="white"/>
<path d="M-29.6107 -44.8586H-44.3591V-30.1102H-29.6107V-44.8586Z" fill="#0077B6"/>
<path d="M-14.8622 -44.8586H-29.6107V-30.1102H-14.8622V-44.8586Z" fill="#0077B6"/>
<path d="M-0.113762 -44.8586H-14.8622V-30.1102H-0.113762V-44.8586Z" fill="#0077B6"/>
<path d="M14.6347 -44.8586H-0.113762V-30.1102H14.6347V-44.8586Z" fill="#0077B6"/>
<path d="M29.3831 -44.8586H14.6347V-30.1102H29.3831V-44.8586Z" fill="#0077B6"/>
<path d="M44.1316 -44.8586H29.3831V-30.1102H44.1316V-44.8586Z" fill="#0077B6"/>
<path d="M58.8801 -44.8586H44.1316V-30.1102H58.8801V-44.8586Z" fill="#0077B6"/>
<path d="M88.377 -44.8586H73.6285V-30.1102H88.377V-44.8586Z" fill="#0077B6"/>
<path d="M147.371 -44.8586H132.622V-30.1102H147.371V-44.8586Z" fill="#0077B6"/>
<path d="M176.868 -44.8586H162.119V-30.1102H176.868V-44.8586Z" fill="#0077B6"/>
<path d="M191.616 -44.8586H176.868V-30.1102H191.616V-44.8586Z" fill="#0077B6"/>
<path d="M206.365 -44.8586H191.616V-30.1102H206.365V-44.8586Z" fill="#0077B6"/>
<path d="M221.113 -44.8586H206.365V-30.1102H221.113V-44.8586Z" fill="#0077B6"/>
<path d="M235.862 -44.8586H221.113V-30.1102H235.862V-44.8586Z" fill="#0077B6"/>
<path d="M250.61 -44.8586H235.862V-30.1102H250.61V-44.8586Z" fill="#0077B6"/>
<path d="M265.358 -44.8586H250.61V-30.1102H265.358V-44.8586Z" fill="#0077B6"/>
<path d="M-29.6107 -30.1102H-44.3591V-15.3617H-29.6107V-30.1102Z" fill="#0077B6"/>
<path d="M58.8801 -30.1102H44.1316V-15.3617H58.8801V-30.1102Z" fill="#0077B6"/>
<path d="M117.874 -30.1102H103.125V-15.3617H117.874V-30.1102Z" fill="#0077B6"/>
<path d="M132.622 -30.1102H117.874V-15.3617H132.622V-30.1102Z" fill="#0077B6"/>
<path d="M147.371 -30.1102H132.622V-15.3617H147.371V-30.1102Z" fill="#0077B6"/>
<path d="M176.868 -30.1102H162.119V-15.3617H176.868V-30.1102Z" fill="#0077B6"/>
<path d="M265.358 -30.1102H250.61V-15.3617H265.358V-30.1102Z" fill="#0077B6"/>
<path d="M-29.6107 -15.3617H-44.3591V-0.613274H-29.6107V-15.3617Z" fill="#0077B6"/>
<path d="M-0.113762 -15.3617H-14.8622V-0.613274H-0.113762V-15.3617Z" fill="#0077B6"/>
<path d="M14.6347 -15.3617H-0.113762V-0.613274H14.6347V-15.3617Z" fill="#0077B6"/>
<path d="M29.3831 -15.3617H14.6347V-0.613274H29.3831V-15.3617Z" fill="#0077B6"/>
<path d="M58.8801 -15.3617H44.1316V-0.613274H58.8801V-15.3617Z" fill="#0077B6"/>
<path d="M88.377 -15.3617H73.6285V-0.613274H88.377V-15.3617Z" fill="#0077B6"/>
<path d="M147.371 -15.3617H132.622V-0.613274H147.371V-15.3617Z" fill="#0077B6"/>
<path d="M176.868 -15.3617H162.119V-0.613274H176.868V-15.3617Z" fill="#0077B6"/>
<path d="M206.365 -15.3617H191.616V-0.613274H206.365V-15.3617Z" fill="#0077B6"/>
<path d="M221.113 -15.3617H206.365V-0.613274H221.113V-15.3617Z" fill="#0077B6"/>
<path d="M235.862 -15.3617H221.113V-0.613274H235.862V-15.3617Z" fill="#0077B6"/>
<path d="M265.358 -15.3617H250.61V-0.613274H265.358V-15.3617Z" fill="#0077B6"/>
<path d="M-29.6107 -0.613274H-44.3591V14.1352H-29.6107V-0.613274Z" fill="#0077B6"/>
<path d="M-0.113762 -0.613274H-14.8622V14.1352H-0.113762V-0.613274Z" fill="#0077B6"/>
<path d="M14.6347 -0.613274H-0.113762V14.1352H14.6347V-0.613274Z" fill="#0077B6"/>
<path d="M29.3831 -0.613274H14.6347V14.1352H29.3831V-0.613274Z" fill="#0077B6"/>
<path d="M58.8801 -0.613274H44.1316V14.1352H58.8801V-0.613274Z" fill="#0077B6"/>
<path d="M103.125 -0.613274H88.377L88.377 14.1352H103.125V-0.613274Z" fill="#0077B6"/>
<path d="M117.874 -0.613274H103.125V14.1352H117.874V-0.613274Z" fill="#0077B6"/>
<path d="M147.371 -0.613274H132.622V14.1352H147.371V-0.613274Z" fill="#0077B6"/>
<path d="M176.868 -0.613274H162.119V14.1352H176.868V-0.613274Z" fill="#0077B6"/>
<path d="M206.365 -0.613274H191.616V14.1352H206.365V-0.613274Z" fill="#0077B6"/>
<path d="M221.113 -0.613274H206.365V14.1352H221.113V-0.613274Z" fill="#0077B6"/>
<path d="M235.862 -0.613274H221.113V14.1352H235.862V-0.613274Z" fill="#0077B6"/>
<path d="M265.358 -0.613274H250.61V14.1352H265.358V-0.613274Z" fill="#0077B6"/>
<path d="M-29.6107 14.1352H-44.3591V28.8836H-29.6107V14.1352Z" fill="#0077B6"/>
<path d="M-0.113762 14.1352H-14.8622V28.8836H-0.113762V14.1352Z" fill="#0077B6"/>
<path d="M14.6347 14.1352H-0.113762V28.8836H14.6347V14.1352Z" fill="#0077B6"/>
<path d="M29.3831 14.1352H14.6347V28.8836H29.3831V14.1352Z" fill="#0077B6"/>
<path d="M58.8801 14.1352H44.1316V28.8836H58.8801V14.1352Z" fill="#0077B6"/>
<path d="M103.125 14.1352H88.377V28.8836H103.125V14.1352Z" fill="#0077B6"/>
<path d="M117.874 14.1352H103.125V28.8836H117.874V14.1352Z" fill="#0077B6"/>
<path d="M176.868 14.1352H162.119V28.8836H176.868V14.1352Z" fill="#0077B6"/>
<path d="M206.365 14.1352H191.616V28.8836H206.365V14.1352Z" fill="#0077B6"/>
<path d="M221.113 14.1352H206.365V28.8836H221.113V14.1352Z" fill="#0077B6"/>
<path d="M235.862 14.1352H221.113V28.8836H235.862V14.1352Z" fill="#0077B6"/>
<path d="M265.358 14.1352H250.61V28.8836H265.358V14.1352Z" fill="#0077B6"/>
<path d="M-29.6107 28.8836H-44.3591V43.6321H-29.6107V28.8836Z" fill="#0077B6"/>
<path d="M58.8801 28.8836H44.1316V43.6321H58.8801V28.8836Z" fill="#0077B6"/>
<path d="M176.868 28.8836H162.119V43.6321H176.868V28.8836Z" fill="#0077B6"/>
<path d="M265.358 28.8836H250.61V43.6321H265.358V28.8836Z" fill="#0077B6"/>
<path d="M-29.6107 43.6321H-44.3591V58.3806H-29.6107V43.6321Z" fill="#0077B6"/>
<path d="M-14.8622 43.6321H-29.6107V58.3806H-14.8622V43.6321Z" fill="#0077B6"/>
<path d="M-0.113762 43.6321H-14.8622V58.3806H-0.113762V43.6321Z" fill="#0077B6"/>
<path d="M14.6347 43.6321H-0.113762V58.3806H14.6347V43.6321Z" fill="#0077B6"/>
<path d="M29.3831 43.6321H14.6347V58.3806H29.3831V43.6321Z" fill="#0077B6"/>
<path d="M44.1316 43.6321H29.3831V58.3806H44.1316V43.6321Z" fill="#0077B6"/>
<path d="M58.8801 43.6321H44.1316V58.3806H58.8801V43.6321Z" fill="#0077B6"/>
<path d="M88.377 43.6321H73.6285V58.3806H88.377V43.6321Z" fill="#0077B6"/>
<path d="M117.874 43.6321H103.125V58.3806H117.874V43.6321Z" fill="#0077B6"/>
<path d="M147.371 43.6321H132.622V58.3806H147.371V43.6321Z" fill="#0077B6"/>
<path d="M176.868 43.6321H162.119V58.3806H176.868V43.6321Z" fill="#0077B6"/>
<path d="M191.616 43.6321H176.868V58.3806H191.616V43.6321Z" fill="#0077B6"/>
<path d="M206.365 43.6321H191.616V58.3806H206.365V43.6321Z" fill="#0077B6"/>
<path d="M221.113 43.6321H206.365V58.3806H221.113V43.6321Z" fill="#0077B6"/>
<path d="M235.862 43.6321H221.113V58.3806H235.862V43.6321Z" fill="#0077B6"/>
<path d="M250.61 43.6321H235.862V58.3806H250.61V43.6321Z" fill="#0077B6"/>
<path d="M265.358 43.6321H250.61V58.3806H265.358V43.6321Z" fill="#0077B6"/>
<path d="M88.377 58.3806H73.6285V73.129H88.377V58.3806Z" fill="#0077B6"/>
<path d="M117.874 58.3806H103.125V73.129H117.874V58.3806Z" fill="#0077B6"/>
<path d="M132.622 58.3806H117.874V73.129H132.622V58.3806Z" fill="#0077B6"/>
<path d="M147.371 58.3806H132.622V73.129H147.371V58.3806Z" fill="#0077B6"/>
<path d="M-29.6107 73.129H-44.3591V87.8775H-29.6107V73.129Z" fill="#0077B6"/>
<path d="M-0.113762 73.129H-14.8622V87.8775H-0.113762V73.129Z" fill="#0077B6"/>
<path d="M44.1316 73.129H29.3831V87.8775H44.1316V73.129Z" fill="#0077B6"/>
<path d="M58.8801 73.129H44.1316V87.8775H58.8801V73.129Z" fill="#0077B6"/>
<path d="M132.622 73.129H117.874L117.874 87.8775H132.622V73.129Z" fill="#0077B6"/>
<path d="M162.119 73.129L147.371 73.129V87.8775H162.119V73.129Z" fill="#0077B6"/>
<path d="M176.868 73.129H162.119V87.8775H176.868V73.129Z" fill="#0077B6"/>
<path d="M235.862 73.129H221.113V87.8775H235.862V73.129Z" fill="#0077B6"/>
<path d="M265.358 73.129H250.61V87.8775H265.358V73.129Z" fill="#0077B6"/>
<path d="M-29.6107 87.8775H-44.3591V102.626H-29.6107V87.8775Z" fill="#0077B6"/>
<path d="M-14.8622 87.8775H-29.6107V102.626H-14.8622V87.8775Z" fill="#0077B6"/>
<path d="M14.6347 87.8775L-0.113762 87.8775V102.626H14.6347V87.8775Z" fill="#0077B6"/>
<path d="M73.6285 87.8775L58.8801 87.8775V102.626H73.6285V87.8775Z" fill="#0077B6"/>
<path d="M103.125 87.8775H88.377V102.626H103.125V87.8775Z" fill="#0077B6"/>
<path d="M162.119 87.8775H147.371V102.626H162.119V87.8775Z" fill="#0077B6"/>
<path d="M191.616 87.8775L176.868 87.8775V102.626H191.616V87.8775Z" fill="#0077B6"/>
<path d="M206.365 87.8775H191.616V102.626H206.365V87.8775Z" fill="#0077B6"/>
<path d="M250.61 87.8775H235.862V102.626H250.61V87.8775Z" fill="#0077B6"/>
<path d="M265.358 87.8775H250.61V102.626H265.358V87.8775Z" fill="#0077B6"/>
<path d="M14.6347 102.626H-0.113762V117.374H14.6347V102.626Z" fill="#0077B6"/>
<path d="M44.1316 102.626H29.3831V117.374H44.1316V102.626Z" fill="#0077B6"/>
<path d="M58.8801 102.626L44.1316 102.626V117.374H58.8801V102.626Z" fill="#0077B6"/>
<path d="M88.377 102.626H73.6285L73.6285 117.374H88.377L88.377 102.626Z" fill="#0077B6"/>
<path d="M103.125 102.626H88.377L88.377 117.374H103.125V102.626Z" fill="#0077B6"/>
<path d="M117.874 102.626L103.125 102.626V117.374H117.874V102.626Z" fill="#0077B6"/>
<path d="M132.622 102.626H117.874V117.374H132.622V102.626Z" fill="#0077B6"/>
<path d="M147.371 102.626L132.622 102.626V117.374H147.371V102.626Z" fill="#0077B6"/>
<path d="M162.119 102.626H147.371V117.374H162.119V102.626Z" fill="#0077B6"/>
<path d="M221.113 102.626L206.365 102.626V117.374H221.113V102.626Z" fill="#0077B6"/>
<path d="M250.61 102.626H235.862V117.374H250.61V102.626Z" fill="#0077B6"/>
<path d="M265.358 102.626H250.61V117.374H265.358V102.626Z" fill="#0077B6"/>
<path d="M-29.6107 117.374H-44.3591V132.123H-29.6107V117.374Z" fill="#0077B6"/>
<path d="M-14.8622 117.374H-29.6107V132.123H-14.8622V117.374Z" fill="#0077B6"/>
<path d="M-0.113762 117.374L-14.8622 117.374V132.123H-0.113762V117.374Z" fill="#0077B6"/>
<path d="M14.6347 117.374H-0.113762V132.123H14.6347V117.374Z" fill="#0077B6"/>
<path d="M73.6285 117.374H58.8801V132.123H73.6285L73.6285 117.374Z" fill="#0077B6"/>
<path d="M88.377 117.374H73.6285L73.6285 132.123H88.377V117.374Z" fill="#0077B6"/>
<path d="M162.119 117.374H147.371V132.123H162.119V117.374Z" fill="#0077B6"/>
<path d="M176.868 117.374L162.119 117.374V132.123H176.868V117.374Z" fill="#0077B6"/>
<path d="M191.616 117.374H176.868V132.123H191.616V117.374Z" fill="#0077B6"/>
<path d="M206.365 117.374L191.616 117.374V132.123H206.365V117.374Z" fill="#0077B6"/>
<path d="M-29.6107 132.123H-44.3591V146.871H-29.6107V132.123Z" fill="#0077B6"/>
<path d="M-0.113762 132.123H-14.8622V146.871H-0.113762V132.123Z" fill="#0077B6"/>
<path d="M29.3831 132.123H14.6347V146.871H29.3831V132.123Z" fill="#0077B6"/>
<path d="M58.8801 132.123H44.1316V146.871H58.8801V132.123Z" fill="#0077B6"/>
<path d="M88.377 132.123H73.6285L73.6285 146.871H88.377V132.123Z" fill="#0077B6"/>
<path d="M132.622 132.123H117.874V146.871H132.622V132.123Z" fill="#0077B6"/>
<path d="M176.868 132.123H162.119V146.871H176.868V132.123Z" fill="#0077B6"/>
<path d="M206.365 132.123H191.616V146.871H206.365V132.123Z" fill="#0077B6"/>
<path d="M250.61 132.123H235.862V146.871H250.61V132.123Z" fill="#0077B6"/>
<path d="M103.125 146.871H88.377L88.377 161.62H103.125V146.871Z" fill="#0077B6"/>
<path d="M147.371 146.871H132.622V161.62H147.371V146.871Z" fill="#0077B6"/>
<path d="M162.119 146.871H147.371V161.62H162.119V146.871Z" fill="#0077B6"/>
<path d="M176.868 146.871H162.119V161.62H176.868V146.871Z" fill="#0077B6"/>
<path d="M191.616 146.871H176.868V161.62H191.616V146.871Z" fill="#0077B6"/>
<path d="M206.365 146.871H191.616V161.62H206.365V146.871Z" fill="#0077B6"/>
<path d="M-29.6107 161.62H-44.3591V176.368H-29.6107V161.62Z" fill="#0077B6"/>
<path d="M-14.8622 161.62H-29.6107V176.368H-14.8622V161.62Z" fill="#0077B6"/>
<path d="M-0.113762 161.62H-14.8622V176.368H-0.113762V161.62Z" fill="#0077B6"/>
<path d="M14.6347 161.62H-0.113762V176.368H14.6347V161.62Z" fill="#0077B6"/>
<path d="M29.3831 161.62H14.6347V176.368H29.3831V161.62Z" fill="#0077B6"/>
<path d="M44.1316 161.62H29.3831V176.368H44.1316V161.62Z" fill="#0077B6"/>
<path d="M58.8801 161.62H44.1316V176.368H58.8801V161.62Z" fill="#0077B6"/>
<path d="M117.874 161.62H103.125L103.125 176.368H117.874V161.62Z" fill="#0077B6"/>
<path d="M147.371 161.62H132.622V176.368H147.371V161.62Z" fill="#0077B6"/>
<path d="M162.119 161.62H147.371V176.368H162.119V161.62Z" fill="#0077B6"/>
<path d="M191.616 161.62H176.868V176.368H191.616V161.62Z" fill="#0077B6"/>
<path d="M206.365 161.62H191.616V176.368H206.365V161.62Z" fill="#0077B6"/>
<path d="M235.862 161.62H221.113V176.368H235.862V161.62Z" fill="#0077B6"/>
<path d="M265.358 161.62H250.61V176.368H265.358V161.62Z" fill="#0077B6"/>
<path d="M-29.6107 176.368H-44.3591V191.117H-29.6107V176.368Z" fill="#0077B6"/>
<path d="M58.8801 176.368H44.1316V191.117H58.8801V176.368Z" fill="#0077B6"/>
<path d="M88.377 176.368H73.6285V191.117H88.377V176.368Z" fill="#0077B6"/>
<path d="M132.622 176.368H117.874L117.874 191.117H132.622V176.368Z" fill="#0077B6"/>
<path d="M206.365 176.368H191.616V191.117H206.365V176.368Z" fill="#0077B6"/>
<path d="M235.862 176.368H221.113V191.117H235.862V176.368Z" fill="#0077B6"/>
<path d="M265.358 176.368H250.61V191.117H265.358V176.368Z" fill="#0077B6"/>
<path d="M-29.6107 191.117H-44.3591V205.865H-29.6107V191.117Z" fill="#0077B6"/>
<path d="M-0.113762 191.117H-14.8622V205.865H-0.113762V191.117Z" fill="#0077B6"/>
<path d="M14.6347 191.117H-0.113762V205.865H14.6347V191.117Z" fill="#0077B6"/>
<path d="M29.3831 191.117H14.6347V205.865H29.3831V191.117Z" fill="#0077B6"/>
<path d="M58.8801 191.117H44.1316V205.865H58.8801V191.117Z" fill="#0077B6"/>
<path d="M103.125 191.117H88.377L88.377 205.865H103.125V191.117Z" fill="#0077B6"/>
<path d="M117.874 191.117H103.125V205.865H117.874L117.874 191.117Z" fill="#0077B6"/>
<path d="M162.119 191.117H147.371V205.865H162.119V191.117Z" fill="#0077B6"/>
<path d="M176.868 191.117H162.119V205.865H176.868V191.117Z" fill="#0077B6"/>
<path d="M206.365 191.117H191.616V205.865H206.365V191.117Z" fill="#0077B6"/>
<path d="M221.113 191.117H206.365V205.865H221.113V191.117Z" fill="#0077B6"/>
<path d="M235.862 191.117H221.113V205.865H235.862V191.117Z" fill="#0077B6"/>
<path d="M-29.6107 205.865H-44.3591V220.614H-29.6107V205.865Z" fill="#0077B6"/>
<path d="M-0.113762 205.865H-14.8622V220.614H-0.113762V205.865Z" fill="#0077B6"/>
<path d="M14.6347 205.865H-0.113762V220.614H14.6347V205.865Z" fill="#0077B6"/>
<path d="M29.3831 205.865H14.6347V220.614H29.3831V205.865Z" fill="#0077B6"/>
<path d="M58.8801 205.865H44.1316V220.614H58.8801V205.865Z" fill="#0077B6"/>
<path d="M103.125 205.865H88.377V220.614H103.125V205.865Z" fill="#0077B6"/>
<path d="M132.622 205.865H117.874L117.874 220.614H132.622V205.865Z" fill="#0077B6"/>
<path d="M147.371 205.865H132.622V220.614H147.371V205.865Z" fill="#0077B6"/>
<path d="M191.616 205.865H176.868V220.614H191.616V205.865Z" fill="#0077B6"/>
<path d="M206.365 205.865H191.616V220.614H206.365V205.865Z" fill="#0077B6"/>
<path d="M250.61 205.865H235.862V220.614H250.61V205.865Z" fill="#0077B6"/>
<path d="M265.358 205.865H250.61V220.614H265.358V205.865Z" fill="#0077B6"/>
<path d="M-29.6107 220.614H-44.3591V235.362H-29.6107V220.614Z" fill="#0077B6"/>
<path d="M-0.113762 220.614H-14.8622V235.362H-0.113762V220.614Z" fill="#0077B6"/>
<path d="M14.6347 220.614H-0.113762V235.362H14.6347V220.614Z" fill="#0077B6"/>
<path d="M29.3831 220.614H14.6347V235.362H29.3831V220.614Z" fill="#0077B6"/>
<path d="M58.8801 220.614H44.1316V235.362H58.8801V220.614Z" fill="#0077B6"/>
<path d="M88.377 220.614H73.6285V235.362H88.377L88.377 220.614Z" fill="#0077B6"/>
<path d="M117.874 220.614H103.125L103.125 235.362H117.874L117.874 220.614Z" fill="#0077B6"/>
<path d="M176.868 220.614H162.119V235.362H176.868V220.614Z" fill="#0077B6"/>
<path d="M-29.6107 235.362H-44.3591V250.11H-29.6107V235.362Z" fill="#0077B6"/>
<path d="M58.8801 235.362H44.1316V250.11H58.8801V235.362Z" fill="#0077B6"/>
<path d="M147.371 235.362H132.622V250.11H147.371V235.362Z" fill="#0077B6"/>
<path d="M162.119 235.362H147.371V250.11H162.119V235.362Z" fill="#0077B6"/>
<path d="M206.365 235.362H191.616V250.11H206.365V235.362Z" fill="#0077B6"/>
<path d="M235.862 235.362H221.113V250.11H235.862V235.362Z" fill="#0077B6"/>
<path d="M-29.6107 250.11H-44.3591V264.859H-29.6107V250.11Z" fill="#0077B6"/>
<path d="M-14.8622 250.11H-29.6107V264.859H-14.8622V250.11Z" fill="#0077B6"/>
<path d="M-0.113762 250.11H-14.8622V264.859H-0.113762V250.11Z" fill="#0077B6"/>
<path d="M14.6347 250.11H-0.113762V264.859H14.6347V250.11Z" fill="#0077B6"/>
<path d="M29.3831 250.11H14.6347V264.859H29.3831V250.11Z" fill="#0077B6"/>
<path d="M44.1316 250.11H29.3831V264.859H44.1316V250.11Z" fill="#0077B6"/>
<path d="M58.8801 250.11H44.1316V264.859H58.8801V250.11Z" fill="#0077B6"/>
<path d="M88.377 250.11H73.6285V264.859H88.377V250.11Z" fill="#0077B6"/>
<path d="M103.125 250.11H88.377V264.859H103.125V250.11Z" fill="#0077B6"/>
<path d="M117.874 250.11H103.125V264.859H117.874V250.11Z" fill="#0077B6"/>
<path d="M132.622 250.11H117.874V264.859H132.622V250.11Z" fill="#0077B6"/>
<path d="M147.371 250.11H132.622V264.859H147.371V250.11Z" fill="#0077B6"/>
<path d="M162.119 250.11H147.371V264.859H162.119V250.11Z" fill="#0077B6"/>
<path d="M176.868 250.11H162.119V264.859H176.868V250.11Z" fill="#0077B6"/>
<path d="M235.862 250.11H221.113V264.859H235.862V250.11Z" fill="#0077B6"/>
<path d="M265.358 250.11H250.61V264.859H265.358V250.11Z" fill="#0077B6"/>
</g>
<defs>
<clipPath id="clip0_369_8457">
<rect width="220" height="220" fill="white" transform="translate(0.5)"/>
</clipPath>
</defs>
</svg>
