<svg width="28" height="27" viewBox="0 0 28 27" fill="none" xmlns="http://www.w3.org/2000/svg">
<path d="M23.5801 11.7057C24.0115 10.5553 24.443 9.40492 24.8983 8.2545V2.74211L23.8198 3.07764L22.957 8.2545L19.2661 12.5206C17.9719 13.0719 16.8694 13.2396 16.1264 13.3115C14.6884 13.4553 13.8975 13.2157 12.6512 13.6231C11.7644 13.9107 11.1173 14.39 10.7099 14.7256C11.0694 14.0545 11.6925 13.1677 12.7231 12.6884C13.538 12.3049 14.1851 12.3529 15.2876 12.209C16.1983 12.1132 17.4686 11.8735 19.0025 11.3223C17.6363 11.1305 16.2702 10.9148 14.9281 10.7231C16.3661 10.6752 17.6603 9.86029 18.2595 8.59004C18.9785 7.05615 18.3074 5.59417 18.2115 5.37847C17.133 6.14541 15.7909 6.96029 14.1851 7.72723C12.5793 8.4702 11.0934 8.97351 9.84708 9.30905C9.08014 11.0107 8.28923 12.7124 7.52229 14.438C6.99502 14.9173 6.46774 15.3967 5.9165 15.852C7.35452 17.8652 8.79254 19.8785 10.2306 21.8917C10.8297 21.3884 11.4529 20.8851 12.052 20.4057C15.5272 19.0396 19.0025 17.6975 22.5016 16.3314C23.9157 13.7429 25.3058 11.1785 26.7198 8.59004C26.9115 6.00161 27.1033 3.38921 27.271 0.800781C26.8396 1.06442 26.4322 1.35202 26.0008 1.61566C25.7611 3.72475 25.4975 5.85781 25.2578 7.9669C24.6826 9.23715 24.1314 10.4595 23.5801 11.7057Z" fill="#FCFCFC"/>
<path d="M4.26285 15.5645L10.1347 24.1925L6.65954 26.5413L0.763672 17.8173L4.26285 15.5645Z" fill="#FCFCFC"/>
</svg>
