<svg width="18" height="23" viewBox="0 0 18 23" fill="none" xmlns="http://www.w3.org/2000/svg">
<path d="M13.6667 1.25H4.33333C3.51126 1.25 2.72559 1.58252 2.14842 2.17001C1.57168 2.75704 1.25 3.55044 1.25 4.375V18.625C1.25 19.4496 1.57168 20.243 2.14842 20.83C2.72559 21.4175 3.51126 21.75 4.33333 21.75H13.6667C14.4887 21.75 15.2744 21.4175 15.8516 20.83C16.4283 20.243 16.75 19.4496 16.75 18.625V4.375C16.75 3.55044 16.4283 2.75703 15.8516 2.17001C15.2744 1.58252 14.4887 1.25 13.6667 1.25ZM5.08333 17.875V8.6875H12.9167V17.875H5.08333Z" stroke="#767474" stroke-width="1.5"/>
</svg>
