<svg width="283" height="228" viewBox="0 0 283 228" fill="none" xmlns="http://www.w3.org/2000/svg">
<path fill-rule="evenodd" clip-rule="evenodd" d="M162.841 227.166C196.642 227.166 226.303 202.024 209.645 167.874C192.987 133.724 254.882 134.827 273.064 111.225C295.237 82.441 288.816 -39.7418 146.473 34.7468C123.671 46.679 65.1116 22.4713 45.6871 34.4827C22.8226 48.6213 -9.34656 77.5726 22.8226 107.229C38.6685 121.837 -18.1428 159.753 6.73942 193.716C31.0182 226.856 48.0372 195.264 85.0013 202.024C121.965 208.783 137.738 227.166 162.841 227.166Z" fill="#64FC73"/>
<path d="M123.61 167.755C123.61 167.755 131.393 164.094 134.298 161.547C137.204 159 140.816 152.673 140.816 152.673C140.816 152.673 180.493 181.327 206.364 177.24C212.325 176.298 223.94 172.336 224.681 165.355C226.703 146.292 198.72 141.421 204.833 131.754C208.564 125.853 220.154 134.635 220.154 134.635L268.23 158.282C268.23 158.282 251.621 199.222 211.316 200.863C161.735 202.881 123.61 167.755 123.61 167.755Z" fill="white"/>
<path fill-rule="evenodd" clip-rule="evenodd" d="M85.4944 7.42285C85.0432 7.24571 82.6199 4.27858 79.5436 3.73855C78.1456 3.49315 79.4144 5.27322 77.8759 5.28924C73.2937 5.33695 65.8471 4.47607 64.4676 5.28924C63.4424 5.89167 65.7003 7.99627 64.4676 8.0929C52.8376 9.00449 35.095 20.6167 31.2456 26.2504C30.0205 28.0432 39.9286 25.0014 38.3499 25.8877C36.5781 26.8826 34.613 33.3965 33.4381 38.4275C32.6247 41.892 32.1126 46.3506 31.9318 51.2009C31.7812 55.3883 31.8415 56.0812 32.444 58.3708C33.1369 60.9315 33.6791 61.6846 34.613 61.3231C34.9444 61.2026 35.095 60.7507 35.095 59.9072C35.095 59.2444 35.4565 57.2561 35.9084 55.4787L36.6917 52.2854L37.0231 53.6109C37.4448 55.1473 39.9152 59.9072 42.1445 63.3716C42.2647 63.5555 42.782 63.3216 43.2485 62.1941C43.6735 61.1667 43.501 59.5253 44.2231 57.7661C45.868 53.7589 49.0978 48.5489 52.8376 44.3785C58.3646 38.2149 60.1984 31.0817 65.3794 25.3558C75.0483 14.67 87.1835 8.08598 85.4944 7.42285Z" fill="white"/>
<path fill-rule="evenodd" clip-rule="evenodd" d="M38.4874 27.3417C36.9364 28.5889 34.6341 38.7054 34.5946 38.8745C33.7812 42.339 32.9971 54.3698 33.7986 56.6475C34.6 58.9253 36.8442 50.7145 36.8442 50.7145C36.8442 50.7145 40.2362 59.5225 43.2335 61.9375C43.3615 62.0407 39.6709 51.0401 38.4874 44.6182C36.9251 36.1409 39.3701 26.6318 38.4874 27.3417Z" fill="#E7EAEE"/>
<path fill-rule="evenodd" clip-rule="evenodd" d="M96.2981 204.517C99.1902 203.885 104.07 201.682 105.938 200.928C107.807 200.175 113.5 192.136 115.548 183.068C117.025 176.38 117.778 166.86 116.934 165.264C116.81 165.037 116.354 160.708 117.567 162.122C120.263 165.264 123.464 170.196 133.563 161.357C136.314 158.95 139.96 155.843 139 153.096C136.314 145.411 124.671 129.937 122.896 128.764C120.774 127.363 110.047 128.554 94.0841 123.842C75.9806 118.499 68.4422 102.764 61.3577 104.813C55.6284 106.469 41.9015 116.648 38.4565 123.094C22.1926 153.526 41.9015 174.85 46.39 180.975L50.748 182.857L50.8987 186.743L51.1096 189.183C51.5012 193.853 51.6518 194.275 53.7606 195.841C59.0326 199.848 69.426 203.583 78.8252 204.909C83.1935 205.512 92.6831 205.301 96.2981 204.517Z" fill="white"/>
<path fill-rule="evenodd" clip-rule="evenodd" d="M52.462 185.321L52.6729 187.761C53.0646 192.43 53.2152 192.852 55.324 194.419C58.4341 196.782 63.3266 199.052 68.7458 200.787C72.5128 201.994 76.5343 202.943 80.3886 203.486C84.7568 204.089 94.2464 203.878 97.8615 203.095C99.6484 202.708 84.9502 191.16 76.2914 194.419C69.6419 196.921 53.9691 177.834 60.3414 172.848C67.4898 167.254 54.3908 145.192 53.9691 140.402C53.5473 135.613 51.8863 134.468 51.8379 134.636C51.7894 134.804 51.7894 135.377 51.9198 136.758C52.4818 142.71 52.462 185.321 52.462 185.321Z" fill="#E7EAEE"/>
<path fill-rule="evenodd" clip-rule="evenodd" d="M50.8927 139.035C51.5252 138.912 52.1377 139.325 52.2608 139.958C54.5345 151.639 64.1518 159.547 81.3492 163.682C98.6487 167.842 110.432 167.618 116.641 163.177C117.165 162.803 116.775 166.012 116.391 166.259C112.341 168.855 98.573 172.73 82.1427 169.228C61.1349 164.75 51.2711 147.086 49.9704 140.403C49.8473 139.771 50.2603 139.158 50.8927 139.035Z" fill="#FFB61D"/>
<path fill-rule="evenodd" clip-rule="evenodd" d="M42.1323 117.96C42.6915 117.64 63.557 141.553 92.1915 146.966C120.826 152.379 127.759 148.937 128.873 141.553C128.97 140.916 129.564 140.478 130.201 140.574C130.838 140.67 131.277 141.264 131.181 141.902C129.768 151.259 116.518 153.485 91.799 149.266C67.3901 145.101 50.6553 135.205 41.699 119.552C41.379 118.992 41.573 118.28 42.1323 117.96Z" fill="#FFB61D"/>
<path fill-rule="evenodd" clip-rule="evenodd" d="M162.316 116.634C161.533 116.363 160.689 115.76 160.147 115.067L159.243 113.952L162.437 110.789C167.347 105.969 171.113 101.029 174.366 95.1541C175.451 93.1959 178.192 86.6586 178.192 86.026C178.192 85.8151 178.524 84.9716 178.915 84.0979C179.518 82.8326 179.97 82.3506 181.265 81.6276C182.802 80.7238 184.549 80.4226 185.302 80.9347C186.748 81.8987 186.748 84.9414 185.302 90.1833C183.705 95.9373 181.566 100.065 177.138 105.999C176.445 106.903 175.15 108.681 174.216 109.916C171.715 113.229 170.089 114.826 167.889 116.061C165.72 117.266 164.455 117.417 162.316 116.634ZM183.946 113.922L186.115 114.886C186.565 115.094 191.527 117.478 197.487 120.342C207.096 124.959 219.3 130.823 219.374 130.823C219.495 130.823 220.06 129.516 220.188 127.991C220.489 124.707 221.603 120.249 222.899 117.146C223.501 115.76 223.983 114.028 223.983 113.877C223.983 113.809 223.494 113.611 222.692 113.288C221.737 112.903 220.341 112.339 218.802 111.603C211.21 107.958 196.358 100.516 194.52 99.4018C192.713 98.3474 192.351 98.257 192.351 98.9499C192.351 99.8537 190.514 104.041 189.098 106.301C188.345 107.536 186.869 109.765 185.814 111.241L183.946 113.922ZM218.862 125.4C219.726 125.901 218.229 126.635 217.868 126.756C215.739 126.937 213.233 126.536 211.18 125.34C210.106 124.579 201.653 119.882 196.046 116.767C193.482 115.343 191.513 114.249 191.116 114.013C189.851 113.26 188.646 112.446 188.435 112.205C187.802 111.392 188.405 111.03 190.182 111.181C191.251 111.272 216.996 124.319 218.862 125.4ZM96.401 204.269C98.7249 203.761 102.332 202.239 104.629 201.269L104.63 201.269L104.632 201.268C105.193 201.032 105.675 200.828 106.041 200.68C107.91 199.927 113.603 191.888 115.651 182.82C117.127 176.132 117.881 166.612 117.037 165.016C116.529 164.091 119.55 167.193 121.8 169.503L121.8 169.503C122.482 170.204 123.094 170.831 123.514 171.252C136.649 184.296 156.201 194.78 176.505 199.69C186.628 202.161 193.828 203.034 203.498 203.034C219.736 203.034 232.539 199.841 244.168 192.822C244.719 192.489 245.235 192.183 245.728 191.892L245.731 191.89C249.785 189.49 252.199 188.06 258.809 180.621C266.222 172.276 272.817 152.905 275.016 146.217C275.98 143.205 278.33 131.222 278.33 128.232C278.33 124.692 277.095 123.02 275.408 121.303C272.426 118.381 268.389 117.327 265.045 118.592L263.478 119.194L262.996 117.598C262.303 115.188 260.857 113.26 258.628 111.814C255.314 109.614 254.832 109.464 251.85 109.464C249.53 109.464 248.897 109.584 247.421 110.277L245.704 111.06L245.343 109.976C244.65 107.747 242.326 104.639 240.522 103.74C238.923 102.943 236.155 102.87 234.226 103.228C230.009 104.011 226.996 105.969 225.761 108.711C225.399 109.554 224.947 110.217 224.767 110.217C224.616 110.217 218.681 108.559 211.602 105.426C210.416 104.9 209.301 104.406 208.254 103.941L208.239 103.935L208.232 103.932C195.519 98.2972 192.764 97.0758 193.014 95.5457C193.225 94.2503 193.165 93.5273 192.803 92.4126C192.171 90.5448 191.448 90.0327 189.399 90.0327C187.772 90.0327 187.772 90.0327 187.953 89.2193C188.917 84.6101 188.887 81.959 187.863 80.272C187.17 79.1573 186.356 78.7054 184.489 78.4343C183.404 78.2837 182.892 78.374 181.687 79.0368C180.874 79.4586 180.181 79.7598 180.12 79.6996C180.06 79.6393 180.271 77.9824 180.602 76.0242C183.073 61.5337 181.164 49.0488 174.868 35.7934L174.856 35.7683L174.811 35.6728L174.74 35.5215L174.66 35.3496L174.658 35.345C172.744 31.2355 165.047 14.7114 143.036 6.37355C142.039 5.99615 141.097 5.63123 140.19 5.28052C132.693 2.37827 127.708 0.448882 115.681 0.468904C102.202 0.491346 97.6361 2.39695 88.749 6.46392C87.5139 7.03631 86.4294 7.3677 86.339 7.24719C86.2486 7.09656 85.6762 6.73506 85.1038 6.4338C84.5314 6.13254 83.2963 5.3794 82.3925 4.77688C79.8017 3.02959 78.205 2.30657 77.3916 2.48733C76.4577 2.72833 76.4577 3.5116 77.3916 3.87311C77.7833 4.02374 78.2352 4.53588 78.4159 5.04801C78.8075 6.13254 79.2594 6.25304 79.5306 5.34927C79.6511 5.01789 79.8318 4.77688 79.9222 4.83713C79.9565 4.85427 80.0711 4.90794 80.246 4.98983L80.2462 4.98991L80.2463 4.98993L80.2464 4.98998L80.2467 4.99014L80.2473 4.99041C80.6879 5.19667 81.5094 5.58125 82.3925 6.01204C83.6277 6.61455 84.9833 7.24719 85.3448 7.39782C86.0076 7.63883 85.7967 7.81958 82.9348 9.50662C71.7581 16.074 62.6602 26.2866 57.5689 37.9152C56.7856 39.6625 56.0927 40.747 55.3697 41.3495C53.5321 42.8859 49.917 47.2542 49.0735 48.9713C48.6216 49.9052 47.6575 51.3513 46.9044 52.1948C46.1814 53.0383 45.3981 54.1228 45.127 54.5747C44.886 55.0567 44.645 55.3881 44.5546 55.3279C44.4943 55.2375 44.5847 53.7613 44.7956 52.0441C45.2475 48.0374 45.2475 46.983 44.886 46.8926C44.3437 46.742 43.5604 48.8508 43.2291 51.4718C42.9881 53.0684 42.9278 55.4785 43.0784 57.9488L43.2592 61.8651L41.1203 58.4007C40.3842 57.2414 39.6594 56.0821 39.1449 55.2592L39.1442 55.2581L39.1437 55.2574L39.1435 55.257C38.8164 54.7338 38.5746 54.347 38.4692 54.1831C37.6859 53.0383 37.234 51.3211 37.5654 50.7487C37.7462 50.4174 37.7161 50.2667 37.4148 50.2667C36.7822 50.2667 35.547 52.2852 34.7336 54.6048C34.342 55.6894 33.9503 56.5931 33.8298 56.5931C33.3779 56.5931 33.5888 45.8081 34.0708 42.3437C35.065 35.5051 37.6859 27.0699 38.8608 27.0699C39.1018 27.0699 39.3127 26.9494 39.3127 26.7687C39.3127 26.2264 38.5294 26.4373 37.8968 27.1302C36.4809 28.6666 34.6131 33.3963 33.4382 38.4273C32.6248 41.8918 32.1127 46.3504 31.9319 51.2006C31.7813 55.3881 31.8415 56.081 32.4441 58.3705C33.1369 60.9312 33.6792 61.6844 34.6131 61.3229C34.9445 61.2024 35.0951 60.7505 35.0951 59.907C35.0951 59.2442 35.4566 57.2559 35.9085 55.4785L36.6918 52.2852L37.0232 53.6107C37.4449 55.1471 39.9152 59.907 42.1445 63.3714C43.6809 65.7212 43.7111 65.8719 44.2232 69.5472C44.4943 71.6259 45.3379 76.6819 47.296 84.4594C49.0262 91.3314 58.7528 98.1483 61.1813 99.8504L61.1817 99.8507L61.183 99.8516L61.184 99.8523C61.5024 100.076 61.6948 100.21 61.7263 100.245C62.0275 100.577 62.4493 100.757 62.6903 100.667C62.9614 100.577 63.112 100.697 63.112 101.029C63.112 101.33 63.3229 101.721 63.5639 101.902C63.8652 102.113 64.0761 102.926 64.1363 104.342C64.2869 107.174 66.3957 112.597 68.0225 114.374C69.0769 115.519 71.2761 116.001 73.7163 115.579C75.313 115.338 75.7648 115.158 75.6142 114.796C75.5238 114.555 76.0962 114.856 76.8795 115.459C86.0377 122.448 95.3164 126.635 105.74 128.443C109.777 129.136 116.465 129.528 120.11 129.256C122.447 129.103 123.09 129.061 123.209 129.291C123.254 129.378 123.224 129.504 123.183 129.678C122.972 130.522 123.243 131.034 127.671 138.535C131.196 144.47 131.497 144.862 135.414 148.868C143.728 157.454 152.796 164.112 163.069 169.263C172.74 174.083 188.179 178.09 202.293 179.355C216.407 180.621 226.544 167.667 226.514 164.353C226.454 159.804 225.821 156.821 224.285 153.929C222.778 151.128 221.784 150.164 217.265 147.151C212.234 143.807 209.131 141.066 207.083 138.143C205.787 136.306 205.305 134.227 205.305 133.112C205.305 132.389 206.239 130.763 207.625 130.431C208.89 130.1 209.131 130.13 210.547 130.823C211.391 131.215 213.59 132.239 215.398 133.112C217.235 133.956 219.013 134.8 219.374 134.98C220.44 135.276 220.891 137.363 221.135 138.493L221.135 138.494L221.135 138.494C221.189 138.746 221.234 138.951 221.272 139.077C221.694 140.644 223.69 142.667 224.978 143.355C227.239 144.565 232.811 144.726 234.347 143.069C234.739 142.648 236.037 142.129 236.305 142.286C236.572 142.443 237.54 143.747 237.54 144.801C237.57 146.609 238.504 148.266 240.492 149.923C244.258 153.056 247.18 153.809 250.133 152.423C251.669 151.7 252.928 151.418 252.928 151.418C252.928 151.418 254.184 153.02 254.26 153.568C254.851 157.848 261.189 159.642 262.876 159.823C263.262 159.862 264.015 159.697 264.779 159.528C265.801 159.304 266.844 159.075 267.063 159.322C267.494 159.807 259.863 172.427 258.809 174.023C248.777 189.086 229.255 198.305 205.366 199.269C189.851 199.901 170.781 195.563 154.242 187.67C143.668 182.579 134.299 176.343 124.267 167.606C122.52 166.1 120.502 164.383 119.779 163.78C119.056 163.208 117.338 161.25 116.013 159.442C113.784 156.43 112.518 155.345 112.518 156.37C112.518 156.821 113.964 159.593 115.621 162.334C116.284 163.419 116.706 164.172 116.555 164.052C116.404 163.931 115.922 166.1 115.471 168.872C113.994 177.759 111.554 186.525 109.084 191.978C107.728 194.93 105.129 197.135 104.346 197.738C101.454 199.937 97.124 200.925 91.129 201.528C83.5373 202.281 72.3606 200.594 63.8351 197.401C61.5756 196.557 55.7614 194.117 55.3697 193.846C55.3462 193.822 55.2127 192.956 55.0265 191.746L55.0261 191.744C54.9737 191.404 54.9171 191.036 54.8576 190.653C53.7731 183.212 52.2668 154.562 52.2668 141.307C52.2668 135.824 52.2065 134.619 51.845 134.619C51.0919 134.619 50.7906 135.342 50.4592 137.933C49.7061 143.837 49.8567 174.656 50.6701 181.133L50.8509 182.609L49.8266 182.037C48.2601 181.133 42.2952 175.078 40.2165 172.276C38.4567 169.881 37.4108 166.813 36.6283 164.518C36.4463 163.984 36.2786 163.492 36.1194 163.06C31.7512 150.95 33.2876 137.36 39.3127 125.129C44.4341 114.706 50.7304 108.922 59.9488 106.12C61.4551 105.668 62.7807 105.186 62.9313 105.065C63.5037 104.523 59.8283 104.794 57.8099 105.427C51.2425 107.445 44.3738 112.958 39.7044 120.008C33.1369 129.889 30.1846 144.47 32.2633 156.912C32.7453 159.864 34.7035 166.251 35.2457 166.703C35.2937 166.751 35.5415 167.27 35.9162 168.056L35.9163 168.057C36.9524 170.23 38.9592 174.44 40.3972 176.343C42.1445 178.723 47.4165 183.904 49.6157 185.501L51.0015 186.495L51.2124 188.935C51.604 193.605 51.7546 194.027 53.8634 195.593C59.1354 199.6 69.5288 203.336 78.9281 204.661C83.2963 205.264 92.7859 205.053 96.401 204.269ZM198.226 175.981C180.723 174.445 159.575 166.1 144.271 153.206C137.824 147.753 129.449 137.149 126.135 131.275C125.442 130.07 124.93 129.497 124.328 129.347C123.695 129.166 124.237 128.985 126.828 128.563C137.764 126.696 148.398 122.147 156.984 115.67L158.249 114.736L158.611 115.609C159.424 117.568 162.557 119.556 164.877 119.556C165.811 119.556 168.944 118.14 170.842 116.845L172.137 115.971L173.191 117.025C174.155 117.989 174.336 118.05 176.144 118.05C178.222 118.05 180.723 117.116 182.109 115.79L182.862 115.097L185.001 116.513C186.146 117.327 189.339 119.104 192.08 120.52C196.177 122.629 200.515 125.069 204.643 127.599L205.305 128.021L204.673 128.865C204.01 129.769 202.775 131.486 202.775 134.107C202.775 137.059 205.845 142.363 211.722 146.006C216.339 148.868 224.285 154.498 223.983 162.726C223.947 163.72 222.839 166.191 221.362 168.42C220.398 169.836 217.717 171.945 215.277 173.18C211.12 175.258 203.799 176.463 198.226 175.981ZM37.5955 40.747C38.4089 40.9277 38.9512 41.1989 38.8307 41.3194C38.4391 41.711 36.3604 41.5303 35.8784 41.0483C35.1252 40.3252 35.306 39.8131 36.3604 39.6022C36.9027 39.5118 37.716 39.06 38.1679 38.6081C38.6198 38.1562 39.0114 37.9453 39.0114 38.0959C39.0114 38.4876 37.5052 39.8733 36.752 40.1746C36.27 40.3855 36.4206 40.4759 37.5955 40.747ZM49.5856 41.229C50.4592 40.747 50.2785 40.4156 49.2542 40.5662C48.2299 40.7169 48.1697 40.5964 48.8324 39.5721C49.1036 39.1805 49.2542 38.6081 49.194 38.3068C49.1036 37.9152 48.8927 38.0959 48.4107 39.06C48.0492 39.7528 47.537 40.3252 47.296 40.3252C46.5429 40.3252 46.4826 40.9277 47.2057 41.1989C48.1395 41.5905 48.8626 41.5905 49.5856 41.229ZM39.1621 24.7804C38.4391 24.9009 36.1796 25.8046 34.1913 26.7988C32.1729 27.7628 30.4558 28.5762 30.3353 28.5461C27.2624 28.2147 31.5403 23.0933 39.3127 17.8514C46.7538 12.8205 51.7848 10.1694 56.4543 8.81373C59.3764 7.97021 62.6601 7.84971 63.594 8.5426C64.1062 8.93424 63.9254 8.96436 61.6961 8.99449C56.876 8.99449 51.3028 11.4648 42.2349 17.5201C37.5353 20.6531 32.0825 25.1419 32.0825 25.8649C32.0825 26.0155 32.9562 25.7143 34.0407 25.2322C36.3604 24.1778 38.7403 23.6356 39.7947 23.8766C40.9094 24.1778 40.6684 24.5695 39.1621 24.7804ZM50.8207 27.3712C53.6526 26.7988 53.7731 26.7687 53.7731 26.4674C53.7731 26.3168 52.6885 26.1661 51.3329 26.1059L48.8927 26.0155L51.1521 23.4548C52.3873 22.0389 53.8333 20.623 54.3455 20.2916C55.4601 19.5686 55.5204 19.0565 54.6166 18.7552L53.9237 18.5443L54.6768 18.2732C55.0986 18.1226 55.8819 18.0623 56.4241 18.1527C57.2375 18.2732 57.4183 18.2129 57.3279 17.7912C57.2375 17.3694 56.9061 17.279 55.43 17.3092C51.122 17.3694 49.2843 18.5142 52.6584 19.0565C53.5923 19.2071 54.3756 19.4481 54.3756 19.5987C54.3756 19.7192 54.225 19.8397 54.0442 19.8397C53.4718 19.8397 48.6216 24.7502 48.0191 25.9553C47.0852 27.7327 47.5973 28.0038 50.8207 27.3712ZM70.7037 15.6824C69.8301 15.7426 69.6192 15.8933 69.6795 16.315L69.6887 16.3764C69.7226 16.5992 69.742 16.7273 69.6921 16.7661C69.6246 16.8186 69.4308 16.7086 68.9752 16.4502L68.8962 16.4054C68.3238 16.1042 68.2635 15.9535 68.5949 15.7125C68.8058 15.5318 69.3782 15.2606 69.8301 15.1703L70.6736 14.9594L70.041 14.2966C69.7096 13.905 69.5288 13.5435 69.6192 13.423C69.8602 13.182 72.8125 13.5133 73.2343 13.8447C73.415 13.9953 73.6862 13.9652 73.8669 13.7845C74.2887 13.3627 74.8611 13.6941 74.8611 14.3569C74.8611 14.7184 74.7707 14.7485 74.4996 14.4774C74.2586 14.2364 74.0477 14.2364 73.7766 14.4472C73.5355 14.6581 73.3548 14.6581 73.2042 14.4171C73.1138 14.2665 72.5414 14.1158 71.9389 14.1158C71.383 14.1158 71.1202 14.1158 71.0666 14.2218C71.0184 14.3168 71.1386 14.497 71.3665 14.8389C71.847 15.5897 71.8186 15.592 70.714 15.6816L70.7037 15.6824ZM66.1246 7.66894C66.1246 7.2773 65.7631 6.58441 65.3112 6.13253L64.4677 5.28901L68.9866 5.46977C71.487 5.59027 74.3188 5.8614 75.313 6.13253C76.3071 6.37354 77.4519 6.55429 77.8736 6.55429C78.5063 6.55429 78.3858 6.43379 77.2109 5.80115C75.1623 4.74675 72.5414 4.23462 67.5104 3.87311C61.4853 3.45135 58.4426 4.02374 59.015 5.53002C59.1053 5.83127 59.5873 5.9819 60.3104 5.9819C61.7865 5.9819 64.1966 6.85555 65.01 7.66894C65.8836 8.54258 66.1246 8.54258 66.1246 7.66894ZM51.4233 87.4419C53.8634 90.575 57.0869 94.1298 58.5932 95.3348C59.497 96.0578 60.2802 96.6603 60.3405 96.6603C60.3706 96.6603 59.7078 95.2746 58.8643 93.5875C55.4601 86.8092 53.4718 80.0611 52.5379 72.2886C52.327 70.5715 51.9956 69.1254 51.6341 68.5229C50.9111 67.3179 50.9111 65.7514 51.6643 64.2752C52.0559 63.4919 52.2668 62.4978 52.2668 61.4132V59.7563L50.8207 61.2626C49.4048 62.7388 48.0492 63.3413 48.0492 62.4375C48.0492 61.7748 50.2785 58.5814 51.4534 57.5873C52.3873 56.804 52.5078 56.5329 52.809 54.1831C53.0199 52.7672 53.5019 50.2667 53.8936 48.6098C54.3153 46.9529 54.5563 45.537 54.4961 45.4767C54.2852 45.2659 47.2057 53.3967 46.2416 55.9906C46.03 56.5601 45.4584 57.5572 45.0065 58.1597L44.2232 59.1654C44.2232 59.1654 44.4665 60.5736 44.7353 62.3434C45.0069 64.1315 45.1344 65.3607 45.2479 66.4555C45.3997 67.9201 45.5266 69.1441 45.9404 71.1439C46.4224 73.6142 46.9044 75.7531 47.0249 75.9037C47.1153 76.0845 47.5069 77.4703 47.8985 79.0067C48.7421 82.4109 50.158 85.785 51.4233 87.4419ZM173.673 115.941L173.041 115.308C173.041 115.308 183.541 101.968 185.422 97.052C186.858 93.3007 187.703 92.237 188.843 92.237C189.481 92.237 190.002 92.3825 190.243 92.744C190.664 93.3766 191.071 94.1599 190.528 96.8411C189.625 101.179 188.239 104.041 184.082 110.217C183.118 111.633 181.882 113.199 181.34 113.742C180.075 114.917 177.228 116.122 175.571 116.393C174.517 116.543 174.216 116.483 173.673 115.941Z" fill="#00160A"/>
<path d="M257.092 145.412C260.84 135.2 260.272 133.024 259.622 132.811C259.622 132.811 258.191 133.625 257.558 135.342C256.383 138.565 252.362 147.001 250.856 148.507C249.078 150.284 249.078 150.284 247.271 150.284C245.463 150.284 240.25 147.562 239.54 144.879C238.405 140.586 243.294 125.672 243.414 124.828L242.601 124.256C242.059 124.768 235.005 146.157 225.731 140.584C224.669 139.946 222.417 136.939 222.236 135.342C221.232 130.703 225.838 114.48 226.622 111.148C227.323 108.165 230.973 105.397 235.461 105.397C242.36 105.397 241.433 111.427 244.524 113.552C245.893 114.494 248.143 112.787 248.837 112.657C252.723 111.934 254.212 112.776 257.061 115.037C259.261 116.783 260.888 120.237 262.679 121.454C263.674 122.13 264.729 121.206 265.075 121.032C266.492 120.321 269.533 120.851 270.377 121.454C271.614 121.993 274.644 124.906 275.123 126.6C277.292 134.279 270.441 151.302 267.855 154.495C263.573 159.781 253.344 155.623 257.092 145.412Z" fill="white"/>
<path fill-rule="evenodd" clip-rule="evenodd" d="M83.8988 117.431C92.1532 122.643 100.665 126.047 110.365 126.981C118.017 127.704 128.334 126.71 135.745 124.299C141.981 122.281 150.416 116.69 156.05 111.96C166.986 102.802 173.884 88.4965 176.897 73.3131C177.319 71.1742 177.962 65.7976 177.932 60.4653C177.932 54.2594 175.201 37.3005 166.925 27.522C149.858 7.35392 121.802 -1.73122 98.2229 6.03144C89.7172 8.83169 80.6611 13.9052 73.8226 20.5328C65.2066 28.9379 58.8501 40.3857 56.3195 52.0745C53.6685 64.426 57.117 79.1876 63.112 91.2981C67.902 100.938 75.795 112.279 83.8988 117.431ZM164.334 81.0253C158.671 98.0463 143.909 110.759 125.352 114.615C122.52 115.188 120.562 115.399 116.585 115.459C113.784 115.549 110.982 115.519 110.409 115.459C97.4253 113.892 87.544 109.102 78.446 100.004C74.4694 95.9978 72.7824 93.8287 70.3121 89.5509C66.4259 82.7726 64.3472 75.8437 63.7146 67.4988C61.5455 38.9095 82.0009 15.0801 110.801 12.6097C122.098 11.6457 134.631 15.1102 144.15 21.8583C147.675 24.3588 154.062 30.6852 156.05 33.6375C156.863 34.8124 164.756 46.3506 166.142 52.9782C167.919 61.5942 167.227 72.3792 164.334 81.0253Z" fill="white"/>
<path fill-rule="evenodd" clip-rule="evenodd" d="M177.943 60.4649C177.943 80.6857 168.378 102.792 156.033 112.233C150.144 116.738 142.448 122.192 135.745 124.299C125.923 127.387 110.365 126.98 110.365 126.98C110.365 126.98 126.237 124.859 132.119 122.491C148.986 115.703 158.193 105.284 163.879 95.2859C175.102 75.551 177.943 59.9737 177.943 60.4649Z" fill="#E7EAEE"/>
<path fill-rule="evenodd" clip-rule="evenodd" d="M110.711 111.844C102.667 110.819 94.6838 107.957 88.2369 103.71C84.411 101.209 78.6268 95.3347 75.8251 91.1472C71.8184 85.1221 69.1674 78.6752 67.8719 71.7463C66.938 66.7153 66.9682 58.973 67.9021 54.4842C68.8661 49.9051 70.1012 46.4105 72.3004 41.982C74.8611 36.8607 77.5724 33.095 81.6394 29.028C88.5683 22.0991 96.6119 17.7007 106.192 15.5919C109.295 14.9291 120.532 14.3869 120.923 14.899C121.014 15.0496 121.616 15.4413 122.249 15.7727C122.882 16.1342 124.569 17.3995 125.954 18.6346C128.033 20.4421 128.967 21.5869 130.774 24.4187C132.01 26.3468 133.004 28.0941 133.004 28.2447C133.004 28.5761 133.968 29.1786 134.51 29.1786C135.263 29.1786 135.775 26.9192 135.926 22.9426C136.016 20.7434 136.197 18.9359 136.318 18.9359C136.739 18.9359 141.379 21.4965 143.548 22.9426C147.796 25.7744 152.043 29.751 155.176 33.9083C156.592 35.7761 156.803 36.2582 156.803 37.4029C156.803 38.4573 157.104 39.2707 158.038 40.8975C160.388 44.9946 162.226 50.1461 163.34 55.8399C164.063 59.6658 164.063 66.896 163.31 70.9027C161.262 81.9288 155.176 92.8945 147.253 99.8536C140.535 105.728 133.395 109.343 124.96 111.121C122.068 111.753 113.392 112.175 110.711 111.844ZM89.1709 91.2376C89.442 90.9363 89.6227 90.4844 89.5324 90.2736C89.5052 90.2103 89.1281 90.0329 88.576 89.7734L88.5759 89.7734C87.2888 89.1683 85.0511 88.1163 84.0813 87.02C80.2252 82.6216 78.8093 79.3379 77.9356 72.5596C77.0921 65.9621 77.8008 61.5019 79.3214 54.3336C80.0632 50.8368 82.0348 47.9484 83.2615 46.1513L83.2615 46.1513L83.2615 46.1513C84.0956 44.9294 84.5853 44.2121 84.1097 44.1511C82.9348 43.9703 82.7541 44.0607 81.5189 45.2356C78.8678 47.7662 77.6628 49.7846 76.3975 53.6708C74.4394 59.7562 74.061 76.2019 77.9356 83.6158C81.8103 91.0297 88.478 92.0209 89.1709 91.2376ZM132.01 65.932C131.498 70.6119 129.328 77.3798 126.798 80.3321C125.623 81.7179 121.31 84.0978 117.67 83.6158C114.153 83.1502 111.404 81.507 109.054 77.9823C107.035 74.9396 105.993 71.2463 105.288 66.5948C104.071 58.5625 109.385 49.2122 111.675 46.8925C113.994 44.5126 115.651 43.6691 117.76 43.639C119.809 43.639 121.134 44.0908 123.213 45.567C127.009 48.2181 133.004 56.838 132.01 65.932ZM91.4001 41.018C92.0026 40.3251 92.093 39.9937 91.9123 38.6983C91.7918 37.4933 91.5508 37.0113 90.9181 36.4992C89.8035 35.5954 88.4177 35.5954 87.3934 36.5594C86.6704 37.2523 86.58 37.4933 86.6704 39.1502C86.7608 40.9276 86.821 41.0481 87.8152 41.5904C89.1407 42.3134 90.4361 42.1025 91.4001 41.018ZM110.199 22.4304C104.776 26.3167 102.426 27.9133 99.986 29.4196C98.0579 30.6246 97.4554 30.6548 97.4554 29.5702C97.4554 28.9979 97.8772 28.3652 98.9617 27.3711L100.468 25.9853L97.5458 25.5936C94.2621 25.1719 91.0688 24.2681 90.3759 23.5752C89.2311 22.4003 90.2252 22.1292 93.4788 22.7317C94.9249 22.9727 97.7265 23.274 99.7148 23.3342L103.33 23.4848L105.951 21.5869C111.705 17.4296 117.67 15.0798 120.532 15.8028C122.309 16.2245 122.098 16.7066 120.08 16.9476C117.76 17.2187 116.344 18.002 110.199 22.4304Z" fill="white"/>
<path d="M117.941 79.4888C117.941 79.3381 118.122 79.1875 118.363 79.1875C118.604 79.1875 118.905 79.3381 118.995 79.4888C119.086 79.6695 118.905 79.79 118.574 79.79C118.212 79.79 117.941 79.6695 117.941 79.4888Z" fill="white"/>
<path d="M119.748 79.2176C119.748 78.8862 120.502 78.585 121.345 78.585C122.008 78.6151 122.008 78.6151 121.435 79.0368C120.773 79.549 119.748 79.6394 119.748 79.2176Z" fill="white"/>
<path d="M115.079 78.4343C114.988 78.1933 114.868 77.7715 114.778 77.5305C114.687 77.2292 114.838 77.0786 115.23 77.0786C115.561 77.0786 115.832 77.2594 115.832 77.5004C115.832 77.7414 115.922 78.133 116.013 78.4042C116.133 78.7355 116.043 78.8862 115.712 78.8862C115.44 78.8862 115.139 78.6753 115.079 78.4343Z" fill="white"/>
<path d="M116.676 77.6811C116.525 76.7773 116.856 76.4761 117.941 76.4761C118.272 76.4761 118.543 76.7773 118.664 77.2895C118.905 78.1631 118.513 78.5849 117.459 78.5849C116.977 78.5849 116.766 78.374 116.676 77.6811Z" fill="white"/>
<path d="M113.603 77.8318C113.03 77.3799 113.03 77.3799 113.663 77.3799C114.055 77.3799 114.326 77.5606 114.326 77.8318C114.326 78.374 114.326 78.374 113.603 77.8318Z" fill="white"/>
<path d="M119.658 77.8017C119.266 77.41 119.447 76.2351 119.929 76.0544C120.803 75.723 121.194 75.8736 121.375 76.6569C121.496 77.1088 121.556 77.5004 121.496 77.5305C121.255 77.8017 119.839 77.9824 119.658 77.8017Z" fill="white"/>
<path d="M122.339 77.169C122.249 77.0786 122.158 76.687 122.158 76.3255C122.158 75.8134 122.399 75.6025 123.122 75.4519C123.755 75.3314 124.147 75.3916 124.327 75.6326C124.629 76.1146 124.629 76.7171 124.358 76.8677C123.815 77.169 122.55 77.3498 122.339 77.169Z" fill="white"/>
<path d="M112.217 76.2351C112.217 75.8736 112.488 75.5723 112.88 75.482C113.663 75.2711 113.633 75.241 113.784 76.0242C113.844 76.4761 113.693 76.6569 113.061 76.7171C112.398 76.8075 112.217 76.687 112.217 76.2351Z" fill="white"/>
<path d="M114.507 76.2651C114.085 75.8132 114.356 74.9697 114.928 74.9697C115.32 74.9697 115.531 75.1806 115.531 75.5421C115.531 76.1145 114.838 76.5965 114.507 76.2651Z" fill="white"/>
<path d="M116.314 75.3613C116.073 74.789 116.585 74.3672 117.579 74.3672C118.031 74.3672 118.242 74.5479 118.242 74.9396C118.242 75.271 117.971 75.5722 117.579 75.6927C116.585 75.9337 116.525 75.9337 116.314 75.3613Z" fill="white"/>
<path d="M125.02 75.271C125.111 75.1204 125.261 74.9697 125.352 74.9697C125.442 74.9697 125.412 75.1204 125.322 75.271C125.231 75.4517 125.081 75.5722 124.99 75.5722C124.9 75.5722 124.93 75.4517 125.02 75.271Z" fill="white"/>
<path d="M119.025 74.7589C118.784 74.1564 119.086 73.8551 120.05 73.7045C120.592 73.6442 120.833 73.7647 120.893 74.1865C121.104 75.1807 119.387 75.723 119.025 74.7589Z" fill="white"/>
<path d="M111.795 74.2466C111.524 73.2525 111.584 73.1621 112.368 73.1621C112.789 73.1621 113.121 73.2826 113.121 73.4332C113.121 73.5839 113.211 73.9153 113.301 74.1563C113.392 74.4575 113.211 74.6383 112.699 74.7286C112.127 74.8491 111.916 74.7286 111.795 74.2466Z" fill="white"/>
<path d="M121.857 73.9153C121.857 73.373 122.068 73.132 122.64 72.9814C123.484 72.7705 123.966 73.1922 123.966 74.1563C123.966 74.5479 123.725 74.6684 122.912 74.6684C121.978 74.6684 121.857 74.578 121.857 73.9153Z" fill="white"/>
<path d="M110.891 73.9153C110.801 73.6743 110.861 73.4634 111.012 73.4634C111.193 73.4634 111.313 73.6743 111.313 73.9153C111.313 74.1563 111.253 74.3672 111.193 74.3672C111.132 74.3672 111.012 74.1563 110.891 73.9153Z" fill="white"/>
<path d="M113.934 74.1567C113.512 73.765 113.753 72.9215 114.296 72.7709C114.627 72.6805 114.958 72.7106 115.049 72.801C115.41 73.1324 115.199 74.006 114.748 74.1868C114.175 74.3977 114.175 74.3977 113.934 74.1567Z" fill="white"/>
<path d="M124.689 73.9455C124.358 73.0719 124.719 72.4091 125.563 72.3187C126.195 72.2284 126.376 72.3489 126.376 72.8309C126.376 73.825 126.045 74.3673 125.442 74.3673C125.111 74.3673 124.779 74.1865 124.689 73.9455Z" fill="white"/>
<path d="M116.043 73.5539C115.681 73.2225 115.802 72.62 116.314 72.4392C116.887 72.2284 118.092 72.8309 117.76 73.1623C117.338 73.5238 116.254 73.7949 116.043 73.5539Z" fill="white"/>
<path d="M118.664 72.801C118.393 72.3793 119.357 71.6562 120.14 71.6562C120.502 71.6562 120.652 71.837 120.592 72.1684C120.471 72.7709 118.935 73.2529 118.664 72.801Z" fill="white"/>
<path d="M110.409 72.5901C110.409 72.4395 110.319 72.1081 110.229 71.837C110.138 71.5659 110.168 71.355 110.349 71.355C110.741 71.355 111.042 72.4998 110.681 72.7408C110.53 72.8311 110.409 72.7709 110.409 72.5901Z" fill="white"/>
<path d="M111.223 71.8972C111.042 71.2345 111.404 70.7524 112.096 70.7524C112.488 70.7524 112.88 71.9273 112.639 72.319C112.307 72.8311 111.373 72.5298 111.223 71.8972Z" fill="white"/>
<path d="M113.332 72.0478C112.88 71.5959 113.151 70.5113 113.753 70.3607C114.205 70.2402 114.446 70.3908 114.687 70.9331C114.868 71.3247 114.958 71.7164 114.898 71.7766C114.597 72.0478 113.512 72.2586 113.332 72.0478Z" fill="white"/>
<path d="M121.466 72.0475C121.074 71.6559 121.255 71.4149 122.158 71.0835C122.912 70.8425 123.122 70.8726 123.273 71.2341C123.544 71.9571 122.038 72.65 121.466 72.0475Z" fill="white"/>
<path d="M124.117 71.355C123.815 70.8729 124.237 70.4512 125.02 70.4512C125.954 70.4512 126.225 71.2344 125.382 71.4755C124.478 71.7165 124.327 71.6863 124.117 71.355Z" fill="white"/>
<path d="M126.677 70.6317C126.677 70.1798 127.22 69.6978 127.461 69.9388C127.672 70.1497 127.25 71.0535 126.948 71.0535C126.798 71.0535 126.677 70.8727 126.677 70.6317Z" fill="white"/>
<path d="M110.018 70.2403C109.897 70.15 109.807 69.7583 109.837 69.4269C109.837 68.8545 109.867 68.8545 110.138 69.5173C110.44 70.2403 110.379 70.6018 110.018 70.2403Z" fill="white"/>
<path d="M110.59 69.7883C110.319 68.7339 110.349 68.6436 111.132 68.6436C112.006 68.6436 112.548 69.7582 111.886 70.18C111.193 70.6017 110.801 70.4812 110.59 69.7883Z" fill="white"/>
<path d="M120.953 70.3906C120.953 70.3002 121.104 69.8182 121.285 69.2759C121.707 68.0709 122.641 68.0107 122.851 69.1856C122.942 69.6374 122.972 70.0291 122.942 70.0592C122.791 70.24 120.953 70.5111 120.953 70.3906Z" fill="white"/>
<path d="M112.729 69.6377C112.609 69.5473 112.518 69.1858 112.518 68.8544C112.518 68.3724 112.609 68.3423 112.97 68.6435C113.211 68.8544 113.422 69.2159 113.422 69.4268C113.422 69.8787 113.06 69.9992 112.729 69.6377Z" fill="white"/>
<path d="M123.574 69.0351C123.394 68.1012 123.785 67.6794 124.719 67.7999C125.171 67.8602 125.322 68.1313 125.322 68.7941C125.322 69.5472 125.201 69.728 124.538 69.7882C123.876 69.8786 123.725 69.728 123.574 69.0351Z" fill="white"/>
<path d="M126.527 69.1556C126.135 67.9506 126.256 67.589 127.069 67.4987C127.792 67.4083 127.882 67.4987 127.882 68.2819C127.882 68.9447 127.702 69.2158 127.25 69.3363C126.918 69.4267 126.587 69.3363 126.527 69.1556Z" fill="white"/>
<path d="M109.566 67.4385C109.566 66.8661 109.626 66.6251 109.717 66.9264C109.777 67.1975 109.777 67.6795 109.717 67.9807C109.626 68.2519 109.566 68.0109 109.566 67.4385Z" fill="white"/>
<path d="M110.319 67.83C109.927 67.4685 110.108 66.2936 110.59 66.1128C111.283 65.8417 111.614 66.1731 111.614 67.1672C111.614 67.7999 111.464 68.0409 111.072 68.0409C110.771 68.0409 110.409 67.9505 110.319 67.83Z" fill="white"/>
<path d="M112.127 67.0165C112.006 66.5646 111.946 66.0826 112.066 65.9923C112.368 65.691 112.548 66.173 112.458 67.0466L112.368 67.8902L112.127 67.0165Z" fill="white"/>
<path d="M121.857 66.8058C121.857 66.4744 122.008 66.2936 122.158 66.384C122.339 66.4744 122.46 66.7757 122.46 67.0167C122.46 67.2577 122.339 67.4384 122.158 67.4384C122.008 67.4384 121.857 67.1673 121.857 66.8058Z" fill="white"/>
<path d="M123.213 67.1974C122.791 66.7455 123.122 65.9321 123.815 65.7513C124.689 65.5404 124.719 65.5404 124.99 66.4141C125.171 66.9563 125.051 67.0769 124.267 67.1974C123.785 67.2877 123.303 67.2576 123.213 67.1974Z" fill="white"/>
<path d="M125.984 66.6248C125.653 66.3235 125.743 65.3294 126.075 65.3294C126.256 65.3294 126.376 65.2089 126.376 65.0281C126.376 64.8775 126.195 64.7268 125.954 64.7268C125.442 64.7268 125.02 63.2507 125.442 62.8289C125.984 62.2867 126.587 62.8591 126.948 64.3352C127.159 65.1185 127.37 66.0223 127.461 66.3235C127.581 66.7151 127.461 66.8356 126.888 66.8356C126.497 66.8356 126.075 66.7453 125.984 66.6248Z" fill="white"/>
<path d="M127.611 65.0285C127.4 64.1248 126.858 62.3172 126.466 60.9917C125.864 59.0636 125.804 58.5816 126.135 58.3707C126.346 58.2201 126.617 58.0996 126.707 58.0996C127.039 58.0996 128.244 64.2754 128.123 65.4804L128.033 66.6855L127.611 65.0285Z" fill="white"/>
<path d="M109.265 64.8779C109.265 64.3959 109.325 64.2152 109.415 64.5164C109.476 64.7875 109.476 65.2093 109.415 65.4202C109.325 65.6009 109.265 65.3901 109.265 64.8779Z" fill="white"/>
<path d="M109.867 64.8176C109.988 63.7632 110.861 63.5222 111.102 64.4862C111.313 65.2694 111.373 65.1791 110.47 65.4803C109.837 65.6611 109.777 65.6008 109.867 64.8176Z" fill="white"/>
<path d="M122.58 64.5464C122.339 63.6728 122.851 63.1606 123.815 63.2811C124.538 63.3715 124.81 64.6669 124.207 65.0586C123.454 65.5406 122.761 65.3297 122.58 64.5464Z" fill="white"/>
<path d="M111.615 64.3053C111.615 63.7931 111.765 63.522 112.097 63.522C112.398 63.522 112.518 63.7329 112.458 64.1847C112.307 65.1488 111.615 65.2392 111.615 64.3053Z" fill="white"/>
<path d="M108.933 63.0401C108.933 62.7087 109.024 62.6183 109.114 62.8593C109.204 63.0702 109.174 63.3413 109.084 63.4317C108.994 63.5522 108.903 63.3714 108.933 63.0401Z" fill="white"/>
<path d="M109.506 62.9495C109.506 62.4977 109.686 62.3169 110.138 62.3169C110.56 62.3169 110.711 62.4675 110.65 62.829C110.5 63.6123 109.506 63.7027 109.506 62.9495Z" fill="white"/>
<path d="M111.163 62.6786C110.952 62.1364 110.952 62.1364 111.855 61.8954C112.398 61.7146 112.518 61.805 112.518 62.2569C112.518 62.9799 111.434 63.3414 111.163 62.6786Z" fill="white"/>
<path d="M122.068 62.2566C121.857 61.5035 122.249 61.1118 123.303 61.1118C123.815 61.1118 123.966 61.2926 123.966 61.865C123.966 62.3168 123.785 62.6181 123.544 62.6181C123.303 62.6181 122.912 62.7085 122.671 62.7989C122.399 62.8892 122.189 62.7085 122.068 62.2566Z" fill="white"/>
<path d="M124.689 61.5637C124.448 60.9612 124.81 60.5093 125.502 60.5093C125.924 60.5093 126.075 60.7202 126.075 61.2624C126.075 61.8047 125.924 62.0156 125.472 62.0156C125.141 62.0156 124.779 61.8047 124.689 61.5637Z" fill="white"/>
<path d="M109.204 61.1422C109.204 60.5095 109.897 59.7865 110.199 60.1179C110.319 60.2083 110.409 60.6301 110.409 61.0217C110.409 61.5037 110.229 61.7146 109.807 61.7146C109.415 61.7146 109.204 61.5037 109.204 61.1422Z" fill="white"/>
<path d="M110.861 60.7808C110.62 60.0277 110.891 59.6963 111.916 59.5457C112.85 59.4252 113.151 60.4193 112.337 61.0218C111.554 61.5942 111.072 61.5038 110.861 60.7808Z" fill="white"/>
<path d="M121.767 60.5998C121.556 60.419 121.466 59.3043 121.646 59.3043C121.676 59.3043 122.128 59.1838 122.671 59.0332C123.574 58.7621 123.635 58.7922 123.605 59.6056C123.574 60.2081 123.394 60.5094 122.942 60.6299C122.128 60.8408 122.008 60.8408 121.767 60.5998Z" fill="white"/>
<path d="M120.652 59.9069C120.652 59.696 120.742 59.6057 120.863 59.696C120.953 59.8165 120.953 59.9973 120.863 60.1178C120.742 60.2082 120.652 60.1178 120.652 59.9069Z" fill="white"/>
<path d="M124.026 59.4251C124.117 58.913 125.051 58.1598 125.261 58.4008C125.352 58.4912 125.502 58.8527 125.593 59.2443C125.804 59.8469 125.713 59.9071 124.87 59.9071C124.147 59.9071 123.936 59.7866 124.026 59.4251Z" fill="white"/>
<path d="M109.506 59.3949C109.506 59.2443 109.656 58.943 109.807 58.702C110.048 58.3405 110.108 58.3706 110.108 58.943C110.108 59.3045 109.988 59.6058 109.807 59.6058C109.656 59.6058 109.506 59.5154 109.506 59.3949Z" fill="white"/>
<path d="M110.409 58.7323C110.409 57.8888 111.042 57.6176 111.524 58.2503C111.825 58.7022 111.825 58.8528 111.524 59.0637C110.891 59.4553 110.409 59.3348 110.409 58.7323Z" fill="white"/>
<path d="M119.568 58.3405C119.025 57.7379 119.025 57.7078 119.538 57.8886C119.839 58.0091 120.23 58.0995 120.381 58.0995C120.532 58.0995 120.652 58.3103 120.652 58.5513C120.652 59.184 120.23 59.1237 119.568 58.3405Z" fill="white"/>
<path d="M113.091 58.3104C111.795 57.3162 111.614 55.0869 112.819 55.0869C113.633 55.0869 114.386 56.3522 114.266 57.5271C114.175 58.6116 113.814 58.8526 113.091 58.3104Z" fill="white"/>
<path d="M121.345 58.4911C121.466 58.4007 121.646 58.4007 121.767 58.4911C121.857 58.6116 121.767 58.702 121.556 58.702C121.345 58.702 121.255 58.6116 121.345 58.4911Z" fill="white"/>
<path d="M125.894 57.3163C125.984 57.0451 126.075 56.774 126.075 56.7138C126.075 56.6535 126.225 56.5933 126.376 56.5933C126.557 56.5933 126.677 56.8644 126.677 57.1958C126.677 57.5573 126.466 57.7983 126.195 57.7983C125.864 57.7983 125.773 57.6477 125.894 57.3163Z" fill="white"/>
<path d="M110.108 57.2258C110.108 56.533 110.741 55.3882 111.102 55.3882C111.735 55.3882 111.283 57.3162 110.62 57.4367C110.349 57.497 110.108 57.4066 110.108 57.2258Z" fill="white"/>
<path d="M116.886 56.8944L115.983 56.6836L116.796 56.4727C117.64 56.2317 118.242 56.4124 118.242 56.9246C118.242 57.2258 118.212 57.2258 116.886 56.8944Z" fill="white"/>
<path d="M115.832 55.4485C115.832 54.2133 116.525 54.0326 117.158 55.1171C117.579 55.8401 117.609 55.9907 117.218 55.9907C116.977 55.9907 116.585 56.0811 116.314 56.1715C115.953 56.3221 115.832 56.1414 115.832 55.4485Z" fill="white"/>
<path d="M121.074 55.8699C119.718 55.2674 118.845 53.6707 118.845 51.7728C118.845 50.4172 118.965 50.0858 119.779 49.3326C120.291 48.8506 120.803 48.459 120.953 48.459C121.616 48.459 124.056 50.7787 124.87 52.2247L125.804 53.8816L124.81 54.936C123.665 56.141 122.399 56.4724 121.074 55.8699Z" fill="white"/>
<path d="M114.778 55.0869C114.687 54.9363 114.748 54.7856 114.898 54.7856C115.079 54.7856 115.23 54.9363 115.23 55.0869C115.23 55.2677 115.169 55.3882 115.109 55.3882C115.019 55.3882 114.868 55.2677 114.778 55.0869Z" fill="white"/>
<path d="M110.831 54.6049C110.922 54.3337 111.012 54.0626 111.012 54.0023C111.012 53.9421 111.283 53.8818 111.614 53.8818C112.368 53.8818 112.398 54.3639 111.645 54.7856C110.831 55.2074 110.62 55.1773 110.831 54.6049Z" fill="white"/>
<path d="M113.211 54.2434C112.518 54.153 112.307 53.7614 112.759 53.4903C112.88 53.3999 113.422 53.2493 113.964 53.1288C114.778 52.948 114.928 53.0083 114.928 53.5204C114.928 54.153 114.296 54.4242 113.211 54.2434Z" fill="white"/>
<path d="M115.531 53.2191C115.531 52.8576 115.561 52.6467 115.621 52.707C115.651 52.7672 115.892 53.0685 116.103 53.3698C116.465 53.7915 116.435 53.8819 116.013 53.8819C115.712 53.8819 115.531 53.6409 115.531 53.2191Z" fill="white"/>
<path d="M111.313 53.0081C111.313 52.8274 111.464 52.6165 111.614 52.5261C111.795 52.4357 111.916 52.5562 111.916 52.7972C111.916 53.0684 111.795 53.2792 111.614 53.2792C111.464 53.2792 111.313 53.1587 111.313 53.0081Z" fill="white"/>
<path d="M112.428 52.5564C112.187 51.9539 114.326 51.2911 114.687 51.8635C114.958 52.3455 114.687 52.5564 113.542 52.7974C112.85 52.9481 112.548 52.8878 112.428 52.5564Z" fill="white"/>
<path d="M115.26 51.5923C115.26 51.2609 115.35 51.1705 115.44 51.4116C115.531 51.6224 115.501 51.8936 115.41 51.984C115.32 52.1045 115.23 51.9237 115.26 51.5923Z" fill="white"/>
<path d="M112.699 51.1101C113.06 50.4473 114.115 49.3628 114.386 49.3628C114.687 49.3628 114.717 50.7787 114.416 50.9595C114.265 51.0197 113.783 51.1703 113.332 51.2908C112.669 51.4415 112.518 51.4114 112.699 51.1101Z" fill="white"/>
<path d="M115.109 50.4176C114.778 49.5138 114.928 49.1222 115.651 49.0017C116.404 48.8511 116.404 48.8511 115.922 49.785C115.32 50.99 115.35 50.99 115.109 50.4176Z" fill="white"/>
<path d="M114.928 48.6099C114.928 48.5496 115.531 48.1278 116.284 47.7061C117.188 47.1638 117.82 46.9831 118.272 47.1036C118.815 47.2843 118.664 47.4048 117.338 48.0375C115.862 48.7002 114.928 48.9412 114.928 48.6099Z" fill="white"/>
<path d="M131.648 21.9183C130.835 20.7434 129.117 18.8455 127.882 17.7007C126.647 16.556 125.834 15.6221 126.075 15.6221C126.738 15.6221 131.799 17.0079 133.064 17.5501C134.118 18.002 134.148 18.0623 133.877 18.9961C133.727 19.5384 133.606 20.8941 133.606 22.0087C133.606 23.1535 133.516 24.0573 133.395 24.0573C133.245 24.0573 132.492 23.0932 131.648 21.9183Z" fill="white"/>
<path d="M70.3423 113.169C69.1071 112.537 68.836 112.175 67.2694 109.072C65.01 104.674 64.9498 103.65 67.0887 106.15C67.9322 107.144 69.8904 109.193 71.4268 110.699C74.0477 113.23 74.1682 113.41 73.2946 113.29C72.6619 113.2 72.4209 113.26 72.5716 113.501C72.9331 114.043 71.7883 113.892 70.3423 113.169Z" fill="white"/>
<path fill-rule="evenodd" clip-rule="evenodd" d="M120.829 168.056C120.579 167.462 120.858 166.778 121.452 166.528L122.101 166.252C128.412 163.552 132.034 161.93 134.495 159.355C136.956 156.779 137.25 152.996 137.713 150.694C137.84 150.063 139.27 151.172 139.902 151.299C140.533 151.426 140.943 152.041 140.816 152.673C140.26 155.44 138.763 158.079 136.353 160.583C133.951 163.08 129.3 165.755 122.357 168.678C121.764 168.928 121.08 168.649 120.829 168.056Z" fill="#00160A"/>
<path fill-rule="evenodd" clip-rule="evenodd" d="M149.366 47.8538C149.92 47.5242 150.636 47.7059 150.965 48.2595C154.265 53.8032 156.033 60.1402 156.033 66.7334C156.033 86.7077 139.841 102.9 119.867 102.9C114.559 102.9 109.411 101.755 104.697 99.5742C104.112 99.3037 101.903 97.1493 104.128 98.0255C106.353 98.9017 114.961 100.868 119.929 100.868C138.614 100.868 151.833 85.419 151.833 66.7334C151.833 60.5633 149.366 55.0866 148.961 49.4531C148.913 48.8 148.813 48.1834 149.366 47.8538Z" fill="#00160A"/>
<path fill-rule="evenodd" clip-rule="evenodd" d="M33.8221 136.153C34.2345 135.658 34.9702 134.657 35.4653 135.07C37.4963 136.761 39.6636 138.721 41.982 139.1C44.3944 139.493 47.2565 139.493 50.5643 139.093C51.204 139.015 51.7853 139.471 51.8628 140.111C51.9402 140.75 51.4844 141.332 50.8448 141.409C47.332 141.834 44.2537 141.834 41.6062 141.402C38.8645 140.955 36.3149 139.747 33.9719 137.796C33.4768 137.383 33.4098 136.648 33.8221 136.153Z" fill="#00160A"/>
<path d="M58.5931 95.3348C57.0868 94.1297 53.8634 90.5749 51.4232 87.4418C50.1579 85.7849 48.742 82.4108 47.8985 79.0066C47.5068 77.4702 47.1152 76.0844 47.0248 75.9037C46.9043 75.753 46.4223 73.6141 45.9403 71.1438C45.2173 67.6492 45.3702 66.5234 44.7353 62.3434C44.4665 60.5736 44.2231 59.1653 44.2231 59.1653L45.0064 58.1596C45.4583 57.5571 46.0299 56.5601 46.2416 55.9906C47.2056 53.3966 54.2851 45.2658 54.496 45.4767C54.5563 45.5369 54.3153 46.9528 53.8935 48.6098C53.5019 50.2667 53.0199 52.7671 52.809 54.183C52.5077 56.5328 52.3872 56.804 51.4533 57.5872C50.2784 58.5814 48.0491 61.7747 48.0491 62.4375C48.0491 63.3412 49.4048 62.7387 50.8207 61.2626L52.2667 59.7563V61.4132C52.2667 62.4977 52.0558 63.4919 51.6642 64.2751C50.9111 65.7513 50.9111 67.3178 51.6341 68.5229C51.9956 69.1254 52.327 70.5714 52.5378 72.2886C53.4717 80.061 55.46 86.8092 58.8642 93.5875C59.7078 95.2745 60.3705 96.6603 60.3404 96.6603C60.2802 96.6603 59.4969 96.0578 58.5931 95.3348Z" fill="white"/>
<path fill-rule="evenodd" clip-rule="evenodd" d="M183.946 113.923L186.115 114.887C186.565 115.094 191.527 117.478 197.487 120.342C207.096 124.959 219.3 130.823 219.374 130.823C219.495 130.823 220.06 129.516 220.188 127.991C220.489 124.708 221.603 120.249 222.899 117.146C223.501 115.76 223.983 114.028 223.983 113.878C223.983 113.809 223.494 113.611 222.692 113.288C221.737 112.903 220.341 112.34 218.802 111.603C211.21 107.958 196.358 100.517 194.52 99.4019C192.713 98.3475 192.351 98.2571 192.351 98.95C192.351 99.8538 190.514 104.041 189.098 106.301C188.345 107.536 186.868 109.765 185.814 111.241L183.946 113.923ZM218.862 125.4C219.726 125.901 218.229 126.636 217.868 126.756C215.739 126.937 213.233 126.536 211.18 125.34C210.106 124.579 201.653 119.882 196.046 116.767C193.482 115.343 191.513 114.249 191.116 114.013C189.851 113.26 188.646 112.446 188.435 112.205C187.802 111.392 188.405 111.03 190.182 111.181C191.251 111.272 216.996 124.319 218.862 125.4Z" fill="white"/>
<path d="M162.316 116.634C161.533 116.363 160.689 115.76 160.147 115.067L159.243 113.953L162.436 110.789C167.347 105.969 170.962 100.702 174.216 94.8271C175.3 92.8689 178.524 84.9717 178.915 84.0981C179.518 82.8328 179.97 82.3508 181.265 81.6278C182.801 80.724 184.549 80.4228 185.302 80.9349C186.748 81.8989 186.748 84.9416 185.302 90.1835C183.705 95.9375 181.566 100.065 177.138 105.999C176.445 106.903 175.15 108.681 174.216 109.916C171.715 113.23 170.088 114.826 167.889 116.061C165.72 117.267 164.455 117.417 162.316 116.634Z" fill="white"/>
<path d="M173.673 115.941L173.041 115.308C173.041 115.308 183.541 101.967 185.422 97.0518C186.858 93.3006 187.703 92.2368 188.843 92.2368C189.481 92.2368 190.002 92.3824 190.243 92.7439C190.664 93.3765 191.071 94.1598 190.528 96.841C189.625 101.179 188.239 104.041 184.082 110.217C183.118 111.633 181.882 113.199 181.34 113.741C180.075 114.916 177.228 116.121 175.571 116.393C174.517 116.543 174.216 116.483 173.673 115.941Z" fill="white"/>
<path fill-rule="evenodd" clip-rule="evenodd" d="M191.311 101.991C191.918 100.601 192.351 99.3887 192.351 98.95C192.351 98.2571 192.713 98.3475 194.52 99.4019C196.358 100.517 211.21 107.958 218.802 111.603C221.634 112.958 223.983 113.727 223.983 113.878C223.983 114.028 190.667 103.465 191.311 101.991Z" fill="#E7EAEE"/>
<path fill-rule="evenodd" clip-rule="evenodd" d="M88.2368 103.71C84.4109 101.209 78.6267 95.3347 75.825 91.1472C71.8183 85.1221 69.1672 78.6752 67.8718 71.7463C66.9379 66.7153 66.968 58.973 67.9019 54.4842C68.866 49.9051 70.1011 46.4106 72.3003 41.9821C74.861 36.8607 77.5723 33.095 81.6393 29.028C85.6275 25.0398 67.9019 41.5327 72.3003 71.0421C75.825 95.7708 90.973 105.512 88.2368 103.71Z" fill="#E7EAEE"/>
</svg>
