<svg width="350" height="350" viewBox="0 0 350 350" fill="none" xmlns="http://www.w3.org/2000/svg">
<rect width="350" height="350" fill="white"/>
<path d="M224.881 234.791C240.532 236.699 253.961 246.352 265.012 247.674C277.294 249.143 295.868 241.073 314.81 250.571C319.685 253.016 323.688 255.954 322.197 259.605C319.597 265.968 314.127 268.461 302.144 270.19L300.866 270.367C291.603 271.598 281.647 271.897 256.409 272.064L247.784 272.129C217.019 272.397 199.227 273.837 176.187 275.678L173.839 275.868C131.412 279.359 97.5463 278.8 72.2411 274.93L71.4769 274.812C51.0321 271.609 38.7404 266.312 32.7402 260.302C29.2079 256.764 27.1732 253.465 27.0682 249.939C26.9632 246.413 32.1729 242.537 35.1389 241.073C43.4015 236.997 46.0974 235.518 61.9819 233.431C68.8212 232.532 79.0677 232.604 90.9117 232.204C133.4 230.77 199.039 231.64 224.881 234.791Z" fill="white"/>
<path fill-rule="evenodd" clip-rule="evenodd" d="M237.296 242.48C213.21 296.997 126.046 295.241 65.3968 258.032C53.814 250.926 13.9986 217.432 53.1863 197.873C92.374 178.315 79.8221 148.273 111.448 112.442C148.022 71.0047 216.132 49.7519 264.033 105.504C385.78 247.206 245.406 224.123 237.296 242.48Z" fill="#7198FF"/>
<path fill-rule="evenodd" clip-rule="evenodd" d="M76.2804 97.9192C74.1089 94.43 71.9329 93.0912 69.7924 94.2493C67.9804 95.2297 67.679 97.8482 68.6431 102.037L68.0653 102.349C67.2713 102.777 66.9748 103.768 67.4029 104.562C67.4399 104.631 67.4819 104.696 67.5283 104.759L67.838 105.173C72.3583 111.17 75.9402 113.626 78.7349 112.275C81.0838 111.14 81.4805 106.305 80.2721 97.5558C80.1874 96.943 79.6413 96.5075 79.0331 96.5517L78.9567 96.5597C78.8187 96.5788 78.6853 96.6224 78.5626 96.6885L76.2804 97.9192ZM69.871 101.098L74.9106 98.3718L74.8987 98.3533C73.1658 95.6654 71.6976 94.8103 70.4586 95.4806L70.4017 95.5134C69.4869 96.0717 69.2334 97.8258 69.816 100.824L69.871 101.098ZM78.9301 98.0807L68.7298 103.581C68.6164 103.642 68.574 103.784 68.6352 103.897C68.6405 103.907 68.6465 103.917 68.6531 103.926L68.9536 104.328C73.0853 109.808 76.1929 111.949 78.1257 111.015C79.5942 110.305 79.9796 105.995 78.9579 98.2845L78.9301 98.0807ZM76.846 106.9C77.0859 106.649 77.2333 106.308 77.2333 105.933C77.2333 105.16 76.6065 104.533 75.8333 104.533C75.0601 104.533 74.4333 105.16 74.4333 105.933C74.4333 106.707 75.0601 107.333 75.8333 107.333C75.8942 107.333 75.9542 107.329 76.013 107.322L76.8089 108.783L76.8376 108.829C76.9723 109.02 77.2317 109.084 77.4419 108.969C77.6682 108.846 77.7518 108.563 77.6285 108.336L76.846 106.9Z" fill="#FFB61D"/>
<path fill-rule="evenodd" clip-rule="evenodd" d="M224.881 234.791C240.532 236.699 253.961 246.352 265.012 247.674C277.294 249.143 295.868 241.073 314.81 250.571C319.685 253.016 323.688 255.954 322.197 259.605C319.597 265.968 314.127 268.461 302.144 270.19L300.866 270.367C291.603 271.598 281.647 271.897 256.409 272.064L247.784 272.129C217.019 272.397 199.227 273.837 176.187 275.678L173.839 275.868C131.412 279.359 97.5462 278.8 72.2411 274.93L71.4769 274.812C51.0321 271.609 38.7404 266.312 32.7402 260.302C29.2079 256.764 27.1732 253.465 27.0682 249.939C26.9632 246.413 32.1729 242.537 35.1389 241.073C43.4014 236.997 46.0974 235.518 61.9819 233.431C68.8212 232.532 79.0677 232.604 90.9117 232.204C133.4 230.77 199.039 231.64 224.881 234.791ZM61.6312 236.384L60.5902 236.523C45.7876 238.53 36.325 242.182 31.8425 245.823L31.5627 246.057C28.1207 249.023 27.7989 252.357 32.7465 257.287C38.1562 262.677 51.9537 268.757 71.8482 271.857C96.7547 275.738 130.24 276.865 172.292 273.49L176.701 273.135C200.978 271.226 219.605 270.21 254.078 269.968L263.595 269.897C284.118 269.711 292.842 269.344 301.263 268.173L302.064 268.058C339.251 260.784 312.418 247.733 297.024 247.674C283.84 247.623 268.005 251.331 263.595 249.943C249.696 245.568 242.559 238.87 224.881 236.727L219.741 236.11L215.353 235.903C143.434 232.562 92.1799 232.391 61.6312 236.384Z" fill="#00160A"/>
<path d="M108.209 67.3763C107.954 67.3681 107.698 67.3684 107.443 67.3772C101.149 67.5936 96.2093 72.8202 96.3234 79.0966L96.3284 79.2871L96.4056 81.6389C96.6266 88.703 96.7482 95.7391 96.7703 102.747L96.8083 124.311C96.8168 132.072 96.812 139.076 96.7893 145.935L96.7581 153.21C96.6358 176.369 96.3059 192.623 95.6936 199.698L95.5754 201.021C94.8364 209.668 94.6833 222.087 95.1216 238.251C95.1266 238.438 95.1361 238.624 95.1498 238.811C95.6341 245.364 101.287 250.3 107.825 249.923L108.024 249.91L110.197 249.752C130.509 248.303 150.822 247.578 171.134 247.578C191.016 247.578 211.051 248.272 231.238 249.661C231.822 249.701 232.408 249.704 232.992 249.671C240.646 249.238 246.517 242.744 246.21 235.11L246.198 234.879L246.045 232.125C244.69 207.325 243.989 182.524 243.94 157.723L243.938 154.967C243.938 136.891 244.784 112.1 246.477 80.5837C246.495 80.2306 246.499 79.8769 246.489 79.5235C246.276 72.6821 240.612 67.2938 233.794 67.3952L233.587 67.4L223.266 67.7129C199.819 68.4045 182.745 68.7658 172.035 68.7969L170.199 68.799L168.311 68.7941C157.378 68.7471 140.452 68.3722 117.525 67.6693L108.209 67.3763Z" fill="white"/>
<path fill-rule="evenodd" clip-rule="evenodd" d="M232.787 66.7334C231.96 67.1864 230.871 67.5051 229.519 67.6889C232.999 67.9981 235.736 67.926 237.729 67.4727L237.298 67.4194C235.895 67.2422 234.391 67.0135 232.787 66.7334Z" fill="#E7EAEE"/>
<path fill-rule="evenodd" clip-rule="evenodd" d="M101.875 233.622L101.972 233.626C102.574 233.667 102.998 234.137 102.942 234.656C102.879 235.249 102.245 235.825 101.552 235.873C101.002 235.911 100.619 235.487 100.68 234.83C100.745 234.14 101.285 233.625 101.875 233.622Z" fill="#E7EAEE"/>
<path fill-rule="evenodd" clip-rule="evenodd" d="M112.891 242.635L112.988 242.639C113.59 242.681 114.014 243.15 113.959 243.669C113.895 244.263 113.261 244.838 112.569 244.886C112.018 244.924 111.636 244.5 111.697 243.843C111.761 243.153 112.301 242.638 112.891 242.635Z" fill="#E7EAEE"/>
<path fill-rule="evenodd" clip-rule="evenodd" d="M171.256 242.043C147.357 247.318 192.231 246.386 209.736 245.23C219.263 244.602 226.87 249.36 231.238 249.661C231.822 249.701 232.408 249.705 232.992 249.672C240.646 249.238 246.518 242.744 246.21 235.11L246.198 234.879L246.045 232.126C244.691 207.325 243.989 182.524 243.941 157.723L243.938 154.967C243.938 136.891 244.784 112.1 246.477 80.5838C246.496 80.2307 246.5 79.877 246.489 79.5236C246.276 72.6822 233.166 228.379 171.256 242.043Z" fill="#E7EAEE"/>
<path d="M242.139 235.667L242.223 235.671C242.659 235.706 243.015 236.159 242.964 236.713C242.907 237.326 242.378 237.877 241.851 237.919C241.48 237.948 241.167 237.55 241.222 236.865C241.279 236.164 241.718 235.678 242.139 235.667Z" fill="white"/>
<path fill-rule="evenodd" clip-rule="evenodd" d="M241.989 239.666C240.433 239.789 239.34 238.398 239.475 236.723C239.607 235.096 240.846 233.804 242.334 233.922C243.798 234.037 244.848 235.373 244.709 236.875C244.575 238.317 243.387 239.555 241.989 239.666ZM242.223 235.671L242.139 235.667C241.718 235.678 241.279 236.164 241.222 236.864C241.167 237.549 241.48 237.948 241.851 237.919C242.378 237.877 242.907 237.326 242.964 236.713C243.015 236.159 242.659 235.705 242.223 235.671Z" fill="white"/>
<path d="M227.336 77.4771C232.867 77.477 237.351 81.9608 237.351 87.4919C237.351 87.6989 237.345 87.9059 237.332 88.1125L237.185 90.5659C236.916 95.2224 236.647 100.751 236.38 107.152L236.339 108.177C235.685 125.395 235.664 166.13 236.277 230.381C236.329 235.912 231.889 240.438 226.358 240.491C226.223 240.493 226.088 240.491 225.953 240.487L116.08 237.097C110.993 236.94 106.832 232.992 106.409 227.92L106.316 226.775C104.869 208.535 104.783 185.246 106.057 156.907L106.244 152.843C106.895 137.93 106.946 116.211 106.398 87.6845C106.292 82.2121 110.597 77.6806 116.045 77.4837L116.314 77.4775L227.336 77.4771Z" fill="white"/>
<path fill-rule="evenodd" clip-rule="evenodd" d="M153.465 195.581C158.319 195.785 163.303 194.924 167.626 192.812C173.04 190.167 177.114 185.729 179.369 179.365C182.339 170.983 181.248 161.919 176.979 153.942C173.178 146.842 167.203 141.438 161.695 140.102C161.695 140.102 176.979 161.6 174.789 173.353C171.441 191.322 153.465 195.581 153.465 195.581Z" fill="#E7EAEE"/>
<path fill-rule="evenodd" clip-rule="evenodd" d="M156.995 170.333C159.357 171.313 160.078 173.134 159.158 175.796L159.105 175.944C153.123 192.37 146.069 192.519 152.105 175.944C152.837 173.936 152.655 172.396 151.561 171.323C153.495 170.931 155.306 170.601 156.995 170.333Z" fill="#E7EAEE"/>
<path fill-rule="evenodd" clip-rule="evenodd" d="M119.527 151.133C121.075 146.535 123.335 143.078 127.559 140.344L128.096 140.004C129.007 139.432 130.131 138.784 131.044 139.227C132.205 139.789 133.886 141.838 132.864 142.642C132.17 143.188 129.315 143.768 127.163 145.653C124.622 147.879 122.794 151.466 122.794 152.344C122.794 155.209 118.613 153.849 119.527 151.133Z" fill="#E7EAEE"/>
<path fill-rule="evenodd" clip-rule="evenodd" d="M114.741 85.5877C109.427 100.177 109.464 103.072 109.145 100.557C108.114 92.4246 107.336 87.0804 108.561 83.8341C110.112 79.7243 114.001 78.9158 115.002 79.3928C117.12 80.4013 114.741 85.5877 114.741 85.5877Z" fill="#E7EAEE"/>
<path fill-rule="evenodd" clip-rule="evenodd" d="M202.159 160.565L200.391 160.511C198.294 160.457 196.782 160.47 195.514 160.569C194.496 160.648 193.735 160.787 193.305 160.923L193.22 160.952L193.211 160.992C193.164 161.23 193.13 161.549 193.115 161.933L193.11 162.081C193.082 163.236 193.221 164.778 193.499 166.502C193.726 167.915 194.037 169.382 194.361 170.619L194.442 170.924C194.568 171.385 194.689 171.787 194.795 172.099L194.834 172.211L194.88 172.228C195.531 172.459 196.826 172.487 199.323 172.303L201.018 172.17C202.161 172.086 202.993 172.05 203.815 172.06L211.784 172.227C212.899 172.248 213.906 172.264 214.893 172.277L216.683 172.298C221.154 172.558 226.067 172.363 226.679 171.25C228.543 167.856 229.422 160.866 228.543 160.819C226.961 160.735 225.047 160.636 224.137 160.648L222.038 160.686L220.133 160.701C219.264 160.706 218.357 160.709 217.384 160.71L206.462 160.685C205.752 160.68 205.056 160.662 203.803 160.621L202.159 160.565Z" fill="#E7EAEE"/>
<path fill-rule="evenodd" clip-rule="evenodd" d="M118.413 65.1916L108.29 64.874C107.979 64.8639 107.668 64.8643 107.357 64.875C99.6178 65.1411 93.56 71.6304 93.8261 79.3693L93.9032 81.7172C93.9939 84.6167 94.1319 87.5115 94.2697 90.4015C94.5037 95.3088 94.737 100.202 94.737 105.082L94.7695 122.782C94.8007 147.464 94.7259 188.114 93.6296 199.888L93.5472 200.812C92.8346 209.154 92.1944 220.891 92.56 236.023L92.6189 238.319C92.625 238.544 92.6364 238.77 92.653 238.995C93.2441 246.994 100.207 252.998 108.205 252.407L110.375 252.249L110.735 252.224C110.807 252.345 110.881 252.466 110.953 252.586C111.305 253.166 111.633 253.708 111.709 253.974C111.902 254.645 111.922 255.405 111.811 257.125L111.698 258.737L111.668 259.261C111.504 262.474 111.875 264.386 113.442 265.825C115.459 267.676 117.594 267.48 121.97 267.078L122.167 267.06L123.294 266.95C124.596 266.825 126.06 266.926 127.057 266.996H127.057C127.345 267.015 127.593 267.033 127.788 267.041L128.157 267.06C130.668 267.16 131.066 266.333 131.286 264.29C131.407 263.164 131.25 262.278 130.588 259.993L130.093 258.308L129.929 257.722C129.156 254.867 129.227 253.441 130.233 252.752C130.477 252.585 131.497 252.281 132.674 251.932L132.675 251.931C133.885 251.571 135.261 251.162 136.128 250.801C147.797 250.322 159.466 250.082 171.135 250.082C183.395 250.082 195.715 250.346 208.092 250.876C208.01 251.01 207.995 251.203 208.083 251.473C208.181 251.777 208.553 251.988 209.029 252.257C210.291 252.97 212.28 254.095 211.817 258.462L211.819 258.641C211.888 262.084 213.975 264.104 217.332 264.789C219.577 265.247 222.13 265.109 224.91 264.627C226.287 264.388 227.174 263.527 227.597 262.215C227.831 261.491 227.915 260.839 227.97 259.544C227.97 259.544 227.357 252.811 230.762 252.138C230.864 252.145 230.965 252.152 231.066 252.159C231.46 252.186 231.855 252.199 232.25 252.197C232.303 252.21 232.357 252.224 232.411 252.238C232.575 252.282 232.73 252.257 232.871 252.184C232.958 252.18 233.046 252.176 233.134 252.171C242.245 251.656 249.214 243.851 248.698 234.74L248.545 231.989C247.143 206.315 246.441 180.641 246.441 154.967C246.441 137.484 247.237 113.673 248.827 83.5326L248.977 80.718C248.999 80.2943 249.004 79.8698 248.991 79.4457C248.733 71.1532 241.802 64.6397 233.509 64.8975L228.253 65.0589C202.209 65.8486 183.468 66.26 172.032 66.2933L170.201 66.2953C159.524 66.287 142.262 65.9192 118.413 65.1916ZM227.344 251.91C221.557 251.537 215.783 251.22 210.021 250.961C212.78 252.3 213.764 254.8 213.818 258.259L213.82 258.462C213.82 260.699 215.56 262.16 217.902 262.638C218.147 262.688 218.398 262.743 218.655 262.799C220.273 263.149 222.121 263.55 224.172 263.214L224.483 263.161C225.901 262.638 225.901 257.544 225.901 257.544C225.916 257.129 225.931 256.859 225.955 256.53L225.986 256.161C226.163 254.306 226.551 252.921 227.344 251.91ZM114.116 253.284C113.98 252.81 113.786 252.39 113.535 252.03C118.448 251.698 123.36 251.408 128.273 251.16C127.505 252.016 127.433 253.171 127.405 254.551C127.381 255.74 127.621 257.005 128.126 258.786L128.157 258.893L128.619 260.467C129.185 262.412 129.356 263.225 129.308 263.907L129.298 264.022C129.23 264.655 128.417 265.368 127.045 265.288L126.799 265.276C126.211 265.186 120.414 265.288 120.414 265.288C117.738 265.559 116.449 265.186 115.136 263.981C114.254 263.171 114.018 261.734 114.192 258.982L114.3 257.437C114.436 255.418 114.425 254.473 114.17 253.483L114.116 253.284ZM107.443 67.3772C107.698 67.3684 107.954 67.3682 108.209 67.3764L117.525 67.6694C140.453 68.3722 157.378 68.7472 168.311 68.7941L170.199 68.799L172.035 68.797C182.745 68.7659 199.819 68.4045 223.266 67.7129L233.587 67.4L233.794 67.3953C240.613 67.2939 246.276 72.6822 246.489 79.5235C246.5 79.877 246.496 80.2307 246.477 80.5837C244.784 112.1 243.938 136.891 243.938 154.967L243.94 157.723C243.989 182.524 244.69 207.325 246.045 232.125L246.198 234.879L246.21 235.11C246.517 242.744 240.646 249.238 232.992 249.671C232.408 249.705 231.822 249.701 231.238 249.661C211.051 248.272 191.016 247.578 171.135 247.578C150.822 247.578 130.509 248.303 110.197 249.752L108.024 249.91L107.826 249.923C101.287 250.3 95.6342 245.364 95.1499 238.811C95.1361 238.624 95.1267 238.438 95.1217 238.251C94.6834 222.088 94.8365 209.668 95.5754 201.021L95.6937 199.698C96.3059 192.623 96.6359 176.369 96.7582 153.21L96.7894 145.936C96.8121 139.076 96.8169 132.072 96.8084 124.311L96.7704 102.747C96.7483 95.7392 96.6267 88.703 96.4057 81.6389L96.3284 79.2871L96.3234 79.0966C96.2094 72.8202 101.149 67.5936 107.443 67.3772ZM237.351 87.4919C237.351 81.9608 232.867 77.4771 227.336 77.4771L116.314 77.4775L116.045 77.4837C110.597 77.6806 106.292 82.2121 106.398 87.6845C106.946 116.211 106.895 137.93 106.244 152.843L106.057 156.907C104.783 185.246 104.869 208.535 106.316 226.775L106.409 227.92C106.832 232.992 110.993 236.94 116.08 237.097L225.954 240.487C226.088 240.491 226.223 240.493 226.358 240.491C231.889 240.438 236.33 235.912 236.277 230.381C235.664 166.13 235.685 125.395 236.339 108.177L236.38 107.152C236.647 100.751 236.916 95.2224 237.185 90.5659L237.332 88.1125C237.345 87.9059 237.351 87.6989 237.351 87.4919ZM116.411 79.9808H227.336C231.485 79.9808 234.847 83.3436 234.847 87.4919C234.847 87.6471 234.843 87.8024 234.833 87.9573C234.571 92.1806 234.309 97.2222 234.049 103.083L233.878 107.047C233.217 122.865 233.152 160.745 233.684 220.747L233.773 230.405C233.813 234.553 230.482 237.948 226.334 237.988C226.233 237.989 226.132 237.988 226.031 237.984L116.158 234.595L115.992 234.588C112.252 234.391 109.217 231.461 108.904 227.712C107.362 209.237 107.259 185.369 108.599 156.123L108.725 153.417C109.357 139.345 109.447 119.165 108.996 92.8609L108.901 87.6364C108.821 83.4889 112.119 80.0619 116.266 79.9821C116.314 79.9812 116.362 79.9808 116.411 79.9808ZM112.573 72.3022C112.731 74.0043 111.498 75.3703 109.836 75.2559C108.316 75.1513 106.979 73.9377 106.823 72.4762L106.814 72.3693C106.717 70.9152 107.831 69.679 109.326 69.5204L109.439 69.5106C111.033 69.4009 112.421 70.6607 112.573 72.3022ZM109.633 71.2567L109.536 71.2603C108.935 71.302 108.511 71.7718 108.566 72.2903C108.629 72.8839 109.264 73.4598 109.956 73.5075C110.507 73.5453 110.889 73.1219 110.828 72.4643C110.764 71.7749 110.224 71.2592 109.633 71.2567ZM100.772 85.5778C99.04 85.7315 97.8725 84.0646 98.0165 82.0656C98.1577 80.1062 99.5032 78.5315 101.169 78.6793L101.277 78.6911C102.807 78.8901 103.864 80.3955 103.778 82.0828L103.77 82.2008C103.627 83.9256 102.334 85.4393 100.772 85.5778ZM101.041 80.427L100.956 80.4228C100.424 80.4293 99.8398 81.1475 99.7646 82.1915C99.6894 83.2346 100.138 83.8746 100.618 83.8321C101.269 83.7743 101.947 82.981 102.023 82.0563C102.096 81.1808 101.603 80.4772 101.041 80.427ZM230.505 72.3022C230.347 74.0043 231.58 75.3703 233.242 75.2559C234.762 75.1513 236.099 73.9377 236.255 72.4762L236.264 72.3693C236.361 70.9152 235.247 69.679 233.752 69.5204L233.639 69.5106C232.045 69.4009 230.658 70.6607 230.505 72.3022ZM233.445 71.2567L233.542 71.2603C234.143 71.302 234.567 71.7718 234.512 72.2903C234.449 72.8839 233.814 73.4598 233.122 73.5075C232.571 73.5453 232.189 73.1219 232.25 72.4643C232.314 71.7749 232.854 71.2592 233.445 71.2567ZM239.837 82.7131C238.907 81.331 239.473 79.5798 241.026 78.8657C242.524 78.177 244.309 78.7489 245.011 80.1841L245.059 80.2868C245.669 81.6605 245.155 83.2434 243.848 83.8868L243.751 83.9322C242.407 84.528 240.688 83.977 239.837 82.7131ZM243.447 80.9746L243.402 80.8889C243.104 80.3789 242.388 80.1688 241.759 80.4581C241.159 80.7339 240.983 81.2768 241.291 81.7346C241.679 82.3106 242.495 82.572 243.04 82.33C243.517 82.1187 243.712 81.5164 243.447 80.9746ZM99.5349 232.713C98.3197 233.915 98.3865 235.754 99.7331 236.735C100.965 237.632 102.769 237.562 103.828 236.542L103.903 236.466C104.912 235.414 104.853 233.751 103.81 232.669L103.73 232.589C102.58 231.48 100.707 231.554 99.5349 232.713ZM102.459 233.802L102.531 233.867C102.965 234.285 102.988 234.918 102.612 235.28C102.182 235.694 101.326 235.727 100.765 235.318C100.319 234.994 100.298 234.423 100.768 233.959C101.26 233.472 102.005 233.424 102.459 233.802ZM110.749 245.748C109.403 244.768 109.336 242.929 110.551 241.726C111.723 240.567 113.596 240.494 114.747 241.602L114.827 241.682C115.87 242.765 115.928 244.428 114.92 245.48L114.844 245.556C113.785 246.575 111.981 246.645 110.749 245.748ZM113.547 242.88L113.475 242.815C113.021 242.437 112.276 242.485 111.784 242.972C111.314 243.437 111.335 244.007 111.781 244.332C112.342 244.74 113.198 244.707 113.628 244.293C114.004 243.931 113.981 243.299 113.547 242.88ZM234.04 242.308C232.645 243.715 232.607 245.785 234.094 246.85C235.455 247.825 237.493 247.632 238.712 246.432C239.976 245.189 240.012 243.187 238.769 241.97C237.511 240.738 235.4 240.937 234.04 242.308ZM237.487 243.172L237.559 243.237C238.074 243.742 238.058 244.617 237.483 245.183C236.863 245.794 235.772 245.896 235.114 245.425C234.581 245.043 234.596 244.237 235.284 243.542C235.984 242.837 236.956 242.723 237.487 243.172ZM241.989 239.666C240.433 239.789 239.34 238.398 239.475 236.723C239.607 235.096 240.846 233.804 242.334 233.922C243.798 234.037 244.848 235.373 244.709 236.875C244.575 238.317 243.387 239.555 241.989 239.666ZM242.223 235.671L242.139 235.667C241.718 235.678 241.279 236.164 241.222 236.864C241.167 237.549 241.48 237.948 241.851 237.919C242.378 237.877 242.907 237.326 242.964 236.713C243.015 236.159 242.659 235.705 242.223 235.671Z" fill="#00160A"/>
<path fill-rule="evenodd" clip-rule="evenodd" d="M110.551 241.726C109.336 242.929 109.403 244.768 110.749 245.749C111.981 246.645 113.785 246.575 114.844 245.556L114.92 245.48C115.928 244.428 115.87 242.765 114.826 241.682L114.746 241.602C113.596 240.494 111.723 240.567 110.551 241.726ZM113.475 242.815L113.547 242.88C113.981 243.299 114.004 243.931 113.628 244.293C113.198 244.707 112.342 244.74 111.781 244.332C111.335 244.007 111.314 243.437 111.784 242.972C112.276 242.485 113.021 242.438 113.475 242.815Z" fill="#00160A"/>
<path d="M237.487 243.172L237.559 243.237C238.074 243.742 238.058 244.617 237.483 245.183C236.863 245.794 235.772 245.896 235.114 245.425C234.581 245.043 234.595 244.237 235.284 243.542C235.984 242.837 236.956 242.723 237.487 243.172Z" fill="white"/>
<path fill-rule="evenodd" clip-rule="evenodd" d="M126.972 135.703C126.394 135.904 125.872 136.176 125.228 136.573L124.733 136.883L124.488 137.04C120.754 139.45 118.261 142.447 116.487 146.507L116.392 146.726L116.321 146.705C115.85 146.567 115.424 146.499 114.968 146.537C113.995 146.618 113.089 147.201 112.765 148.287C112.259 149.983 112.468 151.923 113.124 153.909L113.248 154.273C113.888 156.114 114.597 157.363 115.776 157.728C117.343 158.213 122.757 156.067 124.645 154.119C125.992 152.73 125.453 151.031 124.171 150.051L124.053 149.964L123.929 149.878L123.789 149.787L123.883 149.619C123.948 149.503 124.017 149.386 124.088 149.268C124.854 147.998 125.811 146.798 126.781 145.948C127.154 145.621 127.586 145.321 128.079 145.041C128.84 144.608 131.879 143.416 132.39 143.013C134.033 141.721 133.843 139.85 132.804 138.228C132.158 137.219 131.142 136.274 130.16 135.799C129.128 135.299 128.049 135.329 126.972 135.703ZM129.178 137.827C130.339 138.389 132.02 140.438 130.997 141.242C130.303 141.788 127.448 142.368 125.296 144.253C122.755 146.479 120.927 150.066 120.927 150.944L121.217 151.053C122.801 151.662 123.404 152.162 123.027 152.551C121.347 154.284 116.78 155.68 116.442 155.576C116.109 155.473 114.139 151.564 114.924 148.931C115.029 148.579 115.941 148.846 117.661 149.733C119.208 145.135 121.468 141.678 125.693 138.944L126.229 138.604C127.141 138.032 128.264 137.384 129.178 137.827Z" fill="#00160A"/>
<path fill-rule="evenodd" clip-rule="evenodd" d="M130.39 187.557C121.115 177.42 120.578 160.128 130.598 148.992C136.824 142.074 151.456 137.617 161.696 140.102C167.203 141.438 173.178 146.842 176.979 153.942C181.248 161.919 182.339 170.983 179.369 179.365C177.114 185.729 173.04 190.167 167.626 192.812C163.304 194.924 158.319 195.785 153.465 195.581C144.705 195.212 133.813 191.297 130.39 187.557ZM174.771 155.123C171.281 148.603 165.842 143.684 161.105 142.535L160.823 142.469C151.483 140.35 138.01 144.498 132.459 150.667C123.321 160.822 123.813 176.66 132.237 185.867C135.145 189.044 145.417 192.736 153.57 193.079C158.033 193.267 162.609 192.477 166.527 190.563C171.363 188.2 174.978 184.262 177.009 178.528C179.729 170.852 178.725 162.511 174.771 155.123ZM169.948 179.112C175.489 169.385 167.978 148.383 157.488 146.631C147.627 144.983 143.889 147.375 139.636 151.063L138.814 151.784C130.491 159.143 130.491 174.951 138.622 182.285C140.665 184.128 149.655 188.857 156.554 187.41C161.128 186.451 167.494 183.419 169.948 179.112ZM146.795 149.374C147.317 149.187 147.868 149.033 148.455 148.913C148.376 149.095 148.308 149.288 148.253 149.493C147.942 150.636 147.974 151.614 148.309 153.995L148.538 155.573C148.558 155.712 148.575 155.84 148.593 155.97L148.643 156.372C149 159.386 148.676 160.959 147.328 161.826C146.095 162.619 144.882 162.919 142.111 163.242L141.073 163.359C139.795 163.506 139.124 163.608 138.316 163.791L137.951 163.864C136.832 164.099 135.903 164.392 135.182 164.76C135.658 160.453 137.421 156.357 140.472 153.66C143.35 151.116 144.801 150.089 146.795 149.374ZM157.075 149.1C156.67 149.032 156.276 148.972 155.892 148.918C155.972 149.122 156.04 149.338 156.096 149.567C156.331 150.522 156.371 151.37 156.314 153.301L156.287 154.135C156.258 154.937 156.244 155.414 156.24 155.872L156.24 156.422C156.263 158.865 156.646 160.49 157.586 161.59L157.69 161.707L157.732 161.725C157.79 161.748 157.864 161.775 157.951 161.804L158.044 161.834C158.259 161.903 158.529 161.979 158.875 162.07L159.453 162.218L161.92 162.822C162.405 162.942 162.836 163.052 163.249 163.161L163.928 163.344C165.968 163.906 167.532 164.454 168.669 165.064C166.97 157.459 162.293 149.972 157.075 149.1ZM168.942 170.658C169.083 170.568 169.217 170.477 169.342 170.384C169.404 173.221 168.928 175.844 167.773 177.873C166.114 180.785 161.506 183.558 157.007 184.732C157.121 184.445 157.213 184.133 157.284 183.799C157.503 182.772 157.538 181.596 157.452 179.93L157.397 179.034L157.316 177.855C157.161 175.5 157.199 174.514 157.404 174.278C158.328 173.216 159.607 172.81 162.864 172.343L163.619 172.235C166.342 171.838 167.618 171.502 168.942 170.658ZM149.806 183.512C149.84 183.935 149.981 184.366 150.208 184.773C149.053 184.529 147.852 184.178 146.628 183.73C143.889 182.728 141.234 181.27 140.299 180.426C137.329 177.748 135.62 173.704 135.171 169.447C135.94 169.802 136.957 170.101 138.22 170.4L138.415 170.446C138.925 170.564 139.446 170.674 140.062 170.796L141.82 171.137C145.756 171.946 147.788 172.883 148.717 174.136L148.81 174.266C149.425 175.163 149.596 176.179 149.645 178.815L149.673 180.693C149.695 181.817 149.729 182.563 149.806 183.512ZM152.767 149.019L152.88 149.029C153.943 149.156 154.167 150.141 154.042 153.859L153.999 155.147C153.989 155.536 153.985 155.849 153.985 156.192C153.986 158.522 154.265 160.333 155.015 161.783C154.875 161.709 154.715 161.667 154.546 161.667L154.375 161.669L154.333 161.67L154.314 161.662C154.026 161.556 153.712 161.589 153.458 161.739L153.432 161.755L153.344 161.769C151.16 162.133 148.989 163.437 147.826 165.165C146.577 167.019 146.639 169.042 148.063 170.775C146.708 170.06 144.91 169.486 142.537 168.985L141.771 168.831C141.321 168.744 140.759 168.636 140.759 168.636L140.306 168.547C139.869 168.46 139.481 168.378 139.109 168.293L138.924 168.251C137.794 167.989 136.902 167.719 136.278 167.438L136.179 167.392C135.987 167.301 135.835 167.213 135.726 167.135L135.712 167.124L135.739 167.095C135.816 167.019 135.933 166.932 136.093 166.84C136.64 166.524 137.541 166.234 138.778 165.996L139.091 165.928C139.641 165.815 140.18 165.734 141.022 165.634L142.388 165.478C145.495 165.116 146.934 164.759 148.548 163.721C150.901 162.206 151.35 159.838 150.854 155.888L150.799 155.471C150.771 155.267 150.741 155.054 150.701 154.782L150.546 153.715C150.267 151.73 150.227 150.879 150.41 150.15L150.427 150.084C150.651 149.262 151.22 148.922 152.767 149.019ZM150.439 172.678C150.469 172.716 150.498 172.755 150.527 172.793C151.591 174.229 151.835 175.497 151.897 178.735L151.922 180.445C151.941 181.516 151.969 182.221 152.029 183.037L152.052 183.331C152.099 183.91 153.087 184.83 154.178 184.622C155.028 184.459 155.357 183.067 155.197 179.967L155.175 179.579L155.05 177.76C154.854 174.782 154.916 173.793 155.596 172.93C153.966 173.543 152.071 173.514 150.439 172.678ZM158.225 171.049C159.235 170.667 160.521 170.408 162.308 170.147L163.276 170.008C165.539 169.677 166.633 169.407 167.56 168.863L167.732 168.758C168.78 168.089 168.881 167.956 168.415 167.58L168.264 167.463C167.439 166.842 165.846 166.222 163.553 165.579L163.068 165.445C162.545 165.304 162.008 165.165 161.374 165.008L158.739 164.362C158.242 164.236 157.843 164.132 157.519 164.036C159.556 166.19 159.893 168.614 158.493 170.684L158.414 170.798C158.353 170.884 158.29 170.967 158.225 171.049ZM153.745 163.733L153.888 163.713L153.989 163.773C157.264 165.765 157.993 167.935 156.782 169.637C155.577 171.331 152.931 171.916 151.032 170.713C148.831 169.318 148.465 167.801 149.487 166.284C150.35 165.003 152.075 163.99 153.745 163.733Z" fill="#00160A"/>
<path d="M188.013 159.874C188.024 159.439 188.058 159.114 188.098 158.885C188.105 158.883 188.111 158.881 188.118 158.879C188.386 158.794 188.756 158.712 189.239 158.644C190.211 158.506 191.442 158.45 192.857 158.447C194.262 158.444 195.761 158.493 197.266 158.546C197.357 158.549 197.447 158.552 197.538 158.555C198.931 158.603 200.333 158.652 201.578 158.654C203.008 158.655 204.465 158.66 205.934 158.665C209.536 158.677 213.212 158.69 216.764 158.653C216.932 158.652 217.167 158.647 217.457 158.641C218.596 158.617 220.575 158.575 222.611 158.641C223.884 158.682 225.096 158.763 226.061 158.903C226.545 158.973 226.912 159.05 227.168 159.125C227.182 159.129 227.194 159.132 227.206 159.136C227.215 159.156 227.225 159.178 227.235 159.203C227.349 159.487 227.468 159.928 227.556 160.534C227.732 161.744 227.739 163.297 227.556 164.856C227.372 166.43 227.017 167.821 226.583 168.759C226.384 169.189 226.23 169.405 226.145 169.505C219.985 170.137 209.733 169.913 201.439 169.731C200.505 169.711 199.595 169.691 198.719 169.673C197.591 169.65 196.432 169.725 195.371 169.808C195.103 169.829 194.843 169.85 194.589 169.87C193.798 169.934 193.072 169.993 192.365 170.023C191.435 170.062 190.709 170.041 190.153 169.948C189.958 169.915 189.807 169.878 189.693 169.841C189.591 169.545 189.471 169.149 189.339 168.665C189.013 167.466 188.66 165.881 188.4 164.262C188.136 162.623 187.984 161.062 188.013 159.874ZM226.071 169.579C226.071 169.579 226.073 169.578 226.075 169.576C226.073 169.578 226.071 169.579 226.071 169.579ZM188.171 158.585C188.178 158.565 188.182 158.557 188.182 158.557C188.183 158.558 188.179 158.568 188.171 158.585Z" stroke="#421EB7" stroke-width="5.36509"/>
<path fill-rule="evenodd" clip-rule="evenodd" d="M201.553 156.213C202.997 156.215 204.462 156.22 205.935 156.225C208.966 156.235 212.035 156.246 215.04 156.227L216.708 156.213C216.851 156.212 217.064 156.207 217.332 156.202C219.839 156.149 227.241 155.993 228.869 157.228C231.532 159.249 230.472 171.973 226.665 172.387C220.346 173.073 209.728 172.84 201.37 172.656C200.426 172.636 199.512 172.616 198.635 172.597C197.418 172.572 196.109 172.679 194.815 172.783C191.915 173.019 189.097 173.247 187.599 171.973C186.826 171.316 183.848 158.811 186.167 157.093C187.939 155.781 193.022 155.957 197.588 156.116C198.722 156.155 199.823 156.194 200.835 156.208L200.837 156.206L200.838 156.208C201.082 156.211 201.32 156.213 201.553 156.213ZM198.499 158.652C198.746 158.66 198.971 158.667 199.178 158.674C199.347 159.711 199.366 161.532 199.245 164.217L199.156 166.157C199.077 167.97 199.048 169.204 199.1 170.104L198.511 170.091C197.69 170.081 196.857 170.117 195.715 170.201L194.019 170.334C191.523 170.518 190.228 170.49 189.576 170.259L189.53 170.242L189.492 170.13C189.385 169.818 189.264 169.416 189.139 168.955L189.057 168.65C188.733 167.413 188.423 165.946 188.195 164.533C187.918 162.81 187.778 161.267 187.807 160.112L187.811 159.964C187.826 159.58 187.86 159.261 187.908 159.023L187.916 158.983L188.001 158.955C188.432 158.819 189.192 158.68 190.21 158.6C191.478 158.501 192.99 158.488 195.087 158.542L196.855 158.596L198.499 158.652ZM206.48 170.258L201.64 170.157C201.614 169.873 201.595 169.524 201.589 169.12L201.587 169.034C201.579 168.4 201.592 167.794 201.636 166.73L201.777 163.6C201.863 161.451 201.865 159.89 201.723 158.717L212.08 158.741C212.635 158.74 213.168 158.739 213.684 158.737C213.526 161.852 213.778 167.301 214.102 170.344C213.228 170.343 212.321 170.338 211.38 170.329L209.589 170.309C208.602 170.295 207.595 170.279 206.48 170.258ZM216.645 170.336C220.493 170.303 223.582 170.179 225.976 169.941L226.2 169.918L226.23 169.886C226.358 169.742 226.507 169.509 226.66 169.197L226.717 169.077C227.167 168.105 227.523 166.688 227.706 165.119C227.888 163.567 227.886 161.994 227.706 160.751C227.622 160.178 227.505 159.707 227.373 159.378L227.335 159.29L227.307 159.231L227.207 159.2C226.939 159.121 226.571 159.045 226.121 158.978C225.234 158.845 224.091 158.757 222.755 158.71C221.512 158.667 220.249 158.66 218.834 158.679L216.734 158.717L216.137 158.722C216.118 159.06 216.103 159.463 216.098 159.914L216.096 160.061C216.086 161.281 216.13 162.818 216.217 164.521L216.235 164.864C216.306 166.199 216.401 167.579 216.503 168.793L216.565 169.499C216.592 169.801 216.619 170.082 216.645 170.336ZM205.619 162.946L205.848 163.273C206.108 163.641 206.354 163.966 206.589 164.252C206.274 164.938 206.109 165.709 206.057 166.701C206.038 167.062 206.315 167.369 206.676 167.388C207.037 167.407 207.344 167.13 207.363 166.769C207.393 166.198 207.463 165.727 207.587 165.308C208.311 165.942 208.945 166.177 209.611 166.189L209.74 166.189C210.101 166.189 210.394 165.896 210.394 165.535C210.394 165.197 210.136 164.918 209.807 164.885L209.74 164.881L209.63 164.881C209.203 164.871 208.773 164.692 208.187 164.101C208.378 163.834 208.608 163.569 208.883 163.287L209.584 162.593C209.841 162.339 209.843 161.925 209.588 161.668C209.334 161.412 208.92 161.41 208.664 161.664L208.076 162.242C207.791 162.528 207.541 162.802 207.322 163.077L207.084 162.755C206.961 162.585 206.832 162.402 206.697 162.206C206.493 161.908 206.086 161.832 205.788 162.037C205.49 162.241 205.415 162.648 205.619 162.946ZM223.477 162.323L223.483 161.924C223.486 161.563 223.196 161.268 222.834 161.265C222.473 161.262 222.178 161.552 222.175 161.913C222.172 162.31 222.162 162.666 222.145 162.985C221.81 162.879 221.449 162.792 221.053 162.715L220.242 162.564C219.887 162.496 219.545 162.73 219.478 163.084C219.41 163.439 219.643 163.781 219.998 163.849L220.968 164.032C221.354 164.112 221.692 164.203 222 164.318C221.844 165.135 221.589 165.525 221.24 165.771L221.149 165.833L221.096 165.873C220.841 166.085 220.783 166.46 220.973 166.741C221.175 167.04 221.581 167.119 221.88 166.917L221.987 166.845C222.533 166.462 222.926 165.913 223.172 164.983C223.509 165.26 223.831 165.612 224.175 166.069C224.392 166.357 224.802 166.415 225.091 166.198C225.379 165.981 225.437 165.571 225.22 165.282C224.622 164.489 224.054 163.942 223.41 163.55C223.444 163.181 223.466 162.773 223.477 162.323Z" fill="#00160A"/>
<path fill-rule="evenodd" clip-rule="evenodd" d="M194.945 162.268L194.842 162.653C194.723 163.088 194.603 163.477 194.481 163.827C195.011 164.364 195.43 165.032 195.818 165.946C195.959 166.278 195.804 166.662 195.471 166.803C195.139 166.944 194.755 166.789 194.614 166.457C194.39 165.93 194.164 165.511 193.904 165.161C193.44 166.003 192.925 166.441 192.303 166.68L192.182 166.724C191.843 166.848 191.468 166.673 191.344 166.334C191.228 166.015 191.375 165.666 191.673 165.521L191.735 165.495L191.838 165.458C192.236 165.303 192.578 164.987 192.927 164.231C192.656 164.046 192.35 163.876 191.995 163.704L191.098 163.292C190.77 163.141 190.627 162.752 190.778 162.424C190.929 162.096 191.318 161.953 191.646 162.104L192.396 162.447C192.761 162.617 193.091 162.79 193.39 162.973C193.483 162.668 193.579 162.325 193.679 161.941C193.769 161.591 194.126 161.381 194.475 161.471C194.825 161.561 195.035 161.918 194.945 162.268Z" fill="#7198FF"/>
</svg>
