<svg width="27" height="27" viewBox="0 0 27 27" fill="none" xmlns="http://www.w3.org/2000/svg">
<path d="M2.62523 12.0001C2.62523 9.51374 3.61295 7.12917 5.3711 5.37102C7.12925 3.61287 9.51382 2.62515 12.0002 2.62515C14.4866 2.62515 16.8712 3.61287 18.6294 5.37102C20.3875 7.12917 21.3752 9.51374 21.3752 12.0001V12.0508C22.0221 12.1239 22.6465 12.2683 23.2409 12.4764C23.337 10.2127 22.7474 7.97275 21.5492 6.04976C20.351 4.12677 18.6002 2.61037 16.5258 1.69909C14.4514 0.787806 12.1502 0.524112 9.92342 0.942528C7.69667 1.36094 5.64814 2.44197 4.04603 4.04408C2.44392 5.64619 1.3629 7.69471 0.944481 9.92147C0.526065 12.1482 0.789759 14.4494 1.70104 16.5238C2.61232 18.5982 4.12872 20.3491 6.05171 21.5473C7.9747 22.7454 10.2147 23.335 12.4784 23.2389C12.2646 22.6361 12.1205 22.0107 12.049 21.3751H12.0002C9.51382 21.3751 7.12925 20.3874 5.3711 18.6293C3.61295 16.8711 2.62523 14.4866 2.62523 12.0001ZM18.5627 12.0001C18.5623 12.0727 18.5542 12.145 18.5384 12.2158C17.8543 12.3725 17.1928 12.615 16.5696 12.9376H6.37523C6.12659 12.9376 5.88813 12.8389 5.71231 12.6631C5.5365 12.4872 5.43773 12.2488 5.43773 12.0001C5.43773 11.7515 5.5365 11.513 5.71231 11.3372C5.88813 11.1614 6.12659 11.0626 6.37523 11.0626H17.6252C17.8739 11.0626 18.1123 11.1614 18.2881 11.3372C18.464 11.513 18.5627 11.7515 18.5627 12.0001ZM27.0002 20.4376C27.0002 22.1781 26.3088 23.8473 25.0781 25.078C23.8474 26.3087 22.1782 27.0001 20.4377 27.0001C18.6972 27.0001 17.028 26.3087 15.7973 25.078C14.5666 23.8473 13.8752 22.1781 13.8752 20.4376C13.8752 18.6972 14.5666 17.028 15.7973 15.7973C17.028 14.5666 18.6972 13.8751 20.4377 13.8751C22.1782 13.8751 23.8474 14.5666 25.0781 15.7973C26.3088 17.028 27.0002 18.6972 27.0002 20.4376ZM19.2265 19.2264C19.4025 19.0504 19.5014 18.8116 19.5014 18.5626C19.5014 18.3137 19.4025 18.0749 19.2265 17.8989C19.0504 17.7229 18.8117 17.624 18.5627 17.624C18.3138 17.624 18.075 17.7229 17.899 17.8989L16.024 19.7739C15.9367 19.861 15.8674 19.9644 15.8201 20.0783C15.7729 20.1922 15.7486 20.3143 15.7486 20.4376C15.7486 20.561 15.7729 20.6831 15.8201 20.797C15.8674 20.9109 15.9367 21.0143 16.024 21.1014L17.899 22.9764C18.075 23.1524 18.3138 23.2513 18.5627 23.2513C18.8117 23.2513 19.0504 23.1524 19.2265 22.9764C19.4025 22.8004 19.5014 22.5616 19.5014 22.3126C19.5014 22.0637 19.4025 21.8249 19.2265 21.6489L18.9508 21.3751H22.7815C22.9058 21.3751 23.025 21.4245 23.1129 21.5124C23.2008 21.6003 23.2502 21.7196 23.2502 21.8439V22.3126C23.2502 22.5613 23.349 22.7997 23.5248 22.9756C23.7006 23.1514 23.9391 23.2501 24.1877 23.2501C24.4364 23.2501 24.6748 23.1514 24.8506 22.9756C25.0265 22.7997 25.1252 22.5613 25.1252 22.3126V21.8439C25.1252 20.5501 24.0752 19.5001 22.7815 19.5001H18.9508L19.2265 19.2264Z" fill="white"/>
</svg>
