<svg width="46" height="46" viewBox="0 0 46 46" fill="none" xmlns="http://www.w3.org/2000/svg">
<circle opacity="0.6" cx="23" cy="23" r="23" fill="black" fill-opacity="0.5"/>
<path fill-rule="evenodd" clip-rule="evenodd" d="M18.2881 15.6991C18.7539 15.6991 19.1319 16.0771 19.1319 16.5428C19.1319 17.0086 18.7539 17.3866 18.2881 17.3866H17.2295C15.4137 17.3866 13.9377 18.8614 13.9377 20.6761V26.1717C13.9377 27.9931 15.4182 29.4736 17.2396 29.4736H29.7721C31.5856 29.4736 33.0627 27.9964 33.0627 26.1829V20.6884C33.0627 18.8671 31.5811 17.3866 29.762 17.3866H28.7135C28.2477 17.3866 27.8697 17.0086 27.8697 16.5428C27.8697 16.0771 28.2477 15.6991 28.7135 15.6991H29.762C32.5126 15.6991 34.7502 17.9378 34.7502 20.6884V26.1829C34.7502 28.9279 32.516 31.1611 29.7721 31.1611H17.2396C14.489 31.1611 12.2502 28.9234 12.2502 26.1717V20.6761C12.2502 17.9311 14.4834 15.6991 17.2295 15.6991H18.2881ZM23.5011 10.375C23.9669 10.375 24.3449 10.753 24.3449 11.2187L24.344 22.723L26.1843 20.8757C26.5128 20.545 27.046 20.545 27.3768 20.8735C27.7064 21.202 27.7075 21.7364 27.379 22.0671L24.1061 25.3529C24.0741 25.3857 24.0395 25.416 24.0026 25.4434L24.0985 25.36C24.0623 25.3967 24.023 25.4297 23.9812 25.4588C23.9556 25.4764 23.9297 25.4923 23.9029 25.5069C23.89 25.5139 23.8764 25.5208 23.8627 25.5273C23.8382 25.539 23.813 25.5495 23.7872 25.5588C23.7743 25.5634 23.7614 25.5677 23.7484 25.5717C23.7167 25.5815 23.6841 25.5894 23.6508 25.5954C23.6434 25.5966 23.6365 25.5977 23.6297 25.5988C23.6029 25.603 23.5749 25.6059 23.5465 25.6074C23.5312 25.6082 23.5162 25.6086 23.5011 25.6086L23.4564 25.6052L23.3867 25.6009C23.3817 25.6002 23.3768 25.5995 23.3718 25.5988L23.5011 25.6086C23.4509 25.6086 23.401 25.6041 23.3521 25.5954C23.3182 25.5894 23.2857 25.5815 23.254 25.5718C23.2413 25.5678 23.2289 25.5637 23.2166 25.5593C23.1907 25.5501 23.1652 25.5395 23.1403 25.5277C23.1252 25.5206 23.1102 25.5129 23.0954 25.5048C23.0746 25.4933 23.0546 25.4812 23.0351 25.4682C23.0218 25.4594 23.0084 25.45 22.9954 25.4402C22.9632 25.416 22.9329 25.3897 22.9046 25.3614L22.9038 25.36L19.6233 22.0671C19.2948 21.7364 19.2959 21.202 19.6255 20.8735C19.9563 20.545 20.4895 20.545 20.818 20.8757L22.6565 22.723L22.6574 11.2187C22.6574 10.753 23.0354 10.375 23.5011 10.375Z" fill="white"/>
</svg>
