<svg width="23" height="23" viewBox="0 0 23 23" fill="none" xmlns="http://www.w3.org/2000/svg">
<mask id="path-1-inside-1_3554_6446" fill="white">
<path fill-rule="evenodd" clip-rule="evenodd" d="M13.5007 2.31641C16.6158 2.31641 18.4029 3.85835 18.4029 6.54457V19.894C18.4029 20.4542 18.1146 20.9583 17.6297 21.2403C17.1466 21.5231 16.5644 21.5287 16.0758 21.2531L10.6023 18.161L5.07835 21.2596C4.83958 21.3937 4.57784 21.4616 4.31519 21.4616C4.04427 21.4616 3.77335 21.3891 3.52723 21.244C3.04325 20.962 2.75488 20.4578 2.75488 19.8986V6.37651C2.75488 3.7959 4.54294 2.31641 7.6608 2.31641H13.5007ZM13.5007 3.69396H7.6608C5.31988 3.69396 4.13243 4.59579 4.13243 6.37651V19.8986C4.13243 19.9849 4.18203 20.0317 4.22335 20.0556C4.26468 20.0813 4.32988 20.0997 4.40519 20.0574L10.2662 16.7697C10.4756 16.653 10.7318 16.6521 10.9421 16.7706L16.7526 20.0528C16.8289 20.0969 16.8941 20.0767 16.9354 20.0519C16.9767 20.0271 17.0254 19.9803 17.0254 19.894L17.0251 6.43992C17.0181 5.6495 16.8652 3.69396 13.5007 3.69396ZM13.9037 8.49564C14.2839 8.49564 14.5925 8.80421 14.5925 9.18442C14.5925 9.56462 14.2839 9.87319 13.9037 9.87319H7.18307C6.80286 9.87319 6.49429 9.56462 6.49429 9.18442C6.49429 8.80421 6.80286 8.49564 7.18307 8.49564H13.9037Z"/>
</mask>
<path d="M17.6297 21.2403L16.6244 19.5113L16.6191 19.5144L17.6297 21.2403ZM16.0758 21.2531L15.0921 22.9945L15.0934 22.9952L16.0758 21.2531ZM10.6023 18.161L11.5861 16.4197L10.6058 15.8659L9.62389 16.4167L10.6023 18.161ZM5.07835 21.2596L4.09991 19.5153L4.0991 19.5157L5.07835 21.2596ZM3.52723 21.244L4.54297 19.5211L4.53395 19.5158L3.52723 21.244ZM4.22335 20.0556L5.27996 18.3575L5.25221 18.3402L5.22391 18.3239L4.22335 20.0556ZM4.40519 20.0574L3.42672 18.3131L3.42669 18.3131L4.40519 20.0574ZM10.2662 16.7697L9.29297 15.0224L9.28774 15.0254L10.2662 16.7697ZM10.9421 16.7706L11.9258 15.0292L11.9237 15.028L10.9421 16.7706ZM16.7526 20.0528L17.7539 18.3215L17.7451 18.3164L17.7363 18.3115L16.7526 20.0528ZM17.0254 19.894H19.0254V19.8939L17.0254 19.894ZM17.0251 6.43992L19.0251 6.43987V6.4311L19.025 6.42233L17.0251 6.43992ZM13.5007 4.31641C14.7535 4.31641 15.4541 4.62745 15.8137 4.93759C16.1305 5.21087 16.4029 5.67013 16.4029 6.54457H20.4029C20.4029 4.73278 19.7818 3.07796 18.4263 1.90871C17.1135 0.77633 15.363 0.316406 13.5007 0.316406V4.31641ZM16.4029 6.54457V19.894H20.4029V6.54457H16.4029ZM16.4029 19.894C16.4029 19.8278 16.4208 19.7504 16.4634 19.6762C16.506 19.6018 16.5649 19.5459 16.6244 19.5113L18.635 22.9693C19.7389 22.3274 20.4029 21.1628 20.4029 19.894H16.4029ZM16.6191 19.5144C16.6776 19.4801 16.7536 19.4569 16.8376 19.4562C16.9218 19.4555 16.9986 19.4774 17.0582 19.511L15.0934 22.9952C16.2031 23.621 17.5443 23.6079 18.6403 22.9662L16.6191 19.5144ZM17.0595 19.5118L11.5861 16.4197L9.61859 19.9023L15.0921 22.9945L17.0595 19.5118ZM9.62389 16.4167L4.09991 19.5153L6.0568 23.0039L11.5808 19.9053L9.62389 16.4167ZM4.0991 19.5157C4.15514 19.4842 4.23003 19.4616 4.31519 19.4616V23.4616C4.92565 23.4616 5.52401 23.3031 6.0576 23.0034L4.0991 19.5157ZM4.31519 19.4616C4.40468 19.4616 4.48407 19.4864 4.54296 19.5211L2.5115 22.9668C3.06264 23.2918 3.68386 23.4616 4.31519 23.4616V19.4616ZM4.53395 19.5158C4.59364 19.5506 4.65215 19.6064 4.69451 19.6803C4.73678 19.754 4.75488 19.8315 4.75488 19.8986H0.754883C0.754883 21.1666 1.41897 22.3304 2.52051 22.9721L4.53395 19.5158ZM4.75488 19.8986V6.37651H0.754883V19.8986H4.75488ZM4.75488 6.37651C4.75488 5.58298 5.00743 5.17304 5.31375 4.91955C5.67466 4.62087 6.3884 4.31641 7.6608 4.31641V0.316406C5.81534 0.316406 4.07612 0.751688 2.76354 1.83791C1.39637 2.96932 0.754883 4.58943 0.754883 6.37651H4.75488ZM7.6608 4.31641H13.5007V0.316406H7.6608V4.31641ZM13.5007 1.69396H7.6608V5.69396H13.5007V1.69396ZM7.6608 1.69396C6.28821 1.69396 4.89553 1.94899 3.80853 2.7752C2.62048 3.67821 2.13243 4.99996 2.13243 6.37651H6.13243C6.13243 6.15168 6.16983 6.04636 6.18414 6.01397C6.19358 5.99259 6.20036 5.98151 6.22902 5.95973C6.32097 5.88984 6.69247 5.69396 7.6608 5.69396V1.69396ZM2.13243 6.37651V19.8986H6.13243V6.37651H2.13243ZM2.13243 19.8986C2.13243 20.9282 2.79079 21.5377 3.2228 21.7873L5.22391 18.3239C5.385 18.4169 5.61508 18.5839 5.80918 18.8655C6.01872 19.1696 6.13243 19.5312 6.13243 19.8986H2.13243ZM3.16675 21.7537C3.66467 22.0635 4.52116 22.2856 5.38369 21.8017L3.42669 18.3131C3.732 18.1419 4.09377 18.0583 4.46456 18.0887C4.8128 18.1171 5.08879 18.2385 5.27996 18.3575L3.16675 21.7537ZM5.38366 21.8017L11.2447 18.514L9.28774 15.0254L3.42672 18.3131L5.38366 21.8017ZM11.2394 18.5169C10.8472 18.7354 10.363 18.7399 9.96052 18.5131L11.9237 15.028C11.1006 14.5644 10.104 14.5707 9.29297 15.0224L11.2394 18.5169ZM9.95846 18.512L15.769 21.7942L17.7363 18.3115L11.9258 15.0292L9.95846 18.512ZM15.7514 21.7842C16.6495 22.3035 17.5169 22.0354 17.9644 21.7669L15.9064 18.3369C16.0699 18.2388 16.3359 18.1154 16.6874 18.0854C17.0665 18.0531 17.4396 18.1398 17.7539 18.3215L15.7514 21.7842ZM17.9644 21.7669C18.3832 21.5156 19.0254 20.9105 19.0254 19.894H15.0254C15.0254 19.5344 15.1347 19.1776 15.3398 18.8746C15.5301 18.5937 15.7553 18.4276 15.9064 18.3369L17.9644 21.7669ZM19.0254 19.8939L19.0251 6.43987L15.0251 6.43997L15.0254 19.894L19.0254 19.8939ZM19.025 6.42233C19.0208 5.94476 18.9877 4.67673 18.0973 3.53836C17.1371 2.31065 15.5695 1.69396 13.5007 1.69396V5.69396C14.155 5.69396 14.5303 5.78987 14.7249 5.86796C14.9026 5.93928 14.9449 6.00047 14.9466 6.0027C14.9755 6.03971 15.0224 6.14466 15.0251 6.45751L19.025 6.42233ZM13.9037 10.4956C13.1793 10.4956 12.5925 9.90878 12.5925 9.18442H16.5925C16.5925 7.69964 15.3885 6.49564 13.9037 6.49564V10.4956ZM12.5925 9.18442C12.5925 8.46005 13.1793 7.87319 13.9037 7.87319V11.8732C15.3885 11.8732 16.5925 10.6692 16.5925 9.18442H12.5925ZM13.9037 7.87319H7.18307V11.8732H13.9037V7.87319ZM7.18307 7.87319C7.90743 7.87319 8.49429 8.46005 8.49429 9.18442H4.49429C4.49429 10.6692 5.69829 11.8732 7.18307 11.8732V7.87319ZM8.49429 9.18442C8.49429 9.90878 7.90743 10.4956 7.18307 10.4956V6.49564C5.69829 6.49564 4.49429 7.69964 4.49429 9.18442H8.49429ZM7.18307 10.4956H13.9037V6.49564H7.18307V10.4956Z" fill="#767474" mask="url(#path-1-inside-1_3554_6446)"/>
</svg>
