<svg width="243" height="242" viewBox="0 0 243 242" fill="none" xmlns="http://www.w3.org/2000/svg">
<path fill-rule="evenodd" clip-rule="evenodd" d="M60.9138 236.664V241.664H30.836C14.2674 241.664 0.835938 228.233 0.835938 211.664V182.086H5.83594V211.664C5.83594 225.471 17.0288 236.664 30.836 236.664H60.9138ZM237.164 182.086V211.664C237.164 225.471 225.971 236.664 212.164 236.664H183.086V241.664H212.164C228.732 241.664 242.164 228.232 242.164 211.664V182.086H237.164ZM242.164 59.9141H237.164V30.3362C237.164 16.5291 225.971 5.33618 212.164 5.33618H183.086V0.336182H212.164C228.732 0.336182 242.164 13.7676 242.164 30.3362V59.9141ZM5.83594 59.9141H0.835938V30.3362C0.835938 13.7677 14.2674 0.336182 30.8359 0.336182H60.9138V5.33618H30.8359C17.0288 5.33618 5.83594 16.5291 5.83594 30.3362V59.9141Z" fill="#0077B6"/>
</svg>
