<svg width="25" height="20" viewBox="0 0 25 20" fill="none" xmlns="http://www.w3.org/2000/svg">
<path d="M22.4189 10.9541H21.6689V11.7041V15.6592C21.6689 17.6261 20.0331 19.25 17.9934 19.25H16.2234C16.1559 19.25 16.1267 19.2005 16.1267 19.1698C16.1267 19.1408 16.1552 19.0906 16.2234 19.0906H17.9934C19.9012 19.0906 21.4778 17.5671 21.4778 15.6592V11.7041V10.9541H20.7278H17.8134H17.0634V11.7041L17.0633 12.8057L17.0634 12.8117C17.0711 13.7619 16.2909 14.5626 15.2874 14.5737H9.15714C8.15489 14.5626 7.37455 13.7621 7.38221 12.8117H7.38224V12.8057V11.7041V10.9541H6.63224H3.71779H2.96779V11.7041V15.6636C2.96779 17.566 4.54079 19.0868 6.44337 19.0896H6.44401L8.2529 19.0906H8.25335C8.31908 19.0906 8.34834 19.1392 8.3489 19.1689C8.34825 19.2026 8.3175 19.2499 8.25244 19.25C8.25237 19.25 8.25231 19.25 8.25224 19.25L6.44291 19.249C4.40848 19.2471 2.77556 17.6242 2.77556 15.6636V11.7041V10.9541H2.02556H0.846668C0.814922 10.9541 0.78981 10.9422 0.772472 10.9253C0.755525 10.9087 0.75 10.892 0.75 10.8761C0.75 10.846 0.779649 10.7958 0.846668 10.7958H23.5989C23.6647 10.7958 23.6945 10.8447 23.6945 10.8761C23.6945 10.9044 23.6666 10.9541 23.5989 10.9541H22.4189ZM17.0639 6.67524V6.67649V7.60876H7.38269V6.67649H7.38272L7.38266 6.66989C7.37432 5.72106 8.15434 4.92046 9.158 4.90852H15.2917C15.768 4.90852 16.2211 5.09628 16.5479 5.42415C16.8811 5.75953 17.0647 6.2084 17.0639 6.67524ZM8.25302 0.909397L8.25257 0.909397L6.44256 0.910487L6.44193 0.910488C4.53985 0.913247 2.96856 2.43468 2.96856 4.33644V6.40224C2.96856 6.41845 2.96277 6.43617 2.94512 6.45347C2.92724 6.47101 2.9023 6.48249 2.8719 6.48249C2.80682 6.48249 2.77634 6.43313 2.77634 6.40224V4.33644C2.77634 2.37571 4.40827 0.753027 6.44235 0.751089C6.44243 0.751089 6.4425 0.751089 6.44257 0.751089L8.25302 0.75C8.25306 0.75 8.25311 0.75 8.25315 0.75C8.31878 0.750068 8.34857 0.798923 8.34857 0.830243C8.34857 0.860497 8.31985 0.909397 8.25302 0.909397ZM17.9929 0.750327C20.0337 0.750327 21.6685 2.37428 21.6685 4.34004V6.40257C21.6685 6.43409 21.6385 6.48282 21.5729 6.48282C21.5079 6.48282 21.4774 6.43346 21.4774 6.40257V4.34004C21.4774 2.43351 19.901 0.908635 17.9929 0.908635H16.2229C16.1553 0.908635 16.1274 0.858916 16.1274 0.83057C16.1274 0.799229 16.1572 0.750327 16.2229 0.750327H17.9929Z" stroke="#252525" stroke-width="1.5"/>
</svg>
