<svg width="24" height="24" viewBox="0 0 24 24" fill="none" xmlns="http://www.w3.org/2000/svg">
<path d="M23.3599 19.8549L18.5419 15.0798C19.646 13.2892 20.2483 11.1006 19.9472 8.81251C19.4453 4.53481 15.8318 1.05297 11.4152 0.655045C5.19193 0.0581574 0.072764 5.52963 1.07652 11.6975C1.77915 15.6767 4.99118 18.7606 9.0062 19.3575C11.3148 19.656 13.5231 19.1586 15.3299 18.1638L20.1479 22.9389C21.0513 23.8342 22.4566 23.8342 23.2596 22.9389C24.1629 22.143 24.1629 20.7503 23.3599 19.8549ZM4.69005 11.399C3.68629 7.12133 7.50057 3.34104 11.9171 4.23637C14.1254 4.73378 15.8318 6.52444 16.3336 8.61355C17.3374 12.8912 13.5231 16.6715 9.20696 15.6767C6.89831 15.3783 5.19193 13.5876 4.69005 11.399Z" fill="#333333"/>
</svg>
