<svg width="23" height="23" viewBox="0 0 23 23" fill="none" xmlns="http://www.w3.org/2000/svg">
<path d="M18.8607 18.7119L18.8972 18.7482L18.9372 18.7806L21.8751 21.152L21.9342 21.1997C22.0458 21.406 22.0155 21.6721 21.8433 21.8461C21.6458 22.0457 21.3332 22.0511 21.1295 21.8623L18.7173 19.0978L18.7173 19.0978L18.7122 19.092L18.6458 19.0171C18.6191 18.9777 18.6038 18.9296 18.6038 18.8788C18.6038 18.8138 18.6289 18.7534 18.6707 18.7098C18.7252 18.6578 18.8068 18.6585 18.8607 18.7119ZM9.86429 1C12.2118 1 14.4653 1.94247 16.1285 3.62358C17.7921 5.30506 18.7286 7.58788 18.7286 9.97041C18.7286 14.9348 14.7498 18.9408 9.86429 18.9408C4.97874 18.9408 1 14.9348 1 9.97041C1 5.00607 4.97874 1 9.86429 1Z" stroke="#252525" stroke-width="2"/>
</svg>
