<svg width="35" height="35" viewBox="0 0 35 35" fill="none" xmlns="http://www.w3.org/2000/svg">
<path fill-rule="evenodd" clip-rule="evenodd" d="M14.5529 18.2033L12.5438 26.6683C12.4556 27.039 12.6789 27.2571 12.7804 27.3339C12.8819 27.4107 13.1511 27.5704 13.4892 27.3877L31.1589 17.7911C31.4705 17.6207 31.505 17.3268 31.505 17.2103C31.5067 17.0955 31.4697 16.8095 31.1695 16.6418L13.5316 6.99399C13.197 6.81127 12.9234 6.97192 12.8219 7.04872C12.7186 7.12727 12.49 7.34883 12.5747 7.72133L14.559 16.3311L23.9685 16.2817C24.4849 16.279 24.9068 16.6957 24.9104 17.2129C24.9139 17.7302 24.4955 18.1521 23.9791 18.1548L14.5529 18.2033ZM11.3822 28.5944C10.7679 27.98 10.5172 27.1044 10.722 26.2358L12.8528 17.2606L10.7511 8.14149C10.5251 7.15817 10.8835 6.16779 11.6903 5.55697C12.4962 4.94526 13.5457 4.86846 14.4293 5.3513L32.0672 14.9991C32.8784 15.4431 33.3772 16.2896 33.3789 17.2129C33.3763 18.1406 32.8687 18.9924 32.0513 19.4355L14.3825 29.0313C13.4945 29.515 12.445 29.4347 11.6435 28.8221C11.5499 28.7497 11.4634 28.6756 11.3822 28.5944Z" fill="#252525"/>
</svg>
