<svg width="24" height="24" viewBox="0 0 24 24" fill="none" xmlns="http://www.w3.org/2000/svg">
<path d="M23.6497 13.7176V10.6203C22.0674 10.0577 21.0679 9.89961 20.5648 8.6854V8.68445C20.0597 7.4664 20.6606 6.63936 21.3765 5.1319L19.1867 2.94211C17.6907 3.6532 16.8551 4.25982 15.6342 3.75382H15.6332C14.4171 3.24974 14.258 2.24349 13.6983 0.668945H10.601C10.0432 2.23582 9.8832 3.24878 8.66612 3.75382H8.66516C7.44712 4.25982 6.62199 3.6599 5.11262 2.94211L2.92282 5.1319C3.63678 6.63457 4.24053 7.46449 3.73453 8.68445C3.22949 9.90249 2.21653 10.0625 0.649658 10.6203V13.7176C2.21366 14.2734 3.22949 14.4354 3.73453 15.6525C4.24245 16.8811 3.62528 17.7282 2.92282 19.205L5.11262 21.3958C6.60953 20.6837 7.4452 20.0781 8.66516 20.5841H8.66612C9.8832 21.0882 10.0423 22.0973 10.601 23.6689H13.6983C14.2561 22.1011 14.4171 21.091 15.6409 20.5812H15.6418C16.8512 20.079 17.6735 20.678 19.1857 21.3967L21.3755 19.206C20.6625 17.7081 20.0578 16.8744 20.5629 15.6544C21.0679 14.4364 22.0847 14.2744 23.6497 13.7176ZM12.1497 16.0023C10.0327 16.0023 8.31632 14.2859 8.31632 12.1689C8.31632 10.052 10.0327 8.33561 12.1497 8.33561C14.2666 8.33561 15.983 10.052 15.983 12.1689C15.983 14.2859 14.2666 16.0023 12.1497 16.0023Z" fill="#333333"/>
</svg>
