<svg width="25" height="25" viewBox="0 0 25 25" fill="none" xmlns="http://www.w3.org/2000/svg">
<g clip-path="url(#clip0_369_9836)">
<path d="M12.3584 15.3223C14.0153 15.3223 15.3584 13.9791 15.3584 12.3223C15.3584 10.6654 14.0153 9.32227 12.3584 9.32227C10.7015 9.32227 9.3584 10.6654 9.3584 12.3223C9.3584 13.9791 10.7015 15.3223 12.3584 15.3223Z" stroke="black" stroke-width="2" stroke-linecap="round" stroke-linejoin="round"/>
<path d="M19.7584 15.3223C19.6253 15.6239 19.5856 15.9585 19.6444 16.2829C19.7032 16.6072 19.8579 16.9066 20.0884 17.1423L20.1484 17.2023C20.3344 17.388 20.4819 17.6086 20.5825 17.8514C20.6832 18.0942 20.735 18.3544 20.735 18.6173C20.735 18.8801 20.6832 19.1404 20.5825 19.3831C20.4819 19.6259 20.3344 19.8465 20.1484 20.0323C19.9627 20.2182 19.7421 20.3657 19.4993 20.4664C19.2565 20.567 18.9962 20.6188 18.7334 20.6188C18.4706 20.6188 18.2103 20.567 17.9675 20.4664C17.7247 20.3657 17.5041 20.2182 17.3184 20.0323L17.2584 19.9723C17.0227 19.7417 16.7234 19.5871 16.399 19.5283C16.0746 19.4694 15.74 19.5092 15.4384 19.6423C15.1426 19.769 14.8904 19.9795 14.7127 20.2478C14.535 20.5161 14.4397 20.8305 14.4384 21.1523V21.3223C14.4384 21.8527 14.2277 22.3614 13.8526 22.7365C13.4775 23.1116 12.9688 23.3223 12.4384 23.3223C11.908 23.3223 11.3993 23.1116 11.0242 22.7365C10.6491 22.3614 10.4384 21.8527 10.4384 21.3223V21.2323C10.4307 20.9013 10.3235 20.5803 10.1309 20.311C9.9383 20.0417 9.66913 19.8365 9.3584 19.7223C9.05678 19.5892 8.72221 19.5494 8.39781 19.6083C8.07341 19.6671 7.77408 19.8217 7.5384 20.0523L7.4784 20.1123C7.29265 20.2982 7.07208 20.4457 6.82928 20.5464C6.58648 20.647 6.32623 20.6988 6.0634 20.6988C5.80057 20.6988 5.54031 20.647 5.29752 20.5464C5.05472 20.4457 4.83414 20.2982 4.6484 20.1123C4.46245 19.9265 4.31493 19.7059 4.21428 19.4631C4.11363 19.2204 4.06183 18.9601 4.06183 18.6973C4.06183 18.4344 4.11363 18.1742 4.21428 17.9314C4.31493 17.6886 4.46245 17.468 4.6484 17.2823L4.7084 17.2223C4.93894 16.9866 5.09358 16.6872 5.1524 16.3629C5.21122 16.0385 5.17151 15.7039 5.0384 15.4023C4.91164 15.1065 4.70115 14.8542 4.43286 14.6766C4.16457 14.4989 3.85019 14.4035 3.5284 14.4023H3.3584C2.82797 14.4023 2.31926 14.1916 1.94418 13.8165C1.56911 13.4414 1.3584 12.9327 1.3584 12.4023C1.3584 11.8718 1.56911 11.3631 1.94418 10.9881C2.31926 10.613 2.82797 10.4023 3.3584 10.4023H3.4484C3.77939 10.3945 4.1004 10.2874 4.3697 10.0948C4.63899 9.90217 4.84411 9.633 4.9584 9.32227C5.09151 9.02065 5.13122 8.68607 5.0724 8.36168C5.01358 8.03728 4.85894 7.73794 4.6284 7.50227L4.5684 7.44227C4.38245 7.25652 4.23493 7.03594 4.13428 6.79315C4.03363 6.55035 3.98183 6.2901 3.98183 6.02727C3.98183 5.76443 4.03363 5.50418 4.13428 5.26138C4.23493 5.01859 4.38245 4.79801 4.5684 4.61227C4.75414 4.42631 4.97472 4.27879 5.21752 4.17815C5.46031 4.0775 5.72057 4.02569 5.9834 4.02569C6.24623 4.02569 6.50648 4.0775 6.74928 4.17815C6.99208 4.27879 7.21265 4.42631 7.3984 4.61227L7.4584 4.67227C7.69408 4.9028 7.99341 5.05745 8.31781 5.11627C8.6422 5.17509 8.97678 5.13538 9.2784 5.00227H9.3584C9.65417 4.8755 9.90642 4.66502 10.0841 4.39673C10.2618 4.12844 10.3571 3.81405 10.3584 3.49227V3.32227C10.3584 2.79183 10.5691 2.28312 10.9442 1.90805C11.3193 1.53298 11.828 1.32227 12.3584 1.32227C12.8888 1.32227 13.3975 1.53298 13.7726 1.90805C14.1477 2.28312 14.3584 2.79183 14.3584 3.32227V3.41227C14.3597 3.73405 14.455 4.04844 14.6327 4.31673C14.8104 4.58502 15.0626 4.7955 15.3584 4.92227C15.66 5.05538 15.9946 5.09509 16.319 5.03627C16.6434 4.97745 16.9427 4.8228 17.1784 4.59227L17.2384 4.53227C17.4241 4.34631 17.6447 4.19879 17.8875 4.09815C18.1303 3.9975 18.3906 3.94569 18.6534 3.94569C18.9162 3.94569 19.1765 3.9975 19.4193 4.09815C19.6621 4.19879 19.8827 4.34631 20.0684 4.53227C20.2544 4.71801 20.4019 4.93859 20.5025 5.18139C20.6032 5.42418 20.655 5.68443 20.655 5.94727C20.655 6.2101 20.6032 6.47035 20.5025 6.71315C20.4019 6.95594 20.2544 7.17652 20.0684 7.36227L20.0084 7.42227C19.7779 7.65794 19.6232 7.95728 19.5644 8.28168C19.5056 8.60607 19.5453 8.94065 19.6784 9.24227V9.32227C19.8052 9.61803 20.0156 9.87028 20.2839 10.048C20.5522 10.2256 20.8666 10.321 21.1884 10.3223H21.3584C21.8888 10.3223 22.3975 10.533 22.7726 10.9081C23.1477 11.2831 23.3584 11.7918 23.3584 12.3223C23.3584 12.8527 23.1477 13.3614 22.7726 13.7365C22.3975 14.1116 21.8888 14.3223 21.3584 14.3223H21.2684C20.9466 14.3235 20.6322 14.4189 20.3639 14.5966C20.0956 14.7742 19.8852 15.0265 19.7584 15.3223V15.3223Z" stroke="black" stroke-width="2" stroke-linecap="round" stroke-linejoin="round"/>
</g>
<defs>
<clipPath id="clip0_369_9836">
<rect width="24" height="24" fill="white" transform="translate(0.358398 0.322266)"/>
</clipPath>
</defs>
</svg>
