<svg width="26" height="28" viewBox="0 0 26 28" fill="none" xmlns="http://www.w3.org/2000/svg">
<path fill-rule="evenodd" clip-rule="evenodd" d="M13.5976 0C14.5458 0 15.4676 0.389361 16.1284 1.06611C16.788 1.74683 17.1522 2.6805 17.1244 3.62741C17.127 3.84064 17.1972 4.08697 17.3243 4.30284C17.5349 4.66041 17.8673 4.91204 18.262 5.01534C18.6566 5.11334 19.0698 5.06037 19.4208 4.85244C21.116 3.88434 23.2733 4.46441 24.2415 6.14634L25.0665 7.57532C25.0877 7.61373 25.1063 7.65081 25.1222 7.68922C25.9989 9.34599 25.4135 11.4318 23.7846 12.3841C23.5475 12.5205 23.3555 12.7112 23.223 12.9416C23.0177 13.2979 22.9608 13.7217 23.0641 14.111C23.17 14.5083 23.423 14.8381 23.7793 15.042C24.5831 15.5042 25.1831 16.283 25.4228 17.1822C25.6625 18.0801 25.5314 19.0548 25.0639 19.8587L24.1845 21.3235C23.2164 22.9869 21.059 23.563 19.3811 22.5935C19.1572 22.4651 18.899 22.3949 18.6421 22.3883H18.6341C18.2514 22.3883 17.8581 22.5511 17.572 22.8359C17.282 23.1259 17.123 23.5126 17.1257 23.9232C17.1164 25.8687 15.5338 27.442 13.5976 27.442H11.9382C9.9927 27.442 8.41009 25.8607 8.41009 23.9152C8.40744 23.6755 8.33858 23.4265 8.21011 23.2107C8.00219 22.8478 7.6658 22.5882 7.27777 22.4849C6.89238 22.3816 6.46991 22.4386 6.12293 22.6399C5.29123 23.1034 4.31253 23.216 3.41726 22.9643C2.52332 22.7114 1.75122 22.0969 1.29829 21.2824L0.47057 19.8561C-0.497535 18.1768 0.0785605 16.0247 1.7552 15.0553C2.23064 14.7811 2.52597 14.2699 2.52597 13.7217C2.52597 13.1734 2.23064 12.6609 1.7552 12.3867C0.0772363 11.412 -0.497535 9.25461 0.469246 7.57532L1.36716 6.10131C2.32202 4.44057 4.48072 3.8552 6.16398 4.82198C6.3931 4.95839 6.64207 5.02726 6.89503 5.02991C7.7201 5.02991 8.41009 4.34919 8.42333 3.51219C8.41804 2.58912 8.78223 1.70312 9.44574 1.03432C10.1119 0.366847 10.9966 0 11.9382 0H13.5976ZM13.5976 1.98654H11.9382C11.5276 1.98654 11.1436 2.14678 10.8535 2.43549C10.5648 2.72553 10.4072 3.11091 10.4099 3.52146C10.3821 5.45767 8.79945 7.01644 6.88311 7.01644C6.26861 7.00982 5.67662 6.84428 5.16277 6.53703C4.44099 6.12647 3.49805 6.37943 3.07558 7.11445L2.17899 8.58845C1.76844 9.30096 2.02007 10.2426 2.75111 10.6677C3.83576 11.2954 4.51251 12.4662 4.51251 13.7217C4.51251 14.9772 3.83576 16.1466 2.74846 16.7756C2.02139 17.1968 1.76976 18.1331 2.19091 18.8615L3.02658 20.3024C3.23318 20.6745 3.57089 20.9434 3.96158 21.0533C4.35094 21.1619 4.78003 21.1155 5.1376 20.9169C5.66337 20.6083 6.27523 20.4481 6.88973 20.4481C7.19301 20.4481 7.49628 20.4865 7.79294 20.5659C8.68821 20.807 9.4656 21.4056 9.92648 22.2095C10.2258 22.714 10.3913 23.3034 10.3966 23.9046C10.3966 24.7655 11.0879 25.4555 11.9382 25.4555H13.5976C14.4439 25.4555 15.1352 24.7694 15.1391 23.9232C15.1339 22.9882 15.4994 22.0995 16.1682 21.4307C16.8277 20.7712 17.7495 20.3752 18.6712 20.4017C19.2751 20.4163 19.8565 20.5792 20.369 20.8705C21.1067 21.293 22.0483 21.0414 22.4748 20.313L23.3541 18.8469C23.5501 18.5092 23.6071 18.0854 23.5025 17.6947C23.3992 17.304 23.1396 16.965 22.79 16.765C21.9715 16.2936 21.3875 15.5334 21.1451 14.6222C20.9054 13.7283 21.0365 12.7522 21.504 11.9483C21.8086 11.4186 22.2549 10.9723 22.79 10.665C23.5078 10.2452 23.7594 9.30626 23.3422 8.57521C23.325 8.54608 23.3091 8.51562 23.2959 8.48383L22.5198 7.13828C22.0973 6.40327 21.157 6.15031 20.4194 6.57014C19.6221 7.04161 18.6739 7.17669 17.7627 6.93698C16.8529 6.70125 16.09 6.12515 15.6146 5.312C15.31 4.80344 15.1444 4.21146 15.1391 3.60887C15.1511 3.15594 14.9921 2.74937 14.7034 2.45138C14.416 2.15473 14.0121 1.98654 13.5976 1.98654ZM12.7737 9.2362C15.2463 9.2362 17.258 11.2492 17.258 13.7218C17.258 16.1944 15.2463 18.2047 12.7737 18.2047C10.3011 18.2047 8.28944 16.1944 8.28944 13.7218C8.28944 11.2492 10.3011 9.2362 12.7737 9.2362ZM12.7737 11.2227C11.3964 11.2227 10.276 12.3445 10.276 13.7218C10.276 15.0991 11.3964 16.2182 12.7737 16.2182C14.151 16.2182 15.2715 15.0991 15.2715 13.7218C15.2715 12.3445 14.151 11.2227 12.7737 11.2227Z" fill="black"/>
</svg>
