<svg width="25" height="25" viewBox="0 0 25 25" fill="none" xmlns="http://www.w3.org/2000/svg">
<path d="M18.75 8.33301C20.4759 8.33301 21.875 6.9339 21.875 5.20801C21.875 3.48212 20.4759 2.08301 18.75 2.08301C17.0241 2.08301 15.625 3.48212 15.625 5.20801C15.625 6.9339 17.0241 8.33301 18.75 8.33301Z" stroke="white" stroke-width="2" stroke-linecap="round" stroke-linejoin="round"/>
<path d="M6.25 15.625C7.97589 15.625 9.375 14.2259 9.375 12.5C9.375 10.7741 7.97589 9.375 6.25 9.375C4.52411 9.375 3.125 10.7741 3.125 12.5C3.125 14.2259 4.52411 15.625 6.25 15.625Z" stroke="white" stroke-width="2" stroke-linecap="round" stroke-linejoin="round"/>
<path d="M18.75 22.917C20.4759 22.917 21.875 21.5179 21.875 19.792C21.875 18.0661 20.4759 16.667 18.75 16.667C17.0241 16.667 15.625 18.0661 15.625 19.792C15.625 21.5179 17.0241 22.917 18.75 22.917Z" stroke="white" stroke-width="2" stroke-linecap="round" stroke-linejoin="round"/>
<path d="M8.94788 14.0732L16.0625 18.2191" stroke="white" stroke-width="2" stroke-linecap="round" stroke-linejoin="round"/>
<path d="M16.052 6.78125L8.94788 10.9271" stroke="white" stroke-width="2" stroke-linecap="round" stroke-linejoin="round"/>
</svg>
