<svg width="32" height="31" viewBox="0 0 32 31" fill="none" xmlns="http://www.w3.org/2000/svg">
<path d="M23.4201 10.4942C25.5298 10.4942 27.2401 8.78398 27.2401 6.67425C27.2401 4.56452 25.5298 2.85425 23.4201 2.85425C21.3104 2.85425 19.6001 4.56452 19.6001 6.67425C19.6001 8.78398 21.3104 10.4942 23.4201 10.4942Z" stroke="#252525" stroke-width="2" stroke-linecap="round" stroke-linejoin="round"/>
<path d="M8.14007 19.4076C10.2498 19.4076 11.9601 17.6973 11.9601 15.5876C11.9601 13.4779 10.2498 11.7676 8.14007 11.7676C6.03034 11.7676 4.32007 13.4779 4.32007 15.5876C4.32007 17.6973 6.03034 19.4076 8.14007 19.4076Z" stroke="#252525" stroke-width="2" stroke-linecap="round" stroke-linejoin="round"/>
<path d="M23.4201 28.3209C25.5298 28.3209 27.2401 26.6106 27.2401 24.5009C27.2401 22.3912 25.5298 20.6809 23.4201 20.6809C21.3104 20.6809 19.6001 22.3912 19.6001 24.5009C19.6001 26.6106 21.3104 28.3209 23.4201 28.3209Z" stroke="#252525" stroke-width="2" stroke-linecap="round" stroke-linejoin="round"/>
<path d="M11.438 17.5103L20.1349 22.5781" stroke="#252525" stroke-width="2" stroke-linecap="round" stroke-linejoin="round"/>
<path d="M20.1221 8.59692L11.438 13.6648" stroke="#252525" stroke-width="2" stroke-linecap="round" stroke-linejoin="round"/>
</svg>
