<svg width="14" height="21" viewBox="0 0 14 21" fill="none" xmlns="http://www.w3.org/2000/svg">
<path d="M1.61654 10.3145C1.22536 10.1116 0.999994 9.72485 0.999994 9.33279L0.999994 9.29148C1.00024 9.28879 1.0006 9.28531 1.0011 9.28101C1.00262 9.26806 1.00516 9.25047 1.00916 9.22793C1.0173 9.18215 1.02985 9.12521 1.04725 9.058C1.08227 8.92274 1.13044 8.77055 1.18219 8.62254C1.20354 8.56147 1.22486 8.50294 1.24519 8.44877L1.3976 8.08553C1.73466 7.28224 2.46212 6.0191 3.31675 4.76109C4.1742 3.49894 5.09142 2.34289 5.77779 1.7156L5.79206 1.70256L5.8058 1.68899L5.85544 1.63995C5.856 1.63941 5.85656 1.63886 5.85713 1.63831C5.91044 1.58619 5.99931 1.50071 6.09441 1.41484C6.19826 1.32108 6.27923 1.25453 6.32187 1.22477L6.33727 1.21402L6.35225 1.2027C6.52139 1.07497 6.74747 0.99999 6.991 0.99999C7.25814 0.99999 7.48891 1.07537 7.67576 1.20635C7.69544 1.22464 7.71515 1.24265 7.73221 1.25824C7.75046 1.2749 7.76834 1.29119 7.78689 1.30808C7.81429 1.33303 7.84314 1.3593 7.87672 1.39004C7.98473 1.48891 8.10473 1.60039 8.20986 1.7045L8.22248 1.717L8.23554 1.72905C8.89931 2.34127 9.8347 3.51271 10.715 4.80408C11.5945 6.09431 12.3449 7.39546 12.6787 8.23579L12.6819 8.24382L12.6852 8.25179C12.7315 8.36267 12.8138 8.58387 12.8855 8.81909C12.9577 9.05644 12.9923 9.22259 12.9997 9.2942C12.9957 9.48515 12.9517 9.6694 12.8618 9.85531C12.7341 10.0715 12.5391 10.2439 12.3177 10.3411C12.2886 10.3513 12.2224 10.3717 12.114 10.4003C11.9996 10.4304 11.8676 10.4619 11.7388 10.4911C11.6109 10.5201 11.4913 10.5457 11.4035 10.5638C11.3697 10.5708 11.3415 10.5765 11.3201 10.5807L11.2669 10.5905C10.3537 10.7584 8.79371 10.8591 7.00771 10.8591C5.3518 10.8591 3.86446 10.7635 2.90662 10.6259C2.8818 10.6202 2.85612 10.6148 2.83572 10.6106L2.8305 10.6096L2.54091 10.5516C2.54048 10.5515 2.54005 10.5514 2.53962 10.5513C2.3585 10.5145 2.14608 10.469 1.95424 10.4193C1.85827 10.3944 1.7756 10.3706 1.70958 10.3487C1.65103 10.3294 1.62309 10.3172 1.6172 10.3147C1.61585 10.3141 1.61566 10.314 1.61654 10.3145ZM1.61654 10.3145C1.61662 10.3145 1.6167 10.3145 1.61678 10.3146L1.15659 11.2024M1.61654 10.3145L1.15659 11.2024M1.15659 11.2024C1.40774 11.3325 1.96852 11.4557 2.34182 11.5316L-5.64984e-06 9.26534L-5.65574e-06 9.33279C-5.7235e-06 10.1079 0.442072 10.832 1.15659 11.2024ZM6.60639 15.0185L6.61028 14.9746L6.61028 14.9304C6.61028 14.732 6.77539 14.5546 6.99948 14.5546C7.22425 14.5546 7.38869 14.7314 7.38869 14.9304L7.38869 14.9746L7.39258 15.0185L7.76954 19.281C7.75103 19.6729 7.42187 20 6.99948 20C6.57709 20 6.24794 19.6729 6.22942 19.281L6.60639 15.0185Z" stroke="#767474" stroke-width="2"/>
</svg>
