<svg width="14" height="21" viewBox="0 0 14 21" fill="none" xmlns="http://www.w3.org/2000/svg">
<path d="M12.3835 10.6855C12.7746 10.8884 13 11.2751 13 11.6672V11.7085C12.9998 11.7112 12.9994 11.7147 12.9989 11.719C12.9974 11.7319 12.9948 11.7495 12.9908 11.7721C12.9827 11.8179 12.9701 11.8748 12.9527 11.942C12.9177 12.0773 12.8696 12.2294 12.8178 12.3775C12.7965 12.4385 12.7751 12.4971 12.7548 12.5512L12.6024 12.9145C12.2653 13.7178 11.5379 14.9809 10.6832 16.2389C9.8258 17.5011 8.90858 18.6571 8.22221 19.2844L8.20795 19.2974L8.1942 19.311L8.14456 19.36C8.144 19.3606 8.14344 19.3611 8.14288 19.3617C8.08956 19.4138 8.0007 19.4993 7.90559 19.5852C7.80174 19.6789 7.72077 19.7455 7.67813 19.7752L7.66273 19.786L7.64775 19.7973C7.47861 19.925 7.25253 20 7.009 20C6.74186 20 6.51109 19.9246 6.32424 19.7936C6.30456 19.7754 6.28485 19.7573 6.26779 19.7418C6.24954 19.7251 6.23166 19.7088 6.21311 19.6919C6.18571 19.667 6.15686 19.6407 6.12328 19.61C6.01527 19.5111 5.89528 19.3996 5.79014 19.2955L5.77752 19.283L5.76446 19.271C5.1007 18.6587 4.16531 17.4873 3.28503 16.1959C2.40552 14.9057 1.65512 13.6045 1.32132 12.7642L1.31814 12.7562L1.31481 12.7482C1.26853 12.6373 1.18617 12.4161 1.11454 12.1809C1.04227 11.9436 1.00773 11.7774 1.0003 11.7058C1.00431 11.5148 1.04826 11.3306 1.13818 11.1447C1.26589 10.9285 1.46086 10.7561 1.6823 10.6589C1.71139 10.6487 1.77756 10.6283 1.88602 10.5997C2.00039 10.5696 2.1324 10.5381 2.26116 10.5089C2.3891 10.4799 2.50873 10.4543 2.59655 10.4362C2.63033 10.4292 2.65848 10.4235 2.67989 10.4193L2.73307 10.4095C3.64634 10.2416 5.20629 10.1409 6.99229 10.1409C8.6482 10.1409 10.1355 10.2365 11.0934 10.3741C11.1182 10.3798 11.1439 10.3852 11.1643 10.3894L11.1695 10.3904L11.4591 10.4484C11.4595 10.4485 11.4599 10.4486 11.4604 10.4487C11.6415 10.4855 11.8539 10.531 12.0458 10.5807C12.1417 10.6056 12.2244 10.6294 12.2904 10.6513C12.349 10.6706 12.3769 10.6828 12.3828 10.6853C12.3842 10.6859 12.3843 10.686 12.3835 10.6855ZM12.3835 10.6855C12.3834 10.6855 12.3833 10.6855 12.3832 10.6854L12.8434 9.7976M12.3835 10.6855L12.8434 9.7976M12.8434 9.7976C12.5923 9.66751 12.0315 9.54425 11.6582 9.46841L14 11.7347V11.6672C14 10.8921 13.5579 10.168 12.8434 9.7976ZM7.39361 5.98147L7.38972 6.02543V6.06957C7.38972 6.26797 7.22461 6.44537 7.00052 6.44537C6.77575 6.44537 6.61131 6.26857 6.61131 6.06957V6.02543L6.60742 5.98147L6.23046 1.71896C6.24897 1.32709 6.57813 1 7.00052 1C7.42291 1 7.75206 1.32709 7.77058 1.71896L7.39361 5.98147Z" stroke="#767474" stroke-width="2"/>
</svg>
