<svg width="24" height="20" viewBox="0 0 24 20" fill="none" xmlns="http://www.w3.org/2000/svg">
<path d="M3.662 6.41047C2.094 6.88647 1.094 6.72047 0 5.62647V12.7305C1.032 11.6315 2.093 11.2925 3.662 11.7695L24 17.7305V0.730469L3.662 6.41047ZM15 17.1495L13.038 19.2965C12.674 19.6715 12.131 19.8175 11.626 19.6775L7.676 18.5975C7.186 18.4615 6.807 18.0775 6.68 17.5885L6 14.5425L8.131 15.1595L8.365 16.4885C8.45 16.8115 8.701 17.0665 9.024 17.1565L11.166 17.7355C11.501 17.8295 11.862 17.7335 12.103 17.4835L12.898 16.5395L15 17.1495Z" fill="#333333"/>
</svg>
