<svg width="300" height="300" viewBox="0 0 300 300" fill="none" xmlns="http://www.w3.org/2000/svg">
<rect width="300" height="300" fill="white"/>
<path fill-rule="evenodd" clip-rule="evenodd" d="M28.7238 133.219C36.068 87.0829 172.742 29.0137 244.628 65.4877C316.514 101.962 223.289 134.972 230.147 210.879C234.905 263.539 154.351 267.072 90.3678 239.025C51.5953 222.029 23.3611 166.906 28.7238 133.219Z" fill="#87FF8C"/>
<rect x="74" y="50" width="148" height="219" fill="white"/>
<path fill-rule="evenodd" clip-rule="evenodd" d="M82.6832 59.5315C84.3266 67.4035 84.3336 75.5129 84.3339 83.5546C84.3355 125.124 84.337 166.694 84.3386 208.264C84.3386 208.932 84.323 209.651 83.9281 210.191C83.5332 210.73 82.6056 210.914 82.2207 210.367C82.0345 210.103 82.0269 209.756 82.0263 209.433C81.9381 166.035 81.85 122.638 81.7619 79.2401C81.7485 72.6572 81.737 66.0461 82.6832 59.5315H82.6832Z" fill="#00160A"/>
<path fill-rule="evenodd" clip-rule="evenodd" d="M83.5428 55.9237C87.9526 56.9413 91.6427 61.2921 96.0898 60.4523C99.775 59.7564 101.973 55.738 105.524 54.5302C112.25 52.2422 120.004 60.8808 125.948 56.9902C127.027 56.2844 127.857 55.2279 128.994 54.6211C133.855 52.027 140.142 59.0054 144.836 56.1215C145.925 55.4527 146.68 54.343 147.745 53.638C152.322 50.6089 157.967 56.595 163.442 56.2055C168.443 55.8497 172.641 50.1679 177.411 51.7112C179.389 52.3509 180.826 54.1439 182.8 54.7949C187.095 56.2119 191.743 51.7342 196.01 53.2354C197.423 53.7325 198.582 54.8446 200.039 55.1943C201.847 55.6285 203.701 54.805 205.343 53.9324C206.986 53.0597 208.712 52.0865 210.568 52.2027C212.425 52.3189 214.292 54.1058 213.711 55.873C212.366 59.9689 212.206 64.3454 212.057 68.6541C210.472 114.632 208.888 160.61 207.303 206.588C206.22 206.526 205.932 205.076 205.957 203.992C207.084 154.86 208.21 105.728 209.337 56.5956C207.187 55.3828 204.891 58.0758 202.451 58.4522C199.899 58.8459 197.72 56.6478 195.22 55.9994C190.487 54.7716 185.148 59.185 180.889 56.781C179.446 55.9661 178.427 54.4653 176.873 53.8862C172.534 52.2685 169.295 58.5813 164.764 59.5378C159.85 60.5751 155.483 54.9925 150.504 55.6522C145.896 56.263 142.439 62.0629 137.96 60.8162C134.952 59.979 132.761 56.0606 129.765 56.9409C128.034 57.4499 127.172 59.3784 125.71 60.437C123.415 62.0988 120.18 61.3015 117.653 60.0202C115.126 58.739 112.662 56.9975 109.831 56.9071C105.657 56.7738 102.304 60.2055 98.3699 61.6063C92.9413 63.5395 86.2889 60.9899 83.5428 55.9237Z" fill="#00160A"/>
<path fill-rule="evenodd" clip-rule="evenodd" d="M143.043 63.3753C143.084 64.3884 142.302 65.224 141.574 65.9301C138.728 68.6928 135.877 71.4633 133.334 74.5079C130.247 78.2045 127.592 82.3265 123.889 85.4053C123.498 84.9454 123.869 84.2541 124.24 83.778C129.625 76.8639 135.424 70.2724 141.596 64.0508C141.991 63.6533 142.505 63.2232 143.043 63.3753V63.3753Z" fill="#E7EAEE"/>
<path fill-rule="evenodd" clip-rule="evenodd" d="M182.636 153.409C182.21 153.71 181.677 153.992 181.19 153.806C181.373 153.25 181.739 152.776 182.106 152.321C186.602 146.753 192.335 142.339 198.01 137.979C198.521 137.587 199.192 137.176 199.762 137.477C199.711 137.957 199.341 138.334 198.986 138.66C195.65 141.726 191.662 144.051 188.528 147.323C186.57 149.366 184.948 151.776 182.636 153.409Z" fill="#E7EAEE"/>
<path fill-rule="evenodd" clip-rule="evenodd" d="M90.069 108.801C90.3382 108.24 91.0906 108.162 91.7127 108.161C98.3031 108.148 104.893 108.136 111.484 108.123C111.529 94.0431 111.325 79.9621 110.871 65.8892C110.855 65.3971 110.849 64.8691 111.121 64.4584C111.392 64.0478 112.057 63.8687 112.376 64.2439C112.61 78.936 112.844 93.6281 113.079 108.32C113.085 108.733 113.083 109.175 112.849 109.515C112.475 110.058 111.703 110.098 111.044 110.084C104.946 109.95 98.848 109.817 92.7499 109.683C91.7751 109.662 90.6625 109.575 90.069 108.801Z" fill="#00160A"/>
<path fill-rule="evenodd" clip-rule="evenodd" d="M70.3372 43.2635C78.2053 98.7618 69.4288 155.423 74.9372 211.205C122.181 210.93 169.425 210.654 216.669 210.379C217.793 210.373 219.061 210.303 219.801 209.458C220.415 208.756 220.461 207.738 220.477 206.805C221.399 150.394 222.322 93.9818 223.244 37.5699C187.179 38.5415 151.114 39.5131 115.049 40.4846C101.534 40.8487 87.9691 41.2109 74.5296 39.7397C123.347 37.3796 172.206 35.8671 221.076 35.2029C222.48 35.1839 224.046 35.2271 225.046 36.2135C226.068 37.2215 226.11 38.8289 226.086 40.264C225.144 95.9864 224.202 151.709 223.26 207.431C223.113 216.144 223.051 225.251 226.965 233.036C230.036 239.145 235.608 245.236 233.637 251.784C233.156 253.382 232.222 254.916 232.346 256.58C232.667 260.899 238.806 261.457 243.023 260.467C247.24 259.477 253.139 259.128 254.407 263.269C184.684 264.831 114.939 265.405 45.2 264.992C50.1684 263.373 55.3559 262.428 60.576 262.191C57.676 255.702 58.4341 247.717 62.5033 241.89C64.7942 238.609 68.0618 235.943 69.5406 232.225C70.62 229.512 70.6303 226.509 70.6256 223.588C70.5295 163.48 70.4333 103.372 70.3372 43.2635ZM168.244 246.6C156.529 247.004 144.886 249.226 133.171 248.842C127.899 248.67 122.66 247.97 117.399 247.605C104.493 246.708 91.5412 247.823 78.6523 248.938C73.5247 249.382 68.3971 249.825 63.2695 250.269C62.7874 250.31 62.263 250.371 61.9195 250.712C61.4777 251.15 61.5125 251.862 61.5782 252.481C61.8629 255.168 62.1476 257.854 62.4323 260.541C62.4978 261.159 62.5957 261.841 63.071 262.241C63.5113 262.612 64.141 262.625 64.7166 262.62C119.354 262.126 173.992 261.632 228.63 261.138C229.235 261.132 229.902 261.103 230.345 260.691C230.786 260.28 230.864 259.621 230.915 259.021C231.21 255.514 231.506 252.007 231.801 248.5C210.733 251.09 189.458 245.866 168.244 246.6ZM129.464 245.586C144.446 246.276 159.39 243.49 174.387 243.604C192.828 243.743 211.339 248.258 229.56 245.41C229.988 245.343 230.463 245.244 230.712 244.889C231.07 244.376 230.751 243.679 230.431 243.141C228.436 239.797 226.442 236.453 224.448 233.109C223.956 232.285 223.432 231.427 222.608 230.936C221.716 230.405 220.621 230.389 219.583 230.388C171.536 230.359 123.489 230.993 75.459 232.29C71.279 237.256 66.8409 242.005 62.1685 246.51C77.4982 248.34 92.8952 243.834 108.332 244.062C115.395 244.166 122.408 245.261 129.464 245.586ZM73.3126 221.904C73.6813 224.706 75.2486 227.524 77.8661 228.588C79.3658 229.198 81.036 229.181 82.6548 229.154C128.41 228.41 174.165 227.665 219.919 226.921C220.095 223.882 220.27 220.843 220.446 217.804C220.474 217.317 220.492 216.791 220.222 216.385C219.862 215.844 219.136 215.715 218.492 215.636C170.695 209.806 122.129 217.961 74.1832 213.519C73.5655 216.276 72.944 219.103 73.3126 221.904Z" fill="#00160A"/>
<path fill-rule="evenodd" clip-rule="evenodd" d="M142.242 74.5079C142.521 74.2529 142.812 73.9933 143.169 73.8691C143.526 73.745 143.969 73.7898 144.216 74.0763C144.069 74.7081 143.516 75.1483 143.011 75.555C138.197 79.4291 134.743 84.7617 130.046 88.7778C129.702 89.0722 129.091 89.3194 128.879 88.9191C128.732 88.6434 128.954 88.3228 129.163 88.0906C133.362 83.4102 137.599 78.7484 142.242 74.5079Z" fill="#E7EAEE"/>
<path fill-rule="evenodd" clip-rule="evenodd" d="M88.6054 157.484C88.5987 156.664 89.3291 156.055 89.9847 155.562C94.017 152.532 97.7559 149.111 101.132 145.364C101.432 145.031 102.038 145.427 102.04 145.875C102.042 146.323 101.699 146.688 101.378 147.001C97.9758 150.327 94.5613 153.663 90.7563 156.519C90.1161 156.999 89.4059 157.486 88.6054 157.484Z" fill="#E7EAEE"/>
<path fill-rule="evenodd" clip-rule="evenodd" d="M114.642 64.1016C115.077 63.8793 115.58 63.7934 116.064 63.8589C116.502 78.4749 116.86 93.0933 117.139 107.713C133.327 107.214 149.536 107.414 165.706 108.313C167.142 93.2779 167.108 78.1444 166.972 63.0414C166.968 62.6479 166.97 62.2318 167.171 61.8936C167.373 61.5555 167.85 61.3489 168.173 61.5726C168.453 61.766 168.488 62.1591 168.495 62.4993C168.814 77.9298 168.4 93.3755 167.254 108.767C167.23 109.077 167.2 109.408 167.01 109.654C166.691 110.067 166.083 110.073 165.563 110.043C148.927 109.074 132.243 108.938 115.594 109.637C115.563 94.4541 115.245 79.2721 114.642 64.1016Z" fill="#00160A"/>
<path fill-rule="evenodd" clip-rule="evenodd" d="M169.49 210.193C166.989 204.898 166.026 198.887 166.751 193.076C166.775 192.879 166.807 192.67 166.937 192.52C166.998 198.064 168.002 203.597 169.891 208.81C169.989 209.08 170.091 209.363 170.051 209.647C170.011 209.931 169.777 210.211 169.49 210.193H169.49Z" fill="#00160A"/>
<path fill-rule="evenodd" clip-rule="evenodd" d="M180.473 141.051C183.28 138.343 186.086 135.635 188.893 132.927C189.185 132.645 189.711 133.023 189.705 133.429C189.699 133.835 189.387 134.163 189.096 134.446C186.745 136.733 184.395 139.021 182.044 141.308C181.741 141.603 181.39 141.918 180.967 141.912C180.545 141.905 180.169 141.344 180.473 141.051H180.473Z" fill="#E7EAEE"/>
<path fill-rule="evenodd" clip-rule="evenodd" d="M120.842 193.073C127.989 193.099 135.129 192.687 142.264 192.275C150.529 191.798 158.794 191.321 167.059 190.844C168.903 190.738 170.821 190.611 172.429 189.701C170.561 187.517 169.311 184.809 168.862 181.97C168.819 181.698 168.786 181.403 168.913 181.158C169.041 180.913 169.393 180.769 169.603 180.949C169.976 184.029 171.192 187.003 173.082 189.463C173.465 189.961 172.803 190.599 172.219 190.831C170.202 191.632 167.99 191.762 165.823 191.882C159.449 192.234 153.075 192.587 146.702 192.94C138.615 193.387 130.527 193.835 122.434 194.143C120.852 194.203 118.99 194.127 118.087 192.826C117.336 191.744 117.599 190.282 117.909 189.002C118.405 186.952 118.947 184.912 119.532 182.885C119.699 182.305 120.035 181.602 120.637 181.635C119.413 184.46 118.765 187.533 118.744 190.612C118.739 191.449 118.862 192.432 119.587 192.849C119.96 193.063 120.412 193.072 120.842 193.073Z" fill="#00160A"/>
<path fill-rule="evenodd" clip-rule="evenodd" d="M120.475 77.7379C120.023 77.5356 120.28 76.853 120.593 76.4704C124.177 72.093 127.76 67.7157 131.344 63.3384C131.494 63.155 131.653 62.9646 131.873 62.8756C132.092 62.7865 132.389 62.8396 132.494 63.0521C132.615 63.2964 132.431 63.5753 132.258 63.7855C128.67 68.1335 125.082 72.4816 121.494 76.8296C121.202 77.184 120.894 77.5502 120.475 77.7379H120.475Z" fill="#E7EAEE"/>
<path fill-rule="evenodd" clip-rule="evenodd" d="M70.6924 43.0436C70.6282 42.5494 70.6108 42.0491 70.6405 41.5516C70.6453 41.4715 70.6624 41.3754 70.737 41.3457C70.86 41.2968 70.9426 41.4742 70.9566 41.6059C71.0098 42.107 71.0404 42.6791 70.6924 43.0436H70.6924Z" fill="#00160A"/>
<path fill-rule="evenodd" clip-rule="evenodd" d="M197.938 109.835C188.77 109.924 179.603 110.012 170.435 110.101C170.18 110.104 169.899 110.098 169.705 109.931C169.481 109.737 169.457 109.405 169.45 109.109C169.085 93.7865 169.634 78.4587 170.184 63.1419C170.201 62.6664 170.23 62.1557 170.524 61.7816C170.818 61.4074 171.48 61.2971 171.744 61.6934C171.068 76.9055 170.729 92.1325 170.727 107.36C170.727 107.82 170.881 108.44 171.341 108.423C181.76 108.025 192.195 108.022 202.614 108.414C202.827 108.422 203.076 108.452 203.181 108.637C203.361 108.954 202.935 109.268 202.584 109.369C201.083 109.801 199.499 109.819 197.938 109.835Z" fill="#00160A"/>
<path fill-rule="evenodd" clip-rule="evenodd" d="M52.3378 195.003C52.1739 194.84 52.0101 194.677 51.8462 194.514C51.7584 194.427 51.666 194.29 51.7427 194.193C51.8317 194.08 52.0091 194.181 52.1103 194.283C52.2613 194.434 52.4123 194.586 52.5633 194.738C52.6644 194.839 52.763 195.019 52.6484 195.104C52.5529 195.176 52.4224 195.087 52.3378 195.003L52.3378 195.003Z" fill="#00160A"/>
<path fill-rule="evenodd" clip-rule="evenodd" d="M97.8193 127.495C97.9166 127.68 97.8462 127.907 97.7509 128.093C97.5308 128.522 97.191 128.875 96.852 129.218C96.1871 129.889 95.5057 130.544 94.8087 131.182C94.5725 131.398 94.3148 131.622 93.9981 131.669C93.6814 131.716 93.3059 131.495 93.3165 131.175C93.3226 130.991 93.4481 130.835 93.5688 130.695C94.523 129.593 95.5636 128.566 96.678 127.626C96.8471 127.484 97.0257 127.339 97.2405 127.286C97.4553 127.233 97.7163 127.3 97.8193 127.495Z" fill="#E7EAEE"/>
<path fill-rule="evenodd" clip-rule="evenodd" d="M92.245 102.653C92.1748 102.65 92.1725 102.519 92.2426 102.514C92.313 102.519 92.3108 102.651 92.2403 102.653L92.245 102.653Z" fill="#00160A"/>
<path fill-rule="evenodd" clip-rule="evenodd" d="M91.6193 139.21C91.5406 138.933 91.7664 138.669 91.9835 138.479C92.4654 138.059 92.9959 137.698 93.5153 137.324C95.4655 135.922 97.2752 134.324 98.9084 132.562C99.0973 132.358 99.2913 132.147 99.5446 132.033C99.798 131.919 100.13 131.929 100.318 132.133C100.498 132.327 100.493 132.639 100.379 132.878C100.264 133.116 100.061 133.298 99.8625 133.474C98.4734 134.703 97.0844 135.933 95.6954 137.162C94.7857 137.967 93.865 138.78 92.7925 139.351C92.592 139.458 92.3777 139.558 92.1506 139.558C91.9234 139.557 91.6813 139.429 91.6193 139.21H91.6193Z" fill="#E7EAEE"/>
<path fill-rule="evenodd" clip-rule="evenodd" d="M179.176 132.852C178.98 133.062 178.781 133.283 178.516 133.397C178.252 133.51 177.902 133.48 177.731 133.249C177.457 132.876 177.817 132.375 178.156 132.061C180.182 130.186 182.303 128.414 184.509 126.755C184.925 126.442 185.448 126.118 185.93 126.313C185.983 126.335 186.037 126.367 186.055 126.421C186.07 126.464 186.057 126.511 186.043 126.554C185.83 127.21 185.267 127.681 184.725 128.108C182.814 129.619 180.836 131.068 179.176 132.852Z" fill="#E7EAEE"/>
<path fill-rule="evenodd" clip-rule="evenodd" d="M122.807 195.528C123.156 197.116 123.7 199.767 123.51 201.382C123.167 204.293 122.372 206.383 121.726 209.242C121.623 209.699 121.016 210.008 120.583 210.186C120.315 209.815 120.429 209.303 120.549 208.862C121.734 204.505 122.492 200.032 122.807 195.528Z" fill="#00160A"/>
<path fill-rule="evenodd" clip-rule="evenodd" d="M148.384 209.687C148.155 209.939 147.745 209.705 147.502 209.468C146.095 208.099 144.824 206.591 143.712 204.974C143.658 204.896 143.543 204.988 143.499 205.073C142.688 206.649 141.876 208.226 141.064 209.802C141.03 209.869 140.982 209.946 140.907 209.952C140.753 209.963 140.752 209.724 140.813 209.584C141.61 207.755 142.407 205.927 143.203 204.098C143.239 204.015 143.278 203.929 143.346 203.869C143.607 203.639 143.987 203.951 144.192 204.232C145.381 205.866 146.698 207.406 148.127 208.834C148.361 209.067 148.606 209.443 148.384 209.687Z" fill="#00160A"/>
<path fill-rule="evenodd" clip-rule="evenodd" d="M88.2787 168.211C87.9686 168.656 87.9884 169.243 88.0205 169.783L88.3636 175.563C88.4033 176.234 88.4812 176.983 88.9969 177.413C89.4779 177.815 90.1715 177.794 90.7966 177.752L103.102 176.934C106.656 176.697 110.533 176.547 113.426 178.625C118.792 182.477 127.12 181.274 131.177 176.061C131.652 175.449 132.536 175.385 133.311 175.372L156.676 174.989L156.738 174.988C157.792 174.97 159.17 174.947 159.677 175.745C164.004 182.538 175.299 181.261 180.909 175.786C181.989 174.733 183.628 174.566 185.132 174.458L199.965 173.386C201.691 173.261 202.992 171.612 203.31 169.912C203.627 168.211 203.19 166.47 202.756 164.795C202.622 164.278 202.451 163.71 201.993 163.435C201.656 163.233 201.237 163.239 200.844 163.252L169.833 164.267C169.232 147.251 169.534 130.203 170.735 113.219C182.12 112.669 193.522 112.48 204.919 112.653C205.261 111.723 203.847 111.214 202.857 111.239L171.075 112.045C170.526 112.059 169.921 112.096 169.527 112.479C169.134 112.861 169.08 113.465 169.052 114.013C168.172 130.811 167.906 147.642 168.254 164.46C167.611 164.566 166.938 164.482 166.34 164.222L166.582 113.502C166.584 113.046 166.559 112.528 166.211 112.235C165.932 112 165.534 111.989 165.17 111.989C148.594 112.007 132.017 112.23 115.447 112.659L116.365 166.198L114.215 166.455C113.389 148.782 113.103 131.084 113.357 113.394C113.371 112.42 112.089 112.067 111.115 112.024C103.772 111.702 96.4155 111.695 89.0719 112.003C90.1849 113.193 92.001 113.31 93.6302 113.347L111.88 113.768C111.586 131.233 111.846 148.708 112.658 166.156L90.261 167.471C89.5308 167.514 88.6973 167.611 88.2787 168.211ZM117.012 113.517C132.946 113.433 148.88 113.283 164.812 113.065C165.141 113.06 165.244 113.504 165.241 113.833L164.766 164.48L117.87 166.287C117.436 148.699 117.15 131.109 117.012 113.517ZM123.589 170.645C122.674 170.681 121.932 171.381 121.362 172.097C121.271 172.211 121.182 172.328 121.092 172.445C120.617 173.06 120.136 173.685 119.449 174.032C118.808 174.356 118.065 174.394 117.347 174.426L89.8702 175.662L89.3693 169.136C126.437 167.057 163.536 165.523 200.649 164.534C200.903 164.527 201.183 164.529 201.379 164.692C201.613 164.886 201.637 165.23 201.643 165.534L201.76 171.75C193.078 173.024 184.284 173.305 175.512 173.583C174.283 173.622 172.969 173.64 171.93 172.98C171.222 172.531 170.739 171.826 170.26 171.128C170.148 170.964 170.035 170.801 169.921 170.641C169.317 169.8 168.506 168.978 167.474 168.893C166.442 168.808 165.349 169.907 165.809 170.834C164.863 169.585 162.431 170.337 162.355 171.903C162.058 170.714 160.541 170.014 159.444 170.561C158.347 171.107 157.991 172.74 158.761 173.693L132.032 174.161C132.067 173.195 131.307 172.262 130.354 172.1C129.4 171.939 128.376 172.569 128.09 173.493C128.114 172.031 125.822 171.253 124.951 172.428C125.421 171.643 124.503 170.608 123.589 170.645ZM165.969 178.853C164.613 178.556 163.209 178.132 162.244 177.134C161.753 176.627 161.407 176 161.067 175.382L159.767 173.02C159.612 172.738 159.452 172.432 159.493 172.114C159.534 171.795 160.548 170.826 161.451 171.903C162.355 172.98 162.687 173.408 163.383 174.758C163.441 174.869 163.498 174.985 163.557 175.102C164.022 176.035 164.541 177.076 165.54 177.132C165.733 176.403 165.4 175.65 165.076 174.97L164.17 173.071C163.883 172.468 163.606 171.713 164.004 171.176C166.079 171.876 167.236 174.036 168.129 176.035C168.241 176.287 168.36 176.549 168.576 176.72C168.792 176.89 169.136 176.933 169.33 176.738C169.585 176.48 169.423 176.049 169.251 175.729C168.401 174.14 167.651 172.496 167.007 170.813C166.932 170.616 166.864 170.373 166.999 170.211C167.162 170.014 167.478 170.097 167.707 170.209C169.127 170.904 170.27 172.146 170.846 173.619C170.89 173.732 170.931 173.847 170.972 173.962C171.107 174.337 171.242 174.714 171.481 175.03C172.214 176.005 173.621 176.086 174.841 176.081C175.172 176.079 175.515 176.075 175.815 175.935C176.116 175.796 176.361 175.48 176.31 175.153C176.261 174.845 176.692 174.722 177.003 174.724L180.853 174.758C178.923 177.062 175.822 177.942 172.915 178.704C172.092 178.919 171.266 179.136 170.42 179.229C168.933 179.393 167.43 179.173 165.969 178.853ZM111.483 176.597C112.734 176.335 114.003 176.156 115.277 176.062C115.175 176.5 115.469 176.951 115.852 177.187C116.746 177.738 117.957 177.351 118.736 176.648C119.261 176.174 119.654 175.583 120.048 174.991C120.238 174.705 120.429 174.419 120.635 174.145C121.45 173.062 123.636 170.597 124.068 171.75C124.323 172.428 123.693 173.683 122.992 175.08C122.5 176.061 121.972 177.112 121.691 178.083C122.571 177.413 122.94 176.801 123.331 176.035C123.781 175.153 124.716 173.914 125.443 173.02C125.771 172.617 126.259 172.376 126.722 172.583C127.184 172.79 127.322 173.35 127.2 173.619C126.914 174.25 126.732 174.714 126.55 175.178C126.369 175.642 126.187 176.107 125.901 176.738C125.883 176.778 125.854 176.835 125.82 176.904C125.648 177.252 125.33 177.895 125.443 178.086C125.56 178.282 125.879 177.942 126.203 177.597C126.28 177.515 126.357 177.433 126.432 177.357C126.546 177.242 126.74 176.901 126.993 176.455C127.609 175.371 128.578 173.666 129.615 173.071C130.465 172.583 130.841 173.833 130.662 174.21C130.334 174.905 129.984 175.59 129.615 176.264C129.125 177.158 128.183 178.052 127.392 178.695C126.388 179.513 125.076 179.849 123.792 180.016C119.328 180.599 115.052 179.341 111.483 176.597ZM117.012 176.934C116.357 176.997 115.852 176.062 115.852 176.062L118.552 175.866C118.552 175.866 117.668 176.87 117.012 176.934Z" fill="#00160A"/>
</svg>
