<svg width="22" height="16" viewBox="0 0 22 16" fill="none" xmlns="http://www.w3.org/2000/svg">
<path d="M0.27205 8.88425C2.00285 4.29872 5.82775 0.960938 11.114 0.960938C12.4611 0.960938 13.713 1.17865 14.8614 1.57733C14.7729 1.66593 14.6927 1.76249 14.6219 1.8658L14.0205 2.73664C13.2959 2.52058 12.549 2.38819 11.7944 2.34204V5.72336C11.7944 5.9038 11.7227 6.07685 11.5951 6.20444C11.4675 6.33203 11.2945 6.40371 11.114 6.40371C10.9336 6.40371 10.7606 6.33203 10.633 6.20444C10.5054 6.07685 10.4337 5.9038 10.4337 5.72336V2.3434C7.38711 2.5339 4.92017 4.01705 3.21659 6.28805C3.26686 6.30949 3.31437 6.3369 3.3581 6.36969L5.39914 7.90047C5.54349 8.00873 5.63892 8.1699 5.66444 8.34853C5.68996 8.52715 5.64347 8.7086 5.53521 8.85295C5.42694 8.9973 5.26577 9.09273 5.08714 9.11825C4.90852 9.14377 4.72707 9.09728 4.58272 8.98902L2.54168 7.45824C2.51881 7.44146 2.497 7.42329 2.47637 7.40381C2.11173 8.03063 1.80039 8.68698 1.54566 9.36593C1.48178 9.53482 1.35343 9.67142 1.18884 9.74568C1.02425 9.81994 0.836902 9.82577 0.668011 9.76189C0.49912 9.69802 0.362521 9.56967 0.288264 9.40508C0.214007 9.24049 0.208174 9.05314 0.27205 8.88425ZM18.2264 3.70137C18.2468 3.64694 18.2631 3.58979 18.2781 3.53401C19.9109 4.91375 21.1573 6.76565 21.956 8.88425C21.9877 8.96787 22.0025 9.05691 21.9997 9.14627C21.9969 9.23564 21.9766 9.32358 21.9398 9.40508C21.9031 9.48657 21.8506 9.56003 21.7854 9.62125C21.7203 9.68248 21.6437 9.73027 21.5601 9.76189C21.4764 9.79352 21.3874 9.80837 21.298 9.80559C21.2087 9.8028 21.1207 9.78245 21.0392 9.74568C20.9577 9.70891 20.8843 9.65645 20.8231 9.59129C20.7618 9.52614 20.7141 9.44956 20.6824 9.36593C20.4278 8.68651 20.1164 8.0297 19.7517 7.40245C19.7312 7.42242 19.7093 7.44105 19.6864 7.45824L17.6454 8.98902C17.5739 9.04263 17.4926 9.08163 17.406 9.1038C17.3195 9.12598 17.2294 9.13089 17.1409 9.11825C17.0525 9.10562 16.9674 9.07568 16.8905 9.03016C16.8136 8.98464 16.7465 8.92443 16.6929 8.85295C16.6393 8.78148 16.6003 8.70014 16.5781 8.61359C16.5559 8.52704 16.551 8.43697 16.5636 8.34853C16.5763 8.26008 16.6062 8.17499 16.6517 8.09811C16.6973 8.02123 16.7575 7.95407 16.8289 7.90047L18.87 6.36969C18.9142 6.33683 18.9621 6.30942 19.0129 6.28805C18.6474 5.7994 18.2404 5.34323 17.7964 4.92463L18.2264 3.70137ZM16.5881 2.41688C16.7346 2.49158 16.8491 2.61681 16.9104 2.7694C16.9717 2.922 16.9756 3.09162 16.9215 3.2469L13.332 13.4956C13.1637 13.9761 12.9152 14.4247 12.5972 14.8223C11.114 16.6783 8.19264 15.0577 8.93694 12.8262C9.07052 12.4253 9.25968 12.0451 9.4989 11.6968L15.7186 2.64003C15.812 2.50386 15.9516 2.40628 16.1116 2.36547C16.2716 2.32467 16.4409 2.34342 16.5881 2.41824V2.41688ZM13.9497 7.6188L10.6201 12.4669C10.4527 12.7092 10.3208 12.9758 10.2269 13.2562C9.95609 14.0685 11.0134 14.6236 11.5345 13.9732C11.7577 13.6943 11.9305 13.3813 12.0488 13.0452L13.9497 7.6188Z" fill="white"/>
<rect x="13.0029" y="7.104" width="2.30718" height="7.83995" transform="rotate(30 13.0029 7.104)" fill="white"/>
</svg>
