<svg width="16" height="20" viewBox="0 0 16 20" fill="none" xmlns="http://www.w3.org/2000/svg">
<path d="M0.5 19.2972V0.200195H15.1481V19.2972L7.80287 14.2699L0.5 19.2972Z" fill="#EEDF55"/>
<path d="M7.57579 3.25402C7.75197 2.85878 8.31298 2.85878 8.48916 3.25402L9.55799 5.65183C9.63065 5.81485 9.7847 5.92677 9.96219 5.9455L12.5729 6.22105C13.0033 6.26647 13.1766 6.80002 12.8552 7.08972L10.905 8.84719C10.7724 8.96668 10.7136 9.14777 10.7506 9.32236L11.2953 11.8905C11.3851 12.3138 10.9312 12.6435 10.5564 12.4273L8.28229 11.1157C8.12768 11.0265 7.93727 11.0265 7.78267 11.1157L5.50857 12.4273C5.13372 12.6435 4.67985 12.3138 4.76964 11.8905L5.31434 9.32236C5.35137 9.14777 5.29253 8.96668 5.15995 8.84719L3.20978 7.08972C2.88832 6.80002 3.06168 6.26647 3.49203 6.22105L6.10277 5.9455C6.28026 5.92677 6.4343 5.81485 6.50697 5.65183L7.57579 3.25402Z" fill="white"/>
</svg>
