<svg width="11" height="10" viewBox="0 0 11 10" fill="none" xmlns="http://www.w3.org/2000/svg">
<path d="M5.04332 1.02453C5.2195 0.629285 5.7805 0.629285 5.95668 1.02453L6.90201 3.14529C6.97468 3.30831 7.12873 3.42023 7.30622 3.43896L9.6153 3.68267C10.0456 3.72809 10.219 4.26164 9.89755 4.55134L8.17271 6.10575C8.04013 6.22523 7.98129 6.40632 8.01832 6.58092L8.50008 8.8523C8.58987 9.27562 8.136 9.60537 7.76115 9.38916L5.74981 8.22908C5.59521 8.13991 5.40479 8.13991 5.25019 8.22908L3.23885 9.38916C2.864 9.60537 2.41013 9.27561 2.49992 8.8523L2.98168 6.58092C3.01871 6.40632 2.95987 6.22523 2.82729 6.10575L1.10245 4.55134C0.780994 4.26164 0.954356 3.72809 1.3847 3.68267L3.69378 3.43896C3.87127 3.42023 4.02532 3.30831 4.09799 3.14529L5.04332 1.02453Z" fill="#0077B6"/>
</svg>
