<svg width="26" height="22" viewBox="0 0 26 22" fill="none" xmlns="http://www.w3.org/2000/svg">
<path fill-rule="evenodd" clip-rule="evenodd" d="M21.9965 3.22284L21.9987 3.22507C22.785 4.01054 23.2223 5.06625 23.2223 6.17222V6.63356C23.173 6.41799 23.0989 6.20656 23 6.00359V8.57967C23.0986 8.37664 23.1728 8.16455 23.2223 7.94784V15.8278C23.2223 18.1278 21.3487 20 19.0366 20H19H7H6.96228C4.65073 20 2.77783 18.1283 2.77783 15.8278V6.17222C2.77783 3.86911 4.64108 2 6.96228 2H7H19H19.0366C20.1491 2 21.2151 2.43978 21.9965 3.22284ZM3 8.462C2.70457 7.7445 2.71152 6.94223 3 6.23606V8.462ZM19.0366 0C20.6756 0 22.2523 0.647778 23.4122 1.81011C24.5733 2.97 25.2223 4.53444 25.2223 6.17222V15.8278C25.2223 19.2378 22.4478 22 19.0366 22H6.96228C3.55105 22 0.777832 19.2378 0.777832 15.8278V6.17222C0.777832 2.76222 3.53883 0 6.96228 0H19.0366Z" fill="white"/>
</svg>
