<svg width="28" height="17" viewBox="0 0 28 17" fill="none" xmlns="http://www.w3.org/2000/svg">
<path d="M11.6432 16H13.7283L8.2766 0.94804H5.996L0.52256 16H2.60768L3.824 12.6334H10.4269L11.6432 16ZM9.86216 11.0261H4.38872L7.12544 3.38068L9.86216 11.0261ZM15.3753 10.0053C15.3753 13.6977 17.8297 16.1955 21.0008 16.1955C23.1945 16.1955 24.7366 15.066 25.4534 13.7846V16H27.4516V4.09744H25.4534V6.26944C24.7583 5.0314 23.2379 3.90196 21.0225 3.90196C17.8297 3.90196 15.3753 6.29116 15.3753 10.0053ZM25.4534 10.027C25.4534 12.8289 23.5855 14.4579 21.4135 14.4579C19.2415 14.4579 17.3953 12.8072 17.3953 10.0053C17.3953 7.2034 19.2415 5.61784 21.4135 5.61784C23.5855 5.61784 25.4534 7.26856 25.4534 10.027Z" fill="white"/>
</svg>
