<svg width="25" height="25" viewBox="0 0 25 25" fill="none" xmlns="http://www.w3.org/2000/svg">
<path d="M7.3584 22.4697H4.3584C3.82797 22.4697 3.31926 22.259 2.94418 21.8839C2.56911 21.5089 2.3584 21.0002 2.3584 20.4697V13.4697C2.3584 12.9393 2.56911 12.4306 2.94418 12.0555C3.31926 11.6804 3.82797 11.4697 4.3584 11.4697H7.3584M14.3584 9.46973V5.46973C14.3584 4.67408 14.0423 3.91102 13.4797 3.34841C12.9171 2.7858 12.154 2.46973 11.3584 2.46973L7.3584 11.4697V22.4697H18.6384C19.1207 22.4752 19.5888 22.3061 19.9563 21.9937C20.3238 21.6813 20.5661 21.2466 20.6384 20.7697L22.0184 11.7697C22.0619 11.4831 22.0426 11.1904 21.9617 10.912C21.8809 10.6335 21.7405 10.376 21.5503 10.1572C21.36 9.93846 21.1245 9.76366 20.86 9.64494C20.5955 9.52623 20.3083 9.46644 20.0184 9.46973H14.3584Z" stroke="black" stroke-width="2" stroke-linecap="round" stroke-linejoin="round"/>
</svg>
