<svg width="25" height="25" viewBox="0 0 25 25" fill="none" xmlns="http://www.w3.org/2000/svg">
<path d="M17.3584 2.47009H20.0284C20.5944 2.46008 21.1443 2.65822 21.5738 3.02691C22.0034 3.39559 22.2826 3.90915 22.3584 4.47009V11.4701C22.2826 12.031 22.0034 12.5446 21.5738 12.9133C21.1443 13.282 20.5944 13.4801 20.0284 13.4701H17.3584M10.3584 15.4701V19.4701C10.3584 20.2657 10.6745 21.0288 11.2371 21.5914C11.7997 22.154 12.5628 22.4701 13.3584 22.4701L17.3584 13.4701V2.47009H6.07843C5.5961 2.46464 5.12805 2.63368 4.76052 2.94608C4.393 3.25848 4.15075 3.69318 4.07843 4.17009L2.69843 13.1701C2.65492 13.4567 2.67425 13.7494 2.75509 14.0278C2.83592 14.3063 2.97633 14.5638 3.16657 14.7826C3.35681 15.0014 3.59235 15.1762 3.85686 15.2949C4.12137 15.4136 4.40852 15.4734 4.69843 15.4701H10.3584Z" stroke="black" stroke-width="2" stroke-linecap="round" stroke-linejoin="round"/>
</svg>
