<svg width="24" height="24" viewBox="0 0 24 24" fill="none" xmlns="http://www.w3.org/2000/svg">
<path d="M12 4.99782C13.2073 4.99773 14.4007 5.25483 15.5009 5.75201C16.6011 6.24918 17.5828 6.97503 18.3805 7.88122C19.1783 8.78741 19.7739 9.85314 20.1276 11.0075C20.4813 12.1618 20.5851 13.3783 20.432 14.5758C19.9949 14.2868 19.4982 14.1002 18.979 14.0298C19.0964 12.4826 18.6964 10.9401 17.8418 9.64497C16.9872 8.34979 15.7265 7.37528 14.2578 6.87457C12.7891 6.37387 11.1956 6.37536 9.72787 6.87881C8.26011 7.38226 7.00123 8.35913 6.14907 9.65591C5.29691 10.9527 4.89978 12.4958 5.02009 14.0429C5.14041 15.5899 5.77134 17.0531 6.81374 18.2026C7.85613 19.352 9.2509 20.1225 10.7789 20.393C12.3068 20.6634 13.8813 20.4186 15.255 19.6968C15.0867 20.1102 15.0008 20.5525 15.002 20.9988V21.2478L15.011 21.4158L15.016 21.4478C13.8511 21.8885 12.6037 22.0679 11.3619 21.9732C10.1202 21.8786 8.91434 21.5122 7.82979 20.9C6.74525 20.2878 5.80849 19.4448 5.08576 18.4305C4.36303 17.4163 3.87201 16.2557 3.64742 15.0307C3.42283 13.8057 3.47016 12.5463 3.78607 11.3417C4.10197 10.137 4.67874 9.01651 5.47556 8.05939C6.27238 7.10227 7.26978 6.33194 8.39721 5.80289C9.52465 5.27384 10.7546 4.999 12 4.99782ZM18.503 14.9978C19.1529 14.996 19.7781 15.2473 20.2459 15.6986C20.7136 16.1499 20.9873 16.7656 21.0087 17.4153C21.0302 18.0649 20.7978 18.6973 20.3608 19.1785C19.9238 19.6597 19.3166 19.9518 18.668 19.9928L18.503 19.9978C18.3342 19.9975 18.1682 20.0399 18.0203 20.121C17.8724 20.2022 17.7474 20.3194 17.657 20.4618L17.637 20.4968H20.253C20.4345 20.4966 20.61 20.5623 20.7468 20.6816C20.8836 20.801 20.9725 20.9659 20.997 21.1458L21.003 21.2478C21.0029 21.4291 20.9373 21.6042 20.8182 21.7407C20.6991 21.8773 20.5345 21.9662 20.355 21.9908L20.253 21.9978H16.752C16.5704 21.998 16.3949 21.9323 16.2581 21.813C16.1213 21.6936 16.0324 21.5287 16.008 21.3488L16.002 21.2478V20.9978C16.0021 20.3632 16.2435 19.7523 16.6773 19.289C17.111 18.8257 17.7047 18.5447 18.338 18.5028L18.503 18.4978C18.7594 18.4998 19.0068 18.4033 19.1941 18.2281C19.3813 18.0529 19.4941 17.8124 19.5091 17.5564C19.5242 17.3004 19.4403 17.0484 19.2748 16.8525C19.1093 16.6566 18.8749 16.5318 18.62 16.5038L18.503 16.4978H18.252C18.0705 16.4976 17.8952 16.5631 17.7584 16.6823C17.6216 16.8014 17.5326 16.9661 17.508 17.1458L17.502 17.2478C17.502 17.4467 17.4229 17.6375 17.2823 17.7781C17.1416 17.9188 16.9509 17.9978 16.752 17.9978C16.553 17.9978 16.3623 17.9188 16.2216 17.7781C16.081 17.6375 16.002 17.4467 16.002 17.2478C16.0019 16.6777 16.2182 16.1288 16.6073 15.7121C16.9964 15.2953 17.5292 15.0418 18.098 15.0028L18.252 14.9978H18.503ZM12 7.99982C12.1812 7.99982 12.3563 8.06546 12.4929 8.18458C12.6295 8.30371 12.7183 8.46826 12.743 8.64782L12.75 8.74982V13.2498C12.7499 13.4398 12.6777 13.6228 12.548 13.7616C12.4183 13.9005 12.2407 13.9849 12.0511 13.9978C11.8615 14.0108 11.6741 13.9513 11.5267 13.8314C11.3792 13.7115 11.2829 13.5401 11.257 13.3518L11.25 13.2498V8.74982C11.25 8.5509 11.329 8.36014 11.4696 8.21949C11.6103 8.07883 11.801 7.99982 12 7.99982ZM19.162 5.12082L19.242 5.18282L20.374 6.16882C20.5174 6.29373 20.608 6.46848 20.6275 6.65769C20.6469 6.8469 20.5938 7.03644 20.4788 7.18793C20.3637 7.33943 20.1955 7.44156 20.008 7.47366C19.8205 7.50576 19.6278 7.46542 19.469 7.36082L19.388 7.29882L18.258 6.31282C18.1157 6.18765 18.0261 6.01328 18.0072 5.82477C17.9883 5.63626 18.0414 5.44756 18.1559 5.2966C18.2704 5.14564 18.4377 5.0436 18.6244 5.011C18.811 4.97839 19.0031 5.01762 19.162 5.12082ZM14.25 2.48682C14.44 2.48687 14.6229 2.55906 14.7617 2.68879C14.9006 2.81852 14.985 2.99611 14.998 3.1857C15.0109 3.37528 14.9514 3.56271 14.8315 3.71012C14.7116 3.85752 14.5402 3.95391 14.352 3.97982L14.25 3.98682H9.74995C9.55993 3.98676 9.37701 3.91457 9.23816 3.78484C9.09931 3.65512 9.01488 3.47752 9.00193 3.28794C8.98898 3.09835 9.04847 2.91092 9.16839 2.76352C9.2883 2.61611 9.4597 2.51972 9.64795 2.49382L9.74995 2.48682H14.25Z" fill="white"/>
</svg>
