<svg width="27" height="25" viewBox="0 0 27 25" fill="none" xmlns="http://www.w3.org/2000/svg">
<path d="M22.1162 22.5994C16.6584 23.938 12.6793 20.5693 12.6793 16.9627C12.6793 13.4991 16.0485 10.9987 19.7708 10.9987C23.5159 10.9987 26.8623 13.5176 26.8623 16.9627C26.8623 18.1845 26.4257 19.3845 25.6522 20.3151C25.6208 21.406 26.2567 22.9714 26.8309 24.1104C25.2936 23.83 23.1064 23.2114 22.1162 22.5994ZM10.5126 16.9627C10.5126 12.4714 14.6661 8.8169 19.7708 8.8169C20.7306 8.8169 21.6558 8.94672 22.5268 9.18563C22.5041 3.91217 17.3691 0.110352 11.6956 0.110352C5.97455 0.110352 0.862305 3.95799 0.862305 9.22162C0.862305 11.0871 1.52855 12.9209 2.70939 14.3434C2.7603 16.0093 1.78747 18.3994 0.909971 20.1394C3.25864 19.7129 6.59964 18.7671 8.11305 17.8322C8.98297 18.046 9.82039 18.1638 10.6351 18.2282C10.5625 17.8147 10.5126 17.3936 10.5126 16.9627Z" fill="#333333"/>
</svg>
