<svg width="25" height="20" viewBox="0 0 25 20" fill="none" xmlns="http://www.w3.org/2000/svg">
<path d="M4.5243 6.29035C2.9563 6.76635 1.9563 6.60035 0.862305 5.50635V12.6104C1.8943 11.5114 2.9553 11.1724 4.5243 11.6494L24.8623 17.6104V0.610352L4.5243 6.29035ZM15.8623 17.0294L13.9003 19.1764C13.5363 19.5514 12.9933 19.6974 12.4883 19.5574L8.5383 18.4774C8.0483 18.3414 7.6693 17.9574 7.5423 17.4684L6.8623 14.4224L8.9933 15.0394L9.2273 16.3684C9.3123 16.6914 9.5633 16.9464 9.8863 17.0364L12.0283 17.6154C12.3633 17.7094 12.7243 17.6134 12.9653 17.3634L13.7603 16.4194L15.8623 17.0294Z" fill="#333333"/>
</svg>
