<svg width="25" height="24" viewBox="0 0 25 24" fill="none" xmlns="http://www.w3.org/2000/svg">
<path d="M12.6476 0.586914C6.15687 0.586914 0.358398 5.01424 0.358398 11.0707C0.358398 13.2183 1.11521 15.3272 2.45474 16.9636C2.51106 18.8808 1.40708 21.6319 0.4137 23.635C3.07841 23.1426 6.86657 22.0552 8.58399 20.9782C18.0426 23.3322 24.9369 17.411 24.9369 11.0707C24.9369 4.98177 19.0985 0.586914 12.6476 0.586914ZM7.52712 12.6348C6.67814 12.6348 5.99096 11.9318 5.99096 11.0633C5.99096 10.1948 6.67814 9.49186 7.52712 9.49186C8.3761 9.49186 9.06327 10.1948 9.06327 11.0633C9.06327 11.9318 8.3761 12.6348 7.52712 12.6348ZM12.6476 12.6348C11.7986 12.6348 11.1115 11.9318 11.1115 11.0633C11.1115 10.1948 11.7986 9.49186 12.6476 9.49186C13.4966 9.49186 14.1838 10.1948 14.1838 11.0633C14.1838 11.9318 13.4966 12.6348 12.6476 12.6348ZM17.7681 12.6348C16.9202 12.6348 16.232 11.9318 16.232 11.0633C16.232 10.1948 16.9202 9.49186 17.7681 9.49186C18.6171 9.49186 19.3043 10.1948 19.3043 11.0633C19.3043 11.9318 18.6171 12.6348 17.7681 12.6348Z" fill="#333333"/>
</svg>
