<svg width="23" height="23" viewBox="0 0 23 23" fill="none" xmlns="http://www.w3.org/2000/svg">
<path d="M22.1375 6.32486C22.3459 6.32487 22.5473 6.40035 22.7044 6.53735C22.8614 6.67435 22.9636 6.86359 22.9919 7.07008L23 7.18738V16.9626C23.0001 17.9173 22.6348 18.8358 21.9792 19.5298C21.3235 20.2237 20.4272 20.6404 19.4741 20.6945L19.2625 20.7002H4.67015L5.49815 21.5283C5.64405 21.6745 5.73265 21.8681 5.74784 22.0741C5.76304 22.2801 5.70382 22.4847 5.58095 22.6507L5.497 22.7473C5.35096 22.8934 5.15736 22.9822 4.95138 22.9976C4.74541 23.013 4.54074 22.954 4.3746 22.8313L4.278 22.7473L1.978 20.4472L1.9044 20.3644C1.9017 20.3606 1.89901 20.3568 1.89635 20.3529L1.97685 20.4472C1.84568 20.315 1.76063 20.144 1.73432 19.9597C1.70801 19.7753 1.74185 19.5873 1.8308 19.4237C1.87064 19.3521 1.92018 19.2863 1.978 19.2282L4.278 16.9281C4.4321 16.7752 4.63819 16.6861 4.85514 16.6784C5.07209 16.6708 5.28394 16.7452 5.44841 16.8869C5.61289 17.0286 5.71789 17.2271 5.74245 17.4428C5.76702 17.6585 5.70935 17.8755 5.58095 18.0506L5.497 18.1472L4.669 18.9752H19.2625C19.7678 18.9752 20.2545 18.7851 20.6261 18.4427C20.9976 18.1003 21.2268 17.6307 21.2681 17.1271L21.275 16.9626V7.18738C21.275 6.95863 21.3659 6.73924 21.5276 6.57749C21.6894 6.41573 21.9088 6.32486 22.1375 6.32486ZM18.6254 0.168747L18.722 0.252699L21.022 2.55276C21.0514 2.58181 21.0787 2.61295 21.1036 2.64591L21.0231 2.55276C21.1833 2.71398 21.2736 2.93177 21.2745 3.15903C21.2753 3.3863 21.1867 3.60477 21.0278 3.76719L21.022 3.77179L18.722 6.07186C18.5679 6.22476 18.3618 6.31393 18.1449 6.32157C17.9279 6.32921 17.7161 6.25476 17.5516 6.11307C17.3871 5.97139 17.2821 5.77289 17.2575 5.55719C17.233 5.3415 17.2906 5.12447 17.419 4.94942L17.503 4.85282L18.3287 4.0248H3.7375C3.23243 4.02482 2.74583 4.21475 2.3743 4.5569C2.00277 4.89904 1.77346 5.36838 1.7319 5.87175L1.725 6.03735V15.8126C1.72493 16.0311 1.64192 16.2415 1.49273 16.4012C1.34354 16.5609 1.13931 16.658 0.921288 16.6729C0.703269 16.6878 0.487724 16.6193 0.318206 16.4814C0.148688 16.3435 0.0378366 16.1464 0.00804997 15.9299L8.02146e-09 15.8126V6.03735C-6.24987e-05 5.08267 0.365187 4.16415 1.02082 3.47022C1.67646 2.77629 2.57277 2.35955 3.5259 2.3055L3.7375 2.29975H18.3298L17.5019 1.47173C17.356 1.32555 17.2674 1.13186 17.2522 0.925883C17.237 0.719906 17.2962 0.515314 17.419 0.349301L17.503 0.252699C17.649 0.106625 17.8426 0.0178101 18.0486 0.00240372C18.2546 -0.0130026 18.4593 0.0460226 18.6254 0.168747ZM11.5 6.89988C12.72 6.89988 13.89 7.38453 14.7527 8.24722C15.6154 9.10991 16.1 10.28 16.1 11.5C16.1 12.72 15.6154 13.8901 14.7527 14.7528C13.89 15.6155 12.72 16.1001 11.5 16.1001C10.28 16.1001 9.10998 15.6155 8.24731 14.7528C7.38464 13.8901 6.9 12.72 6.9 11.5C6.9 10.28 7.38464 9.10991 8.24731 8.24722C9.10998 7.38453 10.28 6.89988 11.5 6.89988ZM11.5 8.62492C10.7375 8.62492 10.0062 8.92783 9.46707 9.46701C8.9279 10.0062 8.625 10.7375 8.625 11.5C8.625 12.2625 8.9279 12.9938 9.46707 13.533C10.0062 14.0722 10.7375 14.3751 11.5 14.3751C12.2625 14.3751 12.9938 14.0722 13.5329 13.533C14.0721 12.9938 14.375 12.2625 14.375 11.5C14.375 10.7375 14.0721 10.0062 13.5329 9.46701C12.9938 8.92783 12.2625 8.62492 11.5 8.62492Z" fill="white"/>
</svg>
