<svg width="24" height="24" viewBox="0 0 24 24" fill="none" xmlns="http://www.w3.org/2000/svg">
<path d="M3.23077 3.65523V3.55567C3.23077 2.61265 3.61978 1.70825 4.31222 1.04143C5.00466 0.374614 5.94382 0 6.92308 0H18C19.5913 0 21.1174 0.608748 22.2426 1.69233C23.3679 2.77591 24 4.24555 24 5.77797V12.4449C24 13.3879 23.611 14.2923 22.9185 14.9591C22.2261 15.6259 21.287 16.0005 20.3077 16.0005V16.445C20.3077 17.5059 19.8701 18.5233 19.0911 19.2735C18.3121 20.0237 17.2555 20.4451 16.1538 20.4451H10.9477L6.88338 23.6897C5.98154 24.4115 4.61538 23.7937 4.61538 22.6647V20.4451H3.69231C2.71305 20.4451 1.77389 20.0705 1.08145 19.4037C0.38901 18.7369 0 17.8325 0 16.8894V7.5558C0.000225249 6.6494 0.319968 5.76991 0.906889 5.06131C1.49381 4.35271 2.31314 3.85697 3.23077 3.65523ZM5.07692 3.55567H16.1538C17.2555 3.55567 18.3121 3.97711 19.0911 4.72728C19.8701 5.47745 20.3077 6.4949 20.3077 7.5558V14.2227C20.7973 14.2227 21.2669 14.0354 21.6131 13.702C21.9593 13.3686 22.1538 12.9164 22.1538 12.4449V5.77797C22.1538 4.71707 21.7162 3.69962 20.9372 2.94945C20.1582 2.19928 19.1017 1.77784 18 1.77784H6.92308C6.43345 1.77784 5.96387 1.96514 5.61765 2.29855C5.27143 2.63196 5.07692 3.08416 5.07692 3.55567ZM4.15385 5.33351C3.54181 5.33351 2.95484 5.56764 2.52206 5.9844C2.08929 6.40116 1.84615 6.96641 1.84615 7.5558V16.8894C1.84615 17.361 2.04066 17.8132 2.38688 18.1466C2.7331 18.48 3.20268 18.6673 3.69231 18.6673H5.53846C5.78328 18.6673 6.01806 18.7609 6.19118 18.9276C6.36429 19.0943 6.46154 19.3204 6.46154 19.5562V21.718L10.0265 18.8717C10.192 18.7396 10.4003 18.6673 10.6154 18.6673H16.1538C16.4569 18.6673 16.757 18.6098 17.037 18.4981C17.3169 18.3864 17.5713 18.2227 17.7856 18.0164C17.9999 17.81 18.1699 17.565 18.2859 17.2954C18.4018 17.0258 18.4615 16.7368 18.4615 16.445V7.5558C18.4615 6.96641 18.2184 6.40116 17.7856 5.9844C17.3529 5.56764 16.7659 5.33351 16.1538 5.33351H4.15385Z" fill="white"/>
</svg>
