<svg width="18" height="18" viewBox="0 0 18 18" fill="none" xmlns="http://www.w3.org/2000/svg">
<path d="M9 1.46338C8.45868 1.46267 7.92603 1.59929 7.45188 1.86046C6.97774 2.12163 6.57759 2.49881 6.28889 2.95671C6.02703 2.89353 5.75823 2.86367 5.48889 2.86783C4.67835 2.89793 3.90949 3.23471 3.33778 3.81005C2.96254 4.19264 2.68939 4.66335 2.5434 5.17898C2.39741 5.6946 2.38325 6.23864 2.50222 6.76116C2.04394 7.048 1.66581 7.44627 1.40311 7.91881C1.14042 8.39135 1.00173 8.92274 1 9.46338C1.00023 10.0055 1.1382 10.5387 1.40097 11.0129C1.66373 11.4872 2.04267 11.8869 2.50222 12.1745C2.38438 12.6977 2.39995 13.2422 2.5475 13.7579C2.69506 14.2736 2.96987 14.7439 3.34667 15.1256C3.73019 15.5083 4.20459 15.7873 4.72542 15.9366C5.24625 16.0858 5.79645 16.1004 6.32444 15.9789C6.61097 16.4301 7.00594 16.8024 7.4733 17.0617C7.94067 17.321 8.46554 17.4591 9 17.4634C9.53898 17.4635 10.0693 17.3276 10.5417 17.068C11.0141 16.8085 11.4133 16.4339 11.7022 15.9789C12.2285 16.0968 12.776 16.0798 13.2939 15.9295C13.8118 15.7792 14.2833 15.5004 14.6646 15.1191C15.0459 14.7378 15.3247 14.2663 15.475 13.7483C15.6254 13.2304 15.6424 12.6829 15.5244 12.1567C15.9765 11.8675 16.3486 11.4693 16.6064 10.9986C16.8643 10.528 16.9996 10 17 9.46338C17.0002 8.9244 16.8642 8.3941 16.6047 7.92171C16.3452 7.44931 15.9705 7.05011 15.5156 6.76116C15.6335 6.23493 15.6165 5.68743 15.4661 5.16952C15.3158 4.65162 15.037 4.1801 14.6557 3.79877C14.2744 3.41745 13.8029 3.13867 13.285 2.98835C12.7671 2.83803 12.2196 2.82103 11.6933 2.93894C11.4041 2.48687 11.0059 2.1148 10.5352 1.85695C10.0646 1.5991 9.53665 1.46376 9 1.46338ZM6.33333 9.46338L8.11111 11.2412L6.33333 9.46338Z" fill="#0077B6"/>
<path d="M11.6667 7.6856L8.11111 11.2412L6.33333 9.46338M9 1.46338C8.45868 1.46267 7.92603 1.59929 7.45188 1.86046C6.97774 2.12163 6.57759 2.49881 6.28889 2.95671C6.02703 2.89353 5.75823 2.86367 5.48889 2.86783C4.67835 2.89793 3.90949 3.23471 3.33778 3.81005C2.96254 4.19264 2.68939 4.66335 2.5434 5.17898C2.39741 5.6946 2.38325 6.23864 2.50222 6.76116C2.04394 7.048 1.66581 7.44627 1.40311 7.91881C1.14042 8.39135 1.00173 8.92274 1 9.46338C1.00023 10.0055 1.1382 10.5387 1.40097 11.0129C1.66373 11.4872 2.04267 11.8869 2.50222 12.1745C2.38438 12.6977 2.39995 13.2422 2.5475 13.7579C2.69506 14.2736 2.96987 14.7439 3.34667 15.1256C3.73019 15.5083 4.20459 15.7873 4.72542 15.9366C5.24625 16.0858 5.79645 16.1004 6.32444 15.9789C6.61097 16.4301 7.00594 16.8024 7.4733 17.0617C7.94067 17.321 8.46554 17.4591 9 17.4634C9.53898 17.4635 10.0693 17.3276 10.5417 17.068C11.0141 16.8085 11.4133 16.4339 11.7022 15.9789C12.2285 16.0968 12.776 16.0798 13.2939 15.9295C13.8118 15.7792 14.2833 15.5004 14.6646 15.1191C15.0459 14.7378 15.3247 14.2663 15.475 13.7483C15.6254 13.2304 15.6424 12.6829 15.5244 12.1567C15.9765 11.8675 16.3486 11.4693 16.6064 10.9986C16.8643 10.528 16.9996 10 17 9.46338C17.0002 8.9244 16.8642 8.3941 16.6047 7.92171C16.3452 7.44931 15.9705 7.05011 15.5156 6.76116C15.6335 6.23493 15.6165 5.68743 15.4661 5.16952C15.3158 4.65162 15.037 4.1801 14.6557 3.79877C14.2744 3.41745 13.8029 3.13867 13.285 2.98835C12.7671 2.83803 12.2196 2.82103 11.6933 2.93894C11.4041 2.48687 11.0059 2.1148 10.5352 1.85695C10.0646 1.5991 9.53665 1.46376 9 1.46338Z" stroke="white" stroke-linecap="round" stroke-linejoin="round"/>
</svg>
