<svg width="14" height="14" viewBox="0 0 14 14" fill="none" xmlns="http://www.w3.org/2000/svg">
<g clip-path="url(#clip0_1728_1976)">
<path d="M6.81023 0.554206L7.65748 0.256289C7.90901 0.175039 8.17377 0.229206 8.35911 0.418789L8.99455 1.05525C9.10045 1.16358 9.24607 1.23129 9.39169 1.25837L10.2787 1.36671C10.5434 1.39379 10.7552 1.58337 10.8479 1.82712L11.1524 2.69379C11.2053 2.84275 11.298 2.96462 11.4304 3.04587L12.185 3.54691C12.41 3.69587 12.5292 3.95316 12.5027 4.21046L12.41 5.11775C12.3968 5.26671 12.4233 5.42921 12.5027 5.56462L12.966 6.35004C13.0984 6.58025 13.0984 6.86462 12.966 7.09483L12.5027 7.88025C12.4233 8.01566 12.3835 8.16462 12.41 8.32712L12.5027 9.23441C12.5292 9.50525 12.41 9.76254 12.185 9.89796L11.4304 10.399C11.298 10.4802 11.2053 10.6021 11.1524 10.7511L10.8479 11.6177C10.7552 11.875 10.5434 12.0511 10.2787 12.0782L9.39169 12.1865C9.24607 12.2 9.10045 12.2813 8.99455 12.3896L8.35911 13.0261C8.17377 13.2157 7.89577 13.2698 7.65748 13.1886L6.81023 12.8907C6.66461 12.8365 6.50575 12.8365 6.37336 12.8907L5.51288 13.1886C5.26135 13.2698 4.99658 13.2157 4.81125 13.0261L4.17581 12.3896C4.0699 12.2813 3.92428 12.2136 3.77866 12.1865L2.8917 12.0782C2.62693 12.0511 2.41512 11.8615 2.32245 11.6177L2.01797 10.7511C1.96501 10.6021 1.87235 10.4802 1.73996 10.399L0.985381 9.89796C0.76033 9.749 0.641186 9.49171 0.667662 9.23441L0.747092 8.32712C0.76033 8.17816 0.733854 8.01566 0.654424 7.88025L0.191084 7.09483C0.0587012 6.86462 0.0587012 6.58025 0.191084 6.35004L0.654424 5.56462C0.733854 5.42921 0.773569 5.28025 0.747092 5.11775L0.654424 4.21046C0.627948 3.93962 0.747092 3.68233 0.972143 3.54691L1.72673 3.04587C1.85911 2.96462 1.95178 2.84275 2.00473 2.69379L2.30921 1.82712C2.40188 1.56983 2.61369 1.39379 2.87846 1.36671L3.76542 1.25837C3.92428 1.24483 4.05666 1.17712 4.16257 1.06879L4.79801 0.432331C4.98334 0.242747 5.26135 0.188581 5.49964 0.269831L6.34689 0.567747C6.50575 0.608372 6.66461 0.608372 6.81023 0.554206Z" fill="#0077B6"/>
<path d="M3.99023 7.17643L5.43321 8.65247L9.17964 4.80664" stroke="white" stroke-miterlimit="10" stroke-linecap="round"/>
</g>
<defs>
<clipPath id="clip0_1728_1976">
<rect width="13" height="13" fill="white" transform="translate(0.0849609 0.229492)"/>
</clipPath>
</defs>
</svg>
