<svg width="51" height="51" viewBox="0 0 51 51" fill="none" xmlns="http://www.w3.org/2000/svg">
<g filter="url(#filter0_d_1728_1994)">
<path d="M25.085 10.2295C33.356 10.2295 40.085 16.9585 40.085 25.2295C40.085 33.5005 33.356 40.2295 25.085 40.2295C16.814 40.2295 10.085 33.5005 10.085 25.2295C10.085 16.9585 16.814 10.2295 25.085 10.2295ZM25.085 7.22949C15.1445 7.22949 7.08496 15.289 7.08496 25.2295C7.08496 35.17 15.1445 43.2295 25.085 43.2295C35.0255 43.2295 43.085 35.17 43.085 25.2295C43.085 15.289 35.0255 7.22949 25.085 7.22949ZM20.585 32.7295V17.7295L34.085 25.4485L20.585 32.7295Z" fill="white"/>
</g>
<defs>
<filter id="filter0_d_1728_1994" x="0.0849609" y="0.229492" width="50" height="50" filterUnits="userSpaceOnUse" color-interpolation-filters="sRGB">
<feFlood flood-opacity="0" result="BackgroundImageFix"/>
<feColorMatrix in="SourceAlpha" type="matrix" values="0 0 0 0 0 0 0 0 0 0 0 0 0 0 0 0 0 0 127 0" result="hardAlpha"/>
<feOffset/>
<feGaussianBlur stdDeviation="3.5"/>
<feColorMatrix type="matrix" values="0 0 0 0 0 0 0 0 0 0 0 0 0 0 0 0 0 0 0.5 0"/>
<feBlend mode="normal" in2="BackgroundImageFix" result="effect1_dropShadow_1728_1994"/>
<feBlend mode="normal" in="SourceGraphic" in2="effect1_dropShadow_1728_1994" result="shape"/>
</filter>
</defs>
</svg>
