<svg width="27" height="20" viewBox="0 0 27 20" fill="none" xmlns="http://www.w3.org/2000/svg">
<path d="M24.3947 4.06467L24.3974 4.06326C24.6683 3.92544 24.9803 3.93874 25.2416 4.10336L25.2431 4.10429C25.5056 4.269 25.6667 4.55554 25.6667 4.88298V15.1178C25.6667 15.4459 25.5062 15.731 25.2439 15.896C25.0947 15.9891 24.9367 16.0319 24.784 16.0319C24.6564 16.0319 24.5253 16.0021 24.3971 15.9367L24.3931 15.9347L22.4206 14.9395C22.4203 14.9393 22.42 14.9392 22.4196 14.939C22.0299 14.7407 21.7839 14.344 21.7839 13.8887V6.11073C21.7839 5.65286 22.0308 5.25772 22.418 5.06264L22.4186 5.06229L24.3947 4.06467ZM13.2068 1C14.5866 1 15.6962 1.47158 16.4573 2.22297C17.2175 2.97343 17.6909 4.06276 17.6909 5.41455V14.5854C17.6909 15.9372 17.2175 17.0266 16.4573 17.777C15.6962 18.5284 14.5866 19 13.2068 19H5.48405C4.10427 19 2.99467 18.5284 2.23356 17.777C1.4734 17.0266 1 15.9372 1 14.5854V5.41455C1 4.06276 1.4734 2.97343 2.23356 2.22297C2.99467 1.47158 4.10427 1 5.48405 1H13.2068Z" stroke="#252525" stroke-width="2"/>
</svg>
