<svg width="22" height="22" viewBox="0 0 22 22" fill="none" xmlns="http://www.w3.org/2000/svg">
<path d="M11 0C4.92472 0 0 4.92472 0 11C0 17.0753 4.92472 22 11 22C17.0753 22 22 17.0753 22 11C22 4.92472 17.0753 0 11 0ZM18.0968 9.55847V9.86585C18.0968 10.1262 17.9495 10.3644 17.7167 10.4806L17.034 10.8221C16.9256 10.8764 16.8048 10.901 16.6838 10.8934C16.5628 10.8859 16.446 10.8464 16.3452 10.7791L15.5375 10.2406C15.4504 10.1826 15.3511 10.1452 15.2474 10.1313C15.1436 10.1174 15.0381 10.1273 14.9387 10.1604L14.8212 10.1994C14.3909 10.3427 14.2153 10.8554 14.4668 11.2329L15.054 12.1137C15.1813 12.3049 15.396 12.4198 15.6258 12.4198H15.9899C16.3696 12.4198 16.6774 12.7276 16.6774 13.1073V13.6103C16.6774 13.7589 16.6291 13.9039 16.5399 14.0228L15.7087 15.1308C15.6457 15.215 15.6027 15.3126 15.5832 15.416L15.3925 16.4286C15.365 16.5745 15.2909 16.7076 15.1813 16.8083C14.761 17.1932 14.3887 17.6275 14.0725 18.1017L13.4945 18.9688C13.3821 19.1374 13.2298 19.2757 13.0512 19.3713C12.8725 19.4669 12.673 19.517 12.4704 19.517C12.0042 19.517 11.5779 19.2535 11.3695 18.8366C11.1265 18.3506 11 17.8147 11 17.2713V15.9456C11 15.5659 10.6922 15.2581 10.3125 15.2581H9.1646C8.5219 15.2581 7.90581 15.0026 7.45117 14.5484C6.99687 14.0939 6.74162 13.4776 6.74149 12.835V12.2113C6.74149 11.4489 7.10077 10.7308 7.71064 10.273L8.93395 9.35532C9.35343 9.04076 9.86358 8.87066 10.3879 8.87052H10.4274C10.8035 8.87052 11.1748 8.9579 11.511 9.12645L12.1639 9.4529C12.3271 9.53452 12.5156 9.54782 12.6886 9.49016L14.787 8.79069C15.0678 8.6971 15.2572 8.43452 15.2572 8.13867C15.2572 7.75899 14.9494 7.45117 14.5697 7.45117H14.1221C13.9398 7.45117 13.7651 7.37887 13.636 7.2498L13.3291 6.94286C13.2652 6.87901 13.1895 6.82836 13.106 6.79381C13.0226 6.75925 12.9332 6.74148 12.8429 6.74149H8.84879C8.46911 6.74149 8.16129 6.43367 8.16129 6.05399V5.85883C8.16129 5.54347 8.37597 5.26847 8.68202 5.19173L9.32294 5.03161C9.48883 4.98992 9.63343 4.88835 9.72835 4.74597L10.0867 4.20883C10.214 4.01766 10.4287 3.90278 10.6585 3.90278H11.7323C12.112 3.90278 12.4198 3.59496 12.4198 3.21528V2.25278C15.9336 2.8223 18.7559 5.45653 19.6017 8.87097H18.7843C18.4046 8.87097 18.0968 9.17879 18.0968 9.55847Z" fill="#1E9800"/>
</svg>
