<svg width="39" height="39" viewBox="0 0 39 39" fill="none" xmlns="http://www.w3.org/2000/svg">
<circle cx="19.5" cy="19.5" r="19.5" fill="#0077B6"/>
<path d="M19 9C12.9247 9 8 13.9247 8 20C8 26.0753 12.9247 31 19 31C25.0753 31 30 26.0753 30 20C30 13.9247 25.0753 9 19 9ZM26.0968 18.5585V18.8658C26.0968 19.1262 25.9495 19.3644 25.7167 19.4806L25.034 19.8221C24.9256 19.8764 24.8048 19.901 24.6838 19.8934C24.5628 19.8859 24.446 19.8464 24.3452 19.7791L23.5375 19.2406C23.4504 19.1826 23.3511 19.1452 23.2474 19.1313C23.1436 19.1174 23.0381 19.1273 22.9387 19.1604L22.8212 19.1994C22.3909 19.3427 22.2153 19.8554 22.4668 20.2329L23.054 21.1137C23.1813 21.3049 23.396 21.4198 23.6258 21.4198H23.9899C24.3696 21.4198 24.6774 21.7276 24.6774 22.1073V22.6103C24.6774 22.7589 24.6291 22.9039 24.5399 23.0228L23.7087 24.1308C23.6457 24.215 23.6027 24.3126 23.5832 24.416L23.3925 25.4286C23.365 25.5745 23.2909 25.7076 23.1813 25.8083C22.761 26.1932 22.3887 26.6275 22.0725 27.1017L21.4945 27.9688C21.3821 28.1374 21.2298 28.2757 21.0512 28.3713C20.8725 28.4669 20.673 28.517 20.4704 28.517C20.0042 28.517 19.5779 28.2535 19.3695 27.8366C19.1265 27.3506 19 26.8147 19 26.2713V24.9456C19 24.5659 18.6922 24.2581 18.3125 24.2581H17.1646C16.5219 24.2581 15.9058 24.0026 15.4512 23.5484C14.9969 23.0939 14.7416 22.4776 14.7415 21.835V21.2113C14.7415 20.4489 15.1008 19.7308 15.7106 19.273L16.934 18.3553C17.3534 18.0408 17.8636 17.8707 18.3879 17.8705H18.4274C18.8035 17.8705 19.1748 17.9579 19.511 18.1265L20.1639 18.4529C20.3271 18.5345 20.5156 18.5478 20.6886 18.4902L22.787 17.7907C23.0678 17.6971 23.2572 17.4345 23.2572 17.1387C23.2572 16.759 22.9494 16.4512 22.5697 16.4512H22.1221C21.9398 16.4512 21.7651 16.3789 21.636 16.2498L21.3291 15.9429C21.2652 15.879 21.1895 15.8284 21.106 15.7938C21.0226 15.7593 20.9332 15.7415 20.8429 15.7415H16.8488C16.4691 15.7415 16.1613 15.4337 16.1613 15.054V14.8588C16.1613 14.5435 16.376 14.2685 16.682 14.1917L17.3229 14.0316C17.4888 13.9899 17.6334 13.8883 17.7283 13.746L18.0867 13.2088C18.214 13.0177 18.4287 12.9028 18.6585 12.9028H19.7323C20.112 12.9028 20.4198 12.595 20.4198 12.2153V11.2528C23.9336 11.8223 26.7559 14.4565 27.6017 17.871H26.7843C26.4046 17.871 26.0968 18.1788 26.0968 18.5585Z" fill="white"/>
</svg>
